<?xml version="1.0" encoding="utf-8" ?>
<svg baseProfile="full" height="200mm" version="1.1" viewBox="0,0,200,200" width="200mm" xmlns="http://www.w3.org/2000/svg" xmlns:ev="http://www.w3.org/2001/xml-events" xmlns:xlink="http://www.w3.org/1999/xlink"><defs /><rect fill="#1a1a1a" height="200" width="200" x="0" y="0" /><text alignment-baseline="middle" fill="#e1ed5e" style="dominant-baseline: central; font-size:9.0px; font-family:Arial;" text-anchor="middle" x="100.0" y="100.0">2017</text><line stroke="#e1ed5e" stroke-width="0.3" x1="100.0" x2="100.0" y1="15.0" y2="10.0" /><path d="M 100.0 14.0 a86.0,86.0 0 0,1 42.46469731375804,11.215312516191453" fill="none" id="id25" stroke="none" /><text fill="#e1ed5e" style="font-size:6.75px; font-family:Arial;" text-anchor="middle"><textPath startOffset="22.20632615414155" xlink:href="#id25">January</textPath></text><path d="M 108.09893153111575 80.62456947434976 l 10.189657088523498 -24.37716533846135 a47.42111469110224,47.42111469110224 0 0,0 0.7504193635972177,0.321290408703841 l -10.607760209911032 24.19815540179472" fill="#beff1f" stroke="none" /><path d="M 109.73455568895987 81.39251694778311 l 6.520290936701263 -12.463455649834167 a35.065984524185,35.065984524185 0 0,0 0.5324268030427605,0.28440395907757005 l -6.733862786272335 12.349372964254842" fill="#ffa60f" stroke="none" /><line stroke="#e1ed5e" stroke-width="0.3" x1="143.23703022742887" x2="145.7803849466894" y1="26.81831364943548" y2="22.513508569990506" /><path d="M 143.74570117128098 25.957352633546492 a86.0,86.0 0 0,1 28.547481713284135,27.462654790039103" fill="none" id="id26" stroke="none" /><text fill="#e1ed5e" style="font-size:6.75px; font-family:Arial;" text-anchor="middle"><textPath startOffset="19.985693538727396" xlink:href="#id26">February</textPath></text><line stroke="#e1ed5e" stroke-width="0.3" x1="172.23445277983987" x2="176.4835382374775" y1="55.19839476539836" y2="52.563006222186495" /><path d="M 173.08426987136738 54.67131705675599 a86.0,86.0 0 0,1 12.851231095245387,41.99856678651699" fill="none" id="id27" stroke="none" /><text fill="#e1ed5e" style="font-size:6.75px; font-family:Arial;" text-anchor="middle"><textPath startOffset="22.20632615414155" xlink:href="#id27">March</textPath></text><path d="M 120.28053869075195 94.5502522615342 l 2.5995550016670133 -0.6985474699354243 a23.69177539450177,23.69177539450177 0 0,0 0.10244286239646036,0.39475413788714114 l -2.611194195933776 0.6536969064994327" fill="#ff0500" stroke="none" /><path d="M 120.45610955862082 95.25157060432595 l 14.653755037228091 -3.401542261805911 a36.04337151206269,36.04337151206269 0 0,0 0.13508645949381856,0.6055661101179355 l -14.710135883723947 3.1487979821380114" fill="#ffb310" stroke="none" /><path d="M 120.73433829027371 96.67025291283417 l 6.94418274589871 -1.115172905312823 a28.03315609219511,28.03315609219511 0 0,0 0.0724111193475129,0.47709880332389726 l -6.962349758685523 0.9954749895968436" fill="#ff4406" stroke="none" /><path d="M 120.83666639777658 97.38593545837742 l 7.06665184562457 -0.8865469967696029 a28.122045625011843,28.122045625011843 0 0,0 0.056123095474343486,0.48082840822736583 l -7.080865294102502 0.7647748502173843" fill="#ff4606" stroke="none" /><line stroke="#e1ed5e" stroke-width="0.3" x1="184.98032266829074" x2="189.97916517819016" y1="98.17113171792111" y2="98.06355123074" /><path d="M 185.9800911702706 98.14961562048488 a86.0,86.0 0 0,1 -9.607161424134198,41.387399972396054" fill="none" id="id28" stroke="none" /><text fill="#e1ed5e" style="font-size:6.75px; font-family:Arial;" text-anchor="middle"><textPath startOffset="21.466115282336823" xlink:href="#id28">April</textPath></text><path d="M 120.99513854157772 99.54816195383933 l 19.06861496432818 -0.4103771790507391 a40.07303033308777,40.07303033308777 0 0,0 0.008905740349337592,0.6897594045264042 l -19.072853711795233 0.08208151646387218" fill="#ffe715" stroke="none" /><path d="M 120.99980553446 99.90962569577887 l 55.818739488612785 -0.24022030754074877 a76.81925638965262,76.81925638965262 0 0,0 -0.005690853589702169,1.3223539560143074 l -55.81460433773358 -0.7206431266772433" fill="#44ffe6" stroke="none" /><line stroke="#e1ed5e" stroke-width="0.3" x1="174.80103733775053" x2="179.2010983576182" y1="140.37084112569926" y2="142.7455964860345" /><path d="M 175.68104954172406 140.8457921977663 a86.0,86.0 0 0,1 -30.038265399797805,32.042727171017184" fill="none" id="id29" stroke="none" /><text fill="#e1ed5e" style="font-size:6.75px; font-family:Arial;" text-anchor="middle"><textPath startOffset="22.206326154141568" xlink:href="#id29">May</textPath></text><path d="M 116.0416608686014 113.55231037782055 l 4.851682083668109 4.0987963771929525 a27.35129520512755,27.35129520512755 0 0,0 -0.30693036133472146,0.35702935158661686 l -4.780409212762609 -4.181702827941097" fill="#ff3a05" stroke="none" /><path d="M 115.32070863581623 114.36230785411682 l 2.5410181506548906 2.3820624626518665 a24.482957768611712,24.482957768611712 0 0,0 -0.29087321743495753,0.3049794055847545 l -2.4996383818409686 -2.425448984819128" fill="#ff1101" stroke="none" /><path d="M 114.81725581225074 114.88116024355365 l 1.9703970665071604 1.9788950708320883 a23.79257771620837,23.79257771620837 0 0,0 -0.29270540886119284,0.2864738488928568 l -1.9360417052701733 -2.012519022647517" fill="#ff0601" stroke="none" /><path d="M 111.7513745106137 117.40417183066458 l 16.521463058562652 24.46882972757754 a50.52426747326058,50.52426747326058 0 0,0 -0.7249638151106131,0.4804664855867462 l -16.097824544712076 -24.749594234255603" fill="#9aff22" stroke="none" /><path d="M 111.1453310114006 117.79835938074945 l 2.2832084500653407 3.646133479019938 a25.30201466446592,25.30201466446592 0 0,0 -0.37112127620348806,0.22797299938068838 l -2.2201079739295437 -3.6848949452290043" fill="#ff1d02" stroke="none" /><line stroke="#e1ed5e" stroke-width="0.3" x1="143.8653032363475" x2="146.44561519142675" y1="172.8068346515853" y2="177.08958963109032" /><path d="M 144.38136562736335 173.6633856474863 a86.0,86.0 0 0,1 -40.68145358897372,12.25698825130547" fill="none" id="id30" stroke="none" /><text fill="#e1ed5e" style="font-size:6.75px; font-family:Arial;" text-anchor="middle"><textPath startOffset="21.466115282336833" xlink:href="#id30">June</textPath></text><path d="M 110.8373102113329 117.98757091392108 l 7.250470950095508 12.034200168763755 a35.04960151392389,35.04960151392389 0 0,0 -0.5194553380373987,0.3069033698531183 l -7.042247741029727 -12.157222110910622" fill="#ffa50f" stroke="none" /><path d="M 108.2653958097858 119.30500536409082 l 9.315659150356174 21.75804450341601 a44.6684179027295,44.6684179027295 0 0,0 -0.7094377252216595,0.2965450266797568 l -8.939749965637054 -21.91517457311574" fill="#deff1b" stroke="none" /><path d="M 107.59598834532513 119.57807347666477 l 4.608974464595479 11.879275825305351 a33.74205006068401,33.74205006068401 0 0,0 -0.5432948541959448,0.2054276259641958 l -4.40380938963926 -11.956851701376179" fill="#ff940d" stroke="none" /><path d="M 106.91757812671514 119.82793768551818 l 20.752734380145416 59.48381305655456 a84.0,84.0 0 0,0 -1.3693210682510921,0.46454805240750785 l -19.725743578957097 -59.83222409586019" fill="#4dd2ff" stroke="none" /><path d="M 106.2309692047433 120.05430185196036 l 1.4865088339725143 4.7843113779790425 a26.009924537848654,26.009924537848654 0 0,0 -0.4286993235938163,0.12916358952464183 l -1.4039345359384523 -4.809190336609411" fill="#ff2703" stroke="none" /><path d="M 105.88484417918355 120.15858648285463 l 3.2823708742037065 11.243790850145935 a32.71310339908456,32.71310339908456 0 0,0 -0.5418985270053712,0.1531459366097999 l -3.08834117909373 -11.298625580094253" fill="#ff860c" stroke="none" /><path d="M 105.18746579009965 120.34920634021253 l 0.9211648283895812 3.6135126330897593 a24.72907739133439,24.72907739133439 0 0,0 -0.413383875693279,0.10159969906568105 l -0.8588276679530911 -3.6288335904694704" fill="#ff1402" stroke="none" /><path d="M 104.83641907484287 120.43548508189849 l 1.1613386682388533 4.907043550728288 a26.04259694116939,26.04259694116939 0 0,0 -0.4371186037735854,0.0994867710828768 l -1.076699915072406 -4.9263070553888495" fill="#ff2803" stroke="none" /><path d="M 104.48393922423573 120.51570834832081 l 2.515984483336153 11.511575266237717 a32.783316300203616,32.783316300203616 0 0,0 -0.5523341537939758,0.11574699217191398 l -2.317458868112799 -11.553178239136171" fill="#ff870c" stroke="none" /><line stroke="#e1ed5e" stroke-width="0.3" x1="102.19456741930631" x2="102.32365962044197" y1="184.97166512339345" y2="189.96999836594603" /><path d="M 102.22038585953345 185.97133177190398 a86.0,86.0 0 0,1 -42.740103519485714,-10.115201625700543" fill="none" id="id31" stroke="none" /><text fill="#e1ed5e" style="font-size:6.75px; font-family:Arial;" text-anchor="middle"><textPath startOffset="22.20632615414155" xlink:href="#id31">July</textPath></text><path d="M 100.18074693466247 120.99922214144158 l 0.029787243737369212 3.460689108727583 a24.460817300458835,24.460817300458835 0 0,0 -0.42106835679964694,0.0 l 0.02978724373736683 -3.460689108727583" fill="#ff1001" stroke="none" /><path d="M 98.01472825383883 120.90594882070398 l -0.4783236864267918 5.036998349221015 a26.05965867614132,26.05965867614132 0 0,0 -0.4462001811202217,-0.04625047317557624 l 0.5649564641526068 -5.028018507589678" fill="#ff2803" stroke="none" /><path d="M 97.2962882734958 120.8252237178851 l -0.5106332385609851 3.933130639104844 a24.96613954981271,24.96613954981271 0 0,0 -0.4256981314870292,-0.05899788205389129 l 0.5782599612348452 -3.9237581915583477" fill="#ff1802" stroke="none" /><line stroke="#e1ed5e" stroke-width="0.3" x1="58.666819895761336" x2="56.23545636021788" y1="174.27360380694188" y2="178.64263932499728" /><path d="M 58.180547188652646 175.14741091055294 a86.0,86.0 0 0,1 -31.652253787137756,-30.449443065178592" fill="none" id="id32" stroke="none" /><text fill="#e1ed5e" style="font-size:6.75px; font-family:Arial;" text-anchor="middle"><textPath startOffset="22.20632615414155" xlink:href="#id32">August</textPath></text><line stroke="#e1ed5e" stroke-width="0.3" x1="26.63291911575756" x2="22.317208475507996" y1="142.92168965132927" y2="145.44649492493687" /><path d="M 25.769776987707644 143.4266507060508 a86.0,86.0 0 0,1 -11.730757126820373,-40.83630448921669" fill="none" id="id33" stroke="none" /><text fill="#e1ed5e" style="font-size:6.75px; font-family:Arial;" text-anchor="middle"><textPath startOffset="21.46611528233685" xlink:href="#id33">September</textPath></text><path d="M 81.87401531095188 110.60418214915194 l -4.074589629867686 2.383743082618235 a25.720647385238127,25.720647385238127 0 0,0 -0.22027652809065026,-0.3840706938898622 l 4.115018154110713 -2.3132525428700657" fill="#ff2303" stroke="none" /><path d="M 81.51974371655577 109.97397251340807 l -12.670702235528504 6.838500174694874 a35.398325589481885,35.398325589481885 0 0,0 -0.2847837295896093,-0.538703492832903 l 12.786538473342999 -6.619381666775846" fill="#ffaa0f" stroke="none" /><path d="M 80.58989483394504 108.01547362559985 l -6.528651588110376 2.69603045256788 a28.063417852577427,28.063417852577427 0 0,0 -0.18053782794694107,-0.44808008316479586 l 6.574092030314705 -2.5832510015602788" fill="#ff4506" stroke="none" /><path d="M 80.20201598880116 107.00284435728193 l -2.2307376294700294 0.789045410496052 a23.36617476771232,23.36617476771232 0 0,0 -0.13086078087933084,-0.3803426838090561 l 2.2439892412925886 -0.750530023597699" fill="#ff0000" stroke="none" /><line stroke="#e1ed5e" stroke-width="0.3" x1="15.007084014347285" x2="10.007500721073583" y1="101.09737516637583" y2="101.16192664675087" /><path d="M 14.007167355692545 101.11028546245083 a86.0,86.0 0 0,1 10.666146001902534,-42.60595125391555" fill="none" id="id34" stroke="none" /><text fill="#e1ed5e" style="font-size:6.75px; font-family:Arial;" text-anchor="middle"><textPath startOffset="22.20632615414155" xlink:href="#id34">October</textPath></text><path d="M 79.00486145842228 99.54816195383935 l -5.231990087606502 -0.11259807474165655 a26.233201563407263,26.233201563407263 0 0,0 0.013601672096620377,-0.4513732787369692 l 5.229276721054237 0.20264150090362013" fill="#ff2a04" stroke="none" /><path d="M 79.71946130924805 94.55025226153421 l -2.933800292285835 -0.7883652279554998 a24.03787818841799,24.03787818841799 0 0,0 0.11081831505491349,-0.3986724410865873 l 2.9197952066645607 0.8387489724610295" fill="#ff0a01" stroke="none" /><line stroke="#e1ed5e" stroke-width="0.3" x1="26.266209847984243" x2="21.928928074336255" y1="57.711370442889674" y2="55.22380399835377" /><path d="M 25.398753493254645 57.213857153982495 a86.0,86.0 0 0,1 29.58750427330803,-30.492523968695096" fill="none" id="id35" stroke="none" /><text fill="#e1ed5e" style="font-size:6.75px; font-family:Arial;" text-anchor="middle"><textPath startOffset="21.46611528233685" xlink:href="#id35">November</textPath></text><line stroke="#e1ed5e" stroke-width="0.3" x1="56.762969772571076" x2="54.21961505331055" y1="26.818313649435495" y2="22.513508569990535" /><path d="M 56.25429882871897 25.957352633546506 a86.0,86.0 0 0,1 42.265352541879196,-11.944610805530505" fill="none" id="id36" stroke="none" /><text fill="#e1ed5e" style="font-size:6.75px; font-family:Arial;" text-anchor="middle"><textPath startOffset="22.20632615414155" xlink:href="#id36">December</textPath></text></svg>