<?xml version="1.0" encoding="utf-8" ?>
<svg baseProfile="full" height="200mm" version="1.1" viewBox="0,0,200,200" width="200mm" xmlns="http://www.w3.org/2000/svg" xmlns:ev="http://www.w3.org/2001/xml-events" xmlns:xlink="http://www.w3.org/1999/xlink"><defs /><rect fill="#1a1a1a" height="200" width="200" x="0" y="0" /><text alignment-baseline="middle" fill="#e1ed5e" style="dominant-baseline: central; font-size:9.0px; font-family:Arial;" text-anchor="middle" x="100.0" y="100.0">2025</text><line stroke="#e1ed5e" stroke-width="0.3" x1="100.0" x2="100.0" y1="15.0" y2="10.0" /><path d="M 100.0 14.0 a86.0,86.0 0 0,1 42.46469731375804,11.215312516191453" fill="none" id="id121" stroke="none" /><text fill="#e1ed5e" style="font-size:6.75px; font-family:Arial;" text-anchor="middle"><textPath startOffset="22.20632615414155" xlink:href="#id121">January</textPath></text><path d="M 100.0 79.0 l 0.0 -34.143444575031026 a55.143444575031026,55.143444575031026 0 0,0 0.949203751129539,0.008170096360291142 l -0.5877232718570107 34.138385855279296" fill="#63ff29" stroke="none" /><path d="M 100.36148047927253 79.00311137660856 l 0.3181672197417095 -18.48100259791397 a39.483741163623264,39.483741163623264 0 0,0 0.6794463047330211,0.017548093489398415 l -0.6362401596695985 18.472787712282212" fill="#ffe915" stroke="none" /><path d="M 100.72285384407766 79.0124445844662 l 0.5877126472753733 -17.06382535578905 a38.07394336199569,38.07394336199569 0 0,0 0.6547977948701952,0.028196970450860778 l -0.8813512745349 17.05118065881399" fill="#ffd714" stroke="none" /><path d="M 101.08401301168833 79.027996857942 l 1.8942344131037985 -36.647060169079474 a57.695982655434065,57.695982655434065 0 0,0 0.9913761986462912,0.05980251963330863 l -2.5247726605897016 36.60902438006586" fill="#48ff2c" stroke="none" /><path d="M 101.44485096284872 79.0497635885617 l 2.92764138728674 -42.45059232312699 a63.551426212018825,63.551426212018825 0 0,0 1.0906932136584215,0.08465878503954143 l -3.6579247903075025 42.39390827589899" fill="#33ff57" stroke="none" /><path d="M 101.80526077348638 79.07773832637324 l 0.9709988191959977 -11.253494053807726 a32.29530730551258,32.29530730551258 0 0,0 0.5534414101025166,0.052555930565756165 l -1.1645653563887586 11.235112578726792" fill="#ff8c0c" stroke="none" /><path d="M 102.16513564639614 79.11191278185805 l 1.8715295812840236 -18.055530696316005 a39.15226739829575,39.15226739829575 0 0,0 0.6697522896456426,0.07525447347601372 l -2.182048574439391 18.02064026936939" fill="#ffe515" stroke="none" /><path d="M 102.52436894288641 79.15227682838746 l 2.790483842159277 -23.045456497209084 a44.213786103048946,44.213786103048946 0 0,0 0.7547614816594058,0.09798970211895656 l -3.186760052326529 22.99400847192599" fill="#dcff1b" stroke="none" /><path d="M 102.88285421437855 79.19881850522331 l 2.2608270635778966 -16.312956043087443 a37.46887591413298,37.46887591413298 0 0,0 0.6380967759696933,0.09403887776014404 l -2.5412928199762455 16.27162268116633" fill="#ffd013" stroke="none" /><path d="M 103.2404852339499 79.25152402106235 l 0.5229375060291745 -3.3483122122134708 a24.388902227221948,24.388902227221948 0 0,0 0.41422900565640985,0.0683513351843868 l -0.5804957178244596 3.338814614089459" fill="#ff1e03" stroke="none" /><path d="M 103.59715602781102 79.31037775812273 l 8.004111469677726 -46.036936237731894 a67.7275646548803,67.7275646548803 0 0,0 1.14686916319496,0.2095830089706729 l -8.795375753975588 45.89233774741048" fill="#39ff87" stroke="none" /><path d="M 103.95276090670814 79.375362276772 l 6.000453583428136 -31.309048094263815 a52.878863464305,52.878863464305 0 0,0 0.8924783543310125,0.17902276187835867 l -6.538498347226274 31.201121376308247" fill="#7aff26" stroke="none" /><path d="M 104.307194497241 79.44645832069477 l 0.7196851791447121 -3.4342724330197374 a24.508870744453244,24.508870744453244 0 0,0 0.41216600124687636,0.09008352373260967 l -0.7786939045451164 3.4213754111912573" fill="#ff2003" stroke="none" /><path d="M 104.66035177308747 79.52364482259891 l 4.474424244863411 -19.659438710460233 a41.1621924088965,41.1621924088965 0 0,0 0.6895182991495625,0.16318670396593996 l -4.812166230975498 19.579506094353423" fill="#fffe18" stroke="none" /><path d="M 105.01212808612495 79.60689891045804 l 4.738935842285479 -19.2815498782072 a40.85536901251372,40.85536901251372 0 0,0 0.6814891721227058,0.17372676396346454 l -5.07013390309321 19.197120118074867" fill="#fffa17" stroke="none" /><path d="M 105.36241919743992 79.69619591428918 l 5.590019848833283 -21.165571669617183 a42.89131668063965,42.89131668063965 0 0,0 0.7122044124053954,0.1946723695879361 l -5.953522150462389 21.066212759202955" fill="#ecff1a" stroke="none" /><path d="M 105.71112130821622 79.79150937346287 l 3.962376324128866 -14.020652072260152 a35.56980132552911,35.56980132552911 0 0,0 0.5877651911234671,0.17158477687170545 l -4.20313173297576 13.950368966469744" fill="#ffb711" stroke="none" /><path d="M 106.0581310904928 79.89281104454417 l 9.694765697615127 -32.17733040916456 a54.606086862236744,54.606086862236744 0 0,0 0.8976580916130097,0.2789067386398513 l -10.247209161938855 32.005683535642184" fill="#68ff28" stroke="none" /><path d="M 106.40334571778207 80.00007090966166 l 0.9589867952212332 -2.9952572839747833 a24.145031298828787,24.145031298828787 0 0,0 0.39473352392297123,0.1301374366837432 l -1.010403141386622 2.9783061230318038" fill="#ff1b02" stroke="none" /><path d="M 106.74666289553966 80.11325718540242 l 5.220233893435235 -15.387377504725329 a37.248760825832136,37.248760825832136 0 0,0 0.6054129712475935,0.21121669807298055 l -5.484328868746101 15.29523995348014" fill="#ffcd13" stroke="none" /><path d="M 107.08798089147638 80.2323363322302 l 6.422818364388123 -17.912592481602175 a40.02928178239715,40.02928178239715 0 0,0 0.646601898438997,0.23814893609297705 l -6.7302025885996954 17.799380277702873" fill="#fff016" stroke="none" /><path d="M 107.4271985657038 80.35727306442388 l 5.116467670706564 -13.531532305393355 a35.46653406857667,35.46653406857667 0 0,0 0.5691818600106282,0.2208337189133757 l -5.3486326957168595 13.441455882589434" fill="#ffb610" stroke="none" /><path d="M 107.76421540070413 80.48803036053334 l 8.660108380002692 -21.7634059675597 a44.42313634981887,44.42313634981887 0 0,0 0.7080542999885151,0.288833127150014 l -9.033446549579594 21.611111954226107" fill="#d9ff1c" stroke="none" /><path d="M 108.09893153111575 80.62456947434976 l 1.9014000144736714 -4.548802979796232 a25.93020593525702,25.93020593525702 0 0,0 0.41033469505370845,0.17568390192811484 l -1.9794184673176949 4.515399549905326" fill="#ff3405" stroke="none" /><path d="M 108.76106565485865 80.91482961587045 l 6.794557359742304 -14.801314132774353 a37.286341202734704,37.286341202734704 0 0,0 0.5809953934501119,0.27278512752252004 l -7.048330964492013 14.682164022611829" fill="#ffcd13" stroke="none" /><path d="M 109.08828744355905 81.06846463323043 l 5.429154277248057 -11.30930627466151 a33.54496411235437,33.54496411235437 0 0,0 0.5183954619791856,0.25437440182641335 l -5.623021006237675 11.214176712700267" fill="#ff9d0e" stroke="none" /><path d="M 109.41281617654863 81.2277094730956 l 9.223934911410453 -18.39559837465596 a41.57860575480228,41.57860575480228 0 0,0 0.6370228734423546,0.3263078578798141 l -9.539218272441563 18.234097991463646" fill="#fbff18" stroke="none" /><path d="M 109.73455568895987 81.39251694778311 l 6.128364519674968 -11.71429314097886 a34.22049603754698,34.22049603754698 0 0,0 0.5195892700871503,0.27754659356460376 l -6.32909883629043 11.607067820912503" fill="#ffa60f" stroke="none" /><path d="M 110.05341064243156 81.56283822128135 l 15.415930085683856 -28.271599267969954 a53.20146309681242,53.20146309681242 0 0,0 0.8002409818288634,0.4453332399852348 l -15.900295156584756 28.00205063042454" fill="#77ff27" stroke="none" /><path d="M 110.36928655335952 81.73862282372117 l 10.16499189454152 -17.901593328028827 a41.5862600755509,41.5862600755509 0 0,0 0.6194437160085231,0.35882178263742803 l -10.471632343015372 17.723967388001352" fill="#fbff18" stroke="none" /><line stroke="#e1ed5e" stroke-width="0.3" x1="143.23703022742887" x2="145.7803849466894" y1="26.81831364943548" y2="22.513508569990506" /><path d="M 143.74570117128098 25.957352633546492 a86.0,86.0 0 0,1 28.547481713284135,27.462654790039103" fill="none" id="id122" stroke="none" /><text fill="#e1ed5e" style="font-size:6.75px; font-family:Arial;" text-anchor="middle"><textPath startOffset="19.985693538727396" xlink:href="#id122">February</textPath></text><path d="M 110.68208982089419 81.91981866633111 l 2.043777790313472 -3.4592363174399368 a25.017877991685914,25.017877991685914 0 0,0 0.3688801928078508,0.2222461887380816 l -2.10302004933896 3.423543519243241" fill="#ff2703" stroke="none" /><path d="M 111.2981086023043 82.29822771554956 l 4.250230490329127 -6.659221905593078 a28.89998073471411,28.89998073471411 0 0,0 0.4170308150865438,0.2712484425990983 l -4.364228331199951 6.585074538834451" fill="#ff5e08" stroke="none" /><path d="M 111.60114157652 82.49532879139004 l 1.2130340769840904 -1.8303166582693884 a23.195793874994433,23.195793874994433 0 0,0 0.3309214740219915,0.2234396564612783 l -1.2443602454126237 1.80916508950944" fill="#ff0d01" stroke="none" /><path d="M 111.90073688211348 82.69761687909136 l 11.299937153415154 -16.428885354522418 a40.93983083336399,40.93983083336399 0 0,0 0.5771909076415327,0.40435911664381285 l -11.581059200640338 16.231941395114667" fill="#fffb17" stroke="none" /><path d="M 112.19680574252982 82.90503203632743 l 13.85762403633478 -19.422760676405264 a44.85953428349594,44.85953428349594 0 0,0 0.6247324241617226,0.4538946747773726 l -14.189901776850292 19.181346766811217" fill="#d4ff1c" stroke="none" /><path d="M 112.48926042617603 83.11751280151076 l 2.5657824628661605 -3.4683230315751317 a25.314221169354447,25.314221169354447 0 0,0 0.34807517748866956,0.26216300732926107 l -2.625103794113213 3.4236434347400233" fill="#ff2b04" stroke="none" /><path d="M 112.77801427241765 83.33499621200491 l 23.3328656457344 -30.430572863757966 a59.346347727761184,59.346347727761184 0 0,0 0.8053227177428597,0.6285671550155856 l -23.85322091863669 30.024427319519155" fill="#38ff2e" stroke="none" /><path d="M 113.06298171725822 83.55741782278167 l 5.2950776017659615 -6.6649981211226015 a29.512346724804587,29.512346724804587 0 0,0 0.3950390649870924,0.31942745076071505 l -5.409020065317545 6.572864573097757" fill="#ff6609" stroke="none" /><path d="M 113.34407831869373 83.78471172551755 l 6.460680128601646 -7.850807544177494 a31.167377578305157,31.167377578305157 0 0,0 0.4113239899322224,0.3444720125235453 l -6.594861655492986 7.738434374260129" fill="#ff7d0b" stroke="none" /><path d="M 113.89432698308785 84.25364557470407 l 17.158675858775663 -19.445820720206275 a46.933763720465535,46.933763720465535 0 0,0 0.6011746072176751,0.5397404981276197 l -17.49086145358933 19.14758121330936" fill="#bcff1f" stroke="none" /><path d="M 114.16331599549186 84.49514656593476 l 3.1923013433794427 -3.494673455158546 a25.733236781012753,25.733236781012753 0 0,0 0.32447420114536435,0.30156340748869614 l -3.251983428319654 3.4392054615952095" fill="#ff3104" stroke="none" /><path d="M 114.42810811169701 84.74124197986012 l 3.6417442955371033 -3.8514055028306524 a26.300530715061583,26.300530715061583 0 0,0 0.3262728072933243,0.31387418211057155 l -3.707500346442846 3.788148233957779" fill="#ff3905" stroke="none" /><path d="M 114.94478906791727 85.2469230424477 l 28.452719972955737 -28.08772780298602 a60.98096705926544,60.98096705926544 0 0,0 0.7310042210838399,0.7533641069120242 l -28.931988457742687 27.593799500523883" fill="#30ff38" stroke="none" /><path d="M 115.19652480421416 85.50635884689758 l 8.875374200271384 -8.46486222445835 a33.2648342701361,33.2648342701361 0 0,0 0.39162638384830806,0.4177597209294219 l -9.019767906090156 8.310833086650874" fill="#ff990e" stroke="none" /><path d="M 115.68641384162765 86.03803664274999 l 13.397884838640621 -11.925018622506649 a38.936259010635595,38.936259010635595 0 0,0 0.44129268792245685,0.5044738274498451 l -13.601169390140926 11.692629238853856" fill="#ffe215" stroke="none" /><path d="M 116.15771136456269 86.58626213691792 l 14.572092437831166 -12.097395705827928 a39.93918849581682,39.93918849581682 0 0,0 0.4345792760256518,0.5327428071754435 l -14.778170205933227 11.844768729044382" fill="#ffef16" stroke="none" /><path d="M 116.38621287248628 86.86637796730983 l 6.665523805054225 -5.342446786619718 a29.542303276260327,29.542303276260327 0 0,0 0.31461978940910423,0.3995351824097146 l -6.756497675057294 5.226919210256964" fill="#ff6709" stroke="none" /><path d="M 116.60985879189232 87.15038557335679 l 32.90127563368731 -25.452877795924245 a62.59739086070327,62.59739086070327 0 0,0 0.651978831449095,0.8579277180874215 l -33.33453040536052 24.882765301955793" fill="#32ff4c" stroke="none" /><path d="M 116.82858285166822 87.43820079747576 l 1.1962685051695503 -0.8929619853732413 a22.492795847992053,22.492795847992053 0 0,0 0.2289310200863892,0.3122616541199798 l -1.211462137769566 0.8722378875817679" fill="#ff0300" stroke="none" /><path d="M 117.04232023915458 87.72973835380427 l 15.639563317327688 -11.260293859222504 a40.271485634292596,40.271485634292596 0 0,0 0.40019765874409935,0.56605120721486 l -15.83107359587567 10.989416151675849" fill="#fff316" stroke="none" /><path d="M 117.2510076193507 88.02491185347247 l 1.2826118303012208 -0.8903473967750896 a22.56134928640994,22.56134928640994 0 0,0 0.21871136839120212,0.32093194554872295 l -1.2977476643611563 0.8681374279559602" fill="#ff0400" stroke="none" /><path d="M 117.45458315368197 88.32363383020206 l 12.878429801709554 -8.615116198010059 a36.494327389815155,36.494327389815155 0 0,0 0.34479034973756023,0.5251393573565211 l -13.02481678680504 8.392158776675863" fill="#ffc312" stroke="none" /><path d="M 117.65298651832404 88.62581576622439 l 9.036819166887124 -5.822609448253702 a31.750203786064326,31.750203786064326 0 0,0 0.292060151668324,0.46196902154215574 l -9.135706914801403 5.666192778997339" fill="#ff850c" stroke="none" /><line stroke="#e1ed5e" stroke-width="0.3" x1="172.23445277983987" x2="176.4835382374775" y1="55.19839476539836" y2="52.563006222186495" /><path d="M 173.08426987136738 54.67131705675599 a86.0,86.0 0 0,1 12.851231095245387,41.99856678651699" fill="none" id="id123" stroke="none" /><text fill="#e1ed5e" style="font-size:6.75px; font-family:Arial;" text-anchor="middle"><textPath startOffset="22.20632615414155" xlink:href="#id123">March</textPath></text><path d="M 117.84615892207809 88.93136811851018 l 10.498590670088388 -6.511487200637371 a33.35394154195863,33.35394154195863 0 0,0 0.2984132705056596,0.4905129542249484 l -10.609119738880272 6.329806473205342" fill="#ff9a0e" stroke="none" /><path d="M 118.03404312379186 89.2402003453031 l 51.949165829355884 -30.99485859690942 a81.49295074476304,81.49295074476304 0 0,0 0.7083690360629823,1.2108323038283821 l -52.47499453988919 30.09604688072714" fill="#4ae9ff" stroke="none" /><path d="M 118.21658344932153 89.55222093294921 l 1.333565943689984 -0.7648416833912384 a22.537329153702128,22.537329153702128 0 0,0 0.1901102688216957,0.3381849551599455 l -1.3465338538041127 0.741773218296499" fill="#ff0300" stroke="none" /><path d="M 118.3937258080291 89.86733742301442 l 6.454211452907187 -3.5554703563253733 a28.36873224737789,28.36873224737789 0 0,0 0.23193721725308294,0.4297444384114582 l -6.514456769378735 3.443844934581456" fill="#ff5608" stroke="none" /><path d="M 118.56541770881063 90.18545643968196 l 12.635433717750233 -6.679678129058139 a35.29238556516991,35.29238556516991 0 0,0 0.27929816962891973,0.5395151649011808 l -12.748541320539271 6.461190241896614" fill="#ffb410" stroke="none" /><path d="M 118.73160827565052 90.50648371742162 l 15.245261568447388 -7.726573009769797 a38.0914578303222,38.0914578303222 0 0,0 0.2913814901166076,0.5874073037355447 l -15.376003071517404 7.463006117535302" fill="#ffd714" stroke="none" /><path d="M 118.89224826269711 90.83032412892265 l 10.853962841113614 -5.268156536257626 a33.06490707161846,33.06490707161846 0 0,0 0.2441163291827721,0.5141712466846542 l -10.943037364138142 5.080542873932432" fill="#ff960d" stroke="none" /><path d="M 119.04729006885535 91.15688171328212 l 16.67977069560595 -7.74394597464321 a39.389764808615354,39.389764808615354 0 0,0 0.280225695131706,0.6174401738992196 l -16.810598707701 7.455683791901927" fill="#ffe815" stroke="none" /><path d="M 119.196687751892 91.48605970444005 l 17.35466648305471 -7.696983781565146 a39.98494161359838,39.98494161359838 0 0,0 0.2736289322034323,0.6315733017564441 l -17.484586125100822 7.3971113352221" fill="#ffef16" stroke="none" /><path d="M 119.34039704204932 91.81776055985345 l 3.4126725670699947 -1.4437813253717717 a24.705514615478446,24.705514615478446 0 0,0 0.1623250110120053,0.3930828896699492 l -3.4370192649681974 1.3848238652485194" fill="#ff2303" stroke="none" /><path d="M 119.47837535516314 92.15188598940014 l 16.274939099882182 -6.557404056678061 a38.5463155866812,38.5463155866812 0 0,0 0.24267007375499056,0.6175688684161917 l -16.385402723518872 6.276286183366085" fill="#ffdd14" stroke="none" /><path d="M 119.61058180528143 92.48833698450437 l 4.130701843916248 -1.5822294604553175 a25.42336385445125,25.42336385445125 0 0,0 0.1530188826693463,0.41001452935178034 l -4.15732531508722 1.5108917940742037" fill="#ff2d04" stroke="none" /><path d="M 119.7369772167798 92.82701384747503 l 16.43834127763488 -5.974166816928239 a38.490275387096716,38.490275387096716 0 0,0 0.2209468626998345,0.6246465338769437 l -16.538741221144523 5.690322656624681" fill="#ffdc14" stroke="none" /><path d="M 119.85752413597 93.16781622104841 l 3.598311883134633 -1.2380359158183782 a24.805335903328924,24.805335903328924 0 0,0 0.13544033064647473,0.4049493494622845 l -3.6190895075528777 1.1759134634337798" fill="#ff2403" stroke="none" /><path d="M 119.97218684219823 93.5106431181261 l 15.440854331324422 -5.017037698910488 a37.23547503935346,37.23547503935346 0 0,0 0.19281684380073932,0.6112820868023966 l -15.524926658893367 4.750505445681672" fill="#ffcd13" stroke="none" /><path d="M 120.08093135843002 93.85539295169968 l 40.95030890194992 -12.530472427682719 a63.824531969725435,63.824531969725435 0 0,0 0.3124183574330192,1.053319389779212 l -41.15993315649464 11.823723651156977" fill="#34ff5a" stroke="none" /><path d="M 120.18372546131832 94.20196356495316 l 3.310636200910502 -0.9510231078425703 a24.444525657682007,24.444525657682007 0 0,0 0.11269302242350439,0.40541676094552637 l -3.3265159939003697 0.893895043478092" fill="#ff1f03" stroke="none" /><path d="M 120.28053869075195 94.5502522615342 l 16.78949239785386 -4.511640426342158 a38.38510725633286,38.38510725633286 0 0,0 0.165976597163185,0.6395755349848393 l -16.864665326887348 4.221968465808469" fill="#ffdb14" stroke="none" /><path d="M 120.37134235888165 94.90015583598534 l 12.148295258393306 -3.041253324635849 a33.52319046687823,33.52319046687823 0 0,0 0.1353174753428791,0.5609782958074104 l -12.198845533997005 2.8316897971690325" fill="#ff9c0e" stroke="none" /><path d="M 120.45610955862082 95.25157060432595 l 16.843615339958287 -3.9098694686047 a38.29145618454401,38.29145618454401 0 0,0 0.1435120253137693,0.6433362696013416 l -16.908421752274094 3.6193550294533945" fill="#ffda14" stroke="none" /><path d="M 120.53481517161879 95.60439243477599 l 10.42106891357389 -2.2306959654322127 a31.65714229011003,31.65714229011003 0 0,0 0.1094744744012818,0.5338364162488916 l -10.45792268389017 2.050983893019909" fill="#ff830c" stroke="none" /><path d="M 120.6074358757038 95.95851677861258 l 18.074075040811834 -3.544646284968418 a39.41837956679245,39.41837956679245 0 0,0 0.12485166578721878,0.6669625909991965 l -18.132412430508914 3.2330056165066585" fill="#ffe815" stroke="none" /><path d="M 120.67395015179393 96.31383870115 l 39.248163775831564 -6.997939982400636 a60.86714842789459,60.86714842789459 0 0,0 0.17503113276823037,1.0330436535424257 l -39.36280677012002 6.321310540542372" fill="#30ff37" stroke="none" /><path d="M 120.73433829027371 96.67025291283417 l 5.945887343556051 -0.9548556981010162 a27.02206988555065,27.02206988555065 0 0,0 0.06979943039821404,0.45989103629042805 l -5.961442667393565 0.8523655494185061" fill="#ff4406" stroke="none" /><path d="M 120.78858239683441 97.02765380044208 l 6.606636868028365 -0.9446152513763305 a27.673825640449742,27.673825640449742 0 0,0 0.06336515515088868,0.4721440062797017 l -6.6219180222370895 0.8307529030319645" fill="#ff4d07" stroke="none" /><path d="M 120.83666639777658 97.38593545837742 l 13.948134031924798 -1.7498635289637523 a35.05747009040162,35.05747009040162 0 0,0 0.06996410457504627,0.5994097216403759 l -13.976188489503434 1.5095100689985237" fill="#ffb110" stroke="none" /><path d="M 120.87857604477298 97.74499172005257 l 7.371048166242561 -0.7961162969698597 a28.413916119526093,28.413916119526093 0 0,0 0.04833460735302511,0.4867228998431059 l -7.3836598992778155 0.6691178664223189" fill="#ff5708" stroke="none" /><path d="M 120.91429891909075 98.10471618934814 l 5.482637016510576 -0.49684444203807354 a26.505103364551488,26.505103364551488 0 0,0 0.03726556467885853,0.45473427929606874 l -5.4903770650089285 0.402396245534236" fill="#ff3c05" stroke="none" /><path d="M 120.94382443527127 98.46500227214037 l 10.970727738335 -0.8040576449328304 a32.00015344461376,32.00015344461376 0 0,0 0.035534507909352864,0.5497031094122107 l -10.98294283724877 0.6150954712675843" fill="#ff880c" stroke="none" /><path d="M 120.96714384426684 98.82574320788733 l 46.20349644793235 -2.587608971747159 a67.27589874010837,67.27589874010837 0 0,0 0.05480228001390071,1.1567895155718504 l -46.24119233617975 1.7919083495523087" fill="#38ff82" stroke="none" /><path d="M 120.98425023603335 99.18683210126433 l 1.3184404996181458 -0.051091341297555624 a22.319430057331168,22.319430057331168 0 0,0 0.011572417811432437,0.38403220819873884 l -1.3191246118852233 0.028388985673817722" fill="#ff0000" stroke="none" /><line stroke="#e1ed5e" stroke-width="0.3" x1="184.98032266829074" x2="189.97916517819016" y1="98.17113171792111" y2="98.06355123074" /><path d="M 185.9800911702706 98.14961562048488 a86.0,86.0 0 0,1 -9.607161424134198,41.387399972396054" fill="none" id="id124" stroke="none" /><text fill="#e1ed5e" style="font-size:6.75px; font-family:Arial;" text-anchor="middle"><textPath startOffset="21.466115282336823" xlink:href="#id124">April</textPath></text><path d="M 120.99513854157772 99.54816195383933 l 16.33403509980029 -0.35152606832281075 a37.337817272151696,37.337817272151696 0 0,0 0.008297872735674729,0.6426793879546018 l -16.33766597965368 0.07031042230774621" fill="#ffce13" stroke="none" /><path d="M 120.99980553446 99.90962569577887 l 14.183467314728613 -0.06103966000581825 a35.183598658593965,35.183598658593965 0 0,0 -0.0026064390380101323,0.6056446398936796 l -14.1824165784011 -0.18311445809154603" fill="#ffb210" stroke="none" /><path d="M 120.99824983174949 100.27111621757518 l 1.4519026158997783 0.01874605496478507 a22.452023629502413,22.452023629502413 0 0,0 -0.008315734875476245,0.38639952361062674 l -1.4513648183392946 -0.043735394365526654" fill="#ff0200" stroke="none" /><path d="M 120.9904718944345 100.63252640178507 l 21.292949636880532 0.6416412591837831 a42.30261504473612,42.30261504473612 0 0,0 -0.028197446925852823,0.7276508126174429 l -21.278750057103476 -1.0080693188152323" fill="#f3ff19" stroke="none" /><path d="M 120.9764740272857 100.99374915477107 l 23.617302418792427 1.1188569769218022 a44.643790188451284,44.643790188451284 0 0,0 -0.04297209094857697,0.7672955509047233 l -23.59454397695632 -1.5252242441619488" fill="#d7ff1c" stroke="none" /><path d="M 120.92983693683757 101.71520430193887 l 14.894667376928906 1.220620955526524 a35.94459874959581,35.94459874959581 0 0,0 -0.055843192660195065,0.6162249776670605 l -14.871449587991636 -1.476827321742155" fill="#ffbc11" stroke="none" /><path d="M 120.89721153311464 102.0752229133903 l 15.764219874483462 1.5654849568522746 a36.84176036307803,36.84176036307803 0 0,0 -0.06810058790211716,0.6305268658442545 l -15.734936985080294 -1.8366081445813207" fill="#ffc812" stroke="none" /><path d="M 120.8583938346157 102.4346265915055 l 7.115194313720758 0.8304973727730224 a28.163498866349258,28.163498866349258 0 0,0 -0.06034833063399145,0.4810355724050743 l -7.0998444738399185 -0.9528506994654915" fill="#ff5407" stroke="none" /><path d="M 120.81339534386255 102.79330883721812 l 19.099998651615312 2.5633585555344576 a40.27124167187829,40.27124167187829 0 0,0 -0.09811982366102108,0.6862498181548989 l -19.053044776937693 -2.8917538456697662" fill="#fff316" stroke="none" /><path d="M 120.76222939487914 103.15116336523771 l 5.311820735130409 0.8061954516012314 a26.37265210378858,26.37265210378858 0 0,0 -0.0719825786394875,0.4482355859008257 l -5.297156402129634 -0.8975102671952621" fill="#ff3a05" stroke="none" /><path d="M 120.70491114924044 103.5080841355445 l 3.55256118922858 0.6019191996842294 a24.60319271288141,24.60319271288141 0 0,0 -0.07434095749747012,0.41694356945769595 l -3.5416737893919215 -0.6629815198751436" fill="#ff2103" stroke="none" /><path d="M 120.64145759157962 103.86396538481128 l 37.85428575968343 7.086110522632815 a59.51181523525916,59.51181523525916 0 0,0 -0.19715433212651776,1.0052856919989013 l -37.72670149458125 -7.736659941699661" fill="#36ff2e" stroke="none" /><path d="M 120.5718875245553 104.21870165774334 l 5.0179109702001625 1.0290290233758954 a26.122336501617703,26.122336501617703 0 0,0 -0.09412246200754629,0.4397088075182112 l -4.999454469468173 -1.1152516503102756" fill="#ff3705" stroke="none" /><path d="M 120.49622156327973 104.57218783832717 l 16.581446935396606 3.698900784509095 a37.98900378141742,37.98900378141742 0 0,0 -0.14786665095024518,0.6370056622638554 l -16.51531971851581 -3.9837751041215155" fill="#ffd614" stroke="none" /><path d="M 120.41448212921028 104.9243191809786 l 1.6347459632931025 0.39432844057078087 a22.681632921759704,22.681632921759704 0 0,0 -0.09481860684967443,0.3787532010794586 l -1.6277160421483672 -0.42240948104763537" fill="#ff0500" stroke="none" /><path d="M 120.32669344350535 105.2749913415812 l 8.859694074619773 2.2991840587633803 a30.153164831462632,30.153164831462632 0 0,0 -0.1347012570106181,0.5012734874340855 l -8.818804741267376 -2.451348479373014" fill="#ff6f0a" stroke="none" /><path d="M 120.23288151984713 105.62410040840565 l 12.258055343273751 3.4073512462739894 a33.722812712377994,33.722812712377994 0 0,0 -0.16027547683839874,0.5579399610416564 l -12.197587229549255 -3.617848682820228" fill="#ff9f0e" stroke="none" /><path d="M 120.13307415673323 105.97154293290107 l 12.577221742764628 3.7304496585494333 a34.11879420608628,34.11879420608628 0 0,0 -0.17185023720841933,0.5616165183852941 l -12.511144733050077 -3.9463931494867843" fill="#ffa40f" stroke="none" /><path d="M 120.02730092923936 106.31721596034902 l 47.4116558059296 14.955069074061601 a70.71437616293592,70.71437616293592 0 0,0 -0.37615922771199684,1.1576990624857784 l -47.14720432720135 -15.768967036525174" fill="#3cffa8" stroke="none" /><path d="M 119.9155931802556 106.66101706037122 l 1.9733759900216763 0.660020066542283 a23.080826587256254,23.080826587256254 0 0,0 -0.12926270647955213,0.3756979315612578 l -1.9617224525988934 -0.693890701192841" fill="#ff0b01" stroke="none" /><path d="M 119.79798401119884 107.00284435728193 l 4.173347624730094 1.476175748413859 a25.42672850274845,25.42672850274845 0 0,0 -0.1495040043855395,0.41137081065408493 l -4.147319359339328 -1.547794356074075" fill="#ff2d04" stroke="none" /><path d="M 119.67450827220406 107.3425965602758 l 1.4603229132749913 0.544997712347078 a22.558706360255037,22.558706360255037 0 0,0 -0.13890332273101516,0.3626327442834937 l -1.4507253109504692 -0.5700540234637155" fill="#ff0400" stroke="none" /><path d="M 119.54520255179757 107.68017299344265 l 3.5567978692693725 1.3976229136691483 a24.821539073678586,24.821539073678586 0 0,0 -0.15968214471247436,0.39631798773898735 l -3.5322131102995056 -1.4586402692509493" fill="#ff2403" stroke="none" /><path d="M 119.41010516605496 108.01547362559984 l 13.048726030862909 5.388518941719757 a35.11755600002323,35.11755600002323 0 0,0 -0.2355368240727341,0.5567394756548952 l -12.954038225597865 -5.6123329430408155" fill="#ffb110" stroke="none" /><path d="M 119.12269723197855 108.67885076344098 l 3.8513977808528383 1.7479598283223539 a25.22949505588869,25.22949505588869 0 0,0 -0.18288426437239222,0.3939164353101838 l -3.820738899640615 -1.8139963309113682" fill="#ff2a04" stroke="none" /><path d="M 118.97047184881838 109.00673069616215 l 1.390499924574552 0.6601764285824475 a22.539260522815326,22.539260522815326 0 0,0 -0.169416612944711,0.3490484022093059 l -1.3789300550151267 -0.6840137867570288" fill="#ff0300" stroke="none" /><path d="M 118.81262510543309 109.33194174019688 l 6.455626614130128 3.2022926689868734 a28.20623294925388,28.20623294925388 0 0,0 -0.2195000051850208,0.4330943342009336 l -6.399547939158838 -3.3129412148905013" fill="#ff5407" stroke="none" /><path d="M 118.64920377521936 109.65438752849418 l 1.7830870764282092 0.9230749923898653 a23.00785133007921,23.00785133007921 0 0,0 -0.1851008939691162,0.3501411342963728 l -1.7669336742342 -0.9536311417723724" fill="#ff0a01" stroke="none" /><line stroke="#e1ed5e" stroke-width="0.3" x1="174.80103733775053" x2="179.2010983576182" y1="140.37084112569926" y2="142.7455964860345" /><path d="M 175.68104954172406 140.8457921977663 a86.0,86.0 0 0,1 -30.038265399797805,32.042727171017184" fill="none" id="id125" stroke="none" /><text fill="#e1ed5e" style="font-size:6.75px; font-family:Arial;" text-anchor="middle"><textPath startOffset="22.206326154141568" xlink:href="#id125">May</textPath></text><path d="M 118.48025628344425 109.97397251340804 l 7.568257366963871 4.084661478429834 a29.600173193952056,29.600173193952056 0 0,0 -0.2458556423498236,0.44629940446362987 l -7.496825315162538 -4.214331401291269" fill="#ff6809" stroke="none" /><path d="M 118.30583269289576 110.29060199501025 l 12.656867790544633 7.115043118825535 a35.51964671918958,35.51964671918958 0 0,0 -0.30419702665804416,0.5303931568219838 l -12.53251876773421 -7.331856121505834" fill="#ffb710" stroke="none" /><path d="M 118.12598468904814 110.60418214915192 l 15.72538573865204 9.199768045655299 a39.21876748639329,39.21876748639329 0 0,0 -0.3459078938106954,0.5797615266116034 l -15.564696969143117 -9.469091666153007" fill="#ffe615" stroke="none" /><path d="M 117.94076556474637 110.91462005526583 l 11.425226398373349 6.950762760574606 a34.37344014111096,34.37344014111096 0 0,0 -0.3118740858637279,0.5028403292831171 l -11.30388767284166 -7.146399421222997" fill="#ffa80f" stroke="none" /><path d="M 117.75023020441432 111.22182372390056 l 5.482109244227452 3.4658290549148387 a27.485791609629157,27.485791609629157 0 0,0 -0.2562659201617745,0.39773039901078383 l -5.421638460688627 -3.5596810538470756" fill="#ff4a06" stroke="none" /><path d="M 117.55443506779139 111.5257021239791 l 1.322710009021581 0.8684507078419201 a22.582330054039613,22.582330054039613 0 0,0 -0.2161418196881955,0.3231026939266519 l -1.3075650839226647 -0.8910903159743789" fill="#ff0400" stroke="none" /><path d="M 117.35343817320211 111.8261652097733 l 5.385181048016547 3.669937917935501 a27.51679516644626,27.51679516644626 0 0,0 -0.27010891397221654,0.3891120362517239 l -5.321211226882195 -3.7620912163742446" fill="#ff4b06" stroke="none" /><path d="M 117.14729908036423 112.12312394758627 l 3.1814799767372994 2.249303281758056 a24.896303388560487,24.896303388560487 0 0,0 -0.25040963670532046,0.3477970839379417 l -3.1422905476563763 -2.3037339711471287" fill="#ff2503" stroke="none" /><path d="M 116.71984013943494 112.70617746262583 l 14.785344149650165 11.236064761669464 a39.57028683009567,39.57028683009567 0 0,0 -0.41679417559727666,0.5387626563797568 l -14.58974315683482 -11.488905412162474" fill="#ffea16" stroke="none" /><path d="M 116.498646956653 112.99209946851258 l 8.501504025494615 6.694632973320681 a31.820983381512683,31.820983381512683 0 0,0 -0.3425787792076277,0.4274197009568465 l -8.385007334232133 -6.8399805078557785" fill="#ff860c" stroke="none" /><path d="M 116.27256486870786 113.27417163493432 l 15.915463432191453 12.982869938020164 a41.53915499939009,41.53915499939009 0 0,0 -0.45674081192387084,0.5501737310517427 l -15.689626620374039 -13.254904926185677" fill="#fcff18" stroke="none" /><path d="M 115.80600337817218 113.82643327865902 l 7.757381461941228 6.785834131147711 a31.306527640360677,31.306527640360677 0 0,0 -0.3582974698381133,0.40255100564851926 l -7.639425142454776 -6.918359306537097" fill="#ff7f0b" stroke="none" /><path d="M 115.32070863581623 114.36230785411682 l 12.389835860984027 11.614778475809631 a37.982670923746255,37.982670923746255 0 0,0 -0.4512584550763517,0.4731426860400262 l -12.18807085452871 -11.826328278432165" fill="#ffd614" stroke="none" /><path d="M 115.07121518719521 114.62390073753431 l 20.152960611218727 19.55481969339122 a49.08082610320385,49.08082610320385 0 0,0 -0.593549329472743,0.6012623370633867 l -19.81337065669045 -19.89882252443527" fill="#a4ff21" stroke="none" /><path d="M 114.55890576462653 115.13401014063108 l 5.241515309622891 5.448565100327836 a28.560446044614142,28.560446044614142 0 0,0 -0.357228844273092,0.3377821693604334 l -5.14695063095899 -5.537981906434191" fill="#ff5908" stroke="none" /><path d="M 114.29624159901734 115.38237550388516 l 5.64822410155088 6.07733882072348 a29.296775436470057,29.296775436470057 0 0,0 -0.3723486934839034,0.34013170319523417 l -5.542775858600112 -6.1736632905052975" fill="#ff6309" stroke="none" /><path d="M 114.0293411484842 115.62618273729858 l 7.922978688428712 8.824784535408195 a32.85961269998625,32.85961269998625 0 0,0 -0.4241356810885277,0.3742504251505766 l -7.769900654433596 -8.95985810233106" fill="#ff940d" stroke="none" /><path d="M 113.75828350139079 115.86535959552629 l 10.348215231170158 11.933040614973544 a36.79503139563927,36.79503139563927 0 0,0 -0.4820754013034188,0.410835115393254 l -10.141274353289692 -12.109400120589745" fill="#ffc712" stroke="none" /><path d="M 113.48314897796784 116.09983520530334 l 3.8932637380754755 4.648832753848693 a27.06375696309391,27.06375696309391 0 0,0 -0.35972871439076776,0.29603224173741416 l -3.812664895140017 -4.715160114443286" fill="#ff4406" stroke="none" /><path d="M 113.20401910651253 116.32954008644616 l 2.213367506444432 2.7372933294753437 a24.520194666516932,24.520194666516932 0 0,0 -0.3304884465461708,0.26256000964247844 l -2.1659215671809102 -2.7749872531229482" fill="#ff2003" stroke="none" /><path d="M 112.92097659922987 116.55440617244103 l 8.413258897383242 10.77910047677718 a34.67376803821303,34.67376803821303 0 0,0 -0.4736622821449443,0.36318403995287574 l -8.226467886744803 -10.922323858557426" fill="#ffac0f" stroke="none" /><path d="M 112.63410532772338 116.77436683061366 l 3.6725276856243045 4.876033956996273 a27.10435637487342,27.10435637487342 0 0,0 -0.37509206331760064,0.2774841412576002 l -3.58805065188814 -4.938528046993643" fill="#ff4506" stroke="none" /><path d="M 112.34349029814194 116.9893568818739 l 11.256130885172501 15.492735044808613 a40.1500736727767,40.1500736727767 0 0,0 -0.562622355559626,0.4014161121417529 l -10.98778120176399 -15.684195418794586" fill="#fff116" stroke="none" /><path d="M 112.04921762599082 117.19931262002967 l 7.022273198063087 10.023743929748372 a33.23878111730913,33.23878111730913 0 0,0 -0.471425815205592,0.3242509743884935 l -6.848690498234612 -10.143135693501959" fill="#ff990e" stroke="none" /><path d="M 111.7513745106137 117.40417183066458 l 3.257058588932439 4.823810805546498 a26.820445115233518,26.820445115233518 0 0,0 -0.3848418430607618,0.2550521887963722 l -3.173542047131713 -4.879161015434189" fill="#ff4106" stroke="none" /><path d="M 111.1453310114006 117.79835938074945 l 5.561767758556195 8.881776706119444 a31.47946649679654,31.47946649679654 0 0,0 -0.46173002171654065,0.2836322913944561 l -5.408058536907346 -8.976197464342277" fill="#ff810b" stroke="none" /><line stroke="#e1ed5e" stroke-width="0.3" x1="143.8653032363475" x2="146.44561519142675" y1="172.8068346515853" y2="177.08958963109032" /><path d="M 144.38136562736335 173.6633856474863 a86.0,86.0 0 0,1 -40.68145358897372,12.25698825130547" fill="none" id="id126" stroke="none" /><text fill="#e1ed5e" style="font-size:6.75px; font-family:Arial;" text-anchor="middle"><textPath startOffset="21.466115282336833" xlink:href="#id126">June</textPath></text><path d="M 110.8373102113329 117.98757091392108 l 7.664089009026049 12.720715920477799 a35.85108998921531,35.85108998921531 0 0,0 -0.531333860156978,0.31392141009724644 l -7.443987277840689 -12.850755902868794" fill="#ffbb11" stroke="none" /><path d="M 109.89434966115114 118.52300852407294 l 5.436669011669395 10.177876252050627 a32.53891394129025,32.53891394129025 0 0,0 -0.49631000749060517,0.25964593885951726 l -5.2606681016522945 -10.26995160985486" fill="#ff8f0d" stroke="none" /><path d="M 109.57404056367764 118.69057910512821 l 4.637548997618589 9.053489570823674 a31.172145010484574,31.172145010484574 0 0,0 -0.4796741356802107,0.24051856950176864 l -4.481020954255618 -9.131975981234744" fill="#ff7d0b" stroke="none" /><path d="M 108.92500713936063 119.00905698771935 l 4.476345398234039 9.53400971484734 a31.532568982308852,31.532568982308852 0 0,0 -0.4933075279219062,0.22645329086261395 l -4.311569874544713 -9.609650076044028" fill="#ff820c" stroke="none" /><path d="M 108.2653958097858 119.30500536409082 l 4.044894488043638 9.447425336414401 a31.276916702325195,31.276916702325195 0 0,0 -0.4967497323402859,0.2076414284058357 l -3.88167329620589 -9.51565180784021" fill="#ff7e0b" stroke="none" /><path d="M 107.93186726928326 119.44442032107085 l 4.482380476131196 10.988243632666375 a32.867317846237846,32.867317846237846 0 0,0 -0.5256875881706825,0.20918194028849596 l -4.292571811918647 -11.06377241736094" fill="#ff940d" stroke="none" /><path d="M 107.59598834532513 119.57807347666477 l 4.820145561044438 12.423553021961398 a34.32585730522215,34.32585730522215 0 0,0 -0.5526949787061464,0.20898194871727332 l -4.605580361578016 -12.504683220785301" fill="#ffa70f" stroke="none" /><path d="M 107.2578585660854 119.70592522655815 l 0.7660146231019148 2.079818275301292 a23.216398533902062,23.216398533902062 0 0,0 -0.37619458541482736,0.1348899939675074 l -0.7301004770573526 -2.0926958103087596" fill="#ff0d01" stroke="none" /><path d="M 106.91757812671514 119.82793768551818 l 7.7352879822430864 22.17174931485519 a44.48235822588983,44.48235822588983 0 0,0 -0.7251265510024193,0.24600229619440725 l -7.35249169830344 -22.30161459794772" fill="#d9ff1c" stroke="none" /><path d="M 106.57524785965236 119.94407469862006 l 13.575859472807384 41.178364862120084 a64.35852503422251,64.35852503422251 0 0,0 -1.0551079252720554,0.337812238462017 l -12.865030202444387 -41.40594994724181" fill="#34ff60" stroke="none" /><path d="M 105.88484417918355 120.15858648285463 l 5.4889552003140984 18.802465237303473 a40.58727464940084,40.58727464940084 0 0,0 -0.6723356105764103,0.1900087593277873 l -5.164488421633083 -18.89416278996978" fill="#fff617" stroke="none" /><path d="M 105.53697534728816 120.25689768951611 l 3.9439476812154113 14.428842402253721 a35.95814882868998,35.95814882868998 0 0,0 -0.5984626987825574,0.15805943809129924 l -3.6949945396213564 -14.494593189648604" fill="#ffbc11" stroke="none" /><path d="M 105.18746579009965 120.34920634021253 l 3.254707334852936 12.767450198963768 a34.17576959492558,34.17576959492558 0 0,0 -0.5712996027462602,0.14041154270475303 l -3.0344544473634643 -12.821582999982551" fill="#ffa50f" stroke="none" /><path d="M 104.83641907484287 120.43548508189849 l 3.25097862375465 13.736469925213735 a35.11592958392791,35.11592958392791 0 0,0 -0.5894122673177945,0.13414831307993916 l -3.0140462070439935 -13.79039497187136" fill="#ffb110" stroke="none" /><path d="M 104.48393922423573 120.51570834832081 l 4.581935564787045 20.96407846250233 a42.45895429189909,42.45895429189909 0 0,0 -0.7153495508216026,0.14990845358807015 l -4.220394552536065 -21.03984289681694" fill="#f1ff19" stroke="none" /><path d="M 104.13013068566511 120.58985236759428 l 12.390392056995317 61.76955710278282 a84.0,84.0 0 0,0 -1.4201295417131825,0.2721712066061275 l -11.32529490071043 -61.973685507737414" fill="#4dd2ff" stroke="none" /><line stroke="#e1ed5e" stroke-width="0.3" x1="102.19456741930631" x2="102.32365962044197" y1="184.97166512339345" y2="189.96999836594603" /><path d="M 102.22038585953345 185.97133177190398 a86.0,86.0 0 0,1 -42.740103519485714,-10.115201625700543" fill="none" id="id127" stroke="none" /><text fill="#e1ed5e" style="font-size:6.75px; font-family:Arial;" text-anchor="middle"><textPath startOffset="22.20632615414155" xlink:href="#id127">July</textPath></text><line stroke="#e1ed5e" stroke-width="0.3" x1="58.666819895761336" x2="56.23545636021788" y1="174.27360380694188" y2="178.64263932499728" /><path d="M 58.180547188652646 175.14741091055294 a86.0,86.0 0 0,1 -31.652253787137756,-30.449443065178592" fill="none" id="id128" stroke="none" /><text fill="#e1ed5e" style="font-size:6.75px; font-family:Arial;" text-anchor="middle"><textPath startOffset="22.20632615414155" xlink:href="#id128">August</textPath></text><line stroke="#e1ed5e" stroke-width="0.3" x1="26.63291911575756" x2="22.317208475507996" y1="142.92168965132927" y2="145.44649492493687" /><path d="M 25.769776987707644 143.4266507060508 a86.0,86.0 0 0,1 -11.730757126820373,-40.83630448921669" fill="none" id="id129" stroke="none" /><text fill="#e1ed5e" style="font-size:6.75px; font-family:Arial;" text-anchor="middle"><textPath startOffset="21.46611528233685" xlink:href="#id129">September</textPath></text><line stroke="#e1ed5e" stroke-width="0.3" x1="15.007084014347285" x2="10.007500721073583" y1="101.09737516637583" y2="101.16192664675087" /><path d="M 14.007167355692545 101.11028546245083 a86.0,86.0 0 0,1 10.666146001902534,-42.60595125391555" fill="none" id="id130" stroke="none" /><text fill="#e1ed5e" style="font-size:6.75px; font-family:Arial;" text-anchor="middle"><textPath startOffset="22.20632615414155" xlink:href="#id130">October</textPath></text><line stroke="#e1ed5e" stroke-width="0.3" x1="26.266209847984243" x2="21.928928074336255" y1="57.711370442889674" y2="55.22380399835377" /><path d="M 25.398753493254645 57.213857153982495 a86.0,86.0 0 0,1 29.58750427330803,-30.492523968695096" fill="none" id="id131" stroke="none" /><text fill="#e1ed5e" style="font-size:6.75px; font-family:Arial;" text-anchor="middle"><textPath startOffset="21.46611528233685" xlink:href="#id131">November</textPath></text><line stroke="#e1ed5e" stroke-width="0.3" x1="56.762969772571076" x2="54.21961505331055" y1="26.818313649435495" y2="22.513508569990535" /><path d="M 56.25429882871897 25.957352633546506 a86.0,86.0 0 0,1 42.265352541879196,-11.944610805530505" fill="none" id="id132" stroke="none" /><text fill="#e1ed5e" style="font-size:6.75px; font-family:Arial;" text-anchor="middle"><textPath startOffset="22.20632615414155" xlink:href="#id132">December</textPath></text></svg>