<?xml version="1.0" encoding="utf-8" ?>
<svg baseProfile="full" height="200mm" version="1.1" viewBox="0,0,200,200" width="200mm" xmlns="http://www.w3.org/2000/svg" xmlns:ev="http://www.w3.org/2001/xml-events" xmlns:xlink="http://www.w3.org/1999/xlink"><defs /><rect fill="#1a1a1a" height="200" width="200" x="0" y="0" /><rect fill="#1a1a1a" height="200" width="180" x="10" y="0" /><text alignment-baseline="middle" fill="#e1ed5e" style="dominant-baseline: central; font-size:9.0px; font-family:Arial;" text-anchor="middle" x="100.0" y="100.0">2016</text><line stroke="#e1ed5e" stroke-width="0.3" x1="100.0" x2="100.0" y1="15.0" y2="10.0" /><path d="M 100.0 14.0 a86.0,86.0 0 0,1 42.35913384403234,11.155469271406648" fill="none" id="id13" stroke="none" /><text fill="#e1ed5e" style="font-size:6.75px; font-family:Arial;" text-anchor="middle"><textPath startOffset="22.145653131862478" xlink:href="#id13">January</textPath></text><line stroke="#e1ed5e" stroke-width="0.3" x1="143.13028292997686" x2="145.6673583964461" y1="26.7553504044142" y2="22.446841604673864" /><path d="M 143.63769802327073 25.89364864446614 a86.0,86.0 0 0,1 29.32050498858742,28.57503671076993" fill="none" id="id14" stroke="none" /><text fill="#e1ed5e" style="font-size:6.75px; font-family:Arial;" text-anchor="middle"><textPath startOffset="20.669276256404974" xlink:href="#id14">February</textPath></text><line stroke="#e1ed5e" stroke-width="0.3" x1="172.87174338648825" x2="177.1583165268699" y1="56.24261187166439" y2="53.66864786411523" /><path d="M 173.72905801456457 55.72781907015455 a86.0,86.0 0 0,1 12.242430191666344,42.057860355516425" fill="none" id="id15" stroke="none" /><text fill="#e1ed5e" style="font-size:6.75px; font-family:Arial;" text-anchor="middle"><textPath startOffset="22.145653131862474" xlink:href="#id15">March</textPath></text><line stroke="#e1ed5e" stroke-width="0.3" x1="184.99686870605535" x2="189.99668451229388" y1="99.2704041080226" y2="99.22748670261217" /><path d="M 185.99683186730306 99.26182062694052 a86.0,86.0 0 0,1 -10.086455211305974,41.156179273409016" fill="none" id="id16" stroke="none" /><text fill="#e1ed5e" style="font-size:6.75px; font-family:Arial;" text-anchor="middle"><textPath startOffset="21.40746469413373" xlink:href="#id16">April</textPath></text><line stroke="#e1ed5e" stroke-width="0.3" x1="174.33088141563837" x2="178.70328620479359" y1="141.23008692659167" y2="143.65538615756765" /><path d="M 175.20536237346943 141.71514677278685 a86.0,86.0 0 0,1 -30.301960400862466,31.631185727798858" fill="none" id="id17" stroke="none" /><text fill="#e1ed5e" style="font-size:6.75px; font-family:Arial;" text-anchor="middle"><textPath startOffset="22.145653131862474" xlink:href="#id17">May</textPath></text><line stroke="#e1ed5e" stroke-width="0.3" x1="143.1302829299769" x2="145.66735839644613" y1="173.24464959558577" y2="177.55315839532614" /><path d="M 143.63769802327073 174.10635135553383 a86.0,86.0 0 0,1 -40.68552437913181,11.842963189579606" fill="none" id="id18" stroke="none" /><text fill="#e1ed5e" style="font-size:6.75px; font-family:Arial;" text-anchor="middle"><textPath startOffset="21.407464694133747" xlink:href="#id18">June</textPath></text><line stroke="#e1ed5e" stroke-width="0.3" x1="101.45913802915013" x2="101.54496967792366" y1="184.9874750549273" y2="189.98673829345242" /><path d="M 101.47630435890484 185.9873277026323 a86.0,86.0 0 0,1 -42.54439059252881,-10.42667462771756" fill="none" id="id19" stroke="none" /><text fill="#e1ed5e" style="font-size:6.75px; font-family:Arial;" text-anchor="middle"><textPath startOffset="22.145653131862474" xlink:href="#id19">July</textPath></text><path d="M 92.59220618246901 119.65005319985036 l -21.813863208741207 57.863863804040086 a82.83907633868874,82.83907633868874 0 0,0 -1.326323581642058,-0.5130504540548216 l 22.80395905287679 -57.480873461847224" fill="red" stroke="none" /><line stroke="#e1ed5e" stroke-width="0.3" x1="58.13341422392154" x2="55.67067388415222" y1="173.97424548756322" y2="178.32567169271397" /><path d="M 57.64086615596768 174.84453072859336 a86.0,86.0 0 0,1 -31.369924170532247,-30.572349798747897" fill="none" id="id20" stroke="none" /><text fill="#e1ed5e" style="font-size:6.75px; font-family:Arial;" text-anchor="middle"><textPath startOffset="22.145653131862474" xlink:href="#id20">August</textPath></text><path d="M 82.98947788004972 112.3143062007846 l -12.692205306654898 9.18817784705532 a36.6689083121766,36.6689083121766 0 0,0 -0.3647419666572817,-0.5130552539913642 l 12.84806237184214 -8.968945366354452" fill="red" stroke="none" /><line stroke="#e1ed5e" stroke-width="0.3" x1="26.387840678322732" x2="22.057713659400548" y1="142.50000000000003" y2="145.00000000000006" /><path d="M 25.521815274538298 143.00000000000003 a86.0,86.0 0 0,1 -11.493303480769221,-40.785679425670985" fill="none" id="id21" stroke="none" /><text fill="#e1ed5e" style="font-size:6.75px; font-family:Arial;" text-anchor="middle"><textPath startOffset="21.40746469413373" xlink:href="#id21">September</textPath></text><path d="M 79.13060592940153 102.33845913500099 l -37.36138834612171 4.186421492581556 a58.5952053334367,58.5952053334367 0 0,0 -0.1034278130360009,-1.0005702689749267 l 37.42774855163937 -3.544446701323698" fill="red" stroke="none" /><path d="M 79.0935383218832 101.97986365728391 l -30.690146054587018 2.906388739793936 a51.82745789647087,51.82745789647087 0 0,0 -0.0762761413507277,-0.8864443830683991 l 30.735515818635488 -2.379123309349875" fill="red" stroke="none" /><path d="M 79.03789590574601 101.26102812881392 l -23.486238152348598 1.4128737657710895 a44.528697261574834,44.528697261574834 0 0,0 -0.03935151641639495,-0.7634089056359651 l 23.507031258221566 -1.0094930667583937" fill="red" stroke="none" /><path d="M 79.01933749520258 100.90099992219065 l -37.79591188405422 1.6231190821009918 a58.83074768890871,58.83074768890871 0 0,0 -0.034668996040938024,-1.0093499925391758 l 37.81820556709201 -0.9740628249976961" fill="red" stroke="none" /><line stroke="#e1ed5e" stroke-width="0.3" x1="15.003131293944662" x2="10.003315487706104" y1="100.72959589197737" y2="100.7725132973878" /><path d="M 14.003168132696942 100.73817937305945 a86.0,86.0 0 0,1 10.791469493833604,-42.45332614584628" fill="none" id="id22" stroke="none" /><text fill="#e1ed5e" style="font-size:6.75px; font-family:Arial;" text-anchor="middle"><textPath startOffset="22.145653131862435" xlink:href="#id22">October</textPath></text><path d="M 79.0935383218832 98.0201363427161 l -20.07818914792261 -1.901425387522813 a41.16802166708658,41.16802166708658 0 0,0 0.07266666997437755,-0.7029841141131576 l 20.04259008546657 2.2458140239188835" fill="red" stroke="none" /><path d="M 79.13060592940154 97.66154086499901 l -25.63324914648257 -2.872259032704614 a46.79366848194732,46.79366848194732 0 0,0 0.0963011775260227,-0.7975118966494026 l 25.58016588269688 3.311864606277453" fill="red" stroke="none" /><path d="M 79.17382384314186 97.30363454192245 l -22.063359754695487 -2.8565436440961274 a43.247509641659725,43.247509641659725 0 0,0 0.10164294029273449,-0.7354376825841438 l 22.011072297847544 3.234869634880338" fill="red" stroke="none" /><path d="M 79.407916724674 95.88100663000787 l -30.498723466141207 -6.100598859795077 a52.102884745828405,52.102884745828405 0 0,0 0.18296123780055074,-0.8755357555892977 l 30.38950451751629 6.623251066669784" fill="red" stroke="none" /><path d="M 79.48165901384962 95.52812308129327 l -20.19982335732217 -4.402457483991243 a41.67400531018043,41.67400531018043 0 0,0 0.15833966567336794,-0.697673782585852 l 20.12127283009114 4.748565600516104" fill="red" stroke="none" /><path d="M 79.56144815229197 95.17655741523228 l -29.760653021371958 -7.023433078986902 a51.57817980968624,51.57817980968624 0 0,0 0.2107643422503002,-0.8599904398893725 l 29.63570115260536 7.533279343484392" fill="red" stroke="none" /><path d="M 79.73907114497095 94.47779374421319 l -12.28460415306521 -3.3482234891261147 a33.7327176883273,33.7327176883273 0 0,0 0.15706838104700296,-0.5573802734793447 l 12.225317279943624 3.5586116865084727" fill="red" stroke="none" /><path d="M 80.05021161711548 93.44210830539832 l -59.84936514865357 -19.67367508380505 a84.0,84.0 0 0,0 0.46205831371054007,-1.3659933021033535 l 59.50282141337067 20.698170060382566" fill="red" stroke="none" /><path d="M 80.68587082218212 91.75594674310238 l -35.260198231563486 -15.050481924063545 a59.33795228589702,59.33795228589702 0 0,0 0.40792332478937043,-0.9334083972315044 l 34.99664102475714 15.653552391070917" fill="red" stroke="none" /><path d="M 80.83023694016515 91.42560881287825 l -19.528645811744784 -8.734914877246737 a42.39314715401461,42.39314715401461 0 0,0 0.302839555085155,-0.6617590816990827 l 19.375821791804583 9.068862941160491" fill="red" stroke="none" /><path d="M 80.9802524753101 91.09779779509293 l -22.563073519727844 -10.560657683602791 a45.912241516308455,45.912241516308455 0 0,0 0.3402331949281895,-0.7109565211081798 l 22.37846106683975 10.946426706776057" fill="red" stroke="none" /><path d="M 81.1358732173502 90.77261029715801 l -12.721102260297345 -6.222528578074956 a35.16143723715576,35.16143723715576 0 0,0 0.2698725478802182,-0.5399258762133194 l 12.612409799205382 6.4399863104520465" fill="red" stroke="none" /><line stroke="#e1ed5e" stroke-width="0.3" x1="26.387840678322718" x2="22.05771365940052" y1="57.49999999999999" y2="54.99999999999999" /><path d="M 25.521815274538284 56.99999999999999 a86.0,86.0 0 0,1 29.574782752854787,-30.34633250058573" fill="none" id="id23" stroke="none" /><text fill="#e1ed5e" style="font-size:6.75px; font-family:Arial;" text-anchor="middle"><textPath startOffset="21.40746469413373" xlink:href="#id23">November</textPath></text><path d="M 81.81346652052679 89.5 l -21.96859509891327 -12.683574294075473 a46.36714858815094,46.36714858815094 0 0,0 0.4038938315757948,-0.685900025641305 l 21.747627557207696 13.058825488010351" fill="red" stroke="none" /><path d="M 81.99639281039701 89.18935116829357 l -28.699474890439877 -17.23321006881864 a54.47601213201807,54.47601213201807 0 0,0 0.4882919358077365,-0.7975881805783169 l 28.399414990176748 17.7233353655215" fill="red" stroke="none" /><path d="M 82.37810715431573 88.57770195909679 l -20.240724214778993 -13.119792894527434 a45.12085990038567,45.12085990038567 0 0,0 0.42687676938515723,-0.6463458364133428 l 20.012523006473106 13.465318609279839" fill="red" stroke="none" /><path d="M 82.98947788004972 87.6856937992154 l -8.24334009591963 -5.967542521184886 a31.176650710285085,31.176650710285085 0 0,0 0.31755345824146103,-0.4308222540120544 l 8.13968461809435 6.108171084465804" fill="red" stroke="none" /><path d="M 83.8745106332314 86.54754324733833 l -10.46223900222865 -8.727971878083515 a34.62482800054265,34.62482800054265 0 0,0 0.3846743147694136,-0.4531453755485628 l 10.310870123952121 8.906284036081635" fill="red" stroke="none" /><path d="M 84.58840730492382 85.73525988315684 l -9.153946644677122 -8.472756353824867 a33.47326498575554,33.47326498575554 0 0,0 0.39393915081092407,-0.4183497266215197 l 9.007151660129926 8.628647540390897" fill="red" stroke="none" /><path d="M 85.08716467003674 85.21462403516908 l -7.569349900202912 -7.5046549906570466 a31.659029244752805,31.659029244752805 0 0,0 0.38595082321419455,-0.3826521180511089 l 7.43940715685874 7.633487118936829" fill="red" stroke="none" /><path d="M 85.34317274990677 84.96080404539775 l -7.486062787313361 -7.681359905919979 a31.725876470474237,31.725876470474237 0 0,0 0.3932913597763388,-0.37676422605525045 l 7.353098941671721 7.808736262280798" fill="red" stroke="none" /><line stroke="#e1ed5e" stroke-width="0.3" x1="56.869717070023135" x2="54.33264160355391" y1="26.7553504044142" y2="22.446841604673864" /><path d="M 56.362301976729285 25.89364864446614 a86.0,86.0 0 0,1 42.16139366436587,-11.88097634709845" fill="none" id="id24" stroke="none" /><text fill="#e1ed5e" style="font-size:6.75px; font-family:Arial;" text-anchor="middle"><textPath startOffset="22.145653131862474" xlink:href="#id24">December</textPath></text><path d="M 96.76829788921471 79.25015418208739 l -3.7228865097820565 -23.903602011384972 a45.19177697242195,45.19177697242195 0 0,0 0.767560584716174,-0.11280497355288259 l 3.3120008194581976 23.96398805823674" fill="red" stroke="none" /><path d="M 99.63950707515114 79.00309439819443 l -0.7358075660113419 -42.85710187269833 a63.863417895695655,63.863417895695655 0 0,0 1.0963004908601834,-0.009410421191756325 l 1.0498509505295812e-14 42.863417895695655" fill="red" stroke="none" /></svg>