<?xml version="1.0" encoding="utf-8" ?>
<svg baseProfile="full" height="200mm" version="1.1" viewBox="0,0,200,200" width="200mm" xmlns="http://www.w3.org/2000/svg" xmlns:ev="http://www.w3.org/2001/xml-events" xmlns:xlink="http://www.w3.org/1999/xlink"><defs /><rect fill="#1a1a1a" height="200" width="200" x="0" y="0" /><text alignment-baseline="middle" fill="#e1ed5e" style="dominant-baseline: central; font-size:9.0px; font-family:Arial;" text-anchor="middle" x="100.0" y="100.0">2024</text><line stroke="#e1ed5e" stroke-width="0.3" x1="100.0" x2="100.0" y1="15.0" y2="10.0" /><path d="M 100.0 14.0 a86.0,86.0 0 0,1 42.35913384403234,11.155469271406648" fill="none" id="id109" stroke="none" /><text fill="#e1ed5e" style="font-size:6.75px; font-family:Arial;" text-anchor="middle"><textPath startOffset="22.145653131862478" xlink:href="#id109">January</textPath></text><path d="M 100.0 79.0 l 0.0 -21.934148688493465 a42.934148688493465,42.934148688493465 0 0,0 0.7370217541243158,0.006326445341965437 l -0.376528829275461 21.930916641345934" fill="#e6ff1a" stroke="none" /><path d="M 100.36049292484886 79.00309439819443 l 0.12691979175879975 -7.392441578923276 a28.393531032688898,28.393531032688898 0 0,0 0.48726907384287205,0.012550322879794483 l -0.25380217967241314 7.389173538693437" fill="#ff5f08" stroke="none" /><path d="M 100.72087961077811 79.0123766808444 l 0.3217256696901601 -9.366691839531724 a30.372215502392578,30.372215502392578 0 0,0 0.5209185532115113,0.0223704840494845 l -0.48246998350250764 9.359788787056408" fill="#ff7a0b" stroke="none" /><path d="M 101.08105385017728 79.02784411241856 l 0.20439535237772252 -3.9652152314704714 a24.970479730707492,24.970479730707492 0 0,0 0.4278937219550934,0.025741023758973386 l -0.2724334264652783 3.9611222298868065" fill="#ff2f04" stroke="none" /><path d="M 101.44090949804482 79.04949213459386 l 0.40244558387266766 -5.851470464843903 a26.86529360295963,26.86529360295963 0 0,0 0.4598199754938223,0.03559297420799226 l -0.5028345541417235 5.843699723640857" fill="#ff4a06" stroke="none" /><path d="M 101.80034050326958 79.07731436759882 l 0.43920491212707535 -5.104226832619996 a26.12308818132916,26.12308818132916 0 0,0 0.4464565597148021,0.04227990038412674 l -0.5267610352268903 5.095935176730686" fill="#ff3f05" stroke="none" /><path d="M 102.15924093988457 79.11130261209362 l 3.1314071448317145 -30.29352354268274 a51.454938504908796,51.454938504908796 0 0,0 0.8778312929356,0.09836282735429265 l -3.650974339368111 30.235304954821476" fill="#86ff25" stroke="none" /><path d="M 102.51750503828377 79.15144685158666 l 0.2206965103659621 -1.8276837011499445 a22.84096025517578,22.84096025517578 0 0,0 0.3888642790731573,0.050346266260107575 l -0.25203861132991107 1.82362583868944" fill="#ff1101" stroke="none" /><path d="M 102.87502721639298 79.19773525538626 l 0.49135460496444655 -3.5551971535000577 a24.58899096517039,24.58899096517039 0 0,0 0.41763217884361,0.06137754833608139 l -0.5523118894157385 3.546238531865094" fill="#ff2a04" stroke="none" /><path d="M 103.23170211078529 79.25015418208739 l 2.873398152586164 -18.449277376357465 a39.671696566007626,39.671696566007626 0 0,0 0.6720054743133885,0.11057824507019422 l -3.189681129952623 18.3972331327916" fill="#fff116" stroke="none" /><path d="M 103.58742460773223 79.30868818359171 l 1.468751288096459 -8.471367124274227 a29.597749199675413,29.597749199675413 0 0,0 0.49987112410437945,0.09109317039507019 l -1.6139571457518922 8.44490577994779" fill="#ff6f0a" stroke="none" /><path d="M 103.94208987418118 79.37332000966035 l 2.3264249748115757 -12.172838521836036 a33.39315338572562,33.39315338572562 0 0,0 0.5621236705265634,0.11244047729687363 l -2.535045130869096 12.131108647876303" fill="#ffa10e" stroke="none" /><path d="M 104.29559338865022 79.4440306129975 l 1.0998492419969743 -5.263176772863009 a26.376866940656612,26.376866940656612 0 0,0 0.44242494611121613,0.0964244578111965 l -1.1900366047273245 5.243520856918093" fill="#ff4306" stroke="none" /><path d="M 104.64783097203109 79.52079915486377 l 5.397606179365423 -23.78284875146137 a45.387661782188374,45.387661782188374 0 0,0 0.7583367207761413,0.17896540125933033 l -5.805075053881449 23.68668720655581" fill="#c9ff1d" stroke="none" /><path d="M 104.9986988182912 79.60360301121754 l 2.126916095979998 -8.67854348349583 a29.935372911874843,29.935372911874843 0 0,0 0.4980600400349039,0.12660491452823677 l -2.2755814292402965 8.640753337132326" fill="#ff740a" stroke="none" /><path d="M 105.3480935250658 79.69241777938227 l 1.7275119952833358 -6.559644425980392 a27.783305439764852,27.783305439764852 0 0,0 0.4601690654982162,0.1254211250824799 l -1.8398624617162447 6.52902280675377" fill="#ff5608" stroke="none" /><path d="M 105.69591212413111 79.78721728523813 l 4.056136741836442 -14.393798365807614 a35.95438653586303,35.95438653586303 0 0,0 0.5926309957309827,0.17250624576061527 l -4.302627749949028 14.322048425744482" fill="#ffc212" stroke="none" /><path d="M 106.04205211174951 79.88797359093562 l 0.29762337826385943 -0.9906914294826363 a22.03443181686351,22.03443181686351 0 0,0 0.3613220474042064,0.11193849390308518 l -0.314586058539696 0.9854363477729046" fill="#ff0500" stroke="none" /><path d="M 106.38641147887787 79.99465700312896 l 0.26677687012543927 -0.8356747460044432 a21.87722413301477,21.87722413301477 0 0,0 0.3567834204257924,0.11728179691315527 l -0.28108302819897407 0.8309720276892664" fill="#ff0300" stroke="none" /><path d="M 106.72888874123014 80.10723608172694 l 7.244671208788776 -21.417583135071794 a43.60969102555727,43.60969102555727 0 0,0 0.7070880036715436,0.24596191239364176 l -7.611264984505338 21.290062790109562" fill="#deff1b" stroke="none" /><path d="M 107.06938296918511 80.22567764915836 l 7.227982688704712 -20.217953993405647 a42.47112939338968,42.47112939338968 0 0,0 0.6844138537249734,0.2513262472074882 l -7.5739856940838095 20.090896897189435" fill="#ebff1a" stroke="none" /><path d="M 107.40779381753099 80.34994680014964 l 0.9288435620766092 -2.4638679016618745 a23.633134140079243,23.633134140079243 0 0,0 0.3783864391478979,0.14636800332892635 l -0.971002263718033 2.44756001019491" fill="#ff1c02" stroke="none" /><path d="M 107.74402155503746 80.48000691201159 l 3.872660930478768 -9.76163535416484 a31.50176306484476,31.50176306484476 0 0,0 0.5009463447686042,0.2037305173536022 l -4.039661736437812 9.693717580231944" fill="#ff890c" stroke="none" /><path d="M 108.07796709384702 80.6158196554323 l 5.789992422392264 -13.893874041009736 a36.05203468368327,36.05203468368327 0 0,0 0.5692185795165949,0.24296556376665143 l -6.0276460770792895 13.792433827583682" fill="#ffc412" stroke="none" /><path d="M 108.4095320186766 80.7573450057729 l 4.74862697929823 -10.865787829332085 a32.8581112889271,32.8581112889271 0 0,0 0.5149125729839988,0.23031384447222367 l -4.93445295513786 10.78267023395001" fill="#ff9b0e" stroke="none" /><path d="M 108.73861861582097 80.90454125486305 l 2.485662556300424 -5.431621276185795 a26.97335986122619,26.97335986122619 0 0,0 0.419386019975985,0.19629383339031886 l -2.578537290147914 5.388151211224942" fill="#ff4b07" stroke="none" /><path d="M 109.06512990194946 81.05736502329252 l 9.7651318655151 -20.405369854444967 a43.62160293276296,43.62160293276296 0 0,0 0.6726861438350019,0.32904450168224003 l -10.113978258612168 20.234731602665505" fill="#deff1b" stroke="none" /><path d="M 109.3889696526874 81.21577127319529 l 3.573605785140843 -7.1496054338938375 a28.992966668763007,28.992966668763007 0 0,0 0.44327868376692114,0.22634125441706002 l -3.6958116906213427 7.087206227803944" fill="#ff6709" stroke="none" /><path d="M 109.71004243097381 81.37971332152246 l 3.950041962131116 -7.574726294941735 a29.542792865677967,29.542792865677967 0 0,0 0.44765938584570314,0.23835340844765338 l -4.079490163763379 7.505802418771508" fill="#ff6e0a" stroke="none" /><path d="M 110.02825361518725 81.54914285379988 l 6.148355195192668 -11.312281055476575 a33.87516890313859,33.87516890313859 0 0,0 0.5085401844718181,0.2820786678715046 l -6.341639567820587 11.205069472171925" fill="#ffa80f" stroke="none" /><path d="M 110.34350942703115 81.72400993836675 l 0.45274599123051906 -0.7999587852213348 a21.91919148746499,21.91919148746499 0 0,0 0.3258731752760395,0.18814296546729953 l -0.46641163436695593 0.7920689224778636" fill="#ff0300" stroke="none" /><line stroke="#e1ed5e" stroke-width="0.3" x1="143.13028292997686" x2="145.6673583964461" y1="26.7553504044142" y2="22.446841604673864" /><path d="M 143.63769802327073 25.89364864446614 a86.0,86.0 0 0,1 29.32050498858742,28.57503671076993" fill="none" id="id110" stroke="none" /><text fill="#e1ed5e" style="font-size:6.75px; font-family:Arial;" text-anchor="middle"><textPath startOffset="20.669276256404974" xlink:href="#id110">February</textPath></text><path d="M 110.65571695917076 81.90426304109057 l 0.44868868192069 -0.7619714746166126 a21.88426357010404,21.88426357010404 0 0,0 0.3220813817325056,0.19340061558062335 l -0.46170282021062986 0.7541568585000683" fill="#ff0300" stroke="none" /><path d="M 110.96478420261332 82.08984904055464 l 0.48260775555432983 -0.7883034993171192 a21.924301169942353,21.924301169942353 0 0,0 0.3192970356660021,0.19926496536223914 l -0.4960689200100445 0.7799027371133347" fill="#ff0400" stroke="none" /><path d="M 111.27062007382361 82.28071324371311 l 10.602646934215294 -16.66912203343314 a40.755398031351106,40.755398031351106 0 0,0 0.5870996889318185,0.38055092522839484 l -10.88723225540412 16.48465726650085" fill="#fffe18" stroke="none" /><path d="M 111.5731344415666 82.4767994020092 l 0.48670786144634254 -0.7369377355637875 a21.88315444203806,21.88315444203806 0 0,0 0.3116825105600088,0.2097139030532651 l -0.4992866601033523 0.7284741584534036" fill="#ff0300" stroke="none" /><path d="M 111.8722381534696 82.67804972795209 l 9.288182405470758 -13.551735710275972 a37.42923836209292,37.42923836209292 0 0,0 0.5268698377839073,0.3677960655468334 l -9.519447334428428 13.390294828924011" fill="#ffd513" stroke="none" /><path d="M 112.16784306229584 82.88440491214696 l 0.5483272036904279 -0.7712908808875876 a21.946336274929433,21.946336274929433 0 0,0 0.30517842595228717,0.22092564570034243 l -0.5614866400166829 0.7617644638141705" fill="#ff0400" stroke="none" /><path d="M 112.45986205192187 83.09580414077388 l 5.086876937484613 -6.901325528700918 a29.5734830162666,29.5734830162666 0 0,0 0.406067877868509,0.30472090582147154 l -5.204597804263888 6.812985595615431" fill="#ff6f0a" stroke="none" /><path d="M 112.7482090630111 83.31218511350987 l 0.5092907080430281 -0.6666778852796837 a21.838949598021216,21.838949598021216 0 0,0 0.2959594226290175,0.23013983713088798 l -0.5206600753072715 0.6578369965280049" fill="#ff0200" stroke="none" /><path d="M 113.03279911837588 83.53348406188908 l 1.9063150334019978 -2.4085667703045397 a24.071682095137728,24.071682095137728 0 0,0 0.3218145811649052,0.25923104652752677 l -1.9473803849221625 2.375487429983605" fill="#ff2203" stroke="none" /><path d="M 113.31354834802062 83.75963576809568 l 9.422640750695907 -11.494089615893957 a35.862713575080306,35.862713575080306 0 0,0 0.47274855067537785,0.3943836548582463 l -9.618563635533178 11.330643777123841" fill="#ffc112" stroke="none" /><path d="M 113.59037401385872 83.9905735841838 l 6.0335807786144695 -7.107542985984775 a30.32315742169397,30.32315742169397 0 0,0 0.39394188490567783,0.3402776175532456 l -6.154702143283008 7.00292123596681" fill="#ff790b" stroke="none" /><path d="M 114.39649973595853 84.71141617570332 l 9.49782930614045 -10.086365586011091 a34.85436870677438,34.85436870677438 0 0,0 0.4320738648651634,0.41391698863458637 l -9.669575656870924 9.921836467070923" fill="#ffb410" stroke="none" /><path d="M 114.65682725009322 84.96080404539774 l 5.879907180596987 -6.033302758842887 a29.42460982077492,29.42460982077492 0 0,0 0.35871132672103023,0.35564543636832274 l -5.98261042744798 5.931477312245905" fill="#ff6d0a" stroke="none" /><path d="M 115.16444852881244 85.47280134310134 l 9.768971384595584 -9.358453603369654 a34.528246588507685,34.528246588507685 0 0,0 0.40635498646026463,0.43153491382362874 l -9.928182204792108 9.18937722960153" fill="#ffb010" stroke="none" /><path d="M 115.41159269507618 85.73525988315684 l 0.7036724774121645 -0.6513087398725921 a21.958831596320124,21.958831596320124 0 0,0 0.2536791920044422,0.27883787006645355 l -0.7147493702584843 0.6391332942484668" fill="#ff0400" stroke="none" /><path d="M 115.6541949942343 86.00192230759917 l 9.424754005855702 -8.42767314795334 a33.64324573674129,33.64324573674129 0 0,0 0.38127239323175033,0.4338179942898543 l -9.568037463046041 8.264642875852187" fill="#ffa50f" stroke="none" /><path d="M 115.8921839302757 86.27271002978787 l 11.807258641068993 -10.198828797247309 a36.60216220440806,36.60216220440806 0 0,0 0.40664206808013825,0.47902333371146977 l -11.980595272656243 9.994638681086286" fill="#ffcb12" stroke="none" /><path d="M 116.1254893667686 86.54754324733833 l 1.6464998642074093 -1.3735687465187327 a23.14421381961969,23.14421381961969 0 0,0 0.2518896992712092,0.3072644764186726 l -1.6698363827172462 1.345101988401565" fill="#ff1502" stroke="none" /><path d="M 116.35404254752997 86.82634096563983 l 0.7459845043098452 -0.6009123111996769 a21.95790839145596,21.95790839145596 0 0,0 0.23393910571743326,0.2955744178863394 l -0.7561900406688378 0.5880179493986593" fill="#ff0400" stroke="none" /><path d="M 116.57777611688842 87.10902102172516 l 0.7470345603319859 -0.5808985925122954 a21.94631063034987,21.94631063034987 0 0,0 0.22870984218191556,0.2993885251006931 l -0.7568963798682081 0.5679891541707204" fill="#ff0400" stroke="none" /><path d="M 116.7966241395341 87.39550010848427 l 13.040063575579515 -9.785506811269832 a37.30335553217692,37.30335553217692 0 0,0 0.3799577338609126,0.5154856389779882 l -13.206123329024253 9.560214863022967" fill="#ffd313" stroke="none" /><path d="M 117.01052211995028 87.68569379921539 l 45.685185783309805 -33.07255136605137 a77.39973274684587,77.39973274684587 0 0,0 0.7698874070777275,1.0829430536962605 l -46.246188288917494 32.28343108564561" fill="#45ffee" stroke="none" /><path d="M 117.21940702142032 87.97951657250589 l 0.7199456246349556 -0.5025779597901368 a21.878012703836244,21.878012703836244 0 0,0 0.21233159652983466,0.3097981449436717 l -0.7284669579801152 0.49014507977641636" fill="#ff0300" stroke="none" /><path d="M 117.42321728460499 88.27688183743584 l 2.6236853109775944 -1.7653325685808636 a24.16229721701359,24.16229721701359 0 0,0 0.2285932360263998,0.3461192946871358 l -2.6536029859247185 1.7200333955546692" fill="#ff2403" stroke="none" /><path d="M 117.62189284568427 88.57770195909679 l 0.7379141335192932 -0.47830702612157033 a21.879371866552933,21.879371866552933 0 0,0 0.2015843511674392,0.3169240823059801 l -0.7460161763126224 0.46556926913691826" fill="#ff0300" stroke="none" /><line stroke="#e1ed5e" stroke-width="0.3" x1="172.87174338648825" x2="177.1583165268699" y1="56.24261187166439" y2="53.66864786411523" /><path d="M 173.72905801456457 55.72781907015455 a86.0,86.0 0 0,1 12.242430191666344,42.057860355516425" fill="none" id="id111" stroke="none" /><text fill="#e1ed5e" style="font-size:6.75px; font-family:Arial;" text-anchor="middle"><textPath startOffset="22.145653131862474" xlink:href="#id111">March</textPath></text><path d="M 118.00360718960297 89.18935116829356 l 5.297031507924984 -3.180715224431881 a27.17863189831558,27.17863189831558 0 0,0 0.23674696651941035,0.402048106980534 l -5.350852184574162 3.0893159491577906" fill="#ff4e07" stroke="none" /><path d="M 118.18653347947321 89.5 l 19.11233745994998 -11.034513177345092 a43.06902635469018,43.06902635469018 0 0,0 0.3641724800765719,0.643457877962224 l -19.298943305047928 10.704798529283751" fill="#e4ff1a" stroke="none" /><path d="M 118.53625476483649 90.13048839642627 l 0.8494131482818296 -0.45226465807423066 a21.962312847995417,21.962312847995417 0 0,0 0.1743304923051781,0.3343017053321944 l -0.8570517095619523 0.437616709637538" fill="#ff0400" stroke="none" /><path d="M 118.70294669586156 90.45014215332178 l 0.770078947136587 -0.39320779743767914 a21.864658289030288,21.864658289030288 0 0,0 0.16781654860102935,0.33574551305130784 l -0.7767154089493533 0.37993042822262085" fill="#ff0300" stroke="none" /><path d="M 118.8641267826498 90.77261029715802 l 18.839166936115518 -9.21518059114819 a41.97221409804655,41.97221409804655 0 0,0 0.31103557633349754,0.6499447278729308 l -18.994581770408928 8.890423361210155" fill="#f1ff19" stroke="none" /><path d="M 119.0197475246899 91.09779779509293 l 6.274001385169027 -2.9365494411604907 a27.92722282025653,27.92722282025653 0 0,0 0.19950082269014305,0.43594530174407575 l -6.323486672714221 2.828415157201731" fill="#ff5808" stroke="none" /><path d="M 119.16976305983485 91.42560881287824 l 2.2242055586010085 -0.9948588556096646 a23.436562026605642,23.436562026605642 0 0,0 0.16111645136426397,0.3686659710208968 l -2.2409558919822428 0.9565308148129184" fill="#ff1902" stroke="none" /><path d="M 119.31412917781788 91.75594674310238 l 6.451819157609342 -2.753897949501704 a28.014978571511435,28.014978571511435 0 0,0 0.18499778541585088,0.4439273389189636 l -6.498142787561676 2.6427381011414623" fill="#ff5a08" stroke="none" /><path d="M 119.4528033332814 92.08871423366111 l 19.825064956638254 -8.062681327778542 a42.401869795142545,42.401869795142545 0 0,0 0.26842670259429124,0.6766106398378627 l -19.96055033419867 7.721169670727114" fill="#ecff1a" stroke="none" /><path d="M 119.58574465831526 92.42381321644754 l 0.8195282792926847 -0.3170111439030064 a21.87870510748437,21.87870510748437 0 0,0 0.13249047464496633,0.35144672481107464 l -0.8248494377520916 0.302896138897774" fill="#ff0300" stroke="none" /><path d="M 119.71291397450082 92.76114493625339 l 3.996414453169996 -1.4675387433121652 a25.257346408812452,25.257346408812452 0 0,0 0.14596320311022382,0.4082850571604673 l -4.021017826324163 1.398718729770781" fill="#ff3304" stroke="none" /><path d="M 119.83427380445688 93.10060997987247 l 13.983133179723655 -4.8640595799691395 a35.804968393055695,35.804968393055695 0 0,0 0.19695218235898215,0.5822541310349566 l -14.064570783655002 4.623303774460021" fill="#ffc111" stroke="none" /><path d="M 119.94978838288452 93.4421083053983 l 13.776525586982402 -4.528617597009149 a35.50175970662601,35.50175970662601 0 0,0 0.18534502456397436,0.5805906496048929 l -13.852235327323633 4.291457913712869" fill="#ffbd11" stroke="none" /><path d="M 120.05942366710727 93.78553927170692 l 4.651571413653276 -1.441068714371873 a25.86968126840533,25.86968126840533 0 0,0 0.12777612102343955,0.4253251499558951 l -4.675623854680343 1.3610059608252545" fill="#ff3c05" stroke="none" /><path d="M 120.16314734710363 94.1308016681162 l 16.052465340569462 -4.672638709503179 a37.718707965023235,37.718707965023235 0 0,0 0.17562819722944975,0.6232425135466365 l -16.130312029873494 4.396388272053529" fill="#ffd914" stroke="none" /><path d="M 120.26092885502905 94.47779374421319 l 9.701004334325585 -2.6440518697705535 a31.054874210284332,31.054874210284332 0 0,0 0.13576972022809505,0.5155397420931195 l -9.744963535358412 2.4771316233046354" fill="#ff830c" stroke="none" /><path d="M 120.35273937422433 94.82641323984039 l 3.146207845629512 -0.7997537312089462 a24.24626398163848,24.24626398163848 0 0,0 0.09907770880968361,0.40427086229453596 l -3.159473080955487 0.7456270443063153" fill="#ff2503" stroke="none" /><path d="M 120.43855184770803 95.1765574152323 l 5.126494616608879 -1.2098387707985567 a26.26731970792045,26.26731970792045 0 0,0 0.09980222898496678,0.43974703565483786 l -5.146507707151512 1.1216574012046927" fill="#ff4106" stroke="none" /><path d="M 120.51834098615036 95.52812308129327 l 1.1163624803888477 -0.24330600667621147 a22.14256859772386,22.14256859772386 0 0,0 0.07775446174403083,0.3720832468771982 l -1.1203746529572454 0.22410630851360888" fill="#ff0701" stroke="none" /><path d="M 120.592083275326 95.88100663000786 l 7.600625769678731 -1.5203380218751783 a28.751189572669716,28.751189572669716 0 0,0 0.0926523618895785,0.4847963085677743 l -7.625604423850467 1.3896391482740895" fill="#ff6409" stroke="none" /><path d="M 120.65975698304385 96.23510406497455 l 5.554189334854521 -1.0121583165919046 a26.645660601316543,26.645660601316543 0 0,0 0.07814180338914574,0.4507011565724241 l -5.570745955735902 0.9166641270988878" fill="#ff4706" stroke="none" /><path d="M 120.7213421655516 96.59031103205396 l 1.0405630481535746 -0.17122425359299126 a22.054556400673352,22.054556400673352 0 0,0 0.0582644705077062,0.37409969677044874 l -1.043349010799546 0.15333637489110125" fill="#ff0500" stroke="none" /><path d="M 120.77682067341334 96.94652285012252 l 29.169961133076544 -4.286979763782629 a50.48329744109837,50.48329744109837 0 0,0 0.11864893100440058,0.8584845598489965 l -29.239254580636157 3.785606895733547" fill="#91ff24" stroke="none" /><path d="M 120.82617615685814 97.30363454192243 l 0.8040870193944382 -0.10410516304356457 a21.810798260809037,21.810798260809037 0 0,0 0.04488653323064395,0.37172488613768484 l -0.8057556388847458 0.09028659998246676" fill="#ff0200" stroke="none" /><path d="M 120.86939407059847 97.66154086499901 l 0.8683661274969556 -0.09730223582444683 a21.873800581643486,21.873800581643486 0 0,0 0.03860997404260311,0.37351647471725424 l -0.8699084940212247 0.0823812388242612" fill="#ff0300" stroke="none" /><path d="M 120.93736805541906 98.37931529534042 l 0.9518937952466404 -0.07368259994919919 a21.954741285880278,21.954741285880278 0 0,0 0.025860634907545785,0.37600795592653197 l -0.9530183913192523 0.05733121986833307" fill="#ff0400" stroke="none" /><path d="M 120.98066250479742 99.09900007780936 l 1.6078628857423343 -0.06904855052197752 a22.609344823733203,22.609344823733203 0 0,0 0.013323700904280469,0.38790501439527214 l -1.608811273643463 0.04143727156258544" fill="#ff0d01" stroke="none" /><path d="M 120.99303781780057 99.45929381324524 l 62.97911345340172 -1.6221185602642854 a84.0,84.0 0 0,0 0.024754273605335886,1.4418123361237345 l -62.99767915860572 0.5407593081714844" fill="#4dd2ff" stroke="none" /><line stroke="#e1ed5e" stroke-width="0.3" x1="184.99686870605535" x2="189.99668451229388" y1="99.2704041080226" y2="99.22748670261217" /><path d="M 185.99683186730306 99.26182062694052 a86.0,86.0 0 0,1 -10.086455211305974,41.156179273409016" fill="none" id="id112" stroke="none" /><text fill="#e1ed5e" style="font-size:6.75px; font-family:Arial;" text-anchor="middle"><textPath startOffset="21.40746469413373" xlink:href="#id112">April</textPath></text><path d="M 120.99922638620191 99.81974689727618 l 0.8610747926716111 -0.00739129147911471 a21.861106514761204,21.861106514761204 0 0,0 0.0,0.37528878840588303 l -0.8610747926716111 -0.007391291479114605" fill="#ff0300" stroke="none" /><path d="M 120.99922638620191 100.18025310272382 l 0.9417945442576553 0.008084173464712005 a21.94182924007173,21.94182924007173 0 0,0 -0.006466119576310597,0.37661904851732714 l -0.9415169930826763 -0.02425013795111016" fill="#ff0400" stroke="none" /><path d="M 120.99303781780057 100.54070618675476 l 1.814047301481091 0.04672342361737135 a22.814648916547043,22.814648916547043 0 0,0 -0.013444686733302022,0.3914273848000523 l -1.8129779277509432 -0.07785707298153437" fill="#ff1001" stroke="none" /><path d="M 120.98066250479742 100.90099992219065 l 12.279353577704157 0.5273282774332333 a33.290671234658284,33.290671234658284 0 0,0 -0.029420092573288342,0.5707419362808992 l -12.268491895674295 -0.7380420070908631" fill="#ffa00e" stroke="none" /><path d="M 120.93736805541906 101.62068470465957 l 8.11836243720054 0.6284125967517822 a29.14264766851084,29.14264766851084 0 0,0 -0.04289017449665716,0.4984488412512364 l -8.106378640006142 -0.7676824853786759" fill="#ff6909" stroke="none" /><path d="M 120.9064616781168 101.97986365728391 l 0.9317813053044945 0.08824065838170608 a21.935950220207562,21.935950220207562 0 0,0 -0.03871967587163642,0.3745777403996746 l -0.9301292369511921 -0.10422292106431211" fill="#ff0400" stroke="none" /><path d="M 120.86939407059847 102.33845913500097 l 0.9061923685563528 0.10154074503314077 a21.91186354885567,21.91186354885567 0 0,0 -0.04509452517830784,0.37344735783461547 l -0.9043157571183812 -0.11708177979116481" fill="#ff0300" stroke="none" /><path d="M 120.82617615685814 102.69636545807757 l 9.145885033465333 1.1841179245794353 a30.222220356545137,30.222220356545137 0 0,0 -0.07103010935582155,0.5139384876893173 l -9.124210407554303 -1.3409447204688376" fill="#ff780b" stroke="none" /><path d="M 120.77682067341334 103.0534771498775 l 0.9404336753329907 0.13821136466173428 a21.950535574832408,21.950535574832408 0 0,0 -0.057989664783694196,0.37233524688997255 l -0.937922518411029 -0.1543347934831574" fill="#ff0400" stroke="none" /><path d="M 120.7213421655516 103.40968896794604 l 3.291797239670406 0.5416639831120038 a24.33606488811331,24.33606488811331 0 0,0 -0.07136861893596602,0.4116352285502142 l -3.2820138032422057 -0.5980922445828061" fill="#ff2603" stroke="none" /><path d="M 120.65975698304385 103.76489593502545 l 0.922936688897613 0.1681898093558566 a21.938136420615066,21.938136420615066 0 0,0 -0.07069690628584863,0.3699160873566199 l -0.9199134903296052 -0.184008461745791" fill="#ff0400" stroke="none" /><path d="M 120.592083275326 104.11899336999214 l 7.300804721350651 1.4603654152313794 a28.445429250573795,28.445429250573795 0 0,0 -0.09988719378670924,0.47799638184058607 l -7.274659816739577 -1.5854782483573746" fill="#ff5f08" stroke="none" /><path d="M 120.51834098615036 104.47187691870673 l 31.794907476090682 6.929552100275435 a53.54127891960608,53.54127891960608 0 0,0 -0.20342916743315104,0.8963464469108658 l -31.67126744709987 -7.474332881125318" fill="#70ff27" stroke="none" /><path d="M 120.43855184770803 104.8234425847677 l 2.0228172810412484 0.4773793704798379 a23.078384183888733,23.078384183888733 0 0,0 -0.09430539194412804,0.38479818092596174 l -2.0143243625808247 -0.5120333760138992" fill="#ff1402" stroke="none" /><path d="M 120.35273937422433 105.17358676015961 l 0.9168390425180011 0.23305689933688933 a21.94599648425026,21.94599648425026 0 0,0 -0.09594634911793239,0.3643239154940742 l -0.9127032125953384 -0.24876131920376676" fill="#ff0400" stroke="none" /><path d="M 120.16314734710363 105.8691983318838 l 3.2015156536336757 0.9319145473836848 a24.33439157929701,24.33439157929701 0 0,0 -0.12019298309892247,0.4000833500871335 l -3.1850463505311235 -0.986735501061542" fill="#ff2603" stroke="none" /><path d="M 120.05942366710727 106.21446072829308 l 0.8157159852002331 0.25271089736142793 a21.853964499353694,21.853964499353694 0 0,0 -0.11409360044192499,0.357396578366059 l -0.8112576689810533 -0.26667650941887044" fill="#ff0200" stroke="none" /><path d="M 119.94978838288452 106.5578916946017 l 8.888241342143514 2.921741472068212 a30.35614276215324,30.35614276215324 0 0,0 -0.1669798587552017,0.49364628203326977 l -8.836776061815948 -3.073889428575642" fill="#ff790b" stroke="none" /><path d="M 119.83427380445688 106.89939002012753 l 8.502531914509756 2.957621963633609 a30.002253975367772,30.002253975367772 0 0,0 -0.173384211464241,0.4849864978294711 l -8.450507533001572 -3.1031434178440014" fill="#ff750a" stroke="none" /><path d="M 119.71291397450082 107.23885506374661 l 4.121424649661922 1.5134442190356465 a25.390518710468424,25.390518710468424 0 0,0 -0.15375690009556764,0.4078584449221286 l -4.094837065751913 -1.583970944151934" fill="#ff3505" stroke="none" /><path d="M 119.4528033332814 107.91128576633889 l 12.870311809434956 5.234243768461027 a34.89396393761528,34.89396393761528 0 0,0 -0.23042337999157758,0.5529322292936565 l -12.778562584906892 -5.454408507195961" fill="#ffb510" stroke="none" /><path d="M 119.31412917781788 108.2440532568976 l 0.8591379506576244 0.3667149036353054 a21.93412945505879,21.93412945505879 0 0,0 -0.15078786289353172,0.3450321393072762 l -0.852716205747127 -0.3814091127184263" fill="#ff0400" stroke="none" /><path d="M 119.16976305983485 108.57439118712176 l 4.3679466473671615 1.9537269773289365 a25.784977222118084,25.784977222118084 0 0,0 -0.18419748365124924,0.4025047441311235 l -4.333764698860857 -2.028420703674749" fill="#ff3b05" stroke="none" /><path d="M 119.0197475246899 108.90220220490707 l 6.04640053824907 2.8300207525614764 a27.675925174001524,27.675925174001524 0 0,0 -0.20509276248686045,0.4285649933508081 l -5.996928517802298 -2.933398247977388" fill="#ff5507" stroke="none" /><path d="M 118.70294669586154 109.54985784667822 l 5.650151936919686 2.885007837917653 a27.344090725637802,27.344090725637802 0 0,0 -0.21704948977051175,0.4162210156829259 l -5.599794378174225 -2.9815750967050816" fill="#ff5007" stroke="none" /><path d="M 118.5362547648365 109.86951160357373 l 1.166180306098113 0.6209253276302823 a22.321183094360453,22.321183094360453 0 0,0 -0.18298549865626812,0.33667270744128913 l -1.155349457826506 -0.6408528685461747" fill="#ff0901" stroke="none" /><line stroke="#e1ed5e" stroke-width="0.3" x1="174.33088141563837" x2="178.70328620479359" y1="141.23008692659167" y2="143.65538615756765" /><path d="M 175.20536237346943 141.71514677278685 a86.0,86.0 0 0,1 -30.301960400862466,31.631185727798858" fill="none" id="id113" stroke="none" /><text fill="#e1ed5e" style="font-size:6.75px; font-family:Arial;" text-anchor="middle"><textPath startOffset="22.145653131862474" xlink:href="#id113">May</textPath></text><path d="M 118.36410011445183 110.18625677009912 l 6.759581470232097 3.749425895364302 a28.729821226751206,28.729821226751206 0 0,0 -0.2429265561319804,0.42922794791217656 l -6.694221549078738 -3.864910613375601" fill="#ff6309" stroke="none" /><path d="M 118.18653347947321 110.5 l 3.787959369410853 2.18697936160872 a25.37395872321744,25.37395872321744 0 0,0 -0.22102686326469725,0.3753519349111999 l -3.7498587960163903 -2.2516824648134692" fill="#ff3505" stroke="none" /><path d="M 117.62189284568427 111.42229804090321 l 4.936599986052413 3.199844468650199 a26.882943484841917,26.882943484841917 0 0,0 -0.25433256572920776,0.38509192046258534 l -4.8809429814024785 -3.284116267451845" fill="#ff4a06" stroke="none" /><path d="M 117.423217284605 111.72311816256416 l 2.3849605329610215 1.6047078839829723 a23.87456503434847,23.87456503434847 0 0,0 -0.2317086372890625,0.3380698265012617 l -2.3570621588566385 -1.645412445554278" fill="#ff2003" stroke="none" /><path d="M 117.21940702142032 112.02048342749411 l 2.733649586231028 1.9082997171151024 a24.333833809691576,24.333833809691576 0 0,0 -0.2420462132250351,0.34046831117874354 l -2.700488274476032 -1.95494525500335" fill="#ff2603" stroke="none" /><path d="M 117.01052211995028 112.31430620078461 l 9.86910615333838 7.144471771252814 a33.18370769331281,33.18370769331281 0 0,0 -0.33799657420572365,0.45855726703167593 l -9.745007559548828 -7.312835347553367" fill="#ff9f0e" stroke="none" /><path d="M 116.79662413953412 112.60449989151573 l 4.148920706671696 3.113427446058293 a26.187193219084694,26.187193219084694 0 0,0 -0.2729054978398787,0.35724205705657497 l -4.094863231477513 -3.1841904163557455" fill="#ff4006" stroke="none" /><path d="M 116.57777611688842 112.89097897827486 l 11.814213606811238 9.186803958288582 a35.96572785117351,35.96572785117351 0 0,0 -0.3831781269865356,0.4841330460056657 l -11.654769049183141 -9.38825694820893" fill="#ffc312" stroke="none" /><path d="M 116.1254893667686 113.45245675266167 l 12.30769860611136 10.267519915687739 a37.02814431548206,37.02814431548206 0 0,0 -0.4113746367640523,0.48459828772124247 l -12.129629405840193 -10.477284985858537" fill="#ffd013" stroke="none" /><path d="M 115.6541949942343 113.99807769240083 l 13.360246038470136 11.9468143909653 a38.922682508503925,38.922682508503925 0 0,0 -0.4496539174268857,0.4942484230246028 l -13.15319442020137 -12.174400389547575" fill="#ffe815" stroke="none" /><path d="M 115.41159269507618 114.26474011684316 l 3.828683657531078 3.5437724344826633 a26.217005042823395,26.217005042823395 0 0,0 -0.3085418977733741,0.3276608032460564 l -3.7672859260214437 -3.608974697673217" fill="#ff4106" stroke="none" /><path d="M 115.16444852881244 114.52719865689866 l 11.650447697554235 11.160865350467981 a37.13374869411085,37.13374869411085 0 0,0 -0.4449210140089176,0.45652815577517686 l -11.45713988239451 -11.359216198310897" fill="#ffd113" stroke="none" /><path d="M 114.91283532996324 114.78537596483092 l 0.6203251730789785 0.6150232803813915 a21.873531313558107,21.873531313558107 0 0,0 -0.2666571786457666,0.2643780711557317 l -0.609676074303247 -0.625581361765785" fill="#ff0300" stroke="none" /><path d="M 114.65682725009322 115.03919595460226 l 1.4901069968290144 1.5289810500081396 a23.13499459326781,23.13499459326781 0 0,0 -0.28679407771356447,0.2747422389050943 l -1.4636404332501378 -1.554335419218814" fill="#ff1502" stroke="none" /><path d="M 114.39649973595853 115.28858382429668 l 5.163930618062817 5.4839153658935595 a28.53256312077437,28.53256312077437 0 0,0 -0.3594698452315209,0.332719922173113 l -5.069031001517328 -5.571753034199052" fill="#ff6108" stroke="none" /><path d="M 114.13192950727249 115.5334660781643 l 3.8015413535517557 4.178559879579533 a26.649077741542936,26.649077741542936 0 0,0 -0.34102567581215515,0.3049472621799001 l -3.7292506509162227 -4.24320267164282" fill="#ff4706" stroke="none" /><path d="M 113.86319453409587 115.77377054828091 l 5.888014508921457 6.69947966323717 a29.919178359882597,29.919178359882597 0 0,0 -0.3886936097719564,0.3357442824924276 l -5.772141419386645 -6.799568078194315" fill="#ff730a" stroke="none" /><path d="M 113.59037401385872 116.0094264158162 l 0.5751068441136175 0.6774744162802512 a21.888661615498606,21.888661615498606 0 0,0 -0.2885401583816844,0.24071046240834873 l -0.5633923515700381 -0.6872470626004701" fill="#ff0300" stroke="none" /><path d="M 113.31354834802062 116.24036423190432 l 6.768243853704769 8.256157000463011 a31.675825648609422,31.675825648609422 0 0,0 -0.4234744594861156,0.34112104837789 l -6.625518623863401 -8.371126342634305" fill="#ff8b0c" stroke="none" /><path d="M 113.03279911837588 116.46651593811092 l 1.2316150460104738 1.5561053769449944 a22.984525022698506,22.984525022698506 0 0,0 -0.31148415470203306,0.24221196269136877 l -1.20472094667321 -1.5770183912571565" fill="#ff1302" stroke="none" /><path d="M 112.7482090630111 116.68781488649013 l 11.931206479953069 15.61833227913191 a40.65415964239244,40.65415964239244 0 0,0 -0.5582145438680195,0.4188946004373765 l -11.661338947174283 -15.820845906833302" fill="#fffd17" stroke="none" /><path d="M 112.16784306229584 117.11559508785304 l 0.7321517367416219 1.0298631076010587 a22.263591779813197,22.263591779813197 0 0,0 -0.31339176277220676,0.2187717896458535 l -0.7143648827956568 -1.042279713052034" fill="#ff0801" stroke="none" /><path d="M 111.8722381534696 117.32195027204791 l 2.0665704401681873 3.0151880324112286 a24.65541683737612,24.65541683737612 0 0,0 -0.35116793783689715,0.23628146070378508 l -2.014506214234287 -3.0502191671721346" fill="#ff2b04" stroke="none" /><path d="M 111.5731344415666 117.5232005979908 l 8.052170357024867 12.192012209636257 a35.61104408242168,35.61104408242168 0 0,0 -0.5129929754886453,0.33251584890644387 l -7.841691749279212 -12.328441900246595" fill="#ffbe11" stroke="none" /><path d="M 111.27062007382361 117.71928675628689 l 0.5024413502481547 0.7899212558801731 a21.936174610278712,21.936174610278712 0 0,0 -0.3194699558550251,0.19937288034931047 l -0.4888072656034148 -0.7984299330710313" fill="#ff0400" stroke="none" /><path d="M 110.96478420261333 117.91015095944535 l 0.8331980827523914 1.3609664509091863 a22.5957596077112,22.5957596077112 0 0,0 -0.33255281597362474,0.19968841097367118 l -0.8097125102213302 -1.3750688624187808" fill="#ff0d01" stroke="none" /><line stroke="#e1ed5e" stroke-width="0.3" x1="143.1302829299769" x2="145.66735839644613" y1="173.24464959558577" y2="177.55315839532614" /><path d="M 143.63769802327073 174.10635135553383 a86.0,86.0 0 0,1 -40.68552437913181,11.842963189579606" fill="none" id="id114" stroke="none" /><text fill="#e1ed5e" style="font-size:6.75px; font-family:Arial;" text-anchor="middle"><textPath startOffset="21.407464694133747" xlink:href="#id114">June</textPath></text><path d="M 110.65571695917076 118.09573695890943 l 8.461141793261852 14.368868547238224 a37.67499036801804,37.67499036801804 0 0,0 -0.560115036484865,0.32338256709169516 l -8.213234288916588 -14.51199801160609" fill="#ffd814" stroke="none" /><path d="M 109.71004243097381 118.62028667847754 l 6.253375158715547 11.991671405258307 a34.52423321180652,34.52423321180652 0 0,0 -0.5278472131201396,0.26952254807944076 l -6.046600723881825 -12.097251905010586" fill="#ffb010" stroke="none" /><path d="M 109.3889696526874 118.78422872680471 l 0.35368874178057724 0.707614410256454 a21.791083990272156,21.791083990272156 0 0,0 -0.3360390098913831,0.1643735188674021 l -0.34148948262712475 -0.7135816792210795" fill="#ff0200" stroke="none" /><path d="M 109.06512990194946 118.94263497670748 l 7.177904571351943 14.999059877070243 a37.62811207658204,37.62811207658204 0 0,0 -0.5850477747005672,0.27383189935378965 l -6.91936808277987 -15.120068007994567" fill="#ffd814" stroke="none" /><path d="M 108.73861861582097 119.09545874513695 l 1.0342772226236288 2.260082388752799 a23.485498295551338,23.485498295551338 0 0,0 -0.368036319824903,0.16461796462467912 l -0.9953274999430988 -2.2775041042873285" fill="#ff1a02" stroke="none" /><path d="M 108.07796709384702 119.3841803445677 l 11.610740122722122 27.861549553003886 a51.184022755290265,51.184022755290265 0 0,0 -0.8139369551169592,0.33102107379542633 l -11.130748706414723 -28.056757883378605" fill="#89ff24" stroke="none" /><path d="M 107.74402155503746 119.51999308798841 l 2.3646559636965114 5.960477736119001 a27.412401474441207,27.412401474441207 0 0,0 -0.4388957013033527,0.16977428581765547 l -2.2619879998996293 -6.000191910074697" fill="#ff5107" stroke="none" /><path d="M 107.407793817531 119.65005319985036 l 5.196407881124675 13.784089275078468 a35.7310478924735,35.7310478924735 0 0,0 -0.575798772837094,0.21144128502982756 l -4.959019956633454 -13.871261409117016" fill="#ffc011" stroke="none" /><path d="M 107.06938296918513 119.77432235084164 l 0.29285244184380144 0.8191604007722828 a21.86993466127479,21.86993466127479 0 0,0 -0.3545993579960275,0.12334806385256662 l -0.27874731180275214 -0.8240668971934398" fill="#ff0300" stroke="none" /><path d="M 106.72888874123015 119.89276391827305 l 1.743465408757283 5.154245687489787 a26.4411322570344,26.4411322570344 0 0,0 -0.4312136470896823,0.14174849078972765 l -1.6547290240198664 -5.183415099681534" fill="#ff4406" stroke="none" /><path d="M 106.0420521117495 120.11202640906438 l 9.783089565141449 32.564723384915496 a55.002500651799735,55.002500651799735 0 0,0 -0.9065983283140298,0.26389756046660345 l -9.222631224445813 -32.72786463968461" fill="#61ff29" stroke="none" /><path d="M 105.3480935250658 120.30758222061773 l 1.4470132865716494 5.494545140928231 a26.681889981090176,26.681889981090176 0 0,0 -0.44392910124453383,0.11284504156511219 l -1.3524788921017183 -5.518575414328613" fill="#ff4706" stroke="none" /><path d="M 104.9986988182912 120.39639698878246 l 3.703415347353081 15.11119841078665 a36.55839331824374,36.55839331824374 0 0,0 -0.6108173679191702,0.14415123565945984 l -3.4434658256940316 -15.172545790092336" fill="#ffca12" stroke="none" /><path d="M 104.29559338865022 120.5559693870025 l 2.3196311310006537 11.10027467776004 a32.3400523149423,32.3400523149423 0 0,0 -0.5443962929259408,0.10889450529258063 l -2.128738352543754 -11.138458579715483" fill="#ff940d" stroke="none" /><path d="M 103.94208987418118 120.62667999033965 l 1.4762922262154745 7.724584749275354 a28.8643911579932,28.8643911579932 0 0,0 -0.4874855705207699,0.08883610994764296 l -1.3434719221436475 -7.7487890331543605" fill="#ff6509" stroke="none" /><path d="M 103.58742460773223 120.69131181640829 l 0.8604364453579636 4.9627687647373255 a26.03680699339896,26.03680699339896 0 0,0 -0.4410418093436718,0.07257326189140698 l -0.7751171329612195 -4.976808025124403" fill="#ff3e05" stroke="none" /><path d="M 103.2317021107853 120.74984581791261 l 2.466715538430941 15.838083259058058 a37.029022642331995,37.029022642331995 0 0,0 -0.628920130495447,0.09242960112868687 l -2.194470302327808 -15.878093933485626" fill="#ffd013" stroke="none" /><path d="M 102.875027216393 120.80226474461374 l 0.3120345968386871 2.2577269028641833 a23.279187652989762,23.279187652989762 0 0,0 -0.3963250416338223,0.05131221134325601 l -0.2732317333140894 -2.2627507104078344" fill="#ff1702" stroke="none" /><path d="M 102.51750503828377 120.84855314841334 l 0.3981437293117124 3.2972012270217737 a24.32115256509907,24.32115256509907 0 0,0 -0.414923609322125,0.04649305587237319 l -0.34148421838878806 -3.303550043401118" fill="#ff2603" stroke="none" /><path d="M 102.15924093988457 120.88869738790638 l 0.39520904368527043 3.823288992911937 a24.843660873637553,24.843660873637553 0 0,0 -0.4245905111744348,0.04020916285330927 l -0.32951896912582035 -3.82950991127043" fill="#ff2d04" stroke="none" /><path d="M 101.80034050326958 120.92268563240118 l 0.0679656782755626 0.789864205004548 a21.792782943668016,21.792782943668016 0 0,0 -0.37300008952798525,0.028872565946902483 l -0.054396593972341534 -0.7909145379465042" fill="#ff0200" stroke="none" /><path d="M 101.08105385017728 120.97215588758144 l 2.0387392572766396 39.55099693759569 a60.60350762895712,60.60350762895712 0 0,0 -1.0394201078657834,0.04463717178121561 l -1.3594933888100265 -39.58016667780274" fill="#30ff37" stroke="none" /><path d="M 100.72087961077811 120.9876233191556 l 0.4644824770153928 13.522900523466186 a34.530875157912604,34.530875157912604 0 0,0 -0.592593698114143,0.015263111588859561 l -0.23227546483050593 -13.528881352405092" fill="#ffb010" stroke="none" /><line stroke="#e1ed5e" stroke-width="0.3" x1="101.45913802915013" x2="101.54496967792366" y1="184.9874750549273" y2="189.98673829345242" /><path d="M 101.47630435890484 185.9873277026323 a86.0,86.0 0 0,1 -42.54439059252881,-10.42667462771756" fill="none" id="id115" stroke="none" /><text fill="#e1ed5e" style="font-size:6.75px; font-family:Arial;" text-anchor="middle"><textPath startOffset="22.145653131862474" xlink:href="#id115">July</textPath></text><path d="M 100.36049292484886 120.99690560180557 l 0.14850548138804182 8.649699783602598 a29.650974524552545,29.650974524552545 0 0,0 -0.508998406236893,0.004369139144381473 l -1.059438826099857e-15 -8.650974524552545" fill="#ff700a" stroke="none" /><path d="M 100.0 121.0 l 3.193504988518011e-16 2.607694717155553 a23.607694717155553,23.607694717155553 0 0,0 -0.40525747226315245,-0.003478647995596987 l 0.04476454741429995 -2.607310467354391" fill="#ff1c02" stroke="none" /><path d="M 99.63950707515114 120.99690560180557 l -0.25582543086517484 14.900548810131392 a35.90274476377373,35.90274476377373 0 0,0 -0.6161367238657318,-0.01586949641935487 l 0.5115754688016505 -14.89396159636199" fill="#ffc212" stroke="none" /><path d="M 99.27912038922189 120.98762331915562 l -0.3986191485818473 11.605361579318545 a32.61220541552461,32.61220541552461 0 0,0 -0.5593369657459898,-0.024020335987973773 l 0.5977818749286758 -11.596808674904743" fill="#ff970e" stroke="none" /><path d="M 98.91894614982273 120.97215588758144 l -0.13588347476995735 2.6361031089750906 a23.639602985273296,23.639602985273296 0 0,0 -0.40508784036177514,-0.024369078554318076 l 0.1811156672641788 -2.6333820525960805" fill="#ff1c02" stroke="none" /><path d="M 98.55909050195518 120.95050786540614 l -0.8198600518335087 11.920585219111324 a32.94874564423763,32.94874564423763 0 0,0 -0.5639428937049235,-0.04365274659689003 l 1.0243719403136684 -11.90475470551938" fill="#ff9c0e" stroke="none" /><path d="M 98.19965949673042 120.92268563240118 l -0.5149115885898263 5.984053170486285 a27.00616568962854,27.00616568962854 0 0,0 -0.4615487932049668,-0.04370915058698162 l 0.6175599451798085 -5.9743322643941195" fill="#ff4c07" stroke="none" /><path d="M 97.84075906011543 120.88869738790638 l -0.48873374692163657 4.728055657952394 a25.75324846605726,25.75324846605726 0 0,0 -0.4393554448829811,-0.04923069400689944 l 0.569825093405417 -4.718969203438524" fill="#ff3a05" stroke="none" /><path d="M 97.48249496171623 120.84855314841334 l -1.6692211282733036 13.82354548652059 a34.92396168455579,34.92396168455579 0 0,0 -0.5945757547459448,-0.07697973527317052 l 1.9062747049100424 -13.792854155047023" fill="#ffb510" stroke="none" /><path d="M 97.12497278360702 120.80226474461374 l -0.1312128019673722 0.949390471451719 a21.95841487190227,21.95841487190227 0 0,0 -0.37295310978373253,-0.05481126379252264 l 0.14749101735878964 -0.9469981343603139" fill="#ff0400" stroke="none" /><path d="M 96.76829788921471 120.74984581791261 l -1.3541120192227276 8.694370537829775 a29.799187372120556,29.799187372120556 0 0,0 -0.5047733970952544,-0.08306027040321738 l 1.5031629193710456 -8.66984426893089" fill="#ff720a" stroke="none" /><path d="M 96.05791012581884 120.62667999033965 l -1.7015809127694754 8.90339035526337 a30.064531836829644,30.064531836829644 0 0,0 -0.5060913173897943,-0.10123243739194446 l 1.8541687156902278 -8.872868521208565" fill="#ff750a" stroke="none" /><path d="M 95.70440661134978 120.55596938700252 l -3.5052271076540436 16.773780616621384 a38.13611196423436,38.13611196423436 0 0,0 -0.6396653294201881,-0.13941208133064353 l 3.792654853693368 -16.711137077157023" fill="#ffde14" stroke="none" /><path d="M 95.35216902796893 120.47920084513623 l -1.6130748056399293 7.107505225925487 a28.28825362244951,28.28825362244951 0 0,0 -0.47263993442707974,-0.11154173759297116 l 1.7348468938068968 -7.078767344686288" fill="#ff5d08" stroke="none" /><path d="M 95.00130118170881 120.39639698878247 l -3.630850917236765 14.815110773239633 a36.253543378722206,36.253543378722206 0 0,0 -0.6031807694452218,-0.15332619287292612 l 3.8846369799073655 -14.750599348531443" fill="#ffc612" stroke="none" /><path d="M 94.6519064749342 120.30758222061772 l -0.7935231518726066 3.0131366579679235 a24.11587411686479,24.11587411686479 0 0,0 -0.3994261690744361,-0.10886537855051431 l 0.8451307218817378 -2.9990707852732648" fill="#ff2303" stroke="none" /><path d="M 94.30408787586889 120.21278271476187 l -3.1705291814327006 11.2510895601092 a32.68928019939271,32.68928019939271 0 0,0 -0.5388127163558085,-0.1568405289905107 l 3.3632019101701163 -11.195005336816173" fill="#ff980e" stroke="none" /><path d="M 93.95794788825049 120.11202640906438 l -0.2963967233323416 0.9866082941635084 a22.03016840551163,22.03016840551163 0 0,0 -0.3612521357073008,-0.1119168350806731 l 0.3132894919112761 -0.9813748712761862" fill="#ff0500" stroke="none" /><path d="M 93.61358852112213 120.00534299687104 l -2.1517078870037865 6.740194309582244 a28.075313856071627,28.075313856071627 0 0,0 -0.4578646013860849,-0.15050918882217149 l 2.2670952260376147 -6.702264199358051" fill="#ff5a08" stroke="none" /><path d="M 93.27111125876986 119.89276391827306 l -0.2402870810463194 0.7103660588971982 a21.74990520664341,21.74990520664341 0 0,0 -0.3526531991157147,-0.12267108876949624 l 0.2524460522070559 -0.7061365375591114" fill="#ff0100" stroke="none" /><path d="M 92.93061703081489 119.77432235084164 l -1.0408886254207226 2.911550739309633 a24.09201824672894,24.09201824672894 0 0,0 -0.3882381111066661,-0.14256641205654486 l 1.0907158881815076 -2.8932534782443686" fill="#ff2303" stroke="none" /><path d="M 92.59220618246901 119.65005319985036 l -3.4815870611055026 9.235323317008291 a30.869784457308796,30.869784457308796 0 0,0 -0.4942513231139707,-0.19118702950819802 l 3.6396106467130016 -9.174196399362053" fill="#ff800b" stroke="none" /><path d="M 92.25597844496254 119.51999308798841 l -4.341099684473846 10.94240702107501 a32.77206090221294,32.77206090221294 0 0,0 -0.5211468350423423,-0.2119458808895279 l 4.5283009807066295 -10.86627388360619" fill="#ff990e" stroke="none" /><path d="M 91.92203290615298 119.3841803445677 l -0.3619509768538551 0.8685505808227109 a21.940950913221794,21.940950913221794 0 0,0 -0.34642141620150685,-0.14786670308569222 l 0.3768074682257931 -0.8622092280776148" fill="#ff0400" stroke="none" /><path d="M 91.59046798132341 119.24265499422711 l -1.7055872927943847 3.9027175073346174 a25.259135118236777,25.259135118236777 0 0,0 -0.3958306106128698,-0.1770499973650291 l 1.7723313062628896 -3.8728637590597335" fill="#ff3304" stroke="none" /><path d="M 91.26138138417905 119.09545874513695 l -1.9271671556831134 4.211208033464751 a25.63122514536508,25.63122514536508 0 0,0 -0.39851829939345523,-0.18652668648471282 l 1.9991741689480587 -4.177505115409511" fill="#ff3805" stroke="none" /><path d="M 90.93487009805054 118.94263497670748 l -9.13823940388282 19.095405717273994 a42.169363214560256,42.169363214560256 0 0,0 -0.6502912415324025,-0.3180900327431753 l 9.464690894677291 -18.935721934433598" fill="#efff19" stroke="none" /><path d="M 90.6110303473126 118.78422872680471 l -1.4620588871949625 2.9250971688109404 a24.270139085209,24.270139085209 0 0,0 -0.3710705231183728,-0.18947125308639617 l 1.5120566320269178 -2.8995679640517076" fill="#ff2503" stroke="none" /><path d="M 90.28995756902619 118.62028667847754 l -4.633627649676856 8.885591984962135 a31.021190055032047,31.021190055032047 0 0,0 -0.47006141062485135,-0.25028122484348786 l 4.785477876088269 -8.804740292396074" fill="#ff820c" stroke="none" /><path d="M 89.97174638481275 118.45085714620012 l -1.5323862552976553 2.819418113486716 a24.20894470723354,24.20894470723354 0 0,0 -0.36342907226490156,-0.20158798006638298 l 1.5805595157186594 -2.7926972179871843" fill="#ff2403" stroke="none" /><line stroke="#e1ed5e" stroke-width="0.3" x1="58.13341422392154" x2="55.67067388415222" y1="173.97424548756322" y2="178.32567169271397" /><path d="M 57.64086615596768 174.84453072859336 a86.0,86.0 0 0,1 -31.369924170532247,-30.572349798747897" fill="none" id="id116" stroke="none" /><text fill="#e1ed5e" style="font-size:6.75px; font-family:Arial;" text-anchor="middle"><textPath startOffset="22.145653131862474" xlink:href="#id116">August</textPath></text><path d="M 89.65649057296885 118.27599006163327 l -5.47148333411364 9.66758678397169 a32.108526639528186,32.108526639528186 0 0,0 -0.47735827917931944,-0.2756029309840787 l 5.636634081153359 -9.572236955711439" fill="#ff910d" stroke="none" /><path d="M 89.34428304082925 118.09573695890944 l -0.48074809755174047 0.8164153712158513 a21.94744540299541,21.94744540299541 0 0,0 -0.3230112595861979,-0.19395898051420282 l 0.49469211369536564 -0.8080423901657298" fill="#ff0400" stroke="none" /><path d="M 89.03521579738668 117.91015095944536 l -9.624953589132579 15.721638344504232 a39.4339264354706,39.4339264354706 0 0,0 -0.5743004403159303,-0.35840594983405355 l 9.893418158238221 -15.55409659782863" fill="#ffee16" stroke="none" /><path d="M 88.72937992617639 117.7192867562869 l -0.36624269683826266 0.5757943507247879 a21.68240226209615,21.68240226209615 0 0,0 -0.3123446767365334,-0.20245804581929608 l 0.3760730058318057 -0.5694224632015972" fill="#ff0000" stroke="none" /><path d="M 88.4268655584334 117.5232005979908 l -1.6977060451728154 2.570543333458231 a24.080567941955326,24.080567941955326 0 0,0 -0.34298034553195655,-0.230772483200388 l 1.7415826788017776 -2.5410211762007218" fill="#ff2303" stroke="none" /><path d="M 88.1277618465304 117.32195027204791 l -7.3811736201320794 10.769352900818832 a34.05605935621115,34.05605935621115 0 0,0 -0.4793875390939824,-0.33464973340011483 l 7.5649562503998276 -10.641058351613589" fill="#ffaa0f" stroke="none" /><path d="M 87.83215693770417 117.11559508785305 l -5.814921435434685 8.179415221500953 a31.035743353932446,31.035743353932446 0 0,0 -0.43157268650041086,-0.3124253430897539 l 5.9544751323090495 -8.078389107038134" fill="#ff820c" stroke="none" /><path d="M 87.54013794807813 116.9041958592261 l -5.429483145863446 7.366136649794292 a30.150915603078083,30.150915603078083 0 0,0 -0.4139964950357764,-0.3106706879559346 l 5.5551326298099895 -7.271846934574343" fill="#ff770a" stroke="none" /><path d="M 87.2517909369889 116.68781488649013 l -0.5837628664009685 0.7641643311586269 a21.961626855492185,21.961626855492185 0 0,0 -0.2976219334621418,-0.23143261561033177 l 0.5967947444983386 -0.754030663927502" fill="#ff0400" stroke="none" /><path d="M 86.96720088162412 116.46651593811092 l -9.606906115104811 12.138012043572589 a36.479792681891816,36.479792681891816 0 0,0 -0.4876987472876611,-0.3928555884320233 l 9.813855632747735 -11.971308161347155" fill="#ffc912" stroke="none" /><path d="M 86.68645165197938 116.24036423190432 l -2.5258561998047293 3.0811338652885323 a24.98413546932328,24.98413546932328 0 0,0 -0.3293452350802329,-0.27475150867311904 l 2.578375769046855 -3.0373201727035433" fill="#ff2f04" stroke="none" /><path d="M 86.40962598614128 116.0094264158162 l -0.6103653928776318 0.7190088980679005 a21.94314352477419,21.94314352477419 0 0,0 -0.2850733253365271,-0.24623954875151297 l 0.6226181979770213 -0.7084252168516652" fill="#ff0400" stroke="none" /><path d="M 86.13680546590413 115.77377054828092 l -6.67209189821535 7.591615801152495 a31.10690065106703,31.10690065106703 0 0,0 -0.39807200533678877,-0.35595844180594916 l 6.8014289303755096 -7.475961829463163" fill="#ff830c" stroke="none" /><path d="M 85.86807049272751 115.53346607816431 l -7.175424728714909 7.88704872625892 a31.662657157005277,31.662657157005277 0 0,0 -0.39890459261125416,-0.36922013562120326 l 7.309759092640131 -7.76271084450534" fill="#ff8b0c" stroke="none" /><path d="M 85.60350026404147 115.28858382429668 l -5.5883829594436785 5.934669043498393 a29.151706616240467,29.151706616240467 0 0,0 -0.36138053886616894,-0.34619438147527937 l 5.689435984175161 -5.837862531717531" fill="#ff6909" stroke="none" /><path d="M 85.34317274990678 115.03919595460226 l -2.99532926373844 3.0734716987013986 a25.29164603397418,25.29164603397418 0 0,0 -0.30832693990049426,-0.30569168274493774 l 3.0476481237688966 -3.021600005727801" fill="#ff3404" stroke="none" /><path d="M 85.08716467003676 114.78537596483092 l -11.382829432089224 11.28554087624307 a37.029105987215566,37.029105987215566 0 0,0 -0.4436672289509058,-0.45524166185322595 l 11.57488346219094 -11.088476522322107" fill="#ffd013" stroke="none" /><path d="M 84.83555147118756 114.52719865689866 l -6.247683572179318 5.985139533827739 a29.651904140561605,29.651904140561605 0 0,0 -0.34896643461674504,-0.3705902605046536 l 6.3495058405323155 -5.877007813378595" fill="#ff700a" stroke="none" /><path d="M 84.58840730492382 114.26474011684316 l -0.696788995967272 0.6449374922116102 a21.949452091345993,21.949452091345993 0 0,0 -0.2535708353629308,-0.278718767136143 l 0.7077575321720826 -0.6328811495177931" fill="#ff0400" stroke="none" /><path d="M 84.3458050057657 113.99807769240083 l -7.90010318311024 7.064320980790832 a31.59793664934029,31.59793664934029 0 0,0 -0.35809330115620436,-0.4074444424351284 l 8.020207548225038 -6.927664260544403" fill="#ff8a0c" stroke="none" /><path d="M 84.1078160697243 113.72728997021213 l -6.5284980150202605 5.639161094241287 a29.626785274882415,29.626785274882415 0 0,0 -0.3291471462113097,-0.3877345106081952 l 6.624339724738682 -5.526259801183538" fill="#ff6f0a" stroke="none" /><path d="M 83.8745106332314 113.45245675266167 l -6.662059695555206 5.557727142395932 a29.675907467029923,29.675907467029923 0 0,0 -0.3229772877890373,-0.39397977573021575 l 6.756483802582872 -5.442545084967221" fill="#ff700a" stroke="none" /><path d="M 83.64595745247003 113.17365903436017 l -5.750346108245596 4.632071779159509 a28.383939959933397,28.383939959933397 0 0,0 -0.3024019142710242,-0.38207493999030057 l 5.829014453158181 -4.532676895254529" fill="#ff5f08" stroke="none" /><path d="M 83.4222238831116 112.89097897827486 l -2.4528387143693697 1.9073422201559531 a24.107148548669443,24.107148548669443 0 0,0 -0.2512286567382182,-0.32886637621854764 l 2.485219348461883 -1.8649549306965352" fill="#ff2303" stroke="none" /><path d="M 83.20337586046588 112.60449989151573 l -10.494668493277407 7.875394888051453 a34.12097219822283,34.12097219822283 0 0,0 -0.3475431925255302,-0.4715090882636301 l 10.628313705386768 -7.694079490518943" fill="#ffab0f" stroke="none" /><path d="M 82.98947788004972 112.3143062007846 l -4.8192721203706945 3.4887813634801392 a26.949536046814792,26.949536046814792 0 0,0 -0.2680643419905801,-0.3770660676270149 l 4.878451560891235 -3.4055380691436206" fill="#ff4b07" stroke="none" /><path d="M 82.78059297857968 112.02048342749411 l -9.733856618884355 6.794987889382741 a32.870965634431634,32.870965634431634 0 0,0 -0.31902095986132945,-0.46546111449457195 l 9.849067315561008 -6.6268920398181175" fill="#ff9b0e" stroke="none" /><path d="M 82.576782715395 111.72311816256416 l -7.331212400827125 4.932766884890544 a29.836224556150334,29.836224556150334 0 0,0 -0.2822727930562076,-0.4273969857563923 l 7.414809632804059 -4.806190020795091" fill="#ff720a" stroke="none" /><path d="M 82.37810715431573 111.42229804090323 l -9.188578471486835 5.95592555196213 a31.95002390441166,31.95002390441166 0 0,0 -0.29436973226826496,-0.46279811263864634 l 9.28946589538099 -5.797313764644811" fill="#ff8f0d" stroke="none" /><path d="M 82.18462484594161 111.11811171558189 l -9.633128385385506 6.011784575575495 a32.3551185054339,32.3551185054339 0 0,0 -0.2900128484078299,-0.47371419256249614 l 9.734909198248742 -5.8455332668884425" fill="#ff940d" stroke="none" /><path d="M 81.99639281039703 110.81064883170644 l -17.294306357249813 10.384734061746608 a41.17264816308487,41.17264816308487 0 0,0 -0.3586457034574026,-0.6090588119106032 l 17.470025770836987 -10.086324081542445" fill="#fbff18" stroke="none" /><line stroke="#e1ed5e" stroke-width="0.3" x1="26.387840678322732" x2="22.057713659400548" y1="142.50000000000003" y2="145.00000000000006" /><path d="M 25.521815274538298 143.00000000000003 a86.0,86.0 0 0,1 -11.493303480769221,-40.785679425670985" fill="none" id="id117" stroke="none" /><text fill="#e1ed5e" style="font-size:6.75px; font-family:Arial;" text-anchor="middle"><textPath startOffset="21.40746469413373" xlink:href="#id117">September</textPath></text><path d="M 81.81346652052679 110.50000000000001 l -1.723074198933465 0.994817352587936 a22.98963470517587,22.98963470517587 0 0,0 -0.19439009876122937,-0.3434686784115813 l 1.7398976627160727 -0.9650919040772332" fill="#ff1302" stroke="none" /><path d="M 81.63589988554817 110.18625677009913 l -0.8404534340404186 0.4661853523500477 a21.96108831932142,21.96108831932142 0 0,0 -0.18003349912760225,-0.3312413607991793 l 0.8483322827833505 -0.4516891580762814" fill="#ff0400" stroke="none" /><path d="M 81.4637452351635 109.86951160357371 l -9.103999937117663 4.847367181679418 a31.31405756475409,31.31405756475409 0 0,0 -0.24856193922373607,-0.47665029258169084 l 9.18586994531635 -4.690370645993225" fill="#ff860c" stroke="none" /><path d="M 81.29705330413844 109.54985784667822 l -7.503079461403885 3.831125834550607 a29.424590587340248,29.424590587340248 0 0,0 -0.2258408602179337,-0.4518330052305296 l 7.567740234833556 -3.7017609731563246" fill="#ff6d0a" stroke="none" /><path d="M 81.1358732173502 109.22738970284198 l -6.665522985626882 3.2604413058864323 a28.420220628866147,28.420220628866147 0 0,0 -0.21060837253367462,-0.4400904970027943 l 6.720510616120468 -3.1455383068185334" fill="#ff5f08" stroke="none" /><path d="M 80.9802524753101 108.90220220490708 l -8.943766229380332 4.186134192581044 a30.87495184009017,30.87495184009017 0 0,0 -0.22055821061264275,-0.48195949460821064 l 9.014308904848031 -4.031985715758144" fill="#ff800b" stroke="none" /><path d="M 80.83023694016515 108.57439118712176 l -31.75517514566674 14.20368593313531 a55.7870068074147,55.7870068074147 0 0,0 -0.38351207650854474,-0.8775506839124749 l 31.994321104192252 -13.656473179446985" fill="#59ff2a" stroke="none" /><path d="M 80.68587082218212 108.24405325689762 l -14.741818750566104 6.292405821888039 a37.02858668447948,37.02858668447948 0 0,0 -0.2445194279275109,-0.58675761285382 l 14.8476640230301 -6.038415699592937" fill="#ffd013" stroke="none" /><path d="M 80.5471966667186 107.91128576633889 l -5.6807504995035885 2.310311773519806 a27.132574233425512,27.132574233425512 0 0,0 -0.17176382715102753,-0.4329570488570627 l 5.7195730016207404 -2.212453707449178" fill="#ff4d07" stroke="none" /><path d="M 80.41425534168474 107.57618678355246 l -0.8825689161613512 0.34139661651092995 a21.94629780806009,21.94629780806009 0 0,0 -0.13289979452646403,-0.3525324944268752 l 0.8882993945022513 -0.32619584188990985" fill="#ff0400" stroke="none" /><path d="M 80.28708602549918 107.23885506374661 l -7.165993460266976 2.6314520579620306 a28.633872032326824,28.633872032326824 0 0,0 -0.16547627813460347,-0.46286660087794945 l 7.210109908445523 -2.5080505007031597" fill="#ff6209" stroke="none" /><path d="M 80.16572619554312 106.89939002012753 l -8.718492665858067 3.032744323407475 a30.230907457871147,30.230907457871147 0 0,0 -0.16629097764194106,-0.491609727428075 l 8.769269065072375 -2.8826329215052384" fill="#ff780b" stroke="none" /><path d="M 80.05021161711548 106.5578916946017 l -10.615605034246084 3.4895602274648585 a32.17443962014272,32.17443962014272 0 0,0 -0.16797399202199523,-0.5261761375801708 l 10.673943742045333 -3.3068150561932956" fill="#ff920d" stroke="none" /><path d="M 79.94057633289273 106.21446072829308 l -0.8167448161725609 0.25302963182656985 a21.855041571695224,21.855041571695224 0 0,0 -0.10794692087094696,-0.3593201917460883 l 0.8209680570471375 -0.23897183648975806" fill="#ff0300" stroke="none" /><path d="M 79.83685265289637 105.86919833188381 l -12.524681242273878 3.645752172965679 a34.04450647311929,34.04450647311929 0 0,0 -0.15852015140564263,-0.5625320943240746 l 12.585419885754096 -3.4302121547386086" fill="#ffaa0f" stroke="none" /><path d="M 79.73907114497094 105.5222062557868 l -6.1856913082478036 1.685937672610374 a27.41133081324457,27.41133081324457 0 0,0 -0.11984040541891501,-0.45505353917064645 l 6.213721194471451 -1.579503629066925" fill="#ff5107" stroke="none" /><path d="M 79.56144815229197 104.8234425847677 l -8.414144414379095 1.9857151712660421 a29.64528142789019,29.64528142789019 0 0,0 -0.11263673638151768,-0.49629824336958234 l 8.446992012318278 -1.8409825939574336" fill="#ff700a" stroke="none" /><path d="M 79.48165901384964 104.47187691870673 l -9.800926671586847 2.1360663512800637 a31.030999106713814,31.030999106713814 0 0,0 -0.1089665195017193,-0.521444242139832 l 9.836150901912932 -1.9675056578548227" fill="#ff820c" stroke="none" /><path d="M 79.407916724674 104.11899336999214 l -4.100448263713791 0.8202044924939971 a25.18167566567528,25.18167566567528 0 0,0 -0.08114939804021098,-0.42460794101802946 l 4.113923954036159 -0.7496939864426532" fill="#ff3204" stroke="none" /><path d="M 79.34024301695615 103.76489593502545 l -48.56403937069723 8.849985726609265 a70.36383460955822,70.36383460955822 0 0,0 -0.2063509331607563,-1.1901773468446766 l 48.708805121350224 -8.015015346843997" fill="#3cffa6" stroke="none" /><path d="M 79.2786578344484 103.40968896794605 l -52.04702308257692 8.564317842022932 a73.74694447887467,73.74694447887467 0 0,0 -0.19482716376428555,-1.2509301509438266 l 52.18637173847947 -7.669599509147656" fill="#40ffc9" stroke="none" /><path d="M 79.22317932658666 103.0534771498775 l -9.587231100500501 1.4089928173386788 a30.690214700083587,30.690214700083587 0 0,0 -0.0721300182641404,-0.5218968806309262 l 9.610005635319855 -1.2442076285076669" fill="#ff7e0b" stroke="none" /><path d="M 79.17382384314188 102.69636545807758 l -1.0361123508940495 0.1341454875151571 a22.044760171281368,22.044760171281368 0 0,0 -0.0453680258813758,-0.3757123360004195 l 1.0382624630350865 -0.11633947459133832" fill="#ff0500" stroke="none" /><path d="M 79.13060592940153 102.33845913500099 l -10.342472875060935 1.1588956579845995 a31.40719867771663,31.40719867771663 0 0,0 -0.05543760542075888,-0.5363085435043181 l 10.36084287296336 -0.9811825921973499" fill="#ff870c" stroke="none" /><path d="M 79.0935383218832 101.97986365728391 l -9.066109299613236 0.8585699766716725 a30.106672292191895,30.106672292191895 0 0,0 -0.044308960627521696,-0.5149372867101744 l 9.079511882938498 -0.7028116425858361" fill="#ff760a" stroke="none" /><path d="M 79.06263194458094 101.62068470465958 l -19.748048927403325 1.5286238823712988 a40.807123148323974,40.807123148323974 0 0,0 -0.048066980139946314,-0.698883341982773 l 19.771379868708337 -1.1893971162341823" fill="#ffff18" stroke="none" /><path d="M 79.03789590574601 101.26102812881392 l -13.020320430855005 0.7832701448123899 a34.04385894748539,34.04385894748539 0 0,0 -0.030085710039522175,-0.5836547373047001 l 13.0318477303511 -0.559643614130959" fill="#ffaa0f" stroke="none" /><path d="M 79.00696218219943 100.54070618675478 l -7.428117560006498 0.19132195899878826 a28.43058103900846,28.43058103900846 0 0,0 -0.008378314069027263,-0.4879947912524944 l 7.430307305674191 -0.06378025177724149" fill="#ff5f08" stroke="none" /><line stroke="#e1ed5e" stroke-width="0.3" x1="15.003131293944662" x2="10.003315487706104" y1="100.72959589197737" y2="100.7725132973878" /><path d="M 14.003168132696942 100.73817937305945 a86.0,86.0 0 0,1 10.791469493833604,-42.45332614584628" fill="none" id="id118" stroke="none" /><text fill="#e1ed5e" style="font-size:6.75px; font-family:Arial;" text-anchor="middle"><textPath startOffset="22.145653131862435" xlink:href="#id118">October</textPath></text><path d="M 79.00077361379809 100.18025310272382 l -19.23395061795667 0.1651003333533049 a40.23465919880228,40.23465919880228 0 0,0 0.0,-0.6907068721542379 l 19.23395061795667 0.16510033335329785" fill="#fff817" stroke="none" /><path d="M 79.00077361379809 99.81974689727619 l -6.6869047424015085 -0.05739903486294396 a27.68715108870399,27.68715108870399 0 0,0 0.008159229921453,-0.4752342379978173 l 6.68493408088139 0.17218018882981362" fill="#ff5507" stroke="none" /><path d="M 79.00696218219943 99.45929381324524 l -20.201299607797715 -0.5203138189538664 a41.20799921600856,41.20799921600856 0 0,0 0.024283899453887932,-0.7069992365416083 l 20.189391021346978 0.8670193200596132" fill="#fbff18" stroke="none" /><path d="M 79.06263194458094 98.37931529534042 l -6.580486250281642 -0.5093712536754998 a27.60017108598078,27.60017108598078 0 0,0 0.04062006196143632,-0.4720666925197428 l 6.5707725656224625 0.6222589935709233" fill="#ff5407" stroke="none" /><path d="M 79.13060592940154 97.66154086499901 l -10.094165296686695 -1.1310722759077259 a31.157337127916996,31.157337127916996 0 0,0 0.06412167182727382,-0.5310194270623655 l 10.073261538599754 1.3041853798935277" fill="#ff840c" stroke="none" /><path d="M 79.17382384314186 97.30363454192245 l -8.38924834835368 -1.0861561572975578 a29.45926847005049,29.45926847005049 0 0,0 0.06923697320329826,-0.5009642477394359 l 8.369366858595173 1.2300087132370607" fill="#ff6d0a" stroke="none" /><path d="M 79.22317932658666 96.9465228501225 l -7.718637473971822 -1.1343739027944864 a28.801549115781,28.801549115781 0 0,0 0.07608890328809191,-0.4885453416058566 l 7.698027078545462 1.266707426331793" fill="#ff6409" stroke="none" /><path d="M 79.2786578344484 96.59031103205396 l -10.756037975093191 -1.7699019556490978 a31.900683733337893,31.900683733337893 0 0,0 0.09355282999238695,-0.5395878626989684 l 10.724070327608569 1.954282851268659" fill="#ff8e0d" stroke="none" /><path d="M 79.34024301695615 96.23510406497455 l -3.8998173255392916 -0.7106766264634686 a24.96404294123789,24.96404294123789 0 0,0 0.08044806406956946,-0.42093826532812034 l 3.8870429691875628 0.7775174568249035" fill="#ff2f04" stroke="none" /><path d="M 79.407916724674 95.88100663000787 l -16.810165014058896 -3.362503798940474 a38.14316422361341,38.14316422361341 0 0,0 0.1339411545833984,-0.6409569119253392 l 16.74996614865113 3.6505771621512224" fill="#ffde14" stroke="none" /><path d="M 79.48165901384962 95.52812308129327 l -2.0869719296599114 -0.4548458186036793 a23.135962676146207,23.135962676146207 0 0,0 0.08790469185541906,-0.3873242918191232 l 2.0788563762468306 0.49060444436181067" fill="#ff1502" stroke="none" /><path d="M 79.64726062577567 94.8264132398404 l -10.208201657664294 -2.594884942516197 a31.532844295271687,31.532844295271687 0 0,0 0.13785937173583998,-0.5234744892337683 l 10.162152805123728 2.76973993612275" fill="#ff890c" stroke="none" /><path d="M 79.73907114497095 94.47779374421319 l -5.041649949530231 -1.3741241129659543 a26.22555751010671,26.22555751010671 0 0,0 0.12211307426300018,-0.4333362212968025 l 5.017318383192649 1.4604682581657698" fill="#ff4106" stroke="none" /><path d="M 79.94057633289273 93.78553927170692 l -10.323406332189013 -3.1982176705704064 a31.807465686636668,31.807465686636668 0 0,0 0.16605812099807385,-0.5201746988852158 l 10.266983495413681 3.374961403147014" fill="#ff8d0d" stroke="none" /><path d="M 80.05021161711548 93.44210830539832 l -18.275527961171193 -6.007529038946956 a40.23760191430681,40.23760191430681 0 0,0 0.2213347439081024,-0.6543368417576687 l 18.169707795690723 6.320367555178787" fill="#fff817" stroke="none" /><path d="M 80.28708602549916 92.7611449362534 l -11.902298322502544 -4.3706888080331066 a33.67941741621092,33.67941741621092 0 0,0 0.2039518324927485,-0.5410064666223665 l 11.825515806195359 4.574363554849618" fill="#ffa50f" stroke="none" /><path d="M 80.41425534168474 92.42381321644754 l -5.156739642253309 -1.994737673008198 a26.529099576070678,26.529099576070678 0 0,0 0.16794350712372746,-0.4233273467705169 l 5.12173746016345 2.0829660369922975" fill="#ff4506" stroke="none" /><path d="M 80.5471966667186 92.08871423366112 l -5.3471623233541035 -2.1746443663818678 a26.77245381380692,26.77245381380692 0 0,0 0.17679273439599089,-0.4242382034152473 l 5.309043744421634 2.266115079238379" fill="#ff4806" stroke="none" /><path d="M 80.68587082218212 91.75594674310238 l -0.8909788399506494 -0.38030588589818465 a21.96874963746502,21.96874963746502 0 0,0 0.1510258620048458,-0.3455767278501129 l 0.8843190959288263 0.3955446835241644" fill="#ff0400" stroke="none" /><path d="M 80.83023694016515 91.42560881287825 l -1.6746137411800242 -0.7490334262029563 a22.834497821126615,22.834497821126615 0 0,0 0.16312044811440848,-0.3564476176838278 l 1.6615088282105688 0.7776700261014555" fill="#ff1101" stroke="none" /><path d="M 80.9802524753101 91.09779779509293 l -7.383588175963757 -3.4558920855739386 a29.15233490843969,29.15233490843969 0 0,0 0.21603371384060716,-0.45142737370648184 l 7.3231752041632445 3.5821319613455076" fill="#ff6909" stroke="none" /><path d="M 81.1358732173502 90.77261029715801 l -1.9181129503608128 -0.9382451618871622 a23.13528950593275,23.13528950593275 0 0,0 0.17756895097322234,-0.3552568506710447 l 1.9017240861758464 0.9710338687219772" fill="#ff1502" stroke="none" /><path d="M 81.29705330413844 90.45014215332179 l -9.669775843608594 -4.937456445627276 a31.857395683040323,31.857395683040323 0 0,0 0.2528748001826383,-0.48492077214241674 l 9.583592974451015 5.102723460874179" fill="#ff8d0d" stroke="none" /><path d="M 81.46374523516351 90.13048839642627 l -1.885153926945589 -1.0037382843813212 a23.135719052640383,23.135719052640383 0 0,0 0.1896629345192751,-0.34895843733395204 l 1.8676456428109633 1.0359515551898928" fill="#ff1502" stroke="none" /><path d="M 81.63589988554816 89.8137432299009 l -3.2190461458379547 -1.7855506336789577 a24.68109347266074,24.68109347266074 0 0,0 0.20869231978730582,-0.3687393325523082 l 3.1879204610292797 1.8405467363303711" fill="#ff2b04" stroke="none" /><line stroke="#e1ed5e" stroke-width="0.3" x1="26.387840678322718" x2="22.05771365940052" y1="57.49999999999999" y2="54.99999999999999" /><path d="M 25.521815274538284 56.99999999999999 a86.0,86.0 0 0,1 29.574782752854787,-30.34633250058573" fill="none" id="id119" stroke="none" /><text fill="#e1ed5e" style="font-size:6.75px; font-family:Arial;" text-anchor="middle"><textPath startOffset="21.40746469413373" xlink:href="#id119">November</textPath></text><path d="M 81.81346652052679 89.5 l -2.907733516468545 -1.6787807284648122 a24.357561456929623,24.357561456929623 0 0,0 0.21217325464771533,-0.3603165718958423 l 2.8784865516910503 1.7284484686542272" fill="#ff2603" stroke="none" /><path d="M 81.99639281039701 89.18935116829357 l -9.14675931589697 -5.492366161454893 a31.669081124185098,31.669081124185098 0 0,0 0.2838636001825072,-0.46366985772036895 l 9.05112775125907 5.648573135299805" fill="#ff8b0c" stroke="none" /><path d="M 82.18462484594161 88.88188828441811 l -29.75607755835941 -18.569993146397195 a56.07518777022212,56.07518777022212 0 0,0 0.5166455605854401,-0.8122526337870163 l 29.43291430614808 19.07805945486288" fill="#56ff2a" stroke="none" /><path d="M 82.78059297857968 87.97951657250589 l -3.6007795147303545 -2.5136237519116618 a25.39134574815924,25.39134574815924 0 0,0 0.25256517879979284,-0.3552645535857894 l 3.5570992374005894 2.5750655322069713" fill="#ff3505" stroke="none" /><path d="M 82.98947788004972 87.6856937992154 l -8.912396515609064 -6.451887772880219 a32.002620937089574,32.002620937089574 0 0,0 0.325966475546098,-0.442236127752551 l 8.800328020479148 6.603930209901633" fill="#ff8f0d" stroke="none" /><path d="M 83.2033758604659 87.39550010848427 l -3.010904508634978 -2.2594388751683097 a24.764387067072178,24.764387067072178 0 0,0 0.25807795912672976,-0.3378323329106711 l 2.9716745721539417 2.3107921213198654" fill="#ff2c04" stroke="none" /><path d="M 83.42222388311158 87.10902102172516 l -12.313442869336019 -9.57500765238905 a36.59812959427222,36.59812959427222 0 0,0 0.38991572218901044,-0.49264577744412263 l 12.147260716505448 9.784973373747855" fill="#ffcb12" stroke="none" /><path d="M 83.64595745247003 86.82634096563983 l -2.1460066901539396 -1.7286710817450863 a23.75565753007285,23.75565753007285 0 0,0 0.2585443375988544,-0.31538205314934886 l 2.1160155333164554 1.7652554165929282" fill="#ff1e03" stroke="none" /><path d="M 83.8745106332314 86.54754324733833 l -7.576215151166159 -6.320348136532022 a30.866399372806853,30.866399372806853 0 0,0 0.3429189894588776,-0.4039577073250235 l 7.4666015982001674 6.449472626306602" fill="#ff800b" stroke="none" /><path d="M 84.10781606972428 86.27271002978789 l -3.182656852444855 -2.749103186879309 a25.20557641382536,25.20557641382536 0 0,0 0.2856499196684139,-0.32501717255014223 l 3.1349958688178483 2.8033326372407514" fill="#ff3204" stroke="none" /><path d="M 84.34580500576568 86.00192230759919 l -6.475952266802901 -5.790836449678464 a29.687447527832,29.687447527832 0 0,0 0.342963953637548,-0.3769774634893571 l 6.375590612323488 5.901151488725479" fill="#ff700a" stroke="none" /><path d="M 84.83555147118756 85.47280134310135 l -2.4084167166499473 -2.3072087339604233 a24.335218616987824,24.335218616987824 0 0,0 0.2915743905197548,-0.2991810109751032 l 2.36845552497939 2.3482124370032564" fill="#ff2603" stroke="none" /><path d="M 85.08716467003674 85.21462403516908 l -5.0241640552008695 -4.981222740110376 a28.074942009668007,28.074942009668007 0 0,0 0.3422577141122555,-0.33933245208212004 l 4.937914420958638 5.06673520242117" fill="#ff5a08" stroke="none" /><path d="M 85.34317274990677 84.96080404539775 l -26.96931548738016 -27.672893557070445 a59.64107938035368,59.64107938035368 0 0,0 0.7393435207332267,-0.7082743682353757 l 26.490299480781633 28.131780055611387" fill="#33ff2f" stroke="none" /><path d="M 85.86807049272753 84.46653392183569 l -0.6005090462042801 -0.6600646354798672 a21.892354434955273,21.892354434955273 0 0,0 0.28015434675478584,-0.25051574438555735 l 0.5890896726261023 0.6702759097488254" fill="#ff0300" stroke="none" /><path d="M 86.13680546590413 84.22622945171909 l -0.5908503222784603 -0.67227920585521 a21.89502147122953,21.89502147122953 0 0,0 0.2844481499230686,-0.24569953711935152 l 0.5792226925925431 0.6823228754392722" fill="#ff0300" stroke="none" /><path d="M 86.40962598614128 83.9905735841838 l -6.859683846248801 -8.080690322451405 a31.599661247315716,31.599661247315716 0 0,0 0.41655225071649016,-0.34750270274187767 l 6.719957261370403 8.197255209105165" fill="#ff8a0c" stroke="none" /><path d="M 86.68645165197937 83.75963576809568 l -0.555027552998984 -0.6770433684410059 a21.8754674793149,21.8754674793149 0 0,0 0.2924533639493589,-0.23557972831019425 l 0.5433234186943796 0.686471390544599" fill="#ff0300" stroke="none" /><path d="M 86.96720088162412 83.53348406188908 l -1.327170322482523 -1.6768363472228263 a23.138495078377773,23.138495078377773 0 0,0 0.3135707426386976,-0.2438345060915326 l 1.2981896352085809 1.6993719049351637" fill="#ff1502" stroke="none" /><path d="M 87.25179093698888 83.31218511350988 l -13.265361477868003 -17.36478399835331 a42.851900110699106,42.851900110699106 0 0,0 0.5883913007816708,-0.4415398014066162 l 12.96531718817558 17.589942827023926" fill="#e7ff1a" stroke="none" /><path d="M 87.54013794807813 83.09580414077388 l -0.4516260928219375 -0.612717532215495 a21.761175999360105,21.761175999360105 0 0,0 0.3026036489717808,-0.21906170572758976 l 0.44104143347618874 0.6203800093161641" fill="#ff0100" stroke="none" /><path d="M 87.83215693770416 82.88440491214696 l -6.598960836673819 -9.282264827287996 a32.38888600556976,32.38888600556976 0 0,0 0.45591969974570257,-0.31826735893076674 l 6.438646045754351 9.39417700202389" fill="#ff940d" stroke="none" /><path d="M 88.12776184653039 82.6780497279521 l -2.389582845427971 -3.486472785027932 a25.22677165883184,25.22677165883184 0 0,0 0.35930576392791774,-0.2417569532774657 l 2.329380793403064 3.5269794123625076" fill="#ff3304" stroke="none" /><path d="M 88.4268655584334 82.4767994020092 l -6.704540087536254 -10.15152821946007 a33.165705198461566,33.165705198461566 0 0,0 0.4777667780410699,-0.3096826533117672 l 6.529287677238158 10.265124714475744" fill="#ff9f0e" stroke="none" /><path d="M 88.72937992617638 82.28071324371311 l -1.5835730000298494 -2.4896397805309896 a23.95059480159949,23.95059480159949 0 0,0 0.34880719176914743,-0.21768148533231124 l 1.5406016794710033 2.516457062704837" fill="#ff2103" stroke="none" /><path d="M 89.03521579738668 82.08984904055464 l -9.36221754986013 -15.292478769732597 a38.93072849534093,38.93072849534093 0 0,0 0.5729625210126651,-0.3440475313177359 l 9.098322272290032 15.450940301586256" fill="#ffe815" stroke="none" /><line stroke="#e1ed5e" stroke-width="0.3" x1="56.869717070023135" x2="54.33264160355391" y1="26.7553504044142" y2="22.446841604673864" /><path d="M 56.362301976729285 25.89364864446614 a86.0,86.0 0 0,1 42.16139366436587,-11.88097634709845" fill="none" id="id120" stroke="none" /><text fill="#e1ed5e" style="font-size:6.75px; font-family:Arial;" text-anchor="middle"><textPath startOffset="22.145653131862474" xlink:href="#id120">December</textPath></text><path d="M 89.65649057296885 81.72400993836675 l -3.6434883165965415 -6.437694743118516 a28.397223852145565,28.397223852145565 0 0,0 0.4263042790295732,-0.23646379737223908 l 3.5324398494108653 6.499291455923901" fill="#ff5f08" stroke="none" /><path d="M 89.97174638481275 81.54914285379989 l -5.934086372295328 -10.918050554945948 a33.42647210571917,33.42647210571917 0 0,0 0.5065084415637312,-0.26968721593125605 l 5.745789114945035 11.01830823859978" fill="#ffa20f" stroke="none" /><path d="M 90.28995756902619 81.37971332152246 l -2.600378358445481 -4.986568375057828 a26.623862708690396,26.623862708690396 0 0,0 0.40705702707597025,-0.20784621842114076 l 2.5143941096559286 5.030472545151802" fill="#ff4606" stroke="none" /><path d="M 90.61103034731259 81.2157712731953 l -3.0552920635667338 -6.112630786148251 a27.833671394021025,27.833671394021025 0 0,0 0.4292213907791282,-0.20995369078825316 l 2.9499104235255524 6.164178227033718" fill="#ff5708" stroke="none" /><path d="M 90.93487009805054 81.0573650232925 l -2.2774120459164435 -4.758915265855649 a26.275782419175307,26.275782419175307 0 0,0 0.40853997674842696,-0.19121733751099274 l 2.195383355296494 4.797308834937184" fill="#ff4106" stroke="none" /><path d="M 91.26138138417902 80.90454125486306 l -0.37335293743689885 -0.8158435477770543 a21.897214082781925,21.897214082781925 0 0,0 0.3431466509259393,-0.15348513230998118 l 0.3592928836553407 0.822132430996881" fill="#ff0300" stroke="none" /><path d="M 91.5904679813234 80.7573450057729 l -13.083502503585464 -29.937614154208447 a53.671681606669544,53.671681606669544 0 0,0 0.8474117655900923,-0.36170969251203977 l 12.56765566282494 30.15779849637989" fill="#6fff28" stroke="none" /><path d="M 91.92203290615298 80.6158196554323 l -0.3782891787892691 -0.9077563177541297 a21.983424748118328,21.983424748118328 0 0,0 0.3495841248757034,-0.14217282022974534 l 0.36265059272312483 0.9141163945631663" fill="#ff0400" stroke="none" /><path d="M 92.25597844496254 80.48000691201159 l -0.3509241975166514 -0.8845582183945471 a21.951625469463718,21.951625469463718 0 0,0 0.35146406505653344,-0.1359538506719185 l 0.3356878699665886 0.8904519572045062" fill="#ff0400" stroke="none" /><path d="M 92.93061703081487 80.22567764915836 l -0.33029342290449326 -0.9238894884243578 a21.981155202827253,21.981155202827253 0 0,0 0.3564026890640763,-0.12397535600838311 l 0.3143849617954127 0.9294232770013267" fill="#ff0400" stroke="none" /><path d="M 93.27111125876988 80.10723608172694 l -3.1498789298476297 -9.312057359287895 a30.83036873852481,30.83036873852481 0 0,0 0.5027952515657156,-0.16527878597232507 l 2.9895609406341532 9.364757066662248" fill="#ff800b" stroke="none" /><path d="M 93.61358852112211 79.99465700312896 l -3.3994885151584016 -10.648849355321651 a32.17830554051142,32.17830554051142 0 0,0 0.5276619491044895,-0.16347102065058067 l 3.2161859331822957 10.705636963778874" fill="#ff920d" stroke="none" /><path d="M 93.95794788825049 79.88797359093562 l -5.181709545472794 -17.24822581718415 a39.00975867840049,39.00975867840049 0 0,0 0.6429922564732081,-0.18716567478980092 l 4.884857276617961 17.33463518627647" fill="#ffe915" stroke="none" /><path d="M 94.30408787586887 79.78721728523814 l -2.0051120198528736 -7.115435191554294 a28.392556538665616,28.392556538665616 0 0,0 0.47025996376960155,-0.128171444278575 l 1.8826706551485943 7.148807129977008" fill="#ff5f08" stroke="none" /><path d="M 94.6519064749342 79.69241777938228 l -1.961216563284319 -7.447058736850261 a28.700977485890903,28.700977485890903 0 0,0 0.4775223625156132,-0.12138431721479698 l 1.8330889075433279 7.479628285900321" fill="#ff6309" stroke="none" /><path d="M 95.00130118170881 79.60360301121753 l -1.926331529627582 -7.860090003126886 a29.092698438672514,29.092698438672514 0 0,0 0.48608059252721075,-0.11471369630758692 l 1.7911187833604654 7.891999843080705" fill="#ff6809" stroke="none" /><path d="M 95.35216902796891 79.52079915486377 l -0.5979860330803144 -2.634836797579676 a23.70184237986583,23.70184237986583 0 0,0 0.39755617531230975,-0.08664551804984949 l 0.5526674411488862 2.6447137737632396" fill="#ff1d02" stroke="none" /><path d="M 95.70440661134978 79.44403061299748 l -1.847185441819379 -8.839451027762959 a30.03039249029017,30.03039249029017 0 0,0 0.5055166326762732,-0.10111748435425484 l 1.695172323612129 8.869857908780078" fill="#ff750a" stroke="none" /><path d="M 96.05791012581881 79.37332000966035 l -3.4007945588962403 -17.79439417114033 a39.11645295166058,39.11645295166058 0 0,0 0.6606308194589983,-0.12038894207589598 l 3.0948290058862034 17.850151287147586" fill="#ffea16" stroke="none" /><path d="M 96.76829788921471 79.25015418208739 l -0.14874118883592374 -0.9550251320560186 a21.966538640776943,21.966538640776943 0 0,0 0.3730910880887536,-0.0548315418518144 l 0.13232499513948529 0.9574377472067177" fill="#ff0400" stroke="none" /><path d="M 97.12497278360702 79.19773525538626 l -1.1071968862127917 -8.011125119123818 a29.087274610095537,29.087274610095537 0 0,0 0.49520694161247436,-0.06411445298010043 l 0.9695121227095232 8.028951168304314" fill="#ff6809" stroke="none" /><path d="M 97.48249496171623 79.15144685158666 l -1.735025041992664 -14.368496289672446 a35.47287108775147,35.47287108775147 0 0,0 0.6051741037087788,-0.06781102059295449 l 1.488115036683086 14.39616307077237" fill="#ffbc11" stroke="none" /><path d="M 97.84075906011542 79.11130261209362 l -0.2548099247779586 -2.4650548772970597 a23.478189590376687,23.478189590376687 0 0,0 0.4012539283293131,-0.03799916419492256 l 0.21245643306362996 2.4690657969971657" fill="#ff1a02" stroke="none" /><path d="M 98.1996594967304 79.07731436759882 l -0.08309536139816376 -0.9656940567004515 a21.969262529056223,21.969262529056223 0 0,0 0.3760206721364682,-0.029106378144297104 l 0.06650569448647835 0.9669782018398022" fill="#ff0400" stroke="none" /><path d="M 98.5590905019552 79.04949213459386 l -0.649221459693574 -9.439537539419906 a30.461836896810485,30.461836896810485 0 0,0 0.5219935262731594,-0.031401834316319314 l 0.4870835812879309 9.44929135156092" fill="#ff7b0b" stroke="none" /><path d="M 98.9189461498227 79.02784411241856 l -0.2580089956603266 -5.0053055881529716 a26.011950984660267,26.011950984660267 0 0,0 0.44613498386613143,-0.019158955807901584 l 0.17204825119337502 5.008997112386702" fill="#ff3e05" stroke="none" /><path d="M 99.27912038922189 79.0123766808444 l -0.15339477661224216 -4.46592155268307 a25.468555166070022,25.468555166070022 0 0,0 0.43707277103363856,-0.011257444177972902 l 0.0767086915078597 4.467896714211088" fill="#ff3605" stroke="none" /><path d="M 99.63950707515114 79.00309439819443 l -0.030219349168306275 -1.7601255894299686 a22.76038498619772,22.76038498619772 0 0,0 0.390712274017158,-0.0033537949621873183 l 4.311699677228193e-16 1.760384986197721" fill="#ff1001" stroke="none" /></svg>