<?xml version="1.0" encoding="utf-8" ?>
<svg baseProfile="full" height="200mm" version="1.1" viewBox="0,0,200,200" width="200mm" xmlns="http://www.w3.org/2000/svg" xmlns:ev="http://www.w3.org/2001/xml-events" xmlns:xlink="http://www.w3.org/1999/xlink"><defs /><rect fill="#1a1a1a" height="200" width="200" x="0" y="0" /><text alignment-baseline="middle" fill="#e1ed5e" style="dominant-baseline: central; font-size:9.0px; font-family:Arial;" text-anchor="middle" x="100.0" y="100.0">2020</text><line stroke="#e1ed5e" stroke-width="0.3" x1="100.0" x2="100.0" y1="15.0" y2="10.0" /><path d="M 100.0 14.0 a86.0,86.0 0 0,1 42.35913384403234,11.155469271406648" fill="none" id="id61" stroke="none" /><text fill="#e1ed5e" style="font-size:6.75px; font-family:Arial;" text-anchor="middle"><textPath startOffset="22.145653131862478" xlink:href="#id61">January</textPath></text><path d="M 100.36049292484886 79.00309439819443 l 0.03392874586812751 -1.9761793507581709 a22.976470588235294,22.976470588235294 0 0,0 0.39430543284024766,0.010155909252303594 l -0.06784749277911656 1.9753057241558223" fill="#ff0701" stroke="none" /><path d="M 105.69591212413111 79.78721728523813 l 0.8473224343409783 -3.0068483995949804 a24.123954642097804,24.123954642097804 0 0,0 0.3976316838629747,0.11574478802625933 l -0.8988141305855575 2.991859917266205" fill="#ff1802" stroke="none" /><path d="M 106.04205211174951 79.88797359093562 l 1.8181823718276686 -6.052137784045881 a27.319347980155918,27.319347980155918 0 0,0 0.44798444670505716,0.1387867267343156 l -1.921807451404356 6.020034469504918" fill="#ff4606" stroke="none" /><path d="M 106.38641147887787 79.99465700312896 l 2.338214153074635 -7.324422531668017 a28.68858965272856,28.68858965272856 0 0,0 0.4678661735720849,0.15379690425617523 l -2.463603064294462 7.283204706009821" fill="#ff5908" stroke="none" /><path d="M 107.06938296918511 80.22567764915836 l 2.512110999822407 -7.026821563934797 a28.462367115520905,28.462367115520905 0 0,0 0.4586654191188178,0.16842829507846935 l -2.6323655705953493 6.982662419847605" fill="#ff5607" stroke="none" /><path d="M 107.40779381753099 80.34994680014964 l 1.0746813568026887 -2.850719978745124 a24.04656272147413,24.04656272147413 0 0,0 0.3850057799356557,0.1489285065452669 l -1.1234593992318702 2.831851584061819" fill="#ff1702" stroke="none" /><path d="M 107.74402155503746 80.48000691201159 l 0.8819732557721626 -2.2231487521188793 a23.391708008504608,23.391708008504608 0 0,0 0.3719788825988561,0.15128057323481517 l -0.9200065995614584 2.20768092230477" fill="#ff0d01" stroke="none" /><path d="M 108.07796709384702 80.6158196554323 l 1.1684713563814166 -2.803905888253912 a24.037632884479095,24.037632884479095 0 0,0 0.3795255209725291,0.16199687692069492 l -1.2164319525243756 2.7834343616738155" fill="#ff1702" stroke="none" /><path d="M 108.4095320186766 80.7573450057729 l 1.8058739912537263 -4.132193099398164 a25.509567682494684,25.509567682494684 0 0,0 0.39975508682172034,0.17880536565592672 l -1.8765424809310782 4.100583982832385" fill="#ff2c04" stroke="none" /><path d="M 109.06512990194946 81.05736502329252 l 1.4391134642357755 -3.0071936461959448 a24.33380581148122,24.33380581148122 0 0,0 0.3752501718331115,0.18355366306948506 l -1.4905238853309541 2.9820462330292385" fill="#ff1b02" stroke="none" /><path d="M 110.02825361518725 81.54914285379988 l 0.9523642696209013 -1.7522429890792453 a22.994330262225372,22.994330262225372 0 0,0 0.3451950597440291,0.19147388069155874 l -0.9823035175210306 1.7356361929545405" fill="#ff0701" stroke="none" /><line stroke="#e1ed5e" stroke-width="0.3" x1="143.13028292997686" x2="145.6673583964461" y1="26.7553504044142" y2="22.446841604673864" /><path d="M 143.63769802327073 25.89364864446614 a86.0,86.0 0 0,1 29.32050498858742,28.57503671076993" fill="none" id="id62" stroke="none" /><text fill="#e1ed5e" style="font-size:6.75px; font-family:Arial;" text-anchor="middle"><textPath startOffset="20.669276256404974" xlink:href="#id62">February</textPath></text><path d="M 110.65571695917076 81.90426304109057 l 1.6312082658971525 -2.7701482516828033 a24.21474131821403,24.21474131821403 0 0,0 0.3563801595188196,0.21399604615737522 l -1.6785211819734063 2.741738204989507" fill="#ff1902" stroke="none" /><path d="M 113.31354834802062 83.75963576809568 l 1.2753832056025867 -1.555760136426678 a23.01171367824238,23.01171367824238 0 0,0 0.3033444267169204,0.2530607095856495 l -1.3019019664813998 1.5336372429291583" fill="#ff0801" stroke="none" /><path d="M 115.41159269507618 85.73525988315684 l 5.996431176184849 -5.550207175157259 a29.170800850460665,29.170800850460665 0 0,0 0.3369953978383558,0.37041697512896055 l -6.090824274865082 5.446452624470626" fill="#ff6008" stroke="none" /><path d="M 115.6541949942343 86.00192230759917 l 4.892629335547362 -4.375019321296077 a27.56343019135365,27.56343019135365 0 0,0 0.31237102023294894,0.3554208798678075 l -4.967011419738901 4.290386163616971" fill="#ff4906" stroke="none" /><path d="M 116.1254893667686 86.54754324733833 l 7.165614339449974 -5.977810335874467 a30.331679659815734,30.331679659815734 0 0,0 0.33011437448028136,0.4026858610194662 l -7.267175533168882 5.853922193156505" fill="#ff700a" stroke="none" /><line stroke="#e1ed5e" stroke-width="0.3" x1="172.87174338648825" x2="177.1583165268699" y1="56.24261187166439" y2="53.66864786411523" /><path d="M 173.72905801456457 55.72781907015455 a86.0,86.0 0 0,1 12.242430191666344,42.057860355516425" fill="none" id="id63" stroke="none" /><text fill="#e1ed5e" style="font-size:6.75px; font-family:Arial;" text-anchor="middle"><textPath startOffset="22.145653131862474" xlink:href="#id63">March</textPath></text><path d="M 118.70294669586156 90.45014215332178 l 4.281397436402043 -2.1861120371914007 a25.80722891566265,25.80722891566265 0 0,0 0.19807673316147986,0.3962861526662344 l -4.318294082775259 2.1122940283614158" fill="#ff3004" stroke="none" /><path d="M 119.31412917781788 91.75594674310238 l 4.065412023963083 -1.735282648687874 a25.420269312544296,25.420269312544296 0 0,0 0.167863541836773,0.40281139183153614 l -4.09460141033634 1.66523874741506" fill="#ff2b04" stroke="none" /><path d="M 119.94978838288452 93.4421083053983 l 1.6683735146565355 -0.5484275123763279 a22.756201275690998,22.756201275690998 0 0,0 0.11880393308049168,0.3721516282678024 l -1.6775421635142844 0.5197068504171385" fill="#ff0400" stroke="none" /><path d="M 120.05942366710727 93.78553927170692 l 4.648782097196367 -1.4402045770034269 a25.866761162296243,25.866761162296243 0 0,0 0.12776169796860076,0.4252771402971811 l -4.672820115168595 1.3601898331155222" fill="#ff3104" stroke="none" /><path d="M 120.7213421655516 96.59031103205396 l 3.304253711728642 -0.543713690848944 a24.34868887313962,24.34868887313962 0 0,0 0.06432518700340052,0.4130138443374643 l -3.3131003908703076 0.48691166458003854" fill="#ff1b02" stroke="none" /><path d="M 120.77682067341334 96.94652285012252 l 6.523126547357982 -0.9586749662620312 a27.593196314670447,27.593196314670447 0 0,0 0.06485121637607084,0.46923109609995833 l -6.538622280289265 0.8465555619619871" fill="#ff4a06" stroke="none" /><path d="M 120.86939407059847 97.66154086499901 l 1.4790498986958522 -0.16573062615173526 a22.48830616583983,22.48830616583983 0 0,0 0.03969465270035619,0.3840097567898587 l -1.4816769438778745 0.14031634707894514" fill="#ff0000" stroke="none" /><path d="M 120.93736805541906 98.37931529534042 l 4.718698115962623 -0.3652570773081116 a25.73281360737066,25.73281360737066 0 0,0 0.03031085127257317,0.44071312518579464 l -4.7242729284002625 0.2842005279679828" fill="#ff2f04" stroke="none" /><line stroke="#e1ed5e" stroke-width="0.3" x1="184.99686870605535" x2="189.99668451229388" y1="99.2704041080226" y2="99.22748670261217" /><path d="M 185.99683186730306 99.26182062694052 a86.0,86.0 0 0,1 -10.086455211305974,41.156179273409016" fill="none" id="id64" stroke="none" /><text fill="#e1ed5e" style="font-size:6.75px; font-family:Arial;" text-anchor="middle"><textPath startOffset="21.40746469413373" xlink:href="#id64">April</textPath></text><path d="M 120.99922638620191 99.81974689727618 l 4.747521769807518 -0.04075176454209864 a25.747696669029057,25.747696669029057 0 0,0 0.0,0.44200973453185044 l -4.747521769807518 -0.040751764542098064" fill="#ff2f04" stroke="none" /><path d="M 120.99922638620191 100.18025310272382 l 7.783554500342733 0.06681245409253067 a28.78384124734231,28.78384124734231 0 0,0 -0.008482417638678519,0.4940583022791046 l -7.781260651105386 -0.20041767234070632" fill="#ff5a08" stroke="none" /><path d="M 120.98066250479742 100.90099992219065 l 9.843514229749038 0.42272285506038715 a30.852586817859674,30.852586817859674 0 0,0 -0.027265474880598762,0.5289429286534638 l -9.834807165411867 -0.5916375770905815" fill="#ff770a" stroke="none" /><path d="M 120.96210409425399 101.26102812881392 l 11.320427583147799 0.6810088123006393 a32.340892983699504,32.340892983699504 0 0,0 -0.03809455165720156,0.5538864204908658 l -11.30706907032553 -0.8752386569458485" fill="#ff8b0c" stroke="none" /><path d="M 120.93736805541906 101.62068470465957 l 8.962558685664858 0.6937587254531398 a29.989369241672573,29.989369241672573 0 0,0 -0.04413632194475712,0.5129309635280301 l -8.94932874102236 -0.8475107363568273" fill="#ff6b09" stroke="none" /><path d="M 120.86939407059847 102.33845913500097 l 13.370611084210498 1.4982048604116844 a34.45428773919206,34.45428773919206 0 0,0 -0.0709067826427205,0.587209878045577 l -13.342922215308114 -1.72750841538067" fill="#ffa70f" stroke="none" /><path d="M 120.82617615685814 102.69636545807757 l 14.833669055735243 1.9205154396654578 a35.957476966690294,35.957476966690294 0 0,0 -0.08450945995932825,0.6114683539252974 l -14.798515079220703 -2.1748721017908403" fill="#ffba11" stroke="none" /><path d="M 120.77682067341334 103.0534771498775 l 6.523126547357981 0.9586749662620319 a27.593196314670447,27.593196314670447 0 0,0 -0.07289663612732247,0.4680486964557694 l -6.50570841909239 -1.0705118446492519" fill="#ff4a06" stroke="none" /><path d="M 120.65975698304385 103.76489593502545 l 14.846912530692034 2.705602039770238 a36.09142452161588,36.09142452161588 0 0,0 -0.11630669115220683,0.608565754637996 l -14.798279547257668 -2.9600703594415485" fill="#ffbc11" stroke="none" /><path d="M 120.51834098615036 104.47187691870673 l 9.466647754772424 2.0632118172062923 a30.688873139617293,30.688873139617293 0 0,0 -0.1166018451226766,0.5137692440947889 l -9.429835048092082 -2.225415395240098" fill="#ff740a" stroke="none" /><path d="M 120.43855184770803 104.8234425847677 l 3.650258728293711 0.8614511207381028 a24.750531537916373,24.750531537916373 0 0,0 -0.10113830149071579,0.4126787836121406 l -3.6349329002866995 -0.9239857289583431" fill="#ff2103" stroke="none" /><path d="M 120.35273937422433 105.17358676015961 l 6.793862682678706 1.7269733267435683 a28.009922041105597,28.009922041105597 0 0,0 -0.12245740405775876,0.4649907092632064 l -6.763215797816217 -1.843344540379578" fill="#ff4f07" stroke="none" /><path d="M 120.26092885502905 105.52220625578681 l 10.16636260053903 2.7708873345833154 a31.537207654145995,31.537207654145995 0 0,0 -0.14684551048473818,0.5211029122959071 l -10.117298597979712 -2.944998170782231" fill="#ff800b" stroke="none" /><path d="M 120.16314734710363 105.8691983318838 l 9.002680955829403 2.6205492197638494 a30.376328844790926,30.376328844790926 0 0,0 -0.15003545774102894,0.49941924243184505 l -8.956369178084746 -2.7747060657864178" fill="#ff700a" stroke="none" /><path d="M 119.94978838288452 106.5578916946017 l 12.003806050367796 3.9458894746398547 a33.63571934798016,33.63571934798016 0 0,0 -0.18501980669486545,0.5469781826282051 l -11.934300822100566 -4.15136933174222" fill="#ff9c0e" stroke="none" /><path d="M 119.71291397450082 107.23885506374661 l 8.592092200083636 3.1551352687485217 a30.153082919914954,30.153082919914954 0 0,0 -0.18259747313390737,0.48436149137252593 l -8.53666404313529 -3.3021650403152063" fill="#ff6d0a" stroke="none" /><path d="M 119.31412917781788 108.2440532568976 l 5.7353792526617235 2.4480923562296937 a27.236002834868888,27.236002834868888 0 0,0 -0.18723599993547332,0.42843260971665786 l -5.692509370709285 -2.546187035722196" fill="#ff4406" stroke="none" /><path d="M 119.0197475246899 108.90220220490707 l 9.368337724776385 4.384855090297956 a31.343727852586817,31.343727852586817 0 0,0 -0.23227305651057786,0.485361354111192 l -9.291685410305895 -4.545028946474251" fill="#ff7d0b" stroke="none" /><path d="M 118.8641267826498 109.22738970284198 l 7.125853703155459 3.4856121272960814 a28.932671863926295,28.932671863926295 0 0,0 -0.22206526485924336,0.4442792853420824 l -7.064968525084484 -3.6074232688019094" fill="#ff5c08" stroke="none" /><path d="M 118.70294669586154 109.54985784667822 l 8.483264270270299 4.331615182051073 a30.525159461374912,30.525159461374912 0 0,0 -0.24229989406972297,0.46464199531726763 l -8.407656307225626 -4.476603420472843" fill="#ff720a" stroke="none" /><line stroke="#e1ed5e" stroke-width="0.3" x1="174.33088141563837" x2="178.70328620479359" y1="141.23008692659167" y2="143.65538615756765" /><path d="M 175.20536237346943 141.71514677278685 a86.0,86.0 0 0,1 -30.301960400862466,31.631185727798858" fill="none" id="id65" stroke="none" /><text fill="#e1ed5e" style="font-size:6.75px; font-family:Arial;" text-anchor="middle"><textPath startOffset="22.145653131862474" xlink:href="#id65">May</textPath></text><path d="M 118.36410011445183 110.18625677009912 l 5.518340502145699 3.0609304539489917 a27.31041814316088,27.31041814316088 0 0,0 -0.23092471664477024,0.40802184753232446 l -5.46498242047955 -3.155209071580439" fill="#ff4606" stroke="none" /><path d="M 118.00360718960297 110.81064883170644 l 5.269659652236732 3.164279211548378 a27.146704464918496,27.146704464918496 0 0,0 -0.24332759236948395,0.39745733535705735 l -5.214564095411843 -3.254273663029992" fill="#ff4306" stroke="none" /><path d="M 117.81537515405839 111.11811171558189 l 4.393869988385768 2.7420998419720046 a26.17930545712261,26.17930545712261 0 0,0 -0.24120154530833424,0.37920889173651035 l -4.346150751451544 -2.8171224083871866" fill="#ff3505" stroke="none" /><path d="M 117.423217284605 111.72311816256416 l 4.21891290597256 2.838672887239064 a26.085006378454995,26.085006378454995 0 0,0 -0.25316152453176,0.36937023011566006 l -4.169561644625479 -2.910677852424768" fill="#ff3405" stroke="none" /><path d="M 114.13192950727249 115.5334660781643 l 2.2935590766586818 2.5210231976609663 a24.40822111977321,24.40822111977321 0 0,0 -0.31234964990053876,0.2793049829845821 l -2.249944399934765 -2.5600237105289354" fill="#ff1c02" stroke="none" /><path d="M 113.31354834802062 116.24036423190432 l 2.1607388885164576 2.6357501127612255 a24.40822111977321,24.40822111977321 0 0,0 -0.32631377506547543,0.26285527865259967 l -2.1151743430957293 -2.6724536852072287" fill="#ff1c02" stroke="none" /><line stroke="#e1ed5e" stroke-width="0.3" x1="143.1302829299769" x2="145.66735839644613" y1="173.24464959558577" y2="177.55315839532614" /><path d="M 143.63769802327073 174.10635135553383 a86.0,86.0 0 0,1 -40.68552437913181,11.842963189579606" fill="none" id="id66" stroke="none" /><text fill="#e1ed5e" style="font-size:6.75px; font-family:Arial;" text-anchor="middle"><textPath startOffset="21.407464694133747" xlink:href="#id66">June</textPath></text><path d="M 110.02825361518725 118.45085714620011 l 2.203230773003579 4.053696467272881 a25.613749114103474,25.613749114103474 0 0,0 -0.3881229256069037,0.20665359677495368 l -2.1333190316101214 -4.090920531770403" fill="#ff2d04" stroke="none" /><path d="M 109.3889696526874 118.78422872680471 l 1.5237945077713761 3.0486097650164963 a24.40822111977321,24.40822111977321 0 0,0 -0.37639772587541187,0.18411498925623918 l -1.471236532633895 -3.074318504369959" fill="#ff1c02" stroke="none" /><path d="M 109.06512990194946 118.94263497670748 l 4.3263348518588 9.040375898876553 a31.022253720765413,31.022253720765413 0 0,0 -0.4823388552843603,0.22575893898963842 l -4.170507282702933 -9.113311069436726" fill="#ff790b" stroke="none" /><path d="M 108.73861861582097 119.09545874513695 l 3.216133697516533 7.02783254879491 a28.728773919206237,28.728773919206237 0 0,0 -0.4502025928191235,0.2013698934221942 l -3.0950177018417824 -7.082006193126955" fill="#ff5908" stroke="none" /><path d="M 106.0420521117495 120.11202640906438 l 2.8390365344365134 9.450229276548328 a30.867469879518072,30.867469879518072 0 0,0 -0.508784078186072,0.14809963006135868 l -2.6763924438688345 -9.497572600912203" fill="#ff770a" stroke="none" /><path d="M 104.64783097203109 120.47920084513623 l 3.3266084327811405 14.657650555282128 a36.030403968816444,36.030403968816444 0 0,0 -0.6043458296291524,0.13171436073995765 l -3.0745001865328523 -14.712596374155805" fill="#ffbb11" stroke="none" /><path d="M 103.58742460773223 120.69131181640829 l 1.935073613710137 11.160990378078209 a32.32749822820695,32.32749822820695 0 0,0 -0.5476008757040551,0.09010751571052707 l -1.7431952349530095 -11.192563892284406" fill="#ff8b0c" stroke="none" /><path d="M 103.2317021107853 120.74984581791261 l 0.715967455585745 4.597024665258316 a25.652445074415308,25.652445074415308 0 0,0 -0.435694435134368,0.06403207800286766 l -0.6369479148436915 -4.608637816560066" fill="#ff2e04" stroke="none" /><path d="M 101.80034050326958 120.92268563240118 l 0.4395586841788592 5.108338200114958 a26.127214741318213,26.127214741318213 0 0,0 -0.44718719324739437,0.03461511696682021 l -0.35180249615622894 -5.1151310840768325" fill="#ff3505" stroke="none" /><path d="M 101.44090949804482 120.95050786540614 l 0.43788943498342825 6.366816281138306 a27.38185683912119,27.38185683912119 0 0,0 -0.4692150396503832,0.028226811621638648 l -0.32853004320057994 -6.373395070584637" fill="#ff4706" stroke="none" /><line stroke="#e1ed5e" stroke-width="0.3" x1="101.45913802915013" x2="101.54496967792366" y1="184.9874750549273" y2="189.98673829345242" /><path d="M 101.47630435890484 185.9873277026323 a86.0,86.0 0 0,1 -42.54439059252881,-10.42667462771756" fill="none" id="id67" stroke="none" /><text fill="#e1ed5e" style="font-size:6.75px; font-family:Arial;" text-anchor="middle"><textPath startOffset="22.145653131862474" xlink:href="#id67">July</textPath></text><path d="M 100.36049292484886 120.99690560180557 l 0.20025113713432485 11.663624812682638 a32.66534372785259,32.66534372785259 0 0,0 -0.5607440619831757,0.004813313364383942 l -1.4285925857268323e-15 -11.665343727852587" fill="#ff8f0d" stroke="none" /><path d="M 99.63950707515114 120.99690560180557 l -0.08898631164057713 5.1830065351586665 a26.183770375620128,26.183770375620128 0 0,0 -0.44934677289535097,-0.011573578927045748 l 0.17794639860667202 -5.180715238881573" fill="#ff3605" stroke="none" /><path d="M 97.84075906011543 120.88869738790638 l -0.6730220874282308 6.510878179448066 a27.545570517363572,27.545570517363572 0 0,0 -0.46993280887118405,-0.05265695142005552 l 0.7846907979002141 -6.49836546752104" fill="#ff4906" stroke="none" /><path d="M 97.48249496171623 120.84855314841334 l -0.7820144991352063 6.4762018745213075 a27.523245924875972,27.523245924875972 0 0,0 -0.46857956341414214,-0.06066700577363981 l 0.8930718844401424 -6.46182327254727" fill="#ff4906" stroke="none" /><path d="M 97.12497278360702 120.80226474461374 l -0.7047993721830833 5.099577161702263 a26.148051027639973,26.148051027639973 0 0,0 -0.4441120637546835,-0.06526917953309248 l 0.7922365415454518 -5.086726908870288" fill="#ff3505" stroke="none" /><path d="M 96.76829788921471 120.74984581791261 l -1.2397734603600836 7.96023496898377 a29.056201275691,29.056201275691 0 0,0 -0.49218783188483634,-0.08098932043721237 l 1.3762387952979833 -7.93777965005089" fill="#ff5e08" stroke="none" /><path d="M 96.41257539226777 120.69131181640829 l -1.4555638468651313 8.395305467678062 a29.520552799433027,29.520552799433027 0 0,0 -0.4985673678252857,-0.09085558257061349 l 1.5994659482414741 -8.369081711176083" fill="#ff6409" stroke="none" /><path d="M 96.05791012581884 120.62667999033965 l -1.8159875394881366 9.502014169894242 a30.673990077958894,30.673990077958894 0 0,0 -0.5163506331117614,-0.1032845878652321 l 1.978834658130856 -9.469440185366148" fill="#ff740a" stroke="none" /><path d="M 95.70440661134978 120.55596938700252 l -2.0245000733184915 9.687965728105368 a30.89723600283487,30.89723600283487 0 0,0 -0.5182460829898461,-0.1129493216969524 l 2.190508572927474 -9.651784948274697" fill="#ff770b" stroke="none" /><path d="M 94.6519064749342 120.30758222061772 l -1.2314639165796462 4.676069074045852 a25.835506732813606,25.835506732813606 0 0,0 -0.42790808371188,-0.11662825103839812 l 1.3115534012262213 -4.65424032886331" fill="#ff3104" stroke="none" /><path d="M 93.95794788825049 120.11202640906438 l -2.5949564703899366 8.637766126075844 a30.019135364989367,30.019135364989367 0 0,0 -0.4922557360013571,-0.15250208532529336 l 2.7428528392629272 -8.5919474529439" fill="#ff6b09" stroke="none" /><path d="M 93.61358852112213 120.00534299687104 l -2.473998947097552 7.749766464982074 a29.13508150248051,29.13508150248051 0 0,0 -0.47514775958949484,-0.15619050621077435 l 2.6066694443347904 -7.706155037369279" fill="#ff5f08" stroke="none" /><path d="M 93.27111125876986 119.89276391827306 l -4.802261490020368 14.197032789299053 a35.987243090007084,35.987243090007084 0 0,0 -0.5834975501028612,-0.20297073710074293 l 5.045264812168251 -14.11250361962972" fill="#ffbb11" stroke="none" /><path d="M 92.93061703081489 119.77432235084164 l -1.117273141125641 3.1252118244065827 a24.31892274982282,24.31892274982282 0 0,0 -0.3918946323154995,-0.14390913729252464 l 1.1707569250952594 -3.1055718381053383" fill="#ff1b02" stroke="none" /><path d="M 91.92203290615298 119.3841803445677 l -8.503906676966947 20.406280286194797 a43.10729978738483,43.10729978738483 0 0,0 -0.6806127911242829,-0.290513128792702 l 8.852954543261662 -20.25729250774269" fill="#eaff1a" stroke="none" /><path d="M 91.26138138417905 119.09545874513695 l -2.0065998805995675 4.3847828727316625 a25.82211197732105,25.82211197732105 0 0,0 -0.4014862377271191,-0.18791583148485927 l 2.081574832198177 -4.349690809676277" fill="#ff3004" stroke="none" /><path d="M 90.93487009805054 118.94263497670748 l -2.82683001903456 5.90698751931346 a27.54854712969525,27.54854712969525 0 0,0 -0.42482450646060205,-0.20780295433738033 l 2.9278147747572314 -5.857590814878859" fill="#ff4906" stroke="none" /><path d="M 90.6110303473126 118.78422872680471 l -3.4954115935908487 6.993164670581509 a28.818072289156625,28.818072289156625 0 0,0 -0.4406046921303972,-0.22497589523450542 l 3.614943507434828 -6.932130823674167" fill="#ff5b08" stroke="none" /><path d="M 90.28995756902619 118.62028667847754 l -1.401108886567164 2.686811033124045 a24.030191353649894,24.030191353649894 0 0,0 -0.36412741178668834,-0.19387733721837944 l 1.447025114140414 -2.6623632281830925" fill="#ff1702" stroke="none" /><path d="M 89.97174638481275 118.45085714620012 l -3.5820268051413002 6.5905258693726845 a28.501063075832743,28.501063075832743 0 0,0 -0.4278631323040847,-0.23732846700603888 l 3.6946341256014876 -6.528064486933498" fill="#ff5608" stroke="none" /><line stroke="#e1ed5e" stroke-width="0.3" x1="58.13341422392154" x2="55.67067388415222" y1="173.97424548756322" y2="178.32567169271397" /><path d="M 57.64086615596768 174.84453072859336 a86.0,86.0 0 0,1 -31.369924170532247,-30.572349798747897" fill="none" id="id68" stroke="none" /><text fill="#e1ed5e" style="font-size:6.75px; font-family:Arial;" text-anchor="middle"><textPath startOffset="22.145653131862474" xlink:href="#id68">August</textPath></text><path d="M 89.65649057296885 118.27599006163327 l -4.75024387577334 8.393225768914496 a30.644223954642097,30.644223954642097 0 0,0 -0.4555884540577158,-0.26303411658990966 l 4.893624797691456 -8.310444755048414" fill="#ff740a" stroke="none" /><path d="M 89.34428304082925 118.09573695890944 l -4.893624797691456 8.310444755048414 a30.644223954642097,30.644223954642097 0 0,0 -0.45100599167133754,-0.27081613954397116 l 5.035563545920221 -8.225214614968525" fill="#ff740a" stroke="none" /><path d="M 88.4268655584334 117.5232005979908 l -5.46258507305695 8.27105003420402 a30.912119064493268,30.912119064493268 0 0,0 -0.4402823597608216,-0.2962416208244928 l 5.603763720914777 -8.176058739322405" fill="#ff770b" stroke="none" /><path d="M 88.1277618465304 117.32195027204791 l -4.48890081848053 6.549440446589343 a28.940113394755492,28.940113394755492 0 0,0 -0.40737331340369465,-0.28437821096167726 l 4.60066922305799 -6.471417419822537" fill="#ff5c08" stroke="none" /><path d="M 87.83215693770417 117.11559508785305 l -6.070986191251779 8.539602368425614 a31.4776754075124,31.4776754075124 0 0,0 -0.43771804610849574,-0.31687410952938816 l 6.216685247734229 -8.43412748752316" fill="#ff7f0b" stroke="none" /><path d="M 87.54013794807813 116.9041958592261 l -8.892332449528933 12.064156789681567 a35.987243090007084,35.987243090007084 0 0,0 -0.4941339991592962,-0.37080736504295675 l 9.098119437598996 -11.909730397374595" fill="#ffbb11" stroke="none" /><path d="M 86.96720088162412 116.46651593811092 l -3.629971689242892 4.586350647539044 a26.84904323175053,26.84904323175053 0 0,0 -0.35894515257201104,-0.2891408065178507 l 3.7081676121701648 -4.523361547227783" fill="#ff3f05" stroke="none" /><path d="M 86.68645165197938 116.24036423190432 l -3.045792634118394 3.7153717746695363 a25.80425230333097,25.80425230333097 0 0,0 -0.3401561583487671,-0.28377036536754036 l 3.1091231266290538 -3.662539225390126" fill="#ff3004" stroke="none" /><path d="M 86.40962598614128 116.0094264158162 l -5.201135341944515 6.126924354741848 a29.03685329553508,29.03685329553508 0 0,0 -0.37723092486368187,-0.32584308827875746 l 5.30554574657106 -6.036737133998368" fill="#ff5e08" stroke="none" /><path d="M 86.13680546590413 115.77377054828092 l -20.465651463162068 23.286154537256667 a52.00141743444365,52.00141743444365 0 0,0 -0.6654571199710432,-0.5950558600903346 l 20.86237360995648 -22.93140314728295" fill="#85ff25" stroke="none" /><path d="M 85.60350026404147 115.28858382429668 l -5.183148026836944 5.50432358805295 a28.560595322466334,28.560595322466334 0 0,0 -0.3540527991668757,-0.3391745726035345 l 5.276873311869134 -5.414536885143833" fill="#ff5708" stroke="none" /><path d="M 85.08716467003676 114.78537596483092 l -4.428403971123034 4.390554591966093 a27.236002834868888,27.236002834868888 0 0,0 -0.3263303712927135,-0.33484370908294875 l 4.503121143566557 -4.313888190815407" fill="#ff4406" stroke="none" /><path d="M 84.83555147118756 114.52719865689866 l -2.504122258832954 2.3988924784247967 a24.467753366406804,24.467753366406804 0 0,0 -0.2879553574327428,-0.3057986108088293 l 2.54493345000195 -2.355552407671477" fill="#ff1d02" stroke="none" /><path d="M 84.58840730492382 114.26474011684316 l -3.5170324931357424 3.2553127694000676 a25.792345854004253,25.792345854004253 0 0,0 -0.2979658288029924,-0.32751664178494033 l 3.5723960227806146 -3.194458552057453" fill="#ff3004" stroke="none" /><path d="M 84.3458050057657 113.99807769240083 l -6.368184214521963 5.694469592798067 a29.542877391920623,29.542877391920623 0 0,0 -0.33480371229071143,-0.38094516551705826 l 6.464998990771267 -5.584312149469709" fill="#ff6509" stroke="none" /><path d="M 83.64595745247003 113.17365903436017 l -15.704980617932748 12.65082068855991 a41.16654854712969,41.16654854712969 0 0,0 -0.43858756402936955,-0.5541410596257927 l 15.91983461260368 -12.379359685019438" fill="#fffc17" stroke="none" /><path d="M 83.4222238831116 112.89097897827486 l -6.661657730882869 5.180145344211087 a29.438695960311836,29.438695960311836 0 0,0 -0.30679049524677837,-0.4015986063852293 l 6.749600203483943 -5.065025824584987" fill="#ff6309" stroke="none" /><path d="M 83.20337586046588 112.60449989151573 l -3.606929209269196 2.7067069221327174 a25.509567682494684,25.509567682494684 0 0,0 -0.25983071469405716,-0.3525102664161164 l 3.6528619435470833 -2.644390346447721" fill="#ff2c04" stroke="none" /><path d="M 82.78059297857968 112.02048342749411 l -7.004918235503377 4.889976957747426 a29.542877391920623,29.542877391920623 0 0,0 -0.286721029356187,-0.4183345505924512 l 7.087829001674888 -4.769007672084924" fill="#ff6509" stroke="none" /><path d="M 82.576782715395 111.72311816256416 l -4.010673971679449 2.6985604388382978 a25.834018426647766,25.834018426647766 0 0,0 -0.24440895742126337,-0.3700663126711962 l 4.056407368021438 -2.6293142478280407" fill="#ff3104" stroke="none" /><path d="M 82.37810715431573 111.42229804090323 l -19.207988091185264 12.450385816377855 a43.89014883061658,43.89014883061658 0 0,0 -0.4043793957443307,-0.6357515757424496 l 19.418885178555485 -12.118820565956733" fill="#e1ff1b" stroke="none" /><path d="M 82.18462484594161 111.11811171558189 l -23.863259419681317 14.892438796916924 a49.128986534372785,49.128986534372785 0 0,0 -0.44036424474323826,-0.7193018991302886 l 24.115391628879962 -14.480599781662077" fill="#a4ff21" stroke="none" /><path d="M 81.99639281039703 110.81064883170644 l -9.26337265744278 5.562389122479719 a31.805102763997166,31.805102763997166 0 0,0 -0.2770471165504475,-0.47048657218757256 l 9.357493484122996 -5.402551381998587" fill="#ff840c" stroke="none" /><line stroke="#e1ed5e" stroke-width="0.3" x1="26.387840678322732" x2="22.057713659400548" y1="142.50000000000003" y2="145.00000000000006" /><path d="M 25.521815274538298 143.00000000000003 a86.0,86.0 0 0,1 -11.493303480769221,-40.785679425670985" fill="none" id="id69" stroke="none" /><text fill="#e1ed5e" style="font-size:6.75px; font-family:Arial;" text-anchor="middle"><textPath startOffset="21.40746469413373" xlink:href="#id69">September</textPath></text><path d="M 81.63589988554817 110.18625677009913 l -7.262344340087965 4.028299984206459 a29.30474840538625,29.30474840538625 0 0,0 -0.24023565315904744,-0.4420065435071142 l 7.330425342862341 -3.903038607224758" fill="#ff6109" stroke="none" /><path d="M 81.4637452351635 109.86951160357371 l -4.033047634872292 2.147370703258066 a25.569099929128278,25.569099929128278 0 0,0 -0.20296012579804196,-0.3892028025134402 l 4.069315829645284 -2.0778216576401234" fill="#ff2d04" stroke="none" /><path d="M 81.29705330413844 109.54985784667822 l -22.14927280565886 11.309576514386471 a45.86959603118356,45.86959603118356 0 0,0 -0.3520602604404158,-0.7043563566997264 l 22.340152979311014 -10.927688301522991" fill="#caff1d" stroke="none" /><path d="M 81.1358732173502 109.22738970284198 l -7.553672311975297 3.6948796471337455 a29.40892983699504,29.40892983699504 0 0,0 -0.21793521351609776,-0.4554007766969193 l 7.615986783451307 -3.5646663683717215" fill="#ff6309" stroke="none" /><path d="M 80.9802524753101 108.90220220490708 l -7.750783009707082 3.6277578085198936 a29.55776045357902,29.55776045357902 0 0,0 -0.2111487262918913,-0.46139807322581705 l 7.811916200854029 -3.4941707530793877" fill="#ff6509" stroke="none" /><path d="M 80.83023694016515 108.57439118712176 l -7.594541141352006 3.3969416538632666 a29.31963146704465,29.31963146704465 0 0,0 -0.20156006550430408,-0.46120887494087653 l 7.651735088873278 -3.2660707091465406" fill="#ff6209" stroke="none" /><path d="M 80.68587082218212 108.24405325689762 l -20.270938270326358 8.652458163103955 a43.04032600992204,43.04032600992204 0 0,0 -0.284218136204775,-0.6820200609119479 l 20.416482251067617 -8.303205592750725" fill="#ebff1a" stroke="none" /><path d="M 80.5471966667186 107.91128576633889 l -13.35915409634987 5.433051670859243 a35.42168674698795,35.42168674698795 0 0,0 -0.2242383795752118,-0.5652271998807332 l 13.450451150891206 -5.202923453764945" fill="#ffb410" stroke="none" /><path d="M 80.41425534168474 107.57618678355246 l -4.441841453338686 1.7181996957737693 a25.762579730687456,25.762579730687456 0 0,0 -0.15600998321559983,-0.41383501558039343 l 4.470682120368721 -1.641696399999231" fill="#ff3004" stroke="none" /><path d="M 80.28708602549918 107.23885506374661 l -9.849471546437341 3.6168623812483056 a31.492558469170802,31.492558469170802 0 0,0 -0.18199674003332114,-0.509077273067307 l 9.910108456514605 -3.4472501518000773" fill="#ff7f0b" stroke="none" /><path d="M 80.16572619554312 106.89939002012753 l -11.259570033571912 3.9166629384281726 a32.92133238837704,32.92133238837704 0 0,0 -0.1810901824818735,-0.535360946890967 l 11.325145637626152 -3.722800317063044" fill="#ff930d" stroke="none" /><path d="M 80.05021161711548 106.5578916946017 l -30.751799952355658 10.108727452699275 a53.3706591070163,53.3706591070163 0 0,0 -0.2786336847787131,-0.8728160490309492 l 30.920798352911625 -9.579342369976935" fill="#76ff27" stroke="none" /><path d="M 79.94057633289273 106.21446072829308 l -8.345061440532929 2.585321366058143 a29.7363571934798,29.7363571934798 0 0,0 -0.1468744951330602,-0.4888974259572888 l 8.38821225566962 -2.4416863365101302" fill="#ff6709" stroke="none" /><path d="M 79.73907114497094 105.5222062557868 l -8.012472219068897 2.1838349331885434 a29.30474840538625,29.30474840538625 0 0,0 -0.12811829361834265,-0.48648602897941284 l 8.048779993491971 -2.045968399836328" fill="#ff6109" stroke="none" /><path d="M 79.48165901384964 104.47187691870673 l -8.041560995989478 1.7526207909601856 a29.23033309709426,29.23033309709426 0 0,0 -0.10264341314028604,-0.49118588921010387 l 8.070462119954131 -1.6143184504646728" fill="#ff6008" stroke="none" /><path d="M 79.407916724674 104.11899336999214 l -36.61625580282986 7.324276658618198 a58.34160170092133,58.34160170092133 0 0,0 -0.18800916672852225,-0.9837434054354408 l 36.73659126184054 -6.694630688149442" fill="#43ff2d" stroke="none" /><path d="M 79.34024301695615 103.76489593502545 l -10.952160328360595 1.9958484474833738 a32.13253012048193,32.13253012048193 0 0,0 -0.09423274913838846,-0.5435094556516233 l 10.984807894991217 -1.8075459589111578" fill="#ff880c" stroke="none" /><path d="M 79.2786578344484 103.40968896794605 l -14.435917327241132 2.375424702686722 a35.63004961020553,35.63004961020553 0 0,0 -0.09412866606731932,-0.6043735595011402 l 14.47456748544672 -2.127262961254132" fill="#ffb610" stroke="none" /><path d="M 79.17382384314188 102.69636545807758 l -8.841161954612344 1.1446654212533462 a29.91495393338058,29.91495393338058 0 0,0 -0.0615648523161451,-0.5098452936810542 l 8.859508893188151 -0.9927264506488929" fill="#ff6a09" stroke="none" /><path d="M 79.13060592940153 102.33845913500099 l -8.312260430670685 0.9314061189727509 a29.364280652019843,29.364280652019843 0 0,0 -0.051831601441298975,-0.501423726106149 l 8.32702442459365 -0.7885778705836705" fill="#ff6209" stroke="none" /><path d="M 79.0935383218832 101.97986365728391 l -28.255579319751057 2.67583273879548 a49.38199858256556,49.38199858256556 0 0,0 -0.07267708000630478,-0.8446178347324972 l 28.297350022455102 -2.190393856687321" fill="#a2ff22" stroke="none" /><path d="M 79.06263194458094 101.62068470465958 l -8.279979712915544 0.6409227960312138 a29.30474840538625,29.30474840538625 0 0,0 -0.034518256885885806,-0.501887879404747 l 8.289761930966497 -0.4986914924721235" fill="#ff6109" stroke="none" /><path d="M 79.03789590574601 101.26102812881392 l -15.09390344419706 0.908011749734189 a36.12119064493267,36.12119064493267 0 0,0 -0.031921518347907955,-0.6192689280472532 l 15.10726655200154 -0.6487710283102051" fill="#ffbd11" stroke="none" /><path d="M 79.01933749520258 100.90099992219065 l -5.293491035937549 0.22732528157326087 a26.298369950389795,26.298369950389795 0 0,0 -0.015497645695655102,-0.45119704501431623 l 5.2966133686300525 -0.13642197199482478" fill="#ff3705" stroke="none" /><path d="M 79.00696218219943 100.54070618675478 l -11.381767491578621 0.2931539566742723 a32.3855421686747,32.3855421686747 0 0,0 -0.009543816329768052,-0.5558794548910999 l 11.385122739507056 -0.09772758581412003" fill="#ff8b0c" stroke="none" /><line stroke="#e1ed5e" stroke-width="0.3" x1="15.003131293944662" x2="10.003315487706104" y1="100.72959589197737" y2="100.7725132973878" /><path d="M 14.003168132696942 100.73817937305945 a86.0,86.0 0 0,1 10.791469493833604,-42.45332614584628" fill="none" id="id70" stroke="none" /><text fill="#e1ed5e" style="font-size:6.75px; font-family:Arial;" text-anchor="middle"><textPath startOffset="22.145653131862435" xlink:href="#id70">October</textPath></text><path d="M 79.00077361379809 100.18025310272382 l -35.598972016863904 0.30557435982663417 a56.600283486888735,56.600283486888735 0 0,0 0.0,-0.9716549251008904 l 35.598972016863904 0.3055743598266211" fill="#54ff2b" stroke="none" /><path d="M 79.00077361379809 99.81974689727619 l -16.68329750455871 -0.14320604404918155 a37.683912119064495,37.683912119064495 0 0,0 0.011105212751366136,-0.6468229686508571 l 16.67838086020868 0.42957592866909106" fill="#ffd113" stroke="none" /><path d="M 79.01933749520258 99.09900007780938 l -44.81624152335892 -1.9246022434319894 a65.85754783841247,65.85754783841247 0 0,0 0.05820054334137225,-1.1290749924224304 l 44.776599390560975 2.693649029231132" fill="#36ff71" stroke="none" /><path d="M 79.06263194458094 98.37931529534042 l -7.983206246502801 -0.6179506528042927 a29.007087172218284,29.007087172218284 0 0,0 0.04269066574209684,-0.49613024710474724 l 7.971421958062962 0.7549019472847207" fill="#ff5d08" stroke="none" /><path d="M 79.0935383218832 98.0201363427161 l -8.919695202144801 -0.8447044094152452 a29.959603118355776,29.959603118355776 0 0,0 0.0528824195141112,-0.5115894377352918 l 8.903880390149027 0.9976983694334497" fill="#ff6a09" stroke="none" /><path d="M 79.17382384314186 97.30363454192245 l -26.671084560909037 -3.4531058701248365 a47.89369241672573,47.89369241672573 0 0,0 0.11256268300874632,-0.8144475012134547 l 26.607877361345082 3.910441679538358" fill="#b2ff20" stroke="none" /><path d="M 79.2786578344484 96.59031103205396 l -32.029232645689625 -5.2703980432957565 a53.45995747696669,53.45995747696669 0 0,0 0.15677815419411362,-0.9042547312184488 l 31.93403967400328 5.819445807434797" fill="#75ff27" stroke="none" /><path d="M 79.48165901384962 95.52812308129327 l -3.577258598577598 -0.7796468618014556 a24.66123316796598,24.66123316796598 0 0,0 0.09369993082845818,-0.4128591840276849 l 3.5633478061914783 0.8409403797681487" fill="#ff2003" stroke="none" /><path d="M 79.56144815229197 95.17655741523228 l -5.88097239558431 -1.387893472300278 a27.04252303330971,27.04252303330971 0 0,0 0.11050408527277546,-0.4508943775244863 l 5.856280783795236 1.488643674432882" fill="#ff4206" stroke="none" /><path d="M 79.64726062577567 94.8264132398404 l -8.308418057798168 -2.111967380476207 a29.57264351523742,29.57264351523742 0 0,0 0.12928951214812914,-0.49093333650692916 l 8.270939064845312 2.2542812213559205" fill="#ff6509" stroke="none" /><path d="M 79.73907114497095 94.47779374421319 l -14.445424825059694 -3.937164772020931 a35.97236002834869,35.97236002834869 0 0,0 0.1674967432003793,-0.5943868518259512 l 14.375709589784734 4.184559547749895" fill="#ffbb11" stroke="none" /><path d="M 79.83685265289637 94.1308016681162 l -41.66955185269611 -12.12939924576411 a64.39900779588945,64.39900779588945 0 0,0 0.3180810512716474,-1.0587883694280225 l 41.45519448142083 12.842925218782858" fill="#34ff60" stroke="none" /><path d="M 80.41425534168474 92.42381321644754 l -6.648881425466346 -2.5719301696113583 a28.128986534372785,28.128986534372785 0 0,0 0.1780716543685412,-0.4488568940229118 l 6.603751096131673 2.6856880808478527" fill="#ff5107" stroke="none" /><path d="M 80.5471966667186 92.08871423366112 l -7.430943300240024 -3.0220999490125107 a29.021970233876683,29.021970233876683 0 0,0 0.19164748628906225,-0.4598842002760705 l 7.377969969414483 3.149216658729845" fill="#ff5d08" stroke="none" /><path d="M 80.68587082218212 91.75594674310238 l -28.964349638740348 -12.363158534085997 a52.4925584691708,52.4925584691708 0 0,0 0.36086413758052516,-0.8257277674702465 l 28.747851619142846 12.85854837133211" fill="#7fff26" stroke="none" /><path d="M 81.29705330413844 90.45014215332179 l -4.559754545270286 -2.328243160352449 a26.119773210489015,26.119773210489015 0 0,0 0.20733121116157366,-0.3975849350472191 l 4.519115265133773 2.4061743385041545" fill="#ff3505" stroke="none" /><path d="M 81.46374523516351 90.13048839642627 l -4.703032746854333 -2.5041000383269982 a26.32813607370659,26.32813607370659 0 0,0 0.2158338600499254,-0.3971099926175747 l 4.659353537189057 2.5844648644191928" fill="#ff3805" stroke="none" /><path d="M 81.63589988554816 89.8137432299009 l -13.834896117407729 -7.673983661669277 a36.82069454287739,36.82069454287739 0 0,0 0.31133937274070383,-0.5501068396703144 l 13.701123379645656 7.910347271438697" fill="#ffc612" stroke="none" /><line stroke="#e1ed5e" stroke-width="0.3" x1="26.387840678322718" x2="22.05771365940052" y1="57.49999999999999" y2="54.99999999999999" /><path d="M 25.521815274538284 56.99999999999999 a86.0,86.0 0 0,1 29.574782752854787,-30.34633250058573" fill="none" id="id71" stroke="none" /><text fill="#e1ed5e" style="font-size:6.75px; font-family:Arial;" text-anchor="middle"><textPath startOffset="21.40746469413373" xlink:href="#id71">November</textPath></text><path d="M 81.81346652052679 89.5 l -27.32491210239774 -15.776045357902202 a52.5520907158044,52.5520907158044 0 0,0 0.45776947521739836,-0.7773926468854674 l 27.05006891705056 16.242789173081242" fill="#7fff26" stroke="none" /><path d="M 82.18462484594161 88.88188828441811 l -7.701898542860108 -4.806554320698051 a30.07866761162296,30.07866761162296 0 0,0 0.2771280972530662,-0.43569139863529693 l 7.618252753981152 4.93805939401202" fill="#ff6c0a" stroke="none" /><path d="M 82.37810715431573 88.57770195909679 l -6.9938058069335165 -4.533300427289723 a29.334514528703046,29.334514528703046 0 0,0 0.27752624442752877,-0.4202101061613825 l 6.914955123585258 4.652690411790166" fill="#ff6209" stroke="none" /><path d="M 82.576782715395 88.27688183743585 l -12.483963624901243 -8.399767868428318 a36.04677533664068,36.04677533664068 0 0,0 0.34984298896761945,-0.5104313760881474 l 12.33793089911831 8.612833979586501" fill="#ffbc11" stroke="none" /><path d="M 82.98947788004972 87.6856937992154 l -21.784559511516775 -15.770341109013303 a47.89369241672573,47.89369241672573 0 0,0 0.48782686107673373,-0.6618308269119757 l 21.510630630856223 16.141978245194142" fill="#b2ff20" stroke="none" /><path d="M 83.2033758604659 87.39550010848427 l -28.069765925599874 -21.064075651448693 a56.09425939050319,56.09425939050319 0 0,0 0.5845770356850587,-0.7652301048866812 l 27.70403691256051 21.542826669576257" fill="#5aff2a" stroke="none" /><path d="M 83.42222388311158 87.10902102172516 l -5.07554874733933 -3.946777405113208 a27.429482636428066,27.429482636428066 0 0,0 0.2922331455192076,-0.36922703285984365 l 5.007049171178561 4.033324381887734" fill="#ff4706" stroke="none" /><path d="M 83.64595745247003 86.82634096563983 l -6.096545981573895 -4.910945890909602 a28.828490432317505,28.828490432317505 0 0,0 0.31375443737404246,-0.38272939783842613 l 6.011344724961223 5.0148775704465205" fill="#ff5b08" stroke="none" /><path d="M 83.8745106332314 86.54754324733833 l -3.039957598554534 -2.5360407485528027 a24.958894401133946,24.958894401133946 0 0,0 0.2772878929826853,-0.3266444407031137 l 2.9959751420647343 2.587851971705473" fill="#ff2403" stroke="none" /><path d="M 84.10781606972428 86.27271002978789 l -7.230887372953234 -6.24586829261246 a30.55492558469171,30.55492558469171 0 0,0 0.34627305860596,-0.3939951762249474 l 7.122603250388681 6.369075746648708" fill="#ff730a" stroke="none" /><path d="M 84.83555147118756 85.47280134310135 l -25.772039384898832 -24.689030743616556 a56.68958185683912,56.68958185683912 0 0,0 0.6792308110677486,-0.6969506491240363 l 25.34442177268028 25.12780408480832" fill="#53ff2b" stroke="none" /><path d="M 85.08716467003674 85.21462403516908 l -2.64224580615933 -2.6196626443711772 a24.720765414599576,24.720765414599576 0 0,0 0.30136741365280584,-0.2987916392701442 l 2.5968864723765472 2.664634293869995" fill="#ff2103" stroke="none" /><path d="M 85.34317274990677 84.96080404539775 l -10.397933435395693 -10.669195712655457 a35.8979447200567,35.8979447200567 0 0,0 0.44501060531034403,-0.4263100933401622 l 10.213250344220048 10.846117936301187" fill="#ffba11" stroke="none" /><path d="M 85.86807049272753 84.46653392183569 l -6.77050626996187 -7.441972408815786 a31.06094968107725,31.06094968107725 0 0,0 0.3974839752087747,-0.3554326216395055 l 6.641757267929703 7.557100560338693" fill="#ff790b" stroke="none" /><path d="M 86.13680546590413 84.22622945171909 l -1.2802085384781667 -1.4566423121481247 a22.9392629340893,22.9392629340893 0 0,0 0.2980143641683356,-0.2574177098739486 l 1.2550146945469827 1.4784041544867839" fill="#ff0701" stroke="none" /><path d="M 86.96720088162412 83.53348406188908 l -11.312949936347819 -14.293542679658575 a39.22877391920623,39.22877391920623 0 0,0 0.5316247115027797,-0.41339459116788274 l 11.065915280209794 14.485638322447263" fill="#ffe415" stroke="none" /><path d="M 87.25179093698888 83.31218511350988 l -1.1745337903553823 -1.5375024346163808 a22.934798015591777,22.934798015591777 0 0,0 0.3149133551300713,-0.23631685257701956 l 1.1479674463145588 1.557438314457401" fill="#ff0701" stroke="none" /><path d="M 87.83215693770416 82.88440491214696 l -2.9061396966645643 -4.087849429203738 a26.01559177888023,26.01559177888023 0 0,0 0.3662065064693537,-0.25564058254616484 l 2.835538099021445 4.1371348275550295" fill="#ff3304" stroke="none" /><path d="M 88.12776184653039 82.6780497279521 l -8.44771587957724 -12.325469931350884 a35.94259390503189,35.94259390503189 0 0,0 0.5119315834484555,-0.3444504161247913 l 8.234888008031795 12.468670021532786" fill="#ffba11" stroke="none" /><path d="M 88.72937992617638 82.28071324371311 l -33.811860221470866 -53.157860268860674 a84.0,84.0 0 0,0 1.2233434848412057,-0.7634568126338559 l 32.89435260783996 53.73045287833607" fill="#4dd2ff" stroke="none" /><line stroke="#e1ed5e" stroke-width="0.3" x1="56.869717070023135" x2="54.33264160355391" y1="26.7553504044142" y2="22.446841604673864" /><path d="M 56.362301976729285 25.89364864446614 a86.0,86.0 0 0,1 42.16139366436587,-11.88097634709845" fill="none" id="id72" stroke="none" /><text fill="#e1ed5e" style="font-size:6.75px; font-family:Arial;" text-anchor="middle"><textPath startOffset="22.145653131862474" xlink:href="#id72">December</textPath></text><path d="M 89.65649057296885 81.72400993836675 l -2.455758793802578 -4.339090482386352 a25.98582565556343,25.98582565556343 0 0,0 0.3901039315942203,-0.21638407487861588 l 2.380910674052255 4.380607472698114" fill="#ff3304" stroke="none" /><path d="M 89.97174638481275 81.54914285379989 l -4.953715641237078 -9.114278831255476 a31.373493975903614,31.373493975903614 0 0,0 0.4753998414754979,-0.25312363858314024 l 4.796526983975019 9.197972937561191" fill="#ff7e0b" stroke="none" /><path d="M 90.61103034731259 81.2157712731953 l -6.733973981941638 -13.472458874221376 a36.06165839829908,36.06165839829908 0 0,0 0.556104688900103,-0.2720186701023743 l 6.501709043779482 13.586071294420965" fill="#ffbc11" stroke="none" /><path d="M 90.93487009805054 81.0573650232925 l -13.973534753182186 -29.199313305697228 a53.3706591070163,53.3706591070163 0 0,0 0.8298153593598301,-0.3883954880141979 l 13.470230679950834 29.434885025281968" fill="#76ff27" stroke="none" /><path d="M 91.26138138417902 80.90454125486306 l -2.1800097468242265 -4.76371472593069 a26.2388377037562,26.2388377037562 0 0,0 0.4111833244263246,-0.18391707097515392 l 2.097913019542283 4.800435547815689" fill="#ff3605" stroke="none" /><path d="M 91.5904679813234 80.7573450057729 l -5.989780069999987 -13.705788993053323 a35.957476966690294,35.957476966690294 0 0,0 0.5677256260724581,-0.24232831071784566 l 5.753619368757097 13.806591953430573" fill="#ffba11" stroke="none" /><path d="M 92.592206182469 80.34994680014964 l -7.1295421716563405 -18.911957650883625 a41.21119773210489,41.21119773210489 0 0,0 0.6641103040891015,-0.24387050254773146 l 6.803842715913111 19.03155900244008" fill="#fffd17" stroke="none" /><path d="M 92.93061703081487 80.22567764915836 l -2.670433113094027 -7.469676692415732 a28.932671863926295,28.932671863926295 0 0,0 0.4691146556658481,-0.16318242883534317 l 2.541812685383175 7.51441755381966" fill="#ff5c08" stroke="none" /><path d="M 93.27111125876988 80.10723608172694 l -10.100486430847209 -29.860293393977553 a52.52232459248759,52.52232459248759 0 0,0 0.8565572351814679,-0.28156737659265857 l 9.58640645801798 30.02928169197224" fill="#7fff26" stroke="none" /><path d="M 93.95794788825049 79.88797359093562 l -4.320645344263114 -14.382023137311107 a36.01700921332389,36.01700921332389 0 0,0 0.5936631963405169,-0.17280670431459969 l 4.073122135540973 14.454073535928227" fill="#ffbb11" stroke="none" /><path d="M 95.00130118170881 79.60360301121753 l -3.638315865616619 -14.845570310049322 a36.284904323175056,36.284904323175056 0 0,0 0.6062479157917147,-0.14307285739935227 l 3.382935796084998 14.905839311094907" fill="#ffbf11" stroke="none" /><path d="M 95.35216902796891 79.52079915486377 l -1.8940487660651153 -8.345528338733757 a29.55776045357902,29.55776045357902 0 0,0 0.49577876725331743,-0.10805267480258242 l 1.7505075821926797 8.376812471670053" fill="#ff6509" stroke="none" /><path d="M 95.70440661134978 79.44403061299748 l -6.606263397144549 -31.613361849606992 a53.29624379872431,53.29624379872431 0 0,0 0.8971623567069967,-0.17945759783860835 l 6.062604554906575 31.722108844108465" fill="#77ff27" stroke="none" /><path d="M 96.05791012581881 79.37332000966035 l -1.5505739760244928 -8.113258252755852 a29.260099220411057,29.260099220411057 0 0,0 0.49416861363476844,-0.09005398302689135 l 1.4110706288386856 8.138680409714105" fill="#ff6108" stroke="none" /><path d="M 96.41257539226777 79.30868818359171 l -2.903500284925727 -16.746618068276586 a37.996456413890854,37.996456413890854 0 0,0 0.64362830241354,-0.10590879223285517 l 2.6155944794591144 16.793992859005108" fill="#ffd513" stroke="none" /><path d="M 96.76829788921471 79.25015418208739 l -1.0260825978963957 -6.58818634048537 a27.66761162296244,27.66761162296244 0 0,0 0.46992106922417703,-0.06906221455519013 l 0.9128364230645336 6.604829628339444" fill="#ff4b06" stroke="none" /><path d="M 97.84075906011542 79.11130261209362 l -3.1631119934382856 -30.600239192631093 a51.76328844790929,51.76328844790929 0 0,0 0.8846603249800964,-0.08377825255348767 l 2.6373521050731736 30.650029200689765" fill="#87ff25" stroke="none" /><path d="M 99.63950707515114 79.00309439819443 l -0.2920222630065513 -17.008832815636968 a38.011339475549256,38.011339475549256 0 0,0 0.6525151878553993,-0.005601058106723432 l 4.166576487588082e-15 17.011339475549256" fill="#ffd513" stroke="none" /></svg>