<?xml version="1.0" encoding="utf-8" ?>
<svg baseProfile="full" height="200mm" version="1.1" viewBox="0,0,200,200" width="200mm" xmlns="http://www.w3.org/2000/svg" xmlns:ev="http://www.w3.org/2001/xml-events" xmlns:xlink="http://www.w3.org/1999/xlink"><defs /><rect fill="#1a1a1a" height="200" width="200" x="0" y="0" /><rect fill="#1a1a1a" height="200" width="180" x="10" y="0" /><text alignment-baseline="middle" fill="#e1ed5e" style="dominant-baseline: central; font-size:9.0px; font-family:Arial;" text-anchor="middle" x="100.0" y="100.0">2019</text><line stroke="#e1ed5e" stroke-width="0.3" x1="100.0" x2="100.0" y1="15.0" y2="10.0" /><path d="M 100.0 14.0 a86.0,86.0 0 0,1 42.46469731375804,11.215312516191453" fill="none" id="id49" stroke="none" /><text fill="#e1ed5e" style="font-size:6.75px; font-family:Arial;" text-anchor="middle"><textPath startOffset="22.20632615414155" xlink:href="#id49">January</textPath></text><line stroke="#e1ed5e" stroke-width="0.3" x1="143.23703022742887" x2="145.7803849466894" y1="26.81831364943548" y2="22.513508569990506" /><path d="M 143.74570117128098 25.957352633546492 a86.0,86.0 0 0,1 28.547481713284135,27.462654790039103" fill="none" id="id50" stroke="none" /><text fill="#e1ed5e" style="font-size:6.75px; font-family:Arial;" text-anchor="middle"><textPath startOffset="19.985693538727396" xlink:href="#id50">February</textPath></text><line stroke="#e1ed5e" stroke-width="0.3" x1="172.23445277983987" x2="176.4835382374775" y1="55.19839476539836" y2="52.563006222186495" /><path d="M 173.08426987136738 54.67131705675599 a86.0,86.0 0 0,1 12.851231095245387,41.99856678651699" fill="none" id="id51" stroke="none" /><text fill="#e1ed5e" style="font-size:6.75px; font-family:Arial;" text-anchor="middle"><textPath startOffset="22.20632615414155" xlink:href="#id51">March</textPath></text><path d="M 120.91429891909075 98.10471618934814 l 6.449187888754057 -0.5844346704947561 a27.4756148981026,27.4756148981026 0 0,0 0.0386300815353933,0.47138484114025025 l -6.458292454108945 0.4733359121467371" fill="#ff3104" stroke="none" /><path d="M 120.96714384426684 98.82574320788733 l 5.392814228391895 -0.30202247780269614 a26.401264933239634,26.401264933239634 0 0,0 0.02150620862282137,0.45396207326173815 l -5.397214045248213 0.20914929791795825" fill="#ff2103" stroke="none" /><line stroke="#e1ed5e" stroke-width="0.3" x1="184.98032266829074" x2="189.97916517819016" y1="98.17113171792111" y2="98.06355123074" /><path d="M 185.9800911702706 98.14961562048488 a86.0,86.0 0 0,1 -9.607161424134198,41.387399972396054" fill="none" id="id52" stroke="none" /><text fill="#e1ed5e" style="font-size:6.75px; font-family:Arial;" text-anchor="middle"><textPath startOffset="21.466115282336823" xlink:href="#id52">April</textPath></text><path d="M 120.99513854157772 99.54816195383933 l 8.93215521649413 -0.19222962273061703 a29.934223471539003,29.934223471539003 0 0,0 0.006652514660875458,0.5152445918131816 l -8.93414073827272 0.03844877285697269" fill="#ff5507" stroke="none" /><path d="M 120.99980553446 99.90962569577887 l 9.173210906690322 -0.03947763000973607 a30.173295853829934,30.173295853829934 0 0,0 -0.0022352703878300343,0.5193981172626466 l -9.17253133901299 -0.11842996545659529" fill="#ff5808" stroke="none" /><path d="M 120.99824983174949 100.27111621757518 l 8.96594279534153 0.11576262389225761 a29.96669009135629,29.96669009135629 0 0,0 -0.011099001765160831,0.5157269993370294 l -8.96262173089136 -0.27007943901940185" fill="#ff5507" stroke="none" /><path d="M 120.9904718944345 100.63252640178507 l 8.882967094046704 0.26767912800770866 a29.88699929725931,29.88699929725931 0 0,0 -0.01992163074472473,0.5140887697450701 l -8.877043330450775 -0.4205451447667849" fill="#ff5407" stroke="none" /><path d="M 120.9764740272857 100.99374915477107 l 5.728361073087299 0.27137801935631456 a26.73478566408995,26.73478566408995 0 0,0 -0.025733694119572676,0.4594923954228722 l -5.722841028080197 -0.36994213111461005" fill="#ff2603" stroke="none" /><path d="M 120.95626037817324 101.35467743843564 l 9.11000890368093 0.5888991310023102 a30.129023190442727,30.129023190442727 0 0,0 -0.037910117941593956,0.5172534395841137 l -9.098522227074998 -0.7456257070831942" fill="#ff5708" stroke="none" /><path d="M 120.89721153311464 102.0752229133903 l 8.952171574551434 0.8890062459611574 a29.996205200281096,29.996205200281096 0 0,0 -0.055446840456051964,0.5133688799275987 l -8.93554243259433 -1.0429714477735474" fill="#ff5507" stroke="none" /><path d="M 120.81339534386255 102.79330883721812 l 8.901639076791808 1.1946646228608178 a29.98144764581869,29.98144764581869 0 0,0 -0.073049010509257,0.5109046093637388 l -8.87975601526595 -1.3477147042049658" fill="#ff5507" stroke="none" /><path d="M 120.70491114924044 103.5080841355445 l 6.352610124918044 1.0763383932387411 a27.443148278285314,27.443148278285314 0 0,0 -0.08292216150811291,0.4650715187185574 l -6.3331415210707425 -1.185528662690517" fill="#ff3004" stroke="none" /><path d="M 118.64920377521936 109.65438752849418 l 9.55657019879828 4.947279961895964 a31.761208713984537,31.761208713984537 0 0,0 -0.25552269276063605,0.4833526384621375 l -9.469994997812751 -5.111047615444236" fill="#ff6f0a" stroke="none" /><line stroke="#e1ed5e" stroke-width="0.3" x1="174.80103733775053" x2="179.2010983576182" y1="140.37084112569926" y2="142.7455964860345" /><path d="M 175.68104954172406 140.8457921977663 a86.0,86.0 0 0,1 -30.038265399797805,32.042727171017184" fill="none" id="id53" stroke="none" /><text fill="#e1ed5e" style="font-size:6.75px; font-family:Arial;" text-anchor="middle"><textPath startOffset="22.206326154141568" xlink:href="#id53">May</textPath></text><path d="M 118.48025628344425 109.97397251340804 l 8.119364882929968 4.382099518891575 a30.22642304989459,30.22642304989459 0 0,0 -0.25105720180001273,0.4557417457607981 l -8.042731271678447 -4.521211783050179" fill="#ff5908" stroke="none" /><path d="M 118.30583269289576 110.29060199501025 l 7.880641677911416 4.4300933114148116 a30.040477863668308,30.040477863668308 0 0,0 -0.25727237992425595,0.44857607995138005 l -7.80321730183478 -4.565089237224506" fill="#ff5608" stroke="none" /><path d="M 117.94076556474637 110.91462005526583 l 7.594882063389466 4.6204969229038175 a29.88995080815179,29.88995080815179 0 0,0 -0.27119488321609836,0.43725250207503513 l -7.514222540505405 -4.750545756344127" fill="#ff5407" stroke="none" /><path d="M 117.75023020441432 111.22182372390056 l 7.516717302305044 4.752122962770537 a29.892902319044275,29.892902319044275 0 0,0 -0.2787088044577982,0.43256225382930774 l -7.433803634470196 -4.880806816521297" fill="#ff5407" stroke="none" /><path d="M 117.14729908036423 112.12312394758627 l 7.480705038011328 5.288851262587181 a30.161489810260015,30.161489810260015 0 0,0 -0.3033674352373458,0.4213508342789727 l -7.388557810398379 -5.416835702317285" fill="#ff5808" stroke="none" /><path d="M 116.498646956653 112.99209946851258 l 7.0377222084949915 5.541956695282595 a29.95783555867885,29.95783555867885 0 0,0 -0.3225204768296883,0.40239388463538434 l -6.941283819610449 -5.66227841349623" fill="#ff5507" stroke="none" /><path d="M 116.27256486870786 113.27417163493432 l 2.7879489212867004 2.2742396659149597 a24.597891777933942,24.597891777933942 0 0,0 -0.27046436217669845,0.32579174746505085 l -2.7483885592164583 -2.321892670493781" fill="#ff0601" stroke="none" /><path d="M 115.56566222782051 114.09645910891815 l 3.8591466155833296 3.494891618851951 a26.20646521433591,26.20646521433591 0 0,0 -0.3056841803803211,0.3317598044439843 l -3.7984160272072867 -3.56080267809727" fill="#ff1e03" stroke="none" /><path d="M 115.32070863581623 114.36230785411682 l 6.52879670889597 6.120381927432495 a29.948981026001405,29.948981026001405 0 0,0 -0.35581307423157377,0.37306858580988056 l -6.4224770832854325 -6.231857629824884" fill="#ff5507" stroke="none" /><path d="M 114.81725581225074 114.88116024355365 l 6.428793913200005 6.45652026308505 a30.111314125087844,30.111314125087844 0 0,0 -0.3704409256306602,0.362554413209265 l -6.316703035193551 -6.566224779216887" fill="#ff5708" stroke="none" /><path d="M 114.55890576462653 115.13401014063108 l 6.3023794455445845 6.551335380624558 a30.09065354884048,30.09065354884048 0 0,0 -0.376368400335308,0.35587981424811393 l -6.188675210818469 -6.658849831618593" fill="#ff5708" stroke="none" /><path d="M 114.0293411484842 115.62618273729858 l 3.5985309340806286 4.008121362694294 a26.38650737877723,26.38650737877723 0 0,0 -0.34058402881449135,0.30052580640277415 l -3.5290045523595497 -4.069470310869357" fill="#ff2103" stroke="none" /><path d="M 113.20401910651253 116.32954008644616 l 5.8030875257996755 7.176735326818996 a30.229374560787072,30.229374560787072 0 0,0 -0.4074379985367379,0.323693387597962 l -5.678692034545586 -7.275562628422084" fill="#ff5908" stroke="none" /><path d="M 112.92097659922987 116.55440617244103 l 9.147288704191272 11.719542359885523 a35.86676036542516,35.86676036542516 0 0,0 -0.4899591976594609,0.3756798198332793 l -8.944200778038319 -11.875261521546173" fill="#ffa70f" stroke="none" /><path d="M 112.34349029814194 116.9893568818739 l 9.068084861333507 12.481148056437783 a36.427547434996484,36.427547434996484 0 0,0 -0.5104586535051393,0.36419869575806685 l -8.851898879979483 -12.635391014040069" fill="#ffaf10" stroke="none" /><line stroke="#e1ed5e" stroke-width="0.3" x1="143.8653032363475" x2="146.44561519142675" y1="172.8068346515853" y2="177.08958963109032" /><path d="M 144.38136562736335 173.6633856474863 a86.0,86.0 0 0,1 -40.68145358897372,12.25698825130547" fill="none" id="id54" stroke="none" /><text fill="#e1ed5e" style="font-size:6.75px; font-family:Arial;" text-anchor="middle"><textPath startOffset="21.466115282336833" xlink:href="#id54">June</textPath></text><path d="M 110.8373102113329 117.98757091392108 l 4.622802036738634 7.67284296890379 a29.95783555867885,29.95783555867885 0 0,0 -0.4439924257290122,0.2623185511199497 l -4.49004173998124 -7.75128009231749" fill="#ff5507" stroke="none" /><path d="M 110.5260780823613 118.17145234162733 l 1.6096096913013471 2.7787125998159565 a24.211243851018974,24.211243851018974 0 0,0 -0.3624206837590167,0.20579192283719785 l -1.5615402406211314 -2.806007688447783" fill="#ff0000" stroke="none" /><path d="M 107.2578585660854 119.70592522655815 l 1.1088253353949171 3.010588998070093 a24.208292340126494,24.208292340126494 0 0,0 -0.3922670644715271,0.14065301312582532 l -1.0568387102936554 -3.0292295522358783" fill="#ff0000" stroke="none" /><path d="M 106.2309692047433 120.05430185196036 l 0.9957290211936948 3.2047422636231797 a24.355867884750527,24.355867884750527 0 0,0 -0.4014369235304415,0.12094965202242482 l -0.9404171232230074 -3.22140728475133" fill="#ff0200" stroke="none" /><path d="M 103.41894727170886 120.7198165907248 l 1.4502294962779112 8.788813277696054 a29.907659873506674,29.907659873506674 0 0,0 -0.5086639766767246,0.0794428519538689 l -1.2987296559926693 -8.812474436997029" fill="#ff5407" stroke="none" /><path d="M 102.34483914955558 120.86867818915974 l 1.0094507821628627 8.983943962529345 a30.040477863668308,30.040477863668308 0 0,0 -0.5143607915317184,0.05331559913665369 l -0.8546573940255415 -8.999988930121757" fill="#ff5608" stroke="none" /><line stroke="#e1ed5e" stroke-width="0.3" x1="102.19456741930631" x2="102.32365962044197" y1="184.97166512339345" y2="189.96999836594603" /><path d="M 102.22038585953345 185.97133177190398 a86.0,86.0 0 0,1 -42.740103519485714,-10.115201625700543" fill="none" id="id55" stroke="none" /><text fill="#e1ed5e" style="font-size:6.75px; font-family:Arial;" text-anchor="middle"><textPath startOffset="22.20632615414155" xlink:href="#id55">July</textPath></text><line stroke="#e1ed5e" stroke-width="0.3" x1="58.666819895761336" x2="56.23545636021788" y1="174.27360380694188" y2="178.64263932499728" /><path d="M 58.180547188652646 175.14741091055294 a86.0,86.0 0 0,1 -31.652253787137756,-30.449443065178592" fill="none" id="id56" stroke="none" /><text fill="#e1ed5e" style="font-size:6.75px; font-family:Arial;" text-anchor="middle"><textPath startOffset="22.20632615414155" xlink:href="#id56">August</textPath></text><path d="M 89.1626897886671 117.98757091392108 l -4.645649493262875 7.710764762819294 a30.002108222066056,30.002108222066056 0 0,0 -0.44006063706086884,-0.2703211854799067 l 4.777689330256052 -7.629655110511009" fill="#ff5507" stroke="none" /><path d="M 88.24862548938628 117.40417183066458 l -5.032528198712576 7.453339644137031 a29.993253689388617,29.993253689388617 0 0,0 -0.425394481863976,-0.29259020358002 l 5.160079565199442 -7.36560865119191" fill="#ff5507" stroke="none" /><path d="M 87.95078237400918 117.19931262002967 l -5.346364026036966 7.63151510069342 a30.317919887561487,30.317919887561487 0 0,0 -0.42484453806552824,-0.303115297587657 l 5.47693589195138 -7.538355541261544" fill="#ff5a08" stroke="none" /><path d="M 86.79598089348748 116.32954008644616 l -5.849482533201333 7.234112488050361 a30.30316233309909,30.30316233309909 0 0,0 -0.40278656222511316,-0.3314659191417183 l 5.973139223971135 -7.132351450051462" fill="#ff5a08" stroke="none" /><path d="M 85.70375840098266 115.38237550388516 l -6.064097982548744 6.524808049293802 a29.907659873506674,29.907659873506674 0 0,0 -0.3740795488570417,-0.3537155623125064 l 6.175513365796602 -6.419457850235365" fill="#ff5407" stroke="none" /><path d="M 85.44109423537348 115.13401014063109 l -6.300333218451871 6.549208323682802 a30.087702037948,30.087702037948 0 0,0 -0.3701504406860371,-0.3622701125519782 l 6.412133611513703 -6.439788108208254" fill="#ff5708" stroke="none" /><path d="M 84.43433777217949 114.09645910891817 l -10.827050227053222 9.805112597334647 a35.60702740688686,35.60702740688686 0 0,0 -0.4075159013130635,-0.4578484351716395 l 10.994224978014623 -9.617289992422144" fill="#ffa40f" stroke="none" /><path d="M 84.19399662182784 113.82643327865904 l -11.171945325204192 9.77275234833117 a35.84314827828531,35.84314827828531 0 0,0 -0.4022241129687228,-0.4678775133917605 l 11.338511947743694 -9.578997735777879" fill="#ffa70f" stroke="none" /><path d="M 83.95833913139862 113.55231037782056 l -7.0592326324091275 5.9637784670353025 a30.24118060435699,30.24118060435699 0 0,0 -0.332514741404192,-0.40053542650912205 l 7.1608433737068555 -5.8413817834124195" fill="#ff5908" stroke="none" /><path d="M 83.72743513129214 113.27417163493432 l -7.8721248458316815 6.421602075536744 a31.15910049191848,31.15910049191848 0 0,0 -0.3354530713193019,-0.4185292847384839 l 7.981495829205844 -6.285144957220001" fill="#ff6609" stroke="none" /><path d="M 83.06392112726016 112.41649034213515 l -7.221934406169031 5.294677680679975 a29.954884047786365,29.954884047786365 0 0,0 -0.3012893727589543,-0.41846458724896674 l 7.312003571303593 -5.16957948797987" fill="#ff5507" stroke="none" /><path d="M 82.44556493220864 111.52570212397912 l -25.099264644362833 16.47940515913416 a51.0257203092059,51.0257203092059 0 0,0 -0.475742279963125,-0.7383625833531977 l 25.379211787703003 -16.044920975859515" fill="#9aff23" stroke="none" /><path d="M 82.05923443525364 110.91462005526583 l -7.6730498402702985 4.668051838112988 a29.98144764581869,29.98144764581869 0 0,0 -0.26443511801227837,-0.4432084680681494 l 7.752265833980808 -4.535281276158727" fill="#ff5507" stroke="none" /><line stroke="#e1ed5e" stroke-width="0.3" x1="26.63291911575756" x2="22.317208475507996" y1="142.92168965132927" y2="145.44649492493687" /><path d="M 25.769776987707644 143.4266507060508 a86.0,86.0 0 0,1 -11.730757126820373,-40.83630448921669" fill="none" id="id57" stroke="none" /><text fill="#e1ed5e" style="font-size:6.75px; font-family:Arial;" text-anchor="middle"><textPath startOffset="21.46611528233685" xlink:href="#id57">September</textPath></text><path d="M 81.87401531095188 110.60418214915194 l -7.81086002201287 4.569560431384377 a30.049332396345747,30.049332396345747 0 0,0 -0.25734821183030887,-0.44870829927147954 l 7.8883602299955555 -4.434432286254591" fill="#ff5608" stroke="none" /><path d="M 81.69416730710424 110.29060199501025 l -51.798045253880304 29.118209303533874 a80.4214406184118,80.4214406184118 0 0,0 -0.6679712585592873,-1.212561859652763 l 52.29159292189111 -28.22227692548329" fill="#48f4ff" stroke="none" /><path d="M 81.35079622478065 109.6543875284942 l -7.981282571404487 4.131779342834129 a29.987350667603653,29.987350667603653 0 0,0 -0.23336060646121295,-0.4604426154744512 l 8.051221847651966 -3.993782515656992" fill="#ff5507" stroke="none" /><path d="M 81.18737489456691 109.33194174019688 l -16.55722535632073 8.2131580009997 a39.48236120871398,39.48236120871398 0 0,0 -0.2967696256169929,-0.6114333290305531 l 16.69614823855244 -7.926935716003862" fill="#ffd714" stroke="none" /><path d="M 80.87730276802145 108.67885076344099 l -14.86275694909927 6.745473608127713 a37.32185523541813,37.32185523541813 0 0,0 -0.2604690771009087,-0.5872890070344147 l 14.976667110931459 -6.488636264600602" fill="#ffbb11" stroke="none" /><path d="M 79.4281124754447 104.21870165774334 l -17.405869697515506 3.5694425832206473 a38.76809557273366,38.76809557273366 0 0,0 -0.1284332860667071,-0.6548785586735647 l 17.464732916557878 -3.269300297479128" fill="#ffce13" stroke="none" /><path d="M 79.07016306316243 101.71520430193888 l -8.902167115966929 0.7295343666539054 a29.93200983836964,29.93200983836964 0 0,0 -0.037662224096318926,-0.5138711250178813 l 8.913405898727582 -0.5761901051392634" fill="#ff5407" stroke="none" /><path d="M 79.0235259727143 100.99374915477108 l -8.894732556615736 0.4213831623252768 a29.904708362614194,29.904708362614194 0 0,0 -0.019933434989688383,-0.5143933848565263 l 8.900668124456624 -0.26821253045475374" fill="#ff5407" stroke="none" /><line stroke="#e1ed5e" stroke-width="0.3" x1="15.007084014347285" x2="10.007500721073583" y1="101.09737516637583" y2="101.16192664675087" /><path d="M 14.007167355692545 101.11028546245083 a86.0,86.0 0 0,1 10.666146001902534,-42.60595125391555" fill="none" id="id58" stroke="none" /><text fill="#e1ed5e" style="font-size:6.75px; font-family:Arial;" text-anchor="middle"><textPath startOffset="22.20632615414155" xlink:href="#id58">October</textPath></text><path d="M 79.00175016825051 100.2711162175752 l -8.924625086607234 0.11522915557939817 a29.92536893886156,29.92536893886156 0 0,0 -0.0022169036938480603,-0.5151303444122186 l 8.925286287590586 0.0384106670364958" fill="#ff5407" stroke="none" /><path d="M 79.00486145842228 99.54816195383935 l -8.870187836399522 -0.19089601781572857 a29.87224174279691,29.87224174279691 0 0,0 0.015488480732876503,-0.5139872716671302 l 8.865587661211 0.3435534369078532" fill="#ff5407" stroke="none" /><path d="M 79.08570108090925 98.10471618934814 l -9.179951584584742 -0.8319003992502798 a30.217568517217146,30.217568517217146 0 0,0 0.05140278106329484,-0.5176189903932596 l 9.164271677839219 0.9897949203479698" fill="#ff5908" stroke="none" /><path d="M 79.12142395522702 97.74499172005258 l -9.049828323553044 -0.9774343689891577 a30.1024595924104,30.1024595924104 0 0,0 0.0600754026305547,-0.514689362308466 l 9.0316625679189 1.1330674696224854" fill="#ff5708" stroke="none" /><path d="M 79.21141760316559 97.0276538004421 l -4.639812908808581 -0.6633992642161561 a25.686999297259312,25.686999297259312 0 0,0 0.06635087271929063,-0.43716934994400886 l 4.627706142649989 0.743167726552257" fill="#ff1602" stroke="none" /><path d="M 79.26566170972629 96.67025291283419 l -6.565630944200518 -1.0543809117898204 a27.64975404075896,27.64975404075896 0 0,0 0.07951034171167262,-0.4692745376046836 l 6.546508740968623 1.167241237710332" fill="#ff3304" stroke="none" /><path d="M 79.3925641242962 95.95851677861259 l -35.0184489386907 -6.867738163950333 a56.685537596626844,56.685537596626844 0 0,0 0.19602588817638514,-0.9558918479252505 l 34.89504375459933 7.469505668038987" fill="#5cff2a" stroke="none" /><path d="M 79.62865764111835 94.90015583598534 l -15.10952340640351 -3.7825791451388664 a36.57580182712579,36.57580182712579 0 0,0 0.15815318908036838,-0.6094287522727481 l 15.042173885452835 4.042104322960478" fill="#ffb110" stroke="none" /><path d="M 79.71946130924805 94.55025226153421 l -16.043659095431153 -4.311221521542342 a37.612815179198876,37.612815179198876 0 0,0 0.1734008621708976,-0.623815160643209 l 15.967071462693893 4.586747985604494" fill="#ffbf11" stroke="none" /><path d="M 79.81627453868168 94.20196356495316 l -9.214984111214587 -2.6471234821140994 a30.587658468025296,30.587658468025296 0 0,0 0.14972528150829334,-0.5047992168214733 l 9.168052932594586 2.805352085682112" fill="#ff5e08" stroke="none" /><path d="M 79.91906864156998 93.8553929516997 l -16.011120674121365 -4.899276990162703 a37.74392129304287,37.74392129304287 0 0,0 0.1954497362715684,-0.6196290754376685 l 15.924415454081593 5.174156232026787" fill="#ffc011" stroke="none" /><path d="M 80.2630227832202 92.82701384747504 l -5.878096236452061 -2.1362695231483326 a27.25425158116655,27.25425158116655 0 0,0 0.16403868303246252,-0.43954211562488565 l 5.840452964917971 2.2371347758025597" fill="#ff2e04" stroke="none" /><path d="M 80.38941819471856 92.48833698450439 l -8.602196179098154 -3.2949965244359554 a30.211665495432186,30.211665495432186 0 0,0 0.1901989070148995,-0.4840354723664042 l 8.544203722201564 3.442581001698123" fill="#ff5808" stroke="none" /><path d="M 80.52162464483688 92.15188598940014 l -8.459801991744826 -3.408574346048538 a30.120670414617006,30.120670414617006 0 0,0 0.19790472826979072,-0.47924199716753074 l 8.399875576588835 3.55369091366938" fill="#ff5708" stroke="none" /><path d="M 80.65960295795068 91.81776055985345 l -7.549142749849528 -3.1937758781693577 a29.19693605059733,29.19693605059733 0 0,0 0.19980337879047555,-0.4611737458777853 l 7.493048661216372 3.323248768633742" fill="#ff4a06" stroke="none" /><path d="M 80.95270993114464 91.15688171328213 l -8.134705398949926 -3.7767137377794806 a29.968667603654254,29.968667603654254 0 0,0 0.22125696921079732,-0.4660236047200559 l 8.068490235897377 3.9161797581400686" fill="#ff5507" stroke="none" /><path d="M 81.10775173730289 90.83032412892265 l -13.437048514173437 -6.52190135475816 a35.936179901616306,35.936179901616306 0 0,0 0.2748946416142605,-0.5541708231959416 l 13.322793859605763 6.752231766453063" fill="#ffa80f" stroke="none" /><path d="M 81.43458229118936 90.18545643968196 l -7.976736744319623 -4.216874162177407 a30.02276879831342,30.02276879831342 0 0,0 0.24546029722413276,-0.4548006517979041 l 7.902968347877018 4.353555797307784" fill="#ff5607" stroke="none" /><path d="M 81.6062741919709 89.86733742301443 l -7.848679065801318 -4.323649133341981 a29.960787069571328,29.960787069571328 0 0,0 0.25272973763043377,-0.44957800290260036 l 7.773091686878454 4.458110646179366" fill="#ff5507" stroke="none" /><line stroke="#e1ed5e" stroke-width="0.3" x1="26.266209847984243" x2="21.928928074336255" y1="57.711370442889674" y2="55.22380399835377" /><path d="M 25.398753493254645 57.213857153982495 a86.0,86.0 0 0,1 29.58750427330803,-30.492523968695096" fill="none" id="id59" stroke="none" /><text fill="#e1ed5e" style="font-size:6.75px; font-family:Arial;" text-anchor="middle"><textPath startOffset="21.46611528233685" xlink:href="#id59">November</textPath></text><path d="M 81.78341655067845 89.55222093294921 l -8.745112193770222 -5.015594739335492 a31.081328179901618,31.081328179901618 0 0,0 0.27017122685018585,-0.46181020397687833 l 8.657481292449711 5.165384355666261" fill="#ff6509" stroke="none" /><path d="M 81.96595687620814 89.24020034530311 l -5.1301339820878065 -3.06083408307892 a26.973858046380887,26.973858046380887 0 0,0 0.24133151362786556,-0.39668555455524196 l 5.076686670173724 3.148687410841237" fill="#ff2904" stroke="none" /><path d="M 82.15384107792192 88.93136811851018 l -8.72869051986391 -5.413751081881177 a31.271257905832748,31.271257905832748 0 0,0 0.2876544789562931,-0.45500030533631575 l 8.634208444661654 5.563199034931708" fill="#ff6809" stroke="none" /><path d="M 82.34701348167596 88.62581576622439 l -12.691542085338439 -8.17742299522591 a36.097863668306395,36.097863668306395 0 0,0 0.3410446480087179,-0.5194343966456696 l 12.5489008019718 8.394675455849246" fill="#ffaa0f" stroke="none" /><path d="M 82.95767976084542 87.72973835380427 l -6.246854699046403 -4.497658801585169 a28.6975404075896,28.6975404075896 0 0,0 0.29208272923822104,-0.3984005144317637 l 6.168509357294548 4.604521759688433" fill="#ff4306" stroke="none" /><path d="M 84.07557802195018 86.31012108654704 l -7.138080186388573 -6.136452146324279 a30.413194659170763,30.413194659170763 0 0,0 0.3446946563558817,-0.3940455787110523 l 7.031393666454847 6.258413281238275" fill="#ff5b08" stroke="none" /><path d="M 84.5562425177563 85.77008943001954 l -8.711516457057112 -8.026809554304526 a32.845682361208716,32.845682361208716 0 0,0 0.3866917148509233,-0.4124957601028532 l 8.572057420235733 8.17557473128543" fill="#ff7e0b" stroke="none" /><path d="M 84.80347519578584 85.50635884689758 l -17.77021593409161 -16.94829155218722 a45.556570625439214,45.556570625439214 0 0,0 0.5461055642645632,-0.5628097880089729 l 17.475846106123928 17.25166553574632" fill="#daff1b" stroke="none" /><path d="M 85.57189188830299 84.74124197986013 l -7.85779304672106 -8.310179113161063 a32.43695713281799,32.43695713281799 0 0,0 0.40900240583116243,-0.3801231615276075 l 7.7135827570950415 8.444206860763318" fill="#ff780b" stroke="none" /><path d="M 85.83668400450813 84.49514656593479 l -19.375356563002263 -21.21057412245294 a49.727911454673226,49.727911454673226 0 0,0 0.6369648471955968,-0.5718733289589105 l 19.007380728210695 21.54094646018113" fill="#a9ff21" stroke="none" /><path d="M 86.37877921826538 84.01681056812374 l -5.716566955851443 -6.707840216340894 a29.813300070274067,29.813300070274067 0 0,0 0.39345387680251825,-0.3295063066943611 l 5.600255542089814 6.805247680429067" fill="#ff5307" stroke="none" /><path d="M 86.65592168130627 83.78471172551755 l -6.170346826212562 -7.4980039948063615 a30.710470836261422,30.710470836261422 0 0,0 0.4110766181217671,-0.33239537005856395 l 6.040366809526295 7.60310546212906" fill="#ff6008" stroke="none" /><path d="M 87.22198572758235 83.33499621200491 l -38.334042817252964 -49.99501136398527 a84.0,84.0 0 0,0 1.1550153849664402,-0.8699336419765826 l 37.467781278528136 50.64746159546771" fill="#4dd2ff" stroke="none" /><path d="M 87.80319425747018 82.90503203632743 l -4.057807843887169 -5.68739853354443 a27.986580463808856,27.986580463808856 0 0,0 0.39456928499381355,-0.2764209994000232 l 3.9593074193096953 5.756404375708396" fill="#ff3805" stroke="none" /><path d="M 88.39885842347998 82.49532879139004 l -5.492207064443925 -8.287053324758626 a30.941810260014055,30.941810260014055 0 0,0 0.44649470431953897,-0.29041257574763374 l 5.348745334340099 8.380364824665794" fill="#ff6309" stroke="none" /><path d="M 88.70189139769569 82.29822771554957 l -4.21189995252032 -6.599165972718276 a28.828735066760366,28.828735066760366 0 0,0 0.42059868027571923,-0.26337885500285946 l 4.097682119872359 6.670689169044066" fill="#ff4506" stroke="none" /><line stroke="#e1ed5e" stroke-width="0.3" x1="56.762969772571076" x2="54.21961505331055" y1="26.818313649435495" y2="22.513508569990535" /><path d="M 56.25429882871897 25.957352633546506 a86.0,86.0 0 0,1 42.265352541879196,-11.944610805530505" fill="none" id="id60" stroke="none" /><text fill="#e1ed5e" style="font-size:6.75px; font-family:Arial;" text-anchor="middle"><textPath startOffset="22.20632615414155" xlink:href="#id60">December</textPath></text><path d="M 89.3179101791058 81.91981866633112 l -4.52656371187576 -7.661524486438744 a29.898805340829234,29.898805340829234 0 0,0 0.4453544764759391,-0.2579780584172624 l 4.3940125029345 7.738306702246054" fill="#ff5407" stroke="none" /><path d="M 89.63071344664047 81.73862282372117 l -5.417096011080443 -9.540061695604836 a31.970765987350667,31.970765987350667 0 0,0 0.48089499187232637,-0.26761754232299095 l 5.252076930136071 9.631894635488012" fill="#ff710a" stroke="none" /><path d="M 89.94658935756843 81.56283822128135 l -14.228790607067593 -26.09447914430032 a50.7217146872804,50.7217146872804 0 0,0 0.7701366655532078,-0.41138033521678646 l 13.77750889498608 26.335538206018853" fill="#9dff22" stroke="none" /><path d="M 91.23893434514133 80.91482961587045 l -5.959741077936189 -12.982744154488692 a35.285312719606466,35.285312719606466 0 0,0 0.5541774804960945,-0.24864328161277538 l 5.73538147897332 13.083407766617995" fill="#ff9f0e" stroke="none" /><path d="M 91.56875222667455 80.76684994638697 l -11.84996173341595 -27.031834228549577 a50.515108924806746,50.515108924806746 0 0,0 0.7993805320335733,-0.3422530258491799 l 11.382897443592068 27.23180678236154" fill="#a0ff22" stroke="none" /><path d="M 91.90106846888425 80.62456947434976 l -17.119877755162467 -40.95663740067175 a65.39072382290934,65.39072382290934 0 0,0 1.042253811562815,-0.4251614991711668 l 16.412340074011272 41.245259786026494" fill="#35ff66" stroke="none" /><path d="M 92.23578459929587 80.48803036053334 l -3.3348478235490995 -8.380685765033045 a30.019817287420942,30.019817287420942 0 0,0 0.4817706575949813,-0.18691953039061152 l 3.190094000954442 8.436847999314208" fill="#ff5607" stroke="none" /><path d="M 92.57280143429618 80.3572730644239 l -3.995874583505732 -10.56789752128758 a32.2981180604357,32.2981180604357 0 0,0 0.5217186900182842,-0.19215339649887797 l 3.813373567714878 10.63511418559278" fill="#ff760a" stroke="none" /><path d="M 92.91201910852362 80.23233633223022 l -12.203480804017666 -34.03427687001825 a57.156008432888264,57.156008432888264 0 0,0 0.928970202574066,-0.32409946287001506 l 11.615828597380315 34.239297186060476" fill="#57ff2a" stroke="none" /><path d="M 93.94186890950719 79.89281104454417 l -0.9323476520154076 -3.0945006192865954 a24.23190442726634,24.23190442726634 0 0,0 0.40041466092631217,-0.11689201961735525 l 0.8789427733656741 3.1100909678226496" fill="#ff0000" stroke="none" /><path d="M 94.28887869178378 79.79150937346287 l -11.949335366714008 -42.28207014342165 a64.93813914265635,64.93813914265635 0 0,0 1.0782888661394228,-0.2947370797138042 l 11.219748611350864 42.48149376396175" fill="#34ff60" stroke="none" /><path d="M 94.98787191387505 79.60689891045804 l -3.9160112481754874 -15.933274624984364 a37.40744905130007,37.40744905130007 0 0,0 0.6266216432096758,-0.1483010976144204 l 3.6411659180032774 15.998321634739655" fill="#ffbc11" stroke="none" /><path d="M 95.33964822691252 79.52364482259891 l -3.5147501917621127 -15.442884312288717 a36.8378074490513,36.8378074490513 0 0,0 0.6195018917554328,-0.13539911880048752 l 3.248405575853159 15.501096929185072" fill="#ffb410" stroke="none" /><path d="M 96.04723909329186 79.375362276772 l -1.8005478705047206 -9.394863086575123 a30.56584680252987,30.56584680252987 0 0,0 0.51758877383815,-0.09458604007474013 l 1.6385639755636774 9.4244646080006" fill="#ff5e08" stroke="none" /><path d="M 97.11714578562143 79.19881850522333 l -1.0664332104349112 -7.694829191040368 a28.768376669009136,28.768376669009136 0 0,0 0.49109711050371196,-0.06375849952482918 l 0.9338213714233414 7.712046013729334" fill="#ff4406" stroke="none" /></svg>