<?xml version="1.0" encoding="utf-8" ?>
<svg baseProfile="full" height="200mm" version="1.1" viewBox="0,0,200,200" width="200mm" xmlns="http://www.w3.org/2000/svg" xmlns:ev="http://www.w3.org/2001/xml-events" xmlns:xlink="http://www.w3.org/1999/xlink"><defs /><rect fill="#1a1a1a" height="200" width="200" x="0" y="0" /><text alignment-baseline="middle" fill="#e1ed5e" style="dominant-baseline: central; font-size:9.0px; font-family:Arial;" text-anchor="middle" x="100.0" y="100.0">2022</text><line stroke="#e1ed5e" stroke-width="0.3" x1="100.0" x2="100.0" y1="15.0" y2="10.0" /><path d="M 100.0 14.0 a86.0,86.0 0 0,1 42.46469731375804,11.215312516191453" fill="none" id="id85" stroke="none" /><text fill="#e1ed5e" style="font-size:6.75px; font-family:Arial;" text-anchor="middle"><textPath startOffset="22.20632615414155" xlink:href="#id85">January</textPath></text><path d="M 100.0 79.0 l 0.0 -38.092882381734334 a59.092882381734334,59.092882381734334 0 0,0 1.0171868307116416,0.00875524818927851 l -0.6557063514391133 38.08723851015362" fill="#38ff2e" stroke="none" /><path d="M 100.36148047927253 79.00311137660856 l 0.11946446719501223 -6.93919106557161 a27.940219333957035,27.940219333957035 0 0,0 0.4808024321002602,0.012417708315803945 l -0.2388935344901402 6.9361065651134455" fill="#ff5908" stroke="none" /><path d="M 100.72285384407766 79.0124445844662 l 0.15048880811178555 -4.369337211858842 a25.37192801316551,25.37192801316551 0 0,0 0.43634782866250743,0.01879005538424732 l -0.22567746916362455 4.366099429950401" fill="#ff3605" stroke="none" /><path d="M 101.08401301168833 79.027996857942 l 0.5151012575442605 -9.965475575677134 a30.978779121462765,30.978779121462765 0 0,0 0.5323009136970872,0.03210984476494953 l -0.6865642200809595 9.95513246153188" fill="#ff820c" stroke="none" /><path d="M 101.44485096284872 79.0497635885617 l 0.687602294525991 -9.970184467306375 a30.993866880620068,30.993866880620068 0 0,0 0.531928271113004,0.0412878714167133 l -0.8591207550013361 9.956871333701196" fill="#ff820c" stroke="none" /><path d="M 101.80526077348638 79.07773832637324 l 0.40622482316115127 -4.707985778745171 a25.725478674147105,25.725478674147105 0 0,0 0.44085492230482487,0.0418644869416844 l -0.48720487255622036 4.700295747288308" fill="#ff3b05" stroke="none" /><path d="M 102.16513564639614 79.11191278185805 l 0.1962411443150997 -1.8932310985063399 a22.903374524121205,22.903374524121205 0 0,0 0.39179308243102084,0.044022517855804 l -0.22880093025584583 1.889572627179935" fill="#ff1202" stroke="none" /><path d="M 102.52436894288641 79.15227682838746 l 0.7692310591671377 -6.352762428690848 a27.39916454685871,27.39916454685871 0 0,0 0.4677236638685163,0.06072395532916862 l -0.8784694515435002 6.338580150197543" fill="#ff5207" stroke="none" /><path d="M 102.88285421437855 79.19881850522331 l 3.7372130509254227 -26.965791946473928 a48.223532039184875,48.223532039184875 0 0,0 0.8212490919288129,0.12103076817644189 l -4.200831123282891 26.897466694136515" fill="#a9ff21" stroke="none" /><path d="M 103.2404852339499 79.25152402106235 l 0.8553419510051684 -5.476661870968043 a26.543052868416872,26.543052868416872 0 0,0 0.4508157970512406,0.07438846925225942 l -0.9494869541952842 5.461127138776159" fill="#ff4606" stroke="none" /><path d="M 103.59715602781102 79.31037775812273 l 0.9720921563972192 -5.591144599971439 a26.675020801575865,26.675020801575865 0 0,0 0.4517032162724755,0.08254587555949736 l -1.0681904937725957 5.5735832430612025" fill="#ff4806" stroke="none" /><path d="M 103.95276090670814 79.375362276772 l 2.0652807406133697 -10.776181023148348 a31.972304315011094,31.972304315011094 0 0,0 0.5396218388561478,0.10824306437585193 l -2.250468988936643 10.739034002695288" fill="#ff8f0d" stroke="none" /><path d="M 104.307194497241 79.44645832069477 l 3.920873122168261 -18.71005109877762 a40.11646562937331,40.11646562937331 0 0,0 0.6746391294408621,0.14744998336612222 l -4.242354975762652 18.639787617315626" fill="#fff717" stroke="none" /><path d="M 104.66035177308747 79.52364482259891 l 0.201292877648102 -0.8844277552621375 a21.907045355464586,21.907045355464586 0 0,0 0.3669704592709574,0.0868500513694202 l -0.21648702388158292 0.8808317917518486" fill="#ff0400" stroke="none" /><path d="M 105.01212808612495 79.60689891045804 l 2.375678474711668 -9.666044135057266 a30.95370571375723,30.95370571375723 0 0,0 0.5163241892280338,0.13162253227186269 l -2.5417115526247267 9.623718606616537" fill="#ff820c" stroke="none" /><path d="M 105.36241919743992 79.69619591428918 l 2.5516989353117387 -9.661533975751222 a30.992817731804493,30.992817731804493 0 0,0 0.5146314743802395,0.14066822226468906 l -2.7176282989156895 9.61617921266024" fill="#ff820c" stroke="none" /><path d="M 105.71112130821622 79.79150937346287 l 3.1344246692921782 -11.090990390600131 a32.52539308882139,32.52539308882139 0 0,0 0.5374585511529456,0.15689888916541234 l -3.324873438168551 11.035393172516015" fill="#ff970d" stroke="none" /><path d="M 106.0581310904928 79.89281104454417 l 2.702786174938154 -8.970659682647195 a30.36898010721064,30.36898010721064 0 0,0 0.49922934042220635,0.15511298619308708 l -2.8568008880710787 8.922806561571587" fill="#ff7a0b" stroke="none" /><path d="M 106.40334571778207 80.00007090966166 l 8.435727217599345 -26.34778030317901 a48.665267405075525,48.665267405075525 0 0,0 0.7956010600156477,0.2622971607385182 l -8.88801109985741 26.198669418181257" fill="#a4ff21" stroke="none" /><path d="M 106.74666289553966 80.11325718540242 l 12.063424310661397 -35.55864883779672 a58.54921721246394,58.54921721246394 0 0,0 0.9516143563153464,0.33199956348072907 l -12.673720671040016 35.345728421143775" fill="#3dff2e" stroke="none" /><path d="M 107.08798089147638 80.2323363322302 l 9.629679105962454 -26.856203580363477 a49.53044672685196,49.53044672685196 0 0,0 0.800076330577525,0.29467486467360976 l -10.090537762312556 26.686465447883542" fill="#9bff22" stroke="none" /><path d="M 107.4271985657038 80.35727306442388 l 7.300300844511549 -19.307120277954713 a41.641203594940535,41.641203594940535 0 0,0 0.6682755543414927,0.25928053280084123 l -7.631559563852709 19.178597041263323" fill="#f5ff19" stroke="none" /><path d="M 107.76421540070413 80.48803036053334 l 2.38299792279024 -5.988626116191789 a27.445333339677394,27.445333339677394 0 0,0 0.43744741777683976,0.17844578536170558 l -2.4857292101554673 5.9467194446465035" fill="#ff5207" stroke="none" /><path d="M 108.09893153111575 80.62456947434976 l 3.181631752734071 -7.611557740235546 a29.249763138596485,29.249763138596485 0 0,0 0.46286530341627324,0.19817476696838424 l -3.3121808139406594 7.555663445304371" fill="#ff6b09" stroke="none" /><path d="M 108.43124777332544 80.76684994638697 l 5.800025297277469 -13.230871616680137 a35.44632331031431,35.44632331031431 0 0,0 0.5567062505880692,0.24977786704116597 l -6.026913666332319 13.12907341912244" fill="#ffbd11" stroke="none" /><path d="M 108.76106565485865 80.91482961587045 l 4.1692496659863725 -9.0823243865542 a30.993560878882192,30.993560878882192 0 0,0 0.4829413537610779,0.2267474411273901 l -4.3249692310470484 9.009211962786807" fill="#ff820c" stroke="none" /><path d="M 109.41281617654863 81.2277094730956 l 4.916899502336624 -9.805935250219528 a31.969606503771047,31.969606503771047 0 0,0 0.48980407659536407,0.25089667212569355 l -5.084964066520743 9.719846052781334" fill="#ff8f0d" stroke="none" /><path d="M 110.05341064243156 81.56283822128135 l 10.032734147230029 -18.39924271815243 a41.95681004042554,41.95681004042554 0 0,0 0.6311021710071906,0.3512076748856788 l -10.347960407309253 18.22381964570657" fill="#f1ff19" stroke="none" /><path d="M 110.36928655335952 81.73862282372117 l 2.0924661924220715 -3.6850475846914934 a25.23768692423944,25.23768692423944 0 0,0 0.37592528261519786,0.21776018798874738 l -2.1555882075025976 3.6484832393126965" fill="#ff3404" stroke="none" /><line stroke="#e1ed5e" stroke-width="0.3" x1="143.23703022742887" x2="145.7803849466894" y1="26.81831364943548" y2="22.513508569990506" /><path d="M 143.74570117128098 25.957352633546492 a86.0,86.0 0 0,1 28.547481713284135,27.462654790039103" fill="none" id="id86" stroke="none" /><text fill="#e1ed5e" style="font-size:6.75px; font-family:Arial;" text-anchor="middle"><textPath startOffset="19.985693538727396" xlink:href="#id86">February</textPath></text><path d="M 110.99172775467656 82.1063720568725 l 0.7674341642543069 -1.2493196440540524 a22.46620420456499,22.46620420456499 0 0,0 0.32777212796059263,0.2052508764590503 l -0.7888254445871627 1.2359244262720577" fill="#ff0c01" stroke="none" /><path d="M 111.2981086023043 82.29822771554956 l 1.0309767769567564 -1.6153248989413125 a22.916295291379672,22.916295291379672 0 0,0 0.33068538667392755,0.21508697410518457 l -1.0586291894149642 1.5973390006766" fill="#ff1302" stroke="none" /><path d="M 111.60114157652 82.49532879139004 l 5.711169515954756 -8.61744026947844 a31.338168795197703,31.338168795197703 0 0,0 0.4470842027112681,0.3018732494115254 l -5.858658413072566 8.517855107768243" fill="#ff870c" stroke="none" /><path d="M 111.90073688211348 82.69761687909136 l 3.6096605527046277 -5.2480556824339 a27.36959478708643,27.36959478708643 0 0,0 0.38587070184142513,0.27032708601194766 l -3.699462394129704 5.185143753658017" fill="#ff5107" stroke="none" /><path d="M 112.19680574252982 82.90503203632743 l 5.659107988389456 -7.93177097403007 a30.743638643172236,30.743638643172236 0 0,0 0.4281486244534463,0.3110681839724229 l -5.794801929196692 7.833183555240972" fill="#ff7f0b" stroke="none" /><path d="M 112.77801427241765 83.33499621200491 l 2.165037225120697 -2.8236275831737876 a24.558125758685065,24.558125758685065 0 0,0 0.3332507784536124,0.2601075185193031 l -2.2133205587337397 2.7859416754312605" fill="#ff2a04" stroke="none" /><path d="M 113.34407831869373 83.78471172551755 l 3.969232410380756 -4.823281625421643 a27.246507149259262,27.246507149259262 0 0,0 0.35957924288603477,0.30113727497162385 l -4.051669190225908 4.7542431930562" fill="#ff5007" stroke="none" /><path d="M 113.6212207817346 84.01681056812373 l 5.674010594246235 -6.657904428648542 a29.747690415454606,29.747690415454606 0 0,0 0.38687041563794616,0.3354902121568464 l -5.787774808530945 6.559249223072024" fill="#ff720a" stroke="none" /><path d="M 113.89432698308785 84.25364557470407 l 8.225640762894622 -9.32206755932523 a33.4323010557506,33.4323010557506 0 0,0 0.4282343639704711,0.38447304019462064 l -8.384886114461082 9.179095510361313" fill="#ffa30f" stroke="none" /><path d="M 114.16331599549186 84.49514656593476 l 5.265703863687935 -5.7644669270712825 a28.807478218564345,28.807478218564345 0 0,0 0.3632377676203576,0.33758991792111287 l -5.364149515103139 5.672972423075529" fill="#ff6509" stroke="none" /><path d="M 114.42810811169701 84.74124197986012 l 6.0469682785765215 -6.3951021855358405 a29.801315658783974,29.801315658783974 0 0,0 0.3697020043575643,0.35565303527746267 l -6.156153526546504 6.290066063496076" fill="#ff730a" stroke="none" /><path d="M 114.68862486808459 84.99185889309783 l 5.403565523718769 -5.521107291436891 a28.72535734401197,28.72535734401197 0 0,0 0.35040038947316915,0.34889565884389423 l -5.497801713359261 5.427275781942878" fill="#ff6409" stroke="none" /><path d="M 114.94478906791727 85.2469230424477 l 8.515761802031264 -8.406521406665796 a32.9661105305636,32.9661105305636 0 0,0 0.39517848129791033,0.4072661621466959 l -8.659204547032283 8.258691048968986" fill="#ff9d0e" stroke="none" /><path d="M 115.19652480421416 85.50635884689758 l 6.512492273196753 -6.211270486913604 a29.99957980519376,29.99957980519376 0 0,0 0.35318459309518435,0.37675269883033724 l -6.6184441882624006 6.098248371205212" fill="#ff750a" stroke="none" /><path d="M 115.4437574822437 85.77008943001954 l 9.894927716952303 -9.117207173872043 a34.45485269986315,34.45485269986315 0 0,0 0.3981280532980737,0.4396229402841231 l -10.050399410866412 8.945531446318371" fill="#ffb010" stroke="none" /><path d="M 116.38621287248628 86.86637796730983 l 1.0800870649622738 -0.8656945557829687 a22.384201983747708,22.384201983747708 0 0,0 0.23838740156312715,0.302727791365516 l -1.0948285471193648 0.8469743704644144" fill="#ff0b01" stroke="none" /><path d="M 116.60985879189232 87.15038557335679 l 6.105092192186137 -4.722983000132081 a28.71872522471352,28.71872522471352 0 0,0 0.29911791298749996,0.3936041112839017 l -6.185486045397751 4.617194112967145" fill="#ff6409" stroke="none" /><path d="M 116.82858285166822 87.43820079747576 l 5.366458307335234 -4.0058258190635945 a27.696679420208486,27.696679420208486 0 0,0 0.2818959953010938,0.3845058207896006 l -5.434616915149955 3.9128575546024997" fill="#ff5607" stroke="none" /><path d="M 117.04232023915458 87.72973835380427 l 3.1852831925261116 -2.2933648494486873 a24.92499061773097,24.92499061773097 0 0,0 0.24769195206795594,0.35034270046823196 l -3.2242877643979506 2.238195648648662" fill="#ff2f04" stroke="none" /><path d="M 117.2510076193507 88.02491185347247 l 6.958924793050038 -4.830659149924288 a29.471239702550847,29.471239702550847 0 0,0 0.2856963509453156,0.4192241419341746 l -7.041045609664087 4.710156984719707" fill="#ff6e0a" stroke="none" /><path d="M 117.45458315368197 88.32363383020206 l 3.9065065907468326 -2.613285060816074 a25.700005590702304,25.700005590702304 0 0,0 0.24280798002454654,0.3698132116753821 l -3.9509112061293044 2.545653785163018" fill="#ff3a05" stroke="none" /><path d="M 117.65298651832404 88.62581576622439 l 2.1408523138699875 -1.3793954133475348 a23.546758790338554,23.546758790338554 0 0,0 0.21659923791173197,0.3426079779568637 l -2.164279148027675 1.342339787676465" fill="#ff1c02" stroke="none" /><line stroke="#e1ed5e" stroke-width="0.3" x1="172.23445277983987" x2="176.4835382374775" y1="55.19839476539836" y2="52.563006222186495" /><path d="M 173.08426987136738 54.67131705675599 a86.0,86.0 0 0,1 12.851231095245387,41.99856678651699" fill="none" id="id87" stroke="none" /><text fill="#e1ed5e" style="font-size:6.75px; font-family:Arial;" text-anchor="middle"><textPath startOffset="22.20632615414155" xlink:href="#id87">March</textPath></text><path d="M 117.84615892207809 88.93136811851018 l 2.759502085080384 -1.7115118659047388 a24.24717178860246,24.24717178860246 0 0,0 0.21693621501516025,0.35658609794783486 l -2.7885540983817685 1.6637579947498227" fill="#ff2603" stroke="none" /><path d="M 118.03404312379186 89.2402003453031 l 4.263202604323723 -2.543589676204588 a25.964347377692977,25.964347377692977 0 0,0 0.22569240107093236,0.3857814726969219 l -4.306354679864983 2.469828791153771" fill="#ff3e05" stroke="none" /><path d="M 118.21658344932153 89.55222093294921 l 3.877230612683179 -2.2237127475640093 a25.469654976349545,25.469654976349545 0 0,0 0.21484546466564192,0.38218610853900375 l -3.914933718641254 2.1566431290902117" fill="#ff3705" stroke="none" /><path d="M 118.3937258080291 89.86733742301442 l 3.6341754414951173 -2.0019801251013294 a25.149115033457974,25.149115033457974 0 0,0 0.20561425538418482,0.3809719878334538 l -3.668097796097767 1.9391271539354171" fill="#ff3204" stroke="none" /><path d="M 118.56541770881063 90.18545643968196 l 6.8118771807674126 -3.6010752015803287 a28.705154984378744,28.705154984378744 0 0,0 0.2271679037181245,0.43881608389190485 l -6.872854517645654 3.483286395428079" fill="#ff6409" stroke="none" /><path d="M 118.73160827565052 90.50648371742162 l 8.359874361784446 -4.2369348219329055 a30.37225245232588,30.37225245232588 0 0,0 0.23233324954844992,0.4683696539226187 l -8.431567624286304 4.092405579511337" fill="#ff7a0b" stroke="none" /><path d="M 119.04729006885535 91.15688171328212 l 5.802301084594355 -2.69384435479975 a27.3971474333621,27.3971474333621 0 0,0 0.19490811182656584,0.4294541883605701 l -5.847811513384268 2.593568157597117" fill="#ff5207" stroke="none" /><path d="M 119.196687751892 91.48605970444005 l 6.638616224861307 -2.9442986682967787 a28.262239326070574,28.262239326070574 0 0,0 0.1934069691336131,0.44640995049313165 l -6.688313903837601 2.8295895732170444" fill="#ff5e08" stroke="none" /><path d="M 119.34039704204932 91.81776055985345 l 4.637144548890935 -1.9618122076347808 a26.035058758875984,26.035058758875984 0 0,0 0.17106064235087806,0.41423691386109196 l -4.67022687812801 1.8817007233203857" fill="#ff3f05" stroke="none" /><path d="M 119.47837535516314 92.15188598940014 l 4.821032951049702 -1.9424626314466993 a26.197645600622828,26.197645600622828 0 0,0 0.16492846315788723,0.41972494912938696 l -4.85375496408929 1.859188677421528" fill="#ff4106" stroke="none" /><path d="M 119.61058180528143 92.48833698450437 l 7.921985129824976 -3.0344475905853256 a29.48326119939597,29.48326119939597 0 0,0 0.1774547110291295,0.4754904006264859 l -7.973044429355731 2.8976340529295066" fill="#ff6e0a" stroke="none" /><path d="M 119.7369772167798 92.82701384747503 l 9.553035140729127 -3.471848197746183 a31.164359808084274,31.164359808084274 0 0,0 0.17889369349519782,0.5057565615947683 l -9.611381915034134 3.3068940097248" fill="#ff850c" stroke="none" /><path d="M 120.08093135843002 93.85539295169968 l 5.835099590544573 -1.785494578494374 a27.102161758049867,27.102161758049867 0 0,0 0.13266392401201266,0.447276800999147 l -5.864969411668287 1.6847883907486974" fill="#ff4e07" stroke="none" /><path d="M 120.18372546131832 94.20196356495316 l 12.920689589045434 -3.711635354275314 a34.44323087875729,34.44323087875729 0 0,0 0.1587885911190884,0.5712470470858326 l -12.982664950730886 3.4886770037705297" fill="#ffb010" stroke="none" /><path d="M 120.28053869075195 94.5502522615342 l 6.756593139848768 -1.815618842531795 a27.996286346255985,27.996286346255985 0 0,0 0.12105549972616213,0.4664762220910897 l -6.786844971445232 1.6990461948918547" fill="#ff5a08" stroke="none" /><path d="M 120.37134235888165 94.90015583598534 l 9.832411922821798 -2.4614857322315205 a31.135839197127567,31.135839197127567 0 0,0 0.12568085239380572,0.5210282723118365 l -9.873325575476423 2.291872228260278" fill="#ff840c" stroke="none" /><path d="M 120.45610955862082 95.25157060432595 l 11.090955634417364 -2.574517877393246 a32.385843806483194,32.385843806483194 0 0,0 0.12137846139264401,0.544115842498684 l -11.133628482812046 2.383223865344598" fill="#ff950d" stroke="none" /><path d="M 120.53481517161879 95.60439243477599 l 3.28708388665614 -0.7036211759861036 a24.36154774430031,24.36154774430031 0 0,0 0.08424536903769084,0.410810338561622 l -3.2987085516088275 0.6469351812610697" fill="#ff2703" stroke="none" /><path d="M 120.6074358757038 95.95851677861258 l 8.079532976295246 -1.5845395398678384 a29.233445127554255,29.233445127554255 0 0,0 0.0925924495371487,0.49463256786263116 l -8.105611149742254 1.4452288945426444" fill="#ff6b09" stroke="none" /><path d="M 120.73433829027371 96.67025291283417 l 6.313395954598707 -1.0138742551437396 a27.394287253852973,27.394287253852973 0 0,0 0.07076088747392521,0.46622583713872967 l -6.3299127355119325 0.9050493056129278" fill="#ff5207" stroke="none" /><path d="M 120.78858239683441 97.02765380044208 l 12.399443179403242 -1.7728692176983496 a33.525544156734746,33.525544156734746 0 0,0 0.07676391889614227,0.5719803592218681 l -12.42812309735722 1.559170516411817" fill="#ffa40f" stroke="none" /><path d="M 120.83666639777658 97.38593545837742 l 7.628917078667049 -0.9570859966568566 a28.688718319601417,28.688718319601417 0 0,0 0.05725400274066511,0.49051733105178086 l -7.644261434411304 0.825624927280223" fill="#ff6309" stroke="none" /><path d="M 120.87857604477298 97.74499172005257 l 3.584385508521261 -0.38713459111894644 a24.605231291517654,24.605231291517654 0 0,0 0.04185569452317044,0.42148113182075325 l -3.59051832872666 0.32537792859375825" fill="#ff2b04" stroke="none" /><path d="M 120.91429891909075 98.10471618934814 l 13.28418703116878 -1.2038321109995982 a34.33862199893777,34.33862199893777 0 0,0 0.04827931140218527,0.5891298861181155 l -13.302940826390461 0.9749883076737139" fill="#ffae10" stroke="none" /><path d="M 120.94382443527127 98.46500227214037 l 8.465008974164665 -0.6204105454480177 a29.48771383692873,29.48771383692873 0 0,0 0.03274457425276653,0.5065440705986852 l -8.474434139421847 0.47460741059629713" fill="#ff6e0a" stroke="none" /><path d="M 120.96714384426684 98.82574320788733 l 4.188383275167956 -0.2345687874975825 a25.194946599871653,25.194946599871653 0 0,0 0.020523553670168594,0.4332197803066795 l -4.191800437071621 0.16243790056790322" fill="#ff3304" stroke="none" /><path d="M 120.98425023603335 99.18683210126433 l 5.094140557595987 -0.1974047929513973 a26.097963973276443,26.097963973276443 0 0,0 0.013531552658409586,0.44904635595103154 l -5.096783804710041 0.10968828957536668" fill="#ff4006" stroke="none" /><line stroke="#e1ed5e" stroke-width="0.3" x1="184.98032266829074" x2="189.97916517819016" y1="98.17113171792111" y2="98.06355123074" /><path d="M 185.9800911702706 98.14961562048488 a86.0,86.0 0 0,1 -9.607161424134198,41.387399972396054" fill="none" id="id88" stroke="none" /><text fill="#e1ed5e" style="font-size:6.75px; font-family:Arial;" text-anchor="middle"><textPath startOffset="21.466115282336823" xlink:href="#id88">April</textPath></text><path d="M 120.99513854157772 99.54816195383933 l 6.229127714518541 -0.13405755290633187 a27.230570079156017,27.230570079156017 0 0,0 0.006051660797141381,0.46870779790278744 l -6.230512382433398 0.026813496943081726" fill="#ff4f07" stroke="none" /><path d="M 120.99980553446 99.90962569577887 l 8.691480467674042 -0.03740446541891191 a29.691560953821394,29.691560953821394 0 0,0 -0.002199582945464116,0.5111056124830474 l -8.690836587439074 -0.11221062526782026" fill="#ff710a" stroke="none" /><path d="M 120.99824983174949 100.27111621757518 l 9.318137825065302 0.12030994498199499 a30.318914475934108,30.318914475934108 0 0,0 -0.011229457916782645,0.5217887840852905 l -9.31468630446351 -0.2806885448574003" fill="#ff790b" stroke="none" /><path d="M 120.9904718944345 100.63252640178507 l 2.867214993915673 0.08640059129526027 a23.8685164952482,23.8685164952482 0 0,0 -0.01590992013996902,0.4105643446716743 l -2.8653029409245008 -0.13574218298094073" fill="#ff2003" stroke="none" /><path d="M 120.9764740272857 100.99374915477107 l 9.72627296946175 0.46077694134403324 a30.737181382009716,30.737181382009716 0 0,0 -0.029586219007729123,0.5282818152807404 l -9.71690039956649 -0.628130472960197" fill="#ff7f0b" stroke="none" /><path d="M 120.95626037817324 101.35467743843564 l 3.7622886507636144 0.2432059661455789 a24.770141248498987,24.770141248498987 0 0,0 -0.031167255912180118,0.42525244442158644 l -3.7575448361870967 -0.3079315470639356" fill="#ff2d04" stroke="none" /><path d="M 120.92983693683757 101.71520430193887 l 7.109821900789974 0.5826513195996621 a28.133656146828496,28.133656146828496 0 0,0 -0.043708185237724795,0.48231618195396037 l -7.098739119275174 -0.7049488901021931" fill="#ff5c08" stroke="none" /><path d="M 120.89721153311464 102.0752229133903 l 3.4493213674633285 0.34253903809432196 a24.466287767721784,24.466287767721784 0 0,0 -0.04522499914075841,0.4187273244544926 l -3.442914066821518 -0.401862684433606" fill="#ff2904" stroke="none" /><path d="M 120.8583938346157 102.4346265915055 l 9.693790234446375 1.131475398555988 a30.759600693009183,30.759600693009183 0 0,0 -0.06591121939785799,0.5253772692281684 l -9.672877505801669 -1.2981704220715513" fill="#ff7f0b" stroke="none" /><path d="M 120.81339534386255 102.79330883721812 l 13.060730121630796 1.7528448514302648 a34.1778274530842,34.1778274530842 0 0,0 -0.08327337980132896,0.582413824378974 l -13.028622690812867 -1.977404147789648" fill="#ffac0f" stroke="none" /><path d="M 120.70491114924044 103.5080841355445 l 5.554417210136775 0.9410986000676935 a26.63357942336069,26.63357942336069 0 0,0 -0.08047596988828641,0.4513519770300787 l -5.5373947979092994 -1.0365693278309906" fill="#ff4706" stroke="none" /><path d="M 120.64145759157962 103.86396538481128 l 3.880824287534692 0.7264685957878327 a24.948234259942677,24.948234259942677 0 0,0 -0.08265001569538308,0.42143064940989866 l -3.8677443388636448 -0.7931629722656763" fill="#ff3004" stroke="none" /><path d="M 120.5718875245553 104.21870165774334 l 8.380995711021404 1.7187008463575637 a29.55540891526696,29.55540891526696 0 0,0 -0.10649230602218282,0.4974966006214773 l -8.350169366274777 -1.8627112663952101" fill="#ff6f0a" stroke="none" /><path d="M 120.49622156327973 104.57218783832717 l 3.572100466453156 0.7968451287265691 a24.659899438729173,24.659899438729173 0 0,0 -0.09598505830148574,0.4135011190004321 l -3.5578548422211176 -0.8582149050755661" fill="#ff2c04" stroke="none" /><path d="M 120.41448212921028 104.9243191809786 l 10.459276954557609 2.5229549199682735 a31.759264656115306,31.759264656115306 0 0,0 -0.13276686205312804,0.5303376169576131 l -10.41429877820942 -2.702620376323283" fill="#ff8d0d" stroke="none" /><path d="M 120.32669344350535 105.2749913415812 l 5.889974605346526 1.5285105337810492 a27.085075620196235,27.085075620196235 0 0,0 -0.12099538315995428,0.45026883212554364 l -5.862791145844795 -1.629670299082141" fill="#ff4d07" stroke="none" /><path d="M 120.23288151984713 105.62410040840565 l 4.816167144847564 1.3387419671151102 a25.99876945073729,25.99876945073729 0 0,0 -0.12356517252782488,0.43014657579707216 l -4.79240933543364 -1.4214460184167643" fill="#ff3e05" stroke="none" /><path d="M 120.02730092923936 106.31721596034902 l 4.272523343181762 1.3476829828380013 a25.480034055703616,25.480034055703616 0 0,0 -0.1355389165900961,0.41714589223591153 l -4.248692175575418 -1.4210277750517082" fill="#ff3705" stroke="none" /><path d="M 119.9155931802556 106.66101706037122 l 6.018564529606275 2.012983527419994 a27.34627620567361,27.34627620567361 0 0,0 -0.15315108673077016,0.4451287464742283 l -5.983022611932275 -2.116284976983523" fill="#ff5107" stroke="none" /><path d="M 119.41010516605496 108.01547362559984 l 6.887310320298704 2.8441398823649986 a28.451454563946037,28.451454563946037 0 0,0 -0.19082664090397158,0.4510578098185396 l -6.837332698202423 -2.962272217849702" fill="#ff6008" stroke="none" /><path d="M 119.26925614724726 108.34839909993367 l 3.0377251485951793 1.3160934549100756 a24.31057035274358,24.31057035274358 0 0,0 -0.16966337240296073,0.3825461149464602 l -3.0146206914609457 -1.3681879063492235" fill="#ff2703" stroke="none" /><path d="M 118.97047184881838 109.00673069616215 l 4.410094287239454 2.0938083093765028 a25.881901766602454,25.881901766602454 0 0,0 -0.19454161459409858,0.40081334738671265 l -4.373399416030641 -2.169410612728491" fill="#ff3d05" stroke="none" /><line stroke="#e1ed5e" stroke-width="0.3" x1="174.80103733775053" x2="179.2010983576182" y1="140.37084112569926" y2="142.7455964860345" /><path d="M 175.68104954172406 140.8457921977663 a86.0,86.0 0 0,1 -30.038265399797805,32.042727171017184" fill="none" id="id89" stroke="none" /><text fill="#e1ed5e" style="font-size:6.75px; font-family:Arial;" text-anchor="middle"><textPath startOffset="22.206326154141568" xlink:href="#id89">May</textPath></text><path d="M 118.30583269289576 110.29060199501025 l 8.60349519937973 4.836444555573665 a30.869717604110473,30.869717604110473 0 0,0 -0.26437414716376273,0.4609586097432022 l -8.518969056063588 -4.983823011175182" fill="#ff810b" stroke="none" /><path d="M 118.12598468904814 110.60418214915192 l 5.248048371771085 3.070247592973291 a27.08016710252337,27.08016710252337 0 0,0 -0.238845944603574,0.4003195415486553 l -5.194421551469283 -3.1601292284080507" fill="#ff4d07" stroke="none" /><path d="M 117.75023020441432 111.22182372390056 l 3.6419440896126214 2.3024633548566866 a25.3087230419606,25.3087230419606 0 0,0 -0.23596785170252715,0.3662273460010498 l -3.601771374533044 -2.3648123007791892" fill="#ff3505" stroke="none" /><path d="M 117.55443506779139 111.5257021239791 l 6.500692136599506 4.2681545077808005 a28.77664073730658,28.77664073730658 0 0,0 -0.27542930594809334,0.4117294416534295 l -6.4262597252406914 -4.379420863640037" fill="#ff6509" stroke="none" /><path d="M 117.14729908036423 112.12312394758627 l 10.834396385027215 7.659907817399283 a34.268697479366445,34.268697479366445 0 0,0 -0.3446781617433065,0.4787278202575068 l -10.700938430908305 -7.845269243107921" fill="#ffad10" stroke="none" /><path d="M 116.498646956653 112.99209946851258 l 4.911786881259075 3.86785800660582 a27.251877792005654,27.251877792005654 0 0,0 -0.2933886396020283,0.3660474384691335 l -4.8444803296021925 -3.9518332786532038" fill="#ff5007" stroke="none" /><path d="M 115.80600337817218 113.82643327865902 l 3.185693281455718 2.7867117669446824 a25.232541099096387,25.232541099096387 0 0,0 -0.288781807335829,0.3244494218967243 l -3.1372526244715506 -2.841135358582273" fill="#ff3404" stroke="none" /><path d="M 115.56566222782051 114.09645910891815 l 5.746141500307451 5.203777873861982 a28.75225427227791,28.75225427227791 0 0,0 -0.3353794267721344,0.3639881295199068 l -5.655715665539595 -5.301917258183225" fill="#ff6409" stroke="none" /><path d="M 115.32070863581623 114.36230785411682 l 9.647374769955027 9.043874518063479 a34.22359657016361,34.22359657016361 0 0,0 -0.4065982444050077,0.4263166337002913 l -9.490269974171055 -9.208598268346277" fill="#ffad10" stroke="none" /><path d="M 115.07121518719521 114.62390073753431 l 3.025025459050956 2.9352425462852225 a25.215024060836356,25.215024060836356 0 0,0 -0.30493294046188724,0.30889545876935315 l -2.9740518935335336 -2.98687849903524" fill="#ff3304" stroke="none" /><path d="M 114.81725581225074 114.88116024355365 l 3.525040512006431 3.5402434424338898 a25.995921761095016,25.995921761095016 0 0,0 -0.3198117916673345,0.3130031496059879 l -3.4635787679633028 -3.6003966949624497" fill="#ff3e05" stroke="none" /><path d="M 113.75828350139079 115.86535959552629 l 3.178999338893397 3.6658619267720156 a25.85227580242934,25.85227580242934 0 0,0 -0.3387073134428633,0.2886537206142465 l -3.1154265488734865 -3.720040037609209" fill="#ff3c05" stroke="none" /><path d="M 113.48314897796784 116.09983520530334 l 4.0419262748362925 4.826346355972538 a27.29529881411688,27.29529881411688 0 0,0 -0.36280634520565186,0.29856492237402465 l -3.9582498010859495 -4.895206397203741" fill="#ff5007" stroke="none" /><path d="M 113.20401910651253 116.32954008644616 l 2.612032970273537 3.230326823305122 a25.15424212380075,25.15424212380075 0 0,0 -0.3390342742626375,0.26934933202602196 l -2.5560412032935487 -3.27481006933627" fill="#ff3204" stroke="none" /><path d="M 112.63410532772338 116.77436683061366 l 3.8562634212950964 5.1199808412502374 a27.409755953949265,27.409755953949265 0 0,0 -0.37931843035128093,0.2806107065509511 l -3.7675600205252513 -5.185601496540958" fill="#ff5207" stroke="none" /><path d="M 112.04921762599082 117.19931262002967 l 3.0802645929962056 4.396835988178421 a26.36844452982491,26.36844452982491 0 0,0 -0.3739837936386544,0.2572294634309634 l -3.004123914734668 -4.449206240974479" fill="#ff4306" stroke="none" /><line stroke="#e1ed5e" stroke-width="0.3" x1="143.8653032363475" x2="146.44561519142675" y1="172.8068346515853" y2="177.08958963109032" /><path d="M 144.38136562736335 173.6633856474863 a86.0,86.0 0 0,1 -40.68145358897372,12.25698825130547" fill="none" id="id90" stroke="none" /><text fill="#e1ed5e" style="font-size:6.75px; font-family:Arial;" text-anchor="middle"><textPath startOffset="21.466115282336833" xlink:href="#id90">June</textPath></text><path d="M 108.2653958097858 119.30500536409082 l 1.2298549397092167 2.872500815996047 a24.1247086441179,24.1247086441179 0 0,0 -0.3831561363867441,0.1601592960845418 l -1.1802273438250115 -2.8932451551005616" fill="#ff2403" stroke="none" /><path d="M 107.59598834532513 119.57807347666477 l 0.7525023428808965 1.9395166883518948 a23.080380917148766,23.080380917148766 0 0,0 -0.37162686210877516,0.1405174804029997 l -0.7190052600118465 -1.9521824188615255" fill="#ff1502" stroke="none" /><path d="M 106.2309692047433 120.05430185196036 l 0.616656801187774 1.9847027362404348 a23.07829510938447,23.07829510938447 0 0,0 -0.38037978498148806,0.11460530891196657 l -0.58240204176604 -1.995023414258127" fill="#ff1502" stroke="none" /><path d="M 105.88484417918355 120.15858648285463 l 0.5826155444391278 1.995754769578457 a23.079056991262448,23.079056991262448 0 0,0 -0.38230879032369997,0.10804428292476664 l -0.5481755860108221 -2.0054878458417424" fill="#ff1502" stroke="none" /><path d="M 105.18746579009965 120.34920634021253 l 0.5130918885593642 2.0127386153968745 a23.077108572033524,23.077108572033524 0 0,0 -0.3857687219922216,0.09481256615931265 l -0.4783698818239314 -2.0212724398702173" fill="#ff1502" stroke="none" /><path d="M 104.13013068566511 120.58985236759428 l 1.2284842223061567 6.124336176817441 a27.24633229112333,27.24633229112333 0 0,0 -0.46063477845188167,0.08828175161031585 l -1.1228818292825709 -6.144575126776225" fill="#ff5007" stroke="none" /><path d="M 102.70371172650421 120.8252237178851 l 5.362715709780967 41.306087959311796 a62.65275047684528,62.65275047684528 0 0,0 -1.070683524597349,0.12964486408922996 l -4.650904762132238 -41.392278352126375" fill="#33ff4f" stroke="none" /><path d="M 102.34483914955558 120.86867818915974 l 0.8003442372422155 7.122930513473312 a28.16775348333465,28.16775348333465 0 0,0 -0.4822955228312443,0.04999190292887588 l -0.6776161178053685 -7.135651784857946" fill="#ff5c08" stroke="none" /><path d="M 101.62511606390274 120.93702456842531 l 0.5125897425395944 6.6039000361002165 a27.62376357752609,27.62376357752609 0 0,0 -0.47438846826164516,0.03271660623161043 l -0.39883851349901894 -6.6117449868481115" fill="#ff5507" stroke="none" /><line stroke="#e1ed5e" stroke-width="0.3" x1="102.19456741930631" x2="102.32365962044197" y1="184.97166512339345" y2="189.96999836594603" /><path d="M 102.22038585953345 185.97133177190398 a86.0,86.0 0 0,1 -42.740103519485714,-10.115201625700543" fill="none" id="id91" stroke="none" /><text fill="#e1ed5e" style="font-size:6.75px; font-family:Arial;" text-anchor="middle"><textPath startOffset="22.20632615414155" xlink:href="#id91">July</textPath></text><path d="M 100.54218724476979 120.99299961872073 l 0.16188631122499983 6.268091517471009 a27.27018169187736,27.27018169187736 0 0,0 -0.4693591870188306,0.008080444056150054 l -0.05396743431350129 -6.269949438806319" fill="#ff5007" stroke="none" /><path d="M 99.81925306533755 120.99922214144158 l -0.05508694186634234 6.400014094315554 a27.400251165274838,27.400251165274838 0 0,0 -0.47159787039027257,-0.008118985020602603 l 0.16524450214928285 -6.398117632015792" fill="#ff5207" stroke="none" /><path d="M 99.45781275523022 120.99299961872073 l -0.15745639497548558 6.09656916788786 a27.098602145997027,27.098602145997027 0 0,0 -0.46619873587688426,-0.016056827089225168 l 0.26237548252701287 -6.092955542372541" fill="#ff4e07" stroke="none" /><path d="M 98.01472825383883 120.90594882070398 l -0.6979610551105325 7.3498946052097365 a28.382960134129277,28.382960134129277 0 0,0 -0.48598034647980115,-0.050373849966379246 l 0.824373998195927 -7.3367913867875965" fill="#ff5f08" stroke="none" /><path d="M 97.2962882734958 120.8252237178851 l -0.5568339167675326 4.288989383266665 a25.324984848601996,25.324984848601996 0 0,0 -0.43181680966243213,-0.05984587509547959 l 0.6305793176167958 -4.27876894267858" fill="#ff3505" stroke="none" /><path d="M 96.93821686468263 120.77559828337769 l -0.24444179953180317 1.6586493576764347 a22.676564787021007,22.676564787021007 0 0,0 -0.3856788418324699,-0.060235103208240465 l 0.2729565049727902 -1.6541959471210885" fill="#ff0f01" stroke="none" /><path d="M 96.58105272829116 120.7198165907248 l -10.256841815126537 62.1594497721744 a84.0,84.0 0 0,0 -1.4246041141118002,-0.24768568591597528 l 11.325294900710388 -61.97368550773742" fill="#4dd2ff" stroke="none" /><path d="M 95.86986931433489 120.58985236759428 l -0.40874184858829293 2.03769201495261 a23.078282619517616,23.078282619517616 0 0,0 -0.38882349744433864,-0.08148174434951637 l 0.44375680746201834 -2.0303542898765525" fill="#ff1502" stroke="none" /><path d="M 95.51606077576429 120.51570834832081 l -1.3527038781866076 6.189128990982075 a27.335228918442954,27.335228918442954 0 0,0 -0.4588151145468892,-0.10442482629710338 l 1.4590391421263595 -6.164927431107285" fill="#ff5107" stroke="none" /><path d="M 94.81253420990036 120.34920634021253 l -2.4266946102720004 9.51935132629724 a30.823792363695407,30.823792363695407 0 0,0 -0.5130100009478943,-0.13549060392568033 l 2.5901950540313843 -9.476169373067979" fill="#ff800b" stroke="none" /><path d="M 94.11515582081647 120.15858648285463 l -2.056543498251142 7.0447081864790855 a28.338752250406365,28.338752250406365 0 0,0 -0.46708339747635447,-0.14072839611609125 l 2.1775018701677427 -7.008264421257269" fill="#ff5f08" stroke="none" /><path d="M 93.76903079525671 120.05430185196036 l -0.28895671596927297 0.930003826657929 a21.973859898189744,21.973859898189744 0 0,0 -0.3602443299480424,-0.1153388583083755 l 0.30492239100825574 -0.924892121689847" fill="#ff0500" stroke="none" /><path d="M 93.08242187328487 119.8279376855182 l -0.6850585499520819 1.963591590953449 a23.079662749804772,23.079662749804772 0 0,0 -0.3739789419533952,-0.1340955430510557 l 0.7187570525352038 -1.9515085068624354" fill="#ff1502" stroke="none" /><path d="M 92.7421414339146 119.70592522655815 l -0.721530501295947 1.9590387409392305 a23.087687489257227,23.087687489257227 0 0,0 -0.37174450828086303,-0.14056196411870134 l 0.755145230337093 -1.9463285267138961" fill="#ff1502" stroke="none" /><path d="M 92.40401165467489 119.57807347666478 l -0.7518585626031036 1.9378573943919213 a23.078601111122346,23.078601111122346 0 0,0 -0.3691245575077596,-0.1468822792950076 l 0.7851041961527213 -1.924628270690847" fill="#ff1502" stroke="none" /><path d="M 91.40352486487194 119.15986991738527 l -2.3453877265198475 5.227412752271386 a26.72945788625062,26.72945788625062 0 0,0 -0.41816582721048917,-0.19195942153368745 l 2.435021549497756 -5.186266260403624" fill="#ff4806" stroke="none" /><path d="M 91.07499286063937 119.00905698771935 l -0.8597156927390747 1.8310780418809187 a23.02285883536155,23.02285883536155 0 0,0 -0.35727895432681095,-0.1715156098831705 l 0.8911073150661277 -1.816008155498186" fill="#ff1402" stroke="none" /><path d="M 90.10565033884886 118.52300852407294 l -4.790432383882265 8.968069950978743 a31.16732615146164,31.16732615146164 0 0,0 -0.47103801597732764,-0.2568474833410837 l 4.944093211728233 -8.884281815877893" fill="#ff850c" stroke="none" /><line stroke="#e1ed5e" stroke-width="0.3" x1="58.666819895761336" x2="56.23545636021788" y1="174.27360380694188" y2="178.64263932499728" /><path d="M 58.180547188652646 175.14741091055294 a86.0,86.0 0 0,1 -31.652253787137756,-30.449443065178592" fill="none" id="id92" stroke="none" /><text fill="#e1ed5e" style="font-size:6.75px; font-family:Arial;" text-anchor="middle"><textPath startOffset="22.20632615414155" xlink:href="#id92">August</textPath></text><path d="M 89.1626897886671 117.98757091392108 l -3.223178122484354 5.349772583399694 a27.245714042714155,27.245714042714155 0 0,0 -0.39963079227868314,-0.24548587268464445 l 3.3147881146953457 -5.293498243886671" fill="#ff5007" stroke="none" /><path d="M 88.8546689885994 117.79835938074946 l -1.6588374671453971 2.6490541522997524 a24.125576689864115,24.125576689864115 0 0,0 -0.3500715358816258,-0.22343221726111132 l 1.7041908050739465 -2.620107506214837" fill="#ff2403" stroke="none" /><path d="M 88.54995079064634 117.60387380957326 l -3.406822124618035 5.2378173819938985 a27.24829320021911,27.24829320021911 0 0,0 -0.3909809598751368,-0.2591208606651299 l 3.496477783233134 -5.17839850023745" fill="#ff5007" stroke="none" /><path d="M 87.95078237400918 117.19931262002967 l -1.0914442141672214 1.5579509665666793 a22.902225456370815,22.902225456370815 0 0,0 -0.32092852777397546,-0.22897398338583078 l 1.1181000697900838 -1.5389327213366293" fill="#ff1202" stroke="none" /><path d="M 87.65650970185807 116.9893568818739 l -4.97105111379024 6.842064878758978 a29.457257296609953,29.457257296609953 0 0,0 -0.4076534143162983,-0.3015722502944788 l 5.088089498525102 -6.755482679724733" fill="#ff6e0a" stroke="none" /><path d="M 87.07902340077011 116.55440617244103 l -2.4069402726924487 3.083781369074815 a24.911913727136852,24.911913727136852 0 0,0 -0.3357681201208419,-0.26675450164110104 l 2.4596658855306486 -3.041892953428583" fill="#ff2f04" stroke="none" /><path d="M 86.79598089348748 116.32954008644616 l -4.361407672926254 5.393795696134362 a27.936491108701688,27.936491108701688 0 0,0 -0.3713290081944927,-0.3055784937938928 l 4.453606809665435 -5.317922083483288" fill="#ff5908" stroke="none" /><path d="M 86.51685102203217 116.09983520530335 l -4.2506093408093495 5.075528722628407 a27.620322619208345,27.620322619208345 0 0,0 -0.3618716333630396,-0.30839485658941346 l 4.337346450749446 -5.001609475816043" fill="#ff5507" stroke="none" /><path d="M 86.24171649860922 115.8653595955263 l -2.568504010289004 2.9618694615260046 a24.920444306196817,24.920444306196817 0 0,0 -0.3216608094361968,-0.2838282654664194 l 2.6191071726317885 -2.9172180542872965" fill="#ff2f04" stroke="none" /><path d="M 85.70375840098266 115.38237550388516 l -5.057081525349823 5.441285140427277 a28.42843573933767,28.42843573933767 0 0,0 -0.355577683478448,-0.33622089376883635 l 5.149995043219088 -5.353429609912509" fill="#ff6008" stroke="none" /><path d="M 85.44109423537348 115.13401014063109 l -3.1927298835376083 3.3188487661726143 a25.605244970895637,25.605244970895637 0 0,0 -0.31500553607906395,-0.30829921693015966 l 3.2493853719924664 -3.2633994463198848" fill="#ff3905" stroke="none" /><path d="M 84.67929136418377 114.36230785411682 l -5.694952267859155 5.338699379366948 a28.80603563894293,28.80603563894293 0 0,0 -0.33600675719819606,-0.36466897279813043 l 5.78600543305308 -5.2398791517674725" fill="#ff6509" stroke="none" /><path d="M 84.43433777217949 114.09645910891817 l -5.97673852046411 5.41260942999501 a29.06335812076274,29.06335812076274 0 0,0 -0.33262480589649646,-0.37370749555607413 l 6.069022176008945 -5.308927764698072" fill="#ff6909" stroke="none" /><path d="M 83.72743513129214 113.27417163493432 l -2.5618917300924817 2.089835917677729 a24.306161429744797,24.306161429744797 0 0,0 -0.261675605998491,-0.32648055294688866 l 2.5974852481458335 -2.0454275311525802" fill="#ff2603" stroke="none" /><path d="M 83.50135304334701 112.99209946851258 l -2.514695818157614 1.98023379058862 a24.200784423113866,24.200784423113866 0 0,0 -0.2549070729699023,-0.3295017536328317 l 2.5484097083455843 -1.9366540428425356" fill="#ff2503" stroke="none" /><path d="M 83.28015986056508 112.70617746262583 l -3.823074482598958 2.9053305787396453 a25.801754291012706,25.801754291012706 0 0,0 -0.2656827935682496,-0.35592551924627747 l 3.872518542862293 -2.83909217998406" fill="#ff3c05" stroke="none" /><path d="M 83.06392112726016 112.41649034213515 l -3.376326041117816 2.475314386313837 a25.186497204946225,25.186497204946225 0 0,0 -0.2533284366171392,-0.3518510417300028 l 3.418434270110563 -2.416829739132696" fill="#ff3304" stroke="none" /><path d="M 82.85270091963577 112.12312394758628 l -5.946181675556476 4.203944722127413 a28.282185643433333,28.282185643433333 0 0,0 -0.2776220996194985,-0.3999353405365027 l 6.017664682338109 -4.100968119403897" fill="#ff5e08" stroke="none" /><path d="M 82.44556493220864 111.52570212397912 l -6.800895869357827 4.465259045005567 a29.135768123837625,29.135768123837625 0 0,0 -0.2716496047819765,-0.421606219168164 l 6.8767503375168495 -4.347531225915955" fill="#ff6a09" stroke="none" /><line stroke="#e1ed5e" stroke-width="0.3" x1="26.63291911575756" x2="22.317208475507996" y1="142.92168965132927" y2="145.44649492493687" /><path d="M 25.769776987707644 143.4266507060508 a86.0,86.0 0 0,1 -11.730757126820373,-40.83630448921669" fill="none" id="id93" stroke="none" /><text fill="#e1ed5e" style="font-size:6.75px; font-family:Arial;" text-anchor="middle"><textPath startOffset="21.46611528233685" xlink:href="#id93">September</textPath></text><path d="M 81.87401531095188 110.60418214915194 l -4.658930125259134 2.7255977821866697 a26.397639593591627,26.397639593591627 0 0,0 -0.22607441843792508,-0.3941798044159677 l 4.705156539849437 -2.6449981319123954" fill="#ff4406" stroke="none" /><path d="M 81.51974371655577 109.97397251340807 l -11.635046860937814 6.279546982645002 a34.22146080293191,34.22146080293191 0 0,0 -0.27531571273979627,-0.5207935730683675 l 11.741415081902497 -6.078338394490508" fill="#ffad10" stroke="none" /><path d="M 81.18737489456691 109.33194174019688 l -2.8000479717258195 1.3889547256408932 a24.12561415946467,24.12561415946467 0 0,0 -0.181340458440063,-0.3736150556561055 l 2.8235416867806014 -1.340550714019503" fill="#ff2403" stroke="none" /><path d="M 80.73074385275274 108.34839909993369 l -2.873547794307381 1.2449636683582743 a24.131646765154223,24.131646765154223 0 0,0 -0.1618532747183724,-0.382573330749794 l 2.89455205021806 -1.1953158119423215" fill="#ff2403" stroke="none" /><path d="M 80.58989483394504 108.01547362559985 l -5.809133405507723 2.398902798366546 a27.28496344929679,27.28496344929679 0 0,0 -0.1755298681944154,-0.4356507377588173 l 5.849565887959526 -2.298552692764923" fill="#ff5007" stroke="none" /><path d="M 80.45479744820244 107.68017299344265 l -3.3692327753155022 1.3239203073503132 a24.620013048937082,24.620013048937082 0 0,0 -0.15159564398619124,-0.3957683899800615 l 3.3915226988952023 -1.2657283505370938" fill="#ff2b04" stroke="none" /><path d="M 80.32549172779594 107.34259656027581 l -2.594063887947949 0.968113882047662 a23.76882862296839,23.76882862296839 0 0,0 -0.13975588948862838,-0.3845481851065509 l 2.610344038441802 -0.923317899934994" fill="#ff1f03" stroke="none" /><path d="M 80.20201598880116 107.00284435728193 l -5.897960292553945 2.086197156782291 a27.256049407534242,27.256049407534242 0 0,0 -0.15264577726621012,-0.4436600806400953 l 5.932996900763384 -1.984364373052899" fill="#ff5007" stroke="none" /><path d="M 79.86692584326677 105.97154293290107 l -3.0543577779914504 0.9059336126081087 a24.185877767025918,24.185877767025918 0 0,0 -0.11494898497723134,-0.40015249659584523 l 3.069499399854786 -0.8532236405076674" fill="#ff2503" stroke="none" /><path d="M 79.67330655649465 105.27499134158121 l -5.066135441492915 1.3147155814312463 a26.233947398628374,26.233947398628374 0 0,0 -0.1096687506180073,-0.43807214359105634 l 5.088015506405981 -1.2273155984427981" fill="#ff4206" stroke="none" /><path d="M 79.29508885075956 103.50808413554451 l -6.161847700910383 1.0440170454920363 a27.24966708557284,27.24966708557284 0 0,0 -0.07437633864685306,-0.46314153175172085 l 6.178905793918527 -0.9377962840471018" fill="#ff5007" stroke="none" /><path d="M 79.10278846688536 102.07522291339032 l -2.070030311873943 0.20556686846979708 a23.08021230394626,23.08021230394626 0 0,0 -0.035857202115574284,-0.39568123741290623 l 2.073262110266593 -0.16990424250832464" fill="#ff1502" stroke="none" /><line stroke="#e1ed5e" stroke-width="0.3" x1="15.007084014347285" x2="10.007500721073583" y1="101.09737516637583" y2="101.16192664675087" /><path d="M 14.007167355692545 101.11028546245083 a86.0,86.0 0 0,1 10.666146001902534,-42.60595125391555" fill="none" id="id94" stroke="none" /><text fill="#e1ed5e" style="font-size:6.75px; font-family:Arial;" text-anchor="middle"><textPath startOffset="22.20632615414155" xlink:href="#id94">October</textPath></text><path d="M 79.00175016825051 100.2711162175752 l -8.307941673258373 0.10726692654563778 a29.308634126003724,29.308634126003724 0 0,0 -0.0021712153119423086,-0.5045139734926978 l 8.308557185859819 0.03575652515073534" fill="#ff6c09" stroke="none" /><path d="M 79.00019446554 99.90962569577889 l -11.664278556787835 -0.05019813431515858 a32.66438657208467,32.66438657208467 0 0,0 0.007259259982671757,-0.5622376856430952 l 11.661686289687449 0.25097207801872573" fill="#ff990e" stroke="none" /><path d="M 79.00486145842228 99.54816195383935 l -37.13119534354225 -0.7991034077917897 a58.1397931321196,58.1397931321196 0 0,0 0.03014494437657652,-1.0003639467223855 l 37.11193870471003 1.4381375019391696" fill="#41ff2d" stroke="none" /><path d="M 79.01574976396665 99.18683210126434 l -17.670796159019876 -0.6847671000864163 a38.68405900451003,38.68405900451003 0 0,0 0.031511650878552226,-0.6651611455842261 l 17.656390899907827 0.9888393522936515" fill="#ffe515" stroke="none" /><path d="M 79.03285615573316 98.82574320788736 l -4.978858501262684 -0.27883904720165853 a25.986660524824206,25.986660524824206 0 0,0 0.028856836438468883,-0.4464024873649716 l 4.973321073819802 0.364500598819642" fill="#ff3e05" stroke="none" /><path d="M 79.05617556472873 98.46500227214037 l -14.96825067361776 -1.097040841086438 a36.008398543324674,36.008398543324674 0 0,0 0.050626978753568114,-0.6177773742283612 l 14.947149211044696 1.3545321325225776" fill="#ffc412" stroke="none" /><path d="M 79.08570108090925 98.10471618934814 l -8.429982634270754 -0.763937135670634 a29.464526399117858,29.464526399117858 0 0,0 0.05012178920896869,-0.5047195772365702 l 8.415583719379557 0.9089322436116346" fill="#ff6e0a" stroke="none" /><path d="M 79.12142395522702 97.74499172005258 l -1.8809944686674465 -0.2031583998968315 a22.891933806084708,22.891933806084708 0 0,0 0.04568537451801045,-0.3914043892822616 l 1.8772187411458472 0.2355065275039549" fill="#ff1202" stroke="none" /><path d="M 79.16333360222342 97.38593545837743 l -1.3726799944745571 -0.17220960551220849 a22.383440101869734,22.383440101869734 0 0,0 0.051251683568915414,-0.38188457285687033 l 1.3695123118478079 0.19581252043373823" fill="#ff0b01" stroke="none" /><path d="M 79.21141760316559 97.0276538004421 l -2.0578849743506424 -0.2942358678372352 a23.07881343885883,23.07881343885883 0 0,0 0.059613791212948686,-0.39278040038026 l 2.0525152896983916 0.3296153806095873" fill="#ff1502" stroke="none" /><path d="M 79.26566170972629 96.67025291283419 l -2.055240631437298 -0.33005304582897416 a23.08157369943314,23.08157369943314 0 0,0 0.06637396518535936,-0.39174289973874193 l 2.0492548047317154 0.3653817338835441" fill="#ff1502" stroke="none" /><path d="M 79.32604984820605 96.31383870115002 l -9.928620531687212 -1.7702711134619324 a31.08520527690927,31.08520527690927 0 0,0 0.09845761552890332,-0.5259645191172373 l 9.896677192248447 1.9409137100417424" fill="#ff840c" stroke="none" /><path d="M 79.3925641242962 95.95851677861259 l -8.2178769463047 -1.6116712430523363 a29.374424499647013,29.374424499647013 0 0,0 0.1015805423455333,-0.4953428000721511 l 8.188917108044173 1.75288969928789" fill="#ff6d0a" stroke="none" /><path d="M 79.46518482838121 95.60439243477599 l -4.138013862783957 -0.8857681400217398 a25.231754237484708,25.231754237484708 0 0,0 0.09456574687024617,-0.4239197007397585 l 4.122153728911674 0.9568660103114575" fill="#ff3404" stroke="none" /><path d="M 79.54389044137918 95.25157060432595 l -7.644456012491054 -1.7744898921091359 a28.84770807969487,28.84770807969487 0 0,0 0.1164447348956763,-0.4827386024753962 l 7.6127784773345635 1.9058137262439288" fill="#ff6609" stroke="none" /><path d="M 79.62865764111835 94.90015583598534 l -4.945702288481673 -1.238127095825404 a26.098326179415153,26.098326179415153 0 0,0 0.1128487499588611,-0.43485226749376316 l 4.923657206652505 1.3230757888680311" fill="#ff4006" stroke="none" /><path d="M 79.71946130924805 94.55025226153421 l -3.0200140449724544 -0.8115324234078969 a24.127150413087477,24.127150413087477 0 0,0 0.11122987373915055,-0.4001530366471123 l 3.005597400666943 0.8633967634739518" fill="#ff2403" stroke="none" /><path d="M 79.81627453868168 94.20196356495316 l -3.633804771103296 -1.043857463335108 a24.78076388025667,24.78076388025667 0 0,0 0.12130078056940954,-0.4089659302318936 l 3.6152980934221794 1.106252780313541" fill="#ff2d04" stroke="none" /><path d="M 79.91906864156998 93.8553929516997 l -3.105357333329991 -0.9502149186850425 a24.247484035273764,24.247484035273764 0 0,0 0.12556099625019265,-0.3980626707494668 l 3.0885408533115943 1.0035277558609237" fill="#ff2603" stroke="none" /><path d="M 80.14247586403 93.16781622104843 l -7.758889482823305 -2.6695250880345402 a29.205286722736258,29.205286722736258 0 0,0 0.16764796849962046,-0.4739633826666618 l 7.711788433513875 2.802686097127813" fill="#ff6a09" stroke="none" /><path d="M 80.2630227832202 92.82701384747504 l -2.978119968955463 -1.0823345978083325 a24.168697955170895,24.168697955170895 0 0,0 0.14546726302017607,-0.38977994312107855 l 2.9590481174336594 1.1334376779587525" fill="#ff2503" stroke="none" /><path d="M 80.38941819471856 92.48833698450439 l -3.1289853510369627 -1.1985306591506613 a24.35067531520558,24.35067531520558 0 0,0 0.15330077816223153,-0.39013375910767084 l 3.10789102299304 1.2522134231540956" fill="#ff2703" stroke="none" /><path d="M 80.52162464483688 92.15188598940014 l -3.4427691291509745 -1.3871405671720172 a24.711713651364995,24.711713651364995 0 0,0 0.16236574113174343,-0.39318152088557623 l 3.4183817011330313 1.4461966585109047" fill="#ff2c04" stroke="none" /><path d="M 80.803312248108 91.48605970444005 l -2.255255132260838 -1.0002302373976715 a23.467110909422892,23.467110909422892 0 0,0 0.16694914273484923,-0.367850306068769 l 2.237703672562637 1.0389025523085114" fill="#ff1b02" stroke="none" /><path d="M 80.95270993114464 91.15688171328213 l -2.0045635180468984 -0.9306621697494479 a23.210069449607253,23.210069449607253 0 0,0 0.1713586232631187,-0.360924962489487 l 1.9882467009420284 0.9650295478794672" fill="#ff1702" stroke="none" /><path d="M 81.43458229118936 90.18545643968196 l -1.8389156090774719 -0.972136346842037 a23.08006242554404,23.08006242554404 0 0,0 0.18869808514276112,-0.34962889349710546 l 1.8219094247162388 1.003646223671615" fill="#ff1502" stroke="none" /><line stroke="#e1ed5e" stroke-width="0.3" x1="26.266209847984243" x2="21.928928074336255" y1="57.711370442889674" y2="55.22380399835377" /><path d="M 25.398753493254645 57.213857153982495 a86.0,86.0 0 0,1 29.58750427330803,-30.492523968695096" fill="none" id="id95" stroke="none" /><text fill="#e1ed5e" style="font-size:6.75px; font-family:Arial;" text-anchor="middle"><textPath startOffset="21.46611528233685" xlink:href="#id95">November</textPath></text><path d="M 81.78341655067845 89.55222093294921 l -6.166434025038008 -3.5366423404461873 a28.108638943523797,28.108638943523797 0 0,0 0.24433143347366357,-0.4176416210043132 l 6.104642917094019 3.6422633738043926" fill="#ff5c08" stroke="none" /><path d="M 81.96595687620814 89.24020034530311 l -2.752472347404474 -1.642230242540215 a24.20515587651209,24.20515587651209 0 0,0 0.21656030424838854,-0.35596819948633796 l 2.723796244869869 1.6893662152336275" fill="#ff2503" stroke="none" /><path d="M 82.15384107792192 88.93136811851018 l -1.0628166007370128 -0.6591853049420505 a22.25064159256508,22.25064159256508 0 0,0 0.20467666292882658,-0.3237493275464845 l 1.0513123415622234 0.6773822802027505" fill="#ff0901" stroke="none" /><path d="M 82.34701348167596 88.62581576622439 l -2.688611950629415 -1.7323282736236447 a24.198373878811417,24.198373878811417 0 0,0 0.2286208950677714,-0.3482053079662612 l 2.6583944202037237 1.778351645567573" fill="#ff2503" stroke="none" /><path d="M 82.54541684631803 88.32363383020206 l -5.597247622050598 -3.744318165759639 a27.734174000498406,27.734174000498406 0 0,0 0.2688571091136948,-0.39451463239957735 l 5.531966047268163 3.8401108214296324" fill="#ff5608" stroke="none" /><path d="M 82.7489923806493 88.02491185347247 l -22.637972340206623 -15.714543765463226 a48.5576609572115,48.5576609572115 0 0,0 0.4825414787434274,-0.6825207009734623 l 22.364118241659316 16.101890966768472" fill="#a5ff21" stroke="none" /><path d="M 83.17141714833178 87.43820079747576 l -1.391956807867905 -1.0390347228370387 a22.73699076285133,22.73699076285133 0 0,0 0.23681556793989428,-0.3116215282000516 l 1.3738652997039018 1.0628410269181168" fill="#ff1001" stroke="none" /><path d="M 83.39014120810768 87.1503855733568 l -4.047149217546983 -3.130930107482554 a26.116848651956776,26.116848651956776 0 0,0 0.2781393632740467,-0.3532087458634675 l 3.9926557736789654 3.200131247299069" fill="#ff4006" stroke="none" /><path d="M 83.6137871275137 86.86637796730984 l -4.87988824779608 -3.91125199623968 a27.253894905502264,27.253894905502264 0 0,0 0.2965502896523234,-0.36353559061280116 l 4.811839466067363 3.9946717564605634" fill="#ff5007" stroke="none" /><path d="M 84.07557802195018 86.31012108654704 l -4.75627319946313 -4.088864529569933 a27.27223627497453,27.27223627497453 0 0,0 0.3090959110414963,-0.35335005895135063 l 4.68518542484379 4.170130144724227" fill="#ff5007" stroke="none" /><path d="M 84.31358615837235 86.03803664274999 l -3.3824352594146463 -3.010594877007117 a25.528194982285207,25.528194982285207 0 0,0 0.294979945525956,-0.32572422340679175 l 3.3301116732726452 3.068371887683465" fill="#ff3805" stroke="none" /><path d="M 84.5562425177563 85.77008943001954 l -5.257565148571543 -4.844331566721149 a28.149093622257656,28.149093622257656 0 0,0 0.3313988476350057,-0.3535131845405891 l 5.173398978966081 4.934114168139788" fill="#ff5c08" stroke="none" /><path d="M 84.80347519578584 85.50635884689758 l -2.34571575085934 -2.237219547110367 a24.24153261371875,24.24153261371875 0 0,0 0.2905933362609218,-0.2994819768922875 l 2.3068581508952994 2.2772657195527777" fill="#ff2603" stroke="none" /><path d="M 85.05521093208273 85.24692304244772 l -7.2173213511408765 -7.1247373808271135 a31.141578290946097,31.141578290946097 0 0,0 0.37987416592510365,-0.3782428655330089 l 7.093611385048459 7.247916097010232" fill="#ff840c" stroke="none" /><path d="M 85.31137513191541 84.99185889309783 l -4.765451549378009 -4.869112659182312 a27.81305999953609,27.81305999953609 0 0,0 0.34503657982343233,-0.3319249164180144 l 4.680931725942149 4.95042066236264" fill="#ff5708" stroke="none" /><path d="M 85.83668400450813 84.49514656593479 l -7.604804145593858 -8.32512483021173 a32.275670690981066,32.275670690981066 0 0,0 0.41341908494498325,-0.37117173640515544 l 7.460374073052904 8.454795575386164" fill="#ff930d" stroke="none" /><path d="M 86.37877921826538 84.01681056812374 l -5.737419444719714 -6.7323086017410185 a29.84544860330577,29.84544860330577 0 0,0 0.39387814935621146,-0.3298616227566537 l 5.620683758404392 6.830071381891485" fill="#ff730a" stroke="none" /><path d="M 86.65592168130627 83.78471172551755 l -2.5887319717087616 -3.1457425671596404 a25.073969749542485,25.073969749542485 0 0,0 0.3356289371949008,-0.27138859245021657 l 2.5341996359493604 3.1898372568739912" fill="#ff3104" stroke="none" /><path d="M 86.93701828274178 83.55741782278169 l -1.1795205971831002 -1.4846812748181202 a22.896192850681263,22.896192850681263 0 0,0 0.3106985511064603,-0.2425051473573467 l 1.1537894909172144 1.5047648113986887" fill="#ff1202" stroke="none" /><path d="M 87.51073957382395 83.11751280151077 l -3.146220451413941 -4.252936097264482 a26.29019551399668,26.29019551399668 0 0,0 0.36612813390681553,-0.26600765998254383 l 3.072547001153344 4.306462992063693" fill="#ff4206" stroke="none" /><path d="M 87.80319425747018 82.90503203632743 l -1.7518332464745812 -2.455358710990493 a24.01624039544108,24.01624039544108 0 0,0 0.3385933773982431,-0.2372062989447317 l 1.7093087294926779 2.485149852699167" fill="#ff2203" stroke="none" /><path d="M 88.39885842347998 82.49532879139004 l -3.4520331050358717 -5.208686068204674 a27.248755325292635,27.248755325292635 0 0,0 0.393203398566651,-0.25575042809184656 l 3.3618626806849337 5.267335420456055" fill="#ff5007" stroke="none" /><path d="M 88.70189139769569 82.29822771554957 l -3.4303590553747476 -5.374654908146427 a27.37607078304923,27.37607078304923 0 0,0 0.3994049414870532,-0.25010733771771404 l 3.337334961515452 5.432906587187071" fill="#ff5107" stroke="none" /><path d="M 89.00827224532344 82.1063720568725 l -5.5646405019238525 -9.058776654681951 a31.631399644217222,31.631399644217222 0 0,0 0.4663943442132956,-0.28099737386657847 l 5.407884091492908 9.15322063800715" fill="#ff8b0c" stroke="none" /><line stroke="#e1ed5e" stroke-width="0.3" x1="56.762969772571076" x2="54.21961505331055" y1="26.818313649435495" y2="22.513508569990535" /><path d="M 56.25429882871897 25.957352633546506 a86.0,86.0 0 0,1 42.265352541879196,-11.944610805530505" fill="none" id="id96" stroke="none" /><text fill="#e1ed5e" style="font-size:6.75px; font-family:Arial;" text-anchor="middle"><textPath startOffset="22.20632615414155" xlink:href="#id96">December</textPath></text><path d="M 89.3179101791058 81.91981866633112 l -4.988516753242633 -8.443412197138947 a30.80696226811224,30.80696226811224 0 0,0 0.4588818314420524,-0.2658139755439819 l 4.842438189335261 8.528030330072978" fill="#ff800b" stroke="none" /><path d="M 89.94658935756843 81.56283822128135 l -2.297237543939223 -4.212952374887736 a25.79856937496543,25.79856937496543 0 0,0 0.3917143636995662,-0.20924024716081324 l 2.2243781337113515 4.251871348550299" fill="#ff3c05" stroke="none" /><path d="M 90.26544431104013 81.39251694778311 l -0.8897929391889124 -1.7008282211295276 a22.919517677027507,22.919517677027507 0 0,0 0.35114830676702574,-0.1798718014003 l 0.860384144833123 1.7158925478423328" fill="#ff1302" stroke="none" /><path d="M 90.58718382345135 81.22770947309562 l -4.525422645057387 -9.025200009929293 a31.096221339472798,31.096221339472798 0 0,0 0.4805532053363077,-0.23580537083886852 l 4.369398172710653 9.101760540902992" fill="#ff840c" stroke="none" /><path d="M 91.23893434514133 80.91482961587045 l -0.8676871284665437 -1.8901760743815845 a23.07981887314042,23.07981887314042 0 0,0 0.3624827127099872,-0.1626354270755094 l 0.8350222972897821 1.9048318319736228" fill="#ff1502" stroke="none" /><path d="M 91.56875222667455 80.76684994638697 l -4.085301226784426 -9.319286257669004 a31.175400850381507,31.175400850381507 0 0,0 0.49333771714188623,-0.21122146423531613 l 3.924279751852232 9.388227249867107" fill="#ff850c" stroke="none" /><path d="M 91.90106846888425 80.62456947434976 l -0.8027892117127877 -1.920547980745773 a23.081579944366563,23.081579944366563 0 0,0 0.3678941487030867,-0.15007326052793968 l 0.7696111934213206 1.9340821274572897" fill="#ff1502" stroke="none" /><path d="M 92.23578459929587 80.48803036053334 l -0.5522393174792163 -1.3878127074368711 a22.493650686972416,22.493650686972416 0 0,0 0.36098756962506184,-0.1400575687361406 l 0.5282685828544781 1.397112980063563" fill="#ff0d01" stroke="none" /><path d="M 92.57280143429618 80.3572730644239 l -4.401379012441243 -11.64033589738372 a33.44465977900072,33.44465977900072 0 0,0 0.5402390335981103,-0.1989745953389369 l 4.200357653070563 11.71437376052898" fill="#ffa30f" stroke="none" /><path d="M 93.59665428221793 80.00007090966166 l -0.6346645878992749 -1.9822835301372508 a23.081405086230635,23.081405086230635 0 0,0 0.3794304121026571,-0.11789087601289971 l 0.6004488030858891 1.9929145410326758" fill="#ff1502" stroke="none" /><path d="M 94.28887869178378 79.79150937346287 l -0.5661722792140049 -2.003369667711529 a23.08183598663703,23.08183598663703 0 0,0 0.3832707109110559,-0.10476236342697436 l 0.5316036790792266 2.0128185719647993" fill="#ff1502" stroke="none" /><path d="M 94.98787191387505 79.60689891045804 l -3.5667215322185095 -14.512101748982474 a35.94398205503511,35.94398205503511 0 0,0 0.6021067372954805,-0.1424992114293738 l 3.316391107960495 14.571346872552718" fill="#ffc312" stroke="none" /><path d="M 96.04723909329186 79.375362276772 l -0.3920769498298126 -2.04577135848131 a23.0830037891877,23.0830037891877 0 0,0 0.3908775603350261,-0.07143037572473786 l 0.3568042683918933 2.0522172155567846" fill="#ff1502" stroke="none" /><path d="M 96.40284397218896 79.31037775812273 l -1.3424229618818388 -7.721161872163387 a28.83699177393579,28.83699177393579 0 0,0 0.4897767975512429,-0.08081736816549315 l 1.2093169581917103 7.743125503268508" fill="#ff6509" stroke="none" /><path d="M 97.47563105711357 79.15227682838746 l -0.25303999962898693 -2.0897531157145917 a23.105017179514476,23.105017179514476 0 0,0 0.3952424517553135,-0.0444100946903116 l 0.21703084436395542 2.093799163875502" fill="#ff1502" stroke="none" /><path d="M 97.83486435360386 79.11191278185805 l -0.06447324520400337 -0.6220038782787056 a21.625336408616104,21.625336408616104 0 0,0 0.370591199603886,-0.03519209983049983 l 0.05375691850988107 0.623021522624386" fill="#ff0000" stroke="none" /><path d="M 98.19473922651362 79.07773832637324 l -1.1058206407683058 -12.816025889473334 a33.86364485242033,33.86364485242033 0 0,0 0.5811804680362846,-0.04511078981378527 l 0.885049983369687 12.833161941475582" fill="#ffa80f" stroke="none" /><path d="M 98.55514903715128 79.0497635885617 l -0.2165738667601398 -3.140305696456354 a24.147764938326823,24.147764938326823 0 0,0 0.414925239307059,-0.025029423546678174 l 0.1624865786134578 3.143568389383339" fill="#ff2403" stroke="none" /><path d="M 99.27714615592234 79.0124445844662 l -0.30665300791214173 -8.903455449017077 a29.908734758645217,29.908734758645217 0 0,0 0.5146771484188333,-0.013292592298165182 l 0.15334922429842937 8.907414833457603" fill="#ff740a" stroke="none" /></svg>