<?xml version="1.0" encoding="utf-8" ?>
<svg baseProfile="full" height="200mm" version="1.1" viewBox="0,0,200,200" width="200mm" xmlns="http://www.w3.org/2000/svg" xmlns:ev="http://www.w3.org/2001/xml-events" xmlns:xlink="http://www.w3.org/1999/xlink"><defs /><rect fill="#1a1a1a" height="200" width="200" x="0" y="0" /><rect fill="#1a1a1a" height="200" width="180" x="10" y="0" /><text alignment-baseline="middle" fill="#e1ed5e" style="dominant-baseline: central; font-size:9.0px; font-family:Arial;" text-anchor="middle" x="100.0" y="100.0">2026</text><line stroke="#e1ed5e" stroke-width="0.3" x1="100.0" x2="100.0" y1="15.0" y2="10.0" /><path d="M 100.0 14.0 a86.0,86.0 0 0,1 42.46469731375804,11.215312516191453" fill="none" id="id133" stroke="none" /><text fill="#e1ed5e" style="font-size:6.75px; font-family:Arial;" text-anchor="middle"><textPath startOffset="22.20632615414155" xlink:href="#id133">January</textPath></text><path d="M 100.0 79.0 l 0.0 -19.04495438616646 a40.04495438616646,40.04495438616646 0 0,0 0.6893080620932376,0.005933092112758343 l -0.3278275828207092 19.04213267066226" fill="#ffe315" stroke="none" /><path d="M 100.36148047927253 79.00311137660856 l 0.24340842100851612 -14.13857676684727 a35.14067185997367,35.14067185997367 0 0,0 0.6047096586453194,0.015617866415536556 l -0.4867447148487034 14.132292108289375" fill="#ffa20f" stroke="none" /><path d="M 101.08401301168833 79.027996857942 l 2.0434293791357327 -39.533480592693884 a60.586256344853055,60.586256344853055 0 0,0 1.041039076569278,0.06279832005305995 l -2.7236305045446225 39.49244900326052" fill="#32ff2f" stroke="none" /><path d="M 101.80526077348638 79.07773832637324 l 1.5911062022618125 -18.44029450103342 a39.50881088108362,39.50881088108362 0 0,0 0.6770584902212164,0.06429486184351595 l -1.9082898195732731 18.410174094674726" fill="#ffdc14" stroke="none" /><path d="M 102.16513564639614 79.11191278185805 l 1.3548565504781709 -13.070941694376016 a34.140972302312754,34.140972302312754 0 0,0 0.5840273345496655,0.06562227593188003 l -1.5796505885375616 13.045683464973536" fill="#ff950d" stroke="none" /><path d="M 102.52436894288641 79.15227682838746 l 2.0785133733929735 -17.165585695823204 a38.29096729868007,38.29096729868007 0 0,0 0.6536546575125959,0.08486313455941798 l -2.3736827594134153 17.12726423809965" fill="#ffcc13" stroke="none" /><path d="M 102.88285421437855 79.19881850522331 l 2.1630478671897517 -15.607432052197167 a36.756608497379936,36.756608497379936 0 0,0 0.625966827281082,0.09225123863560578 l -2.4313836748994895 15.567886329400594" fill="#ffb811" stroke="none" /><path d="M 103.2404852339499 79.25152402106235 l 2.489909658099025 -15.942621860930572 a37.13588677160683,37.13588677160683 0 0,0 0.6307279150269453,0.1040755102647628 l -2.7639667792648455 15.897400087726185" fill="#ffbd11" stroke="none" /><path d="M 103.59715602781102 79.31037775812273 l 5.138991378809578 -29.55773658684892 a51.001150386760614,51.001150386760614 0 0,0 0.8636313288998452,0.1578231051639159 l -5.647017828812324 29.464898000334266" fill="#97ff23" stroke="none" /><path d="M 104.307194497241 79.44645832069477 l 3.4009034890781895 -16.228803146651106 a37.58132069874945,37.58132069874945 0 0,0 0.6320055638420471,0.1381319372225583 l -3.679751777073765 16.167857711332676" fill="#ffc312" stroke="none" /><path d="M 104.66035177308747 79.52364482259891 l 0.6173920784233219 -2.7126577771476987 a23.782028970808852,23.782028970808852 0 0,0 0.39837878418579,0.09428338711448225 l -0.6639945495716354 2.701628477892348" fill="#ff0000" stroke="none" /><path d="M 105.01212808612495 79.60689891045804 l 4.049989894901281 -16.478400375877033 a37.96879775047445,37.96879775047445 0 0,0 0.6333396361574865,0.16145237515179042 l -4.333038419743792 16.406245004556375" fill="#ffc812" stroke="none" /><path d="M 105.36241919743992 79.69619591428918 l 2.5747339641585816 -9.748751833138849 a31.083026197046195,31.083026197046195 0 0,0 0.5161293735345095,0.14107765468701944 l -2.742161226916802 9.702987637625537" fill="#ff6a09" stroke="none" /><path d="M 106.0581310904928 79.89281104454417 l 18.174393271478365 -60.321566866367476 a84.0,84.0 0 0,0 1.380858509157127,0.4290394604699177 l -19.21003715334621 59.99978727101504" fill="#4dd2ff" stroke="none" /><path d="M 106.74666289553966 80.11325718540242 l 3.122079389117312 -9.20277043917215 a30.717940289384984,30.717940289384984 0 0,0 0.4992659913750908,0.17418410104604942 l -3.280027384555676 9.147665484953894" fill="#ff6509" stroke="none" /><path d="M 107.4271985657038 80.35727306442388 l 5.097978372539841 -13.482633621467437 a35.4142565835914,35.4142565835914 0 0,0 0.568342888937699,0.2205082111712768 l -5.329304426477207 13.392882706405613" fill="#ffa60f" stroke="none" /><path d="M 108.09893153111575 80.62456947434976 l 4.364563191186125 -10.441536708977084 a32.317027025450315,32.317027025450315 0 0,0 0.5114034752612607,0.2189562790485865 l -4.5436504242377005 10.364860901965708" fill="#ff7b0b" stroke="none" /><path d="M 108.43124777332544 80.76684994638697 l 6.372888107773012 -14.537671830671428 a36.87317249608572,36.87317249608572 0 0,0 0.5791157922889514,0.2598323751798903 l -6.622186018528744 14.425819124975007" fill="#ffb911" stroke="none" /><path d="M 109.08828744355905 81.06846463323043 l 7.841553339910906 -16.33450144560986 a39.11921345586774,39.11921345586774 0 0,0 0.6045385132562487,0.296644422972904 l -8.121563120177587 16.197101862502123" fill="#ffd714" stroke="none" /><path d="M 109.41281617654863 81.2277094730956 l 9.521820169960847 -18.98968079508207 a42.24318799164057,42.24318799164057 0 0,0 0.6472048908155701,0.3315234826500754 l -9.847285548365173 18.822964787119492" fill="#fffe18" stroke="none" /><path d="M 109.73455568895987 81.39251694778311 l 12.533910841740937 -23.958415876155108 a48.038946212519306,48.038946212519306 0 0,0 0.7294026647343718,0.389621642687144 l -12.94445855300362 23.739115506966208" fill="#b9ff1f" stroke="none" /><path d="M 110.36928655335952 81.73862282372117 l 8.43538462773148 -14.855577529013443 a38.08343927721516,38.08343927721516 0 0,0 0.5672678211843409,0.3285981366342802 l -8.689849181381149 14.708175234989113" fill="#ffc912" stroke="none" /><line stroke="#e1ed5e" stroke-width="0.3" x1="143.23703022742887" x2="145.7803849466894" y1="26.81831364943548" y2="22.513508569990506" /><path d="M 143.74570117128098 25.957352633546492 a86.0,86.0 0 0,1 28.547481713284135,27.462654790039103" fill="none" id="id134" stroke="none" /><text fill="#e1ed5e" style="font-size:6.75px; font-family:Arial;" text-anchor="middle"><textPath startOffset="19.985693538727396" xlink:href="#id134">February</textPath></text><path d="M 110.68208982089419 81.91981866633111 l 6.399745198390977 -10.832014672808628 a33.58130678730432,33.58130678730432 0 0,0 0.4951450689205969,0.2983193638086695 l -6.585252333529211 10.720248699541344" fill="#ff8d0d" stroke="none" /><path d="M 111.2981086023043 82.29822771554956 l 7.889821850598537 -12.36170005798065 a35.66495540933081,35.66495540933081 0 0,0 0.5146503577600258,0.3347429086181697 l -8.101439234142843 12.224058225202953" fill="#ffa90f" stroke="none" /><path d="M 111.60114157652 82.49532879139004 l 4.62333954273594 -6.976040939380926 a29.3690152177747,29.3690152177747 0 0,0 0.41899138519753015,0.2829048536226143 l -4.742735622340012 6.8954241734596415" fill="#ff5207" stroke="none" /><path d="M 111.90073688211348 82.69761687909136 l 13.098612551454204 -19.043964668963792 a44.11376734947929,44.11376734947929 0 0,0 0.6219387060872514,0.43570780909844814 l -13.424482397125107 18.81567201710141" fill="#e8ff1a" stroke="none" /><path d="M 112.48926042617603 83.11751280151076 l 14.535316220711143 -19.648264320586627 a45.44032954867233,45.44032954867233 0 0,0 0.6248128538888447,0.47059608782016565 l -14.871375228358373 19.39515164326061" fill="#d8ff1c" stroke="none" /><path d="M 112.77801427241765 83.33499621200491 l 12.34420375538703 -16.0992309100298 a41.28705504130578,41.28705504130578 0 0,0 0.5602603133387081,0.43729206126269704 l -12.619496623885167 15.884360459543878" fill="#fff216" stroke="none" /><path d="M 113.6212207817346 84.01681056812373 l 13.62978149002678 -15.99323459776098 a42.01319814699551,42.01319814699551 0 0,0 0.5463840453631785,0.47381885998115886 l -13.903059334036723 15.75625074436015" fill="#fffb17" stroke="none" /><path d="M 114.16331599549186 84.49514656593476 l 15.887322263052555 -17.392156132560896 a44.55619034626484,44.55619034626484 0 0,0 0.5618156158012898,0.5221463860095787 l -16.18434576264869 17.11610516047668" fill="#e3ff1b" stroke="none" /><path d="M 114.68862486808459 84.99185889309783 l 20.035401756242184 -20.471224460535172 a49.64416789588495,49.64416789588495 0 0,0 0.605574216448022,0.6029736883117419 l -20.384811772857528 20.12331492157331" fill="#a7ff21" stroke="none" /><path d="M 115.19652480421416 85.50635884689758 l 5.32126360579896 -5.075139624167659 a28.353426994755385,28.353426994755385 0 0,0 0.33380446129658775,0.35607932546820664 l -5.407835389066011 4.982790881821398" fill="#ff4306" stroke="none" /><path d="M 115.68641384162765 86.03803664274999 l 5.4946208732490875 -4.890582134885499 a28.35585835635827,28.35585835635827 0 0,0 0.32137738114511105,0.36738990234655877 l -5.577990117972046 4.795276676335993" fill="#ff4306" stroke="none" /><path d="M 116.38621287248628 86.86637796730983 l 4.434109948931187 -3.553958719676829 a26.682600955581652,26.682600955581652 0 0,0 0.28416451537406817,0.3608600771667198 l -4.49462854489922 3.477106248557071" fill="#ff2b04" stroke="none" /><path d="M 116.82858285166822 87.43820079747576 l 22.65783646170676 -16.91308142250244 a49.27419099337142,49.27419099337142 0 0,0 0.5015112787346575,0.6840608205843618 l -22.945610352955043 16.520558158246587" fill="#abff21" stroke="none" /><line stroke="#e1ed5e" stroke-width="0.3" x1="172.23445277983987" x2="176.4835382374775" y1="55.19839476539836" y2="52.563006222186495" /><path d="M 173.08426987136738 54.67131705675599 a86.0,86.0 0 0,1 12.851231095245387,41.99856678651699" fill="none" id="id135" stroke="none" /><text fill="#e1ed5e" style="font-size:6.75px; font-family:Arial;" text-anchor="middle"><textPath startOffset="22.20632615414155" xlink:href="#id135">March</textPath></text><line stroke="#e1ed5e" stroke-width="0.3" x1="184.98032266829074" x2="189.97916517819016" y1="98.17113171792111" y2="98.06355123074" /><path d="M 185.9800911702706 98.14961562048488 a86.0,86.0 0 0,1 -9.607161424134198,41.387399972396054" fill="none" id="id136" stroke="none" /><text fill="#e1ed5e" style="font-size:6.75px; font-family:Arial;" text-anchor="middle"><textPath startOffset="21.466115282336823" xlink:href="#id136">April</textPath></text><line stroke="#e1ed5e" stroke-width="0.3" x1="174.80103733775053" x2="179.2010983576182" y1="140.37084112569926" y2="142.7455964860345" /><path d="M 175.68104954172406 140.8457921977663 a86.0,86.0 0 0,1 -30.038265399797805,32.042727171017184" fill="none" id="id137" stroke="none" /><text fill="#e1ed5e" style="font-size:6.75px; font-family:Arial;" text-anchor="middle"><textPath startOffset="22.206326154141568" xlink:href="#id137">May</textPath></text><line stroke="#e1ed5e" stroke-width="0.3" x1="143.8653032363475" x2="146.44561519142675" y1="172.8068346515853" y2="177.08958963109032" /><path d="M 144.38136562736335 173.6633856474863 a86.0,86.0 0 0,1 -40.68145358897372,12.25698825130547" fill="none" id="id138" stroke="none" /><text fill="#e1ed5e" style="font-size:6.75px; font-family:Arial;" text-anchor="middle"><textPath startOffset="21.466115282336833" xlink:href="#id138">June</textPath></text><line stroke="#e1ed5e" stroke-width="0.3" x1="102.19456741930631" x2="102.32365962044197" y1="184.97166512339345" y2="189.96999836594603" /><path d="M 102.22038585953345 185.97133177190398 a86.0,86.0 0 0,1 -42.740103519485714,-10.115201625700543" fill="none" id="id139" stroke="none" /><text fill="#e1ed5e" style="font-size:6.75px; font-family:Arial;" text-anchor="middle"><textPath startOffset="22.20632615414155" xlink:href="#id139">July</textPath></text><line stroke="#e1ed5e" stroke-width="0.3" x1="58.666819895761336" x2="56.23545636021788" y1="174.27360380694188" y2="178.64263932499728" /><path d="M 58.180547188652646 175.14741091055294 a86.0,86.0 0 0,1 -31.652253787137756,-30.449443065178592" fill="none" id="id140" stroke="none" /><text fill="#e1ed5e" style="font-size:6.75px; font-family:Arial;" text-anchor="middle"><textPath startOffset="22.20632615414155" xlink:href="#id140">August</textPath></text><line stroke="#e1ed5e" stroke-width="0.3" x1="26.63291911575756" x2="22.317208475507996" y1="142.92168965132927" y2="145.44649492493687" /><path d="M 25.769776987707644 143.4266507060508 a86.0,86.0 0 0,1 -11.730757126820373,-40.83630448921669" fill="none" id="id141" stroke="none" /><text fill="#e1ed5e" style="font-size:6.75px; font-family:Arial;" text-anchor="middle"><textPath startOffset="21.46611528233685" xlink:href="#id141">September</textPath></text><line stroke="#e1ed5e" stroke-width="0.3" x1="15.007084014347285" x2="10.007500721073583" y1="101.09737516637583" y2="101.16192664675087" /><path d="M 14.007167355692545 101.11028546245083 a86.0,86.0 0 0,1 10.666146001902534,-42.60595125391555" fill="none" id="id142" stroke="none" /><text fill="#e1ed5e" style="font-size:6.75px; font-family:Arial;" text-anchor="middle"><textPath startOffset="22.20632615414155" xlink:href="#id142">October</textPath></text><line stroke="#e1ed5e" stroke-width="0.3" x1="26.266209847984243" x2="21.928928074336255" y1="57.711370442889674" y2="55.22380399835377" /><path d="M 25.398753493254645 57.213857153982495 a86.0,86.0 0 0,1 29.58750427330803,-30.492523968695096" fill="none" id="id143" stroke="none" /><text fill="#e1ed5e" style="font-size:6.75px; font-family:Arial;" text-anchor="middle"><textPath startOffset="21.46611528233685" xlink:href="#id143">November</textPath></text><line stroke="#e1ed5e" stroke-width="0.3" x1="56.762969772571076" x2="54.21961505331055" y1="26.818313649435495" y2="22.513508569990535" /><path d="M 56.25429882871897 25.957352633546506 a86.0,86.0 0 0,1 42.265352541879196,-11.944610805530505" fill="none" id="id144" stroke="none" /><text fill="#e1ed5e" style="font-size:6.75px; font-family:Arial;" text-anchor="middle"><textPath startOffset="22.20632615414155" xlink:href="#id144">December</textPath></text></svg>