<?xml version="1.0" encoding="utf-8" ?>
<svg baseProfile="full" height="200mm" version="1.1" viewBox="0,0,200,200" width="200mm" xmlns="http://www.w3.org/2000/svg" xmlns:ev="http://www.w3.org/2001/xml-events" xmlns:xlink="http://www.w3.org/1999/xlink"><defs /><rect fill="#1a1a1a" height="200" width="200" x="0" y="0" /><rect fill="#1a1a1a" height="200" width="180" x="10" y="0" /><text alignment-baseline="middle" fill="#e1ed5e" style="dominant-baseline: central; font-size:9.0px; font-family:Arial;" text-anchor="middle" x="100.0" y="100.0">2021</text><line stroke="#e1ed5e" stroke-width="0.3" x1="100.0" x2="100.0" y1="15.0" y2="10.0" /><path d="M 100.0 14.0 a86.0,86.0 0 0,1 42.46469731375804,11.215312516191453" fill="none" id="id73" stroke="none" /><text fill="#e1ed5e" style="font-size:6.75px; font-family:Arial;" text-anchor="middle"><textPath startOffset="22.20632615414155" xlink:href="#id73">January</textPath></text><path d="M 100.0 79.0 l 0.0 -4.622525774073058 a25.622525774073058,25.622525774073058 0 0,0 0.44104966176117333,0.003796253683126078 l -0.07956918248864496 4.62184089699849" fill="#ff2d04" stroke="none" /><path d="M 100.36148047927253 79.00311137660856 l 0.09083349446745917 -5.276137650489241 a26.27691948305328,26.27691948305328 0 0,0 0.4521799433478333,0.011678473875895995 l -0.18164007301016025 5.273792384470986" fill="#ff3705" stroke="none" /><path d="M 100.72285384407766 79.0124445844662 l 0.16007330972399345 -4.647616507686831 a25.650372314880727,25.650372314880727 0 0,0 0.4411365292450504,0.01899626690463088 l -0.24005067135837538 4.644172514258005" fill="#ff2e04" stroke="none" /><path d="M 101.08401301168833 79.027996857942 l 0.27454897143383067 -5.311598504331015 a26.318689294264786,26.318689294264786 0 0,0 0.4522277105794926,0.02727961048246364 l -0.3659387308529352 5.306085624468247" fill="#ff3705" stroke="none" /><path d="M 101.44485096284872 79.0497635885617 l 0.1571045860206319 -2.2780053466303474 a23.28341634622886,23.28341634622886 0 0,0 0.39959865125438637,0.031016546078217702 l -0.19629342663735946 2.2749635383636653" fill="#ff0b01" stroke="none" /><path d="M 101.80526077348638 79.07773832637324 l 1.0209652007418755 -11.832584745269548 a32.87654965447084,32.87654965447084 0 0,0 0.56340210136257,0.05350181822196414 l -1.2244924291946897 11.813257382532406" fill="#ff920d" stroke="none" /><path d="M 102.16513564639614 79.11191278185805 l 0.8541301235297072 -8.240197119116974 a29.284345890281536,29.284345890281536 0 0,0 0.5009481957012983,0.05628736667134969 l -0.9958450227407307 8.224273798975025" fill="#ff6108" stroke="none" /><path d="M 102.52436894288641 79.15227682838746 l 0.5673806095951391 -4.685762719079889 a25.7199886668999,25.7199886668999 0 0,0 0.4390589104775587,0.057002447655091514 l -0.647954248580544 4.675301948260661" fill="#ff2f04" stroke="none" /><path d="M 102.88285421437855 79.19881850522331 l 1.0913919644232757 -7.874918620816627 a28.950187400589506,28.950187400589506 0 0,0 0.4930230969930623,0.07265878859927083 l -1.2267840418449938 7.854965348056386" fill="#ff5c08" stroke="none" /><path d="M 103.2404852339499 79.25152402106235 l 0.5843874945391214 -3.741769833049627 a24.787129549842987,24.787129549842987 0 0,0 0.42099262733719256,0.0694673907146628 l -0.6487093280151891 3.73115617939534" fill="#ff2103" stroke="none" /><path d="M 103.59715602781102 79.31037775812273 l 1.42382157656275 -8.189339114334626 a29.312192431089205,29.312192431089205 0 0,0 0.49635993522218774,0.0907066055089932 l -1.5645766328878385 8.163617027474894" fill="#ff6109" stroke="none" /><path d="M 103.95276090670814 79.375362276772 l 2.646938692155304 -13.81114438484027 a35.06250310787286,35.06250310787286 0 0,0 0.5917775652187358,0.11870501242858801 l -2.8842826668411656 13.763535416334474" fill="#ffaf10" stroke="none" /><path d="M 104.307194497241 79.44645832069477 l 2.6015658509824777 -12.41443640027793 a33.684099337893244,33.684099337893244 0 0,0 0.5664659410243967,0.12380751417538965 l -2.8148745161604025 12.36781538800667" fill="#ff9c0e" stroke="none" /><path d="M 104.66035177308747 79.52364482259891 l 2.1412821511516564 -9.408228390657104 a30.64882638985732,30.64882638985732 0 0,0 0.5134062450642723,0.12150667071621166 l -2.302912083178452 9.369975807800024" fill="#ff740a" stroke="none" /><path d="M 105.01212808612495 79.60689891045804 l 3.4061830956102632 -13.858910826832643 a35.27135216393037,35.27135216393037 0 0,0 0.588344816527858,0.1499821937767477 l -3.6442368008231463 13.798225636887027" fill="#ffb110" stroke="none" /><path d="M 105.36241919743992 79.69619591428918 l 0.6328528298014827 -2.396179671576478 a23.478342131882542,23.478342131882542 0 0,0 0.3898546409007297,0.10656200020254747 l -0.6740053599259233 2.3849311305476366" fill="#ff0e01" stroke="none" /><path d="M 105.71112130821622 79.79150937346287 l 4.706677878583837 -16.65432244534109 a38.3066251119663,38.3066251119663 0 0,0 0.6329892209454154,0.184786911301283 l -4.99265731725268 16.5708372051211" fill="#ffd814" stroke="none" /><path d="M 106.0581310904928 79.89281104454417 l 3.5828240764194605 -11.891542065139197 a33.41955720022038,33.41955720022038 0 0,0 0.549377142049853,0.17069415226578696 l -3.7869865911800313 11.828107777990889" fill="#ff990e" stroke="none" /><path d="M 106.40334571778207 80.00007090966166 l 6.941393583609142 -21.680444189478827 a43.76454711026943,43.76454711026943 0 0,0 0.7154819428445937,0.23588314747107633 l -7.313558348696153 21.557747317748515" fill="#e3ff1b" stroke="none" /><path d="M 106.74666289553966 80.11325718540242 l 9.518808664235724 -28.058034429461053 a50.62871941935984,50.62871941935984 0 0,0 0.8228806213837486,0.287086891116241 l -10.000371289682747 27.890026685172604" fill="#94ff23" stroke="none" /><path d="M 107.08798089147638 80.2323363322302 l 6.043457461716174 -16.85459319414097 a38.90532573933119,38.90532573933119 0 0,0 0.6284463863026782,0.2314621077525011 l -6.332686173791428 16.748067818582147" fill="#ffe015" stroke="none" /><path d="M 107.4271985657038 80.35727306442388 l 14.837001121021437 -39.239446607611185 a62.95081372675339,62.95081372675339 0 0,0 1.0102611429945687,0.3919656281333392 l -15.510245429015672 38.9782382755873" fill="#33ff4f" stroke="none" /><path d="M 107.76421540070413 80.48803036053334 l 5.415459074452205 -13.609394844313924 a35.64728046483391,35.64728046483391 0 0,0 0.5681771322326988,0.23177371831589655 l -5.648920076273291 13.514160239814448" fill="#ffb610" stroke="none" /><path d="M 108.09893153111575 80.62456947434976 l 14.5626152536627 -34.83878571328591 a58.759909335199204,58.759909335199204 0 0,0 0.9298510601359607,0.39811369700360744 l -15.160150071588978 34.58295248831951" fill="#3fff2d" stroke="none" /><path d="M 108.76106565485865 80.91482961587045 l 12.302825201953036 -26.800565642973147 a50.489486715321505,50.489486715321505 0 0,0 0.7867266739786994,0.3693787222859886 l -12.762330087231334 26.584821938047156" fill="#95ff23" stroke="none" /><path d="M 109.08828744355905 81.06846463323043 l 3.537057488765246 -7.367936958278412 a29.17295972705086,29.17295972705086 0 0,0 0.450831602751215,0.22122110952986712 l -3.6633603585268926 7.305960688613713" fill="#ff5f08" stroke="none" /><path d="M 109.41281617654863 81.2277094730956 l 8.662255839242466 -17.27542322963515 a40.325499320522304,40.325499320522304 0 0,0 0.617824118529753,0.31647350992989315 l -8.958340445360975 17.12375719439276" fill="#fff216" stroke="none" /><path d="M 109.73455568895987 81.39251694778311 l 9.707020194396906 -18.554849294212325 a41.94059868736711,41.94059868736711 0 0,0 0.6368079830016768,0.3401607704624393 l -10.024973223926892 18.38500979724813" fill="#f9ff18" stroke="none" /><path d="M 110.05341064243156 81.56283822128135 l 14.104284136854593 -25.866144103043254 a50.46164017451383,50.46164017451383 0 0,0 0.759029359859226,0.42239901697800797 l -14.547437585785854 25.619529688505065" fill="#96ff23" stroke="none" /><line stroke="#e1ed5e" stroke-width="0.3" x1="143.23703022742887" x2="145.7803849466894" y1="26.81831364943548" y2="22.513508569990506" /><path d="M 143.74570117128098 25.957352633546492 a86.0,86.0 0 0,1 28.547481713284135,27.462654790039103" fill="none" id="id74" stroke="none" /><text fill="#e1ed5e" style="font-size:6.75px; font-family:Arial;" text-anchor="middle"><textPath startOffset="19.985693538727396" xlink:href="#id74">February</textPath></text><path d="M 110.68208982089419 81.91981866633111 l 8.675894794837552 -14.6845564634436 a38.05600624469728,38.05600624469728 0 0,0 0.5611230067436548,0.33807033311487683 l -8.927379867798845 14.533039520870108" fill="#ffd513" stroke="none" /><path d="M 110.99172775467656 82.1063720568725 l 3.7968693152026107 -6.180990686019042 a28.25402388039778,28.25402388039778 0 0,0 0.41221389454145657,0.25812830294528477 l -3.9027023621163304 6.114718041750813" fill="#ff5307" stroke="none" /><path d="M 111.2981086023043 82.29822771554956 l 5.086247416270611 -7.969085509306723 a30.453900604203636,30.453900604203636 0 0,0 0.43945409888389214,0.2858331701251113 l -5.222668540938784 7.880353415022084" fill="#ff710a" stroke="none" /><path d="M 111.60114157652 82.49532879139004 l 5.408038661464004 -8.16005373505453 a30.789451420936047,30.789451420936047 0 0,0 0.439255957500489,0.2965875833006737 l -5.547699313371035 8.065754239455186" fill="#ff760a" stroke="none" /><path d="M 111.90073688211348 82.69761687909136 l 7.921903158333835 -11.517589612306939 a34.97896348544985,34.97896348544985 0 0,0 0.49315151703248683,0.3454841529185303 l -8.118985814949973 11.379520616624474" fill="#ffae10" stroke="none" /><path d="M 112.19680574252982 82.90503203632743 l 11.935879544687406 -16.729255408503704 a41.55074711605974,41.55074711605974 0 0,0 0.5786528858614751,0.42041593053139115 l -12.22207774690267 16.521320243155635" fill="#fdff18" stroke="none" /><path d="M 112.48926042617603 83.11751280151076 l 12.602982608933512 -17.036212337454526 a42.191217554636125,42.191217554636125 0 0,0 0.5801369688818102,0.4369471374610966 l -12.894365731573705 16.81674861048758" fill="#f6ff19" stroke="none" /><path d="M 113.06298171725822 83.55741782278167 l 4.9886928474440975 -6.279346773687243 a29.01980375260868,29.01980375260868 0 0,0 0.38844610519922507,0.3140964024552135 l -5.096042351207814 6.192544273967899" fill="#ff5d08" stroke="none" /><path d="M 113.89432698308785 84.25364557470407 l 4.642907319955831 -5.261778012912279 a28.017328283532596,28.017328283532596 0 0,0 0.3588739745326842,0.3222005977194819 l -4.732792282084505 5.181078406423499" fill="#ff4f07" stroke="none" /><path d="M 114.42810811169701 84.74124197986012 l 15.363030464371166 -16.247505389970677 a43.36077226855823,43.36077226855823 0 0,0 0.5379146545650189,0.5174734715023258 l -15.640428362548603 15.98064883170605" fill="#e7ff1a" stroke="none" /><path d="M 115.4437574822437 85.77008943001954 l 1.1160956976638496 -1.0283729191912423 a22.517636474017962,22.517636474017962 0 0,0 0.2601927470817508,0.2873113300233644 l -1.1336320853616362 1.0090088018983288" fill="#ff0000" stroke="none" /><path d="M 115.9244219780498 86.31012108654704 l 5.933650412977899 -5.101030089531425 a28.824877966954997,28.824877966954997 0 0,0 0.320216099867602,0.37903486088608457 l -6.020577126332618 4.998136279016233" fill="#ff5a08" stroke="none" /><path d="M 116.15771136456269 86.58626213691792 l 3.845884676785426 -3.192759651542397 a25.99845407497659,25.99845407497659 0 0,0 0.2828898076102087,0.34678945486274865 l -3.9002729764720434 3.1260860270715476" fill="#ff3304" stroke="none" /><path d="M 116.38621287248628 86.86637796730983 l 11.39661936579157 -9.134440786624106 a35.6055106536224,35.6055106536224 0 0,0 0.3791917698119424,0.4815350401340422 l -11.552165216197478 8.936913352537026" fill="#ffb610" stroke="none" /><path d="M 116.60985879189232 87.15038557335679 l 11.111663206046952 -8.596134959685278 a35.04857983746902,35.04857983746902 0 0,0 0.36504607959192875,0.4803578505225064 l -11.257985225862996 8.403592333281738" fill="#ffae10" stroke="none" /><path d="M 116.82858285166822 87.43820079747576 l 3.771257687157277 -2.8150785021300577 a25.706065396496065,25.706065396496065 0 0,0 0.2616355838286162,0.35687064231024945 l -3.81915588349952 2.7497454161483144" fill="#ff2e04" stroke="none" /><path d="M 117.04232023915458 87.72973835380427 l 12.018171710873997 -8.652936298106269 a35.80911063673768,35.80911063673768 0 0,0 0.35585283266350937,0.503328595554851 l -12.165337163341388 8.444781202219625" fill="#ffb811" stroke="none" /><path d="M 117.2510076193507 88.02491185347247 l 4.614527369084013 -3.203254744224889 a26.617357367697437,26.617357367697437 0 0,0 0.2580306070769182,0.37862807658078995 l -4.668982441829664 3.1233486443736926" fill="#ff3b05" stroke="none" /><path d="M 117.45458315368197 88.32363383020206 l 3.907620207387382 -2.6140300225005406 a25.701345407829166,25.701345407829166 0 0,0 0.24282063832102152,0.3698324911293493 l -3.952037481066329 2.5463794673935176" fill="#ff2e04" stroke="none" /><path d="M 117.65298651832404 88.62581576622439 l 30.24704218219526 -19.48879471187256 a56.98189378135913,56.98189378135913 0 0,0 0.5241585424858464,0.8290929372663586 l -30.578028320927057 18.965254126891995" fill="#51ff2b" stroke="none" /><line stroke="#e1ed5e" stroke-width="0.3" x1="172.23445277983987" x2="176.4835382374775" y1="55.19839476539836" y2="52.563006222186495" /><path d="M 173.08426987136738 54.67131705675599 a86.0,86.0 0 0,1 12.851231095245387,41.99856678651699" fill="none" id="id75" stroke="none" /><text fill="#e1ed5e" style="font-size:6.75px; font-family:Arial;" text-anchor="middle"><textPath startOffset="22.20632615414155" xlink:href="#id75">March</textPath></text><path d="M 118.03404312379186 89.2402003453031 l 11.962087710980695 -7.13703889574605 a34.92942448935301,34.92942448935301 0 0,0 0.30362040556431524,0.5189856931099127 l -12.083167791015338 6.930073790282242" fill="#ffad10" stroke="none" /><path d="M 118.21658344932153 89.55222093294921 l 6.282077634329807 -3.602967559099751 a28.241952404957658,28.241952404957658 0 0,0 0.23823076492957354,0.42378594830661254 l -6.3431660405518135 3.4942981008583445" fill="#ff5207" stroke="none" /><path d="M 118.3937258080291 89.86733742301442 l 6.832477141837562 -3.7638478558262842 a28.80059578337071,28.80059578337071 0 0,0 0.2354680492232183,0.4362865338116774 l -6.896253290279245 3.645680338682148" fill="#ff5a08" stroke="none" /><path d="M 118.56541770881063 90.18545643968196 l 26.005237237644458 -13.747578302218407 a50.415442763313905,50.415442763313905 0 0,0 0.39897957191994515,0.7707015403021934 l -26.23802624272452 13.29790403965587" fill="#96ff23" stroke="none" /><path d="M 118.89224826269711 90.83032412892265 l 26.845666084932436 -13.03000326478141 a50.84075690433984,50.84075690433984 0 0,0 0.3753544179476692,0.7905921315089399 l -27.065978696721864 12.56596871763193" fill="#92ff23" stroke="none" /><path d="M 119.04729006885535 91.15688171328212 l 4.20390892265565 -1.9517560626862818 a25.634889638191662,25.634889638191662 0 0,0 0.1823711008021971,0.4018305464121596 l -4.236882340421194 1.8791035074320592" fill="#ff2d04" stroke="none" /><path d="M 119.196687751892 91.48605970444005 l 7.654613051977703 -3.394904337271875 a29.37367759319254,29.37367759319254 0 0,0 0.20101287410607876,0.46396542782377637 l -7.711916635926463 3.2626397648614955" fill="#ff6209" stroke="none" /><path d="M 119.34039704204932 91.81776055985345 l 4.27174189691676 -1.8072232411302733 a25.638300839440603,25.638300839440603 0 0,0 0.1684537857585811,0.4079242038488348 l -4.302217369561538 1.7334244668281356" fill="#ff2d04" stroke="none" /><path d="M 119.47837535516314 92.15188598940014 l 10.613762533413468 -4.276435633097203 a32.44289547447301,32.44289547447301 0 0,0 0.2042457162971011,0.5197830698308809 l -10.68580179959227 4.0931035583705375" fill="#ff8c0c" stroke="none" /><path d="M 119.61058180528143 92.48833698450437 l 8.6585713263145 -3.316590534881085 a30.27203484618875,30.27203484618875 0 0,0 0.1822022048227222,0.4882113236879007 l -8.714378119638846 3.1670560741638507" fill="#ff6e0a" stroke="none" /><path d="M 119.85752413597 93.16781622104841 l 13.423804263877315 -4.618596815770843 a35.19612473393846,35.19612473393846 0 0,0 0.19217537670189158,0.5745799157950152 l -13.501316934350976 4.386843797053514" fill="#ffb010" stroke="none" /><path d="M 120.08093135843002 93.85539295169968 l 19.972272051490677 -6.111358155041059 a41.88636754914417,41.88636754914417 0 0,0 0.20503197978398952,0.6912659089746259 l -20.07450992838637 5.766662859319903" fill="#f9ff18" stroke="none" /><path d="M 120.18372546131832 94.20196356495316 l 17.254707074879494 -4.9566379847933915 a38.95252562600018,38.95252562600018 0 0,0 0.17957713335474174,0.646034494229499 l -17.3374709788006 4.658892187144941" fill="#ffe115" stroke="none" /><path d="M 120.37134235888165 94.90015583598534 l 4.50486439441436 -1.127765956057139 a25.64388407087254,25.64388407087254 0 0,0 0.10351239252971636,0.4291256942913676 l -4.523609587204896 1.0500550301063651" fill="#ff2e04" stroke="none" /><path d="M 120.45610955862082 95.25157060432595 l 20.378743602060844 -4.7304706151297315 a41.920577024526395,41.920577024526395 0 0,0 0.15711355771160235,0.7043092723483396 l -20.457151546774483 4.378983173231428" fill="#f9ff18" stroke="none" /><path d="M 120.6074358757038 95.95851677861258 l 7.024952018254948 -1.3777175328398055 a28.15877478756515,28.15877478756515 0 0,0 0.08918859621810485,0.47644904732458876 l -7.047626338382911 1.256590408052654" fill="#ff5107" stroke="none" /><path d="M 120.67395015179393 96.31383870115 l 2.8141625852204877 -0.5017646426612512 a23.858544876800053,23.858544876800053 0 0,0 0.06860824342600834,0.40492973639028074 l -2.822382690166719 0.45324911795513256" fill="#ff1402" stroke="none" /><path d="M 120.87857604477298 97.74499172005257 l 17.758467625119657 -1.9180183288337183 a38.861745902967186,38.861745902967186 0 0,0 0.06610729831718389,0.6656914724211415 l -17.78885204911907 1.6120513257081417" fill="#ffdf14" stroke="none" /><path d="M 120.91429891909075 98.10471618934814 l 8.044468137008337 -0.7290012581516409 a29.07743216881015,29.07743216881015 0 0,0 0.040882199713702286,0.498866387321782 l -8.055824820541535 0.5904209536220901" fill="#ff5e08" stroke="none" /><path d="M 120.94382443527127 98.46500227214037 l 11.804371231194857 -0.8651563650514834 a32.83603293759568,32.83603293759568 0 0,0 0.03646270866020368,0.5640619641964963 l -11.817514530859476 0.6618353366019519" fill="#ff910d" stroke="none" /><path d="M 120.96714384426684 98.82574320788733 l 14.040570720442217 -0.7863367398094959 a35.06257272422488,35.06257272422488 0 0,0 0.028561624064862456,0.6028907420924263 l -14.052025952740577 0.5445348910940698" fill="#ffaf10" stroke="none" /><path d="M 120.98425023603335 99.18683210126433 l 14.558160726464221 -0.5641482938030774 a35.569087378245975,35.569087378245975 0 0,0 0.01844224244324766,0.6120082427909022 l -14.565714663363114 0.3134699035871762" fill="#ffb510" stroke="none" /><line stroke="#e1ed5e" stroke-width="0.3" x1="184.98032266829074" x2="189.97916517819016" y1="98.17113171792111" y2="98.06355123074" /><path d="M 185.9800911702706 98.14961562048488 a86.0,86.0 0 0,1 -9.607161424134198,41.387399972396054" fill="none" id="id76" stroke="none" /><text fill="#e1ed5e" style="font-size:6.75px; font-family:Arial;" text-anchor="middle"><textPath startOffset="21.466115282336823" xlink:href="#id76">April</textPath></text><path d="M 120.99513854157772 99.54816195383933 l 10.188973424530495 -0.21927770733237878 a31.191332697872326,31.191332697872326 0 0,0 0.006931891794758873,0.5368826587168559 l -10.19123832344297 0.04385879055506018" fill="#ff7b0b" stroke="none" /><path d="M 120.99824983174949 100.27111621757518 l 13.915900758679804 0.17967337316562354 a34.917060625234406,34.917060625234406 0 0,0 -0.012932509941279409,0.6009229196492235 l -13.910746186053517 -0.4191861086049619" fill="#ffad10" stroke="none" /><path d="M 120.9764740272857 100.99374915477107 l 10.54814894831479 0.49971287300964373 a31.559979128354655,31.559979128354655 0 0,0 -0.030378206861783805,0.5424232904422337 l -10.537984390565477 -0.6812078797873008" fill="#ff800b" stroke="none" /><path d="M 120.95626037817324 101.35467743843564 l 14.055707999962362 0.908604405804208 a35.08504488265667,35.08504488265667 0 0,0 -0.0441460773912361,0.602338151781631 l -14.037985363906788 -1.1504156940826091" fill="#ffaf10" stroke="none" /><path d="M 120.92983693683757 101.71520430193887 l 10.716085355777059 0.8781853273697859 a31.75200887376434,31.75200887376434 0 0,0 -0.049329624215259424,0.5443482926441002 l -10.699381135284723 -1.0625150085624566" fill="#ff830c" stroke="none" /><path d="M 120.8583938346157 102.4346265915055 l 7.742532583640808 0.9037213441835974 a28.795096091561195,28.795096091561195 0 0,0 -0.06170170786724934,0.49182332055387745 l -7.725829366526711 -1.0368624190248699" fill="#ff5a08" stroke="none" /><path d="M 120.76222939487914 103.15116336523771 l 29.0509070814898 4.4091678393984965 a50.38360024390034,50.38360024390034 0 0,0 -0.1375190273782156,0.8563311147563113 l -28.970706299750294 -4.908578183848013" fill="#97ff23" stroke="none" /><path d="M 120.49622156327973 104.57218783832717 l 4.757490796518295 1.0612756840882662 a25.87442558221923,25.87442558221923 0 0,0 -0.1007124239982203,0.4338664866953094 l -4.738517806589521 -1.1430108281321405" fill="#ff3104" stroke="none" /><path d="M 120.23288151984713 105.62410040840565 l 35.672051826925234 9.91570088776924 a58.024537885550274,58.024537885550274 0 0,0 -0.27577505344092373,0.9600091393159815 l -35.496084136598206 -10.528267502589804" fill="#46ff2c" stroke="none" /><path d="M 120.13307415673323 105.97154293290107 l 19.85786394236961 5.889914583556542 a41.71293929299401,41.71293929299401 0 0,0 -0.21010058177503485,0.6866208575791187 l -19.753536588088444 -6.230862413687718" fill="#fbff18" stroke="none" /><path d="M 120.02730092923936 106.31721596034902 l 13.058150099460015 4.118935173161897 a34.692366887457325,34.692366887457325 0 0,0 -0.18454315294839752,0.567965423727702 l -12.98531469549537 -4.343099496867394" fill="#ffaa0f" stroke="none" /><path d="M 119.9155931802556 106.66101706037122 l 42.2513531238309 14.131488900899239 a65.55194518032735,65.55194518032735 0 0,0 -0.3671195144149137,1.067021153725222 l -42.001842778472756 -14.856682757713761" fill="#36ff6e" stroke="none" /><path d="M 119.79798401119884 107.00284435728193 l 1.6330452628944936 0.5776326416860357 a22.732194070941052,22.732194070941052 0 0,0 -0.13366068866105,0.36777681021363745 l -1.6228603132282169 -0.6056572489058043" fill="#ff0300" stroke="none" /><path d="M 119.67450827220406 107.3425965602758 l 14.342884060337918 5.352815415196842 a36.3091788165618,36.3091788165618 0 0,0 -0.2235706916306527,0.5836725274339287 l -14.248619089113758 -5.598911509463914" fill="#ffbf11" stroke="none" /><path d="M 119.54520255179757 107.68017299344265 l 14.248787552486277 5.59897770616055 a36.309359819077045,36.309359819077045 0 0,0 -0.23358569474023744,0.5797405381218704 l -14.150299243488647 -5.843417612125234" fill="#ffbf11" stroke="none" /><path d="M 119.41010516605496 108.01547362559984 l 6.2718186927147785 2.589970372953774 a27.78554760111996,27.78554760111996 0 0,0 -0.18636033888819717,0.440500791177536 l -6.226307372634273 -2.6975456897974737" fill="#ff4c07" stroke="none" /><path d="M 119.12269723197855 108.67885076344098 l 9.694560495257406 4.399883695004472 a31.64628948158802,31.64628948158802 0 0,0 -0.22939850199677864,0.4941039650522729 l -9.617387376420796 -4.5661077273355755" fill="#ff810b" stroke="none" /><path d="M 118.81262510543309 109.33194174019688 l 12.721250581704131 6.310335140661682 a35.20037133141163,35.20037133141163 0 0,0 -0.2739281669998366,0.5404862610626144 l -12.610743744918025 -6.52837561342699" fill="#ffb010" stroke="none" /><line stroke="#e1ed5e" stroke-width="0.3" x1="174.80103733775053" x2="179.2010983576182" y1="140.37084112569926" y2="142.7455964860345" /><path d="M 175.68104954172406 140.8457921977663 a86.0,86.0 0 0,1 -30.038265399797805,32.042727171017184" fill="none" id="id77" stroke="none" /><text fill="#e1ed5e" style="font-size:6.75px; font-family:Arial;" text-anchor="middle"><textPath startOffset="22.206326154141568" xlink:href="#id77">May</textPath></text><path d="M 118.48025628344425 109.97397251340804 l 12.247465004546955 6.610074960037922 a34.91738086045369,34.91738086045369 0 0,0 -0.29001975915378436,0.5264701047977074 l -12.131868835941662 -6.819915583233435" fill="#ffad10" stroke="none" /><path d="M 118.12598468904814 110.60418214915192 l 1.4226024874692156 0.8322602143692079 a22.64816713405391,22.64816713405391 0 0,0 -0.1997558896956979,0.3348023610672976 l -1.4080657220752906 -0.8566246693226097" fill="#ff0200" stroke="none" /><path d="M 117.94076556474637 110.91462005526583 l 50.76921767514669 30.886459077096028 a80.42631418544781,80.42631418544781 0 0,0 -0.7297169882619965,1.1765361320256529 l -50.230036047216736 -31.755791540486957" fill="#49f3ff" stroke="none" /><path d="M 117.55443506779139 111.5257021239791 l 3.8711052801589294 2.5416486590068326 a25.63092150612657,25.63092150612657 0 0,0 -0.24532074419966687,0.3667212270228351 l -3.8267814305485413 -2.607906800235474" fill="#ff2d04" stroke="none" /><path d="M 117.35343817320211 111.8261652097733 l 5.753363262289364 3.920849791987894 a27.96234528870785,27.96234528870785 0 0,0 -0.27448249959206433,0.39541251253454396 l -5.685019855535163 -4.019303566709458" fill="#ff4e07" stroke="none" /><path d="M 116.93607887273984 112.41649034213515 l 7.765314402157164 5.6930504399823505 a30.628651571042163,30.628651571042163 0 0,0 -0.31538575326473983,0.42251075610131905 l -7.666167382197332 -5.825874075592984" fill="#ff730a" stroke="none" /><path d="M 116.498646956653 112.99209946851258 l 14.57512919839608 11.477397438074439 a39.55168572128839,39.55168572128839 0 0,0 -0.4258060804580524,0.5312585560493334 l -14.375405205883174 -11.726583827702022" fill="#ffe815" stroke="none" /><path d="M 116.0416608686014 113.55231037782055 l 7.276724883115396 6.147520194932768 a30.525897835461862,30.525897835461862 0 0,0 -0.3425550703335114,0.3984689364455066 l -7.169827303211106 -6.2718662305398025" fill="#ff720a" stroke="none" /><path d="M 115.56566222782051 114.09645910891815 l 6.807360830224309 6.1648314204968 a30.183970160884495,30.183970160884495 0 0,0 -0.3520796148504097,0.3821128853516712 l -6.700234807378178 -6.281095560649806" fill="#ff6d0a" stroke="none" /><path d="M 115.32070863581623 114.36230785411682 l 21.818403142691064 20.45353320589822 a50.906349431212305,50.906349431212305 0 0,0 -0.6048000322047927,0.6341304158080607 l -21.46309655910731 -20.82607073828879" fill="#91ff24" stroke="none" /><path d="M 114.81725581225074 114.88116024355365 l 5.10991098645974 5.131949207283885 a28.2421055609321,28.2421055609321 0 0,0 -0.34744520555593594,0.34004826115864467 l -5.02081582852801 -5.219147571365101" fill="#ff5207" stroke="none" /><path d="M 114.29624159901734 115.38237550388516 l 5.108515736399689 5.496626982731444 a28.503988353957823,28.503988353957823 0 0,0 -0.3622727301744098,0.330927549610796 l -5.013143456758415 -5.583747298928823" fill="#ff5608" stroke="none" /><path d="M 113.48314897796784 116.09983520530334 l 10.039578548062757 11.98796812366531 a36.63664021318958,36.63664021318958 0 0,0 -0.48697050825057175,0.400743575506811 l -9.831737911267494 -12.1590068180293" fill="#ffc312" stroke="none" /><path d="M 111.7513745106137 117.40417183066458 l 10.173841474287235 15.067793562064741 a39.18090903043428,39.18090903043428 0 0,0 -0.5621999627256032,0.3725954794675599 l -9.912966812821667 -15.24068706262362" fill="#ffe315" stroke="none" /><line stroke="#e1ed5e" stroke-width="0.3" x1="143.8653032363475" x2="146.44561519142675" y1="172.8068346515853" y2="177.08958963109032" /><path d="M 144.38136562736335 173.6633856474863 a86.0,86.0 0 0,1 -40.68145358897372,12.25698825130547" fill="none" id="id78" stroke="none" /><text fill="#e1ed5e" style="font-size:6.75px; font-family:Arial;" text-anchor="middle"><textPath startOffset="21.466115282336833" xlink:href="#id78">June</textPath></text><path d="M 109.2508944713604 118.85261126421891 l 0.6641987499542553 1.3535859558050174 a22.507764875301643,22.507764875301643 0 0,0 -0.3492854973566727,0.16767826477592165 l -0.6408005845973499 -1.364818497080499" fill="#ff0000" stroke="none" /><path d="M 100.90346689309514 120.98055641714683 l 0.07683443722721432 1.7842704113957355 a22.785923971429447,22.785923971429447 0 0,0 -0.39200431424600674,0.013501421191628489 l -0.04610977130655532 -1.7853286310134577" fill="#ff0400" stroke="none" /><line stroke="#e1ed5e" stroke-width="0.3" x1="102.19456741930631" x2="102.32365962044197" y1="184.97166512339345" y2="189.96999836594603" /><path d="M 102.22038585953345 185.97133177190398 a86.0,86.0 0 0,1 -42.740103519485714,-10.115201625700543" fill="none" id="id79" stroke="none" /><text fill="#e1ed5e" style="font-size:6.75px; font-family:Arial;" text-anchor="middle"><textPath startOffset="22.20632615414155" xlink:href="#id79">July</textPath></text><path d="M 100.18074693466247 120.99922214144158 l 0.03989907176030866 4.6354837092905 a25.635655418063873,25.635655418063873 0 0,0 -0.441292012845525,0.0 l 0.039899071760305466 -4.6354837092905" fill="#ff2d04" stroke="none" /><path d="M 99.81925306533755 120.99922214144158 l -0.13001247164585522 15.104880081910476 a36.105439600742486,36.105439600742486 0 0,0 -0.6214267278978053,-0.010698424679121367 l 0.38999888943632843 -15.100404179952195" fill="#ffbc11" stroke="none" /><path d="M 99.45781275523022 120.99299961872073 l -0.18074258195305393 6.998189261420534 a28.000522896155168,28.000522896155168 0 0,0 -0.48171519356424025,-0.01659124526531595 l 0.3011781271919372 -6.994041217729125" fill="#ff4f07" stroke="none" /><path d="M 99.09653310690486 120.98055641714683 l -0.30240789509866023 7.022599225935278 a28.029107370294238,28.029107370294238 0 0,0 -0.48184962820931604,-0.02490612189584198 l 0.4232455917214652 -7.0163532972772344" fill="#ff4f07" stroke="none" /><path d="M 98.73552117531835 120.96189622390904 l -0.9392764736466391 15.57085463340763 a36.59915876926246,36.59915876926246 0 0,0 -0.6285247417314488,-0.043346746090613175 l 1.2071639761570179 -15.55237954280073" fill="#ffc312" stroke="none" /><path d="M 98.01472825383883 120.90594882070398 l -0.8422423351235379 8.869251872833221 a29.90915264965361,29.90915264965361 0 0,0 -0.5121122074268041,-0.05308252420026891 l 0.9947871391559353 -8.85343998017719" fill="#ff6909" stroke="none" /><path d="M 97.2962882734958 120.8252237178851 l -3.383547666114525 26.06163091139504 a47.2803538897529,47.2803538897529 0 0,0 -0.8061782345947149,-0.11172895740201884 l 3.831654491896071 -25.999527388500415" fill="#b9ff1f" stroke="none" /><path d="M 96.58105272829116 120.7198165907248 l -1.5868753188456586 9.616926774771855 a30.746971522933947,30.746971522933947 0 0,0 -0.5214555015244056,-0.09066172299401017 l 1.752179791842114 -9.588186473256838" fill="#ff750a" stroke="none" /><path d="M 96.22490169976321 120.6578951692458 l -1.250643421517278 6.843705419323853 a27.95704052268399,27.95704052268399 0 0,0 -0.47265022791829914,-0.09058454109756313 l 1.3682612640072722 -6.821163679877822" fill="#ff4e07" stroke="none" /><path d="M 95.86986931433489 120.58985236759428 l -0.9125675827231404 4.549403695369031 a25.640027324970678,25.640027324970678 0 0,0 -0.4319838379408793,-0.09052641334069698 l 0.9907428820934064 -4.533021301301792" fill="#ff2e04" stroke="none" /><path d="M 95.51606077576429 120.51570834832081 l -1.9788369018735075 9.053923061290245 a30.26764901601154,30.26764901601154 0 0,0 -0.5080350668282388,-0.1156271271899315 l 2.134392118094609 -9.018519200522626" fill="#ff6e0a" stroke="none" /><path d="M 94.81253420990036 120.34920634021253 l -7.256818898585696 28.466791130016823 a50.377195539514574,50.377195539514574 0 0,0 -0.8384433954959408,-0.22144052124391503 l 7.745752736893126 -28.337659259469326" fill="#97ff23" stroke="none" /><path d="M 94.11515582081647 120.15858648285463 l -1.3142773883682426 4.502068973992327 a25.689984019179636,25.689984019179636 0 0,0 -0.4234260178699156,-0.127574785767617 l 1.3915783806784041 -4.478778819118985" fill="#ff2e04" stroke="none" /><path d="M 93.76903079525671 120.05430185196036 l -5.592112946743472 17.99815042238993 a39.846886900390494,39.846886900390494 0 0,0 -0.6532586963990413,-0.20915280535727013 l 5.901092988233454 -17.899224770372953" fill="#ffec16" stroke="none" /><path d="M 93.42475214034765 119.94407469862007 l -4.00857557485829 12.158831485367704 a33.802572445759466,33.802572445759466 0 0,0 -0.5510306501316957,-0.1869395142385863 l 4.217275957927212 -12.088028984230997" fill="#ff9e0e" stroke="none" /><path d="M 93.08242187328487 119.8279376855182 l -4.584631726197167 13.140985257112465 a34.917770712024996,34.917770712024996 0 0,0 -0.5658016361770632,-0.20287633647510064 l 4.810152923003957 -13.060121379597406" fill="#ffad10" stroke="none" /><path d="M 92.7421414339146 119.70592522655815 l -6.067725408727827 16.474576090309366 a38.5564503528223,38.5564503528223 0 0,0 -0.6208135260031864,-0.23473855463262144 l 6.350409155491297 -16.367689285570112" fill="#ffdc14" stroke="none" /><path d="M 92.40401165467489 119.57807347666478 l -0.5561819887939713 1.4335161335137434 a22.537630290317868,22.537630290317868 0 0,0 -0.3604721433561138,-0.14343930513859052 l 0.5807752081919432 -1.4237299839690862" fill="#ff0000" stroke="none" /><path d="M 92.06813273071674 119.44442032107085 l -8.010554887889873 19.637317539128986 a42.20832925396245,42.20832925396245 0 0,0 -0.6703658311011743,-0.2802129717685706 l 8.34739217848851 -19.496519524340442" fill="#f5ff19" stroke="none" /><path d="M 91.07499286063937 119.00905698771935 l -3.3697668994605645 7.177147315062544 a28.928856950330832,28.928856950330832 0 0,0 -0.4489308575879033,-0.2155140931254843 l 3.49281042504871 -7.118078945437498" fill="#ff5c08" stroke="none" /><path d="M 90.7491055286396 118.85261126421891 l -4.904524874836514 9.99504439135468 a32.133520406099805,32.133520406099805 0 0,0 -0.4944676929346394,-0.24793636621835005 l 5.075846475453913 -9.909140184227027" fill="#ff880c" stroke="none" /><path d="M 90.42595943632237 118.69057910512821 l -7.6153058595266465 14.866709163237024 a37.70365004058743,37.70365004058743 0 0,0 -0.5750867674265437,-0.3008582164383947 l 7.870083529479686 -14.733421527853912" fill="#ffd113" stroke="none" /><path d="M 90.10565033884886 118.52300852407294 l -4.141084076010863 7.752438337612558 a29.789134058772554,29.789134058772554 0 0,0 -0.45020912402101637,-0.24548991070724474 l 4.2739160119005195 -7.6800077751455476" fill="#ff6809" stroke="none" /><line stroke="#e1ed5e" stroke-width="0.3" x1="58.666819895761336" x2="56.23545636021788" y1="174.27360380694188" y2="178.64263932499728" /><path d="M 58.180547188652646 175.14741091055294 a86.0,86.0 0 0,1 -31.652253787137756,-30.449443065178592" fill="none" id="id80" stroke="none" /><text fill="#e1ed5e" style="font-size:6.75px; font-family:Arial;" text-anchor="middle"><textPath startOffset="22.20632615414155" xlink:href="#id80">August</textPath></text><path d="M 89.7882731507175 118.34994917583269 l -15.041045555126926 27.027987093814218 a51.931297058720176,51.931297058720176 0 0,0 -0.777365107894751,-0.4414081962457158 l 15.504059429942885 -26.76507573177387" fill="#86ff25" stroke="none" /><path d="M 89.4739219176387 118.17145234162733 l -2.3225723840906554 4.0095193154804605 a25.633636543855317,25.633636543855317 0 0,0 -0.3799052988013693,-0.2244547469041539 l 2.3912455539204065 -3.9689459962825566" fill="#ff2d04" stroke="none" /><path d="M 89.1626897886671 117.98757091392108 l -8.489202660717467 14.090224593056288 a37.44995413055917,37.44995413055917 0 0,0 -0.5493030873234845,-0.3374268208690483 l 8.73048494797326 -13.94200930535886" fill="#ffcd13" stroke="none" /><path d="M 88.24862548938628 117.40417183066458 l -4.051108577116433 5.999824932575597 a28.239432293014563,28.239432293014563 0 0,0 -0.40052002336344833,-0.275481324205935 l 4.153785485102772 -5.92920281900456" fill="#ff5207" stroke="none" /><path d="M 87.36589467227662 116.77436683061367 l -5.030786368309473 6.6794010180759145 a29.362009892594124,29.362009892594124 0 0,0 -0.40110081485120463,-0.30754700101173194 l 5.1450159116541645 -6.591814675236816" fill="#ff6209" stroke="none" /><path d="M 87.07902340077011 116.55440617244103 l -4.457155371290781 5.71052503836456 a28.244054818788634,28.244054818788634 0 0,0 -0.38067943293991996,-0.3024347647488347 l 4.554792296948059 -5.632956359610595" fill="#ff5207" stroke="none" /><path d="M 86.79598089348748 116.32954008644616 l -9.392904363687483 11.616297060592592 a35.938708437656565,35.938708437656565 0 0,0 -0.4776936698320469,-0.3931093690523018 l 9.591468162064219 -11.452892572683108" fill="#ffba11" stroke="none" /><path d="M 86.51685102203217 116.09983520530335 l -7.5504280240143204 9.015746033420763 a32.75978910886428,32.75978910886428 0 0,0 -0.4292070935192146,-0.3657795965461174 l 7.704500594110592 -8.884442046651694" fill="#ff900d" stroke="none" /><path d="M 86.24171649860922 115.8653595955263 l -3.101215330295442 3.5761653256616195 a25.733549932273235,25.733549932273235 0 0,0 -0.3321559760001344,-0.293089029707002 l 3.162313659202164 -3.5222531541823288" fill="#ff2f04" stroke="none" /><path d="M 85.97065885151581 115.62618273729859 l -21.39784122274459 23.833377033990963 a53.02963424452667,53.02963424452667 0 0,0 -0.6739825367367658,-0.6156670673373247 l 21.804923308948208 -23.46151720006706" fill="#7aff26" stroke="none" /><path d="M 85.70375840098266 115.38237550388516 l -7.6197550136098755 8.198653615018314 a32.192791768208934,32.192791768208934 0 0,0 -0.402661561353656,-0.38074163912732484 l 7.759752409354348 -8.066277339145058" fill="#ff890c" stroke="none" /><path d="M 85.44109423537348 115.13401014063109 l -7.721247621564813 8.026251539246996 a32.137251842568034,32.137251842568034 0 0,0 -0.39536478781135936,-0.3869476581307041 l 7.858262361751967 -7.892153778193723" fill="#ff880c" stroke="none" /><path d="M 85.18274418774928 114.88116024355367 l -3.410373203008304 3.425081591851049 a25.833407627609535,25.833407627609535 0 0,0 -0.3124112406568256,-0.31647093738452187 l 3.4688250687206623 -3.3658701604858625" fill="#ff3004" stroke="none" /><path d="M 84.9287848128048 114.62390073753433 l -11.236774507998122 10.90326645688364 a36.65714919049443,36.65714919049443 0 0,0 -0.4355104080072625,-0.45663092164794805 l 11.422791467384341 -10.708228418653192" fill="#ffc312" stroke="none" /><path d="M 84.67929136418377 114.36230785411682 l -11.070802442690667 10.378258385667733 a36.174680024460756,36.174680024460756 0 0,0 -0.4219579910284197,-0.4579520615459892 l 11.247806841714816 -10.1861550693204" fill="#ffbd11" stroke="none" /><path d="M 84.43433777217949 114.09645910891817 l -10.90186226149892 9.872863314842437 a35.70795807725382,35.70795807725382 0 0,0 -0.40867103433314733,-0.4591462393651847 l 11.070192145480405 -9.683742905736388" fill="#ffb711" stroke="none" /><path d="M 84.19399662182784 113.82643327865904 l -22.373093928018076 19.57105050730959 a50.72509629709519,50.72509629709519 0 0,0 -0.5692261378644778,-0.6621385972509739 l 22.706662575453333 -19.183034810897084" fill="#93ff23" stroke="none" /><path d="M 83.50135304334701 112.99209946851258 l -7.100253794124321 5.591198101717599 a30.037427739884137,30.037427739884137 0 0,0 -0.31638448782701206,-0.40896959957456663 l 7.195445099169402 -5.46815050802978" fill="#ff6b09" stroke="none" /><path d="M 83.28015986056508 112.70617746262583 l -3.7708443236950355 2.8656384726907884 a25.736153583838753,25.736153583838753 0 0,0 -0.2650072976719066,-0.35502058210516435 l 3.8196128880620273 -2.800305011076316" fill="#ff2f04" stroke="none" /><path d="M 83.06392112726016 112.41649034213515 l -11.007304615736228 8.069878068070093 a34.648578202037264,34.648578202037264 0 0,0 -0.348499041986872,-0.48403468873218847 l 11.144583450098708 -7.879209773886767" fill="#ffa90f" stroke="none" /><path d="M 82.85270091963577 112.12312394758628 l -12.135779260335728 8.579984257816534 a35.862478532195574,35.862478532195574 0 0,0 -0.3520313710259164,-0.5071274457031503 l 12.281671538523778 -8.36981554992637" fill="#ffb911" stroke="none" /><path d="M 82.6465618267979 111.8261652097733 l -24.27869569686226 16.54564723849904 a50.380495354600285,50.380495354600285 0 0,0 -0.4822058625782753,-0.720832338003929 l 24.559904664851267 -16.12527798628929" fill="#97ff23" stroke="none" /><path d="M 82.24976979558568 111.22182372390057 l -11.775374609781414 7.444476867742207 a34.931248437775906,34.931248437775906 0 0,0 -0.31693514323522787,-0.5110003652417211 l 11.9017743926846 -7.240680171135222" fill="#ffad10" stroke="none" /><line stroke="#e1ed5e" stroke-width="0.3" x1="26.63291911575756" x2="22.317208475507996" y1="142.92168965132927" y2="145.44649492493687" /><path d="M 25.769776987707644 143.4266507060508 a86.0,86.0 0 0,1 -11.730757126820373,-40.83630448921669" fill="none" id="id81" stroke="none" /><text fill="#e1ed5e" style="font-size:6.75px; font-family:Arial;" text-anchor="middle"><textPath startOffset="21.46611528233685" xlink:href="#id81">September</textPath></text><path d="M 81.87401531095188 110.60418214915194 l -14.538294382902505 8.505288094358784 a37.843453598712344,37.843453598712344 0 0,0 -0.324098551829931,-0.565093143463725 l 14.682544930884815 -8.253775105036752" fill="#ffd213" stroke="none" /><path d="M 81.69416730710424 110.29060199501025 l -11.895136596559361 6.686836837473014 a34.6458074712269,34.6458074712269 0 0,0 -0.2877641017420414,-0.522375431395401 l 12.008477107752919 -6.481090887679791" fill="#ffa90f" stroke="none" /><path d="M 81.51974371655577 109.97397251340807 l -4.082582271816022 2.203409018699551 a25.63923369855766,25.63923369855766 0 0,0 -0.20627067735272828,-0.39018638641699216 l 4.119905457393636 -2.1328076171964323" fill="#ff2e04" stroke="none" /><path d="M 81.35079622478065 109.6543875284942 l -29.188071135489935 15.110186651813825 a53.86732780837337,53.86732780837337 0 0,0 -0.41919382692874296,-0.8271091894590871 l 29.443843632204945 -14.605523250652054" fill="#71ff27" stroke="none" /><path d="M 81.02952815118164 109.00673069616217 l -10.357318954637286 4.917409714534036 a32.4653815561752,32.4653815561752 0 0,0 -0.23533595937285684,-0.5068927200193302 l 10.44042953084997 -4.738396927235878" fill="#ff8c0c" stroke="none" /><path d="M 80.87730276802145 108.67885076344099 l -7.857470188601579 3.566118854353892 a29.628849369883614,29.628849369883614 0 0,0 -0.20677962020525922,-0.46623345533739907 l 7.9176908935381185 -3.4303370625237974" fill="#ff6609" stroke="none" /><path d="M 80.73074385275274 108.34839909993369 l -8.290794332955567 3.5919840090386352 a30.035464558757198,30.035464558757198 0 0,0 -0.20145074821591435,-0.4761700611934055 l 8.351396062363788 -3.4487394221790706" fill="#ff6b09" stroke="none" /><path d="M 80.58989483394504 108.01547362559985 l -9.478566273358302 3.9142084662926857 a31.25496204361785,31.25496204361785 0 0,0 -0.20106969826558782,-0.4990385014892471 l 9.544538585881277 -3.7504705969606333" fill="#ff7c0b" stroke="none" /><path d="M 80.32549172779594 107.34259656027581 l -13.150581984861681 4.9078440341042 a35.036550131840116,35.036550131840116 0 0,0 -0.206007805683641,-0.5668450044094427 l 13.233114051550547 -4.680751232688641" fill="#ffae10" stroke="none" /><path d="M 80.20201598880116 107.00284435728193 l -18.3885412055424 6.504303263758482 a40.504984199298136,40.504984199298136 0 0,0 -0.22684559687319594,-0.6593194885836582 l 18.497777633358822 -6.1868110720855265" fill="#fff417" stroke="none" /><path d="M 80.0844068197444 106.66101706037122 l -13.199844871796861 4.414851774159612 a34.91857826170842,34.91857826170842 0 0,0 -0.1857464654918275,-0.5716688389326913 l 13.273883588304939 -4.186984035249117" fill="#ffad10" stroke="none" /><path d="M 79.97269907076064 106.31721596034903 l -10.625873522082088 3.3517216345586003 a32.14195790796453,32.14195790796453 0 0,0 -0.16189326789988165,-0.529076566578607 l 10.681993562488099 -3.1683180954279457" fill="#ff880c" stroke="none" /><path d="M 79.86692584326677 105.97154293290107 l -11.804240944247397 3.5011807456790116 a33.31252902062611,33.31252902062611 0 0,0 -0.15832550858113456,-0.5511518657263211 l 11.862759089714636 -3.2974714044480944" fill="#ff980e" stroke="none" /><path d="M 79.67330655649465 105.27499134158121 l -13.488409155712619 3.500384443039976 a34.9352026465706,34.9352026465706 0 0,0 -0.1460435964370584,-0.5833715711029936 l 13.546664066444736 -3.2676850325395908" fill="#ffad10" stroke="none" /><path d="M 79.58551787078972 104.9243191809786 l -24.554420730949225 5.922942557049785 a46.25867823078992,46.25867823078992 0 0,0 -0.18005515139930076,-0.7756728797470636 l 24.65273644827908 -5.4994010199541465" fill="#c5ff1e" stroke="none" /><path d="M 79.4281124754447 104.21870165774334 l -10.03178441899158 2.0572300673921005 a31.24055145874988,31.24055145874988 0 0,0 -0.10349558375535098,-0.5277217518485094 l 10.065709935722596 -1.884244588475636" fill="#ff7c0b" stroke="none" /><path d="M 79.35854240842038 103.8639653848113 l -11.158364421001428 2.088783395386176 a32.35218536779203,32.35218536779203 0 0,0 -0.09775529808040223,-0.5482636259619273 l 11.192666161421018 -1.8964010186910352" fill="#ff8b0c" stroke="none" /><path d="M 79.29508885075956 103.50808413554451 l -12.656442569506885 2.1444122638578 a33.836823690952905,33.836823690952905 0 0,0 -0.0923555891405588,-0.5750983417385632 l 12.691479913008733 -1.926234692426023" fill="#ff9f0e" stroke="none" /><path d="M 79.23777060512086 103.15116336523772 l -7.158042630375924 1.0864036455166899 a28.240017070371522,28.240017070371522 0 0,0 -0.06880606060538107,-0.4812294276182491 l 7.175682741997904 -0.9630287459180401" fill="#ff5207" stroke="none" /><path d="M 79.1416061653843 102.43462659150553 l -34.651747373112265 4.044609871000906 a55.88699564334239,55.88699564334239 0 0,0 -0.10330497842358533,-0.9564757996679244 l 34.716234653036906 -3.4475377494481996" fill="#5cff2a" stroke="none" /><path d="M 79.10278846688536 102.07522291339032 l -9.712896568020343 0.9645509632424019 a30.76067202101132,30.76067202101132 0 0,0 -0.04778949254637939,-0.5273530680151174 l 9.728060656843798 -0.7972165066787182" fill="#ff750a" stroke="none" /><path d="M 79.07016306316243 101.71520430193888 l -12.858669647069108 1.0537705364080259 a33.90177574738679,33.90177574738679 0 0,0 -0.04265721822075875,-0.5820238513045499 l 12.874903423954201 -0.8322735486067153" fill="#ff9f0e" stroke="none" /><path d="M 79.04373962182676 101.35467743843564 l -13.919321841015536 0.8997879829737018 a34.94837406037263,34.94837406037263 0 0,0 -0.03363972239560303,-0.6006598412608288 l 13.932747914298671 -0.6600564253774353" fill="#ffad10" stroke="none" /><path d="M 79.0095281055655 100.63252640178507 l -8.898054499791568 0.2681337715486501 a29.902093551558863,29.902093551558863 0 0,0 -0.01107507663005084,-0.5146152923204614 l 8.901351639106627 -0.11492866343805982" fill="#ff6909" stroke="none" /><line stroke="#e1ed5e" stroke-width="0.3" x1="15.007084014347285" x2="10.007500721073583" y1="101.09737516637583" y2="101.16192664675087" /><path d="M 14.007167355692545 101.11028546245083 a86.0,86.0 0 0,1 10.666146001902534,-42.60595125391555" fill="none" id="id82" stroke="none" /><text fill="#e1ed5e" style="font-size:6.75px; font-family:Arial;" text-anchor="middle"><textPath startOffset="22.20632615414155" xlink:href="#id82">October</textPath></text><path d="M 79.00175016825051 100.2711162175752 l -18.071372157374373 0.2333262107536796 a39.072878375370934,39.072878375370934 0 0,0 -0.0028945610854992218,-0.6725940567617699 l 18.072711015749373 0.07777732421176563" fill="#ffe215" stroke="none" /><path d="M 79.00019446554 99.90962569577889 l -3.476845118633168 -0.014962874678313105 a24.476877315434344,24.476877315434344 0 0,0 0.00543968629579437,-0.42130969835388793 l 3.476072425219658 0.07480883109267303" fill="#ff1d02" stroke="none" /><path d="M 79.00486145842228 99.54816195383935 l -41.76811776995008 -0.8988949840749134 a62.777789245444936,62.777789245444936 0 0,0 0.03254970241445351,-1.0801661587162568 l 41.74645637307998 1.6177312902161645" fill="#32ff4d" stroke="none" /><path d="M 79.01574976396665 99.18683210126434 l -14.319847893810428 -0.5549133512537234 a35.33059567949869,35.33059567949869 0 0,0 0.02877995290654091,-0.6074993188695276 l 14.308174332670388 0.8013237767462601" fill="#ffb210" stroke="none" /><path d="M 79.03285615573316 98.82574320788736 l -13.984506025994623 -0.7831968582528029 a35.00642017468621,35.00642017468621 0 0,0 0.0388728109297557,-0.6013451795699309 l 13.968952624060453 1.0238011020757456" fill="#ffae10" stroke="none" /><path d="M 79.08570108090925 98.10471618934814 l -5.05835597359841 -0.4583954844656087 a26.079083733885195,26.079083733885195 0 0,0 0.04436284907372454,-0.44672783599459887 l 5.049715998842457 0.5453988511646378" fill="#ff3404" stroke="none" /><path d="M 79.21141760316559 97.0276538004421 l -14.164062634129994 -2.025174056469923 a35.3081095977965,35.3081095977965 0 0,0 0.09120270759426997,-0.6009118909528459 l 14.127104033096423 2.268685059814861" fill="#ffb210" stroke="none" /><path d="M 79.26566170972629 96.67025291283419 l -29.008925682689853 -4.658570938772452 a50.38060674076351,50.38060674076351 0 0,0 0.1448757645979244,-0.8550649636037863 l 28.924438056571706 5.157221690692066" fill="#97ff23" stroke="none" /><path d="M 79.32604984820605 96.31383870115002 l -4.665634756340187 -0.8318817713652183 a25.739216703327596,25.739216703327596 0 0,0 0.08152501743566824,-0.43550990303018206 l 4.650624014994657 0.9120697518579731" fill="#ff2f04" stroke="none" /><path d="M 79.54389044137918 95.25157060432595 l -14.645520697310982 -3.3996308435274543 a36.034918236147064,36.034918236147064 0 0,0 0.14545614817660413,-0.6030096401965809 l 14.584831748873563 3.6512257153834318" fill="#ffbb11" stroke="none" /><path d="M 79.71946130924805 94.55025226153421 l -43.029357713173546 -11.562767067520545 a65.55584369604043,65.55584369604043 0 0,0 0.30222252078383594,-1.0872552073412118 l 42.823948421823346 12.3017335782807" fill="#36ff6e" stroke="none" /><path d="M 79.81627453868168 94.20196356495316 l -13.391932459530228 -3.8470059694802847 a34.93353185412214,34.93353185412214 0 0,0 0.17099814607924255,-0.5765207408472579 l 13.323728416339279 4.076956097074082" fill="#ffad10" stroke="none" /><path d="M 80.02781315780177 93.51064311812611 l -16.552602352558974 -5.378266528257549 a38.40443608655323,38.40443608655323 0 0,0 0.2096931701358665,-0.6269558884557639 l 16.457571888651337 5.662395519635635" fill="#ffda14" stroke="none" /><path d="M 80.14247586403 93.16781622104843 l -15.819768154666964 -5.442952637650694 a37.72993717510988,37.72993717510988 0 0,0 0.21658227084280635,-0.6123072449548711 l 15.723732803014347 5.714457509032177" fill="#ffd113" stroke="none" /><path d="M 80.2630227832202 92.82701384747504 l -5.6700813146017675 -2.060670907536506 a27.032925219440685,27.032925219440685 0 0,0 0.16270655748171117,-0.4359726814400273 l 5.633770168618429 2.157966726005875" fill="#ff4106" stroke="none" /><path d="M 80.52162464483688 92.15188598940014 l -29.829764355625887 -12.018835621741156 a53.16002567185858,53.16002567185858 0 0,0 0.34928241272806493,-0.8458150672534641 l 29.61846025601162 12.53052525944793" fill="#78ff26" stroke="none" /><path d="M 80.65960295795068 91.81776055985345 l -13.073389786203519 -5.530889841222661 a35.19521972136221,35.19521972136221 0 0,0 0.24085143062323078,-0.5559183089542112 l 12.976247645737608 5.75510729476347" fill="#ffb010" stroke="none" /><path d="M 80.803312248108 91.48605970444005 l -13.359604498773725 -5.925130238347661 a35.614588625925705,35.614588625925705 0 0,0 0.2533684296674605,-0.5582637495142025 l 13.255633752142913 6.154215996703934" fill="#ffb610" stroke="none" /><path d="M 80.95270993114464 91.15688171328213 l -12.631440010343562 -5.864420489174689 a34.92640313967537,34.92640313967537 0 0,0 0.25785964882792334,-0.5431181828408248 l 12.528622167673888 6.080981087656046" fill="#ffad10" stroke="none" /><path d="M 81.10775173730289 90.83032412892265 l -12.899235652336978 -6.260864682268828 a35.33836486438403,35.33836486438403 0 0,0 0.27032164162201067,-0.5449519342598079 l 12.789553997761555 6.481976205027597" fill="#ffb210" stroke="none" /><path d="M 81.26839172434947 90.50648371742162 l -10.002700900708302 -5.069548886204103 a32.214024755574776,32.214024755574776 0 0,0 0.25493652544395673,-0.49245622249144433 l 9.91395494210423 5.240977830955883" fill="#ff890c" stroke="none" /><path d="M 81.43458229118936 90.18545643968196 l -9.938831655427526 -5.2541288190121955 a32.24216368506093,32.24216368506093 0 0,0 0.2636056365903463,-0.4884212098440496 l 9.846917919618708 5.424431012188718" fill="#ff890c" stroke="none" /><path d="M 81.6062741919709 89.86733742301443 l -36.58772143354052 -20.155298584747836 a62.77196931841613,62.77196931841613 0 0,0 0.5295035574182575,-0.9419277450524135 l 36.235360234829834 20.782109839735035" fill="#32ff4d" stroke="none" /><line stroke="#e1ed5e" stroke-width="0.3" x1="26.266209847984243" x2="21.928928074336255" y1="57.711370442889674" y2="55.22380399835377" /><path d="M 25.398753493254645 57.213857153982495 a86.0,86.0 0 0,1 29.58750427330803,-30.492523968695096" fill="none" id="id83" stroke="none" /><text fill="#e1ed5e" style="font-size:6.75px; font-family:Arial;" text-anchor="middle"><textPath startOffset="21.46611528233685" xlink:href="#id83">November</textPath></text><path d="M 81.78341655067845 89.55222093294921 l -19.326797656605034 -11.08452155979472 a43.27985022097114,43.27985022097114 0 0,0 0.37620561658150714,-0.643057347580141 l 19.133132365553205 11.415558319728753" fill="#e8ff1a" stroke="none" /><path d="M 81.96595687620814 89.24020034530311 l -8.79876009070867 -5.249676688466402 a31.245842301503338,31.245842301503338 0 0,0 0.2795523875091766,-0.4595106217139936 l 8.707091904913277 5.40035508338747" fill="#ff7c0b" stroke="none" /><path d="M 82.34701348167596 88.62581576622439 l -9.363712131664416 -6.03323334479622 a32.13907579099094,32.13907579099094 0 0,0 0.303642893972353,-0.462468959261435 l 9.258472602334143 6.193520368035323" fill="#ff880c" stroke="none" /><path d="M 82.54541684631803 88.32363383020206 l -5.788447624783607 -3.872222752418647 a27.964211006941966,27.964211006941966 0 0,0 0.271087104661443,-0.39778687569890003 l 5.720936054453424 3.9712876513879634" fill="#ff4e07" stroke="none" /><path d="M 82.95767976084542 87.72973835380427 l -28.254115226129457 -20.34261658866523 a55.815471803277894,55.815471803277894 0 0,0 0.5680882440262656,-0.7748717264214235 l 27.89976436958956 20.825950758758154" fill="#5cff2a" stroke="none" /><path d="M 83.17141714833178 87.43820079747576 l -11.317031071071396 -8.4476674676997 a35.12226178444612,35.12226178444612 0 0,0 0.3658135088574138,-0.4813676974788388 l 11.169941621989873 8.641219941059566" fill="#ffaf10" stroke="none" /><path d="M 83.84228863543731 86.58626213691792 l -11.798102911308943 -9.79449726283973 a36.333864774987795,36.333864774987795 0 0,0 0.40363357252374715,-0.47777483728565695 l 11.627758725298072 9.996131049754503" fill="#ffbf11" stroke="none" /><path d="M 84.07557802195018 86.31012108654704 l -8.674437324642213 -7.457224932897171 a32.4392336543568,32.4392336543568 0 0,0 0.3676572166207791,-0.42029575457373514 l 8.544788244443591 7.605436243673849" fill="#ff8c0c" stroke="none" /><path d="M 84.5562425177563 85.77008943001954 l -1.2551264075985262 -1.1564761072350827 a22.706686639561227,22.706686639561227 0 0,0 0.26732547367030435,-0.28516417658185095 l 1.235033611957766 1.1779097006949837" fill="#ff0300" stroke="none" /><path d="M 84.80347519578584 85.50635884689758 l -11.088904719572048 -10.576010492994557 a36.323700787593,36.323700787593 0 0,0 0.435427312513921,-0.4487461206869427 l 10.90521314335501 10.765320809231625" fill="#ffbf11" stroke="none" /><path d="M 85.05521093208273 85.24692304244772 l -12.444175332972256 -12.28454115520005 a38.48620745363496,38.48620745363496 0 0,0 0.4694661208073898,-0.46745008408880107 l 12.230873411997552 12.496927089938959" fill="#ffdb14" stroke="none" /><path d="M 85.57189188830299 84.74124197986013 l -8.249574284530391 -8.7245158410455 a33.00719170067002,33.00719170067002 0 0,0 0.41619257811472743,-0.3868056430518975 l 8.098173822620808 8.865226070172046" fill="#ff930d" stroke="none" /><path d="M 85.83668400450813 84.49514656593479 l -15.022446130988865 -16.445359657036544 a43.27383536815668,43.27383536815668 0 0,0 0.55429458279119,-0.49765114932213717 l 14.737140560601704 16.701509815127963" fill="#e8ff1a" stroke="none" /><path d="M 86.37877921826538 84.01681056812374 l -19.060074173797958 -22.365159554122588 a50.38514572691517,50.38514572691517 0 0,0 0.6649458755919726,-0.5568730479886244 l 18.672270761246875 22.689933759505024" fill="#97ff23" stroke="none" /><path d="M 87.51073957382395 83.11751280151077 l -16.043994327115374 -21.687635584286696 a47.97708826403118,47.97708826403118 0 0,0 0.6681487700249491,-0.48543849645760045 l 15.668300240736642 21.960593315560963" fill="#b2ff20" stroke="none" /><path d="M 88.09926311788651 82.69761687909137 l -2.847971527471765 -4.140642295841149 a26.025520912641646,26.025520912641646 0 0,0 0.3712916138596129,-0.25069775508806524 l 2.776275219205613 4.18905196322788" fill="#ff3304" stroke="none" /><path d="M 88.39885842347998 82.49532879139004 l -6.01962930019106 -9.082867492180672 a31.89653242055614,31.89653242055614 0 0,0 0.46027148031281134,-0.2993733740796136 l 5.862390794093961 9.18513979041982" fill="#ff850c" stroke="none" /><path d="M 89.00827224532344 82.1063720568725 l -7.432105685027335 -12.098856242623082 a35.19924354650892,35.19924354650892 0 0,0 0.5190010020210842,-0.31269229657585973 l 7.222742616788602 12.22499514865756" fill="#ffb010" stroke="none" /><line stroke="#e1ed5e" stroke-width="0.3" x1="56.762969772571076" x2="54.21961505331055" y1="26.818313649435495" y2="22.513508569990535" /><path d="M 56.25429882871897 25.957352633546506 a86.0,86.0 0 0,1 42.265352541879196,-11.944610805530505" fill="none" id="id84" stroke="none" /><text fill="#e1ed5e" style="font-size:6.75px; font-family:Arial;" text-anchor="middle"><textPath startOffset="22.20632615414155" xlink:href="#id84">December</textPath></text><path d="M 89.3179101791058 81.91981866633112 l -8.498254963617873 -14.383888671430457 a37.7067827764283,37.7067827764283 0 0,0 0.5616573743184362,-0.32534820368025624 l 8.249400856834118 14.528041032500761" fill="#ffd113" stroke="none" /><path d="M 89.63071344664047 81.73862282372117 l -8.828183998627386 -15.54733750976266 a38.87894114191592,38.87894114191592 0 0,0 0.5848057594817626,-0.32544377199584157 l 8.559254150073578 15.696996679318685" fill="#ffe014" stroke="none" /><path d="M 89.94658935756843 81.56283822128135 l -4.837616151504861 -8.87180627360358 a31.105022344638954,31.105022344638954 0 0,0 0.47228525963980367,-0.2522784294252593 l 4.684185845336752 8.95376342953059" fill="#ff7a0b" stroke="none" /><path d="M 90.26544431104013 81.39251694778311 l -8.937196696586486 -17.08334117957372 a40.27988668667935,40.27988668667935 0 0,0 0.6171252905977171,-0.3161155431204793 l 8.641810918400004 17.234649248006704" fill="#fff116" stroke="none" /><path d="M 91.23893434514133 80.91482961587045 l -4.780472426265035 -10.413816579642234 a32.45864269329975,32.45864269329975 0 0,0 0.5097828938356208,-0.22872472464936097 l 4.6005074139626405 10.494561634808123" fill="#ff8c0c" stroke="none" /><path d="M 91.56875222667455 80.76684994638697 l -5.436585218390103 -12.401801263078031 a34.54109055451966,34.54109055451966 0 0,0 0.5465983530906025,-0.23402488898939075 l 5.222303107509193 12.493545680030207" fill="#ffa80f" stroke="none" /><path d="M 92.23578459929587 80.48803036053334 l -5.146266487588774 -12.932896665042337 a34.91919088560619,34.91919088560619 0 0,0 0.5603978663351975,-0.21742566583483644 l 4.9228854562538995 13.019565034767725" fill="#ffad10" stroke="none" /><path d="M 92.91201910852362 80.23233633223022 l -21.26394267442915 -59.30299100330936 a84.0,84.0 0 0,0 1.3652719837468588,-0.4763165873111608 l 20.239988686619004 59.66022844379273" fill="#4dd2ff" stroke="none" /><path d="M 93.94186890950719 79.89281104454417 l -1.8067113396750738 -5.996550050199771 a27.262812337078397,27.262812337078397 0 0,0 0.4504982177779428,-0.13151278324390264 l 1.70322290417371 6.026761162362372" fill="#ff4506" stroke="none" /><path d="M 94.28887869178378 79.79150937346287 l -2.4224623541539896 -8.571750648446653 a29.90748185720515,29.90748185720515 0 0,0 0.4966096215052695,-0.13574216909452463 l 2.2745548434249976 8.612179358367472" fill="#ff6909" stroke="none" /><path d="M 94.63758080256005 79.69619591428918 l -2.2641767680868488 -8.57288470409033 a29.866839830896357,29.866839830896357 0 0,0 0.49819469123008614,-0.1270009195620715 l 2.116273188171763 8.610588619821264" fill="#ff6909" stroke="none" /><path d="M 94.98787191387505 79.60689891045804 l -4.287563710324915 -17.44502907149525 a38.9641933265986,38.9641933265986 0 0,0 0.6526990604242805,-0.15447277974155849 l 3.9866409629381003 17.51624776337768" fill="#ffe115" stroke="none" /><path d="M 95.33964822691252 79.52364482259891 l -2.3890436364187533 -10.496826938283135 a31.76526382718879,31.76526382718879 0 0,0 0.5341968590359378,-0.11675474270869315 l 2.2080040532292946 10.536395179087696" fill="#ff830c" stroke="none" /><path d="M 96.04723909329186 79.375362276772 l -3.144408543129187 -16.406832739567754 a37.705432219199125,37.705432219199125 0 0,0 0.6384874122891129,-0.11667949348700465 l 2.8615260097371804 16.4585277144055" fill="#ffd113" stroke="none" /><path d="M 96.40284397218896 79.31037775812273 l -1.8791749804964142 -10.808377555008942 a31.970520679482117,31.970520679482117 0 0,0 0.5429976662335266,-0.08959926751206944 l 1.6928481081240019 10.839123085460638" fill="#ff860c" stroke="none" /><path d="M 96.75951476605007 79.25152402106235 l -1.3549926423932634 -8.675871131208606 a29.78104463866793,29.78104463866793 0 0,0 0.5071726360965112,-0.07474406285267635 l 1.2054510258681035 8.697909678222251" fill="#ff6809" stroke="none" /><path d="M 97.11714578562143 79.19881850522333 l -1.9113541738836488 -13.791340843200803 a34.92315901767128,34.92315901767128 0 0,0 0.5961637210387212,-0.07739916100418676 l 1.67367572433707 13.822198327369128" fill="#ffad10" stroke="none" /><path d="M 97.47563105711357 79.15227682838746 l -0.6777252591821588 -5.597053722933037 a26.637935961354305,26.637935961354305 0 0,0 0.4556777879568732,-0.051200708885301094 l 0.5812807677155677 5.607890385288936" fill="#ff3c05" stroke="none" /><path d="M 97.83486435360386 79.11191278185805 l -1.7377370671544816 -16.76477105780361 a37.85459221503541,37.85459221503541 0 0,0 0.6487103124969903,-0.06160286078803432 l 1.448901627567255 16.792199463106826" fill="#ffd313" stroke="none" /><path d="M 98.55514903715128 79.0497635885617 l -1.1746029748859728 -17.031659767123326 a38.072115468554514,38.072115468554514 0 0,0 0.6541840067625956,-0.0394621657869474 l 0.8812569192837542 17.049355202290577" fill="#ffd513" stroke="none" /><path d="M 99.27714615592234 79.0124445844662 l -0.3435642902855137 -9.97514869740538 a30.981063468233614,30.981063468233614 0 0,0 0.533130054797933,-0.0137691764285606 l 0.17180760029270173 9.979584665976299" fill="#ff780b" stroke="none" /><path d="M 99.63851952072746 79.00311137660856 l -0.07979998105110725 -4.635247019841289 a25.63593388347195,25.63593388347195 0 0,0 0.4412804603236418,-0.003798240239218874 l 1.1354763182905364e-15 4.6359338834719495" fill="#ff2d04" stroke="none" /></svg>