<?xml version="1.0" encoding="utf-8" ?>
<svg baseProfile="full" height="200mm" version="1.1" viewBox="0,0,200,200" width="200mm" xmlns="http://www.w3.org/2000/svg" xmlns:ev="http://www.w3.org/2001/xml-events" xmlns:xlink="http://www.w3.org/1999/xlink"><defs /><rect fill="#1a1a1a" height="200" width="200" x="0" y="0" /><text alignment-baseline="middle" fill="#e1ed5e" style="dominant-baseline: central; font-size:9.0px; font-family:Arial;" text-anchor="middle" x="100.0" y="100.0">2016</text><line stroke="#e1ed5e" stroke-width="0.3" x1="100.0" x2="100.0" y1="15.0" y2="10.0" /><path d="M 100.0 14.0 a86.0,86.0 0 0,1 42.35913384403234,11.155469271406648" fill="none" id="id13" stroke="none" /><text fill="#e1ed5e" style="font-size:6.75px; font-family:Arial;" text-anchor="middle"><textPath startOffset="22.145653131862478" xlink:href="#id13">January</textPath></text><line stroke="#e1ed5e" stroke-width="0.3" x1="143.13028292997686" x2="145.6673583964461" y1="26.7553504044142" y2="22.446841604673864" /><path d="M 143.63769802327073 25.89364864446614 a86.0,86.0 0 0,1 29.32050498858742,28.57503671076993" fill="none" id="id14" stroke="none" /><text fill="#e1ed5e" style="font-size:6.75px; font-family:Arial;" text-anchor="middle"><textPath startOffset="20.669276256404974" xlink:href="#id14">February</textPath></text><line stroke="#e1ed5e" stroke-width="0.3" x1="172.87174338648825" x2="177.1583165268699" y1="56.24261187166439" y2="53.66864786411523" /><path d="M 173.72905801456457 55.72781907015455 a86.0,86.0 0 0,1 12.242430191666344,42.057860355516425" fill="none" id="id15" stroke="none" /><text fill="#e1ed5e" style="font-size:6.75px; font-family:Arial;" text-anchor="middle"><textPath startOffset="22.145653131862474" xlink:href="#id15">March</textPath></text><line stroke="#e1ed5e" stroke-width="0.3" x1="184.99686870605535" x2="189.99668451229388" y1="99.2704041080226" y2="99.22748670261217" /><path d="M 185.99683186730306 99.26182062694052 a86.0,86.0 0 0,1 -10.086455211305974,41.156179273409016" fill="none" id="id16" stroke="none" /><text fill="#e1ed5e" style="font-size:6.75px; font-family:Arial;" text-anchor="middle"><textPath startOffset="21.40746469413373" xlink:href="#id16">April</textPath></text><line stroke="#e1ed5e" stroke-width="0.3" x1="174.33088141563837" x2="178.70328620479359" y1="141.23008692659167" y2="143.65538615756765" /><path d="M 175.20536237346943 141.71514677278685 a86.0,86.0 0 0,1 -30.301960400862466,31.631185727798858" fill="none" id="id17" stroke="none" /><text fill="#e1ed5e" style="font-size:6.75px; font-family:Arial;" text-anchor="middle"><textPath startOffset="22.145653131862474" xlink:href="#id17">May</textPath></text><line stroke="#e1ed5e" stroke-width="0.3" x1="143.1302829299769" x2="145.66735839644613" y1="173.24464959558577" y2="177.55315839532614" /><path d="M 143.63769802327073 174.10635135553383 a86.0,86.0 0 0,1 -40.68552437913181,11.842963189579606" fill="none" id="id18" stroke="none" /><text fill="#e1ed5e" style="font-size:6.75px; font-family:Arial;" text-anchor="middle"><textPath startOffset="21.407464694133747" xlink:href="#id18">June</textPath></text><line stroke="#e1ed5e" stroke-width="0.3" x1="101.45913802915013" x2="101.54496967792366" y1="184.9874750549273" y2="189.98673829345242" /><path d="M 101.47630435890484 185.9873277026323 a86.0,86.0 0 0,1 -42.54439059252881,-10.42667462771756" fill="none" id="id19" stroke="none" /><text fill="#e1ed5e" style="font-size:6.75px; font-family:Arial;" text-anchor="middle"><textPath startOffset="22.145653131862474" xlink:href="#id19">July</textPath></text><path d="M 92.59220618246901 119.65005319985036 l -1.4860691310918748 3.941974925854986 a25.212786225107273,25.212786225107273 0 0,0 -0.4036780032715312,-0.15615132365662485 l 1.5535193968569343 -3.9158837140603207" fill="#ff3204" stroke="none" /><line stroke="#e1ed5e" stroke-width="0.3" x1="58.13341422392154" x2="55.67067388415222" y1="173.97424548756322" y2="178.32567169271397" /><path d="M 57.64086615596768 174.84453072859336 a86.0,86.0 0 0,1 -31.369924170532247,-30.572349798747897" fill="none" id="id20" stroke="none" /><text fill="#e1ed5e" style="font-size:6.75px; font-family:Arial;" text-anchor="middle"><textPath startOffset="22.145653131862474" xlink:href="#id20">August</textPath></text><path d="M 87.83215693770417 117.11559508785305 l -1.28519411814325 1.8077864764373341 a23.218065793816702,23.218065793816702 0 0,0 -0.3228626721038769,-0.23372767614391748 l 1.3160378006210809 -1.7854580289203512" fill="#ff1602" stroke="none" /><path d="M 82.98947788004972 112.3143062007846 l -0.8646563119613859 0.6259444894666621 a22.06744416327429,22.06744416327429 0 0,0 -0.21950266189243547,-0.3087579830231629 l 0.875274072383782 -0.6110092797339952" fill="#ff0500" stroke="none" /><line stroke="#e1ed5e" stroke-width="0.3" x1="26.387840678322732" x2="22.057713659400548" y1="142.50000000000003" y2="145.00000000000006" /><path d="M 25.521815274538298 143.00000000000003 a86.0,86.0 0 0,1 -11.493303480769221,-40.785679425670985" fill="none" id="id21" stroke="none" /><text fill="#e1ed5e" style="font-size:6.75px; font-family:Arial;" text-anchor="middle"><textPath startOffset="21.40746469413373" xlink:href="#id21">September</textPath></text><path d="M 79.83685265289637 105.86919833188381 l -10.2157876040722 2.973666885061605 a31.63978435471449,31.63978435471449 0 0,0 -0.147323134506631,-0.5227978314525665 l 10.265329230653407 -2.7978611297060425" fill="#ff8a0c" stroke="none" /><path d="M 79.13060592940153 102.33845913500099 l -2.5452440672525474 0.2851999066067321 a23.561172846297723,23.561172846297723 0 0,0 -0.041588395606580515,-0.4023300015425027 l 2.549764855340794 -0.241465382781298" fill="#ff1b02" stroke="none" /><path d="M 79.0935383218832 101.97986365728391 l -2.0907657778905953 0.19799769292722272 a23.1001201452305,23.1001201452305 0 0,0 -0.03399719185409583,-0.3950989028219172 l 2.093856592442432 -0.1620777427296435" fill="#ff1402" stroke="none" /><path d="M 79.03789590574601 101.26102812881392 l -1.5999996511251424 0.09625200586206062 a22.602892177357244,22.602892177357244 0 0,0 -0.01997494059505799,-0.3875085111958595 l 1.601416181176773 -0.06877170128947034" fill="#ff0d01" stroke="none" /><path d="M 79.01933749520258 100.90099992219065 l -2.5748459772982457 0.11057496514555488 a23.577219166024864,23.577219166024864 0 0,0 -0.01389406985349852,-0.404510684024644 l 2.576364734148592 -0.06635801655679098" fill="#ff1b02" stroke="none" /><line stroke="#e1ed5e" stroke-width="0.3" x1="15.003131293944662" x2="10.003315487706104" y1="100.72959589197737" y2="100.7725132973878" /><path d="M 14.003168132696942 100.73817937305945 a86.0,86.0 0 0,1 10.791469493833604,-42.45332614584628" fill="none" id="id22" stroke="none" /><text fill="#e1ed5e" style="font-size:6.75px; font-family:Arial;" text-anchor="middle"><textPath startOffset="22.145653131862435" xlink:href="#id22">October</textPath></text><path d="M 79.00077361379809 100.18025310272382 l -62.99767915860572 0.5407593081714642 a84.0,84.0 0 0,0 0.0,-1.4420248217905405 l 62.99767915860572 0.540759308171441" fill="#4dd2ff" stroke="none" /><path d="M 79.0935383218832 98.0201363427161 l -1.3678263595691387 -0.12953457837490098 a22.373946198701727,22.373946198701727 0 0,0 0.03949279315856415,-0.38205694883523117 l 1.3654011739289107 0.15299604949304488" fill="#ff0a01" stroke="none" /><path d="M 79.13060592940154 97.66154086499901 l -1.7462647455729163 -0.19567260710114456 a22.757193310595223,22.757193310595223 0 0,0 0.04683421035568369,-0.38785444673036706 l 1.7426484489575642 0.22562073075494793" fill="#ff0f01" stroke="none" /><path d="M 79.17382384314186 97.30363454192245 l -1.5030660798537114 -0.1946019964683235 a22.515611288370557,22.515611288370557 0 0,0 0.05291756572345466,-0.38288514471903234 l 1.499503997575049 0.22037544938742282" fill="#ff0c01" stroke="none" /><path d="M 79.407916724674 95.88100663000787 l -2.0777251166853374 -0.41560321342268586 a23.118883595555065,23.118883595555065 0 0,0 0.08118282854862971,-0.388489223119953 l 2.0702845773123406 0.4512088878280479" fill="#ff1502" stroke="none" /><path d="M 79.48165901384962 95.52812308129327 l -1.3761126884116626 -0.2999173555503983 a22.40841632742876,22.40841632742876 0 0,0 0.08514039202965554,-0.3751442767392617 l 1.3707614348243453 0.3234959662286682" fill="#ff0a01" stroke="none" /><path d="M 79.56144815229197 95.17655741523228 l -2.0274440777860345 -0.47847128191349364 a23.08313807899659,23.08313807899659 0 0,0 0.09432481782497724,-0.38487744514891525 l 2.018931733444759 0.5132045516705266" fill="#ff1402" stroke="none" /><path d="M 79.73907114497095 94.47779374421319 l -0.8368884889787803 -0.22809767914897336 a21.867416217405655,21.867416217405655 0 0,0 0.1018204253414602,-0.3613247691502146 l 0.8328495715627381 0.24243037220220115" fill="#ff0300" stroke="none" /><path d="M 80.05021161711548 93.44210830539832 l -4.077237177650404 -1.3402688445143676 a25.29187413356805,25.29187413356805 0 0,0 0.1391228656278057,-0.41129203171541684 l 4.053628890450233 1.4100625507039461" fill="#ff3404" stroke="none" /><path d="M 80.68587082218212 91.75594674310238 l -2.4021005195957006 -1.025313874089235 a23.611772472219165,23.611772472219165 0 0,0 0.16232094907203234,-0.3714220974950497 l 2.384145688506691 1.0663980413601513" fill="#ff1c02" stroke="none" /><path d="M 80.83023694016515 91.42560881287825 l -1.330388727349834 -0.5950659558821276 a22.457407855649688,22.457407855649688 0 0,0 0.16042666940160785,-0.3505612250467028 l 1.3199775930931794 0.6178161631435019" fill="#ff0b01" stroke="none" /><path d="M 80.9802524753101 91.09779779509293 l -1.537109073224033 -0.7194446594558961 a22.697146110683242,22.697146110683242 0 0,0 0.16819746285414203,-0.35146800733315336 l 1.5245323524099859 0.7457251688541368" fill="#ff0f01" stroke="none" /><path d="M 81.1358732173502 90.77261029715801 l -0.8666249165308616 -0.4239096738036176 a21.964747717020575,21.964747717020575 0 0,0 0.16858475920531069,-0.33728244886374714 l 0.8592202441138069 0.438723978831135" fill="#ff0400" stroke="none" /><line stroke="#e1ed5e" stroke-width="0.3" x1="26.387840678322718" x2="22.05771365940052" y1="57.49999999999999" y2="54.99999999999999" /><path d="M 25.521815274538284 56.99999999999999 a86.0,86.0 0 0,1 29.574782752854787,-30.34633250058573" fill="none" id="id23" stroke="none" /><text fill="#e1ed5e" style="font-size:6.75px; font-family:Arial;" text-anchor="middle"><textPath startOffset="21.40746469413373" xlink:href="#id23">November</textPath></text><path d="M 81.81346652052679 89.5 l -1.4966102389818345 -0.8640683243481126 a22.728136648696225,22.728136648696225 0 0,0 0.19797970060997097,-0.3362128141324531 l 1.4815568282420843 0.8896323067741385" fill="#ff0f01" stroke="none" /><path d="M 81.99639281039701 89.18935116829357 l -1.9551513322105498 -1.17401219893186 a23.280552866101882,23.280552866101882 0 0,0 0.20867361212334246,-0.34085266297270095 l 1.9347097556318142 1.2074019780291039" fill="#ff1702" stroke="none" /><path d="M 82.37810715431573 88.57770195909679 l -1.3788990587634047 -0.8937857105046385 a22.643233248982288,22.643233248982288 0 0,0 0.2142217652566838,-0.32435905622647 l 1.3633528545859919 0.9173246450701695" fill="#ff0e01" stroke="none" /><path d="M 82.98947788004972 87.6856937992154 l -0.5615774306647909 -0.40653875218477586 a21.693284189679833,21.693284189679833 0 0,0 0.22095950841746625,-0.2997740096706003 l 0.5545159026635059 0.41611907112423946" fill="#ff0000" stroke="none" /><path d="M 83.8745106332314 86.54754324733833 l -0.7127398881408242 -0.5945929641596187 a21.928191220156233,21.928191220156233 0 0,0 0.2436174392437147,-0.28698073086175807 l 0.702427885389995 0.6067404774709334" fill="#ff0300" stroke="none" /><path d="M 84.58840730492382 85.73525988315684 l -0.6236124892754252 -0.5772064100794492 a21.84974100561118,21.84974100561118 0 0,0 0.25714457256715106,-0.27307862499634566 l 0.6136120829720025 0.587826495020306" fill="#ff0200" stroke="none" /><path d="M 85.08716467003674 85.21462403516908 l -0.5156618578509005 -0.5112545180278303 a21.726146220706347,21.726146220706347 0 0,0 0.2648604274732571,-0.2625966767385729 l 0.5068095102476669 0.5200312049950766" fill="#ff0000" stroke="none" /><path d="M 85.34317274990677 84.96080404539775 l -0.5099879244307391 -0.5232925379499156 a21.73070018703928,21.73070018703928 0 0,0 0.26938567429039934,-0.25806538221971953 l 0.5009297642750393 0.5319700504752036" fill="#ff0100" stroke="none" /><line stroke="#e1ed5e" stroke-width="0.3" x1="56.869717070023135" x2="54.33264160355391" y1="26.7553504044142" y2="22.446841604673864" /><path d="M 56.362301976729285 25.89364864446614 a86.0,86.0 0 0,1 42.16139366436587,-11.88097634709845" fill="none" id="id24" stroke="none" /><text fill="#e1ed5e" style="font-size:6.75px; font-family:Arial;" text-anchor="middle"><textPath startOffset="22.145653131862474" xlink:href="#id24">December</textPath></text><path d="M 96.76829788921471 79.25015418208739 l -0.2536215922784608 -1.628432558282036 a22.648064473539442,22.648064473539442 0 0,0 0.38466647639476303,-0.056532725312409354 l 0.22563001027601284 1.63254635689333" fill="#ff0e01" stroke="none" /><path d="M 99.63950707515114 79.00309439819443 l -0.05012688031504355 -2.9196394756686477 a23.920069754648477,23.920069754648477 0 0,0 0.410619805163895,-0.0035246771742638745 l 7.152108156634508e-16 2.920069754648477" fill="#ff2003" stroke="none" /></svg>