<?xml version="1.0" encoding="utf-8" ?>
<svg baseProfile="full" height="200mm" version="1.1" viewBox="0,0,200,200" width="200mm" xmlns="http://www.w3.org/2000/svg" xmlns:ev="http://www.w3.org/2001/xml-events" xmlns:xlink="http://www.w3.org/1999/xlink"><defs /><rect fill="#1a1a1a" height="200" width="200" x="0" y="0" /><text alignment-baseline="middle" fill="#e1ed5e" style="dominant-baseline: central; font-size:9.0px; font-family:Arial;" text-anchor="middle" x="100.0" y="100.0">2021</text><line stroke="#e1ed5e" stroke-width="0.3" x1="100.0" x2="100.0" y1="15.0" y2="10.0" /><path d="M 100.0 14.0 a86.0,86.0 0 0,1 42.46469731375804,11.215312516191453" fill="none" id="id73" stroke="none" /><text fill="#e1ed5e" style="font-size:6.75px; font-family:Arial;" text-anchor="middle"><textPath startOffset="22.20632615414155" xlink:href="#id73">January</textPath></text><path d="M 100.0 79.0 l 0.0 -13.811110230361948 a34.81111023036195,34.81111023036195 0 0,0 0.5992160385752406,0.005157641623272024 l -0.23773555930271223 13.809063965347235" fill="#ffb310" stroke="none" /><path d="M 100.36148047927253 79.00311137660856 l 0.04627723522122645 -2.6880509721965073 a23.6884492949703,23.6884492949703 0 0,0 0.40763688708281803,0.010528058147387238 l -0.0925407574989123 2.6868561219067604" fill="#ff1c02" stroke="none" /><path d="M 100.72285384407766 79.0124445844662 l 0.08155306861381717 -2.3678362657436884 a23.369240275778576,23.369240275778576 0 0,0 0.40190549360447136,0.01730689598527193 l -0.12229939460762008 2.3660816432342218" fill="#ff1702" stroke="none" /><path d="M 101.08401301168833 79.027996857942 l 0.1398753555093141 -2.7061173284894413 a23.70972989624975,23.70972989624975 0 0,0 0.4073985884918553,0.0245753954151152 l -0.1864359928407813 2.7033086636940222" fill="#ff1c02" stroke="none" /><path d="M 101.44485096284872 79.0497635885617 l 0.08004058331384321 -1.1605827770832964 a22.16333953660984,22.16333953660984 0 0,0 0.38037547645179476,0.029524457741176117 l -0.10000624912797912 1.1590330571536558" fill="#ff0601" stroke="none" /><path d="M 101.80526077348638 79.07773832637324 l 0.5201544543058917 -6.028385352146762 a27.050784297123133,27.050784297123133 0 0,0 0.46356655052554313,0.04402122970435956 l -0.623846131921679 6.018538577927224" fill="#ff4b07" stroke="none" /><path d="M 102.16513564639614 79.11191278185805 l 0.43515644606494613 -4.198159969363069 a25.22065258709058,25.22065258709058 0 0,0 0.4314332461188821,0.04847655212033981 l -0.5073563956935535 4.190047463772129" fill="#ff3204" stroke="none" /><path d="M 102.52436894288641 79.15227682838746 l 0.28906524057162136 -2.387270739863449 a23.40470794457766,23.40470794457766 0 0,0 0.39953538484316636,0.051871159694966466 l -0.3301153539226338 2.381941257004346" fill="#ff1802" stroke="none" /><path d="M 102.88285421437855 79.19881850522331 l 0.5560350061646719 -4.012060347343601 a25.050407776854993,25.050407776854993 0 0,0 0.4266096606625991,0.0628711744693913 l -0.6250136472559269 4.001894688713241" fill="#ff2f04" stroke="none" /><path d="M 103.2404852339499 79.25152402106235 l 0.2977297934389004 -1.9063316205429102 a22.92944118266998,22.92944118266998 0 0,0 0.38944104711499383,0.0642611096336286 l -0.3305000466927694 1.9009242479696569" fill="#ff1101" stroke="none" /><path d="M 103.59715602781102 79.31037775812273 l 0.7253989995425859 -4.172249176609872 a25.234839654610212,25.234839654610212 0 0,0 0.42731581425549425,0.07808923372124477 l -0.797109934900981 4.159144461537889" fill="#ff3204" stroke="none" /><path d="M 103.95276090670814 79.375362276772 l 1.348544445979884 -7.036408553020549 a28.164469097414262,28.164469097414262 0 0,0 0.4753539956023204,0.09535153961961301 l -1.4694648510493298 7.012153057323728" fill="#ff5b08" stroke="none" /><path d="M 104.307194497241 79.44645832069477 l 1.325428197332613 -6.324823203190014 a27.462209255192466,27.462209255192466 0 0,0 0.46183233377569255,0.10093866033178642 l -1.4341032552618334 6.301071044762357" fill="#ff5107" stroke="none" /><path d="M 104.66035177308747 79.52364482259891 l 1.0909259669554894 -4.793240652053035 a25.915818895552558,25.915818895552558 0 0,0 0.4341224390678307,0.10274275539388901 l -1.1732720929858438 4.773751984518277" fill="#ff3b05" stroke="none" /><path d="M 105.01212808612495 79.60689891045804 l 1.7353591562921926 -7.060744277245647 a28.270872103811502,28.270872103811502 0 0,0 0.47157310509941214,0.12021448450302394 l -1.8566411500766298 7.029826796573755" fill="#ff5c08" stroke="none" /><path d="M 105.36241919743992 79.69619591428918 l 0.32242158508647817 -1.2207894339415888 a22.262649009247266,22.262649009247266 0 0,0 0.36966822385696113,0.101044289878164 l -0.34338769816715015 1.215058603237131" fill="#ff0701" stroke="none" /><path d="M 105.71112130821622 79.79150937346287 l 2.397926454054875 -8.484931706875024 a29.817262463451414,29.817262463451414 0 0,0 0.4927086550250335,0.1438351673627259 l -2.5436253268033355 8.442398210593595" fill="#ff710a" stroke="none" /><path d="M 106.0581310904928 79.89281104454417 l 5.783013011702512 -19.1940606139481 a41.04632640524029,41.04632640524029 0 0,0 0.6747520129323444,0.20964873494257658 l -6.112550397345575 19.091671744123" fill="#fdff18" stroke="none" /><path d="M 106.40334571778207 80.00007090966166 l 8.648290478093827 -27.011691065531732 a49.36237617713324,49.36237617713324 0 0,0 0.806997698882929,0.26605445339068157 l -9.111970999219173 26.858822887881814" fill="#9dff22" stroke="none" /><path d="M 106.74666289553966 80.11325718540242 l 7.447566740905273 -21.952756001615374 a44.18166832707901,44.18166832707901 0 0,0 0.7180951662161783,0.2505293033246225 l -7.824343911184725 21.82130584511854" fill="#d8ff1c" stroke="none" /><path d="M 107.08798089147638 80.2323363322302 l 9.246516580475953 -25.787601950381834 a48.39522738040978,48.39522738040978 0 0,0 0.7817388797947586,0.2879210267942037 l -9.689037786043288 25.624617655781304" fill="#a8ff21" stroke="none" /><path d="M 107.4271985657038 80.35727306442388 l 7.559055113761891 -19.99144821255025 a42.372817218325906,42.372817218325906 0 0,0 0.6800167975698957,0.2638359527623037 l -7.902055076331454 19.858369555897397" fill="#edff1a" stroke="none" /><path d="M 107.76421540070413 80.48803036053334 l 2.7590315102225986 -6.933622559842039 a28.462397515326536,28.462397515326536 0 0,0 0.4536582646936759,0.18505859684920856 l -2.877973644504662 6.885103076809251" fill="#ff5f08" stroke="none" /><path d="M 108.09893153111575 80.62456947434976 l 7.419262855415059 -17.749429224626127 a40.23766355662126,40.23766355662126 0 0,0 0.6367442451635217,0.27262065545288006 l -7.7236908583688955 17.619089041210454" fill="#fff717" stroke="none" /><path d="M 108.76106565485865 80.91482961587045 l 6.267960283751697 -13.65417115782226 a36.0241045032905,36.0241045032905 0 0,0 0.5613272338998536,0.2635506628924469 l -6.502065728951148 13.54425551228981" fill="#ffc312" stroke="none" /><path d="M 109.08828744355905 81.06846463323043 l 1.8020361581181887 -3.7537667543503863 a25.16390431701205,25.16390431701205 0 0,0 0.38887666595574505,0.1908200911116664 l -1.8663840910843656 3.722191503103888" fill="#ff3104" stroke="none" /><path d="M 109.41281617654863 81.2277094730956 l 4.413187595272741 -8.801365939196243 a30.845824858624745,30.845824858624745 0 0,0 0.47258669761602706,0.2420772618858495 l -4.564034780477524 8.724096151997895" fill="#ff7f0b" stroke="none" /><path d="M 109.73455568895987 81.39251694778311 l 4.945467082015991 -9.453199288620198 a31.668674774763414,31.668674774763414 0 0,0 0.4808435153246302,0.25684995322092763 l -5.107455643868933 9.366670608897515" fill="#ff8a0c" stroke="none" /><path d="M 110.05341064243156 81.56283822128135 l 7.185755413847515 -13.178108383262728 a36.009917435770866,36.009917435770866 0 0,0 0.5416507367840442,0.3014280485875108 l -7.411530239703594 13.052464937115037" fill="#ffc212" stroke="none" /><path d="M 110.36928655335952 81.73862282372117 l 0.46808927279489065 -0.8243532203194963 a21.947979851661824,21.947979851661824 0 0,0 0.3269238006373789,0.18937536680038478 l -0.4822098058975979 0.816173696129062" fill="#ff0300" stroke="none" /><line stroke="#e1ed5e" stroke-width="0.3" x1="143.23703022742887" x2="145.7803849466894" y1="26.81831364943548" y2="22.513508569990506" /><path d="M 143.74570117128098 25.957352633546492 a86.0,86.0 0 0,1 28.547481713284135,27.462654790039103" fill="none" id="id74" stroke="none" /><text fill="#e1ed5e" style="font-size:6.75px; font-family:Arial;" text-anchor="middle"><textPath startOffset="19.985693538727396" xlink:href="#id74">February</textPath></text><path d="M 110.68208982089419 81.91981866633111 l 5.2259361424544215 -8.845261056402595 a31.273706815016855,31.273706815016855 0 0,0 0.4611202838055813,0.2778198114827917 l -5.37741849247764 8.75399463546119" fill="#ff850c" stroke="none" /><path d="M 110.99172775467656 82.1063720568725 l 1.934403332537596 -3.149049384856441 a24.69573108886419,24.69573108886419 0 0,0 0.3602999535139458,0.22561979783645159 l -1.988322438423805 3.115285245697045" fill="#ff2a04" stroke="none" /><path d="M 111.2981086023043 82.29822771554956 l 2.5913069782912923 -4.06003585763588 a25.816509422915132,25.816509422915132 0 0,0 0.3725358873473395,0.24230770389058356 l -2.660809891422912 4.014829229585768" fill="#ff3a05" stroke="none" /><path d="M 111.60114157652 82.49532879139004 l 4.383086691541277 -6.613529445201298 a28.93411751035431,28.93411751035431 0 0,0 0.4127869417900775,0.2787155857378637 l -4.496278327737897 6.537101947164764" fill="#ff6509" stroke="none" /><path d="M 111.90073688211348 82.69761687909136 l 4.940479271157686 -7.182922032244517 a29.717952990813984,29.717952990813984 0 0,0 0.4189790702808061,0.29352161392017395 l -5.063389481022144 7.096815575560408" fill="#ff700a" stroke="none" /><path d="M 112.19680574252982 82.90503203632743 l 6.081011288843521 -8.52310804680811 a31.470055829488565,31.470055829488565 0 0,0 0.4382650105686517,0.3184181687148425 l -6.226821615765962 8.417170643276592" fill="#ff870c" stroke="none" /><path d="M 112.48926042617603 83.11751280151076 l 6.4208824520296695 -8.679494389611769 a31.796358382440104,31.796358382440104 0 0,0 0.43720575140030765,0.32929430772892443 l -6.56933435718836 8.567683492376997" fill="#ff8c0c" stroke="none" /><path d="M 113.06298171725822 83.55741782278167 l 3.6412029303775784 -4.583239853085222 a26.853584058600244,26.853584058600244 0 0,0 0.359450057868347,0.2906502820535716 l -3.7195563868104164 4.51988347376752" fill="#ff4906" stroke="none" /><path d="M 113.89432698308785 84.25364557470407 l 9.316255089811806 -10.558053998527846 a35.08066451323496,35.08066451323496 0 0,0 0.4493482524710224,0.4034292977608559 l -9.496614329878819 10.396125691997693" fill="#ffb710" stroke="none" /><path d="M 114.16331599549186 84.49514656593476 l 7.6690542925923175 -8.395460697366401 a32.37093461698521,32.37093461698521 0 0,0 0.40816991813191256,0.37934945493893923 l -7.812432094519076 8.26220665635282" fill="#ff930d" stroke="none" /><path d="M 114.42810811169701 84.74124197986012 l 10.421058242920584 -11.021015701538603 a36.16776984252805,36.16776984252805 0 0,0 0.44868143262609556,0.43163118269647077 l -10.609222919159096 10.840001432079832" fill="#ffc412" stroke="none" /><path d="M 114.68862486808459 84.99185889309783 l 4.594093459566978 -4.694027080049502 a27.568073153023963,27.568073153023963 0 0,0 0.33628349524633816,0.3348393870472075 l -4.674212754980639 4.614251842352177" fill="#ff5207" stroke="none" /><path d="M 115.19652480421416 85.50635884689758 l 5.713244271720521 -5.448990039576171 a28.89510307467532,28.89510307467532 0 0,0 0.34018160548054716,0.36288201825013494 l -5.806193199171531 5.3498386044479815" fill="#ff6509" stroke="none" /><path d="M 115.4437574822437 85.77008943001954 l 0.5686208973132939 -0.5239284886656148 a21.773195179819954,21.773195179819954 0 0,0 0.25159067973769483,0.27781271241280225 l -0.5775552176670243 0.5140629889832635" fill="#ff0000" stroke="none" /><path d="M 115.9244219780498 86.31012108654704 l 3.023036133221517 -2.5988383548137963 a24.98656597301665,24.98656597301665 0 0,0 0.2775762212813679,0.3285626939500211 l -3.0673229679900023 2.5464167112346687" fill="#ff2e04" stroke="none" /><path d="M 116.15771136456269 86.58626213691792 l 1.9593753478797353 -1.6266256215894066 a23.54657861977398,23.54657861977398 0 0,0 0.25621089147903553,0.3140842582364822 l -1.9870847314351798 1.5926571937448235" fill="#ff1a02" stroke="none" /><path d="M 116.38621287248628 86.86637796730983 l 5.806272655363516 -4.653753192864398 a28.44111691404709,28.44111691404709 0 0,0 0.30289236862745816,0.38464254895525063 l -5.885519104584938 4.553118249956109" fill="#ff5e08" stroke="none" /><path d="M 116.60985879189232 87.15038557335679 l 5.661095115849573 -4.3795007761732245 a28.157375563654444,28.157375563654444 0 0,0 0.2932712140912781,0.3859105408788149 l -5.7356422701649645 4.281405459413376" fill="#ff5b08" stroke="none" /><path d="M 116.82858285166822 87.43820079747576 l 1.921354893276271 -1.4342071806558185 a23.39761441081784,23.39761441081784 0 0,0 0.2381402370277015,0.32482301567840366 l -1.945757742817599 1.400921721305921" fill="#ff1802" stroke="none" /><path d="M 117.04232023915458 87.72973835380427 l 6.122936945825099 -4.408439538404048 a28.54484565821688,28.54484565821688 0 0,0 0.2836642408817042,0.40122295192498547 l -6.1979138065106865 4.302390086147269" fill="#ff6008" stroke="none" /><path d="M 117.2510076193507 88.02491185347247 l 3.201821051049655 -2.222599987302665 a24.897641433803592,24.897641433803592 0 0,0 0.24135955516546903,0.35416536500049717 l -3.239605071883857 2.1671565990317614" fill="#ff2d04" stroke="none" /><path d="M 117.45458315368197 88.32363383020206 l 1.9908279490146306 -1.3317783592476733 a23.395209702873263,23.395209702873263 0 0,0 0.2210327772169989,0.33664808388869283 l -2.0134573615895546 1.2973122113813065" fill="#ff1802" stroke="none" /><path d="M 117.65298651832404 88.62581576622439 l 15.410058745601436 -9.929019491621776 a39.33181220195899,39.33181220195899 0 0,0 0.36180098605024136,0.5722822732367455 l -15.578687327897633 9.662289570670824" fill="#ffec16" stroke="none" /><line stroke="#e1ed5e" stroke-width="0.3" x1="172.23445277983987" x2="176.4835382374775" y1="55.19839476539836" y2="52.563006222186495" /><path d="M 173.08426987136738 54.67131705675599 a86.0,86.0 0 0,1 12.851231095245387,41.99856678651699" fill="none" id="id75" stroke="none" /><text fill="#e1ed5e" style="font-size:6.75px; font-family:Arial;" text-anchor="middle"><textPath startOffset="22.20632615414155" xlink:href="#id75">March</textPath></text><path d="M 117.84615892207809 88.93136811851018 l 11.471809073218857 -7.115101473690598 a34.49915080267276,34.49915080267276 0 0,0 0.30865930516015944,0.5073547411835301 l -11.59258417666524 6.9165789592999865" fill="#ffaf10" stroke="none" /><path d="M 118.03404312379186 89.2402003453031 l 15.10493209999455 -9.012180024085943 a38.58915468497504,38.58915468497504 0 0,0 0.3354322313385828,0.5733624153129688 l -15.25782400580346 8.750838196419078" fill="#ffe315" stroke="none" /><path d="M 118.21658344932153 89.55222093294921 l 3.2005504804842104 -1.835615575558857 a24.689580995094428,24.689580995094428 0 0,0 0.20826526728440697,0.3704806716359416 l -3.2316733890610507 1.7802513939881215" fill="#ff2a04" stroke="none" /><path d="M 118.3937258080291 89.86733742301442 l 3.480964303864181 -1.9175797824598884 a24.97419485013953,24.97419485013953 0 0,0 0.20418414210994681,0.37832220513285525 l -3.5134565451925925 1.8573765939945743" fill="#ff2e04" stroke="none" /><path d="M 118.56541770881063 90.18545643968196 l 13.248972613966789 -7.004023334607117 a35.9863810907558,35.9863810907558 0 0,0 0.28479033676137033,0.5501242836793875 l -13.367572383888275 6.7749263286673855" fill="#ffc212" stroke="none" /><path d="M 118.73160827565052 90.50648371742162 l 10.095953443080896 -5.116810953421098 a32.31857015077024,32.31857015077024 0 0,0 0.2472216519230525,0.4983837646071901 l -10.182535107957357 4.942267600314958" fill="#ff930d" stroke="none" /><path d="M 118.89224826269711 90.83032412892265 l 13.67714862635815 -6.638438051435511 a36.203067266516896,36.203067266516896 0 0,0 0.2672851874985321,0.5629707710931802 l -13.789392007698439 6.402024864701791" fill="#ffc512" stroke="none" /><path d="M 119.04729006885535 91.15688171328212 l 2.1417791223703677 -0.9943674955689995 a23.361352266237663,23.361352266237663 0 0,0 0.16619675719899857,0.3661925242730018 l -2.1585781965327135 0.957352962453935" fill="#ff1702" stroke="none" /><path d="M 119.196687751892 91.48605970444005 l 3.899820554198164 -1.7296129306769716 a25.26616469969356,25.26616469969356 0 0,0 0.17290393304718474,0.39908611637638736 l -3.929015197088029 1.6622276697139815" fill="#ff3204" stroke="none" /><path d="M 119.34039704204932 91.81776055985345 l 2.176338207915198 -0.9207318898978875 a23.36309018200882,23.36309018200882 0 0,0 0.15350475106853428,0.3717239306000911 l -2.19186464586993 0.8831333888444932" fill="#ff1702" stroke="none" /><path d="M 119.47837535516314 92.15188598940014 l 5.4074280442549485 -2.178729540920298 a26.8298490946399,26.8298490946399 0 0,0 0.16890852885771498,0.4298537822089301 l -5.444130122994364 2.0853267538155835" fill="#ff4806" stroke="none" /><path d="M 119.61058180528143 92.48833698450437 l 4.411310434513457 -1.6897141436099874 a25.723853684944416,25.723853684944416 0 0,0 0.154827479611073,0.414860669977781 l -4.439742502626155 1.6135303366028733" fill="#ff3905" stroke="none" /><path d="M 119.85752413597 93.16781622104841 l 6.83906912450343 -2.3530515091215065 a28.232545740907216,28.232545740907216 0 0,0 0.15415333801736708,0.46089885966471716 l -6.878559756292567 2.2349795465344755" fill="#ff5c08" stroke="none" /><path d="M 119.97218684219823 93.5106431181261 l 27.130047799616104 -8.815086889835495 a49.52622040307486,49.52622040307486 0 0,0 0.2564621370724558,0.8130550591185021 l -27.277765420456767 8.346781664290575" fill="#9bff22" stroke="none" /><path d="M 120.08093135843002 93.85539295169968 l 10.17533826093496 -3.1135734733107068 a31.64104546076893,31.64104546076893 0 0,0 0.15488156583750412,0.522183644253315 l -10.227425723884167 2.9379604423108616" fill="#ff8a0c" stroke="none" /><path d="M 120.18372546131832 94.20196356495316 l 8.790811612599791 -2.5252744405966268 a30.14633149456928,30.14633149456928 0 0,0 0.13897922416981953,0.49998221442589214 l -8.832977607335973 2.373580922751783" fill="#ff760a" stroke="none" /><path d="M 120.37134235888165 94.90015583598534 l 2.2951078833009784 -0.5745665817320774 a23.365934689046505,23.365934689046505 0 0,0 0.09431737394662157,0.3910064059910821 l -2.3046580575084192 0.5349749440815893" fill="#ff1702" stroke="none" /><path d="M 120.45610955862082 95.25157060432595 l 10.382424640984015 -2.4100482167608708 a31.658474273216797,31.658474273216797 0 0,0 0.1186523630597024,0.5318952782062727 l -10.422371391045756 2.230974769004634" fill="#ff8a0c" stroke="none" /><path d="M 120.6074358757038 95.95851677861258 l 3.579025103818705 -0.701910222759031 a24.647204224413287,24.647204224413287 0 0,0 0.07806623555393846,0.4170329519138749 l -3.5905770632825025 0.6401991933825933" fill="#ff2a04" stroke="none" /><path d="M 120.67395015179393 96.31383870115 l 1.4337405454953434 -0.2556356609449606 a22.456352135626563,22.456352135626563 0 0,0 0.06457606202461201,0.3811315735105377 l -1.4379284690401783 0.230918299118585" fill="#ff0a01" stroke="none" /><path d="M 120.87857604477298 97.74499172005257 l 9.047464135056579 -0.9771790228092553 a30.10008165445528,30.10008165445528 0 0,0 0.05120292542365525,0.5156064713762905 l -9.062944186162463 0.8212970207285298" fill="#ff750a" stroke="none" /><path d="M 120.91429891909075 98.10471618934814 l 4.098441289621009 -0.37140663692223563 a25.11523558188595,25.11523558188595 0 0,0 0.03531144259762738,0.4308890402953216 l -4.104227216038131 0.30080367941914526" fill="#ff3004" stroke="none" /><path d="M 120.94382443527127 98.46500227214037 l 6.014011321565789 -0.44077402111807906 a27.030142113882068,27.030142113882068 0 0,0 0.030015568531542317,0.4643275599778694 l -6.020707481101747 0.3371873968871744" fill="#ff4b07" stroke="none" /><path d="M 120.96714384426684 98.82574320788733 l 7.153295132809665 -0.40061753084147617 a28.164504565083057,28.164504565083057 0 0,0 0.022942526142847038,0.4842804659960625 l -7.159131267186008 0.2774259582224139" fill="#ff5b08" stroke="none" /><path d="M 120.98425023603335 99.18683210126433 l 7.416993392986339 -0.28741846215474426 a28.42256022973141,28.42256022973141 0 0,0 0.014736834292102222,0.48904378560061595 l -7.420841921734086 0.15970452912912925" fill="#ff5e08" stroke="none" /><line stroke="#e1ed5e" stroke-width="0.3" x1="184.98032266829074" x2="189.97916517819016" y1="98.17113171792111" y2="98.06355123074" /><path d="M 185.9800911702706 98.14961562048488 a86.0,86.0 0 0,1 -9.607161424134198,41.387399972396054" fill="none" id="id76" stroke="none" /><text fill="#e1ed5e" style="font-size:6.75px; font-family:Arial;" text-anchor="middle"><textPath startOffset="21.466115282336823" xlink:href="#id76">April</textPath></text><path d="M 120.99513854157772 99.54816195383933 l 5.191009358323681 -0.11171612520783376 a26.19221134497003,26.19221134497003 0 0,0 0.005820898281822149,0.45083498678209843 l -5.192163263723219 0.022344880365272587" fill="#ff3f05" stroke="none" /><path d="M 120.99824983174949 100.27111621757518 l 62.994749495248485 0.8133486527255557 a84.0,84.0 0 0,0 -0.03111174925997018,1.4456407368395405 l -62.97141568330351 -1.8975792053552112" fill="#4dd2ff" stroke="none" /><path d="M 120.9764740272857 100.99374915477107 l 5.373999678109602 0.25459033920165564 a26.380026838328682,26.380026838328682 0 0,0 -0.025392219337501704,0.4533951337992114 l -5.36882110788457 -0.34705718933629043" fill="#ff4206" stroke="none" /><path d="M 120.95626037817324 101.35467743843564 l 7.16100717173397 0.46290963544849095 a28.175953528571405,28.175953528571405 0 0,0 -0.03545265024469307,0.48372324532707656 l -7.1519779628249385 -0.5861060172723377" fill="#ff5b08" stroke="none" /><path d="M 120.92983693683757 101.71520430193887 l 5.4595587846473705 0.4474119288351336 a26.477860855944066,26.477860855944066 0 0,0 -0.041135757149742797,0.4539296523600543 l -5.451048431220553 -0.5413229697437584" fill="#ff4306" stroke="none" /><path d="M 120.8583938346157 102.4346265915055 l 3.944613203332356 0.4604218461969423 a24.971392904304402,24.971392904304402 0 0,0 -0.05350833298560305,0.42651406121370067 l -3.9361033610999048 -0.5282536616980379" fill="#ff2e04" stroke="none" /><path d="M 120.76222939487914 103.15116336523771 l 14.800659913857245 2.2463530488393713 a35.9701581790471,35.9701581790471 0 0,0 -0.09817839819856818,0.6113569793010836 l -14.759799761297389 -2.5007892578336595" fill="#ffc212" stroke="none" /><path d="M 120.49622156327973 104.57218783832717 l 2.4238142762653485 0.5406915670817362 a23.483389421041537,23.483389421041537 0 0,0 -0.09140566482420846,0.39377321175418395 l -2.4141480455105873 -0.582333436184485" fill="#ff1902" stroke="none" /><path d="M 120.23288151984713 105.62410040840565 l 22.778797526139712 6.331784444251523 a44.64244299951539,44.64244299951539 0 0,0 -0.21217354851163056,0.7386039569235442 l -22.666431340741983 -6.722945876679649" fill="#d3ff1c" stroke="none" /><path d="M 120.13307415673323 105.97154293290107 l 10.117050390276102 3.0007538982640947 a31.55268840425666,31.55268840425666 0 0,0 -0.15892522326793088,0.5193768249914762 l -10.063898394502038 -3.1744576958076283" fill="#ff880c" stroke="none" /><path d="M 120.02730092923936 106.31721596034902 l 6.652778110648154 2.0984872704383593 a27.97589459594331,27.97589459594331 0 0,0 -0.14881543862474134,0.45800682553288397 l -6.615670421007167 -2.2126929959490385" fill="#ff5808" stroke="none" /><path d="M 119.9155931802556 106.66101706037122 l 21.525934000338346 7.199615513276841 a43.698024101800996,43.698024101800996 0 0,0 -0.24472801447788042,0.7112941647170113 l -21.398815154917234 -7.5690823810831525" fill="#deff1b" stroke="none" /><path d="M 119.79798401119884 107.00284435728193 l 0.8319928700414775 0.29428837663335145 a21.88250653505872,21.88250653505872 0 0,0 -0.1286646983559205,0.35402999058637774 l -0.8268039106803302 -0.3085661642258603" fill="#ff0200" stroke="none" /><path d="M 119.67450827220406 107.3425965602758 l 15.566010803991027 5.8092906722388085 a37.614708858855344,37.614708858855344 0 0,0 -0.23160938223213304,0.604659011961054 l -15.463707142165388 -6.076373251033006" fill="#ffd714" stroke="none" /><path d="M 119.54520255179757 107.68017299344265 l 15.929077491330892 6.259237807086491 a38.11471786651727,38.11471786651727 0 0,0 -0.24519994009921614,0.6085661426255262 l -15.818974936974284 -6.53250331755483" fill="#ffdd14" stroke="none" /><path d="M 119.41010516605496 108.01547362559984 l 14.01290523680432 5.786680256635803 a36.16071177643703,36.16071177643703 0 0,0 -0.2425333701475655,0.5732772438294975 l -13.911220885464447 -6.027032026131463" fill="#ffc412" stroke="none" /><path d="M 119.26925614724726 108.34839909993367 l 11.108100029061884 4.8125808062311295 a33.105817620968395,33.105817620968395 0 0,0 -0.23104536760063998,0.5209463097437476 l -11.023613576729971 -5.003075452467565" fill="#ff9d0e" stroke="none" /><path d="M 119.12269723197855 108.67885076344098 l 4.939119198658152 2.24162302566379 a26.42399965410578,26.42399965410578 0 0,0 -0.19154302247478172,0.41256662994344795 l -4.89980155934354 -2.3263097228860685" fill="#ff4306" stroke="none" /><path d="M 118.97047184881838 109.00673069616215 l 7.672760896786685 3.6428451355418323 a29.4936199856598,29.4936199856598 0 0,0 -0.2216891364466465,0.4567452832333258 l -7.608918503725325 -3.7743793747404335" fill="#ff6d0a" stroke="none" /><path d="M 118.81262510543309 109.33194174019688 l 9.941411460927027 4.931404950067483 a32.09731573926782,32.09731573926782 0 0,0 -0.24978028735244145,0.49284020360836805 l -9.855052503788317 -5.101799365378545" fill="#ff900d" stroke="none" /><line stroke="#e1ed5e" stroke-width="0.3" x1="174.80103733775053" x2="179.2010983576182" y1="140.37084112569926" y2="142.7455964860345" /><path d="M 175.68104954172406 140.8457921977663 a86.0,86.0 0 0,1 -30.038265399797805,32.042727171017184" fill="none" id="id77" stroke="none" /><text fill="#e1ed5e" style="font-size:6.75px; font-family:Arial;" text-anchor="middle"><textPath startOffset="22.206326154141568" xlink:href="#id77">May</textPath></text><path d="M 118.48025628344425 109.97397251340804 l 6.239755744310879 3.367656342509209 a28.090533195035697,28.090533195035697 0 0,0 -0.23331674572855643,0.4235376649273048 l -6.180862589130814 -3.474564525834319" fill="#ff5a08" stroke="none" /><path d="M 118.12598468904814 110.60418214915192 l 0.7247779062656198 0.42401431246741267 a21.83969705881823,21.83969705881823 0 0,0 -0.19262521734525312,0.32285094405244485 l -0.7173718132221395 -0.43642735040596164" fill="#ff0100" stroke="none" /><path d="M 117.94076556474637 110.91462005526583 l 25.86555809753745 15.735824546237344 a51.27611715275013,51.27611715275013 0 0,0 -0.46523397419652357,0.7501053001270889 l -25.59085948367296 -16.178726177729708" fill="#88ff25" stroke="none" /><path d="M 117.55443506779139 111.5257021239791 l 1.9722245705324528 1.2949019910789759 a23.359330609116114,23.359330609116114 0 0,0 -0.22357871010079183,0.33421983604294175 l -1.9496427550209399 -1.3286587413277244" fill="#ff1702" stroke="none" /><path d="M 117.35343817320211 111.8261652097733 l 3.061433214094706 2.0863309395645024 a24.704746970272915,24.704746970272915 0 0,0 -0.242505434725763,0.3493471656324427 l -3.0250668722068066 -2.1387193673839646" fill="#ff2a04" stroke="none" /><path d="M 116.93607887273984 112.41649034213515 l 3.956219930348967 2.9004568841260787 a25.905540365134584,25.905540365134584 0 0,0 -0.2667514873398031,0.3573572091967165 l -3.9057071763140723 -2.9681269728321102" fill="#ff3b05" stroke="none" /><path d="M 116.71984013943494 112.70617746262583 l 2.510577374575939 1.9079035079873203 a24.15326728164977,24.15326728164977 0 0,0 -0.25440657450527643,0.32885479189943084 l -2.4773639828525944 -1.950836294000004" fill="#ff2303" stroke="none" /><path d="M 116.498646956653 112.99209946851258 l 7.425638375451666 5.847426922010063 a30.45158753285545,30.45158753285545 0 0,0 -0.3278361186034447,0.40902596506543243 l -7.323884344793368 -5.9743807206537465" fill="#ff7a0b" stroke="none" /><path d="M 116.0416608686014 113.55231037782055 l 3.7072966423935316 3.1319970651361593 a25.85319008598714,25.85319008598714 0 0,0 -0.29011894739301675,0.33747387915710575 l -3.6528351854297365 -3.195348043454793" fill="#ff3b05" stroke="none" /><path d="M 115.56566222782051 114.09645910891815 l 3.468168215073029 3.140816671406854 a25.678987083913576,25.678987083913576 0 0,0 -0.29953143453505193,0.32508221401100734 l -3.413590372542255 -3.2000501402191963" fill="#ff3805" stroke="none" /><path d="M 115.32070863581623 114.36230785411682 l 12.104712052173676 11.347490844668382 a37.59185349308122,37.59185349308122 0 0,0 -0.4466152937164549,0.4682743499172889 l -11.907590207078258 -11.554172311168177" fill="#ffd614" stroke="none" /><path d="M 114.81725581225074 114.88116024355365 l 2.603362934194305 2.614590818081362 a24.689659023965785,24.689659023965785 0 0,0 -0.303741646888903,0.29727513062316857 l -2.557971334929608 -2.659016051627103" fill="#ff2a04" stroke="none" /><path d="M 114.29624159901734 115.38237550388516 l 4.503338124337045 4.845471977353527 a27.615032346513946,27.615032346513946 0 0,0 -0.35097450356055704,0.3206068874774089 l -4.419264071309624 -4.922271631417519" fill="#ff5307" stroke="none" /><path d="M 113.48314897796784 116.09983520530334 l 5.114896665757173 6.107549026225884 a28.96644983723155,28.96644983723155 0 0,0 -0.3850191152182426,0.3168445198567037 l -5.009007421994239 -6.1946886649397666" fill="#ff6609" stroke="none" /><path d="M 111.7513745106137 117.40417183066458 l 7.884144088665094 11.676676488602494 a35.08916256667922,35.08916256667922 0 0,0 -0.5034882133984281,0.33368453346734633 l -7.681981176526702 -11.81065904316116" fill="#ffb710" stroke="none" /><line stroke="#e1ed5e" stroke-width="0.3" x1="143.8653032363475" x2="146.44561519142675" y1="172.8068346515853" y2="177.08958963109032" /><path d="M 144.38136562736335 173.6633856474863 a86.0,86.0 0 0,1 -40.68145358897372,12.25698825130547" fill="none" id="id78" stroke="none" /><text fill="#e1ed5e" style="font-size:6.75px; font-family:Arial;" text-anchor="middle"><textPath startOffset="21.466115282336833" xlink:href="#id78">June</textPath></text><path d="M 109.2508944713604 118.85261126421891 l 0.3383914927580944 0.6896158298894691 a21.768165864384244,21.768165864384244 0 0,0 -0.3378080712415519,0.1621684027586273 l -0.3264707535163098 -0.6953385091476565" fill="#ff0000" stroke="none" /><path d="M 100.90346689309514 120.98055641714683 l 0.039145090095902654 0.9090380372409431 a21.909880481837853,21.909880481837853 0 0,0 -0.37693304358708474,0.012982336156938182 l -0.023491694834165643 -0.9095771718239751" fill="#ff0200" stroke="none" /><line stroke="#e1ed5e" stroke-width="0.3" x1="102.19456741930631" x2="102.32365962044197" y1="184.97166512339345" y2="189.96999836594603" /><path d="M 102.22038585953345 185.97133177190398 a86.0,86.0 0 0,1 -42.740103519485714,-10.115201625700543" fill="none" id="id79" stroke="none" /><text fill="#e1ed5e" style="font-size:6.75px; font-family:Arial;" text-anchor="middle"><textPath startOffset="22.20632615414155" xlink:href="#id79">July</textPath></text><path d="M 100.18074693466247 120.99922214144158 l 0.020327509579870597 2.361654929568411 a23.361742410594452,23.361742410594452 0 0,0 -0.40214888848465047,0.0 l 0.02032750957986897 -2.361654929568411" fill="#ff1702" stroke="none" /><path d="M 99.81925306533755 120.99922214144158 l -0.06623787587742441 7.695532277351814 a28.695817337227044,28.695817337227044 0 0,0 -0.49389643415003326,-0.008502875017808545 l 0.1986939999201256 -7.693251925054846" fill="#ff6209" stroke="none" /><path d="M 99.45781275523022 120.99299961872073 l -0.09208350981729269 3.5653901952372853 a24.566579119699217,24.566579119699217 0 0,0 -0.4226383364248567,-0.014556518855606326 l 0.15344219791679242 -3.5632768779555852" fill="#ff2803" stroke="none" /><path d="M 99.09653310690486 120.98055641714683 l -0.15406873176337169 3.5778264190797495 a24.581142144508117,24.581142144508117 0 0,0 -0.4225755050567366,-0.021842326782014497 l 0.21563230523359722 -3.574644285535533" fill="#ff2903" stroke="none" /><path d="M 98.73552117531835 120.96189622390904 l -0.478536233396609 7.932933844396716 a28.947354044350124,28.947354044350124 0 0,0 -0.4971187545385382,-0.03428421985505694 l 0.6150177487140772 -7.9235212800253745" fill="#ff6509" stroke="none" /><path d="M 98.01472825383883 120.90594882070398 l -0.42909993592452045 4.518646536299964 a25.538974914562328,25.538974914562328 0 0,0 -0.4372848997801936,-0.045326367812296285 l 0.5068174323103074 -4.510590800031907" fill="#ff3605" stroke="none" /><path d="M 97.2962882734958 120.8252237178851 l -1.7238270105650122 13.277703681954925 a34.38913718759177,34.38913718759177 0 0,0 -0.5863698476490631,-0.08126551786993622 l 1.9521254494009062 -13.246063598592384" fill="#ffae10" stroke="none" /><path d="M 96.93821686468263 120.77559828337769 l -0.11170321014371523 0.7579573465346038 a21.7661442072627,21.7661442072627 0 0,0 -0.3701945761123552,-0.057816779352766766 l 0.12473364986458756 -0.7559222598347313" fill="#ff0000" stroke="none" /><path d="M 96.58105272829116 120.7198165907248 l -0.9762406616626212 5.916302841355985 a26.996305957847746,26.996305957847746 0 0,0 -0.4578458158734619,-0.07960236379008391 l 1.0779354490081332 -5.898621899044895" fill="#ff4b06" stroke="none" /><path d="M 96.22490169976321 120.6578951692458 l -1.1219623255903202 6.139543466837472 a27.241217304439154,27.241217304439154 0 0,0 -0.46054830293170723,-0.08826517837105861 l 1.2274782430937226 -6.119321090117946" fill="#ff4e07" stroke="none" /><path d="M 95.86986931433489 120.58985236759428 l -0.4649287680556427 2.317799465508098 a23.363969780195035,23.363969780195035 0 0,0 -0.3936367620542275,-0.08249041074701381 l 0.5047569915392569 -2.309453074034543" fill="#ff1702" stroke="none" /><path d="M 95.51606077576429 120.51570834832081 l -1.769546176972163 8.096339281189724 a29.287460613998267,29.287460613998267 0 0,0 -0.4915828448516442,-0.11188265503189472 l 1.9086491712166698 -8.064679892580141" fill="#ff6a09" stroke="none" /><path d="M 94.81253420990036 120.34920634021253 l -3.6971550758514558 14.503068464345535 a35.966895153517584,35.966895153517584 0 0,0 -0.5986082665976916,-0.15809788387432178 l 3.946253785260637 -14.437279231167631" fill="#ffc212" stroke="none" /><path d="M 94.46302465271185 120.25689768951611 l -0.19907686867279933 0.7283181715860846 a21.755035733394827,21.755035733394827 0 0,0 -0.3603761365913544,-0.1018458959006491 l 0.21158417336876767 -0.724783482346914" fill="#ff0000" stroke="none" /><path d="M 94.11515582081647 120.15858648285463 l -1.878125602942864 6.433536086904509 a27.702070005746886,27.702070005746886 0 0,0 -0.4565895089903448,-0.1375666735979364 l 1.9885900863734545 -6.400254044200846" fill="#ff5407" stroke="none" /><path d="M 93.76903079525671 120.05430185196036 l -3.7959492236106014 12.21721838828087 a33.79334419357105,33.79334419357105 0 0,0 -0.5540155754210249,-0.1773782920145748 l 4.005686144122566 -12.15006724960659" fill="#ffa60f" stroke="none" /><path d="M 93.42475214034765 119.94407469862007 l -2.9249569877849604 8.871994166577066 a30.341715788449655,30.341715788449655 0 0,0 -0.4946136985239411,-0.1677998211455526 l 3.0772404192461273 -8.82033135853339" fill="#ff780b" stroke="none" /><path d="M 93.08242187328487 119.8279376855182 l -2.3357472047046595 6.6949804072541 a28.090731813980973,28.090731813980973 0 0,0 -0.45517745542352195,-0.1632104410767098 l 2.450644220757908 -6.6537824251374325" fill="#ff5a08" stroke="none" /><path d="M 92.7421414339146 119.70592522655815 l -3.0913437564389326 8.393355748020538 a29.944541739703794,29.944541739703794 0 0,0 -0.4821495851371684,-0.18230771719886152 l 3.2353635623363837 -8.338899780715044" fill="#ff730a" stroke="none" /><path d="M 92.40401165467489 119.57807347666478 l -0.28335984288756944 0.7303381169355359 a21.78338149429905,21.78338149429905 0 0,0 -0.34840851126070793,-0.13863893696283625 l 0.2958894301901354 -0.7253523355666331" fill="#ff0000" stroke="none" /><path d="M 92.06813273071674 119.44442032107085 l -4.081163396529123 10.004687898446413 a31.80507633543092,31.80507633543092 0 0,0 -0.5051381281299083,-0.21114777852621763 l 4.252772984156493 -9.932955076900223" fill="#ff8c0c" stroke="none" /><path d="M 91.7346041902142 119.30500536409082 l -1.2799480611094294 2.9895004128199814 a24.25198089745137,24.25198089745137 0 0,0 -0.3823490225591189,-0.16761057528790554 l 1.3312177583262916 -2.9670252842376237" fill="#ff2403" stroke="none" /><path d="M 91.07499286063937 119.00905698771935 l -1.7168060786531327 3.6565645356243683 a25.039540483134957,25.039540483134957 0 0,0 -0.3885747163118467,-0.1865394774763117 l 1.7794934629652215 -3.6264707816484942" fill="#ff2f04" stroke="none" /><path d="M 90.7491055286396 118.85261126421891 l -2.4987242053367895 5.09220770440606 a26.672230774496786,26.672230774496786 0 0,0 -0.4104298641982026,-0.2057980542931939 l 2.586007977217753 -5.048441809203564" fill="#ff4606" stroke="none" /><path d="M 90.42595943632237 118.69057910512821 l -5.946918651715888 11.609659761976419 a34.04415736025063,34.04415736025063 0 0,0 -0.5192692056337067,-0.2716571062092712 l 6.145878759876091 -11.50557323682243" fill="#ffa90f" stroke="none" /><path d="M 90.10565033884886 118.52300852407294 l -2.109771543855816 3.9496599199569005 a25.477828653552713,25.477828653552713 0 0,0 -0.38505150560748286,-0.2099607819695331 l 2.177445861331939 -3.9127584862276015" fill="#ff3505" stroke="none" /><line stroke="#e1ed5e" stroke-width="0.3" x1="58.666819895761336" x2="56.23545636021788" y1="174.27360380694188" y2="178.64263932499728" /><path d="M 58.180547188652646 175.14741091055294 a86.0,86.0 0 0,1 -31.652253787137756,-30.449443065178592" fill="none" id="id80" stroke="none" /><text fill="#e1ed5e" style="font-size:6.75px; font-family:Arial;" text-anchor="middle"><textPath startOffset="22.20632615414155" xlink:href="#id80">August</textPath></text><path d="M 89.7882731507175 118.34994917583269 l -7.663010293820108 13.770036302465515 a36.75866829825449,36.75866829825449 0 0,0 -0.5502444145662204,-0.3124431390877908 l 7.898903475307535 -13.636089997583092" fill="#ffcc13" stroke="none" /><path d="M 89.4739219176387 118.17145234162733 l -2.1163106720045186 3.6534441617765943 a25.222135135646383,25.222135135646383 0 0,0 -0.37380661026081285,-0.22085153421631623 l 2.1788851532937135 -3.6164740552665284" fill="#ff3204" stroke="none" /><path d="M 89.1626897886671 117.98757091392108 l -4.325021630775457 7.17859245243915 a29.380811518277447,29.380811518277447 0 0,0 -0.43094767002370754,-0.2647232568190344 l 4.447948500731473 -7.1030807287917375" fill="#ff6b09" stroke="none" /><path d="M 88.24862548938628 117.40417183066458 l -4.387461931606918 6.4979753040139 a28.840504145326015,28.840504145326015 0 0,0 -0.4090450287471594,-0.28134490064400075 l 4.498663844976967 -6.4214896140047975" fill="#ff6409" stroke="none" /><path d="M 87.95078237400918 117.19931262002967 l -4.748659935958372 6.778339415879049 a29.2762102694552,29.2762102694552 0 0,0 -0.4102470774500209,-0.2927003970251102 l 4.86463434125728 -6.69559475700972" fill="#ff6a09" stroke="none" /><path d="M 87.65650970185807 116.9893568818739 l -3.0227522894406857 4.1604616012490085 a26.142613356921398,26.142613356921398 0 0,0 -0.36178268352655946,-0.2676381802705234 l 3.0939199433858096 -4.1078134722387185" fill="#ff3f05" stroke="none" /><path d="M 87.36589467227662 116.77436683061367 l -2.563051058190885 3.4029761142915653 a25.260220318402833,25.260220318402833 0 0,0 -0.3450681676797563,-0.26458355651531473 l 2.621247954364128 -3.358353215948884" fill="#ff3204" stroke="none" /><path d="M 87.07902340077011 116.55440617244103 l -2.270801412453314 2.90935972447667 a24.69065211869216,24.69065211869216 0 0,0 -0.33278590867229063,-0.26438525250434447 l 2.3205448138429623 -2.8698405579671946" fill="#ff2a04" stroke="none" /><path d="M 86.79598089348748 116.32954008644616 l -4.785433470299572 5.918192563485134 a28.610872270453246,28.610872270453246 0 0,0 -0.3802928142417116,-0.31295509591794507 l 4.8865964130859725 -5.834942348710007" fill="#ff6108" stroke="none" /><path d="M 86.51685102203217 116.09983520530335 l -3.846741069875132 4.593281391732883 a26.991297923013313,26.991297923013313 0 0,0 -0.3536303757435691,-0.30137147805583475 l 3.9252369221957575 -4.526385523454096" fill="#ff4a06" stroke="none" /><path d="M 86.24171649860922 115.8653595955263 l -1.5799862391418806 1.821960554704022 a23.411617046459718,23.411617046459718 0 0,0 -0.3021856110126378,-0.266643667200122 l 1.611114203061106 -1.7944937457316112" fill="#ff1802" stroke="none" /><path d="M 85.97065885151581 115.62618273729859 l -10.901627613216569 12.142467947363869 a37.31824170889759,37.31824170889759 0 0,0 -0.4742978821528373,-0.43325986985237 l 11.10902504483626 -11.953015310924922" fill="#ffd313" stroke="none" /><path d="M 85.70375840098266 115.38237550388516 l -16.451538138458044 17.70141722280659 a45.16595288452358,45.16595288452358 0 0,0 -0.5649274918265267,-0.5341742045181368 l 16.75380146467539 -17.415608381542523" fill="#cdff1d" stroke="none" /><path d="M 85.44109423537348 115.13401014063109 l -3.9337690846243776 4.08916042043862 a26.67413184154442,26.67413184154442 0 0,0 -0.32815539198082594,-0.32116911860782443 l 4.003574428980998 -4.020841198908225" fill="#ff4606" stroke="none" /><path d="M 85.18274418774928 114.88116024355367 l -1.7374939039070243 1.7449874345059693 a23.46249187058512,23.46249187058512 0 0,0 -0.28373903667111566,-0.2874261461242571 l 1.7672735656336733 -1.7148207944010474" fill="#ff1902" stroke="none" /><path d="M 84.9287848128048 114.62390073753433 l -5.724835976896178 5.554922547713655 a28.976898612459756,28.976898612459756 0 0,0 -0.3442641126268993,-0.360959545739519 l 5.819606640902035 -5.455555885391636" fill="#ff6609" stroke="none" /><path d="M 84.67929136418377 114.36230785411682 l -5.640277650131184 5.287444981787743 a28.73109348061461,28.73109348061461 0 0,0 -0.3351325976327163,-0.3637202452384132 l 5.730456655759629 -5.189573481747986" fill="#ff6209" stroke="none" /><path d="M 84.43433777217949 114.09645910891817 l -5.554207147733767 5.0299597148237 a28.493311135451815,28.493311135451815 0 0,0 -0.326100722648681,-0.36637761886582176 l 5.639966720030786 -4.933607926217014" fill="#ff5f08" stroke="none" /><path d="M 84.19399662182784 113.82643327865904 l -11.398492774098901 9.970926618679538 a36.14414128157411,36.14414128157411 0 0,0 -0.40560179181595096,-0.47180651697240844 l 11.568437075485631 -9.7732430025456" fill="#ffc412" stroke="none" /><path d="M 83.50135304334701 112.99209946851258 l -3.617389343958463 2.8485658427944207 a25.604327641091512,25.604327641091512 0 0,0 -0.2696906059011627,-0.34861146278677974 l 3.6658867670776942 -2.7858763858943885" fill="#ff3705" stroke="none" /><path d="M 83.28015986056508 112.70617746262583 l -1.9211442956516138 1.4599661329468738 a23.412943537272803,23.412943537272803 0 0,0 -0.24108501206854122,-0.322972771215415 l 1.9459905744152401 -1.4266804822221508" fill="#ff1802" stroke="none" /><path d="M 83.06392112726016 112.41649034213515 l -5.607927206154155 4.1113869696655145 a27.95358543226869,27.95358543226869 0 0,0 -0.28116010089761845,-0.3905067891894406 l 5.677867099427381 -4.014246575024936" fill="#ff5808" stroke="none" /><path d="M 82.85270091963577 112.12312394758628 l -6.182854845737914 4.371272425675977 a28.572035173118252,28.572035173118252 0 0,0 -0.28046730529134284,-0.40403407151226084 l 6.257183058191392 -4.264197091976704" fill="#ff6008" stroke="none" /><path d="M 82.6465618267979 111.8261652097733 l -12.369345891793058 8.429564596546058 a35.96857632101866,35.96857632101866 0 0,0 -0.34426534015818505,-0.5146299730017481 l 12.512614337361972 -8.21539770933849" fill="#ffc212" stroke="none" /><path d="M 82.24976979558568 111.22182372390057 l -5.999238318747415 3.792761790430786 a28.097598354660473,28.097598354660473 0 0,0 -0.25493266795096586,-0.4110326330655721 l 6.063635626366337 -3.68893282599995" fill="#ff5a08" stroke="none" /><line stroke="#e1ed5e" stroke-width="0.3" x1="26.63291911575756" x2="22.317208475507996" y1="142.92168965132927" y2="145.44649492493687" /><path d="M 25.769776987707644 143.4266507060508 a86.0,86.0 0 0,1 -11.730757126820373,-40.83630448921669" fill="none" id="id81" stroke="none" /><text fill="#e1ed5e" style="font-size:6.75px; font-family:Arial;" text-anchor="middle"><textPath startOffset="21.46611528233685" xlink:href="#id81">September</textPath></text><path d="M 81.87401531095188 110.60418214915194 l -7.4068720224568745 4.33321672885705 a29.58128896939737,29.58128896939737 0 0,0 -0.25333979868503903,-0.441719293082552 l 7.480363817294291 -4.205077589916191" fill="#ff6e0a" stroke="none" /><path d="M 81.69416730710424 110.29060199501025 l -6.060253846831825 3.406764465332331 a27.952173819050486,27.952173819050486 0 0,0 -0.23216754862638575,-0.4214515383799958 l 6.117997804909727 -3.3019424085545124" fill="#ff5808" stroke="none" /><path d="M 81.51974371655577 109.97397251340807 l -2.079966439808423 1.1225779437942962 a23.363565448770725,23.363565448770725 0 0,0 -0.18796265626159656,-0.3555545100704617 l 2.098981604294906 -1.0866084186377083" fill="#ff1702" stroke="none" /><path d="M 81.35079622478065 109.6543875284942 l -14.870541329606754 7.69823583274264 a37.74502416755692,37.74502416755692 0 0,0 -0.2937305742100792,-0.5795582891432903 l 15.000850573603099 -7.441123331896665" fill="#ffd814" stroke="none" /><path d="M 81.02952815118164 109.00673069616217 l -5.2767769019029425 2.5052886864344943 a26.841305151662006,26.841305151662006 0 0,0 -0.19456799815385156,-0.41908215844168617 l 5.31911951689662 -2.4140864607139814" fill="#ff4806" stroke="none" /><path d="M 80.87730276802145 108.67885076344099 l -4.003170837955116 1.816842146361629 a25.39616789290971,25.39616789290971 0 0,0 -0.1772397532555783,-0.3996288536629905 l 4.033851675941974 -1.7476649562059428" fill="#ff3405" stroke="none" /><path d="M 80.73074385275274 108.34839909993369 l -4.824710328695864 2.090304216090842 a26.258060618862405,26.258060618862405 0 0,0 -0.17611533685522401,-0.4162846326962629 l 4.8599766467433945 -2.0069450577284202" fill="#ff4006" stroke="none" /><path d="M 80.58989483394504 108.01547362559985 l -4.829075921430373 1.9941844906609327 a26.224628794252393,26.224628794252393 0 0,0 -0.1687085139130443,-0.41872069584764743 l 4.8626870496008054 -1.91076442697048" fill="#ff4006" stroke="none" /><path d="M 80.32549172779594 107.34259656027581 l -6.699869683286118 2.5004152281810383 a28.151246750485964,28.151246750485964 0 0,0 -0.16552361886383474,-0.4554499095477139 l 6.741917563155177 -2.3847175216272074" fill="#ff5b08" stroke="none" /><path d="M 80.20201598880116 107.00284435728193 l -9.368469766942177 3.313768493129756 a30.937267602322535,30.937267602322535 0 0,0 -0.1732622064569587,-0.5035810742049991 l 9.424122804342364 -3.15201471583546" fill="#ff800b" stroke="none" /><path d="M 80.0844068197444 106.66101706037122 l -6.724967806172856 2.2492488615290003 a28.09114323893904,28.09114323893904 0 0,0 -0.1494284941715232,-0.4598936164965873 l 6.762688551360629 -2.13315634505461" fill="#ff5a08" stroke="none" /><path d="M 79.97269907076064 106.31721596034903 l -5.413598268957467 1.7076124989786563 a26.676529455955233,26.676529455955233 0 0,0 -0.13436488661388893,-0.4391122237545009 l 5.442189928077487 -1.6141733026721077" fill="#ff4606" stroke="none" /><path d="M 79.86692584326677 105.97154293290107 l -6.013944943851829 1.7837579173821356 a27.272904119744254,27.272904119744254 0 0,0 -0.1296207926023706,-0.45122698369928804 l 6.043758373340304 -1.6799734581782515" fill="#ff4e07" stroke="none" /><path d="M 79.67330655649465 105.27499134158121 l -6.871983588418228 1.783352222492271 a28.099612918248262,28.099612918248262 0 0,0 -0.11746800413860047,-0.46922628448281317 l 6.901662906851888 -1.664798098612066" fill="#ff5a08" stroke="none" /><path d="M 79.58551787078972 104.9243191809786 l -12.509820419759105 3.0175807671100876 a33.868620773830216,33.868620773830216 0 0,0 -0.13182866165550117,-0.5679144241352764 l 12.559909647345162 -2.801797685626237" fill="#ffa70f" stroke="none" /><path d="M 79.4281124754447 104.21870165774334 l -5.1109257655238824 1.0481036790562976 a26.217286986810983,26.217286986810983 0 0,0 -0.08685421013660133,-0.4428677462900541 l 5.1282099086361494 -0.9599722056982888" fill="#ff4006" stroke="none" /><path d="M 79.35854240842038 103.8639653848113 l -5.684888135398537 1.0641792554739526 a26.783634722194698,26.783634722194698 0 0,0 -0.08092937667670898,-0.4538949230876155 l 5.702363954414434 -0.9661655816531236" fill="#ff4806" stroke="none" /><path d="M 79.29508885075956 103.50808413554451 l -6.4481188716442155 1.0925206756344896 a27.54001822700389,27.54001822700389 0 0,0 -0.0751688347442828,-0.4680764057069126 l 6.46596946074979 -0.9813650402343632" fill="#ff5207" stroke="none" /><path d="M 79.23777060512086 103.15116336523772 l -3.646831209913918 0.5534935911420311 a24.688594993901813,24.688594993901813 0 0,0 -0.06015311390142044,-0.42071073852427515 l 3.6558183748319375 -0.4906373806373554" fill="#ff2a04" stroke="none" /><path d="M 79.18660465613746 102.79330883721812 l -19.49922830483717 2.6169380748776665 a40.67405065999139,40.67405065999139 0 0,0 -0.08715575678651682,-0.6947171349025438 l 19.541385570870535 -2.280903185687714" fill="#fffc17" stroke="none" /><path d="M 79.1416061653843 102.43462659150553 l -17.415122865087874 2.0327222487915084 a38.5333529065846,38.5333529065846 0 0,0 -0.07122743215625557,-0.6594775602256299 l 17.447532598745184 -1.7326483666810963" fill="#ffe215" stroke="none" /><path d="M 79.10278846688536 102.07522291339032 l -4.948460937157356 0.4914129096378667 a25.97280125224516,25.97280125224516 0 0,0 -0.040351101269989594,-0.44527104011130303 l 4.956186634704421 -0.4061604809779975" fill="#ff3c05" stroke="none" /><path d="M 79.07016306316243 101.71520430193888 l -6.551148157166209 0.5368678951355584 a27.573109561993434,27.573109561993434 0 0,0 -0.034694116331104176,-0.4733736527341272 l 6.559418832161649 -0.4240211059046707" fill="#ff5307" stroke="none" /><path d="M 79.04373962182676 101.35467743843564 l -7.0915220727018795 0.45841790389583875 a28.106323401185048,28.106323401185048 0 0,0 -0.027053874241576813,-0.4830650983481355 l 7.098362297830988 -0.3362810892122657" fill="#ff5a08" stroke="none" /><path d="M 79.0095281055655 100.63252640178507 l -4.533320704133708 0.13660698280364839 a25.5353784929461,25.5353784929461 0 0,0 -0.009457741582511598,-0.43946408785735397 l 4.535000508401226 -0.0585530791561656" fill="#ff3605" stroke="none" /><line stroke="#e1ed5e" stroke-width="0.3" x1="15.007084014347285" x2="10.007500721073583" y1="101.09737516637583" y2="101.16192664675087" /><path d="M 14.007167355692545 101.11028546245083 a86.0,86.0 0 0,1 10.666146001902534,-42.60595125391555" fill="none" id="id82" stroke="none" /><text fill="#e1ed5e" style="font-size:6.75px; font-family:Arial;" text-anchor="middle"><textPath startOffset="22.20632615414155" xlink:href="#id82">October</textPath></text><path d="M 79.00175016825051 100.2711162175752 l -9.206880622618078 0.118873461839495 a30.20764800038913,30.20764800038913 0 0,0 -0.002237815231997345,-0.5199894494238271 l 9.207562735139579 0.03962546578800747" fill="#ff760a" stroke="none" /><path d="M 79.00019446554 99.90962569577889 l -1.771359566491208 -0.007623184323510674 a22.771375969899996,22.771375969899996 0 0,0 0.005060659503397448,-0.3919536555805668 l 1.770965899870095 0.0381130979645494" fill="#ff0f01" stroke="none" /><path d="M 79.00486145842228 99.54816195383935 l -21.279738516284088 -0.4579629448486965 a42.28466587429267,42.28466587429267 0 0,0 0.02192420770858366,-0.72755771840674 l 21.26870261411986 0.8241908106804309" fill="#eeff19" stroke="none" /><path d="M 79.01574976396665 99.18683210126434 l -7.295579380703598 -0.28271350600264916 a28.30105508995952,28.30105508995952 0 0,0 0.023053758846389535,-0.486628412563559 l 7.289632013623709 0.4082530251892172" fill="#ff5d08" stroke="none" /><path d="M 79.03285615573316 98.82574320788736 l -7.124731670974706 -0.39901784519448263 a28.13589634342972,28.13589634342972 0 0,0 0.031243451156660638,-0.4833223607147191 l 7.116807628813631 0.5215992701622135" fill="#ff5a08" stroke="none" /><path d="M 79.08570108090925 98.10471618934814 l -2.5770970344730117 -0.23354023516691455 a23.587657273777076,23.587657273777076 0 0,0 0.040124710297228715,-0.4040503568921544 l 2.5726951984935544 0.27786612276349926" fill="#ff1a02" stroke="none" /><path d="M 79.21141760316559 97.0276538004421 l -7.216210958862093 -1.0317719991358332 a28.289599032937417,28.289599032937417 0 0,0 0.07307352497628905,-0.4814632287830308 l 7.197381540446502 1.155834340310956" fill="#ff5c08" stroke="none" /><path d="M 79.26566170972629 96.67025291283419 l -14.779271514362419 -2.3734172553008572 a35.968633069288735,35.968633069288735 0 0,0 0.10343232355792827,-0.6104634286070374 l 14.736227329284267 2.6274664722237224" fill="#ffc212" stroke="none" /><path d="M 79.32604984820605 96.31383870115002 l -2.377016081362304 -0.4238215058819544 a23.414504114699962,23.414504114699962 0 0,0 0.0741618471999445,-0.39617555320455683 l 2.3693685102524977 0.4646751365490839" fill="#ff1802" stroke="none" /><path d="M 79.54389044137918 95.25157060432595 l -7.461500960855407 -1.7320209591586055 a28.659888588733576,28.659888588733576 0 0,0 0.11568659526209403,-0.47959562424177654 l 7.430581565332498 1.8602018150597788" fill="#ff6109" stroke="none" /><path d="M 79.71946130924805 94.55025226153421 l -21.92230652343996 -5.890920464186201 a43.70001029125375,43.70001029125375 0 0,0 0.2014637677418831,-0.7247723630914078 l 21.817655985131715 6.267404130696551" fill="#deff1b" stroke="none" /><path d="M 79.81627453868168 94.20196356495316 l -6.822831292904611 -1.9599466165080743 a28.098761694197083,28.098761694197083 0 0,0 0.13754223812509156,-0.4637240510486065 l 6.788083157667812 2.0771000543032203" fill="#ff5a08" stroke="none" /><path d="M 80.02781315780177 93.51064311812611 l -10.910145684420698 -3.5449212216387247 a32.47160604810452,32.47160604810452 0 0,0 0.17729915357393083,-0.5301019021238299 l 10.847509237074995 3.7321962266848767" fill="#ff950d" stroke="none" /><path d="M 80.14247586403 93.16781622104843 l -8.059748623907247 -2.7730387450941136 a29.523455388653588,29.523455388653588 0 0,0 0.16947436147386746,-0.4791268415495811 l 8.01082118162357 2.911363213070306" fill="#ff6d0a" stroke="none" /><path d="M 80.2630227832202 92.82701384747504 l -7.241254169648522 -2.6316803893173355 a28.704641693224257,28.704641693224257 0 0,0 0.1727683332727818,-0.46293323815990306 l 7.194881247874113 2.75593676450658" fill="#ff6209" stroke="none" /><path d="M 80.52162464483688 92.15188598940014 l -15.197466857047914 -6.1232751906492755 a37.384672652558265,37.384672652558265 0 0,0 0.2456320985196005,-0.5948176099284942 l 15.089813071642112 6.383967371031082" fill="#ffd413" stroke="none" /><path d="M 80.65960295795068 91.81776055985345 l -6.660542323312899 -2.8178403975930686 a28.232084661212827,28.232084661212827 0 0,0 0.19320061172972555,-0.44593364915370687 l 6.611051001740492 2.932073191333375" fill="#ff5c08" stroke="none" /><path d="M 80.803312248108 91.48605970444005 l -6.806361061819455 -3.018695332200912 a28.44574189805849,28.44574189805849 0 0,0 0.20236799675373573,-0.44589105595237283 l 6.753390748102368 3.1354083969953557" fill="#ff5f08" stroke="none" /><path d="M 80.95270993114464 91.15688171328213 l -6.4353807366829106 -2.987765339259754 a28.09512980491206,28.09512980491206 0 0,0 0.20742474615257164,-0.4368894153027508 l 6.382997796688588 3.098097170203037" fill="#ff5a08" stroke="none" /><path d="M 81.10775173730289 90.83032412892265 l -6.57181545152467 -3.1897430489522853 a28.305013281797496,28.305013281797496 0 0,0 0.21651985556863948,-0.43649081660569816 l 6.5159355830026175 3.3023934540569453" fill="#ff5d08" stroke="none" /><path d="M 81.26839172434947 90.50648371742162 l -5.096108491075212 -2.582799523984188 a26.713245586696043,26.713245586696043 0 0,0 0.2114042583898142,-0.4083657385851494 l 5.050894799525283 2.670137984829673" fill="#ff4706" stroke="none" /><path d="M 81.43458229118936 90.18545643968196 l -5.063568819398046 -2.676838061395499 a26.727581618424633,26.727581618424633 0 0,0 0.21851949006479804,-0.4048834277311582 l 5.016741230114777 2.7636024724591297" fill="#ff4706" stroke="none" /><path d="M 81.6062741919709 89.86733742301443 l -18.640465182094697 -10.268585382835589 a42.28170077718107,42.28170077718107 0 0,0 0.3566609621827392,-0.6344600544234757 l 18.460946578619527 10.58792894719385" fill="#eeff19" stroke="none" /><line stroke="#e1ed5e" stroke-width="0.3" x1="26.266209847984243" x2="21.928928074336255" y1="57.711370442889674" y2="55.22380399835377" /><path d="M 25.398753493254645 57.213857153982495 a86.0,86.0 0 0,1 29.58750427330803,-30.492523968695096" fill="none" id="id83" stroke="none" /><text fill="#e1ed5e" style="font-size:6.75px; font-family:Arial;" text-anchor="middle"><textPath startOffset="21.46611528233685" xlink:href="#id83">November</textPath></text><path d="M 81.78341655067845 89.55222093294921 l -9.846486326122491 -5.647267173246792 a32.350987600052605,32.350987600052605 0 0,0 0.2812076098914325,-0.48067496009049393 l 9.747819041760733 5.815921545691178" fill="#ff930d" stroke="none" /><path d="M 81.96595687620814 89.24020034530311 l -8.532896151644847 -5.091052097180973 a30.936253226994882,30.936253226994882 0 0,0 0.27678253531282754,-0.4549577129867933 l 8.443997818045803 5.237177583374841" fill="#ff800b" stroke="none" /><path d="M 82.15384107792192 88.93136811851018 l -2.1005947705612003 -1.302841151927671 a23.47181986747928,23.47181986747928 0 0,0 0.2159098982991782,-0.3415176082350716 l 2.0778572760160596 1.3388064078769584" fill="#ff1902" stroke="none" /><path d="M 82.34701348167596 88.62581576622439 l -4.770560809109069 -3.0737709726856837 a26.675061094466955,26.675061094466955 0 0,0 0.25202008919882296,-0.3838438859542875 l 4.716944084552326 3.155432922617638" fill="#ff4606" stroke="none" /><path d="M 82.54541684631803 88.32363383020206 l -3.427874128920162 -2.293100508951761 a25.124152153822042,25.124152153822042 0 0,0 0.2435553666349614,-0.3573874473830744 l 3.38789429661646 2.3517659796052515" fill="#ff3004" stroke="none" /><path d="M 82.95767976084542 87.72973835380427 l -14.394715781364608 -10.364018894221209 a38.7375514112304,38.7375514112304 0 0,0 0.39426966839310473,-0.5377833845990343 l 14.214183500457871 10.610264722491744" fill="#ffe515" stroke="none" /><path d="M 83.17141714833178 87.43820079747576 l -6.750879374393829 -5.039235441812093 a29.424266506090078,29.424266506090078 0 0,0 0.3064664298161809,-0.4032738980469866 l 6.663137004353539 5.1546941157401065" fill="#ff6c09" stroke="none" /><path d="M 83.39014120810768 87.1503855733568 l -2.4115648027550156 -1.8656195858445024 a24.048963961245434,24.048963961245434 0 0,0 0.2561167931369139,-0.32524231821632127 l 2.3790939290241306 1.9068542980138714" fill="#ff2103" stroke="none" /><path d="M 83.84228863543731 86.58626213691792 l -6.2335479991525045 -5.174939502939594 a29.101673871294924,29.101673871294924 0 0,0 0.3232910306634371,-0.3826746090652521 l 6.143546355001943 5.281473061633962" fill="#ff6709" stroke="none" /><path d="M 84.07557802195018 86.31012108654704 l -4.419393736173664 -3.7992565885584 a26.82798349526107,26.82798349526107 0 0,0 0.30406087407959326,-0.347594141309749 l 4.353340998516227 3.8747662860710923" fill="#ff4806" stroke="none" /><path d="M 84.31358615837235 86.03803664274999 l -1.5871694261944806 -1.4126875392939082 a23.124804195949075,23.124804195949075 0 0,0 0.26720860941218144,-0.2950584204400872 l 1.5626171761662542 1.4397987470035514" fill="#ff1402" stroke="none" /><path d="M 84.5562425177563 85.77008943001954 l -2.3577630755349186 -2.172447848176754 a24.206021892221525,24.206021892221525 0 0,0 0.28497712461217617,-0.30399372708086986 l 2.3200186289522864 2.2127109921356745" fill="#ff2303" stroke="none" /><path d="M 84.80347519578584 85.50635884689758 l -5.649500275883842 -5.388194389700649 a28.807015572445923,28.807015572445923 0 0,0 0.34532167979263856,-0.35588434565893445 l 5.555914332388085 5.484642930909707" fill="#ff6309" stroke="none" /><path d="M 85.05521093208273 85.24692304244772 l -6.33997439374579 -6.2586450511126275 a29.90875486188552,29.90875486188552 0 0,0 0.36483582177080404,-0.3632691008076779 l 6.231302771807673 6.366850002570415" fill="#ff720a" stroke="none" /><path d="M 85.57189188830299 84.74124197986013 l -4.202937384259293 -4.4449074004525935 a27.117342924391487,27.117342924391487 0 0,0 0.34192660089572413,-0.3177835110254215 l 4.125802899568713 4.516595497552663" fill="#ff4c07" stroke="none" /><path d="M 85.83668400450813 84.49514656593479 l -7.653534384841127 -8.378470756940775 a32.34792319346836,32.34792319346836 0 0,0 0.4143445672920203,-0.37200264359418317 l 7.508178829953135 8.508972409304237" fill="#ff930d" stroke="none" /><path d="M 86.37877921826538 84.01681056812374 l -9.710597847701019 -11.39445042287981 a35.970945561294435,35.970945561294435 0 0,0 0.47471792622699505,-0.3975626110584105 l 9.513022384514914 11.559914191332032" fill="#ffc212" stroke="none" /><path d="M 87.51073957382395 83.11751280151077 l -8.828675403116318 -11.934253461504934 a35.8449289340513,35.8449289340513 0 0,0 0.4991913024632929,-0.36268371084997064 l 8.621938784299243 12.084456407171572" fill="#ffc011" stroke="none" /><path d="M 88.09926311788651 82.69761687909137 l -3.8815042220449087 -5.643286949414378 a27.84928920539811,27.84928920539811 0 0,0 0.3973103004786623,-0.26826568843816206 l 3.783789227159707 5.709264550151206" fill="#ff5608" stroke="none" /><path d="M 88.39885842347998 82.49532879139004 l -7.101329321946071 -10.715017492443625 a33.8545897640533,33.8545897640533 0 0,0 0.48852652509780475,-0.31775124117297615 l 6.91583577106398 10.835667657776137" fill="#ffa70f" stroke="none" /><path d="M 89.00827224532344 82.1063720568725 l -3.7864590038230768 -6.164043556072321 a28.234134692469414,28.234134692469414 0 0,0 0.41630281563375326,-0.2508177883753426 l 3.6797941219716743 6.228307953906283" fill="#ff5c08" stroke="none" /><line stroke="#e1ed5e" stroke-width="0.3" x1="56.762969772571076" x2="54.21961505331055" y1="26.818313649435495" y2="22.513508569990535" /><path d="M 56.25429882871897 25.957352633546506 a86.0,86.0 0 0,1 42.265352541879196,-11.944610805530505" fill="none" id="id84" stroke="none" /><text fill="#e1ed5e" style="font-size:6.75px; font-family:Arial;" text-anchor="middle"><textPath startOffset="22.20632615414155" xlink:href="#id84">December</textPath></text><path d="M 89.3179101791058 81.91981866633112 l -5.026207323344505 -8.507206113258084 a30.881058440809753,30.881058440809753 0 0,0 0.45998552310546176,-0.2664533049937961 l 4.879025067773724 8.592463575641927" fill="#ff800b" stroke="none" /><path d="M 89.63071344664047 81.73862282372117 l -5.251535022430131 -9.24849181335084 a31.635469943233716,31.635469943233716 0 0,0 0.4758515659977558,-0.2648108812841937 l 5.09155936736033 9.33751809219522" fill="#ff8a0c" stroke="none" /><path d="M 89.94658935756843 81.56283822128135 l -5.448490373280867 -9.99210139074494 a32.381042902592945,32.381042902592945 0 0,0 0.49165980609862964,-0.2626276411605294 l 5.275685520653932 10.084407758407218" fill="#ff930d" stroke="none" /><path d="M 90.26544431104013 81.39251694778311 l -4.553262606168563 -8.703505273760182 a30.82258644202759,30.82258644202759 0 0,0 0.4722306634814828,-0.24189488737369438 l 4.402771455098316 8.780592686446381" fill="#ff7f0b" stroke="none" /><path d="M 91.23893434514133 80.91482961587045 l -3.286666233887133 -7.159698093885952 a28.878036032449202,28.878036032449202 0 0,0 0.4535472698601215,-0.20349343940064768 l 3.1629368455602376 7.215211863803129" fill="#ff6409" stroke="none" /><path d="M 91.56875222667455 80.76684994638697 l -3.2259595428334102 -7.358977653402297 a29.035008841020172,29.035008841020172 0 0,0 0.45946690621776193,-0.19671975064309652 l 3.09880887882534 7.41341693200818" fill="#ff6709" stroke="none" /><path d="M 92.23578459929587 80.48803036053334 l -4.814457532267899 -12.09903954900497 a34.02174179356961,34.02174179356961 0 0,0 0.5459952257365269,-0.21183766504099916 l 4.605479141531696 12.180119917936521" fill="#ffa90f" stroke="none" /><path d="M 92.57280143429618 80.3572730644239 l -5.716780666303306 -15.119181288259472 a37.16388641428399,37.16388641428399 0 0,0 0.6003165292717056,-0.22110164401036445 l 5.455681811259031 15.21534620007616" fill="#ffd113" stroke="none" /><path d="M 92.91201910852362 80.23233633223022 l -11.857508284020582 -33.069394413602865 a56.130974219170824,56.130974219170824 0 0,0 0.912310077641085,-0.3182870724110261 l 11.286516202316212 33.2686023391861" fill="#56ff2b" stroke="none" /><path d="M 93.59665428221793 80.00007090966166 l -1.4093257121013663 -4.401826099900291 a25.621933791883375,25.621933791883375 0 0,0 0.42119363449501923,-0.13086691250315616 l 1.3333467048956182 4.425433147285973" fill="#ff3705" stroke="none" /><path d="M 93.94186890950719 79.89281104454417 l -0.9204710898021594 -3.0550818155341033 a24.19073532696912,24.19073532696912 0 0,0 0.39973437137723306,-0.11669342444321135 l 0.8677465007015049 3.070473568896013" fill="#ff2303" stroke="none" /><path d="M 94.28887869178378 79.79150937346287 l -1.23417975753329 -4.367077621988599 a25.53812369051115,25.53812369051115 0 0,0 0.4240570302927093,-0.11591080522612088 l 1.1588248380168582 4.387674968041017" fill="#ff3605" stroke="none" /><path d="M 94.63758080256005 79.69619591428918 l -1.1535374862928842 -4.367655392997897 a25.517417665466247,25.517417665466247 0 0,0 0.42564402818691427,-0.10850614014446941 l 1.0781845694209704 4.38686452931123" fill="#ff3605" stroke="none" /><path d="M 94.98787191387505 79.60689891045804 l -2.184398998541036 -8.887775577894727 a30.152275875860006,30.152275875860006 0 0,0 0.505088401776122,-0.11953810594864502 l 2.03108690980238 8.924059595984243" fill="#ff760a" stroke="none" /><path d="M 95.33964822691252 79.52364482259891 l -1.2171538149501895 -5.347852487096138 a26.48461390008341,26.48461390008341 0 0,0 0.4453920998475833,-0.09734546196328492 l 1.124918990949085 5.3680114471552915" fill="#ff4306" stroke="none" /><path d="M 96.04723909329186 79.375362276772 l -1.6019920254653814 -8.358842323261054 a29.510970769236312,29.510970769236312 0 0,0 0.4997259612633493,-0.09132172525291982 l 1.4578709430991388 8.385179529864711" fill="#ff6d0a" stroke="none" /><path d="M 96.40284397218896 79.31037775812273 l -0.9573893760679929 -5.506579190919073 a26.58918677477062,26.58918677477062 0 0,0 0.4515993502418514,-0.07451776224245225 l 0.8624608196872559 5.5222432161011525" fill="#ff4506" stroke="none" /><path d="M 96.75951476605007 79.25152402106235 l -0.690332499070904 -4.420124222258377 a25.473707310438257,25.473707310438257 0 0,0 0.43381847227115317,-0.06393356591091165 l 0.614145046371102 4.431352272330258" fill="#ff3505" stroke="none" /><path d="M 97.11714578562143 79.19881850522333 l -0.9737838141587115 -7.0263191783902315 a28.09347701154602,28.09347701154602 0 0,0 0.47957608255439677,-0.06226273944129188 l 0.8526930030964569 7.04204024099566" fill="#ff5a08" stroke="none" /><path d="M 97.47563105711357 79.15227682838746 l -0.34528288731394363 -2.851549125139132 a23.872377531828572,23.872377531828572 0 0,0 0.4083691845628248,-0.04588503606962703 l 0.29614699924140087 2.8570701146793573" fill="#ff1f03" stroke="none" /><path d="M 97.83486435360386 79.11191278185805 l -0.8853305433290528 -8.541202319920929 a29.58696379640522,29.58696379640522 0 0,0 0.5070288017151003,-0.04814849415196262 l 0.7381766145237161 8.555176358588072" fill="#ff6e0a" stroke="none" /><path d="M 98.55514903715128 79.0497635885617 l -0.5984287897216581 -8.677174976830024 a29.69778607433483,29.69778607433483 0 0,0 0.5102899181458169,-0.030782081403873035 l 0.4489768227362182 8.686190327614204" fill="#ff700a" stroke="none" /><path d="M 99.27714615592234 79.0124445844662 l -0.17503681398993506 -5.082071380639378 a26.085084798129287,26.085084798129287 0 0,0 0.4488788030822329,-0.011593215162148347 l 0.08753137571282317 5.084331387943886" fill="#ff3e05" stroke="none" /><path d="M 99.63851952072746 79.00311137660856 l -0.040655955332363505 -2.3615343426265603 a23.36188428126965,23.36188428126965 0 0,0 0.4021364346048987,-0.003461315251647691 l 5.784948050026646e-16 2.361884281269649" fill="#ff1702" stroke="none" /></svg>