<?xml version="1.0" encoding="utf-8" ?>
<svg baseProfile="full" height="200mm" version="1.1" viewBox="0,0,200,200" width="200mm" xmlns="http://www.w3.org/2000/svg" xmlns:ev="http://www.w3.org/2001/xml-events" xmlns:xlink="http://www.w3.org/1999/xlink"><defs /><rect fill="#1a1a1a" height="200" width="200" x="0" y="0" /><rect fill="#1a1a1a" height="200" width="180" x="10" y="0" /><text alignment-baseline="middle" fill="#e1ed5e" style="dominant-baseline: central; font-size:9.0px; font-family:Arial;" text-anchor="middle" x="100.0" y="100.0">2023</text><line stroke="#e1ed5e" stroke-width="0.3" x1="100.0" x2="100.0" y1="15.0" y2="10.0" /><path d="M 100.0 14.0 a86.0,86.0 0 0,1 42.46469731375804,11.215312516191453" fill="none" id="id97" stroke="none" /><text fill="#e1ed5e" style="font-size:6.75px; font-family:Arial;" text-anchor="middle"><textPath startOffset="22.20632615414155" xlink:href="#id97">January</textPath></text><path d="M 100.0 79.0 l 0.0 -9.350411660823553 a30.350411660823553,30.350411660823553 0 0,0 0.522432445393954,0.004496740995315178 l -0.16095196612142554 9.349026296436797" fill="#ff710a" stroke="none" /><path d="M 100.36148047927253 79.00311137660856 l 0.2807647526037759 -16.308449772058147 a37.310866402924404,37.310866402924404 0 0,0 0.6420549207533119,0.01658238435653065 l -0.5614463085519557 16.30120059555926" fill="#ffcd13" stroke="none" /><path d="M 100.72285384407766 79.0124445844662 l 0.5142124736914713 -14.929799260774235 a35.93865189483692,35.93865189483692 0 0,0 0.6180749334947084,0.02661560679144142 l -0.7711282395755112 14.918735927458599" fill="#ffbb11" stroke="none" /><path d="M 101.08401301168833 79.027996857942 l 0.7879776671802351 -15.244715638825518 a36.26506677720822,36.26506677720822 0 0,0 0.6231339235515463,0.037589139973560726 l -1.0502736395713932 15.228893229471653" fill="#ffbf11" stroke="none" /><path d="M 102.16513564639614 79.11191278185805 l 1.895851509148952 -18.290175833400887 a39.388169701236286,39.388169701236286 0 0,0 0.673787716404451,0.07570790069183678 l -2.2104059290631284 18.25483197923845" fill="#ffe715" stroke="none" /><path d="M 102.52436894288641 79.15227682838746 l 3.5805690478472045 -29.57044473103464 a50.7864344341107,50.7864344341107 0 0,0 0.8669613683919356,0.11255646757514953 l -4.089045144746986 29.504429940295353" fill="#92ff23" stroke="none" /><path d="M 103.2404852339499 79.25152402106235 l 2.1504966456272316 -13.769397103592043 a34.93631703210224,34.93631703210224 0 0,0 0.5933697109725639,0.0979110864983456 l -2.3871955627386705 13.730339754154073" fill="#ffae10" stroke="none" /><path d="M 103.59715602781102 79.31037775812273 l 4.645937651200572 -26.721858662646827 a48.12272971227853,48.12272971227853 0 0,0 0.8148894034063162,0.14891582983052062 l -5.105222175709789 26.63792735146557" fill="#afff20" stroke="none" /><path d="M 106.40334571778207 80.00007090966166 l 0.5780021658313905 -1.8053066069176473 a22.895578658005594,22.895578658005594 0 0,0 0.37430692609491517,0.12340310853473178 l -0.6089919141687232 1.7950897741236793" fill="#ff0701" stroke="none" /><path d="M 106.74666289553966 80.11325718540242 l 4.594908342113136 -13.544142025632327 a35.30234127277491,35.30234127277491 0 0,0 0.5737773511951387,0.20017965141836208 l -4.827367697371549 13.463041521041758" fill="#ffb310" stroke="none" /><path d="M 107.4271985657038 80.35727306442388 l 4.979702998481301 -13.169830502595271 a35.079839396107204,35.079839396107204 0 0,0 0.5629760212188591,0.21842594987565958 l -5.205662184699827 13.082161848829065" fill="#ffb010" stroke="none" /><path d="M 107.76421540070413 80.48803036053334 l 2.6031354285082418 -6.541845740635494 a28.040742841023633,28.040742841023633 0 0,0 0.446937568457836,0.18231705610797666 l -2.7153568665544654 6.496067798343938" fill="#ff5107" stroke="none" /><path d="M 109.08828744355905 81.06846463323043 l 0.7818379527309721 -1.628622878086782 a22.806566650682512,22.806566650682512 0 0,0 0.3524469609041969,0.17294419305534373 l -0.8097561806456008 1.6149235248966063" fill="#ff0600" stroke="none" /><path d="M 109.41281617654863 81.2277094730956 l 8.625018708758915 -17.201159989100717 a40.242423254285846,40.242423254285846 0 0,0 0.6165513160038502,0.3158215310402073 l -8.91983051235152 17.05014593274801" fill="#fff116" stroke="none" /><path d="M 110.05341064243156 81.56283822128135 l 4.489770210835096 -8.23388426779882 a30.37842666344452,30.37842666344452 0 0,0 0.4569434854701865,0.2542885549419441 l -4.630837785377318 8.155380315296696" fill="#ff710a" stroke="none" /><line stroke="#e1ed5e" stroke-width="0.3" x1="143.23703022742887" x2="145.7803849466894" y1="26.81831364943548" y2="22.513508569990506" /><path d="M 143.74570117128098 25.957352633546492 a86.0,86.0 0 0,1 28.547481713284135,27.462654790039103" fill="none" id="id98" stroke="none" /><text fill="#e1ed5e" style="font-size:6.75px; font-family:Arial;" text-anchor="middle"><textPath startOffset="19.985693538727396" xlink:href="#id98">February</textPath></text><path d="M 110.68208982089419 81.91981866633111 l 21.472645529213185 -36.34394873954264 a63.21323389656071,63.21323389656071 0 0,0 0.9320578634015361,0.5615544338328111 l -22.09506545883236 35.96894769625121" fill="#33ff53" stroke="none" /><path d="M 110.99172775467656 82.1063720568725 l 19.427746502336916 -31.626772009369404 a58.117247229444374,58.117247229444374 0 0,0 0.8479053079975192,0.5309582260810641 l -19.969270962706698 31.287669441965395" fill="#45ff2d" stroke="none" /><path d="M 111.2981086023043 82.29822771554956 l 11.358803733468058 -17.796868855784222 a42.11281514449057,42.11281514449057 0 0,0 0.6076938869443708,0.3952610081738101 l -11.66346464619671 17.598708923450882" fill="#f6ff19" stroke="none" /><path d="M 111.60114157652 82.49532879139004 l 7.412346214645717 -11.184303071894687 a34.41758218196429,34.41758218196429 0 0,0 0.491016478647312,0.3315365182329963 l -7.603767387699571 11.055054641363022" fill="#ffa70f" stroke="none" /><path d="M 111.90073688211348 82.69761687909136 l 25.519984068239943 -37.10329418775919 a66.03247746267826,66.03247746267826 0 0,0 0.9309600168020669,0.6521969855051567 l -26.15487522462566 36.658512359490096" fill="#37ff73" stroke="none" /><path d="M 112.48926042617603 83.11751280151076 l 8.486209766561485 -11.47132198856187 a35.269091925113756,35.269091925113756 0 0,0 0.48495647365836925,0.3652591617574057 l -8.682412393978238 11.323546237298618" fill="#ffb210" stroke="none" /><path d="M 113.06298171725822 83.55741782278167 l 9.544031391329707 -12.013223615444794 a36.34294876591092,36.34294876591092 0 0,0 0.48647044686868474,0.39335860294922265 l -9.749405236762883 11.847158915231441" fill="#ffc011" stroke="none" /><path d="M 113.34407831869373 83.78471172551755 l 18.012977257135862 -21.888781819945653 a49.34759459332091,49.34759459332091 0 0,0 0.6512530433683762,0.5454056947861334 l -18.387087837463355 21.575474967765697" fill="#a1ff22" stroke="none" /><path d="M 114.16331599549186 84.49514656593476 l 12.810972448764169 -14.024417038295296 a39.99487531801728,39.99487531801728 0 0,0 0.5043013177532878,0.4686931141086003 l -13.050481650312303 13.801819338112056" fill="#ffee16" stroke="none" /><path d="M 114.42810811169701 84.74124197986012 l 7.6859373693055915 -8.128429421810763 a32.1868225207271,32.1868225207271 0 0,0 0.39929555245345677,0.3841220050987738 l -7.824716165371466 7.994924329949686" fill="#ff8a0c" stroke="none" /><path d="M 114.94478906791727 85.2469230424477 l 9.58935638568378 -9.466343893410617 a34.47469564034627,34.47469564034627 0 0,0 0.4132625186016088,0.4259033522199143 l -9.750883167988498 9.299876345640588" fill="#ffa80f" stroke="none" /><path d="M 115.19652480421416 85.50635884689758 l 7.408229093231909 -7.065576863172105 a31.237393941194245,31.237393941194245 0 0,0 0.36775735994024233,0.39229791044386075 l -7.528753775142614 6.93700953585019" fill="#ff7d0b" stroke="none" /><path d="M 115.68641384162765 86.03803664274999 l 44.72428973269182 -39.807625932306976 a80.87411105361183,80.87411105361183 0 0,0 0.9166045931746809,1.0478375011239527 l -45.402886189444345 39.031872874980074" fill="#49efff" stroke="none" /><path d="M 116.38621287248628 86.86637796730983 l 1.1059222723482647 -0.8864015886760601 a22.417311486189043,22.417311486189043 0 0,0 0.23874001133048756,0.3031755699619812 l -1.1210163642727162 0.8672336247610405" fill="#ff0000" stroke="none" /><path d="M 116.60985879189232 87.15038557335679 l 6.3999331396432675 -4.951075998361517 a29.091495395379994,29.091495395379994 0 0,0 0.30300047513471523,0.39871310796081777 l -6.484209555002097 4.8401781145196665" fill="#ff5f08" stroke="none" /><path d="M 116.82858285166822 87.43820079747576 l 18.787570255352286 -14.0240974020969 a44.444575151691254,44.444575151691254 0 0,0 0.45235558956496597,0.6170125157991772 l -19.026188457430877 13.69862244262623" fill="#daff1c" stroke="none" /><path d="M 117.2510076193507 88.02491185347247 l 6.4756831693346495 -4.495208539284498 a28.882979913792774,28.882979913792774 0 0,0 0.27999371757283836,0.410856231128063 l -6.552101352576222 4.383074284886028" fill="#ff5c08" stroke="none" /><path d="M 117.45458315368197 88.32363383020206 l 14.48642948557521 -9.69079889661258 a38.4289478309831,38.4289478309831 0 0,0 0.3630682166343724,0.5529778026127352 l -14.651094337567507 9.44000303002217" fill="#ffdb14" stroke="none" /><line stroke="#e1ed5e" stroke-width="0.3" x1="172.23445277983987" x2="176.4835382374775" y1="55.19839476539836" y2="52.563006222186495" /><path d="M 173.08426987136738 54.67131705675599 a86.0,86.0 0 0,1 12.851231095245387,41.99856678651699" fill="none" id="id99" stroke="none" /><text fill="#e1ed5e" style="font-size:6.75px; font-family:Arial;" text-anchor="middle"><textPath startOffset="22.20632615414155" xlink:href="#id99">March</textPath></text><path d="M 117.84615892207809 88.93136811851018 l 22.72024961151318 -14.091664223290337 a47.73545853340514,47.73545853340514 0 0,0 0.42708278666618493,0.7020118074215492 l -22.959448196465587 13.698484642661706" fill="#b4ff20" stroke="none" /><path d="M 118.03404312379186 89.2402003453031 l 10.694331998584742 -6.3806473654140605 a33.45316817913092,33.45316817913092 0 0,0 0.29078820044844983,0.4970512949464952 l -10.802579873503518 6.1956166581136705" fill="#ff9a0e" stroke="none" /><path d="M 118.21658344932153 89.55222093294921 l 11.731467356522115 -6.728362616087948 a34.52398572280797,34.52398572280797 0 0,0 0.29122191728212243,0.5180512954301207 l -11.84554691509667 6.525427810723034" fill="#ffa90f" stroke="none" /><path d="M 118.56541770881063 90.18545643968196 l 26.59602939452973 -14.05989852306068 a51.083708648260995,51.083708648260995 0 0,0 0.40426811888276004,0.7809173297236622 l -26.834106946572607 13.600008471076672" fill="#8eff24" stroke="none" /><path d="M 118.89224826269711 90.83032412892265 l 9.306042573313649 -4.516846955066968 a31.344289960737946,31.344289960737946 0 0,0 0.23141311086954858,0.48741502919243074 l -9.382413878024954 4.3559895102339965" fill="#ff7e0b" stroke="none" /><path d="M 119.196687751892 91.48605970444005 l 11.510999999572487 -5.1052539899176885 a33.592328588935736,33.592328588935736 0 0,0 0.2298823664879703,0.5306001965846621 l -11.597173075903138 4.906354648746424" fill="#ff9c0e" stroke="none" /><path d="M 119.61058180528143 92.48833698450437 l 4.3504353566418255 -1.6663964738154788 a25.658665581501204,25.658665581501204 0 0,0 0.15443512355585856,0.4138093508169641 l -4.378475068699309 1.5912639859691815" fill="#ff2f04" stroke="none" /><path d="M 119.7369772167798 92.82701384747503 l 19.87637274184563 -7.223646502387004 a42.148315823351794,42.148315823351794 0 0,0 0.24194522007429592,0.6840117178437605 l -19.997771042729735 6.880437158116629" fill="#f5ff19" stroke="none" /><path d="M 119.97218684219823 93.5106431181261 l 14.344227605236478 -4.660722076189106 a36.0824134627819,36.0824134627819 0 0,0 0.18684593316598963,0.5923526683917711 l -14.422329022170674 4.413119241370916" fill="#ffbd11" stroke="none" /><path d="M 120.08093135843002 93.85539295169968 l 13.801864777578741 -4.2232620628124415 a35.433551669279446,35.433551669279446 0 0,0 0.1734457217137964,0.584772749131938 l -13.872516396404238 3.9850599269339737" fill="#ffb410" stroke="none" /><path d="M 120.18372546131832 94.20196356495316 l 20.01433430392759 -5.749376632167124 a41.823758289220564,41.823758289220564 0 0,0 0.19281395747768018,0.6936543933654017 l -20.110335031971633 5.40401093538277" fill="#f9ff18" stroke="none" /><path d="M 120.28053869075195 94.5502522615342 l 45.37110633908422 -12.192037299081605 a67.98066691666568,67.98066691666568 0 0,0 0.2939473294255431,1.1326989689387776 l -45.57425000038007 11.409241904593978" fill="#39ff8a" stroke="none" /><path d="M 120.37134235888165 94.90015583598534 l 10.376135350812762 -2.5976036523090262 a31.696341877150125,31.696341877150125 0 0,0 0.127943340138178,0.5304077446668084 l -10.41931149121176 2.4186106759828117" fill="#ff830c" stroke="none" /><path d="M 120.45610955862082 95.25157060432595 l 20.13394994832737 -4.673647230510508 a41.66927475643522,41.66927475643522 0 0,0 0.15617170537551214,0.7000871330043313 l -20.21141604070492 4.326381927956214" fill="#fbff18" stroke="none" /><path d="M 120.53481517161879 95.60439243477599 l 10.289337342655152 -2.202497986299216 a31.52242654194411,31.52242654194411 0 0,0 0.10900860999732241,0.53156469596681 l -10.32572524856747 2.025057634168994" fill="#ff810b" stroke="none" /><path d="M 120.6074358757038 95.95851677861258 l 11.281251704369428 -2.2124532986275893 a32.4961554276178,32.4961554276178 0 0,0 0.10292658352289023,0.5498379248388825 l -11.317664011802178 2.017937296326144" fill="#ff8e0d" stroke="none" /><path d="M 120.67395015179393 96.31383870115 l 6.02310042946224 -1.0739176373724562 a27.118091031951703,27.118091031951703 0 0,0 0.07798147793069989,0.460251097025353 l -6.040693768913163 0.9700807520312653" fill="#ff4406" stroke="none" /><path d="M 120.73433829027371 96.67025291283417 l 14.866952773533587 -2.387498072023206 a36.057437757281036,36.057437757281036 0 0,0 0.09313826171484592,0.6136647742533092 l -14.905846928687733 2.1312341853778145" fill="#ffbd11" stroke="none" /><path d="M 120.83666639777658 97.38593545837742 l 21.36410872312887 -2.6802348326918577 a42.53157681852506,42.53157681852506 0 0,0 0.08488016050786315,0.7272013797909029 l -21.40707923664032 2.312089714576102" fill="#f1ff19" stroke="none" /><path d="M 120.87857604477298 97.74499172005257 l 21.469150476025387 -2.3187937713307276 a42.59400904686722,42.59400904686722 0 0,0 0.07245621104148821,0.7296241571216575 l -21.505883812749104 1.9488940835046353" fill="#f0ff19" stroke="none" /><path d="M 120.94382443527127 98.46500227214037 l 11.468897164560575 -0.8405690729057267 a32.49965906179793,32.49965906179793 0 0,0 0.03608918294662474,0.5582836867338241 l -11.481666938511616 0.6430263219188673" fill="#ff8e0d" stroke="none" /><path d="M 120.96714384426684 98.82574320788733 l 13.10665007722565 -0.7340328749275296 a34.12718859879424,34.12718859879424 0 0,0 0.027799669431444133,0.5868070840574663 l -13.11734335489059 0.5083146842470635" fill="#ffa30f" stroke="none" /><line stroke="#e1ed5e" stroke-width="0.3" x1="184.98032266829074" x2="189.97916517819016" y1="98.17113171792111" y2="98.06355123074" /><path d="M 185.9800911702706 98.14961562048488 a86.0,86.0 0 0,1 -9.607161424134198,41.387399972396054" fill="none" id="id100" stroke="none" /><text fill="#e1ed5e" style="font-size:6.75px; font-family:Arial;" text-anchor="middle"><textPath startOffset="21.466115282336823" xlink:href="#id100">April</textPath></text><path d="M 120.99513854157772 99.54816195383933 l 1.4108921267658021 -0.0303639216592387 a22.411218821128834,22.411218821128834 0 0,0 0.004980618986739406,0.3857544293576673 l -1.411205752870257 0.006073234241108656" fill="#ff0000" stroke="none" /><path d="M 120.99980553446 99.90962569577887 l 61.443339029348415 -0.2644262112183964 a82.44390801614615,82.44390801614615 0 0,0 -0.006107533864984896,1.4191757775087663 l -61.43878719819393 -0.7932590444940547" fill="#4be0ff" stroke="none" /><path d="M 120.99824983174949 100.27111621757518 l 5.9123190572716595 0.07633615147685037 a26.9128118389646,26.9128118389646 0 0,0 -0.009967912545412185,0.46316972782505594 l -5.91012908204124 -0.17809569509202114" fill="#ff4106" stroke="none" /><path d="M 120.9764740272857 100.99374915477107 l 2.884491172350653 0.13665121510600078 a23.887726247059923,23.887726247059923 0 0,0 -0.022993243640610755,0.41055981119050466 l -2.8817115778225126 -0.18628274263192876" fill="#ff1602" stroke="none" /><path d="M 120.95626037817324 101.35467743843564 l 11.237591148723821 0.7264326228450516 a32.26104609622967,32.26104609622967 0 0,0 -0.04059275518813441,0.5538558934479427 l -11.223421834871347 -0.9197616527897645" fill="#ff8b0c" stroke="none" /><path d="M 120.89721153311464 102.0752229133903 l 14.392210000711772 1.4292358538110912 a35.463001895540465,35.463001895540465 0 0,0 -0.06555200549755787,0.6069301580125647 l -14.365475693713163 -1.6767623337084474" fill="#ffb510" stroke="none" /><path d="M 120.8583938346157 102.4346265915055 l 4.509224697988661 0.5263242435559687 a25.53983750659709,25.53983750659709 0 0,0 -0.054726387708457655,0.43622315580958404 l -4.499496801033356 -0.6038651536529478" fill="#ff2d04" stroke="none" /><path d="M 120.76222939487914 103.15116336523771 l 10.011859317282973 1.5195383741553885 a31.126515879590407,31.126515879590407 0 0,0 -0.08495796586017235,0.5290333345100046 l -9.984219597061513 -1.691650938358598" fill="#ff7b0b" stroke="none" /><path d="M 120.64145759157962 103.86396538481128 l 4.93217937854118 0.9232763871354447 a26.017851403653633,26.017851403653633 0 0,0 -0.08619350790387593,0.4394988398396251 l -4.91555593766164 -1.0080389540430148" fill="#ff3405" stroke="none" /><path d="M 120.5718875245553 104.21870165774334 l 9.458682845953485 1.939703440175941 a30.65552332171411,30.65552332171411 0 0,0 -0.11045617335917865,0.516014469180537 l -9.423892633869862 -2.102231728772647" fill="#ff750a" stroke="none" /><path d="M 120.49622156327973 104.57218783832717 l 3.3339432612641096 0.743718289039874 a24.4158885465982,24.4158885465982 0 0,0 -0.09503528152864923,0.40940950552102 l -3.320647413804908 -0.8009964519094589" fill="#ff1d03" stroke="none" /><path d="M 120.41448212921028 104.9243191809786 l 29.04938643921768 7.007204490072117 a50.88256627635403,50.88256627635403 0 0,0 -0.2127101723188371,0.8496714025302031 l -28.92446495260378 -7.506203731999716" fill="#90ff24" stroke="none" /><path d="M 120.32669344350535 105.2749913415812 l 4.709099115713339 1.2220608891001126 a25.865084510908346,25.865084510908346 0 0,0 -0.11554539683575306,0.429987405568514 l -4.687365642535808 -1.302939227844175" fill="#ff3204" stroke="none" /><path d="M 120.23288151984713 105.62410040840565 l 10.368134432912724 2.8820130756634708 a31.761236498992375,31.761236498992375 0 0,0 -0.1509526316286383,0.5254859138240916 l -10.316989164397986 -3.0600564649921442" fill="#ff840c" stroke="none" /><path d="M 120.02730092923936 106.31721596034902 l 7.292018550291347 2.3001230236575463 a28.646182084004582,28.646182084004582 0 0,0 -0.15238097702775558,0.4689804243770071 l -7.251345322247345 -2.4253023480123486" fill="#ff5908" stroke="none" /><path d="M 119.41010516605496 108.01547362559984 l 9.07519267599122 3.747633870055376 a30.818547842239752,30.818547842239752 0 0,0 -0.2067029630789216,0.4885847456503668 l -9.00933873171999 -3.9032931413719067" fill="#ff770b" stroke="none" /><path d="M 118.81262510543309 109.33194174019688 l 7.934931435570818 3.9360970334660252 a29.8575389778465,29.8575389778465 0 0,0 -0.2323504160318093,0.45844941392044025 l -7.86600234975274 -4.07210065908916" fill="#ff6a09" stroke="none" /><path d="M 118.64920377521936 109.65438752849418 l 5.086210098596665 2.6330477126557774 a26.727344360538183,26.727344360538183 0 0,0 -0.2150246567391655,0.4067456163928708 l -5.040132933632607 -2.7202083441347824" fill="#ff3e05" stroke="none" /><line stroke="#e1ed5e" stroke-width="0.3" x1="174.80103733775053" x2="179.2010983576182" y1="140.37084112569926" y2="142.7455964860345" /><path d="M 175.68104954172406 140.8457921977663 a86.0,86.0 0 0,1 -30.038265399797805,32.042727171017184" fill="none" id="id101" stroke="none" /><text fill="#e1ed5e" style="font-size:6.75px; font-family:Arial;" text-anchor="middle"><textPath startOffset="22.206326154141568" xlink:href="#id101">May</textPath></text><path d="M 117.14729908036423 112.12312394758627 l 6.04578162881214 4.27436179322608 a28.404163979996206,28.404163979996206 0 0,0 -0.2856920672977249,0.39680129414220644 l -5.971309769138813 -4.377796692819418" fill="#ff5607" stroke="none" /><path d="M 116.93607887273984 112.41649034213515 l 6.399974204483115 4.692067065640862 a28.9356892055146,28.9356892055146 0 0,0 -0.29795318005261784,0.399156975493282 l -6.3182597577354045 -4.801536920643459" fill="#ff5d08" stroke="none" /><path d="M 115.80600337817218 113.82643327865902 l 3.5320206193130277 3.08966449413899 a25.692674753442382,25.692674753442382 0 0,0 -0.29404795265968753,0.33036599199410277 l -3.478313817005002 -3.150004655873959" fill="#ff3004" stroke="none" /><path d="M 114.0293411484842 115.62618273729858 l 7.695215748991604 8.571097261375868 a32.518682810438584,32.518682810438584 0 0,0 -0.4197351261511654,0.37036744706210367 l -7.546538269933851 -8.702287850210261" fill="#ff8e0d" stroke="none" /><path d="M 111.1453310114006 117.79835938074945 l 7.493257262712341 11.966238199452564 a35.11877335504855,35.11877335504855 0 0,0 -0.5151101269627607,0.3164227118864495 l -7.286167935817271 -12.093449378167392" fill="#ffb010" stroke="none" /><line stroke="#e1ed5e" stroke-width="0.3" x1="143.8653032363475" x2="146.44561519142675" y1="172.8068346515853" y2="177.08958963109032" /><path d="M 144.38136562736335 173.6633856474863 a86.0,86.0 0 0,1 -40.68145358897372,12.25698825130547" fill="none" id="id102" stroke="none" /><text fill="#e1ed5e" style="font-size:6.75px; font-family:Arial;" text-anchor="middle"><textPath startOffset="21.466115282336833" xlink:href="#id102">June</textPath></text><path d="M 108.2653958097858 119.30500536409082 l 3.2075455013937133 7.491677898432757 a29.149453102961996,29.149453102961996 0 0,0 -0.46296069285133895,0.19351760715908362 l -3.078113349044913 -7.5457805486118135" fill="#ff6008" stroke="none" /><path d="M 105.18746579009965 120.34920634021253 l 7.948734206587736 31.18101189641812 a53.17822055943346,53.17822055943346 0 0,0 -0.8889542690757216,0.21848333118890007 l -7.410826652768804 -31.31321648592105" fill="#78ff26" stroke="none" /><path d="M 104.83641907484287 120.43548508189849 l 3.2816803074263365 13.866194787545336 a35.249237998093065,35.249237998093065 0 0,0 -0.5916498163611092,0.13465757195736333 l -3.0425103416723656 -13.920629093080382" fill="#ffb210" stroke="none" /><line stroke="#e1ed5e" stroke-width="0.3" x1="102.19456741930631" x2="102.32365962044197" y1="184.97166512339345" y2="189.96999836594603" /><path d="M 102.22038585953345 185.97133177190398 a86.0,86.0 0 0,1 -42.740103519485714,-10.115201625700543" fill="none" id="id103" stroke="none" /><text fill="#e1ed5e" style="font-size:6.75px; font-family:Arial;" text-anchor="middle"><textPath startOffset="22.20632615414155" xlink:href="#id103">July</textPath></text><path d="M 99.81925306533755 120.99922214144158 l -0.0849822255001128 9.873255304072984 a30.873621031721658,30.873621031721658 0 0,0 -0.5313795790400822,-0.0091481813497382 l 0.2549214944328629 -9.870329645444086" fill="#ff780b" stroke="none" /><path d="M 98.73552117531835 120.96189622390904 l -0.7528783780737706 12.48084042402262 a33.50352764391266,33.50352764391266 0 0,0 -0.5753628435079743,-0.03968039033564343 l 0.9676039823606749 -12.466031689170691" fill="#ff9b0e" stroke="none" /><path d="M 98.37488393609728 120.93702456842531 l -1.1041182745826723 14.22480028033776 a35.26758634737371,35.26758634737371 0 0,0 -0.6048486486927366,-0.05218888647959238 l 1.3488112410169506 -14.203687141579504" fill="#ffb210" stroke="none" /><path d="M 97.2962882734958 120.8252237178851 l -0.9063596204088352 6.98119613819788 a28.0397860252636,28.0397860252636 0 0,0 -0.4781069373755211,-0.06626126499990909 l 1.0263951489711876 -6.964560307705367" fill="#ff5107" stroke="none" /><path d="M 96.93821686468263 120.77559828337769 l -1.0265408064833685 6.965548660513613 a28.04078505348363,28.04078505348363 0 0,0 -0.47691251320793726,-0.07448392636187115 l 1.146289183299823 -6.946846426804635" fill="#ff5107" stroke="none" /><path d="M 96.22490169976321 120.6578951692458 l -2.6317168225300196 14.401142940186665 a35.63963289900658,35.63963289900658 0 0,0 -0.6025344706630191,-0.11547716534669115 l 2.8792189077647334 -14.353708576491506" fill="#ffb711" stroke="none" /><path d="M 95.51606077576429 120.51570834832081 l -5.686785558933575 26.019182716824158 a47.6333888051216,47.6333888051216 0 0,0 -0.799514750949569,-0.18196695431956683 l 6.1338204592760075 -25.917439028926903" fill="#b5ff20" stroke="none" /><path d="M 94.46302465271185 120.25689768951611 l -2.6815323169930347 9.810324660929384 a31.17020577569192,31.17020577569192 0 0,0 -0.516340146339465,-0.14592288293785063 l 2.8500036314371133 -9.762712984653012" fill="#ff7c0b" stroke="none" /><path d="M 93.08242187328487 119.8279376855182 l -5.29347449189991 15.172749832767273 a37.06963626483606,37.06963626483606 0 0,0 -0.6006701007378398,-0.21537892730604774 l 5.553864153267476 -15.079383364421268" fill="#ffca12" stroke="none" /><path d="M 92.7421414339146 119.70592522655815 l -7.068801066080602 19.19261225349701 a41.452978111387736,41.452978111387736 0 0,0 -0.6674517303634456,-0.25237313284915963 l 7.39812301720433 -19.06809087054122" fill="#feff18" stroke="none" /><path d="M 92.06813273071674 119.44442032107085 l -4.46062137530369 10.934902712056548 a32.80970958050865,32.80970958050865 0 0,0 -0.5210940262237704,-0.21781734522351368 l 4.648186861024923 -10.856500323813062" fill="#ff920d" stroke="none" /><path d="M 91.7346041902142 119.30500536409082 l -8.016504506723214 18.723684390325715 a41.36763858808479,41.36763858808479 0 0,0 -0.6521890416545436,-0.28590050979215914 l 8.3376142230355 -18.582919327239104" fill="#ffff18" stroke="none" /><path d="M 90.7491055286396 118.85261126421891 l -7.12010961636041 14.510235650340315 a37.16301022635929,37.16301022635929 0 0,0 -0.571861025399696,-0.2867429897755563 l 7.368824549442866 -14.385524819655457" fill="#ffcb12" stroke="none" /><path d="M 90.42595943632237 118.69057910512821 l -10.482771806876514 20.464617252694403 a43.993239529355634,43.993239529355634 0 0,0 -0.6710207070754095,-0.3510463195446847 l 10.833483416478419 -20.281141514205" fill="#dfff1b" stroke="none" /><line stroke="#e1ed5e" stroke-width="0.3" x1="58.666819895761336" x2="56.23545636021788" y1="174.27360380694188" y2="178.64263932499728" /><path d="M 58.180547188652646 175.14741091055294 a86.0,86.0 0 0,1 -31.652253787137756,-30.449443065178592" fill="none" id="id104" stroke="none" /><text fill="#e1ed5e" style="font-size:6.75px; font-family:Arial;" text-anchor="middle"><textPath startOffset="22.20632615414155" xlink:href="#id104">August</textPath></text><path d="M 89.7882731507175 118.34994917583269 l -7.704325217172358 13.844277099825904 a36.843630753988236,36.843630753988236 0 0,0 -0.5515162266007587,-0.3131653071532569 l 7.941490210694324 -13.709608626878014" fill="#ffc712" stroke="none" /><path d="M 89.4739219176387 118.17145234162733 l -11.207539424870207 19.34787742713119 a43.35954607981371,43.35954607981371 0 0,0 -0.642613516079209,-0.3796673922786239 l 11.538920811977798 -19.15209146255882" fill="#e7ff1a" stroke="none" /><path d="M 88.54995079064634 117.60387380957326 l -10.500723510430836 16.144333374203736 a40.258886113686415,40.258886113686415 0 0,0 -0.5776676660285776,-0.38284662978868655 l 10.777065875199376 -15.96118872332373" fill="#fff216" stroke="none" /><path d="M 87.95078237400918 117.19931262002967 l -4.041478411348889 5.768893284320153 a28.043697713223736,28.043697713223736 0 0,0 -0.39297589824135276,-0.28037786923797475 l 4.140181637439129 -5.698471153237958" fill="#ff5107" stroke="none" /><path d="M 87.36589467227662 116.77436683061367 l -9.708090247729833 12.889481511823671 a37.136472659838375,37.136472659838375 0 0,0 -0.5073041491045096,-0.38897918897466893 l 9.92852312532783 -12.720462981021637" fill="#ffca12" stroke="none" /><path d="M 86.51685102203217 116.09983520530335 l -9.217784879331465 11.006688256406179 a35.356696850436784,35.356696850436784 0 0,0 -0.4632308541787814,-0.3947753835099245 l 9.405881210087303 -10.846388482673303" fill="#ffb310" stroke="none" /><path d="M 85.70375840098266 115.38237550388516 l -8.756047296133023 9.421273871599542 a33.86191142932506,33.86191142932506 0 0,0 -0.42353860531027265,-0.4004821872676875 l 8.916921735834112 -9.269157047585924" fill="#ffa00e" stroke="none" /><path d="M 85.44109423537348 115.13401014063109 l -11.441066398591895 11.893010209367556 a37.50277831691105,37.50277831691105 0 0,0 -0.4613735506768572,-0.4515511255975545 l 11.644089901644547 -11.694308980847433" fill="#ffcf13" stroke="none" /><path d="M 84.43433777217949 114.09645910891817 l -22.021780239150743 19.94320062348139 a50.71010023560807,50.71010023560807 0 0,0 -0.5803678011940054,-0.652049377078289 l 22.361806889993087 -19.561177076662236" fill="#92ff23" stroke="none" /><path d="M 83.72743513129214 113.27417163493432 l -16.361706237909146 13.346887758305048 a42.115038334050645,42.115038334050645 0 0,0 -0.4534026571643686,-0.56568952865811 l 16.589026807128377 -13.063270396068678" fill="#f6ff19" stroke="none" /><path d="M 83.06392112726016 112.41649034213515 l -14.576894412040449 10.686881541201968 a39.07471404408544,39.07471404408544 0 0,0 -0.3930175815835949,-0.5458670465305295 l 14.758691785999652 -10.4343808892203" fill="#ffe315" stroke="none" /><path d="M 82.85270091963577 112.12312394758628 l -28.73074156461461 20.31260663626878 a56.18604125519755,56.18604125519755 0 0,0 -0.551530455928445,-0.7945207568500907 l 29.076132927705192 -19.815044617231678" fill="#58ff2a" stroke="none" /><line stroke="#e1ed5e" stroke-width="0.3" x1="26.63291911575756" x2="22.317208475507996" y1="142.92168965132927" y2="145.44649492493687" /><path d="M 25.769776987707644 143.4266507060508 a86.0,86.0 0 0,1 -11.730757126820373,-40.83630448921669" fill="none" id="id105" stroke="none" /><text fill="#e1ed5e" style="font-size:6.75px; font-family:Arial;" text-anchor="middle"><textPath startOffset="21.46611528233685" xlink:href="#id105">September</textPath></text><path d="M 81.51974371655577 109.97397251340807 l -21.358240783433953 11.527248499230168 a45.27039157751983,45.27039157751983 0 0,0 -0.36420567184281993,-0.6889398766355637 l 21.553498963501657 -11.157893607508479" fill="#d0ff1d" stroke="none" /><path d="M 81.35079622478065 109.6543875284942 l -6.248297213427481 3.2346411899791567 a28.035916549763463,28.035916549763463 0 0,0 -0.21817460839636024,-0.4304792005964867 l 6.303050491610108 -3.126607777679985" fill="#ff5107" stroke="none" /><path d="M 81.02952815118164 109.00673069616217 l -16.553123252234005 7.85903084021277 a39.32403490367407,39.32403490367407 0 0,0 -0.28505315621980065,-0.6139791389781766 l 16.685951025293633 -7.572931633955766" fill="#ffe615" stroke="none" /><path d="M 80.73074385275274 108.34839909993369 l -18.079695577422026 7.833022361228376 a40.70359437980181,40.70359437980181 0 0,0 -0.27300292049244895,-0.6452982602851328 l 18.21184947910678 -7.520649575277084" fill="#fff717" stroke="none" /><path d="M 80.58989483394504 108.01547362559985 l -13.302678692527556 5.493389618324018 a35.39231009585802,35.39231009585802 0 0,0 -0.22768612234963237,-0.5650982832687932 l 13.395267429134575 -5.26359196721242" fill="#ffb410" stroke="none" /><path d="M 80.32549172779594 107.34259656027581 l -13.846081233291411 5.1674068307210455 a35.77890587537139,35.77890587537139 0 0,0 -0.21037270682790482,-0.57885533770801 l 13.93297820112454 -4.928303696006918" fill="#ffb911" stroke="none" /><path d="M 80.20201598880116 107.00284435728193 l -24.752959738881813 8.755493707612045 a47.255812421228526,47.255812421228526 0 0,0 -0.26465318247444525,-0.7692060296794179 l 24.900003752299487 -8.32811497484333" fill="#b9ff1f" stroke="none" /><path d="M 79.86692584326677 105.97154293290107 l -28.67822188890431 8.506064792473941 a50.91309995575509,50.91309995575509 0 0,0 -0.2419762978351489,-0.8423512370721138 l 28.820390823625562 -8.011156079897232" fill="#90ff24" stroke="none" /><path d="M 79.67330655649465 105.27499134158121 l -28.752938723884498 7.461690866497863 a50.7053583692679,50.7053583692679 0 0,0 -0.2119693699731468,-0.8467122654038435 l 28.8771194081527 -6.965650761696628" fill="#92ff23" stroke="none" /><path d="M 79.50377843672027 104.57218783832718 l -14.087875509602785 3.1426481643949447 a35.43414264371947,35.43414264371947 0 0,0 -0.12767421262439618,-0.5964514164472015 l 14.139883760951623 -2.8996829285315795" fill="#ffb410" stroke="none" /><path d="M 79.10278846688536 102.07522291339032 l -25.97071460634222 2.579053283869834 a47.09845844116309,47.09845844116309 0 0,0 -0.0731717248271588,-0.807443886166219 l 26.011260927446454 -2.131628009155049" fill="#bbff1f" stroke="none" /><path d="M 79.07016306316243 101.71520430193888 l -22.486769451142795 1.8427952313103702 a43.562151817000725,43.562151817000725 0 0,0 -0.05481247442818267,-0.7478726648588195 l 22.51515848423531 -1.45544942995479" fill="#e4ff1a" stroke="none" /><line stroke="#e1ed5e" stroke-width="0.3" x1="15.007084014347285" x2="10.007500721073583" y1="101.09737516637583" y2="101.16192664675087" /><path d="M 14.007167355692545 101.11028546245083 a86.0,86.0 0 0,1 10.666146001902534,-42.60595125391555" fill="none" id="id106" stroke="none" /><text fill="#e1ed5e" style="font-size:6.75px; font-family:Arial;" text-anchor="middle"><textPath startOffset="22.20632615414155" xlink:href="#id106">October</textPath></text><path d="M 79.12142395522702 97.74499172005258 l -14.197890191720992 -1.5334551490225092 a35.280461147674146,35.280461147674146 0 0,0 0.07040912726521999,-0.6032224042789922 l 14.169390711452182 1.7776212916263632" fill="#ffb210" stroke="none" /><path d="M 79.16333360222342 97.38593545837743 l -4.650954555779511 -0.5834856285004625 a25.687412266762202,25.687412266762202 0 0,0 0.05881683598270494,-0.4382537454763889 l 4.640221720738972 0.6634577160415108" fill="#ff3004" stroke="none" /><path d="M 79.21141760316559 97.0276538004421 l -22.31630037824298 -3.190778926203443 a43.54325470574007,43.54325470574007 0 0,0 0.11247452134560806,-0.7410665657699388 l 22.25806996345807 3.5744446043654743" fill="#e4ff1a" stroke="none" /><path d="M 79.26566170972629 96.67025291283419 l -29.386849103538854 -4.719262020017808 a50.76337236012991,50.76337236012991 0 0,0 0.1459764552278099,-0.8615613020078947 l 29.30126078679082 5.22440911034153" fill="#92ff23" stroke="none" /><path d="M 79.62865764111835 94.90015583598534 l -9.091012347659067 -2.275880766687948 a30.371560103284285,30.371560103284285 0 0,0 0.13132614591426858,-0.5060532115141281 l 9.050489869874491 2.43203040375094" fill="#ff710a" stroke="none" /><path d="M 79.71946130924805 94.55025226153421 l -40.76939749197244 -10.955474860330327 a63.2157103608808,63.2157103608808 0 0,0 0.2914341462370685,-1.0484436840493725 l 40.57477657516901 11.655629847798641" fill="#33ff53" stroke="none" /><path d="M 80.02781315780177 93.51064311812611 l -30.856188740862127 -10.02578347258614 a53.444116844982666,53.444116844982666 0 0,0 0.2918117652106342,-0.8724800354772505 l 30.67903968187972 10.555436610985712" fill="#75ff27" stroke="none" /><path d="M 80.52162464483688 92.15188598940014 l -11.776632636893876 -4.744972509773277 a33.69660743595934,33.69660743595934 0 0,0 0.22140005007960042,-0.5361377825621934 l 11.693210899928076 4.946984862788781" fill="#ff9e0e" stroke="none" /><path d="M 80.65960295795068 91.81776055985345 l -17.716224783092954 -7.495109476582125 a40.23645722660564,40.23645722660564 0 0,0 0.27535012888003974,-0.6355460609938 l 17.584583944370234 7.798954682162524" fill="#fff116" stroke="none" /><path d="M 80.803312248108 91.48605970444005 l -14.031181301822656 -6.222981871865953 a36.34925249327113,36.34925249327113 0 0,0 0.2585949572670867,-0.5697797102774922 l 13.921984027592217 6.4635835909855155" fill="#ffc011" stroke="none" /><path d="M 81.26839172434947 90.50648371742162 l -56.19482482695157 -28.480548847735136 a84.0,84.0 0 0,0 0.6647622673595439,-1.284109110958658 l 55.69625312643191 29.44363068095413" fill="#4dd2ff" stroke="none" /><line stroke="#e1ed5e" stroke-width="0.3" x1="26.266209847984243" x2="21.928928074336255" y1="57.711370442889674" y2="55.22380399835377" /><path d="M 25.398753493254645 57.213857153982495 a86.0,86.0 0 0,1 29.58750427330803,-30.492523968695096" fill="none" id="id107" stroke="none" /><text fill="#e1ed5e" style="font-size:6.75px; font-family:Arial;" text-anchor="middle"><textPath startOffset="21.46611528233685" xlink:href="#id107">November</textPath></text><path d="M 81.78341655067845 89.55222093294921 l -7.397741352006003 -4.242835516108971 a29.528084798355096,29.528084798355096 0 0,0 0.2566698195885518,-0.43873192242127956 l 7.323611857947126 4.369546850884142" fill="#ff6509" stroke="none" /><path d="M 81.96595687620814 89.24020034530311 l -14.389724052163622 -8.585459556952575 a37.75632042249982,37.75632042249982 0 0,0 0.33780076772529444,-0.5552556434089443 l 14.23980748615211 8.831882973568593" fill="#ffd213" stroke="none" /><path d="M 82.15384107792192 88.93136811851018 l -24.372219189553583 -15.11625686636763 a49.6793704581124,49.6793704581124 0 0,0 0.4569849242086135,-0.7228404049311026 l 24.108406669099004 15.533544919012948" fill="#9eff22" stroke="none" /><path d="M 82.54541684631803 88.32363383020206 l -6.826401799393855 -4.5665694981135205 a29.212996926084195,29.212996926084195 0 0,0 0.2831929266021445,-0.41555067561691134 l 6.74678440712297 4.683398197000848" fill="#ff6109" stroke="none" /><path d="M 83.17141714833178 87.43820079747576 l -11.51641081024725 -8.596495700632602 a35.37106315765728,35.37106315765728 0 0,0 0.36840488249677394,-0.4847776414308331 l 11.366729987526366 8.793458117944462" fill="#ffb410" stroke="none" /><path d="M 83.39014120810768 87.1503855733568 l -4.987519518768522 -3.8584134618179506 a27.3057676291182,27.3057676291182 0 0,0 0.2908011193572154,-0.36928789026762976 l 4.920364318817336 3.9436937460386283" fill="#ff4606" stroke="none" /><path d="M 83.6137871275137 86.86637796730984 l -6.720887508872279 -5.386821039898025 a29.613255471818043,29.613255471818043 0 0,0 0.32222254903987824,-0.3950067450998245 l 6.627166467756008 5.501711954605932" fill="#ff6709" stroke="none" /><path d="M 84.07557802195018 86.31012108654704 l -47.24121782522511 -40.61224656334991 a83.29837263149571,83.29837263149571 0 0,0 0.9440804970009835,-1.0792472088876426 l 46.535145464646284 41.4194093284405" fill="#4cd8ff" stroke="none" /><path d="M 84.5562425177563 85.77008943001954 l -10.529702475817247 -9.702089969468537 a35.318002095435446,35.318002095435446 0 0,0 0.4157982971765502,-0.44354463273006844 l 10.36113685667024 9.881904019076655" fill="#ffb310" stroke="none" /><path d="M 84.80347519578584 85.50635884689758 l -13.614655629918714 -12.984938047703297 a39.81402306855102,39.81402306855102 0 0,0 0.4772672577191772,-0.4918658620559747 l 13.389124108496418 13.217368105309395" fill="#ffec16" stroke="none" /><path d="M 85.83668400450813 84.49514656593479 l -20.153176121912992 -22.062068099068213 a50.881187335993985,50.881187335993985 0 0,0 0.6517371586406376,-0.585136056030408 l 19.77042797567638 22.405703163867898" fill="#90ff24" stroke="none" /><path d="M 86.65592168130627 83.78471172551755 l -4.701384766261705 -5.712969262732602 a28.39871857265602,28.39871857265602 0 0,0 0.380132536947467,-0.30737407509888093 l 4.602348830749737 5.793049435095618" fill="#ff5607" stroke="none" /><path d="M 86.93701828274178 83.55741782278169 l -8.902886790133012 -11.206204741742399 a35.31224713005525,35.31224713005525 0 0,0 0.47918289696336896,-0.37400985175307394 l 8.708671338010218 11.357792982718694" fill="#ffb310" stroke="none" /><path d="M 87.80319425747018 82.90503203632743 l -35.59108762411991 -49.88424966096038 a82.27939198870047,82.27939198870047 0 0,0 1.1600174200878028,-0.8126663346011195 l 34.727139064448444 50.48950083832544" fill="#4be2ff" stroke="none" /><path d="M 88.70189139769569 82.29822771554957 l -1.0449640985057547 -1.6372401052510839 a22.94229378040721,22.94229378040721 0 0,0 0.3347180673793426,-0.20960042308585078 l 1.0166268787541697 1.654984869659865" fill="#ff0801" stroke="none" /><path d="M 89.00827224532344 82.1063720568725 l -3.1110018317882093 -5.064454883784956 a26.94365507640567,26.94365507640567 0 0,0 0.3972751279239333,-0.2393538194324268 l 3.023364637646627 5.117255312676002" fill="#ff4106" stroke="none" /><line stroke="#e1ed5e" stroke-width="0.3" x1="56.762969772571076" x2="54.21961505331055" y1="26.818313649435495" y2="22.513508569990535" /><path d="M 56.25429882871897 25.957352633546506 a86.0,86.0 0 0,1 42.265352541879196,-11.944610805530505" fill="none" id="id108" stroke="none" /><text fill="#e1ed5e" style="font-size:6.75px; font-family:Arial;" text-anchor="middle"><textPath startOffset="22.20632615414155" xlink:href="#id108">December</textPath></text><path d="M 89.94658935756843 81.56283822128135 l -6.611012774708448 -12.124075737444935 a34.80937009405785,34.80937009405785 0 0,0 0.528530480081896,-0.2823226782900881 l 6.401337248098248 12.236077142236772" fill="#ffac10" stroke="none" /><path d="M 90.58718382345135 81.22770947309562 l -5.576697365963116 -11.121791945252603 a33.44161603591051,33.44161603591051 0 0,0 0.5167983467265648,-0.2535907043081468 l 5.3844277522261255 11.21613780969558" fill="#ff9a0e" stroke="none" /><path d="M 90.91171255644093 81.06846463323043 l -12.853159940003442 -26.774026843899026 a50.699364199947695,50.699364199947695 0 0,0 0.7899969828323562,-0.37091417614283534 l 12.390384745871476 26.991306002681867" fill="#92ff23" stroke="none" /><path d="M 91.23893434514133 80.91482961587045 l -3.429168796198183 -7.470126732252925 a29.219610211484426,29.219610211484426 0 0,0 0.45891190186563807,-0.2059003934062534 l 3.3000747758657707 7.528047456175707" fill="#ff6109" stroke="none" /><path d="M 92.57280143429618 80.3572730644239 l -5.9621811350649345 -15.768192399932945 a37.85774289306333,37.85774289306333 0 0,0 0.6115245474135705,-0.22522965168036932 l 5.689874261878795 15.868485319419635" fill="#ffd413" stroke="none" /><path d="M 92.91201910852362 80.23233633223022 l -1.5818002803127893 -4.411481409100435 a25.68649766346217,25.68649766346217 0 0,0 0.41748875738695296,-0.1456536298456715 l 1.505629518862551 4.438055892118316" fill="#ff2f04" stroke="none" /><path d="M 93.25333710446033 80.11325718540243 l -10.006522320227738 -29.495639389728453 a52.146801311757784,52.146801311757784 0 0,0 0.8525186978780243,-0.2810620110605505 l 9.497320800107305 29.663515125048235" fill="#83ff25" stroke="none" /><path d="M 94.28887869178378 79.79150937346287 l -2.112339510541338 -7.474397915069197 a28.767148923548767,28.767148923548767 0 0,0 0.4776745500312845,-0.1305664987842157 l 1.983367071286331 7.509650954679708" fill="#ff5b08" stroke="none" /><path d="M 94.63758080256005 79.69619591428918 l -11.4984764943202 -43.53684511205033 a66.02967736949816,66.02967736949816 0 0,0 1.1014099555015455,-0.2807739215729907 l 10.747357650133655 43.72832202979218" fill="#37ff73" stroke="none" /><path d="M 96.04723909329186 79.375362276772 l -0.9907524337368558 -5.1695284641555705 a26.26361234578214,26.26361234578214 0 0,0 0.4447366041724959,-0.08127277172769116 l 0.9016207084614666 5.1858167172339975" fill="#ff3805" stroke="none" /><path d="M 96.75951476605007 79.25152402106235 l -1.4581257513950154 -9.336221257892467 a30.44939987952698,30.44939987952698 0 0,0 0.5185547582976673,-0.07642149179235234 l 1.2972020126686994 9.35993723384579" fill="#ff720a" stroke="none" /><path d="M 97.83486435360386 79.11191278185805 l -1.7640850201083214 -17.018962216789596 a38.110145262232066,38.110145262232066 0 0,0 0.6530896991818285,-0.06201873632305489 l 1.4708701938362567 17.046806497627834" fill="#ffd714" stroke="none" /><path d="M 98.19473922651362 79.07773832637324 l -1.3921061921801396 -16.133962726071918 a37.19390974708036,37.19390974708036 0 0,0 0.6383357128009365,-0.04954713682669398 l 1.114180290016869 16.155535125087074" fill="#ffcb12" stroke="none" /><path d="M 98.55514903715128 79.0497635885617 l -1.128792890480785 -16.36741679466865 a37.406294704167706,37.406294704167706 0 0,0 0.6427433686453874,-0.03877203525268996 l 0.8468874729957744 16.384422099301645" fill="#ffce13" stroke="none" /><path d="M 99.27714615592234 79.0124445844662 l -0.9805290193306238 -28.468973774357522 a49.485854470645705,49.485854470645705 0 0,0 0.8515652257292275,-0.02199341741845132 l 0.4903371584065172 28.481633983918336" fill="#a0ff22" stroke="none" /></svg>