<?xml version="1.0" encoding="utf-8" ?>
<svg baseProfile="full" height="200mm" version="1.1" viewBox="0,0,200,200" width="200mm" xmlns="http://www.w3.org/2000/svg" xmlns:ev="http://www.w3.org/2001/xml-events" xmlns:xlink="http://www.w3.org/1999/xlink"><defs /><rect fill="#1a1a1a" height="200" width="200" x="0" y="0" /><text alignment-baseline="middle" fill="#e1ed5e" style="dominant-baseline: central; font-size:9.0px; font-family:Arial;" text-anchor="middle" x="100.0" y="100.0">2021</text><line stroke="#e1ed5e" stroke-width="0.3" x1="100.0" x2="100.0" y1="15.0" y2="10.0" /><path d="M 100.0 14.0 a86.0,86.0 0 0,1 42.46469731375804,11.215312516191453" fill="none" id="id73" stroke="none" /><text fill="#e1ed5e" style="font-size:6.75px; font-family:Arial;" text-anchor="middle"><textPath startOffset="22.20632615414155" xlink:href="#id73">January</textPath></text><path d="M 100.0 79.0 l 0.0 -28.738822092771798 a49.7388220927718,49.7388220927718 0 0,0 0.8561720594545796,0.007369343218891489 l -0.4946915801820513 28.734564126161466" fill="#9eff22" stroke="none" /><path d="M 100.36148047927253 79.00311137660856 l 0.09629589568001926 -5.593425682493682 a26.5942545316695,26.5942545316695 0 0,0 0.4576407259330258,0.011819509779193594 l -0.19256325680791286 5.590939380572128" fill="#ff3a05" stroke="none" /><path d="M 100.72285384407766 79.0124445844662 l 0.16969954557742178 -4.927107527997599 a25.930029059571535,25.930029059571535 0 0,0 0.4459460814893,0.019203376341430156 l -0.2544864594560533 4.923456425131974" fill="#ff3104" stroke="none" /><path d="M 101.08401301168833 79.027996857942 l 0.29105936380901914 -5.631019025150941 a26.63853622980936,26.63853622980936 0 0,0 0.4577235635750561,0.027611135343679545 l -0.3879449762236872 5.625174620426957" fill="#ff3b05" stroke="none" /><path d="M 101.44485096284872 79.0497635885617 l 0.16655229345728975 -2.4149964339005785 a23.420732831645903,23.420732831645903 0 0,0 0.40195532784993804,0.031199469539015 l -0.20809781066956898 2.4117717021730987" fill="#ff0c01" stroke="none" /><path d="M 101.80526077348638 79.07773832637324 l 1.0823623932996487 -12.544154036302768 a33.590762837768025,33.590762837768025 0 0,0 0.5756415003420722,0.054664096633357584 l -1.2981290207319651 12.523664395154231" fill="#ff9b0e" stroke="none" /><path d="M 102.16513564639614 79.11191278185805 l 0.9054944517415231 -8.735733077510865 a29.782536797739713,29.782536797739713 0 0,0 0.5094704224616642,0.05724493814607186 l -1.0557315777129126 8.718852185894193" fill="#ff6709" stroke="none" /><path d="M 102.52436894288641 79.15227682838746 l 0.6015008484784494 -4.96754771599686 a26.003831889804644,26.003831889804644 0 0,0 0.4439043207072832,0.057631520967114484 l -0.6869198976935788 4.9564578718656085" fill="#ff3204" stroke="none" /><path d="M 102.88285421437855 79.19881850522331 l 1.1570243704514256 -8.348488037862127 a29.428283212620798,29.428283212620798 0 0,0 0.5011650918839928,0.07385870699896557 l -1.3005584427640742 8.327334846702193" fill="#ff6209" stroke="none" /><path d="M 103.2404852339499 79.25152402106235 l 0.6195304666056538 -3.9667864768879113 a25.014873964681012,25.014873964681012 0 0,0 0.42486071215803617,0.07010565785313166 l -0.6877203849025652 3.9555345560951554" fill="#ff2403" stroke="none" /><path d="M 103.59715602781102 79.31037775812273 l 1.5094451095104089 -8.681816654370612 a29.812057929832953,29.812057929832953 0 0,0 0.5048244404672168,0.09225343973876632 l -1.6586646710805266 8.654547733281108" fill="#ff6709" stroke="none" /><path d="M 103.95276090670814 79.375362276772 l 2.8061161102032357 -14.64169717020757 a35.908171707087575,35.908171707087575 0 0,0 0.6060505822673349,0.12156804537496398 l -3.057733101937696 14.591225168755397" fill="#ffb911" stroke="none" /><path d="M 104.307194497241 79.44645832069477 l 2.7580147087774662 -13.16099616706551 a34.44687566847206,34.44687566847206 0 0,0 0.5792935605952244,0.1266111349702776 l -2.9841509935262187 13.111571533999363" fill="#ffa60f" stroke="none" /><path d="M 104.66035177308747 79.52364482259891 l 2.27005119485584 -9.974005568673503 a31.229072270308606,31.229072270308606 0 0,0 0.523126090610955,0.12380704412149691 l -2.4414009724293186 9.933452612411138" fill="#ff7b0b" stroke="none" /><path d="M 105.01212808612495 79.60689891045804 l 3.611018754314649 -14.692336115038119 a36.1295801977869,36.1295801977869 0 0,0 0.6026605142298231,0.15363158387328443 l -3.863388157229497 14.628001534995967" fill="#ffbc11" stroke="none" /><path d="M 105.36241919743992 79.69619591428918 l 0.6709103336457077 -2.5402773397358844 a23.627380756298603,23.627380756298603 0 0,0 0.3923294067541142,0.10723844719509916 l -0.7145376296235327 2.5283523517144917" fill="#ff1001" stroke="none" /><path d="M 105.71112130821622 79.79150937346287 l 4.98972063832613 -17.655853781916367 a39.347383595950355,39.347383595950355 0 0,0 0.6501870007039775,0.18980741480697927 l -5.292897856753535 17.567348038190683" fill="#ffe515" stroke="none" /><path d="M 106.0581310904928 79.89281104454417 l 12.033571474807314 -39.9399240192493 a62.71335964775198,62.71335964775198 0 0,0 1.0309318608027325,0.3203155474705645 l -12.719288708320764 39.72686833689621" fill="#32ff4c" stroke="none" /><path d="M 106.40334571778207 80.00007090966166 l 17.995778566024615 -56.2072252707584 a80.01779578089284,80.01779578089284 0 0,0 1.308165896089463,0.4312817284487744 l -18.960627284356494 55.889129818050385" fill="#48f7ff" stroke="none" /><path d="M 106.74666289553966 80.11325718540242 l 15.497254892687348 -45.68034999746134 a69.23752984035862,69.23752984035862 0 0,0 1.1253340442247854,0.3926069515168443 l -16.281270940975407 45.40682219277229" fill="#3aff97" stroke="none" /><path d="M 107.08798089147638 80.2323363322302 l 19.240596197688806 -53.66008179574253 a78.00530607205171,78.00530607205171 0 0,0 1.2600370715790334,0.46408228735283796 l -20.161415595040417 53.320936240583364" fill="#45fff3" stroke="none" /><path d="M 107.4271985657038 80.35727306442388 l 15.729245258378244 -41.59916646630701 a65.47358549847017,65.47358549847017 0 0,0 1.0507476457532436,0.40767376220814594 l -16.442976069131152 41.32225000020832" fill="#36ff6c" stroke="none" /><path d="M 107.76421540070413 80.48803036053334 l 5.741125398183197 -14.427815134490258 a36.528115481045674,36.528115481045674 0 0,0 0.5822166411925774,0.23750078653170734 l -5.988625908964162 14.326853461774972" fill="#ffc111" stroke="none" /><path d="M 108.09893153111575 80.62456947434976 l 15.43835880713955 -36.933865578264 a61.03065511843714,61.03065511843714 0 0,0 0.965784665169252,0.41349859138054057 l -16.071827230099117 36.66264745892067" fill="#30ff38" stroke="none" /><path d="M 108.76106565485865 80.91482961587045 l 13.042673070793285 -28.412255726281757 a52.26287888674405,52.26287888674405 0 0,0 0.8143596529501363,0.3823527764308736 l -13.52981093504302 28.183537967210878" fill="#82ff25" stroke="none" /><path d="M 109.08828744355905 81.06846463323043 l 3.7497634650001195 -7.811018312914442 a29.66445226936674,29.66445226936674 0 0,0 0.45842700522890995,0.22494814053920129 l -3.8836617372394615 7.745315012240408" fill="#ff6509" stroke="none" /><path d="M 109.41281617654863 81.2277094730956 l 9.183172898276611 -18.314305344105083 a41.48766567271045,41.48766567271045 0 0,0 0.6356295868865992,0.3255941623904127 l -9.497062972751966 18.15351865640217" fill="#ffff18" stroke="none" /><path d="M 109.73455568895987 81.39251694778311 l 10.290765641944496 -19.67067151241273 a43.19989133411853,43.19989133411853 0 0,0 0.6559285400629704,0.35037430985775736 l -10.627839228535779 19.49061847605322" fill="#eaff1a" stroke="none" /><path d="M 110.05341064243156 81.56283822128135 l 14.952465297594221 -27.421641419766367 a52.23335775465081,52.23335775465081 0 0,0 0.7856790219798383,0.4372295250951517 l -15.422268408646094 27.160196497111038" fill="#83ff25" stroke="none" /><path d="M 110.36928655335952 81.73862282372117 l 0.9740226607426586 -1.7153538090141407 a22.97260204647048,22.97260204647048 0 0,0 0.34218595161474535,0.19821618975015673 l -1.0034053448227322 1.6983334618739345" fill="#ff0601" stroke="none" /><line stroke="#e1ed5e" stroke-width="0.3" x1="143.23703022742887" x2="145.7803849466894" y1="26.81831364943548" y2="22.513508569990506" /><path d="M 143.74570117128098 25.957352633546492 a86.0,86.0 0 0,1 28.547481713284135,27.462654790039103" fill="none" id="id74" stroke="none" /><text fill="#e1ed5e" style="font-size:6.75px; font-family:Arial;" text-anchor="middle"><textPath startOffset="19.985693538727396" xlink:href="#id74">February</textPath></text><path d="M 110.68208982089419 81.91981866633111 l 10.874379145567634 -18.405644414106966 a42.37802301664266,42.37802301664266 0 0,0 0.6248496897454587,0.37646494658074087 l -11.18959090153073 18.21573285806761" fill="#f4ff19" stroke="none" /><path d="M 110.99172775467656 82.1063720568725 l 4.025199444665205 -6.5526933405968455 a28.69025491028973,28.69025491028973 0 0,0 0.41857831514620975,0.2621137025441081 l -4.137396912183678 6.482435296729793" fill="#ff5808" stroke="none" /><path d="M 111.2981086023043 82.29822771554956 l 5.392116129314236 -8.448317785949193 a31.022424345655907,31.022424345655907 0 0,0 0.44765797699267934,0.29116920065278235 l -5.536741132091196 8.354249661136883" fill="#ff780b" stroke="none" /><path d="M 111.60114157652 82.49532879139004 l 9.120537490786454 -13.761749994081887 a37.50969312314599,37.50969312314599 0 0,0 0.5351299035212267,0.3613220996259489 l -9.356072088714221 13.60271598215727" fill="#ffce13" stroke="none" /><path d="M 111.90073688211348 82.69761687909136 l 10.280386765337312 -14.946569460948853 a39.14073567129766,39.14073567129766 0 0,0 0.5518263336218401,0.3865896115998781 l -10.536144238542803 14.767395006585039" fill="#ffe215" stroke="none" /><path d="M 112.19680574252982 82.90503203632743 l 12.653660615206812 -17.735292945255907 a42.786595484813134,42.786595484813134 0 0,0 0.59586382127664,0.43292040705726187 l -12.95706975283724 17.514853303381972" fill="#efff19" stroke="none" /><path d="M 112.48926042617603 83.11751280151076 l 13.360880869795585 -18.06070916514049 a43.46558152295772,43.46558152295772 0 0,0 0.5976597068515526,0.45014490041545097 l -13.669786730405521 17.828047675219192" fill="#e7ff1a" stroke="none" /><path d="M 113.06298171725822 83.55741782278167 l 7.576790096842069 -9.53702581105718 a33.18041910167195,33.18041910167195 0 0,0 0.4441382401755155,0.359128902477659 l -7.739831735582076 9.405190811315393" fill="#ff950d" stroke="none" /><path d="M 113.89432698308785 84.25364557470407 l 19.38571144037308 -21.96970630518368 a50.29972360254341,50.29972360254341 0 0,0 0.6442891893353725,0.5784491956497428 l -19.761011617304444 21.63275810076464" fill="#98ff23" stroke="none" /><path d="M 114.16331599549186 84.49514656593476 l 15.958136837551145 -17.46967820429507 a44.66118737273405,44.66118737273405 0 0,0 0.5631395388886244,0.5233768282329059 l -16.256484260234615 17.192396789987527" fill="#d8ff1c" stroke="none" /><path d="M 114.42810811169701 84.74124197986012 l 21.684638951278504 -22.93305927222782 a52.56182463088627,52.56182463088627 0 0,0 0.6520588601262568,0.6272801068159013 l -22.07618105501718 22.556396078649616" fill="#7fff26" stroke="none" /><path d="M 114.68862486808459 84.99185889309783 l 9.559610517177214 -9.767557198669929 a34.66716235615184,34.66716235615184 0 0,0 0.42288028121110255,0.4210642988926713 l -9.72632659855564 9.60155704912714" fill="#ffa90f" stroke="none" /><path d="M 115.19652480421416 85.50635884689758 l 11.888393326741312 -11.338520417309072 a37.42851000988958,37.42851000988958 0 0,0 0.4406452744952541,0.4700496557282734 l -12.08180592320703 11.132201344702745" fill="#ffcd13" stroke="none" /><path d="M 115.4437574822437 85.77008943001954 l 1.1832136977803818 -1.0902155854201239 a22.608901699081727,22.608901699081727 0 0,0 0.2612473226651951,0.2884758187221765 l -1.2018046610616124 1.0696869794283983" fill="#ff0100" stroke="none" /><path d="M 115.9244219780498 86.31012108654704 l 6.290478908906452 -5.4077877796293645 a29.295438118201208,29.295438118201208 0 0,0 0.32544356124863244,0.3852225263350281 l -6.382633083642201 5.29870630366523" fill="#ff6008" stroke="none" /><path d="M 116.15771136456269 86.58626213691792 l 4.077162414639767 -3.384760788284371 a26.299043210737068,26.299043210737068 0 0,0 0.28616052526671915,0.3507989679756215 l -4.134821431982895 3.3140776507006486" fill="#ff3605" stroke="none" /><path d="M 116.38621287248628 86.86637796730983 l 12.081971259470915 -9.683753358175437 a36.48383378290581,36.48383378290581 0 0,0 0.3885457404683317,0.493413632957064 l -12.24687108053321 9.474347331265335" fill="#ffc011" stroke="none" /><path d="M 116.60985879189232 87.15038557335679 l 11.779878856299343 -9.113075745707077 a35.89341114104096,35.89341114104096 0 0,0 0.3738453620939768,0.49193667485490045 l -11.935000158617433 8.908954294971142" fill="#ffb911" stroke="none" /><path d="M 116.82858285166822 87.43820079747576 l 3.9980476249878025 -2.9843672464819093 a25.989071323758022,25.989071323758022 0 0,0 0.2645160099017652,0.3607995402369368 l -4.048826247403194 2.915105262573479" fill="#ff3204" stroke="none" /><path d="M 117.04232023915458 87.72973835380427 l 12.740901537697416 -9.173292913296422 a36.699677540205556,36.699677540205556 0 0,0 0.3647028361860846,0.5158462979160553 l -12.896916993687384 8.952620115048575" fill="#ffc312" stroke="none" /><path d="M 117.2510076193507 88.02491185347247 l 6.662503160442603 -4.624892898042867 a29.11039966224076,29.11039966224076 0 0,0 0.2821983412303517,0.414091244309193 l -6.741125967341688 4.509523630463267" fill="#ff5e08" stroke="none" /><path d="M 117.45458315368197 88.32363383020206 l 4.142610499065567 -2.7712284309542716 a25.984067491868217,25.984067491868217 0 0,0 0.2454917341654009,0.37390075335369155 l -4.189698868588892 2.6995096136229058" fill="#ff3204" stroke="none" /><path d="M 117.65298651832404 88.62581576622439 l 32.06599102767393 -20.66078106436948 a59.14571607371755,59.14571607371755 0 0,0 0.5440628640816303,0.8605767939977182 l -32.416881488001515 20.105756622657555" fill="#3bff2e" stroke="none" /><line stroke="#e1ed5e" stroke-width="0.3" x1="172.23445277983987" x2="176.4835382374775" y1="55.19839476539836" y2="52.563006222186495" /><path d="M 173.08426987136738 54.67131705675599 a86.0,86.0 0 0,1 12.851231095245387,41.99856678651699" fill="none" id="id75" stroke="none" /><text fill="#e1ed5e" style="font-size:6.75px; font-family:Arial;" text-anchor="middle"><textPath startOffset="22.20632615414155" xlink:href="#id75">March</textPath></text><path d="M 117.84615892207809 88.93136811851018 l 23.871091790485398 -14.805445182451034 a49.089681919173486,49.089681919173486 0 0,0 0.43919884284605226,0.7219274180787819 l -24.122406431617673 14.39234999116517" fill="#a5ff21" stroke="none" /><path d="M 118.03404312379186 89.2402003453031 l 31.431068835496863 -18.752977426163817 a57.600358611466525,57.600358611466525 0 0,0 0.5006851529315708,0.8558332258369596 l -31.74921366289876 18.209164787972963" fill="#4bff2c" stroke="none" /><path d="M 118.21658344932153 89.55222093294921 l 6.6598592961313665 -3.8196371310349315 a28.67745749952731,28.67745749952731 0 0,0 0.24190440300963212,0.4303209405354842 l -6.724621340433432 3.7044326805646537" fill="#ff5808" stroke="none" /><path d="M 118.3937258080291 89.86733742301442 l 7.2433578598279125 -3.99019219292456 a29.269695691015897,29.269695691015897 0 0,0 0.23930331849941092,0.44339270530400704 l -7.310969277545788 3.864918504288094" fill="#ff6008" stroke="none" /><path d="M 118.56541770881063 90.18545643968196 l 27.56909911758909 -14.574308450915975 a52.18438219650812,52.18438219650812 0 0,0 0.412978669401277,0.7977433408128918 l -27.815887220150483 14.097592387842738" fill="#83ff25" stroke="none" /><path d="M 118.73160827565052 90.50648371742162 l 21.008145255387262 -10.647306206378838 a44.55222487417789,44.55222487417789 0 0,0 0.3408032774611802,0.6870386112638613 l -21.188308545801853 10.284108006616027" fill="#daff1c" stroke="none" /><path d="M 118.89224826269711 90.83032412892265 l 28.46006834738036 -13.813581019336496 a52.63527320753426,52.63527320753426 0 0,0 0.3886032297966062,0.818497508131075 l -28.693629771018724 13.32164109556488" fill="#7eff26" stroke="none" /><path d="M 119.04729006885535 91.15688171328212 l 4.456716957084325 -2.069127685851769 a25.913615310127692,25.913615310127692 0 0,0 0.18435400411601027,0.4061996110203524 l -4.491673278163682 1.992106065989354" fill="#ff3104" stroke="none" /><path d="M 119.196687751892 91.48605970444005 l 8.1149340807121 -3.599061731822876 a29.877240589494836,29.877240589494836 0 0,0 0.20445890652265475,0.4719193457584433 l -8.175683697077435 3.45884324147783" fill="#ff6809" stroke="none" /><path d="M 119.34039704204932 91.81776055985345 l 4.5286291636047205 -1.9159031777725128 a25.917231648809114,25.917231648809114 0 0,0 0.17028647159439705,0.41236219796759965 l -4.560937322085315 1.83766640935161" fill="#ff3104" stroke="none" /><path d="M 119.47837535516314 92.15188598940014 l 11.252036219483228 -4.533605164277508 a33.13103024767996,33.13103024767996 0 0,0 0.20857789989560832,0.530808004555228 l -11.328407669260537 4.339248154826495" fill="#ff940d" stroke="none" /><path d="M 119.61058180528143 92.48833698450437 l 9.179266811930125 -3.516038417685922 a30.829621831954938,30.829621831954938 0 0,0 0.18555822560901059,0.4972037908865942 l -9.23842962604076 3.357511489769994" fill="#ff750a" stroke="none" /><path d="M 119.85752413597 93.16781622104841 l 14.23106380088038 -4.896342695687755 a36.049828859437,36.049828859437 0 0,0 0.1968367112422662,0.5885167127648763 l -14.313237805894417 4.650652880000565" fill="#ffbb11" stroke="none" /><path d="M 119.97218684219823 93.5106431181261 l 56.45350765266675 -18.342856557786536 a80.35873072252502,80.35873072252502 0 0,0 0.4161224427343796,1.3192218591797478 l -56.76088557916934 17.368384532180368" fill="#48f4ff" stroke="none" /><path d="M 120.08093135843002 93.85539295169968 l 21.17333300055199 -6.478873358460261 a43.14239892936694,43.14239892936694 0 0,0 0.21118019973301574,0.7119946501988834 l -21.28171909739671 6.113449321514847" fill="#ebff1a" stroke="none" /><path d="M 120.18372546131832 94.20196356495316 l 18.292343393957324 -5.254712450573813 a40.032126254853125,40.032126254853125 0 0,0 0.18455425827749597,0.6639398606986071 l -18.380084422801183 4.939061286456255" fill="#ffed16" stroke="none" /><path d="M 120.37134235888165 94.90015583598534 l 4.775770813623884 -1.1955857637389555 a25.92315063579381,25.92315063579381 0 0,0 0.10463966132443807,0.4337989512064667 l -4.795643275209142 1.1132015808730826" fill="#ff3104" stroke="none" /><path d="M 120.45610955862082 95.25157060432595 l 21.6042482951807 -5.014944184880165 a43.17866564014349,43.17866564014349 0 0,0 0.16182873084007385,0.7254464689307385 l -21.68737141302281 4.642319546399463" fill="#eaff1a" stroke="none" /><path d="M 120.6074358757038 95.95851677861258 l 7.447407486336041 -1.460568533630548 a28.589277877964793,28.589277877964793 0 0,0 0.09055214866631917,0.4837331990264511 l -7.471445358912219 1.332157257141534" fill="#ff5608" stroke="none" /><path d="M 120.67395015179393 96.31383870115 l 2.9833962496079836 -0.5319389721700037 a24.030447533333692,24.030447533333692 0 0,0 0.0691025711130462,0.4078472863814641 l -2.9921106822412527 0.4805058974727018" fill="#ff1502" stroke="none" /><path d="M 120.87857604477298 97.74499172005257 l 18.826398300443532 -2.0333610854518396 a39.935887364229146,39.935887364229146 0 0,0 0.06793450881338237,0.6840912327592757 l -18.858609934939143 1.7089943219881287" fill="#ffec16" stroke="none" /><path d="M 120.91429891909075 98.10471618934814 l 8.528233655043506 -0.7728407843069611 a29.56318002572087,29.56318002572087 0 0,0 0.041565150009362443,0.5072001107785004 l -8.540273288872363 0.6259267563206921" fill="#ff6409" stroke="none" /><path d="M 120.94382443527127 98.46500227214037 l 12.51424386248383 -0.9171837719592325 a33.547809590572356,33.547809590572356 0 0,0 0.03725309965469279,0.5762889630459082 l -12.528177553142939 0.7016357446602891" fill="#ff9a0e" stroke="none" /><path d="M 120.96714384426684 98.82574320788733 l 14.884920384385333 -0.833624216595437 a35.908245509917805,35.908245509917805 0 0,0 0.029250500730497387,0.617431839727898 l -14.897064493349328 0.5772812702445391" fill="#ffb911" stroke="none" /><path d="M 120.98425023603335 99.18683210126433 l 15.433636400620642 -0.5980741527849488 a36.44522014212785,36.44522014212785 0 0,0 0.01889650916851271,0.6270831438580243 l -15.4416446042448 0.3323208615019254" fill="#ffc011" stroke="none" /><line stroke="#e1ed5e" stroke-width="0.3" x1="184.98032266829074" x2="189.97916517819016" y1="98.17113171792111" y2="98.06355123074" /><path d="M 185.9800911702706 98.14961562048488 a86.0,86.0 0 0,1 -9.607161424134198,41.387399972396054" fill="none" id="id76" stroke="none" /><text fill="#e1ed5e" style="font-size:6.75px; font-family:Arial;" text-anchor="middle"><textPath startOffset="21.466115282336823" xlink:href="#id76">April</textPath></text><path d="M 120.99513854157772 99.54816195383933 l 10.80170181415373 -0.23246428373178035 a31.80420296574916,31.80420296574916 0 0,0 0.007068094707994347,0.54743172444782 l -10.80410291597944 0.04649630122349763" fill="#ff830c" stroke="none" /><path d="M 120.99824983174949 100.27111621757518 l 55.27002304108703 0.7136118349033088 a76.27462970308535,76.27462970308535 0 0,0 -0.02825044231213649,1.3126870462634692 l -55.24955053608989 -1.664888696956893" fill="#43ffe2" stroke="none" /><path d="M 120.9764740272857 100.99374915477107 l 11.182476868245034 0.5297638164359987 a32.19501847296556,32.19501847296556 0 0,0 -0.03098946698009705,0.5533377504760381 l -11.171701050377408 -0.7221732832474601" fill="#ff880c" stroke="none" /><path d="M 120.95626037817324 101.35467743843564 l 14.900967965710901 0.9632446223575892 a35.93206906351706,35.93206906351706 0 0,0 -0.04521185328422905,0.6168798170786305 l -14.882179553762334 -1.21959757593299" fill="#ffb911" stroke="none" /><path d="M 120.92983693683757 101.71520430193887 l 11.360512370112215 0.9309962494332951 a32.39859619988056,32.39859619988056 0 0,0 -0.050334156241767423,0.5554332198503122 l -11.342803617593372 -1.1264108578321779" fill="#ff8b0c" stroke="none" /><path d="M 120.8583938346157 102.4346265915055 l 8.20814077829544 0.9580679108903682 a29.263865267427484,29.263865267427484 0 0,0 -0.06270617955418181,0.4998299482072378 l -8.19043308949441 -1.099215613385001" fill="#ff6008" stroke="none" /><path d="M 120.76222939487914 103.15116336523771 l 30.797924643659538 4.674319410341739 a52.15062478195949,52.15062478195949 0 0,0 -0.1423420153078397,0.8863638651979818 l -30.71290087399041 -5.203762505232925" fill="#84ff25" stroke="none" /><path d="M 120.49622156327973 104.57218783832717 l 5.043589263256847 1.1250970048203566 a26.167556088393766,26.167556088393766 0 0,0 -0.10185339169742015,0.4387817456815634 l -5.023475305628875 -1.2117474078504848" fill="#ff3405" stroke="none" /><path d="M 120.23288151984713 105.62410040840565 l 47.3992169110248 13.175481452105945 a70.19633192904901,70.19633192904901 0 0,0 -0.3336243233384042,1.1613900369403383 l -47.16539995080029 -13.989428964550866" fill="#3cffa2" stroke="none" /><path d="M 120.13307415673323 105.97154293290107 l 21.05204479728004 6.24411296325909 a42.95854131869022,42.95854131869022 0 0,0 -0.21637445541459616,0.7071242396371045 l -20.94144356935931 -6.605564175448251" fill="#edff1a" stroke="none" /><path d="M 120.02730092923936 106.31721596034902 l 13.843420503899143 4.36663319046537 a35.51577681930419,35.51577681930419 0 0,0 -0.18892321342351556,0.5814458637438049 l -13.76620503945938 -4.60427795418697" fill="#ffb410" stroke="none" /><path d="M 119.9155931802556 106.66101706037122 l 44.79219825908657 14.981306058767194 a68.23113968673393,68.23113968673393 0 0,0 -0.3821241734453869,1.1106317163929817 l -44.527683254697955 -15.750110478249475" fill="#39ff8c" stroke="none" /><path d="M 119.79798401119884 107.00284435728193 l 1.7312507594076336 0.6123694010814418 a22.836362021860165,22.836362021860165 0 0,0 -0.13427317507625516,0.36946210977583394 l -1.7204533233261516 -0.6420793078634068" fill="#ff0400" stroke="none" /><path d="M 119.67450827220406 107.3425965602758 l 32.390503567672866 12.08825129406664 a55.5726848930761,55.5726848930761 0 0,0 -0.3421840978582023,0.8933347022719171 l -32.17762519022116 -12.6440095631717" fill="#5fff29" stroke="none" /><path d="M 119.54520255179757 107.68017299344265 l 33.14599018397213 13.024522922042852 a56.61312767257036,56.61312767257036 0 0,0 -0.36420407367984414,0.9039246427146832 l -32.91688349603489 -13.59314693260035" fill="#55ff2b" stroke="none" /><path d="M 119.41010516605496 108.01547362559984 l 29.158726842833673 12.0412024543557 a52.547137867669875,52.547137867669875 0 0,0 -0.35243870522922716,0.8330609904514046 l -28.947137156412136 -12.541337970473268" fill="#7fff26" stroke="none" /><path d="M 119.26925614724726 108.34839909993367 l 23.114268527241826 10.014249491204016 a46.19036725459797,46.19036725459797 0 0,0 -0.3223623866999053,0.7268420808235994 l -22.938465055810646 -10.410639908520304" fill="#c6ff1e" stroke="none" /><path d="M 119.12269723197855 108.67885076344098 l 10.277556661099096 4.66447695073709 a32.28651922188856,32.28651922188856 0 0,0 -0.23403941711714935,0.5041000833463601 l -10.195742627142115 -4.84069710136228" fill="#ff890c" stroke="none" /><path d="M 118.97047184881838 109.00673069616215 l 15.96584971774206 7.580207276291667 a38.67393277007326,38.67393277007326 0 0,0 -0.2906930638884545,0.598913812051632 l -15.833003397238892 -7.853910044308574" fill="#ffdc14" stroke="none" /><path d="M 118.81262510543309 109.33194174019688 l 20.68656686980457 10.261504481793532 a44.09182805861772,44.09182805861772 0 0,0 -0.3431211996616388,0.6770106788490596 l -20.506867000356664 -10.616069372345285" fill="#dfff1b" stroke="none" /><line stroke="#e1ed5e" stroke-width="0.3" x1="174.80103733775053" x2="179.2010983576182" y1="140.37084112569926" y2="142.7455964860345" /><path d="M 175.68104954172406 140.8457921977663 a86.0,86.0 0 0,1 -30.038265399797805,32.042727171017184" fill="none" id="id77" stroke="none" /><text fill="#e1ed5e" style="font-size:6.75px; font-family:Arial;" text-anchor="middle"><textPath startOffset="22.206326154141568" xlink:href="#id77">May</textPath></text><path d="M 118.48025628344425 109.97397251340804 l 12.983983709280825 7.007581206918683 a35.754322327183644,35.754322327183644 0 0,0 -0.2969712989493062,0.5390891687378068 l -12.86143600088001 -7.230040894054294" fill="#ffb711" stroke="none" /><path d="M 118.12598468904814 110.60418214915192 l 1.5081527087626019 0.8823093645289483 a22.747282005768803,22.747282005768803 0 0,0 -0.2006300787311415,0.3362675521739604 l -1.492741754333233 -0.9081390105890128" fill="#ff0300" stroke="none" /><path d="M 117.94076556474637 110.91462005526583 l 53.8222966942391 32.74386016579747 a84.0,84.0 0 0,0 -0.7621414413281484,1.228814674538906 l -53.25069061324299 -33.665471171701654" fill="#4dd2ff" stroke="none" /><path d="M 117.55443506779139 111.5257021239791 l 4.10389969482128 2.6944943113541 a25.909408548804407,25.909408548804407 0 0,0 -0.24798622185498106,0.37070575446077236 l -4.056910367555577 -2.7647369800206794" fill="#ff3104" stroke="none" /><path d="M 117.35343817320211 111.8261652097733 l 6.370377400605581 4.341337712805896 a28.709015589734985,28.709015589734985 0 0,0 -0.28181192523505044,0.4059710968276609 l -6.294704568208394 -4.450350071820576" fill="#ff5808" stroke="none" /><path d="M 116.93607887273984 112.41649034213515 l 8.232292613828292 6.035410114779029 a31.207684210107054,31.207684210107054 0 0,0 -0.32134810014157744,0.4304982940956443 l -8.127183246991622 -6.176221288383988" fill="#ff7a0b" stroke="none" /><path d="M 116.71984013943494 112.70617746262583 l 5.22413008908301 3.9700573358457567 a27.561470143006456,27.561470143006456 0 0,0 -0.2903052049086084,0.3752586108798144 l -5.155018066956333 -4.059393940838824" fill="#ff4806" stroke="none" /><path d="M 116.498646956653 112.99209946851258 l 15.451625295714674 12.167607035870233 a40.66731769353738,40.66731769353738 0 0,0 -0.437816766442072,0.5462437335417925 l -15.239890617217748 -12.431778602990276" fill="#fff517" stroke="none" /><path d="M 116.0416608686014 113.55231037782055 l 7.71432107005099 6.517210053986558 a31.098751232682986,31.098751232682986 0 0,0 -0.3489835081417487,0.4059466619217651 l -7.600995052338463 -6.649033815069851" fill="#ff790b" stroke="none" /><path d="M 115.56566222782051 114.09645910891815 l 7.216731143139797 6.535562314689293 a30.736261251710058,30.736261251710058 0 0,0 -0.35852179039944215,0.38910459456502255 l -7.103162944744633 -6.65881816405565" fill="#ff740a" stroke="none" /><path d="M 115.32070863581623 114.36230785411682 l 25.188066733903195 23.612404444312 a55.52512634927388,55.52512634927388 0 0,0 -0.6596740599047175,0.6916656144679603 l -24.777886122619513 -24.042477175362464" fill="#60ff29" stroke="none" /><path d="M 114.81725581225074 114.88116024355365 l 5.417202741909169 5.4405662624463575 a28.677619865753822,28.677619865753822 0 0,0 -0.3528030694317319,0.3452920586419742 l -5.322749720101643 -5.533008424010903" fill="#ff5808" stroke="none" /><path d="M 114.29624159901734 115.38237550388516 l 9.37076245285512 10.082691021214503 a34.76487730338047,34.76487730338047 0 0,0 -0.44184578166673544,0.40361564549019463 l -9.195817121721522 -10.24249943329128" fill="#ffaa0f" stroke="none" /><path d="M 113.48314897796784 116.09983520530334 l 10.643322864584412 12.708881614869808 a37.576971783186494,37.576971783186494 0 0,0 -0.49946930016764834,0.4110292303411436 l -10.422983435872073 -12.89020596406813" fill="#ffce13" stroke="none" /><path d="M 111.7513745106137 117.40417183066458 l 16.405706024980915 24.297389756768595 a50.31740676066726,50.31740676066726 0 0,0 -0.721995607180087,0.478499319221825 l -15.985035719060862 -24.57618709708174" fill="#98ff23" stroke="none" /><line stroke="#e1ed5e" stroke-width="0.3" x1="143.8653032363475" x2="146.44561519142675" y1="172.8068346515853" y2="177.08958963109032" /><path d="M 144.38136562736335 173.6633856474863 a86.0,86.0 0 0,1 -40.68145358897372,12.25698825130547" fill="none" id="id78" stroke="none" /><text fill="#e1ed5e" style="font-size:6.75px; font-family:Arial;" text-anchor="middle"><textPath startOffset="21.466115282336833" xlink:href="#id78">June</textPath></text><path d="M 109.2508944713604 118.85261126421891 l 0.7041412852315998 1.4349857699335198 a22.598436457754673,22.598436457754673 0 0,0 -0.35069257926590197,0.16835374960057853 l -0.6793360379654652 -1.4468937960336583" fill="#ff0000" stroke="none" /><path d="M 100.90346689309514 120.98055641714683 l 0.08145498524793009 1.8915700470189687 a22.893323046234077,22.893323046234077 0 0,0 -0.39385198567342977,0.013565058731468729 l -0.04888264789984803 -1.892691904176531" fill="#ff0500" stroke="none" /><line stroke="#e1ed5e" stroke-width="0.3" x1="102.19456741930631" x2="102.32365962044197" y1="184.97166512339345" y2="189.96999836594603" /><path d="M 102.22038585953345 185.97133177190398 a86.0,86.0 0 0,1 -42.740103519485714,-10.115201625700543" fill="none" id="id79" stroke="none" /><text fill="#e1ed5e" style="font-size:6.75px; font-family:Arial;" text-anchor="middle"><textPath startOffset="22.20632615414155" xlink:href="#id79">July</textPath></text><path d="M 100.18074693466247 120.99922214144158 l 0.042298459114514304 4.914245106535894 a25.914427141260255,25.914427141260255 0 0,0 -0.4460907875539361,0.0 l 0.04229845911451092 -4.914245106535894" fill="#ff3104" stroke="none" /><path d="M 99.81925306533755 120.99922214144158 l -0.13783095630209255 16.013233501084066 a37.013826667375795,37.013826667375795 0 0,0 -0.6370613804245402,-0.010967589401094855 l 0.4134520266193007 -16.008488434403812" fill="#ffc712" stroke="none" /><path d="M 99.45781275523022 120.99299961872073 l -0.1916117938512628 7.419035313104729 a28.421509284278898,28.421509284278898 0 0,0 -0.4889577561476261,-0.01684069376471092 l 0.31928990167353194 -7.414637820913924" fill="#ff5407" stroke="none" /><path d="M 99.09653310690486 120.98055641714683 l -0.32059362342012687 7.44491320550825 a28.45181272637261,28.45181272637261 0 0,0 -0.48911637473740255,-0.02528172968760744 l 0.44869806657101835 -7.43829166905844" fill="#ff5407" stroke="none" /><path d="M 98.73552117531835 120.96189622390904 l -0.9957611985672968 16.50723009412044 a37.53723633938899,37.53723633938899 0 0,0 -0.6446345372107651,-0.04445777190686019 l 1.279758496556992 -16.487643977697296" fill="#ffce13" stroke="none" /><path d="M 98.01472825383883 120.90594882070398 l -0.8928917742937593 9.402616932371041 a30.444917199081846,30.444917199081846 0 0,0 -0.5212857058967415,-0.05403339482485011 l 1.0546100767960942 -9.38585416909043" fill="#ff700a" stroke="none" /><path d="M 97.2962882734958 120.8252237178851 l -3.5870221111141043 27.628884105014002 a48.86076030035643,48.86076030035643 0 0,0 -0.8331257750681517,-0.11546364096508897 l 4.062076477369087 -27.56304589855631" fill="#a8ff21" stroke="none" /><path d="M 96.93821686468263 120.77559828337769 l -0.2324374094455115 1.577194083070937 a22.594229696431388,22.594229696431388 0 0,0 -0.38427850175984346,-0.060016398888344355 l 0.2595517748138721 -1.572959376835487" fill="#ff0000" stroke="none" /><path d="M 96.58105272829116 120.7198165907248 l -2.0314084984691805 12.310927359837171 a33.47740169052997,33.47740169052997 0 0,0 -0.5677624306916945,-0.09871277619528032 l 2.243019900632925 -12.274136005120885" fill="#ff990e" stroke="none" /><path d="M 96.22490169976321 120.6578951692458 l -2.334633141877959 12.775457184925932 a33.98702499385562,33.98702499385562 0 0,0 -0.5745949789133324,-0.11012249525631305 l 2.554195735362986 -12.73337749132115" fill="#ffa00e" stroke="none" /><path d="M 95.86986931433489 120.58985236759428 l -0.967446130549963 4.822988548706492 a25.919061958998896,25.919061958998896 0 0,0 -0.4366850206111702,-0.0915115918779994 l 1.0503226125905198 -4.8056209761019515" fill="#ff3104" stroke="none" /><path d="M 95.51606077576429 120.51570834832081 l -3.682156750378404 16.847251982198795 a38.2449464390603,38.2449464390603 0 0,0 -0.6419320479675211,-0.1461016441660874 l 3.9716089477387877 -16.781373604455023" fill="#ffd714" stroke="none" /><path d="M 94.81253420990036 120.34920634021253 l -7.693218010866507 30.178682049748023 a52.14383492157805,52.14383492157805 0 0,0 -0.8678461263595975,-0.22920604970226902 l 8.211554580037594 -30.041784650742173" fill="#84ff25" stroke="none" /><path d="M 94.46302465271185 120.25689768951611 l -0.41424871832506777 1.5155194630284812 a22.57111465000238,22.57111465000238 0 0,0 -0.37389463275586493,-0.10566635794934819 l 0.4402745191855466 -1.5081643117406116" fill="#ff0000" stroke="none" /><path d="M 94.11515582081647 120.15858648285463 l -3.908094039550665 13.387211161526618 a34.945989448772515,34.945989448772515 0 0,0 -0.575984832912728,-0.1735395052809738 l 4.137953846903639 -13.31795628713992" fill="#ffac10" stroke="none" /><path d="M 93.76903079525671 120.05430185196036 l -7.89879362273987 25.42217532646126 a47.62100559753466,47.62100559753466 0 0,0 -0.7807093215493349,-0.24995847077230593 l 8.335224289380145 -25.28244400902925" fill="#b6ff1f" stroke="none" /><path d="M 93.42475214034765 119.94407469862007 l -6.086391108237411 18.461271954867712 a40.43869128604126,40.43869128604126 0 0,0 -0.6592089517914088,-0.22363946760522532 l 6.403269792966046 -18.35376950036436" fill="#fff216" stroke="none" /><path d="M 93.08242187328487 119.8279376855182 l -4.860335067207483 13.931237071418696 a35.75473562303294,35.75473562303294 0 0,0 -0.5793636736844578,-0.20773920061106982 l 5.099418301521668 -13.845510329767668" fill="#ffb711" stroke="none" /><path d="M 92.7421414339146 119.70592522655815 l -6.432616694970153 17.46529812450742 a39.612232432524884,39.612232432524884 0 0,0 -0.6378131146477142,-0.241166344461004 l 6.73230003037815 -17.351983529939783" fill="#ffe815" stroke="none" /><path d="M 92.40401165467489 119.57807347666478 l -0.589628782708529 1.5197226624141047 a22.630097871924676,22.630097871924676 0 0,0 -0.3619510915375951,-0.14402780914201382 l 0.6157009502879822 -1.5093480088660243" fill="#ff0100" stroke="none" /><path d="M 92.06813273071674 119.44442032107085 l -8.492280984517853 20.818235522809474 a43.483722258629015,43.483722258629015 0 0,0 -0.6906220200256309,-0.288680060381819 l 8.849374464040947 -20.66897041940768" fill="#e6ff1a" stroke="none" /><path d="M 91.7346041902142 119.30500536409082 l -2.6633774550105884 6.220696169771266 a27.766878180111238,27.766878180111238 0 0,0 -0.43776377593961224,-0.19190277468042727 l 2.770061905607944 -6.1739288417963865" fill="#ff4b07" stroke="none" /><path d="M 91.07499286063937 119.00905698771935 l -3.572412618482773 7.608755263500161 a29.405670025437374,29.405670025437374 0 0,0 -0.45633025477404954,-0.21906625343546104 l 3.7028555412570645 -7.546134733565138" fill="#ff6209" stroke="none" /><path d="M 90.7491055286396 118.85261126421891 l -5.199465444726573 10.596110583104979 a32.80305047012403,32.80305047012403 0 0,0 -0.5047703607383698,-0.25310233773501567 l 5.381089713147703 -10.50504040446066" fill="#ff900d" stroke="none" /><path d="M 90.42595943632237 118.69057910512821 l -12.374634209792289 24.157938130387926 a48.14290969181109,48.14290969181109 0 0,0 -0.7343148549110685,-0.38415882622613384 l 12.788639967229853 -23.941349885217075" fill="#b0ff20" stroke="none" /><path d="M 90.10565033884886 118.52300852407294 l -4.39011404904816 8.218642228852728 a30.317681119759968,30.317681119759968 0 0,0 -0.45819716116441067,-0.249845625463853 l 4.530934022081211 -8.14185595162911" fill="#ff6e0a" stroke="none" /><line stroke="#e1ed5e" stroke-width="0.3" x1="58.666819895761336" x2="56.23545636021788" y1="174.27360380694188" y2="178.64263932499728" /><path d="M 58.180547188652646 175.14741091055294 a86.0,86.0 0 0,1 -31.652253787137756,-30.449443065178592" fill="none" id="id80" stroke="none" /><text fill="#e1ed5e" style="font-size:6.75px; font-family:Arial;" text-anchor="middle"><textPath startOffset="22.20632615414155" xlink:href="#id80">August</textPath></text><path d="M 89.7882731507175 118.34994917583269 l -15.945560194359816 28.65335348910576 a53.79139454313588,53.79139454313588 0 0,0 -0.8052091049363147,-0.4572187444496001 l 16.43641806621734 -28.37463157886153" fill="#72ff27" stroke="none" /><path d="M 89.4739219176387 118.17145234162733 l -4.40372098124788 7.6022622395956105 a29.785621756043454,29.785621756043454 0 0,0 -0.4414401177084164,-0.2608106025533155 l 4.533928969984679 -7.525333064748546" fill="#ff6709" stroke="none" /><path d="M 89.1626897886671 117.98757091392108 l -8.999712921050822 14.937560263158982 a38.439195488233835,38.439195488233835 0 0,0 -0.5638129403925798,-0.3463399577244007 l 9.255505061375711 -14.780431838606203" fill="#ffd914" stroke="none" /><path d="M 88.24862548938628 117.40417183066458 l -9.129641700640864 13.521299382199352 a37.31489793302873,37.31489793302873 0 0,0 -0.5292374023977214,-0.36401431121343264 l 9.361035987661475 -13.36214428162082" fill="#ffcb12" stroke="none" /><path d="M 87.95078237400918 117.19931262002967 l -9.881239871546828 14.10469450378614 a38.221536181310356,38.221536181310356 0 0,0 -0.5355977897997451,-0.38213480201880456 l 10.12256498919546 -13.932515439923115" fill="#ffd714" stroke="none" /><path d="M 87.65650970185807 116.9893568818739 l -6.289888273122408 8.657288500909335 a31.700997087951187,31.700997087951187 0 0,0 -0.4387041050702829,-0.32454280899710153 l 6.437977348611255 -8.547735743172467" fill="#ff810b" stroke="none" /><path d="M 87.36589467227662 116.77436683061367 l -5.333319852455336 7.08107628592971 a29.864871235147767,29.864871235147767 0 0,0 -0.4079701706954825,-0.312814130148764 l 5.454418751644305 -6.988222813953579" fill="#ff6809" stroke="none" /><path d="M 87.07902340077011 116.55440617244103 l -4.72519274062737 6.053935572956423 a28.67968634500035,28.67968634500035 0 0,0 -0.38655096815088796,-0.30709946742670136 l 4.828701201495616 -5.9717021915245905" fill="#ff5808" stroke="none" /><path d="M 86.79598089348748 116.32954008644616 l -9.957760009575336 12.31485958448592 a36.83706888896751,36.83706888896751 0 0,0 -0.4896345858937116,-0.4029359300376251 l 10.168264724013737 -12.141628535591114" fill="#ffc512" stroke="none" /><path d="M 86.51685102203217 116.09983520530335 l -8.004483738104442 9.55792072739044 a33.46698073090106,33.46698073090106 0 0,0 -0.4384724663714901,-0.373675748298798 l 8.167821681052988 -9.418720588868691" fill="#ff990e" stroke="none" /><path d="M 86.24171649860922 115.8653595955263 l -3.2877113192467906 3.791223107218261 a26.018208681134052,26.018208681134052 0 0,0 -0.33583021079493286,-0.2963311147174573 l 3.3524838829483112 -3.734068850728515" fill="#ff3204" stroke="none" /><path d="M 85.97065885151581 115.62618273729859 l -22.68463079884265 25.26663101561018 a54.95578179572361,54.95578179572361 0 0,0 -0.6984629962228505,-0.6380293866517708 l 23.116193344532356 -24.872408862371834" fill="#66ff29" stroke="none" /><path d="M 85.70375840098266 115.38237550388516 l -34.23315141415719 36.83395989685279 a71.28567646385571,71.28567646385571 0 0,0 -0.8916282251554685,-0.8430901395122655 l 34.862115473703476 -36.23923512059459" fill="#3dffad" stroke="none" /><path d="M 85.44109423537348 115.13401014063109 l -8.185575814791175 8.508921576300358 a32.80700630182452,32.80700630182452 0 0,0 -0.40360436383257065,-0.3950118174683304 l 8.33083013099954 -8.366759655909458" fill="#ff900d" stroke="none" /><path d="M 85.18274418774928 114.88116024355367 l -3.6154608397728305 3.631053738470894 a26.12407146082042,26.12407146082042 0 0,0 -0.31592632662831127,-0.3200317009154513 l 3.677427791456675 -3.568281543574778" fill="#ff3404" stroke="none" /><path d="M 84.9287848128048 114.62390073753433 l -11.912513904105378 11.558949872611777 a37.59871409697317,37.59871409697317 0 0,0 -0.44669680208430673,-0.4683598111151148 l 12.109717257568642 -11.352182944914162" fill="#ffcf13" stroke="none" /><path d="M 84.67929136418377 114.36230785411682 l -11.736560872898709 11.002369695295288 a37.08723096232565,37.08723096232565 0 0,0 -0.43260240198636596,-0.4695044673441434 l 11.924209682880804 -10.7987139731498" fill="#ffc812" stroke="none" /><path d="M 84.43433777217949 114.09645910891817 l -11.557461233943036 10.46658197400682 a36.59244202787686,36.59244202787686 0 0,0 -0.4187937910074484,-0.4705192637993688 l 11.735913874598822 -10.266088540466587" fill="#ffc212" stroke="none" /><path d="M 84.19399662182784 113.82643327865904 l -23.71853171082745 20.74798342890384 a52.51265718538498,52.51265718538498 0 0,0 -0.5892857622894209,-0.6854724723044685 l 24.072159982687648 -20.33663385743784" fill="#80ff26" stroke="none" /><path d="M 83.50135304334701 112.99209946851258 l -7.527237641458337 5.927432741478453 a30.58090629406937,30.58090629406937 0 0,0 -0.3221089521686289,-0.41636924140166526 l 7.628153410845035 -5.796985505963535" fill="#ff720a" stroke="none" /><path d="M 83.28015986056508 112.70617746262583 l -3.997609403326602 3.037967712689284 a26.02096890698477,26.02096890698477 0 0,0 -0.26794006456252206,-0.3589495026210594 l 4.04931073458421 -2.9687053305589166" fill="#ff3204" stroke="none" /><path d="M 83.06392112726016 112.41649034213515 l -11.669244513926046 8.555171648402727 a35.46935483908757,35.46935483908757 0 0,0 -0.35675449968644424,-0.4955007974341593 l 11.814778805988098 -8.353037245517429" fill="#ffb310" stroke="none" /><path d="M 82.85270091963577 112.12312394758628 l -12.865581584199502 9.095953798440485 a36.756254789862254,36.756254789862254 0 0,0 -0.36080481040474655,-0.5197662394823842 l 13.020247301766382 -8.873146296771088" fill="#ffc412" stroke="none" /><path d="M 82.6465618267979 111.8261652097733 l -25.73872954881792 17.54064323714518 a52.147333175731106,52.147333175731106 0 0,0 -0.49911676330637844,-0.7461118400913018 l 26.036849417535027 -17.09499448284806" fill="#84ff25" stroke="none" /><path d="M 82.24976979558568 111.22182372390057 l -12.48350348805398 7.892161058553544 a35.76902385096608,35.76902385096608 0 0,0 -0.32453637372234767,-0.5232559690714355 l 12.617504501444284 -7.676108758116844" fill="#ffb711" stroke="none" /><line stroke="#e1ed5e" stroke-width="0.3" x1="26.63291911575756" x2="22.317208475507996" y1="142.92168965132927" y2="145.44649492493687" /><path d="M 25.769776987707644 143.4266507060508 a86.0,86.0 0 0,1 -11.730757126820373,-40.83630448921669" fill="none" id="id81" stroke="none" /><text fill="#e1ed5e" style="font-size:6.75px; font-family:Arial;" text-anchor="middle"><textPath startOffset="21.46611528233685" xlink:href="#id81">September</textPath></text><path d="M 81.87401531095188 110.60418214915194 l -15.412575366270062 9.016765675092419 a38.856358605843454,38.856358605843454 0 0,0 -0.33277326343087354,-0.5802182343335853 l 15.565500625853312 -8.750127594900526" fill="#ffdf14" stroke="none" /><path d="M 81.69416730710424 110.29060199501025 l -12.610467532020513 7.088959268888322 a35.46641748644429,35.46641748644429 0 0,0 -0.2945799943751016,-0.5347482563342504 l 12.730623935847131 -6.8708404941562495" fill="#ffb310" stroke="none" /><path d="M 81.51974371655577 109.97397251340807 l -4.328094155760254 2.335914149830688 a25.918220606734238,25.918220606734238 0 0,0 -0.20851516013246765,-0.39443210198083883 l 4.367661824117608 -2.261067032763723" fill="#ff3104" stroke="none" /><path d="M 81.35079622478065 109.6543875284942 l -30.94333725287912 16.018859189106173 a55.84385125191858,55.84385125191858 0 0,0 -0.4345750693260185,-0.8574578399277566 l 31.214490991991408 -15.483847137475731" fill="#5cff2a" stroke="none" /><path d="M 81.02952815118164 109.00673069616217 l -10.980171041836794 5.213125132561337 a33.15486856184525,33.15486856184525 0 0,0 -0.24033393192628938,-0.5176579082589119 l 11.06827959060291 -5.023347157023598" fill="#ff950d" stroke="none" /><path d="M 80.87730276802145 108.67885076344099 l -8.329990319391523 3.780572477088118 a30.147757483431263,30.147757483431263 0 0,0 -0.21040107783600595,-0.47439888625783994 l 8.39383248195881 -3.636625254337582" fill="#ff6c09" stroke="none" /><path d="M 80.73074385275274 108.34839909993369 l -10.039489184637054 4.349605497604604 a31.941225300359946,31.941225300359946 0 0,0 -0.21423286871767477,-0.5063832182822107 l 10.112873034547036 -4.176147753656235" fill="#ff840c" stroke="none" /><path d="M 80.58989483394504 108.01547362559985 l -10.048573319861081 4.149594952278311 a31.87165875258222,31.87165875258222 0 0,0 -0.20503703698830966,-0.5088851108399621 l 10.11851297110678 -3.9760104735955433" fill="#ff840c" stroke="none" /><path d="M 80.32549172779594 107.34259656027581 l -13.941410912022606 5.202984206351459 a35.88065801197668,35.88065801197668 0 0,0 -0.21097098874512554,-0.5805015525923424 l 14.028906161772957 -4.962234856753" fill="#ffb911" stroke="none" /><path d="M 80.20201598880116 107.00284435728193 l -19.494362250601377 6.895448779442023 a41.677944129617444,41.677944129617444 0 0,0 -0.2334146846228027,-0.6784123325058304 l 19.610167766167407 -6.558863743846896" fill="#fcff18" stroke="none" /><path d="M 80.0844068197444 106.66101706037122 l -13.993636292638197 4.680345156593355 a35.75559173586365,35.75559173586365 0 0,0 -0.19019888887596798,-0.5853719890825946 l 14.072127432530413 -4.438774267532957" fill="#ffb711" stroke="none" /><path d="M 79.97269907076064 106.31721596034903 l -11.264875519658261 3.5532821759438655 a32.81199537314828,32.81199537314828 0 0,0 -0.16526812624437195,-0.5401057989163983 l 11.324370418408764 -3.3588494044754196" fill="#ff900d" stroke="none" /><path d="M 79.86692584326677 105.97154293290107 l -12.514105740545727 3.711729223007939 a34.05296044238588,34.05296044238588 0 0,0 -0.1618445803798258,-0.5634022163164134 l 12.576142957811657 -3.4957695311869292" fill="#ffa10e" stroke="none" /><path d="M 79.67330655649465 105.27499134158121 l -14.299553799653033 3.7108850335786103 a35.77321585172332,35.77321585172332 0 0,0 -0.14954683824104614,-0.5973652806870137 l 14.361311952189137 -3.4641919134942047" fill="#ffb711" stroke="none" /><path d="M 79.58551787078972 104.9243191809786 l -26.031035699478227 6.279127120852324 a47.7776447244214,47.7776447244214 0 0,0 -0.18596750671167628,-0.8011431516920626 l 26.13526377212046 -5.830115311811687" fill="#b4ff20" stroke="none" /><path d="M 79.4281124754447 104.21870165774334 l -10.635060024490516 2.1809445196491737 a31.856381566723968,31.856381566723968 0 0,0 -0.1055357428928443,-0.5381244793371793 l 10.671025700359026 -1.9975563132440397" fill="#ff830c" stroke="none" /><path d="M 79.35854240842038 103.8639653848113 l -11.829388515150974 2.2143953518415143 a33.034865159886216,33.034865159886216 0 0,0 -0.0998180819638079,-0.559832813450483 l 11.865753039453972 -2.0104437876578176" fill="#ff930d" stroke="none" /><path d="M 79.29508885075956 103.50808413554451 l -13.417555721034244 2.2733695413356783 a34.608784317437454,34.608784317437454 0 0,0 -0.09446260956018991,-0.5882187599029144 l 13.454700084955725 -2.0420715517395505" fill="#ffa80f" stroke="none" /><path d="M 79.23777060512086 103.15116336523772 l -7.588501691463018 1.1517360719018273 a28.67540578084683,28.67540578084683 0 0,0 -0.06986687377433956,-0.4886487524512112 l 7.607202616253956 -1.0209418474702154" fill="#ff5808" stroke="none" /><path d="M 79.18660465613746 102.79330883721812 l -40.574931620422646 5.445450547225053 a61.93871038105924,61.93871038105924 0 0,0 -0.13272135649258315,-1.0579197969533392 l 40.66265448616208 -4.746212995984305" fill="#31ff43" stroke="none" /><path d="M 79.1416061653843 102.43462659150553 l -36.2382248346161 4.229786171977226 a57.48424358849771,57.48424358849771 0 0,0 -0.10625743028849502,-0.9838118371132005 l 36.30566456640564 -3.605378012979244" fill="#4cff2c" stroke="none" /><path d="M 79.10278846688536 102.07522291339032 l -10.296995399642768 1.022555605495583 a31.347643897361117,31.347643897361117 0 0,0 -0.04870140656732771,-0.5374159632477125 l 10.31307140248717 -0.8451582536993043" fill="#ff7c0b" stroke="none" /><path d="M 79.07016306316243 101.71520430193888 l -13.631944011155388 1.1171405244238162 a34.67764235804494,34.67764235804494 0 0,0 -0.043633459452712395,-0.5953438872872867 l 13.649154029272436 -0.8823235006397688" fill="#ffa90f" stroke="none" /><path d="M 79.04373962182676 101.35467743843564 l -14.7563800313686 0.953898011417045 a35.78717934720342,35.78717934720342 0 0,0 -0.03444711838330213,-0.6150764389991431 l 14.770613500639433 -0.6997498560824643" fill="#ffb711" stroke="none" /><path d="M 79.0095281055655 100.63252640178507 l -9.433151646213691 0.2842583767663912 a30.43743359209621,30.43743359209621 0 0,0 -0.011273354786122508,-0.5238284991140577 l 9.436647063684822 -0.12184006186220467" fill="#ff700a" stroke="none" /><line stroke="#e1ed5e" stroke-width="0.3" x1="15.007084014347285" x2="10.007500721073583" y1="101.09737516637583" y2="101.16192664675087" /><path d="M 14.007167355692545 101.11028546245083 a86.0,86.0 0 0,1 10.666146001902534,-42.60595125391555" fill="none" id="id82" stroke="none" /><text fill="#e1ed5e" style="font-size:6.75px; font-family:Arial;" text-anchor="middle"><textPath startOffset="22.20632615414155" xlink:href="#id82">October</textPath></text><path d="M 79.00175016825051 100.2711162175752 l -19.15811979120485 0.24735761386125826 a40.159716587760116,40.159716587760116 0 0,0 -0.002975075235636629,-0.6913027097381865 l 19.159539163729992 0.08245457408060365" fill="#ffef16" stroke="none" /><path d="M 79.00019446554 99.90962569577889 l -3.6859301384626 -0.015862688400832416 a24.685964271464147,24.685964271464147 0 0,0 0.0054861533117738755,-0.42490861994994883 l 3.6851109780331104 0.07930756641125322" fill="#ff1f03" stroke="none" /><path d="M 79.00486145842228 99.54816195383935 l -44.2799028607974 -0.9529513107610347 a65.2901559442088,65.2901559442088 0 0,0 0.03385234128376796,-1.123394401043814 l 44.256938825057986 1.715015859229843" fill="#36ff6a" stroke="none" /><path d="M 79.01574976396665 99.18683210126434 l -15.18099228726815 -0.5882838538477858 a36.19238640631527,36.19238640631527 0 0,0 0.029481959087191492,-0.6223175598156586 l 15.16861671994746 0.8495125202864534" fill="#ffbd11" stroke="none" /><path d="M 79.03285615573316 98.82574320788736 l -14.825484159901082 -0.8302955138013459 a35.84871614705179,35.84871614705179 0 0,0 0.03980813684760943,-0.6158142575340776 l 14.808995432049059 1.0853688355884352" fill="#ffb811" stroke="none" /><path d="M 79.08570108090925 98.10471618934814 l -5.362547395119059 -0.48596174804334685 a26.384521648713054,26.384521648713054 0 0,0 0.044882426228166336,-0.45195990703337013 l 5.353387843208664 0.5781971857811473" fill="#ff3705" stroke="none" /><path d="M 79.21141760316559 97.0276538004421 l -15.015838659714534 -2.1469607749768223 a36.168548092149976,36.168548092149976 0 0,0 0.09342526556458598,-0.6155557710297004 l 14.976657500710646 2.4051156583986146" fill="#ffbc11" stroke="none" /><path d="M 79.26566170972629 96.67025291283419 l -30.753418633811062 -4.938720719356573 a52.14745126025947,52.14745126025947 0 0,0 0.14995654800342711,-0.8850520348697221 l 30.663850224287412 5.467358542542124" fill="#84ff25" stroke="none" /><path d="M 79.32604984820605 96.31383870115002 l -4.946209329627412 -0.8819081633173618 a26.024216231515027,26.024216231515027 0 0,0 0.08242770968821196,-0.44033212113864956 l 4.930295896029339 0.966918361918584" fill="#ff3204" stroke="none" /><path d="M 79.54389044137918 95.25157060432595 l -15.526249887403127 -3.6040724732458127 a36.93906440034966,36.93906440034966 0 0,0 0.14910576429538408,-0.6181396551889284 l 15.461911322846928 3.870797360094138" fill="#ffc612" stroke="none" /><path d="M 79.71946130924805 94.55025226153421 l -45.616989259511584 -12.258110489244794 a68.23527264522698,68.23527264522698 0 0,0 0.3145751002890137,-1.1316940081171043 l 45.399227388656215 13.041515800780841" fill="#39ff8c" stroke="none" /><path d="M 79.81627453868168 94.20196356495316 l -14.197275340307174 -4.078351137863552 a35.771444583797724,35.771444583797724 0 0,0 0.17509969309570364,-0.5903491183985221 l 14.124969750099764 4.322129643008613" fill="#ffb711" stroke="none" /><path d="M 80.02781315780177 93.51064311812611 l -22.70235561088353 -7.376442488859688 a44.8706693260677,44.8706693260677 0 0,0 0.24499963691423068,-0.7325177302311584 l 22.572018680197527 7.766133322013168" fill="#d6ff1c" stroke="none" /><path d="M 80.14247586403 93.16781622104843 l -16.77111238354532 -5.770272325857353 a38.736015710865345,38.736015710865345 0 0,0 0.22235749312607772,-0.6286345760494759 l 16.669301809609433 6.058104528333439" fill="#ffdd14" stroke="none" /><path d="M 80.2630227832202 92.82701384747504 l -15.067949776592075 -5.476127063801246 a37.03218881153779,37.03218881153779 0 0,0 0.22289041635808296,-0.5972355016966067 l 14.971454771732365 5.734685702527194" fill="#ffc812" stroke="none" /><path d="M 80.52162464483688 92.15188598940014 l -31.623619606289225 -12.741605373787612 a55.09401449675021,55.09401449675021 0 0,0 0.3619894849013739,-0.8765862504370553 l 31.39960843450165 13.28406619467798" fill="#64ff29" stroke="none" /><path d="M 80.65960295795068 91.81776055985345 l -13.85957665085191 -5.863497758074898 a36.048869422643975,36.048869422643975 0 0,0 0.24669321122390747,-0.5694019440084281 l 13.756592729785321 6.101198846669925" fill="#ffbb11" stroke="none" /><path d="M 80.803312248108 91.48605970444005 l -14.163003291710922 -6.281446361472499 a36.49345767196821,36.49345767196821 0 0,0 0.2596208581994309,-0.572040146993591 l 14.05278011654814 6.524308517308161" fill="#ffc111" stroke="none" /><path d="M 80.95270993114464 91.15688171328213 l -13.39104959746122 -6.217085745298972 a35.76388717398186,35.76388717398186 0 0,0 0.2640427458425697,-0.5561413620400033 l 13.2820486577769 6.446669522979508" fill="#ffb711" stroke="none" /><path d="M 81.10775173730289 90.83032412892265 l -13.674949510771274 -6.637370673066653 a36.200622802169285,36.200622802169285 0 0,0 0.276917503715184,-0.5582487897546846 l 13.558671994102678 6.871779051320299" fill="#ffbd11" stroke="none" /><path d="M 81.26839172434947 90.50648371742162 l -10.604227527524127 -5.374413409423061 a32.888396063005594,32.888396063005594 0 0,0 0.2602733897221702,-0.5027653455871707 l 10.510144704641844 5.556151477270568" fill="#ff910d" stroke="none" /><path d="M 81.43458229118936 90.18545643968196 l -10.5365174144565 -5.570093318673723 a32.918227166985815,32.918227166985815 0 0,0 0.26913299965037785,-0.49866257413332427 l 10.43907631558765 5.75063687613952" fill="#ff920d" stroke="none" /><path d="M 81.6062741919709 89.86733742301443 l -38.78797603229956 -21.367366094363227 a65.28398602760132,65.28398602760132 0 0,0 0.5506932986076808,-0.9796219302135377 l 38.41442509239945 22.03187153451155" fill="#36ff6a" stroke="none" /><line stroke="#e1ed5e" stroke-width="0.3" x1="26.266209847984243" x2="21.928928074336255" y1="57.711370442889674" y2="55.22380399835377" /><path d="M 25.398753493254645 57.213857153982495 a86.0,86.0 0 0,1 29.58750427330803,-30.492523968695096" fill="none" id="id83" stroke="none" /><text fill="#e1ed5e" style="font-size:6.75px; font-family:Arial;" text-anchor="middle"><textPath startOffset="21.46611528233685" xlink:href="#id83">November</textPath></text><path d="M 81.78341655067845 89.55222093294921 l -20.489042086077717 -11.751105008596877 a44.619680661010946,44.619680661010946 0 0,0 0.38785195394719446,-0.662964713353825 l 20.283730457660198 12.102049134304595" fill="#d9ff1c" stroke="none" /><path d="M 81.96595687620814 89.24020034530311 l -17.755660504332372 -10.593705940038854 a41.675833368672784,41.675833368672784 0 0,0 0.3728681277728442,-0.6128971629856251 l 17.57067657827331 10.897770876231554" fill="#fcff18" stroke="none" /><path d="M 82.15384107792192 88.93136811851018 l -4.371018578032379 -2.7110144988981064 a26.14348160517173,26.14348160517173 0 0,0 0.24048567543668958,-0.38039058578096946 l 4.323705306349726 2.785852732393291" fill="#ff3404" stroke="none" /><path d="M 82.34701348167596 88.62581576622439 l -9.926812261213994 -6.396050401780404 a32.80893993597663,32.80893993597663 0 0,0 0.3099716225541745,-0.47210804708065984 l 9.8152440033019 6.5659765128387315" fill="#ff900d" stroke="none" /><path d="M 82.54541684631803 88.32363383020206 l -7.132885271662183 -4.771593772579865 a29.581734057241476,29.581734057241476 0 0,0 0.28676749129276924,-0.4207959082222875 l 7.049693314700674 4.893667704072568" fill="#ff6409" stroke="none" /><path d="M 82.95767976084542 87.72973835380427 l -29.953216578288835 -21.565948732518592 a57.90914965316185,57.90914965316185 0 0,0 0.5893976361154213,-0.8039377132830556 l 29.57755632965978 22.078348889473148" fill="#47ff2c" stroke="none" /><path d="M 83.17141714833178 87.43820079747576 l -14.047554329409072 -10.485883352625502 a38.52961871583544,38.52961871583544 0 0,0 0.4013026012926041,-0.5280671831388938 l 13.864975787892359 10.726135311645422" fill="#ffdb14" stroke="none" /><path d="M 83.39014120810768 87.1503855733568 l -5.018099969921857 -3.8820709179851853 a27.344430779856935,27.344430779856935 0 0,0 0.2912128743997915,-0.36981077735732215 l 4.950533014928094 3.9678740892955555" fill="#ff4506" stroke="none" /><path d="M 83.84228863543731 86.58626213691792 l -12.97106633473757 -10.768262886563061 a37.85835245373325,37.85835245373325 0 0,0 0.42056913420569786,-0.4978212005659541 l 12.783786587044748 10.989943036758133" fill="#ffd213" stroke="none" /><path d="M 84.07557802195018 86.31012108654704 l -9.196086934603844 -7.905675746714356 a33.127148218809694,33.127148218809694 0 0,0 0.3754538482161645,-0.4292086522713095 l 9.058641222809836 8.06279995518861" fill="#ff940d" stroke="none" /><path d="M 84.31358615837235 86.03803664274999 l -3.3026584401748313 -2.939588142247359 a25.421394714171008,25.421394714171008 0 0,0 0.2937458615144407,-0.3243615170182173 l 3.2515689380443455 2.9960024465351323" fill="#ff2a04" stroke="none" /><path d="M 84.5562425177563 85.77008943001954 l -4.906146749574433 -4.520533916044232 a27.67124447269518,27.67124447269518 0 0,0 0.3257731369235547,-0.3475120685949491 l 4.827606290680423 4.604315401517231" fill="#ff4a06" stroke="none" /><path d="M 84.80347519578584 85.50635884689758 l -11.755751755913398 -11.21201390648954 a37.24521330072264,37.24521330072264 0 0,0 0.44647386637103914,-0.46013056545620057 l 11.561013625839239 11.412708667495863" fill="#ffca12" stroke="none" /><path d="M 85.05521093208273 85.24692304244772 l -13.192523492719529 -13.023289486917573 a39.53776537681968,39.53776537681968 0 0,0 0.4822933348059772,-0.4802222139540033 l 12.966394357746239 13.248447551521686" fill="#ffe715" stroke="none" /><path d="M 85.57189188830299 84.74124197986013 l -8.745674152086039 -9.249176993724145 a33.729261228983475,33.729261228983475 0 0,0 0.4252972599456498,-0.3952674525496682 l 8.585169008345533 9.398349032348461" fill="#ff9c0e" stroke="none" /><path d="M 85.83668400450813 84.49514656593479 l -15.925842267432003 -17.434324719519797 a44.61330409647881,44.61330409647881 0 0,0 0.5714518385234495,-0.5130551029227252 l 15.623379441312581 17.7058788312118" fill="#d9ff1c" stroke="none" /><path d="M 86.37877921826538 84.01681056812374 l -20.20627880776959 -23.71012019208752 a52.15226320479067,52.15226320479067 0 0,0 0.688266984653926,-0.5764038061488181 l 19.795154286156553 24.05442515563015" fill="#84ff25" stroke="none" /><path d="M 87.51073957382395 83.11751280151077 l -18.371132189446065 -24.83336830418216 a51.89004174897244,51.89004174897244 0 0,0 0.7226421782897522,-0.5250302750579389 l 17.940944694802532 25.145917814056766" fill="#86ff25" stroke="none" /><path d="M 88.09926311788651 82.69761687909137 l -8.076820576267881 -11.742822767509718 a35.25233023650409,35.25233023650409 0 0,0 0.5029253642898586,-0.33957745097896896 l 7.873490517571483 11.880112130787351" fill="#ffb010" stroke="none" /><path d="M 88.39885842347998 82.49532879139004 l -14.776787427048399 -22.29632348884707 a47.74844832478118,47.74844832478118 0 0,0 0.6890168719068435,-0.4481557397393914 l 14.39080352935727 22.547378152745996" fill="#b5ff20" stroke="none" /><path d="M 89.00827224532344 82.1063720568725 l -7.879045917193693 -12.826438148370087 a36.05313522623145,36.05313522623145 0 0,0 0.5315913475155235,-0.32027783886192224 l 7.65709250346052 12.96016259669063" fill="#ffbb11" stroke="none" /><line stroke="#e1ed5e" stroke-width="0.3" x1="56.762969772571076" x2="54.21961505331055" y1="26.818313649435495" y2="22.513508569990535" /><path d="M 56.25429882871897 25.957352633546506 a86.0,86.0 0 0,1 42.265352541879196,-11.944610805530505" fill="none" id="id84" stroke="none" /><text fill="#e1ed5e" style="font-size:6.75px; font-family:Arial;" text-anchor="middle"><textPath startOffset="22.20632615414155" xlink:href="#id84">December</textPath></text><path d="M 89.3179101791058 81.91981866633112 l -10.458773817432562 -17.702203437489874 a41.56098140426403,41.56098140426403 0 0,0 0.6190671802477073,-0.35860366882105715 l 10.152509904719533 17.879611263700976" fill="#feff18" stroke="none" /><path d="M 89.63071344664047 81.73862282372117 l -10.927646525606265 -19.244706357207946 a43.1307971244543,43.1307971244543 0 0,0 0.6487609443207523,-0.36103476311593014 l 10.594761492213468 19.429956517884058" fill="#ebff1a" stroke="none" /><path d="M 89.94658935756843 81.56283822128135 l -11.337480687661925 -20.792044912527704 a44.68222117935048,44.68222117935048 0 0,0 0.6784355978644651,-0.36239680066654645 l 10.977900043269155 20.984120439696" fill="#d8ff1c" stroke="none" /><path d="M 90.26544431104013 81.39251694778311 l -9.474647714611676 -18.110672167123802 a41.43931005834172,41.43931005834172 0 0,0 0.6348887339442335,-0.3252146687384477 l 9.161498493078678 18.271079361174753" fill="#ffff18" stroke="none" /><path d="M 91.23893434514133 80.91482961587045 l -6.839053095554596 -14.89824397359497 a37.39299608798141,37.39299608798141 0 0,0 0.5872799406627724,-0.2634953905760103 l 6.581591036425049 15.01375969468751" fill="#ffcc13" stroke="none" /><path d="M 91.56875222667455 80.76684994638697 l -6.712731694527876 -15.312914460771013 a37.719632654027095,37.719632654027095 0 0,0 0.5968974562436317,-0.2555603399564419 l 6.448150480493936 15.42619432869024" fill="#ffd013" stroke="none" /><path d="M 92.23578459929587 80.48803036053334 l -10.018154672958993 -25.176263116622106 a48.09626630310377,48.09626630310377 0 0,0 0.7718691164192737,-0.29947322546446814 l 9.583302391540041 25.344979045977126" fill="#b1ff20" stroke="none" /><path d="M 92.57280143429618 80.3572730644239 l -11.895752026590152 -31.46071923142316 a54.634591878549124,54.634591878549124 0 0,0 0.8825247233050618,-0.3250413035257698 l 11.352444977512521 31.66082380275525" fill="#69ff28" stroke="none" /><path d="M 92.91201910852362 80.23233633223022 l -2.1309931784605447 -5.943124999218986 a27.313625478517636,27.313625478517636 0 0,0 0.4439348528616014,-0.15488015327407967 l 2.028376321535658 5.978926005665276" fill="#ff4406" stroke="none" /><path d="M 93.59665428221793 80.00007090966166 l -2.932592690615912 -9.159531352537671 a30.61754201899708,30.61754201899708 0 0,0 0.5033153979334133,-0.15638254415172584 l 2.77449191997177 9.208654031571921" fill="#ff720a" stroke="none" /><path d="M 93.94186890950719 79.89281104454417 l -1.9153604923961849 -6.35716110515729 a27.63943545286471,27.63943545286471 0 0,0 0.456721641845054,-0.1333295713866169 l 1.8056486328277097 6.3891890054626055" fill="#ff4906" stroke="none" /><path d="M 94.28887869178378 79.79150937346287 l -2.568140568762945 -9.087225049275869 a30.443145931156252,30.443145931156252 0 0,0 0.5055042497554489,-0.13817340699182742 l 2.411338429783773 9.130084997093993" fill="#ff700a" stroke="none" /><path d="M 94.63758080256005 79.69619591428918 l -2.4003362541438187 -9.088427302966524 a30.400059838866163,30.400059838866163 0 0,0 0.507089083095188,-0.1292682980903819 l 2.2435382823636316 9.12839859722577" fill="#ff6f0a" stroke="none" /><path d="M 94.98787191387505 79.60689891045804 l -4.545402444235979 -18.494110674178927 a40.04449560920019,40.04449560920019 0 0,0 0.6707954772785447,-0.15875561693918377 l 4.2263832799949 18.56961220325898" fill="#ffee16" stroke="none" /><path d="M 95.33964822691252 79.52364482259891 l -2.532712168967699 -11.128068536240722 a32.41264825875694,32.41264825875694 0 0,0 0.5450839315253677,-0.11913423507345221 l 2.3407855132888105 11.170016269410041" fill="#ff8b0c" stroke="none" /><path d="M 96.04723909329186 79.375362276772 l -3.3335020172872944 -17.393480931144175 a38.71003711462329,38.71003711462329 0 0,0 0.6554989552499105,-0.11978824422804434 l 3.0336079409344907 17.448284656722954" fill="#ffdd14" stroke="none" /><path d="M 96.40284397218896 79.31037775812273 l -1.9921818371879565 -11.45835469183966 a32.630248523416235,32.630248523416235 0 0,0 0.5542026973682058,-0.09144819365770303 l 1.794649933680865 11.49094914843699" fill="#ff8e0d" stroke="none" /><path d="M 96.75951476605007 79.25152402106235 l -1.4364770496178523 -9.197606965164727 a30.309105230886882,30.309105230886882 0 0,0 0.5161655336198786,-0.07606938218158892 l 1.277942535569325 9.220970831507284" fill="#ff6e0a" stroke="none" /><path d="M 97.11714578562143 79.19881850522333 l -2.0262961720778727 -14.62070271446204 a35.76044796209299,35.76044796209299 0 0,0 0.6104568522081681,-0.07925481964559229 l 1.7743245913618468 14.653415857271767" fill="#ffb711" stroke="none" /><path d="M 97.47563105711357 79.15227682838746 l -0.718481230305404 -5.933640498793192 a26.976981248692343,26.976981248692343 0 0,0 0.4614776144440131,-0.05185238696880999 l 0.6162369123516729 5.9451288392326" fill="#ff4006" stroke="none" /><path d="M 97.83486435360386 79.11191278185805 l -1.8422383540243348 -17.77294437857401 a38.86816705868075,38.86816705868075 0 0,0 0.6660798419275331,-0.06325230690111482 l 1.5360333850065653 17.802022229990307" fill="#ffdf14" stroke="none" /><path d="M 98.55514903715128 79.0497635885617 l -1.2452393932238397 -18.055882819525802 a39.09877138202711,39.09877138202711 0 0,0 0.6718247884942212,-0.04052630591588423 l 0.9342525558899956 18.074642394821993" fill="#ffe215" stroke="none" /><path d="M 99.27714615592234 79.0124445844662 l -0.36422501689138326 -10.575018433339569 a31.581288897313087,31.581288897313087 0 0,0 0.5434588873192685,-0.01403593969956251 l 0.18213949437723573 10.57972116518149" fill="#ff800b" stroke="none" /><path d="M 99.63851952072746 79.00311137660856 l -0.08459886626202469 -4.913994183430458 a25.91472235258119,25.91472235258119 0 0,0 0.4460793455345592,-0.0038395457592913704 l 1.2037597995573008e-15 4.91472235258119" fill="#ff3104" stroke="none" /></svg>