<?xml version="1.0" encoding="utf-8" ?>
<svg baseProfile="full" height="200mm" version="1.1" viewBox="0,0,200,200" width="200mm" xmlns="http://www.w3.org/2000/svg" xmlns:ev="http://www.w3.org/2001/xml-events" xmlns:xlink="http://www.w3.org/1999/xlink"><defs /><rect fill="#1a1a1a" height="200" width="200" x="0" y="0" /><rect fill="#1a1a1a" height="200" width="180" x="10" y="0" /><text alignment-baseline="middle" fill="#e1ed5e" style="dominant-baseline: central; font-size:9.0px; font-family:Arial;" text-anchor="middle" x="100.0" y="100.0">2025</text><line stroke="#e1ed5e" stroke-width="0.3" x1="100.0" x2="100.0" y1="15.0" y2="10.0" /><path d="M 100.0 14.0 a86.0,86.0 0 0,1 42.46469731375804,11.215312516191453" fill="none" id="id121" stroke="none" /><text fill="#e1ed5e" style="font-size:6.75px; font-family:Arial;" text-anchor="middle"><textPath startOffset="22.20632615414155" xlink:href="#id121">January</textPath></text><path d="M 100.0 79.0 l 0.0 -30.0246602091162 a51.0246602091162,51.0246602091162 0 0,0 0.8783056489099634,0.007559854011157554 l -0.5168251696374351 30.0202117317136" fill="#9dff22" stroke="none" /><path d="M 100.36148047927253 79.00311137660856 l 0.3062279504496 -17.787500398083974 a38.79013619873311,38.79013619873311 0 0,0 0.6675105733040735,0.017239828760426453 l -0.6123651589485413 17.779593777181187" fill="#ffc912" stroke="none" /><path d="M 100.72285384407766 79.0124445844662 l 0.5029981086484606 -14.60419802102358 a35.61285758962199,35.61285758962199 0 0,0 0.612471904919293,0.02637432859470034 l -0.7543108459570852 14.593375965904684" fill="#ff9e0e" stroke="none" /><path d="M 101.08401301168833 79.027996857942 l 1.1286350061694272 -21.835288543960115 a42.86443785637186,42.86443785637186 0 0,0 0.736529330177857,0.044429460570682956 l -1.5043263851868962 21.812625814009127" fill="#fffe18" stroke="none" /><path d="M 101.44485096284872 79.0497635885617 l 2.6149642800540285 -37.916796460850335 a59.00686111795489,59.00686111795489 0 0,0 1.0126976972307027,0.07860483185030835 l -3.267252166647072 37.86616636681157" fill="#45ff2d" stroke="none" /><path d="M 101.80526077348638 79.07773832637324 l 0.8489227403545455 -9.838680358676811 a30.875236757632898,30.875236757632898 0 0,0 0.5291058049624647,0.05024497162652661 l -1.0181536724072544 9.822609842535105" fill="#ff5c08" stroke="none" /><path d="M 102.16513564639614 79.11191278185805 l 1.628638919313459 -15.71224964593089 a36.79643167508276,36.79643167508276 0 0,0 0.6294525452247209,0.07072632763089991 l -1.898858168047905 15.681887364829388" fill="#ffae10" stroke="none" /><path d="M 102.52436894288641 79.15227682838746 l 2.563975573833692 -21.17481802043646 a42.32948402896368,42.32948402896368 0 0,0 0.7225950749640875,0.09381357934785067 l -2.9280853773056252 21.127546117924474" fill="#fff717" stroke="none" /><path d="M 102.88285421437855 79.19881850522331 l 2.0058092455481655 -14.472879673363051 a35.61121202259319,35.61121202259319 0 0,0 0.6064606697053007,0.08937653806208945 l -2.254638895682122 14.436208651139992" fill="#ff9e0e" stroke="none" /><path d="M 103.2404852339499 79.25152402106235 l 0.571994657134156 -3.6624198374027164 a24.70681763149888,24.70681763149888 0 0,0 0.41962858373374956,0.06924231183251811 l -0.6349524470067808 3.6520312626305733" fill="#ff0000" stroke="none" /><path d="M 103.59715602781102 79.31037775812273 l 5.573387255564452 -32.056234434593534 a53.53712973859416,53.53712973859416 0 0,0 0.9065745017710028,0.1656706955202668 l -6.1243568784383555 31.95554825772253" fill="#80ff25" stroke="none" /><path d="M 103.95276090670814 79.375362276772 l 5.3376055655770465 -27.850452809500247 a49.35732277327814,49.35732277327814 0 0,0 0.8330425299820473,0.16710049465716137 l -5.816214505026219 27.754448358765874" fill="#b0ff20" stroke="none" /><path d="M 104.307194497241 79.44645832069477 l 0.7871993738128381 -3.756444049589392 a24.838040483349136,24.838040483349136 0 0,0 0.4177016530697129,0.09129340281251774 l -0.8517437510360789 3.7423371486810035" fill="#ff0200" stroke="none" /><path d="M 104.66035177308747 79.52364482259891 l 4.205253444690313 -18.476773286026365 a39.94928250877318,39.94928250877318 0 0,0 0.6692005385442276,0.15837814647117437 l -4.522677670197064 18.40164922741432" fill="#ffd914" stroke="none" /><path d="M 105.01212808612495 79.60689891045804 l 4.2460024380644725 -17.275926604029678 a38.79005836786012,38.79005836786012 0 0,0 0.6470386977928793,0.16494457098498308 l -4.542750024542377 17.200279036875827" fill="#ffc912" stroke="none" /><path d="M 105.36241919743992 79.69619591428918 l 5.174675489187004 -19.592947412567476 a41.26476880524491,41.26476880524491 0 0,0 0.6851958087183082,0.18728989794434014 l -5.511169187129023 19.500970973796843" fill="#ffea16" stroke="none" /><path d="M 105.71112130821622 79.79150937346287 l 3.0852097125599727 -10.916845955885114 a32.344427909550994,32.344427909550994 0 0,0 0.5344682327025523,0.1560259332098115 l -3.2726681629859518 10.862121693756597" fill="#ff710a" stroke="none" /><path d="M 106.0581310904928 79.89281104454417 l 7.064000128084407 -23.445710110113108 a45.48676010371802,45.48676010371802 0 0,0 0.7477473778953327,0.23232875015980664 l -7.466532878690458 23.32064122507078" fill="#dfff1b" stroke="none" /><path d="M 106.40334571778207 80.00007090966166 l 19.21003715334621 -59.99978727101504 a84.0,84.0 0 0,0 1.37326871103033,0.45274510296305515 l -20.239988686618958 59.66022844379275" fill="#4dd2ff" stroke="none" /><path d="M 106.74666289553966 80.11325718540242 l 2.7762716447705635 -8.183453217962477 a29.641561827363006,29.641561827363006 0 0,0 0.48177135615952904,0.1680805663355071 l -2.916725004993366 8.134451798454762" fill="#ff4a06" stroke="none" /><path d="M 107.08798089147638 80.2323363322302 l 5.630253865578701 -15.702210048669878 a37.68110185219829,37.68110185219829 0 0,0 0.6086712253633031,0.22417874908908095 l -5.89970741671458 15.602968031774473" fill="#ffba11" stroke="none" /><path d="M 107.4271985657038 80.35727306442388 l 4.290865039518054 -11.348059371653052 a33.13218753110588,33.13218753110588 0 0,0 0.5317192846843237,0.20629882170279734 l -4.485567489202045 11.272517846059708" fill="#ff7c0b" stroke="none" /><path d="M 107.76421540070413 80.48803036053334 l 8.325311460059604 -20.922039905417215 a43.51760566114591,43.51760566114591 0 0,0 0.6936211700798686,0.2829454910659674 l -8.68421649972786 20.77563352816767" fill="#f8ff18" stroke="none" /><path d="M 108.09893153111575 80.62456947434976 l 1.4289063983599248 -3.4184356964511484 a24.70506087750868,24.70506087750868 0 0,0 0.3909472854464372,0.16738322492190114 l -1.4875374415966773 3.3933329435664565" fill="#ff0000" stroke="none" /><path d="M 108.76106565485865 80.91482961587045 l 7.43195977063334 -16.18983627087339 a38.814174819788875,38.814174819788875 0 0,0 0.6048020814981628,0.28396268677391545 l -7.709540063431101 16.059508601459473" fill="#ffca12" stroke="none" /><path d="M 109.08828744355905 81.06846463323043 l 5.9384672232128795 -12.37024059360408 a34.72181639961794,34.72181639961794 0 0,0 0.5365822420602105,0.26329857582785354 l -6.150520732283522 12.266186857641395" fill="#ff920d" stroke="none" /><path d="M 109.41281617654863 81.2277094730956 l 10.089239012788738 -20.121302954510103 a43.50909985859842,43.50909985859842 0 0,0 0.6665998368551238,0.34145832731532594 l -10.434099337232619 19.944652101882276" fill="#f8ff18" stroke="none" /><path d="M 109.73455568895987 81.39251694778311 l 5.258877561097681 -10.052279551165064 a32.34478370782749,32.34478370782749 0 0,0 0.491109262105294,0.262333559625833 l -5.431131869731286 9.960267265037478" fill="#ff710a" stroke="none" /><path d="M 110.05341064243156 81.56283822128135 l 6.994290798854867 -12.826977388312567 a35.609977847321595,35.609977847321595 0 0,0 0.535634961459398,0.298080276132487 l -7.2140498493863 12.7046817146199" fill="#ff9e0e" stroke="none" /><path d="M 110.36928655335952 81.73862282372117 l 11.118577241934096 -19.580954932021424 a43.51747223679223,43.51747223679223 0 0,0 0.6482098814532365,0.37548500239050925 l -11.45398385585266 19.386665772240864" fill="#f8ff18" stroke="none" /><line stroke="#e1ed5e" stroke-width="0.3" x1="143.23703022742887" x2="145.7803849466894" y1="26.81831364943548" y2="22.513508569990506" /><path d="M 143.74570117128098 25.957352633546492 a86.0,86.0 0 0,1 28.547481713284135,27.462654790039103" fill="none" id="id122" stroke="none" /><text fill="#e1ed5e" style="font-size:6.75px; font-family:Arial;" text-anchor="middle"><textPath startOffset="19.985693538727396" xlink:href="#id122">February</textPath></text><path d="M 111.2981086023043 82.29822771554956 l 4.6489477309002085 -7.283928398238601 a29.641083723428963,29.641083723428963 0 0,0 0.42772503617561153,0.2782042614745406 l -4.7736397928600995 7.202825212604533" fill="#ff4a06" stroke="none" /><path d="M 111.90073688211348 82.69761687909136 l 10.09570851731382 -14.678067280533183 a38.81485306025345,38.81485306025345 0 0,0 0.5472318720370132,0.38337089764700977 l -10.346871528934484 14.502111540122238" fill="#ffca12" stroke="none" /><path d="M 112.19680574252982 82.90503203632743 l 12.845726991232555 -18.0044919973987 a43.11728812530312,43.11728812530312 0 0,0 0.6004691837318127,0.4362663987378241 l -13.153741491318158 17.7807063638442" fill="#fdff18" stroke="none" /><path d="M 112.77801427241765 83.33499621200491 l 23.68867554210082 -30.89461783540524 a59.93110273463449,59.93110273463449 0 0,0 0.8132577720364985,0.6347605907555164 l -24.21696586929675 30.4822788554265" fill="#3cff2e" stroke="none" /><path d="M 113.06298171725822 83.55741782278167 l 5.791812716435563 -7.290246484784798 a30.310896216325354,30.310896216325354 0 0,0 0.40572809108921337,0.32807056649669125 l -5.916444206089267 7.189469821023977" fill="#ff5407" stroke="none" /><path d="M 113.34407831869373 83.78471172551755 l 7.066761271483145 -8.587297559811136 a32.121186728441906,32.121186728441906 0 0,0 0.4239116574150715,0.3550138220384941 l -7.213530465857334 8.464382580378823" fill="#ff6e0a" stroke="none" /><path d="M 113.89432698308785 84.25364557470407 l 18.768343829920187 -21.270047428814784 a49.36662912194774,49.36662912194774 0 0,0 0.6323371815822743,0.5677185650794689 l -19.13169199909845 20.94382985496602" fill="#b0ff20" stroke="none" /><path d="M 114.16331599549186 84.49514656593476 l 3.4917734745026294 -3.822511335929555 a26.177265196080853,26.177265196080853 0 0,0 0.3300730213206549,0.30676690066016304 l -3.557054379618131 3.761839849194751" fill="#ff1602" stroke="none" /><path d="M 114.94478906791727 85.2469230424477 l 22.838716535461895 -22.54574093539537 a53.0923262994932,53.0923262994932 0 0,0 0.636439802510367,0.6559071611249924 l -23.22342060167537 22.149269578720265" fill="#85ff25" stroke="none" /><path d="M 115.19652480421416 85.50635884689758 l 6.739246952141962 -6.427537099758367 a30.312930937719067,30.312930937719067 0 0,0 0.35687367117412816,0.3806879501114239 l -6.848887945286553 6.310579732768888" fill="#ff5407" stroke="none" /><path d="M 115.68641384162765 86.03803664274999 l 14.654750245000795 -13.043713368531215 a40.618872627746754,40.618872627746754 0 0,0 0.46036296084279793,0.5262744460277993 l -14.877105069421441 12.789523366300468" fill="#ffe115" stroke="none" /><path d="M 116.15771136456269 86.58626213691792 l 14.600296552474916 -12.12081007386283 a39.97584507385285,39.97584507385285 0 0,0 0.43497813713786854,0.5332317637371525 l -14.806773181689193 11.867694140517575" fill="#ffd914" stroke="none" /><path d="M 116.60985879189232 87.15038557335679 l 19.83318682077583 -15.343225170761176 a46.075283809131165,46.075283809131165 0 0,0 0.47989395857425426,0.6314841969461938 l -20.094356719574197 14.99955619793395" fill="#d8ff1c" stroke="none" /><path d="M 117.04232023915458 87.72973835380427 l 14.036117163717682 -10.105832285664082 a38.29567666266864,38.29567666266864 0 0,0 0.3805630683604714,0.5382794715562846 l -14.207992851882036 9.862726313776003" fill="#ffc312" stroke="none" /><path d="M 117.45458315368197 88.32363383020206 l 10.497467298070623 -7.022354584382952 a33.6297380646974,33.6297380646974 0 0,0 0.3177263420984586,0.48391901696733197 l -10.616790275527007 6.8406175034379455" fill="#ff830c" stroke="none" /><path d="M 117.65298651832404 88.62581576622439 l 6.545279557714717 -4.217258959198508 a28.786267245450688,28.786267245450688 0 0,0 0.2647958304242867,0.4188434128749979 l -6.616902984384959 4.103967898609304" fill="#ff3d05" stroke="none" /><line stroke="#e1ed5e" stroke-width="0.3" x1="172.23445277983987" x2="176.4835382374775" y1="55.19839476539836" y2="52.563006222186495" /><path d="M 173.08426987136738 54.67131705675599 a86.0,86.0 0 0,1 12.851231095245387,41.99856678651699" fill="none" id="id123" stroke="none" /><text fill="#e1ed5e" style="font-size:6.75px; font-family:Arial;" text-anchor="middle"><textPath startOffset="22.20632615414155" xlink:href="#id123">March</textPath></text><path d="M 118.03404312379186 89.2402003453031 l 42.32462035840595 -25.252486776897523 a70.28551082113866,70.28551082113866 0 0,0 0.6109495250147611,1.0443107804484921 l -42.75302955789104 24.520196584095135" fill="#3bff9d" stroke="none" /><path d="M 118.3937258080291 89.86733742301442 l 3.243625192000257 -1.7868353556951475 a24.703226292645496,24.703226292645496 0 0,0 0.20196875607717626,0.37421743127295887 l -3.2739020472958975 1.73073694108973" fill="#ff0000" stroke="none" /><path d="M 118.56541770881063 90.18545643968196 l 9.830277621113071 -5.196742105977357 a32.11937438097101,32.11937438097101 0 0,0 0.2541874778531433,0.491009300963045 l -9.91827453212633 5.026760082753967" fill="#ff6d0a" stroke="none" /><path d="M 118.73160827565052 90.50648371742162 l 12.98431215716352 -6.580683146270396 a35.55670817411243,35.55670817411243 0 0,0 0.2719918638337556,0.5483190003203486 l -13.095664033950685 6.356204557451098" fill="#ff9e0e" stroke="none" /><path d="M 119.04729006885535 91.15688171328212 l 9.133702371479275 -4.240519789150287 a31.07008078879913,31.07008078879913 0 0,0 0.22103800388610548,0.4870279418653198 l -9.20534269232873 4.0826698384429045" fill="#ff5e08" stroke="none" /><path d="M 119.196687751892 91.48605970444005 l 5.190302961904791 -2.301955947018517 a26.677873371111016,26.677873371111016 0 0,0 0.18256467833662923,0.4213844484670388 l -5.229158350084101 2.2122723539648756" fill="#ff1e03" stroke="none" /><path d="M 119.47837535516314 92.15188598940014 l 16.406429356949186 -6.610383348324753 a38.688077686859394,38.688077686859394 0 0,0 0.24356254347050835,0.6198401064958592 l -16.517785450301393 6.326994236933109" fill="#ffc812" stroke="none" /><path d="M 119.7369772167798 92.82701384747503 l 15.721233370640999 -5.713549143297844 a37.727277797269814,37.727277797269814 0 0,0 0.2165670051377786,0.6122640867510494 l -15.817253456588587 5.44208743012018" fill="#ffbb11" stroke="none" /><path d="M 120.08093135843002 93.85539295169968 l 25.11257951273642 -7.684251806885638 a47.26193777342286,47.26193777342286 0 0,0 0.2313451663895978,0.7799808932229764 l -25.241130576237722 7.2508415269161315" fill="#c9ff1d" stroke="none" /><path d="M 120.28053869075195 94.5502522615342 l 14.76640801109277 -3.96800104232006 a36.2902530332862,36.2902530332862 0 0,0 0.15691848060844102,0.6046709168611197 l -14.832522823571512 3.7132336999100897" fill="#ffa80f" stroke="none" /><path d="M 120.37134235888165 94.90015583598534 l 7.554891890217271 -1.8913221641129643 a28.788035118137028,28.788035118137028 0 0,0 0.1162038629979841,0.4817400329533812 l -7.586328553476075 1.760996899500177" fill="#ff3d05" stroke="none" /><path d="M 120.45610955862082 95.25157060432595 l 14.691350431070504 -3.410269193618222 a36.081966498486096,36.081966498486096 0 0,0 0.13523110911596628,0.606214546011083 l -14.747875927188508 3.156876478057175" fill="#ffa50f" stroke="none" /><path d="M 120.67395015179393 96.31383870115 l 23.255616122407275 -4.146471840258893 a44.62238154705891,44.62238154705891 0 0,0 0.12831726457910658,0.7573357591697573 l -23.323545248506605 3.7455502927732978" fill="#eaff1a" stroke="none" /><path d="M 120.78858239683441 97.02765380044208 l 5.728159330629092 -0.8190107575324725 a26.78641408283464,26.78641408283464 0 0,0 0.061333236190295744,0.45700384989240084 l -5.741408565877224 0.7202885655754073" fill="#ff2003" stroke="none" /><path d="M 120.83666639777658 97.38593545837742 l 11.144701737464803 -1.3981588552943847 a32.23206236635504,32.23206236635504 0 0,0 0.0643254455114403,0.5511011342544591 l -11.167117535979834 1.2061139827150729" fill="#ff6f0a" stroke="none" /><path d="M 120.96714384426684 98.82574320788733 l 25.630492865078658 -1.4354258527321266 a46.67065663136687,46.67065663136687 0 0,0 0.03801745411124416,0.8024883693427723 l -25.6514039274234 0.9940263767663544" fill="#d1ff1d" stroke="none" /><line stroke="#e1ed5e" stroke-width="0.3" x1="184.98032266829074" x2="189.97916517819016" y1="98.17113171792111" y2="98.06355123074" /><path d="M 185.9800911702706 98.14961562048488 a86.0,86.0 0 0,1 -9.607161424134198,41.387399972396054" fill="none" id="id124" stroke="none" /><text fill="#e1ed5e" style="font-size:6.75px; font-family:Arial;" text-anchor="middle"><textPath startOffset="21.466115282336823" xlink:href="#id124">April</textPath></text><path d="M 120.99513854157772 99.54816195383933 l 13.475841485538258 -0.29001465625665324 a34.478961838517,34.478961838517 0 0,0 0.007662527118519808,0.5934711697305173 l -13.478837019774494 0.058007228465673244" fill="#ff8f0d" stroke="none" /><path d="M 120.99980553446 99.90962569577887 l 12.633356957299029 -0.054368638943800195 a33.63347394660061,33.63347394660061 0 0,0 -0.0024916041229598265,0.5789610498466395 l -12.632421055886565 -0.16310188910652404" fill="#ff830c" stroke="none" /><path d="M 120.9904718944345 100.63252640178507 l 14.993215908391608 0.4518052265531077 a36.00002170793056,36.00002170793056 0 0,0 -0.02399635815340062,0.6192393785187722 l -14.983217417387005 -0.709821852085886" fill="#ffa40f" stroke="none" /><path d="M 120.9764740272857 100.99374915477107 l 25.832858886042853 1.223817770800399 a46.86183149280673,46.86183149280673 0 0,0 -0.04510707707444401,0.8054171623846352 l -25.80796545808088 -1.6683066495204575" fill="#ceff1d" stroke="none" /><path d="M 120.92983693683757 101.71520430193887 l 12.491685483264648 1.023696111155667 a33.53356134308202,33.53356134308202 0 0,0 -0.052097427480262415,0.5748907710360819 l -12.47221345950731 -1.2385682707403196" fill="#ff810b" stroke="none" /><path d="M 120.89721153311464 102.0752229133903 l 13.3901387886852 1.3297239578458793 a34.456001730986856,34.456001730986856 0 0,0 -0.06369060412727058,0.5896958931076509 l -13.365265883056876 -1.5600161728383215" fill="#ff8e0d" stroke="none" /><path d="M 120.81339534386255 102.79330883721812 l 16.799302677068912 2.254588444205762 a37.94991856878731,37.94991856878731 0 0,0 -0.09246398082927167,0.6466928665626325 l -16.75800464522304 -2.5434267827488037" fill="#ffbe11" stroke="none" /><path d="M 120.64145759157962 103.86396538481128 l 24.89318185925481 4.659864381922841 a46.32557677795011,46.32557677795011 0 0,0 -0.1534701657801432,0.7825410689351325 l -24.809281760499005 -5.0876691779259176" fill="#d5ff1c" stroke="none" /><path d="M 120.49622156327973 104.57218783832717 l 16.65684346259574 3.7157198398480356 a38.06625348650543,38.06625348650543 0 0,0 -0.14816733414909877,0.6383009976149062 l -16.59041556251609 -4.001889494811507" fill="#ffc011" stroke="none" /><path d="M 120.32669344350535 105.2749913415812 l 9.690828475865576 2.514872202161967 a31.011829939719018,31.011829939719018 0 0,0 -0.13853711537174798,0.5155481433701857 l -9.646103284152051 -2.681311278707701" fill="#ff5e08" stroke="none" /><path d="M 120.23288151984713 105.62410040840565 l 3.5720309439511304 0.9929114976038762 a24.707462515875026,24.707462515875026 0 0,0 -0.1174279372830965,0.4087820547805491 l -3.5544103697819347 -1.0542510278890074" fill="#ff0000" stroke="none" /><path d="M 120.02730092923936 106.31721596034902 l 46.857755666200525 14.78035223051393 a70.13357383837864,70.13357383837864 0 0,0 -0.37306969817481467,1.148190468291576 l -46.59639371700946 -15.584741598783301" fill="#3bff9b" stroke="none" /><path d="M 119.41010516605496 108.01547362559984 l 10.425121248195317 4.305091790781562 a32.27904997624482,32.27904997624482 0 0,0 -0.216498691295167,0.5117389535422343 l -10.349471575707842 -4.48390526998996" fill="#ff700a" stroke="none" /><path d="M 118.81262510543309 109.33194174019688 l 3.3214001568612552 1.6475697881609628 a24.707584821532574,24.707584821532574 0 0,0 -0.19227363704302103,0.3793741268905531 l -3.292547850031965 -1.7044981267542103" fill="#ff0000" stroke="none" /><line stroke="#e1ed5e" stroke-width="0.3" x1="174.80103733775053" x2="179.2010983576182" y1="140.37084112569926" y2="142.7455964860345" /><path d="M 175.68104954172406 140.8457921977663 a86.0,86.0 0 0,1 -30.038265399797805,32.042727171017184" fill="none" id="id125" stroke="none" /><text fill="#e1ed5e" style="font-size:6.75px; font-family:Arial;" text-anchor="middle"><textPath startOffset="22.206326154141568" xlink:href="#id125">May</textPath></text><path d="M 118.30583269289576 110.29060199501025 l 11.632226283577447 6.539042118889658 a34.34420324129406,34.34420324129406 0 0,0 -0.2941303046039863,0.512840978394207 l -11.51794398282108 -6.73830294314218" fill="#ff8d0d" stroke="none" /><path d="M 118.12598468904814 110.60418214915192 l 5.91673252327474 3.461445570045412 a27.854876307152747,27.854876307152747 0 0,0 -0.24567884748309668,0.4117718798025746 l -5.856272800093416 -3.5627795437340906" fill="#ff3004" stroke="none" /><path d="M 117.35343817320211 111.8261652097733 l 4.441626327117782 3.026916408166794 a26.3749667321552,26.3749667321552 0 0,0 -0.25890055789501476,0.37296556336381703 l -4.388864862060631 -3.1029232337176307" fill="#ff1902" stroke="none" /><path d="M 116.71984013943494 112.70617746262583 l 16.172368131915604 12.29012824054303 a41.312379062118566,41.312379062118566 0 0,0 -0.4351436482401731,0.5624818233045048 l -15.958417666457363 -12.566688057960787" fill="#ffea16" stroke="none" /><path d="M 116.498646956653 112.99209946851258 l 9.299036355438131 7.322661404209826 a32.83610777158033,32.83610777158033 0 0,0 -0.3535074192852723,0.4410548598089388 l -9.171611024098004 -7.481644097597015" fill="#ff780b" stroke="none" /><path d="M 115.80600337817218 113.82643327865902 l 8.485107108256226 7.422418209564308 a32.2733905599093,32.2733905599093 0 0,0 -0.36936303871033627,0.41498328958175196 l -8.356085219897553 -7.5673756688869265" fill="#ff700a" stroke="none" /><path d="M 115.07121518719521 114.62390073753431 l 6.23571497781614 6.050638633347657 a29.688749573783316,29.688749573783316 0 0,0 -0.3590350611733688,0.363700621413488 l -6.130639291587236 -6.157079748741809" fill="#ff4a06" stroke="none" /><path d="M 114.55890576462653 115.13401014063108 l 5.733225706369417 5.959698989846941 a29.269697034943768,29.269697034943768 0 0,0 -0.3661000261579694,0.34617042554383975 l -5.62978984582064 -6.057504052136702" fill="#ff4406" stroke="none" /><path d="M 114.29624159901734 115.38237550388516 l 6.17808814845885 6.647458434266306 a30.07510202727363,30.07510202727363 0 0,0 -0.38224087051949357,0.34916797237599206 l -6.062747728472493 -6.752819173228881" fill="#ff5007" stroke="none" /><path d="M 114.0293411484842 115.62618273729858 l 6.597043704357173 7.347929554152175 a30.87486984066026,30.87486984066026 0 0,0 -0.3985175987297489,0.35164544603231596 l -6.469583752720836 -7.46039814195678" fill="#ff5c08" stroke="none" /><path d="M 113.75828350139079 115.86535959552629 l 8.92907337899953 10.296557706369994 a34.62891969336401,34.62891969336401 0 0,0 -0.45369577697549573,0.38664938385819675 l -8.750512125446987 -10.448731480451137" fill="#ff910d" stroke="none" /><path d="M 112.92097659922987 116.55440617244103 l 6.648994252105766 8.518717655919684 a31.80637196591961,31.80637196591961 0 0,0 -0.4344921127558216,0.33315002436700564 l -6.50137341085645 -8.63190702211406" fill="#ff6909" stroke="none" /><path d="M 112.63410532772338 116.77436683061366 l 4.017050202241902 5.333458279909618 a27.677010524993065,27.677010524993065 0 0,0 -0.3830169158307889,0.28334675769039097 l -3.924648315992548 -5.401814986339779" fill="#ff2d04" stroke="none" /><path d="M 112.34349029814194 116.9893568818739 l 8.419334316039139 11.588219534998801 a35.32382708344952,35.32382708344952 0 0,0 -0.4949922374500301,0.3531638185615621 l -8.218614750740224 -11.731427615404582" fill="#ff9a0e" stroke="none" /><path d="M 112.04921762599082 117.19931262002967 l 7.6810377988156375 10.964078701934085 a34.386910153169744,34.386910153169744 0 0,0 -0.4877097356291944,0.3354512033405611 l -7.49117117856356 -11.094670694639738" fill="#ff8d0d" stroke="none" /><path d="M 111.7513745106137 117.40417183066458 l 3.5626056447715007 5.276336036307693 a27.366465341788718,27.366465341788718 0 0,0 -0.3926765911208008,0.2602446325948122 l -3.471254354910736 -5.336878689993824" fill="#ff2803" stroke="none" /><line stroke="#e1ed5e" stroke-width="0.3" x1="143.8653032363475" x2="146.44561519142675" y1="172.8068346515853" y2="177.08958963109032" /><path d="M 144.38136562736335 173.6633856474863 a86.0,86.0 0 0,1 -40.68145358897372,12.25698825130547" fill="none" id="id126" stroke="none" /><text fill="#e1ed5e" style="font-size:6.75px; font-family:Arial;" text-anchor="middle"><textPath startOffset="21.466115282336833" xlink:href="#id126">June</textPath></text><path d="M 109.89434966115114 118.52300852407294 l 3.5099151976893213 6.570840060448041 a28.44952641413931,28.44952641413931 0 0,0 -0.43393533948864693,0.22701446056975963 l -3.3962889556741787 -6.630283939962518" fill="#ff3805" stroke="none" /><path d="M 109.57404056367764 118.69057910512821 l 5.072600871523076 9.902804069750614 a32.126401396931804,32.126401396931804 0 0,0 -0.49435814626826746,0.24788143724567968 l -4.901388817572048 -9.988653347905597" fill="#ff6e0a" stroke="none" /><path d="M 108.92500713936063 119.00905698771935 l 4.896274644209761 10.428402161029112 a32.52063700598574,32.52063700598574 0 0,0 -0.5087652406903201,0.23354916864165837 l -4.716041407752022 -10.511138400004844" fill="#ff730a" stroke="none" /><path d="M 108.2653958097858 119.30500536409082 l 4.424349007591128 10.33369523853088 a32.241001798052004,32.241001798052004 0 0,0 -0.5120616320973341,0.21404180374611367 l -4.245815915996333 -10.408322085296966" fill="#ff6f0a" stroke="none" /><path d="M 107.93186726928326 119.44442032107085 l 3.6342924354900132 8.909214852726809 a30.621963978248303,30.621963978248303 0 0,0 -0.48977487192851293,0.19489152934174162 l -3.4803964875196343 -8.97045322647462" fill="#ff5808" stroke="none" /><path d="M 107.59598834532513 119.57807347666477 l 4.347549651841749 11.205473554944339 a33.019310527887455,33.019310527887455 0 0,0 -0.5316577228305962,0.20102745863156937 l -4.154021708250879 -11.278649263682539" fill="#ff7a0b" stroke="none" /><path d="M 106.91757812671514 119.82793768551818 l 7.727678952683798 22.149939461582093 a44.45925915598154,44.45925915598154 0 0,0 -0.7247500028704856,0.24587455062371294 l -7.345259216876085 -22.27967699910393" fill="#ecff1a" stroke="none" /><path d="M 106.57524785965236 119.94407469862006 l 4.706896295351973 14.276981387910897 a36.03286633632962,36.03286633632962 0 0,0 -0.5907307978471189,0.18913334680690008 l -4.460444152413913 -14.355887581377504" fill="#ffa40f" stroke="none" /><path d="M 105.88484417918355 120.15858648285463 l 3.1220313262426203 10.694546291449088 a32.14093353278744,32.14093353278744 0 0,0 -0.5324204287656321,0.15046733137308524 l -2.937479729372382 -10.746702416160693" fill="#ff6e0a" stroke="none" /><path d="M 105.53697534728816 120.25689768951611 l 3.7964433628116128 13.889201226475148 a35.39871150195583,35.39871150195583 0 0,0 -0.5891518086710541,0.15560034738748788 l -3.556801111329061 -13.95249292316622" fill="#ff9b0e" stroke="none" /><path d="M 104.83641907484287 120.43548508189849 l 2.2755393520668226 9.614913381745225 a30.880518138299635,30.880518138299635 0 0,0 -0.5183219247647081,0.11796838256514097 l -2.1096972779092527 -9.65265849788805" fill="#ff5c08" stroke="none" /><path d="M 104.48393922423573 120.51570834832081 l 5.011770301755609 22.93073404381818 a44.47203453784698,44.47203453784698 0 0,0 -0.7492659784332317,0.15701597075733584 l -4.616312861892999 -23.013605995302054" fill="#ecff1a" stroke="none" /><path d="M 103.41894727170886 120.7198165907248 l 1.2420952436749648 7.527459066162644 a28.629249018554457,28.629249018554457 0 0,0 -0.4869210000594624,0.07604704617315136 l -1.1123383800069853 -7.547724419682901" fill="#ff3b05" stroke="none" /><path d="M 103.06178313531738 120.77559828337769 l 2.165785549357489 14.695845052635162 a35.85457804371659,35.85457804371659 0 0,0 -0.611357108215016,0.08472852449994417 l -1.9124998499556423 -14.730948142627708" fill="#ffa20e" stroke="none" /><path d="M 102.34483914955558 120.86867818915974 l 1.780314687583724 15.844504429082344 a36.94421026548623,36.94421026548623 0 0,0 -0.6325682740770249,0.06556828802371072 l -1.5073138169010964 -15.872802085561814" fill="#ffb010" stroke="none" /><path d="M 100.90346689309514 120.98055641714683 l 0.1592282643103021 3.6976425014556207 a24.701069265594235,24.701069265594235 0 0,0 -0.4249520770254257,0.014636208760133744 l -0.09555583561022409 -3.699835508641848" fill="#ff0000" stroke="none" /><line stroke="#e1ed5e" stroke-width="0.3" x1="102.19456741930631" x2="102.32365962044197" y1="184.97166512339345" y2="189.96999836594603" /><path d="M 102.22038585953345 185.97133177190398 a86.0,86.0 0 0,1 -42.740103519485714,-10.115201625700543" fill="none" id="id127" stroke="none" /><text fill="#e1ed5e" style="font-size:6.75px; font-family:Arial;" text-anchor="middle"><textPath startOffset="22.20632615414155" xlink:href="#id127">July</textPath></text><path d="M 100.54218724476979 120.99299961872073 l 0.37720655270341924 14.605096474455083 a35.60996672862545,35.60996672862545 0 0,0 -0.6128989246336267,0.010551610812249545 l -0.12574793817712465 -14.609425562546493" fill="#ff9e0e" stroke="none" /><path d="M 99.81925306533755 120.99922214144158 l -0.13694467239836455 15.910264824965019 a36.91085417706471,36.91085417706471 0 0,0 -0.6352890752421324,-0.010937077560114748 l 0.41079343753316483 -15.905550270125744" fill="#ffb010" stroke="none" /><path d="M 99.09653310690486 120.98055641714683 l -0.28712022404822257 6.667584728545484 a27.673763865720037,27.673763865720037 0 0,0 -0.4757409022586945,-0.024590370540549078 l 0.401849194720406 -6.661654551242733" fill="#ff2d04" stroke="none" /><path d="M 98.73552117531835 120.96189622390904 l -0.6030586614094045 9.997204247826023 a31.01537680378784,31.01537680378784 0 0,0 -0.5326333268532981,-0.03673351269340056 l 0.7750547490416325 -9.985342390616337" fill="#ff5e08" stroke="none" /><path d="M 98.01472825383883 120.90594882070398 l -1.287628609277427 13.55940206053921 a34.620402772120386,34.620402772120386 0 0,0 -0.5927794442495165,-0.06144401312537422 l 1.5208406501325369 -13.535228678958074" fill="#ff910d" stroke="none" /><path d="M 97.2962882734958 120.8252237178851 l -1.640512595845176 12.635977972643232 a33.74202577702037,33.74202577702037 0 0,0 -0.5753359383899023,-0.07973631858782675 l 1.8577771254219093 -12.6058670885628" fill="#ff840c" stroke="none" /><path d="M 96.58105272829116 120.7198165907248 l -0.9885149478346605 5.990688591721655 a27.071697588407755,27.071697588407755 0 0,0 -0.4591244257194784,-0.07982466650112653 l 1.091488345026189 -5.972785346699522" fill="#ff2403" stroke="none" /><path d="M 96.22490169976321 120.6578951692458 l -1.627112744812086 8.903801129831107 a30.051252424052244,30.051252424052244 0 0,0 -0.5080556111056858,-0.09737006705094776 l 1.7801359704894666 -8.87447386443169" fill="#ff5007" stroke="none" /><path d="M 95.51606077576429 120.51570834832081 l -3.3070853305360783 15.131159173071277 a36.488343723725464,36.488343723725464 0 0,0 -0.6124479021257443,-0.13939114856463664 l 3.5670533820546853 -15.071991290928953" fill="#ffaa0f" stroke="none" /><path d="M 94.81253420990036 120.34920634021253 l -3.297338650027868 12.934682806204318 a34.34835051495447,34.34835051495447 0 0,0 -0.5716703227922615,-0.15098332808014636 l 3.5194994156316186 -12.87600812882059" fill="#ff8d0d" stroke="none" /><path d="M 93.42475214034765 119.94407469862007 l -3.5468574236126953 10.758345679401785 a32.327938883174625,32.327938883174625 0 0,0 -0.5269919976888672,-0.178784298172949 l 3.731519154238788 -10.695698394330714" fill="#ff700a" stroke="none" /><path d="M 93.08242187328487 119.8279376855182 l -5.706319613497622 16.356092788186377 a38.32292858690903,38.32292858690903 0 0,0 -0.6209782370242387,-0.2226607024494698 l 5.987017411151587 -16.25544454469695" fill="#ffc312" stroke="none" /><path d="M 92.40401165467489 119.57807347666478 l -4.865370565693019 12.540116979637498 a34.45088713076222,34.45088713076222 0 0,0 -0.5510155666135149,-0.21926046562080007 l 5.080507208348392 -12.45450966961063" fill="#ff8e0d" stroke="none" /><path d="M 92.06813273071674 119.44442032107085 l -2.941649093229601 7.211247927377621 a28.788157423794576,28.788157423794576 0 0,0 -0.4572224823483572,-0.19111903470345526 l 3.0653430350754203 -7.1595438496541925" fill="#ff3d05" stroke="none" /><path d="M 91.40352486487194 119.15986991738527 l -9.608876905550195 21.416316416736414 a44.47315752615718,44.47315752615718 0 0,0 -0.6957550274580806,-0.3193870084768559 l 9.976099928775696 -21.247742337925484" fill="#ecff1a" stroke="none" /><path d="M 91.07499286063937 119.00905698771935 l -1.9924669387950296 4.243684850252647 a25.688153752859975,25.688153752859975 0 0,0 -0.3986401852628146,-0.19137151425031718 l 2.065219792058086 -4.208759059502768" fill="#ff0f01" stroke="none" /><path d="M 90.7491055286396 118.85261126421891 l -7.97668283293073 16.25586596980142 a39.107474905279304,39.107474905279304 0 0,0 -0.6017822712397863,-0.301746123594652 l 8.255319011853278 -16.11615200529747" fill="#ffcd13" stroke="none" /><path d="M 90.10565033884886 118.52300852407294 l -7.763722870112791 14.534305924752234 a37.47790768023053,37.47790768023053 0 0,0 -0.5664110931713451,-0.3088524893594458 l 8.012756775152777 -14.398512783633022" fill="#ffb811" stroke="none" /><line stroke="#e1ed5e" stroke-width="0.3" x1="58.666819895761336" x2="56.23545636021788" y1="174.27360380694188" y2="178.64263932499728" /><path d="M 58.180547188652646 175.14741091055294 a86.0,86.0 0 0,1 -31.652253787137756,-30.449443065178592" fill="none" id="id128" stroke="none" /><text fill="#e1ed5e" style="font-size:6.75px; font-family:Arial;" text-anchor="middle"><textPath startOffset="22.20632615414155" xlink:href="#id128">August</textPath></text><path d="M 89.7882731507175 118.34994917583269 l -5.784902208707418 10.39517244082983 a32.89641557944644,32.89641557944644 0 0,0 -0.4924299429176856,-0.2796145732207285 l 5.962980918546311 -10.294054701814469" fill="#ff780b" stroke="none" /><path d="M 89.4739219176387 118.17145234162733 l -5.795808548669375 10.00546053328497 a32.562899170015804,32.562899170015804 0 0,0 -0.48260097305581656,-0.2851291614112945 l 5.967177392753573 -9.904212799579925" fill="#ff740a" stroke="none" /><path d="M 88.8546689885994 117.79835938074946 l -3.4988246157789584 5.587392411956803 a27.592475078236795,27.592475078236795 0 0,0 -0.40037758490026143,-0.2555399178931348 l 3.5944840027261433 -5.526338065239864" fill="#ff2c04" stroke="none" /><path d="M 88.54995079064634 117.60387380957326 l -7.444581468850165 11.445668952729637 a34.6537588605419,34.6537588605419 0 0,0 -0.49724068230692886,-0.329544010527356 l 7.640496849897056 -11.315826921110963" fill="#ff910d" stroke="none" /><path d="M 87.95078237400918 117.19931262002967 l -9.186470170587496 13.112965276491893 a37.01065559362189,37.01065559362189 0 0,0 -0.5186297390285549,-0.37002854832325044 l 9.410827237464938 -12.952892466324425" fill="#ffb110" stroke="none" /><path d="M 87.07902340077011 116.55440617244103 l -10.65290090904641 13.648538654085293 a38.31377789998538,38.31377789998538 0 0,0 -0.516401321918197,-0.410260441716497 l 10.886259723681965 -13.463144298363664" fill="#ffc312" stroke="none" /><path d="M 86.51685102203217 116.09983520530335 l -7.145950073319404 8.53277070169314 a32.12981483664694,32.12981483664694 0 0,0 -0.42095339489277495,-0.35874561551649775 l 7.2917689447892355 -8.408500695953691" fill="#ff6e0a" stroke="none" /><path d="M 86.24171649860922 115.8653595955263 l -7.287551228286705 8.403637037708979 a32.12337711158159,32.12337711158159 0 0,0 -0.4146327150742705,-0.3658651625339072 l 7.431126296267563 -8.276948733402783" fill="#ff6e0a" stroke="none" /><path d="M 85.97065885151581 115.62618273729859 l -11.38712263354945 12.683222771519656 a38.04496118339637,38.04496118339637 0 0,0 -0.4835341562078342,-0.44169698721166545 l 11.60375633922414 -12.485333017721414" fill="#ffbf11" stroke="none" /><path d="M 85.44109423537348 115.13401014063109 l -3.8541916508368974 4.006439527167145 a26.559348070253215,26.559348070253215 0 0,0 -0.3267432780389417,-0.3197870679051035 l 3.9225848812516335 -3.9395023563394713" fill="#ff1c02" stroke="none" /><path d="M 85.18274418774928 114.88116024355367 l -4.830710352279964 4.851544425860338 a27.84640386069368,27.84640386069368 0 0,0 -0.33675501518633105,-0.3411310524579509 l 4.913505992521828 -4.767672879421722" fill="#ff2f04" stroke="none" /><path d="M 84.43433777217949 114.09645910891817 l -6.601379271335841 5.978291935085588 a29.906075608545656,29.906075608545656 0 0,0 -0.34226955306007784,-0.38454347123762056 l 6.7033076740442565 -5.863774294107103" fill="#ff4e07" stroke="none" /><path d="M 84.19399662182784 113.82643327865904 l -6.698872276956559 5.859894393512997 a29.900182699591184,29.900182699591184 0 0,0 -0.335533429445756,-0.3903011817720077 l 6.798748215973093 -5.74371611257946" fill="#ff4e07" stroke="none" /><path d="M 83.50135304334701 112.99209946851258 l -8.74413741346459 6.885698163040201 a32.12981483664694,32.12981483664694 0 0,0 -0.3384236193291459,-0.4374581479458985 l 8.861367850011804 -6.73416202098105" fill="#ff6e0a" stroke="none" /><path d="M 82.85270091963577 112.12312394758628 l -12.177091980117163 8.60919231094344 a35.9130735041118,35.9130735041118 0 0,0 -0.35252801872177203,-0.5078429037507658 l 12.32348090600107 -8.398308145005663" fill="#ffa20f" stroke="none" /><path d="M 82.44556493220864 111.52570212397912 l -17.06919605754192 11.207109114892141 a41.41951881812848,41.41951881812848 0 0,0 -0.38617811170726163,-0.5993570052607785 l 17.259579032626228 -10.911630509709916" fill="#ffec16" stroke="none" /><path d="M 82.05923443525364 110.91462005526583 l -7.029801408409701 4.276718914801182 a29.22851338443933,29.22851338443933 0 0,0 -0.25779426922420773,-0.4320780235184344 l 7.102376553332141 -4.155078797396637" fill="#ff4406" stroke="none" /><line stroke="#e1ed5e" stroke-width="0.3" x1="26.63291911575756" x2="22.317208475507996" y1="142.92168965132927" y2="145.44649492493687" /><path d="M 25.769776987707644 143.4266507060508 a86.0,86.0 0 0,1 -11.730757126820373,-40.83630448921669" fill="none" id="id129" stroke="none" /><text fill="#e1ed5e" style="font-size:6.75px; font-family:Arial;" text-anchor="middle"><textPath startOffset="21.46611528233685" xlink:href="#id129">September</textPath></text><path d="M 81.87401531095188 110.60418214915194 l -9.794665572767677 5.730139333418492 a32.34768568752017,32.34768568752017 0 0,0 -0.2770317476186105,-0.483028203048553 l 9.891849316538664 -5.560691284511632" fill="#ff710a" stroke="none" /><path d="M 81.69416730710424 110.29060199501025 l -11.721685637377583 6.589331587832819 a34.446828806670936,34.446828806670936 0 0,0 -0.2861114077842131,-0.519375311804532 l 11.833373454613312 -6.386585757630464" fill="#ff8e0d" stroke="none" /><path d="M 81.35079622478065 109.6543875284942 l -15.828085359647439 8.193940703204335 a38.82326991323181,38.82326991323181 0 0,0 -0.3021214482127215,-0.5961142795929268 l 15.966785477646427 -7.920272211908723" fill="#ffca12" stroke="none" /><path d="M 81.18737489456691 109.33194174019688 l -11.259372719902766 5.585175363057119 a33.56851852374777,33.56851852374777 0 0,0 -0.25231815853533657,-0.5198501407526995 l 11.353844135052821 -5.390536266339135" fill="#ff820c" stroke="none" /><path d="M 80.87730276802145 108.67885076344099 l -22.278449254544967 10.111091232347237 a45.46555675017808,45.46555675017808 0 0,0 -0.3173039371140255,-0.715436612399147 l 22.449194276390273 -9.726106283455394" fill="#dfff1b" stroke="none" /><path d="M 80.73074385275274 108.34839909993369 l -10.20567988705358 4.42160756659312 a32.12234307284052,32.12234307284052 0 0,0 -0.21544764302922356,-0.5092545859161813 l 10.280278511275112 -4.245278455010779" fill="#ff6e0a" stroke="none" /><path d="M 80.58989483394504 108.01547362559985 l -15.428875661937875 6.371410401072954 a37.692665296184416,37.692665296184416 0 0,0 -0.2424847877707523,-0.6018273572142946 l 15.536263063966015 -6.104883676015855" fill="#ffbb11" stroke="none" /><path d="M 80.32549172779594 107.34259656027581 l -17.771229709639723 6.63228622197499 a39.96849561570397,39.96849561570397 0 0,0 -0.23500664441230934,-0.6466373540850845 l 17.882760615057258 -6.325401070883788" fill="#ffd914" stroke="none" /><path d="M 80.20201598880116 107.00284435728193 l -10.698534495490334 3.784232368333642 a32.34808596058122,32.34808596058122 0 0,0 -0.1811634052571893,-0.526545656387645 l 10.762088731690751 -3.5995140088567004" fill="#ff710a" stroke="none" /><path d="M 80.0844068197444 106.66101706037122 l -15.823754669338461 5.2924509381969385 a37.68536031282011,37.68536031282011 0 0,0 -0.2004641319136528,-0.6169651585847802 l 15.912511052268362 -5.019286879634355" fill="#ffba11" stroke="none" /><path d="M 79.97269907076064 106.31721596034903 l -16.96997456307396 5.352842828663656 a38.79418340412825,38.79418340412825 0 0,0 -0.19539933269732188,-0.638576324984577 l 17.05960066827741 -5.059939531127031" fill="#ffc912" stroke="none" /><path d="M 79.86692584326677 105.97154293290107 l -13.864283345984244 4.112196805611127 a35.46127640513846,35.46127640513846 0 0,0 -0.16853792812618498,-0.5867026379062197 l 13.933013910996534 -3.8729366922003114" fill="#ff9c0e" stroke="none" /><path d="M 79.76711848015287 105.62410040840567 l -15.414343426386111 4.284699392649755 a36.99876970744769,36.99876970744769 0 0,0 -0.16528217901158737,-0.6150764745819144 l 15.485813681739474 -4.018731984892302" fill="#ffb110" stroke="none" /><path d="M 79.58551787078972 104.9243191809786 l -20.59054843205855 4.966789358118151 a42.18111614766475,42.18111614766475 0 0,0 -0.1641838363013161,-0.7072996696958536 l 20.672992834290422 -4.611621031073723" fill="#fff517" stroke="none" /><path d="M 79.50377843672027 104.57218783832718 l -17.36890598113369 3.874562950386066 a38.7958178524609,38.7958178524609 0 0,0 -0.13978680244180744,-0.6530374035853624 l 17.43302682229994 -3.5750117273845397" fill="#ffc912" stroke="none" /><path d="M 79.4281124754447 104.21870165774334 l -16.347875959085105 3.352478537851899 a37.688084393374524,37.688084393374524 0 0,0 -0.12485535986980023,-0.6366347900787646 l 16.403161251930573 -3.0705800207051794" fill="#ffbb11" stroke="none" /><path d="M 79.35854240842038 103.8639653848113 l -29.511981089408856 5.524477758450525 a51.024604615635496,51.024604615635496 0 0,0 -0.15417584243325355,-0.8647000016169615 l 29.6027033741813 -5.015659006100349" fill="#9dff22" stroke="none" /><path d="M 79.29508885075956 103.50808413554451 l -10.967248483840114 1.8582079459029943 a32.12355501071983,32.12355501071983 0 0,0 -0.08767932461395374,-0.5459792380675499 l 10.99760956281536 -1.669149478142231" fill="#ff6e0a" stroke="none" /><path d="M 79.23777060512086 103.15116336523772 l -20.18398949336275 3.0634016726313136 a41.41513805184913,41.41513805184913 0 0,0 -0.10090689717625816,-0.7057426038290963 l 20.233730441555604 -2.715513596821817" fill="#ffec16" stroke="none" /><path d="M 79.1416061653843 102.43462659150553 l -21.248119389629785 2.4801160096817245 a42.392371374334374,42.392371374334374 0 0,0 -0.07836068050782621,-0.7255225807600976 l 21.28766237163866 -2.113997107036845" fill="#fff817" stroke="none" /><path d="M 79.10278846688536 102.07522291339032 l -17.706688098298955 1.7583841175946988 a38.79378313106719,38.79378313106719 0 0,0 -0.06026965888526911,-0.6650706636092794 l 17.7343323534613 -1.4533320654368533" fill="#ffc912" stroke="none" /><path d="M 79.07016306316243 101.71520430193888 l -16.627884163340347 1.3626584160770847 a37.68362579622219,37.68362579622219 0 0,0 -0.047415765501981726,-0.6469504482734165 l 16.648876487506662 -1.0762348313069074" fill="#ffba11" stroke="none" /><path d="M 79.04373962182676 101.35467743843564 l -17.877918101342974 1.1556838797113975 a38.91523264900994,38.91523264900994 0 0,0 -0.0374580408522457,-0.6688384823054427 l 17.895162493082754 -0.8477736810705171" fill="#ffcb12" stroke="none" /><path d="M 79.0235259727143 100.99374915477108 l -20.887838827618403 0.9895501099441086 a41.91126539233466,41.91126539233466 0 0,0 -0.02793658690476017,-0.7209191745783871 l 20.901777547374362 -0.6298536883517248" fill="#fff216" stroke="none" /><line stroke="#e1ed5e" stroke-width="0.3" x1="15.007084014347285" x2="10.007500721073583" y1="101.09737516637583" y2="101.16192664675087" /><path d="M 14.007167355692545 101.11028546245083 a86.0,86.0 0 0,1 10.666146001902534,-42.60595125391555" fill="none" id="id130" stroke="none" /><text fill="#e1ed5e" style="font-size:6.75px; font-family:Arial;" text-anchor="middle"><textPath startOffset="22.20632615414155" xlink:href="#id130">October</textPath></text><path d="M 79.00175016825051 100.2711162175752 l -21.25769780657094 0.2744660469254953 a42.25946959936691,42.25946959936691 0 0,0 -0.0031306272095190527,-0.7274475103005267 l 21.25927273106996 0.09149094157870678" fill="#fff617" stroke="none" /><path d="M 79.00019446554 99.90962569577889 l -11.292121062182975 -0.04859652545357183 a32.29222563117132,32.29222563117132 0 0,0 0.007176551770180952,-0.5558318434380344 l 11.289611503295077 0.24296462695207818" fill="#ff700a" stroke="none" /><path d="M 79.00486145842228 99.54816195383935 l -14.454126934495367 -0.311068415200351 a35.45747381105841,35.45747381105841 0 0,0 0.018384371842179392,-0.6100877992777074 l 14.446630868197543 0.5598263619030528" fill="#ff9c0e" stroke="none" /><path d="M 79.03285615573316 98.82574320788736 l -27.758934025000862 -1.5546283777500278 a48.80243312369002,48.80243312369002 0 0,0 0.054192566571004824,-0.8383350186557025 l 27.728060867425445 2.032222460658742" fill="#b7ff1f" stroke="none" /><path d="M 79.05617556472873 98.46500227214037 l -15.081786021479571 -1.1053619813604243 a36.122238415907006,36.122238415907006 0 0,0 0.050787034991659354,-0.619730465740659 l 15.060524502668414 1.3648063643088617" fill="#ffa50f" stroke="none" /><path d="M 79.08570108090925 98.10471618934814 l -22.635107720099242 -2.051225976076369 a43.727860205162884,43.727860205162884 0 0,0 0.07438499306162419,-0.7490467288444324 l 22.596445601355388 2.440548235625232" fill="#f5ff19" stroke="none" /><path d="M 79.16333360222342 97.38593545837743 l -17.880499205205023 -2.2431985072153595 a39.020660125814224,39.020660125814224 0 0,0 0.08934616467874266,-0.6657327049337217 l 17.839237041468447 2.5506495542137406" fill="#ffcc13" stroke="none" /><path d="M 79.21141760316559 97.0276538004421 l -14.316722069196157 -2.047001263490767 a35.46232156257567,35.46232156257567 0 0,0 0.09160104522524215,-0.6035364382429331 l 14.279365130531612 2.2931368141257917" fill="#ff9c0e" stroke="none" /><path d="M 79.32604984820605 96.31383870115002 l -16.424100191935313 -2.9284138759855303 a37.68312545489586,37.68312545489586 0 0,0 0.11935551478315545,-0.6376019325644124 l 16.371258953242297 3.2106938860125154" fill="#ffba11" stroke="none" /><path d="M 79.3925641242962 95.95851677861259 l -14.191162321717808 -2.783138317699555 a35.46149877906127,35.46149877906127 0 0,0 0.1226304290116662,-0.5979895231713037 l 14.141152596791148 3.0270034970342614" fill="#ff9c0e" stroke="none" /><path d="M 79.46518482838121 95.60439243477599 l -20.739665657410615 -4.439457112325403 a42.20949106021533,42.20949106021533 0 0,0 0.15819637467744105,-0.7091633284871336 l 20.660174895731135 4.795798610362495" fill="#fff617" stroke="none" /><path d="M 79.62865764111835 94.90015583598534 l -23.772004548592488 -5.951179678211676 a45.50560629367618,45.50560629367618 0 0,0 0.196765522472925,-0.758217823796353 l 23.666042694249256 6.359493927556893" fill="#dfff1b" stroke="none" /><path d="M 79.71946130924805 94.55025226153421 l -17.418432916114725 -4.68064812477102 a39.03635972476462,39.03635972476462 0 0,0 0.179963621442272,-0.6474248975146455 l 17.33528252410609 4.979784325704609" fill="#ffcc13" stroke="none" /><path d="M 79.81627453868168 94.20196356495316 l -16.03614487418112 -4.6065902172709645 a37.68468207235553,37.68468207235553 0 0,0 0.18446490886944414,-0.6219239702894264 l 15.95447406819997 4.881943574306931" fill="#ffba11" stroke="none" /><path d="M 79.91906864156998 93.8553929516997 l -31.903047329515854 -9.762081548120367 a54.363193268353086,54.363193268353086 0 0,0 0.28150948346584254,-0.8924619919901615 l 31.73028236228181 10.309793706536944" fill="#77ff27" stroke="none" /><path d="M 80.02781315780177 93.51064311812611 l -12.097237629201775 -3.930630775737522 a33.71978838473936,33.71978838473936 0 0,0 0.18411438998273194,-0.5504785915264817 l 12.02778594544727 4.138282470186326" fill="#ff840c" stroke="none" /><line stroke="#e1ed5e" stroke-width="0.3" x1="26.266209847984243" x2="21.928928074336255" y1="57.711370442889674" y2="55.22380399835377" /><path d="M 25.398753493254645 57.213857153982495 a86.0,86.0 0 0,1 29.58750427330803,-30.492523968695096" fill="none" id="id131" stroke="none" /><text fill="#e1ed5e" style="font-size:6.75px; font-family:Arial;" text-anchor="middle"><textPath startOffset="21.46611528233685" xlink:href="#id131">November</textPath></text><line stroke="#e1ed5e" stroke-width="0.3" x1="56.762969772571076" x2="54.21961505331055" y1="26.818313649435495" y2="22.513508569990535" /><path d="M 56.25429882871897 25.957352633546506 a86.0,86.0 0 0,1 42.265352541879196,-11.944610805530505" fill="none" id="id132" stroke="none" /><text fill="#e1ed5e" style="font-size:6.75px; font-family:Arial;" text-anchor="middle"><textPath startOffset="22.20632615414155" xlink:href="#id132">December</textPath></text></svg>