<?xml version="1.0" encoding="utf-8" ?>
<svg baseProfile="full" height="200mm" version="1.1" viewBox="0,0,200,200" width="200mm" xmlns="http://www.w3.org/2000/svg" xmlns:ev="http://www.w3.org/2001/xml-events" xmlns:xlink="http://www.w3.org/1999/xlink"><defs /><rect fill="#1a1a1a" height="200" width="200" x="0" y="0" /><text alignment-baseline="middle" fill="#e1ed5e" style="dominant-baseline: central; font-size:9.0px; font-family:Arial;" text-anchor="middle" x="100.0" y="100.0">2024</text><line stroke="#e1ed5e" stroke-width="0.3" x1="100.0" x2="100.0" y1="15.0" y2="10.0" /><path d="M 100.0 14.0 a86.0,86.0 0 0,1 42.35913384403234,11.155469271406648" fill="none" id="id109" stroke="none" /><text fill="#e1ed5e" style="font-size:6.75px; font-family:Arial;" text-anchor="middle"><textPath startOffset="22.145653131862478" xlink:href="#id109">January</textPath></text><path d="M 100.0 79.0 l 0.0 -12.183445299034567 a33.18344529903457,33.18344529903457 0 0,0 0.5696379644005215,0.0048896568199267715 l -0.20914503955166672 12.181650040409075" fill="#ffa20f" stroke="none" /><path d="M 100.36049292484886 79.00309439819443 l 0.07049830664590083 -4.106172930721872 a25.106778073896006,25.106778073896006 0 0,0 0.43086421640060746,0.011097533833885379 l -0.14097583711724967 4.104357679537942" fill="#ff3505" stroke="none" /><path d="M 100.72087961077811 79.0123766808444 l 0.17870431871475356 -5.2027812558649345 a26.205849405227433,26.205849405227433 0 0,0 0.4494605655874675,0.019301770596111177 l -0.26799064490305735 5.198946916842993" fill="#ff4406" stroke="none" /><path d="M 101.08105385017728 79.02784411241856 l 0.11353253916698601 -2.2025009293778686 a23.20542512485917,23.20542512485917 0 0,0 0.39764777582608724,0.02392150274716222 l -0.15132466712553558 2.2002274488060145" fill="#ff1a02" stroke="none" /><path d="M 101.44090949804482 79.04949213459386 l 0.22354064552880742 -3.250231925560939 a24.257910064771433,24.257910064771433 0 0,0 0.4151926190110846,0.032138534573100196 l -0.27930225931512553 3.245915623992785" fill="#ff2904" stroke="none" /><path d="M 101.80034050326958 79.07731436759882 l 0.24395881955403304 -2.8351712798278426 a23.845647921229688,23.845647921229688 0 0,0 0.4075339738236473,0.038593891032574414 l -0.2925923567626933 2.8305656332900844" fill="#ff2303" stroke="none" /><path d="M 102.15924093988457 79.11130261209362 l 1.7393575743414735 -16.82670671376036 a37.91636555535281,37.91636555535281 0 0,0 0.646860596203004,0.07248207902663449 l -2.027954072145274 16.794368874226755" fill="#ffde14" stroke="none" /><path d="M 102.51750503828377 79.15144685158666 l 0.12258710834499215 -1.0151971117337597 a22.02257164776115,22.02257164776115 0 0,0 0.3749313230035078,0.04854236614939314 l -0.1399962532392916 1.0129431493839696" fill="#ff0901" stroke="none" /><path d="M 102.87502721639298 79.19773525538626 l 0.2729256574773518 -1.974754099741921 a22.993525061030578,22.993525061030578 0 0,0 0.3905339582309618,0.05739504308449867 l -0.30678472131599566 1.96977798335854" fill="#ff1702" stroke="none" /><path d="M 103.23170211078529 79.25015418208739 l 1.5960450397031116 -10.247754080352491 a31.371298060519813,31.371298060519813 0 0,0 0.5314036418359274,0.08744226704130013 l -1.7717261845921095 10.218845814815522" fill="#ff8a0c" stroke="none" /><path d="M 103.58742460773223 79.30868818359171 l 0.8158260997745995 -4.705468146150503 a25.77566777524468,25.77566777524468 0 0,0 0.4353206704479369,0.0793299274501195 l -0.89648150377359 4.6907700447690175" fill="#ff3e05" stroke="none" /><path d="M 103.94208987418118 79.37332000966035 l 1.2922257355624542 -6.7614710910832505 a27.883846211763046,27.883846211763046 0 0,0 0.46938274441774047,0.09388969471399117 l -1.4081049655111515 6.738291999706401" fill="#ff5b08" stroke="none" /><path d="M 104.29559338865022 79.4440306129975 l 0.6109173995015508 -2.923460911203027 a23.986610749385626,23.986610749385626 0 0,0 0.40233265732671875,0.08768653007354295 l -0.6610124734474035 2.9125429229957653" fill="#ff2503" stroke="none" /><path d="M 104.64783097203109 79.52079915486377 l 2.9981304752678954 -13.210316066228144 a34.546262839483646,34.546262839483646 0 0,0 0.5771987066107368,0.13621732312953683 l -3.224461335618517 13.15690259945238" fill="#ffb410" stroke="none" /><path d="M 104.9986988182912 79.60360301121754 l 1.1814074153970866 -4.820545411089153 a25.96320275039494,25.96320275039494 0 0,0 0.4319716958049464,0.10980551586144131 l -1.2639844044274273 4.799554663392444" fill="#ff4106" stroke="none" /><path d="M 105.3480935250658 79.69241777938227 l 0.9595561786722886 -3.6435911044486633 a24.76782486276175,24.76782486276175 0 0,0 0.4102242926505084,0.11180845514829744 l -1.0219618722574897 3.626582155156224" fill="#ff3004" stroke="none" /><path d="M 105.69591212413111 79.78721728523813 l 2.253003789725053 -7.995115631141239 a29.306497458726778,29.306497458726778 0 0,0 0.48305479369058224,0.14061021032733403 l -2.3899185957972398 7.955261726511389" fill="#ff6f0a" stroke="none" /><path d="M 106.04205211174951 79.88797359093562 l 0.16531656643204096 -0.5502850833529682 a21.574580925629856,21.574580925629856 0 0,0 0.3537813825528427,0.10960237665656324 l -0.1747385818565138 0.5473661188897583" fill="#ff0300" stroke="none" /><path d="M 106.38641147887787 79.99465700312896 l 0.14818270133848477 -0.4641802013985099 a21.487259040292052,21.487259040292052 0 0,0 0.3504236976939534,0.11519122973105532 l -0.1561291366801805 0.461568050265433" fill="#ff0200" stroke="none" /><path d="M 106.72888874123014 80.10723608172694 l 4.024093053954362 -11.896516079539493 a33.55867906022068,33.55867906022068 0 0,0 0.5441207865618501,0.18927345470572188 l -4.22771961256123 11.82568419226518" fill="#ffa70f" stroke="none" /><path d="M 107.06938296918511 80.22567764915836 l 4.014823322338441 -11.23017537791543 a32.92625864755291,32.92625864755291 0 0,0 0.5306001486559093,0.1948437241643157 l -4.207012622648476 11.159600804742391" fill="#ff9f0e" stroke="none" /><path d="M 107.40779381753099 80.34994680014964 l 0.5159313402419561 -1.3685691763223977 a22.462589053091683,22.462589053091683 0 0,0 0.3596450236123195,0.1391184211883039 l -0.5393486263478015 1.3595108669960556" fill="#ff1001" stroke="none" /><path d="M 107.74402155503746 80.48000691201159 l 2.1510911263653463 -5.422154835167115 a26.833262902566098,26.833262902566098 0 0,0 0.4267070684769534,0.17353804998697944 l -2.243852656032739 5.384429528600841" fill="#ff4d07" stroke="none" /><path d="M 108.07796709384702 80.6158196554323 l 3.2160836037847598 -7.717429874956553 a29.360736667387933,29.360736667387933 0 0,0 0.46357097362206096,0.19787088300524436 l -3.3480896525772508 7.661084342291907" fill="#ff6f0a" stroke="none" /><path d="M 108.4095320186766 80.7573450057729 l 2.6376513567700015 -6.035462489548559 a27.586654093135476,27.586654093135476 0 0,0 0.4323046724813674,0.1933643813074716 l -2.7408694321070004 5.989294357331234" fill="#ff5708" stroke="none" /><path d="M 108.73861861582097 80.90454125486305 l 1.380675138872905 -3.017024350628091 a24.317936071021347,24.317936071021347 0 0,0 0.3780990753590333,0.17696945860953978 l -1.4322629281034434 2.9928786604480178" fill="#ff2a04" stroke="none" /><path d="M 109.06512990194946 81.05736502329252 l 5.424096991909933 -11.334276563859419 a33.56529559555601,33.56529559555601 0 0,0 0.5176084266242807,0.25318821915096607 l -5.6178656677962815 11.23949459461123" fill="#ffa70f" stroke="none" /><path d="M 109.3889696526874 81.21577127319529 l 1.9849792769216161 -3.9712882387462667 a25.439737943281415,25.439737943281415 0 0,0 0.38895273049180235,0.198602035587042 l -2.052859229126997 3.9366282514863906" fill="#ff3a05" stroke="none" /><path d="M 109.71004243097381 81.37971332152246 l 2.1940728522443997 -4.20742399352815 a25.745141972825706,25.745141972825706 0 0,0 0.39011391023409614,0.20771368394627665 l -2.2659755782650555 4.1691398418593" fill="#ff3e05" stroke="none" /><path d="M 110.02825361518725 81.54914285379988 l 3.4151382058862993 -6.28346964379816 a28.151584420940388,28.151584420940388 0 0,0 0.42261669530074486,0.2344183568394053 l -3.5224990893431443 6.223918371525609" fill="#ff5f08" stroke="none" /><path d="M 110.34350942703115 81.72400993836675 l 0.25148028751204277 -0.44434157165803934 a21.510570041532674,21.510570041532674 0 0,0 0.31979818988490405,0.18463557101640443 l -0.2590709452573442 0.43995910336546323" fill="#ff0200" stroke="none" /><line stroke="#e1ed5e" stroke-width="0.3" x1="143.13028292997686" x2="145.6673583964461" y1="26.7553504044142" y2="22.446841604673864" /><path d="M 143.63769802327073 25.89364864446614 a86.0,86.0 0 0,1 29.32050498858742,28.57503671076993" fill="none" id="id110" stroke="none" /><text fill="#e1ed5e" style="font-size:6.75px; font-family:Arial;" text-anchor="middle"><textPath startOffset="20.669276256404974" xlink:href="#id110">February</textPath></text><path d="M 110.65571695917076 81.90426304109057 l 0.24922663241288087 -0.42324130798321 a21.491169134908947,21.491169134908947 0 0,0 0.3162960191849647,0.18992667159779247 l -0.25645540815527984 0.4189006358494965" fill="#ff0200" stroke="none" /><path d="M 110.96478420261332 82.08984904055464 l 0.26806717115811945 -0.43786757805676707 a21.51340824318082,21.51340824318082 0 0,0 0.31331295013122784,0.19553045340748748 l -0.2755442500790599 0.43320132780773424" fill="#ff0200" stroke="none" /><path d="M 111.27062007382361 82.28071324371311 l 5.889299410820265 -9.25895686044123 a31.973246087361737,31.973246087361737 0 0,0 0.46058887260996906,0.29854814254889256 l -6.047373915687241 9.156494876188443" fill="#ff920d" stroke="none" /><path d="M 111.5731344415666 82.4767994020092 l 0.2703445978576932 -0.40933617791812704 a21.490553063534882,21.490553063534882 0 0,0 0.30609067581674526,0.20595146708234183 l -0.27733156177143947 0.4046350367786664" fill="#ff0200" stroke="none" /><path d="M 111.8722381534696 82.67804972795209 l 5.159172752570631 -7.527387229746228 a30.12571213645345,30.12571213645345 0 0,0 0.4240623042581834,0.2960284227104563 l -5.287630148002575 7.437713991230646" fill="#ff7a0b" stroke="none" /><path d="M 112.16784306229584 82.88440491214696 l 0.3045714053921521 -0.4284178242061282 a21.52564776521932,21.52564776521932 0 0,0 0.29932847197358103,0.21669073015534582 l -0.311880887739701 0.42312632267770767" fill="#ff0200" stroke="none" /><path d="M 112.45986205192187 83.09580414077388 l 2.8255341837486676 -3.8333797798073372 a25.762188988245637,25.762188988245637 0 0,0 0.35373572351793325,0.2654498815754702 l -2.890922896177367 3.784310870967852" fill="#ff3e05" stroke="none" /><path d="M 112.7482090630111 83.31218511350987 l 0.28288836603008366 -0.3703099519719248 a21.465999236227507,21.465999236227507 0 0,0 0.2909052338618182,0.2262096693755264 l -0.2892035445271279 0.36539923097560756" fill="#ff0100" stroke="none" /><path d="M 113.03279911837588 83.53348406188908 l 1.0588733240585917 -1.3378518542856297 a22.706182962175625,22.706182962175625 0 0,0 0.3035592083239685,0.24452581039690768 l -1.0816833027378197 1.3194777500953137" fill="#ff1302" stroke="none" /><path d="M 113.31354834802062 83.75963576809568 l 5.233858390810543 -6.384456223318492 a29.255577201051914,29.255577201051914 0 0,0 0.3856521256266356,0.3217247193908862 l -5.3426848505990705 6.293669320015736" fill="#ff6e0a" stroke="none" /><path d="M 113.59037401385872 83.9905735841838 l 3.3513861156653255 -3.947924417313232 a26.178599820520247,26.178599820520247 0 0,0 0.3400980581959156,0.2937686024554107 l -3.4186636536241015 3.889811682393101" fill="#ff4406" stroke="none" /><path d="M 114.39649973595853 84.71141617570332 l 5.275622293544211 -5.602528054699318 a28.69548641658431,28.69548641658431 0 0,0 0.3557249831292903,0.3407764870131963 l -5.371019762538813 5.511139437380542" fill="#ff6609" stroke="none" /><path d="M 114.65682725009322 84.96080404539774 l 3.2660272580255016 -3.351231688031627 a25.679496540978835,25.679496540978835 0 0,0 0.3130551714992981,0.31037950235068684 l -3.323074349654762 3.294672175452281" fill="#ff3d05" stroke="none" /><path d="M 115.16444852881244 85.47280134310134 l 5.426229674210762 -5.198205281612798 a28.514340065972036,28.514340065972036 0 0,0 0.33557870486501984,0.35637295544577224 l -5.514664212812042 5.104290866222531" fill="#ff6409" stroke="none" /><path d="M 115.41159269507618 85.73525988315684 l 0.3908588046311853 -0.36177307438348894 a21.53258836121962,21.53258836121962 0 0,0 0.24875502110749087,0.27342534366292776 l -0.39701152658055366 0.3550101551628894" fill="#ff0200" stroke="none" /><path d="M 115.6541949942343 86.00192230759917 l 5.235032210182697 -4.681198083155895 a28.022761403849113,28.022761403849113 0 0,0 0.3175765319735397,0.3613437966659895 l -5.314619806114828 4.590642008678608" fill="#ff5d08" stroke="none" /><path d="M 115.8921839302757 86.27271002978787 l 6.558407706084434 -5.664996373014723 a29.666308068924025,29.666308068924025 0 0,0 0.32958623586441904,0.38825175711548604 l -6.654688505455965 5.551577833449684" fill="#ff740a" stroke="none" /><path d="M 116.1254893667686 86.54754324733833 l 0.9145575383539819 -0.7629564258608967 a22.19101553252782,22.19101553252782 0 0,0 0.24151558020401212,0.29460973796485757 l -0.9275199377966217 0.747144406197544" fill="#ff0c01" stroke="none" /><path d="M 116.35404254752997 86.82634096563983 l 0.4143612561062958 -0.3337800968249272 a21.532075561925602,21.532075561925602 0 0,0 0.22940229148406036,0.28984230130850075 l -0.42002997823191546 0.3266178516017482" fill="#ff0200" stroke="none" /><path d="M 116.57777611688842 87.10902102172516 l 0.41494451558394263 -0.3226633650875387 a21.525633520794486,21.525633520794486 0 0,0 0.22432582534389167,0.2936497063308887 l -0.42042231828214105 0.31549274551576806" fill="#ff0200" stroke="none" /><path d="M 116.7966241395341 87.39550010848427 l 7.243176086991243 -5.435414369237818 a30.05578981605021,30.05578981605021 0 0,0 0.30613679721267417,0.4153333606932653 l -7.3354149037877425 5.310274699275677" fill="#ff790b" stroke="none" /><path d="M 117.01052211995028 87.68569379921539 l 25.376091403044867 -18.37033322743804 a52.3275463096426,52.3275463096426 0 0,0 0.5204968740504102,0.7321440369612404 l -25.68770337562524 17.932011963767295" fill="#7bff26" stroke="none" /><path d="M 117.21940702142032 87.97951657250589 l 0.3998978150732015 -0.2791597325505363 a21.487697056355692,21.487697056355692 0 0,0 0.2085434853470676,0.30427117751894023 l -0.40463103723559407 0.27225381996154735" fill="#ff0200" stroke="none" /><path d="M 117.42321728460499 88.27688183743584 l 1.4573406482351845 -0.9805638271793065 a22.75651563732609,22.75651563732609 0 0,0 0.2152935005930986,0.32598180012378797 l -1.4739585877490073 0.9554021487164598" fill="#ff1402" stroke="none" /><path d="M 117.62189284568427 88.57770195909679 l 0.40987852361159205 -0.26567830699320066 a21.48845201087189,21.48845201087189 0 0,0 0.19798263325951335,0.3112615835252773 l -0.41437884849699536 0.25860304878925144" fill="#ff0200" stroke="none" /><line stroke="#e1ed5e" stroke-width="0.3" x1="172.87174338648825" x2="177.1583165268699" y1="56.24261187166439" y2="53.66864786411523" /><path d="M 173.72905801456457 55.72781907015455 a86.0,86.0 0 0,1 12.242430191666344,42.057860355516425" fill="none" id="id111" stroke="none" /><text fill="#e1ed5e" style="font-size:6.75px; font-family:Arial;" text-anchor="middle"><textPath startOffset="22.145653131862474" xlink:href="#id111">March</textPath></text><path d="M 118.00360718960297 89.18935116829356 l 2.9422657127295717 -1.7667460223337228 a24.431955569604025,24.431955569604025 0 0,0 0.21282128507723916,0.36141706923815364 l -2.9721607079365784 1.7159777848020128" fill="#ff2c04" stroke="none" /><path d="M 118.18653347947321 89.5 l 10.616054504187069 -6.129181925724145 a33.25836385144829,33.25836385144829 0 0,0 0.28121789304744677,0.4968850712367677 l -10.719705762255892 5.946040084388259" fill="#ffa30f" stroke="none" /><path d="M 118.53625476483649 90.13048839642627 l 0.4718112736147042 -0.251212928324159 a21.534522041890817,21.534522041890817 0 0,0 0.17093481251735237,0.3277900416018758 l -0.4760541551070011 0.24307664361778494" fill="#ff0200" stroke="none" /><path d="M 118.70294669586156 90.45014215332178 l 0.42774464884058133 -0.21840946549929072 a21.480279272123457,21.480279272123457 0 0,0 0.16486634653890408,0.32984313266504367 l -0.4314309085912224 0.2110344766704966" fill="#ff0100" stroke="none" /><path d="M 118.8641267826498 90.77261029715802 l 10.46432041221423 -5.118623487396921 a32.64913336241005,32.64913336241005 0 0,0 0.24194677908685933,0.5055757137078513 l -10.550646449261002 4.938235271623967" fill="#ff9b0e" stroke="none" /><path d="M 119.0197475246899 91.09779779509293 l 3.484929083314432 -1.6311227753761859 a24.847764574929407,24.847764574929407 0 0,0 0.17750241427922528,0.38787480928559637 l -3.5124159624487086 1.5710589838759053" fill="#ff3104" stroke="none" /><path d="M 119.16976305983485 91.42560881287824 l 1.235447390362577 -0.5525999034527826 a22.353401975633894,22.353401975633894 0 0,0 0.15367018413983102,0.3516274543856829 l -1.2447514565193782 0.5313103792912505" fill="#ff0e01" stroke="none" /><path d="M 119.31412917781788 91.75594674310238 l 3.583698957381132 -1.5296679849935857 a24.896508996710896,24.896508996710896 0 0,0 0.16440487424327294,0.3945118486908636 l -3.6094296761608886 1.4679236268614442" fill="#ff3204" stroke="none" /><path d="M 119.4528033332814 92.08871423366111 l 11.011942969809382 -4.478461339694886 a32.88778801718284,32.88778801718284 0 0,0 0.20819743411607153,0.5247935386025651 l -11.087199078891578 4.2887667838787555" fill="#ff9e0e" stroke="none" /><path d="M 119.58574465831526 92.42381321644754 l 0.455211556353324 -0.1760856090554717 a21.488081655826207,21.488081655826207 0 0,0 0.1301249833481372,0.3451719781089631 l -0.45816722351590183 0.16824535075235086" fill="#ff0200" stroke="none" /><path d="M 119.71291397450082 92.76114493625339 l 2.219830711187362 -0.8151525850071983 a23.364766822156998,23.364766822156998 0 0,0 0.13502591088094715,0.37769150421110637 l -2.2334967921122524 0.7769261244151752" fill="#ff1c02" stroke="none" /><path d="M 119.83427380445688 93.10060997987247 l 7.767009361692247 -2.701769039018463 a29.22350231743226,29.22350231743226 0 0,0 0.160749550017962,0.4752274813049321 l -7.812244333282574 2.5680398832393694" fill="#ff6e0a" stroke="none" /><path d="M 119.94978838288452 93.4421083053983 l 7.652248021269273 -2.5154459175500343 a29.055083360409043,29.055083360409043 0 0,0 0.1516886820159015,0.4751626359353609 l -7.694301419062432 2.3837142479232867" fill="#ff6b09" stroke="none" /><path d="M 120.05942366710727 93.78553927170692 l 2.583741301185193 -0.8004496597084798 a23.704891637233843,23.704891637233843 0 0,0 0.1170837425966254,0.3897336996806464 l -2.597101363785446 0.7559783564371099" fill="#ff2103" stroke="none" /><path d="M 120.16314734710363 94.1308016681162 l 8.916431458954849 -2.5954432482373035 a30.28649964287192,30.28649964287192 0 0,0 0.14102188594584042,0.5004369232757514 l -8.959671836975271 2.4419984010585387" fill="#ff7c0b" stroke="none" /><path d="M 120.26092885502905 94.47779374421319 l 5.388476996828042 -1.4686533669783461 a26.585035994304942,26.585035994304942 0 0,0 0.11622790273628907,0.4413362780745516 l -5.412894380369061 1.375936584530996" fill="#ff4a06" stroke="none" /><path d="M 120.35273937422433 94.82641323984039 l 1.7475787061993031 -0.4442276732624919 a22.803155445338376,22.803155445338376 0 0,0 0.09318072247609473,0.3802091457019731 l -1.7549469551916892 0.41416270295242386" fill="#ff1402" stroke="none" /><path d="M 120.43855184770803 95.1765574152323 l 2.8475400447164296 -0.6720116971035202 a23.92576212760156,23.92576212760156 0 0,0 0.09090552127321633,0.4005464999241268 l -2.858656427547312 0.6230308632403672" fill="#ff2403" stroke="none" /><path d="M 120.51834098615036 95.52812308129327 l 0.620089769923334 -0.13514567924950868 a21.634646104048063,21.634646104048063 0 0,0 0.07597087281986659,0.3635481282086133 l -0.6223183535675674 0.12448109975549095" fill="#ff0400" stroke="none" /><path d="M 120.592083275326 95.88100663000786 l 4.221810001310503 -0.8444802389470307 a25.305441505947726,25.305441505947726 0 0,0 0.08154824057830865,0.42669485371217086 l -4.235684534170969 0.7718828202015453" fill="#ff3805" stroke="none" /><path d="M 120.65975698304385 96.23510406497455 l 3.0851054628429746 -0.5622089856001323 a24.13591368828179,24.13591368828179 0 0,0 0.07078164997545304,0.40824974756690124 l -3.094301930310662 0.5091662051126383" fill="#ff2703" stroke="none" /><path d="M 120.7213421655516 96.59031103205396 l 0.5779865522670767 -0.0951074672258692 a21.585759238018234,21.585759238018234 0 0,0 0.057025986361329016,0.3661477401221268 l -0.579534030766671 0.08517154517230116" fill="#ff0300" stroke="none" /><path d="M 120.77682067341334 96.94652285012252 l 16.202617702971917 -2.3812268345528937 a37.37666210392868,37.37666210392868 0 0,0 0.08784491560437462,0.6356020494175104 l -16.241107135131504 2.1027364769352976" fill="#ffd714" stroke="none" /><path d="M 120.82617615685814 97.30363454192243 l 0.44663462236832274 -0.05782579380223327 a21.45036241886613,21.45036241886613 0 0,0 0.044144757748452806,0.3655819210474563 l -0.4475614663764392 0.050150195831364" fill="#ff0100" stroke="none" /><path d="M 120.86939407059847 97.66154086499901 l 0.4823388116924577 -0.054047069912624514 a21.48535740957673,21.48535740957673 0 0,0 0.037924323611872285,0.36688342877186314 l -0.483195527785996 0.04575911885782995" fill="#ff0200" stroke="none" /><path d="M 120.93736805541906 98.37931529534042 l 0.5287347208948995 -0.040927411349347034 a21.530316375458618,21.530316375458618 0 0,0 0.025360701999607525,0.36873904116530065 l -0.5293593840595731 0.03184494602971222" fill="#ff0200" stroke="none" /><path d="M 120.98066250479742 99.09900007780936 l 0.8930964130404592 -0.03835340273331205 a21.89391956376788,21.89391956376788 0 0,0 0.012902100355593223,0.3756305744267916 l -0.8936232003929006 0.02301656374240052" fill="#ff0701" stroke="none" /><path d="M 120.99303781780057 99.45929381324524 l 34.98210004128106 -0.9010148070116891 a55.993701590152625,55.993701590152625 0 0,0 0.016500992968311538,0.9611001154513479 l -34.992412465848034 0.30036777559127475" fill="#55ff2b" stroke="none" /><line stroke="#e1ed5e" stroke-width="0.3" x1="184.99686870605535" x2="189.99668451229388" y1="99.2704041080226" y2="99.22748670261217" /><path d="M 185.99683186730306 99.26182062694052 a86.0,86.0 0 0,1 -10.086455211305974,41.156179273409016" fill="none" id="id112" stroke="none" /><text fill="#e1ed5e" style="font-size:6.75px; font-family:Arial;" text-anchor="middle"><textPath startOffset="21.40746469413373" xlink:href="#id112">April</textPath></text><path d="M 120.99922638620191 99.81974689727618 l 0.4782887990722687 -0.0041055341013647335 a21.478306419283967,21.478306419283967 0 0,0 0.0,0.36871727365038315 l -0.4782887990722687 -0.004105534101364675" fill="#ff0100" stroke="none" /><path d="M 120.99922638620191 100.18025310272382 l 0.5231250355712115 0.0044903992670978325 a21.52314430755477,21.52314430755477 0 0,0 -0.00634273575043021,0.36943255922385 l -0.5229708682221129 -0.013469874460018856" fill="#ff0200" stroke="none" /><path d="M 120.99303781780057 100.54070618675476 l 1.0076226974357292 0.02595278640216798 a22.007956867881603,22.007956867881603 0 0,0 -0.01296930260952152,0.3775870947257618 l -1.0070287078293618 -0.04324614569204045" fill="#ff0901" stroke="none" /><path d="M 120.98066250479742 100.90099992219065 l 6.820635473304004 0.2929074346118695 a27.82692192902071,27.82692192902071 0 0,0 -0.02459159244374605,0.4770703237119549 l -6.814602291403686 -0.4099495517005551" fill="#ff5b08" stroke="none" /><path d="M 120.93736805541906 101.62068470465957 l 4.509389722668251 0.34905528390832974 a25.52287908993048,25.52287908993048 0 0,0 -0.03756284433301588,0.4365371894989984 l -4.502733255637494 -0.42641352078298544" fill="#ff3b05" stroke="none" /><path d="M 120.9064616781168 101.97986365728391 l 0.5175631261128314 0.04901376615123845 a21.519878773161604,21.519878773161604 0 0,0 -0.03798525810503238,0.3674729147178709 l -0.5166454755261329 -0.05789120315204079" fill="#ff0200" stroke="none" /><path d="M 120.86939407059847 102.33845913500097 l 0.5033496083894378 0.05640137350684916 a21.506499697136395,21.506499697136395 0 0,0 -0.044260288036543353,0.3665386775642816 l -0.5023072340932307 -0.06503372799453935" fill="#ff0200" stroke="none" /><path d="M 120.82617615685814 102.69636545807757 l 5.080132883157603 0.6577249095283113 a26.12253376437415,26.12253376437415 0 0,0 -0.06139477536873956,0.4442220107950502 l -5.068093591233653 -0.7448352285234465" fill="#ff4306" stroke="none" /><path d="M 120.77682067341334 103.0534771498775 l 0.5223691333322735 0.07677027383080169 a21.527980289785866,21.527980289785866 0 0,0 -0.0568733439882908,0.3651676665889772 l -0.5209742972057152 -0.08572612235122945" fill="#ff0200" stroke="none" /><path d="M 120.7213421655516 103.40968896794604 l 1.8284471476240387 0.30087028233579294 a22.853035860000368,22.853035860000368 0 0,0 -0.06701944687117316,0.3865503598279892 l -1.8230128832606314 -0.3322136750843701" fill="#ff1502" stroke="none" /><path d="M 120.65975698304385 103.76489593502545 l 0.5126503345696273 0.09342196823973793 a21.52109311037869,21.52109311037869 0 0,0 -0.06935296023429542,0.36288399371734764 l -0.5109710820531725 -0.10220852699040012" fill="#ff0200" stroke="none" /><path d="M 120.592083275326 104.11899336999214 l 4.055272726776542 0.811168119891845 a25.135605228653542,25.135605228653542 0 0,0 -0.08826462235123742,0.42237817010363277 l -4.0407503936009395 -0.8806627412808868" fill="#ff3505" stroke="none" /><path d="M 120.51834098615036 104.47187691870673 l 17.660658798489372 3.8490583865151433 a39.07523498213682,39.07523498213682 0 0,0 -0.1484656825550725,0.6541671910944932 l -17.591982254376635 -4.151659911548654" fill="#ffec16" stroke="none" /><path d="M 120.43855184770803 104.8234425847677 l 1.1235851476851004 0.26516303548994213 a22.15445009397929,22.15445009397929 0 0,0 -0.09052991243979258,0.3693929361627328 l -1.118867708729012 -0.28441179626077456" fill="#ff0b01" stroke="none" /><path d="M 120.35273937422433 105.17358676015961 l 0.5092633628583539 0.12945275537970433 a21.525459026590273,21.525459026590273 0 0,0 -0.0941077890070361,0.3573426032854186 l -0.5069660930465876 -0.13817586303792617" fill="#ff0200" stroke="none" /><path d="M 120.16314734710363 105.8691983318838 l 1.7782997368168125 0.5176371361693142 a22.852106411279955,22.852106411279955 0 0,0 -0.112871646316505,0.3757130010742052 l -1.769151770496678 -0.5480877408342428" fill="#ff1502" stroke="none" /><path d="M 120.05942366710727 106.21446072829308 l 0.45309399632403763 0.14036967826738914 a21.474339346967735,21.474339346967735 0 0,0 -0.11211168084764225,0.35118824346515587 l -0.4506175996991405 -0.14812695542392854" fill="#ff0100" stroke="none" /><path d="M 119.94978838288452 106.5578916946017 l 4.937023256955999 1.6228976063036236 a26.19692171196281,26.19692171196281 0 0,0 -0.1441012556028163,0.4260097570746099 l -4.908436579780817 -1.707409037852394" fill="#ff4406" stroke="none" /><path d="M 119.83427380445688 106.89939002012753 l 4.722778802811165 1.642827625585329 a26.000352210361665,26.000352210361665 0 0,0 -0.15025706300224173,0.42029574748580134 l -4.69388156976498 -1.7236583294520518" fill="#ff4206" stroke="none" /><path d="M 119.71291397450082 107.23885506374661 l 2.2892683224852153 0.8406510376869044 a23.438738120319265,23.438738120319265 0 0,0 -0.14193753804825734,0.37650618286695353 l -2.274500100622517 -0.8798255007480169" fill="#ff1e03" stroke="none" /><path d="M 119.4528033332814 107.91128576633889 l 7.148886521136258 2.9073899124387483 a28.7174798085278,28.7174798085278 0 0,0 -0.18963677426133912,0.4550592233835509 l -7.097923902338433 -3.029681645263577" fill="#ff6709" stroke="none" /><path d="M 119.31412917781788 108.2440532568976 l 0.4772129693664793 0.20369383978532477 a21.5188674189984,21.5188674189984 0 0,0 -0.1479331120320189,0.33849991066475915 l -0.4736459753174947 -0.21185582022592864" fill="#ff0200" stroke="none" /><path d="M 119.16976305983485 108.57439118712176 l 2.426200341899587 1.0852085529092006 a23.65784230200758,23.65784230200758 0 0,0 -0.1690020892052552,0.36930006493454726 l -2.4072137878392756 -1.1266976000584368" fill="#ff2103" stroke="none" /><path d="M 119.0197475246899 108.90220220490707 l 3.3585069226988304 1.5719508207789765 a24.708179894876146,24.708179894876146 0 0,0 -0.18310025189050524,0.3826091046923851 l -3.331027412848413 -1.6293724275364652" fill="#ff2f04" stroke="none" /><path d="M 118.70294669586154 109.54985784667822 l 3.1384084257077816 1.602493704211773 a24.523860598632126,24.523860598632126 0 0,0 -0.19466331806548315,0.3732925797111531 l -3.110437038667349 -1.656132527027429" fill="#ff2d04" stroke="none" /><path d="M 118.5362547648365 109.86951160357373 l 0.6477613592366707 0.3448964384898709 a21.73385852301594,21.73385852301594 0 0,0 -0.17817070550188072,0.32781403033867124 l -0.641745304119451 -0.35596530230314544" fill="#ff0500" stroke="none" /><line stroke="#e1ed5e" stroke-width="0.3" x1="174.33088141563837" x2="178.70328620479359" y1="141.23008692659167" y2="143.65538615756765" /><path d="M 175.20536237346943 141.71514677278685 a86.0,86.0 0 0,1 -30.301960400862466,31.631185727798858" fill="none" id="id113" stroke="none" /><text fill="#e1ed5e" style="font-size:6.75px; font-family:Arial;" text-anchor="middle"><textPath startOffset="22.145653131862474" xlink:href="#id113">May</textPath></text><path d="M 118.36410011445183 110.18625677009912 l 3.7546472514861438 2.082639538361415 a25.293572338954906,25.293572338954906 0 0,0 -0.2138711679436461,0.37788986101691424 l -3.7183427185211193 -2.146786169477452" fill="#ff3805" stroke="none" /><path d="M 118.18653347947321 110.5 l 2.1040431715680343 1.214769891491398 a23.429539782982797,23.429539782982797 0 0,0 -0.2040894659937193,0.3465885314763529 l -2.0828799954445496 -1.2507095912613002" fill="#ff1d03" stroke="none" /><path d="M 117.62189284568427 111.42229804090321 l 2.7420620124106296 1.7773714677911983 a24.26771379016334,24.26771379016334 0 0,0 -0.22959055492247238,0.34762936260903726 l -2.7111470185674307 -1.8241807087392965" fill="#ff2904" stroke="none" /><path d="M 117.423217284605 111.72311816256416 l 1.3247396380115766 0.8913439497057998 a22.596693190690115,22.596693190690115 0 0,0 -0.21930657077609575,0.3199748408185951 l -1.3092433304201605 -0.9139535255944389" fill="#ff1201" stroke="none" /><path d="M 117.21940702142032 112.02048342749411 l 1.5184209186128996 1.0599757277031507 a22.85179659503982,22.85179659503982 0 0,0 -0.22730453715087015,0.31973229762975774 l -1.5000012829320688 -1.0858852520424125" fill="#ff1502" stroke="none" /><path d="M 117.01052211995028 112.31430620078461 l 5.481850090340673 3.9684367171823838 a27.767508433038657,27.767508433038657 0 0,0 -0.28282923690552336,0.3837121787900505 l -5.412918833851322 -4.061955205241311" fill="#ff5a08" stroke="none" /><path d="M 116.79662413953412 112.60449989151573 l 2.3045411608011817 1.7293706503167443 a23.88125542220814,23.88125542220814 0 0,0 -0.2488745489260499,0.3257847735245493 l -2.2745146345208274 -1.768676337082171" fill="#ff2403" stroke="none" /><path d="M 116.57777611688842 112.89097897827486 l 6.562270880620211 5.102861528310853 a29.312797055609558,29.312797055609558 0 0,0 -0.31229793872052614,0.3945782436046299 l -6.473706511258124 -5.214759715830166" fill="#ff6f0a" stroke="none" /><path d="M 116.1254893667686 113.45245675266167 l 6.836379877520607 5.703151238103582 a29.902922209839367,29.902922209839367 0 0,0 -0.33221496755139873,0.39134839643289365 l -6.737470346462094 -5.819666416986032" fill="#ff770a" stroke="none" /><path d="M 115.6541949942343 113.99807769240083 l 7.421023222876869 6.63592472619652 a30.955254022184675,30.955254022184675 0 0,0 -0.3576102760383642,0.3930763374658999 l -7.306015245996625 -6.762338639220092" fill="#ff850c" stroke="none" /><path d="M 115.41159269507618 114.26474011684316 l 2.1266637046783607 1.9684081758046836 a23.897814566077514,23.897814566077514 0 0,0 -0.2812478788789852,0.2986755010252302 l -2.0925599920631153 -2.0046251367744112" fill="#ff2403" stroke="none" /><path d="M 115.16444852881244 114.52719865689866 l 6.471306192379262 6.199364945430963 a29.96158075130523,29.96158075130523 0 0,0 -0.35898710359115776,0.3683523933222421 l -6.363932287637297 -6.309540030820942" fill="#ff780b" stroke="none" /><path d="M 114.91283532996324 114.78537596483092 l 0.34456307929500923 0.34161811340735265 a21.485207843115976,21.485207843115976 0 0,0 -0.2619231812154638,0.25968453499879873 l -0.33864797794958057 -0.3474826586348131" fill="#ff0200" stroke="none" /><path d="M 114.65682725009322 115.03919595460226 l 0.8276882473719539 0.8492810571584622 a22.18589466180005,22.18589466180005 0 0,0 -0.275028514579069,0.2634710955700531 l -0.8129872469275727 -0.8633642830340955" fill="#ff0c01" stroke="none" /><path d="M 114.39649973595853 115.28858382429668 l 2.8683340806467075 3.0460713945989175 a25.18400422313281,25.18400422313281 0 0,0 -0.3172827503116315,0.29367217693202063 l -2.8156215590211087 -3.0948613176633177" fill="#ff3605" stroke="none" /><path d="M 114.13192950727249 115.5334660781643 l 2.111587360457381 2.3210044048030194 a24.1378117578909,24.1378117578909 0 0,0 -0.3088892473951983,0.27621066972640596 l -2.071433086238805 -2.3569106044128123" fill="#ff2703" stroke="none" /><path d="M 113.86319453409587 115.77377054828091 l 3.270530518788676 3.7212633673748856 a25.95420739611236,25.95420739611236 0 0,0 -0.33718287448333883,0.29125053619626184 l -3.2061681645424818 -3.7768580360358652" fill="#ff4106" stroke="none" /><path d="M 113.59037401385872 116.0094264158162 l 0.3194463061169258 0.37630694536942716 a21.493612053767954,21.493612053767954 0 0,0 -0.28333254609763014,0.2363660870258416 l -0.31293942585740064 -0.38173521630713897" fill="#ff0200" stroke="none" /><path d="M 113.31354834802062 116.24036423190432 l 3.759458820729038 4.585928481835751 a26.929946936125965,26.929946936125965 0 0,0 -0.3600267550805377,0.29001206893609477 l -3.680181295293248 -4.649788844565249" fill="#ff4e07" stroke="none" /><path d="M 113.03279911837588 116.46651593811092 l 0.6841074506989304 0.8643474159308747 a22.10231549908734,22.10231549908734 0 0,0 -0.29952853293213644,0.23291519889016535 l -0.6691689731315633 -0.8759636664418332" fill="#ff0a01" stroke="none" /><path d="M 112.7482090630111 116.68781488649013 l 6.627255224920208 8.675289827171278 a31.917012659223843,31.917012659223843 0 0,0 -0.43824643824687753,0.32886829742998125 l -6.477355797762564 -8.787777151865274" fill="#ff910d" stroke="none" /><path d="M 112.16784306229584 117.11559508785304 l 0.40667776816267226 0.5720432105729961 a21.701869105945285,21.701869105945285 0 0,0 -0.3054847161153326,0.2132520569871653 l -0.3967979608735812 -0.5789400833652835" fill="#ff0500" stroke="none" /><path d="M 111.8722381534696 117.32195027204791 l 1.147888084099618 1.6748030197523494 a23.0304216824565,23.0304216824565 0 0,0 -0.32802307675780934,0.22070856524744353 l -1.1189687192448052 -1.694261259056914" fill="#ff1802" stroke="none" /><path d="M 111.5731344415666 117.5232005979908 l 4.472622962330174 6.772121222976327 a29.115785976838566,29.115785976838566 0 0,0 -0.4194258850535021,0.27186679133189956 l -4.355711445019662 -6.847901856012121" fill="#ff6c0a" stroke="none" /><path d="M 111.27062007382361 117.71928675628689 l 0.2790838520180522 0.4387661699680853 a21.5200034118789,21.5200034118789 0 0,0 -0.313408999615252,0.19559039538930673 l -0.2715107236130853 -0.4434923621989397" fill="#ff0200" stroke="none" /><path d="M 110.96478420261333 117.91015095944535 l 0.4628045249734057 0.7559564104337348 a21.886373579712142,21.886373579712142 0 0,0 -0.3221124357731324,0.19341926263976372 l -0.4497593326428367 -0.763789673609422" fill="#ff0701" stroke="none" /><line stroke="#e1ed5e" stroke-width="0.3" x1="143.1302829299769" x2="145.66735839644613" y1="173.24464959558577" y2="177.55315839532614" /><path d="M 143.63769802327073 174.10635135553383 a86.0,86.0 0 0,1 -40.68552437913181,11.842963189579606" fill="none" id="id114" stroke="none" /><text fill="#e1ed5e" style="font-size:6.75px; font-family:Arial;" text-anchor="middle"><textPath startOffset="21.407464694133747" xlink:href="#id114">June</textPath></text><path d="M 110.65571695917076 118.09573695890943 l 4.699788428974192 7.981268224288639 a30.262216459636388,30.262216459636388 0 0,0 -0.44990913894940493,0.2597551624833127 l -4.562086822164389 -8.060770284048123" fill="#ff7c0b" stroke="none" /><path d="M 109.71004243097381 118.62028667847754 l 3.473472130720082 6.660840805123419 a28.512110813485535,28.512110813485535 0 0,0 -0.4359267920807625,0.22258732613780446 l -3.358618116925737 -6.71948608293406" fill="#ff6409" stroke="none" /><path d="M 109.3889696526874 118.78422872680471 l 0.19645838548676303 0.3930483732286697 a21.439412017275096,21.439412017275096 0 0,0 -0.3306158973162934,0.161720802751289 l -0.18968223890840025 -0.39636292607718215" fill="#ff0100" stroke="none" /><path d="M 109.06512990194946 118.94263497670748 l 3.987007152579084 8.331311515413132 a30.23617765104008,30.23617765104008 0 0,0 -0.47011682154527223,0.2200384100730837 l -3.8434016171623053 -8.39852615705675" fill="#ff7b0b" stroke="none" /><path d="M 108.73861861582097 119.09545874513695 l 0.5744950553965567 1.2553753758916613 a22.380583899323117,22.380583899323117 0 0,0 -0.35072143797773275,0.1568732382108457 l -0.5528602145631969 -1.265052365012357" fill="#ff0e01" stroke="none" /><path d="M 108.07796709384702 119.3841803445677 l 6.44925039833889 15.475853188842354 a37.76588389030165,37.76588389030165 0 0,0 -0.6005594497317159,0.24424229994522925 l -6.182636487416733 -15.584282745366876" fill="#ffdc14" stroke="none" /><path d="M 107.74402155503746 119.51999308798841 l 1.3134613516979448 3.3107806227380454 a24.56180418528334,24.56180418528334 0 0,0 -0.393255230966418,0.15211957142235688 l -1.2564338582379972 -3.3328400822984428" fill="#ff2d04" stroke="none" /><path d="M 107.407793817531 119.65005319985036 l 2.8863737576634 7.656449314033638 a29.18244276284864,29.18244276284864 0 0,0 -0.47026929581811855,0.17268939933289376 l -2.7545153101911546 -7.7048695623752534" fill="#ff6d0a" stroke="none" /><path d="M 107.06938296918513 119.77432235084164 l 0.16266652317189756 0.45500721617611406 a21.483210062533026,21.483210062533026 0 0,0 -0.3483290011541334,0.12116690825069722 l -0.15483174997274235 -0.4577325569954017" fill="#ff0200" stroke="none" /><path d="M 106.72888874123015 119.89276391827305 l 0.9684175912191395 2.8629545319102947 a24.02230727801929,24.02230727801929 0 0,0 -0.39176638247433127,0.1287813913884276 l -0.919128471097074 -2.8791568447007414" fill="#ff2603" stroke="none" /><path d="M 106.0420521117495 120.11202640906438 l 5.43407169638565 18.088257341231714 a39.88687874806429,39.88687874806429 0 0,0 -0.6574497007614917,0.19137402611706442 l -5.122761983242552 -18.178875061651297" fill="#fff617" stroke="none" /><path d="M 105.3480935250658 120.30758222061773 l 0.8037516055122907 3.0519757624645347 a24.156037499465835,24.156037499465835 0 0,0 -0.4019043637601034,0.10216251763302772 l -0.75124194852679 -3.0653235119328324" fill="#ff2803" stroke="none" /><path d="M 104.9986988182912 120.39639698878246 l 2.0570827226930968 8.393599489788198 a29.64199639683882,29.64199639683882 0 0,0 -0.4952582587909095,0.11687960055633112 l -1.9126923101623083 -8.427675233990755" fill="#ff730a" stroke="none" /><path d="M 104.29559338865022 120.5559693870025 l 1.2884520571026206 6.16570951813115 a27.29889534485413,27.29889534485413 0 0,0 -0.45953597359659465,0.09192006477485894 l -1.1824195979750673 -6.186918979568871" fill="#ff5307" stroke="none" /><path d="M 103.94208987418118 120.62667999033965 l 0.8200147559372447 4.290663708317234 a25.368319958270618,25.368319958270618 0 0,0 -0.42844104558867063,0.07807623062840302 l -0.7462389767975169 -4.3041081128770005" fill="#ff3905" stroke="none" /><path d="M 103.58742460773223 120.69131181640829 l 0.4779342254944167 2.756597606573784 a23.797722553876145,23.797722553876145 0 0,0 -0.4031135851673829,0.06633218703658084 l -0.43054313727396154 -2.7643957921060354" fill="#ff2303" stroke="none" /><path d="M 103.2317021107853 120.74984581791261 l 1.370150912057857 8.79735173535666 a29.90341008138993,29.90341008138993 0 0,0 -0.5078950301309441,0.07464307910332568 l -1.2189307763192274 -8.819575887758868" fill="#ff770a" stroke="none" /><path d="M 102.875027216393 120.80226474461374 l 0.17332135821550146 1.2540670081093443 a22.265987501534667,22.265987501534667 0 0,0 -0.3790754452048308,0.0490789057365715 l -0.15176809111989528 -1.2568575100463106" fill="#ff0d01" stroke="none" /><path d="M 102.51750503828377 120.84855314841334 l 0.22115115640515196 1.8314488225569063 a22.844752726959474,22.844752726959474 0 0,0 -0.3897359399465151,0.04367072498238532 l -0.18967931485783754 -1.8349753080462625" fill="#ff1502" stroke="none" /><path d="M 102.15924093988457 120.88869738790638 l 0.21952106889606268 2.123667208109135 a23.13498288294949,23.13498288294949 0 0,0 -0.3953883551319414,0.03744368831471797 l -0.18303315037910595 -2.1271226519290365" fill="#ff1902" stroke="none" /><path d="M 101.80034050326958 120.92268563240118 l 0.03775191530075166 0.4387344807408296 a21.440355710420338,21.440355710420338 0 0,0 -0.3669680288272807,0.028405646299249843 l -0.030214891698235123 -0.4393178940351331" fill="#ff0100" stroke="none" /><path d="M 101.08105385017728 120.97215588758144 l 1.1324290982423513 21.96882197503594 a42.9979893316041,42.9979893316041 0 0,0 -0.7374651477716263,0.031669926562544685 l -0.7551381898698953 -21.985024470024314" fill="#e3ff1b" stroke="none" /><path d="M 100.72087961077811 120.9876233191556 l 0.25799938404018385 7.511370564309436 a28.515800119517507,28.515800119517507 0 0,0 -0.4893673667473334,0.01260436746185615 l -0.1290187032221066 -7.514692649121337" fill="#ff6409" stroke="none" /><line stroke="#e1ed5e" stroke-width="0.3" x1="101.45913802915013" x2="101.54496967792366" y1="184.9874750549273" y2="189.98673829345242" /><path d="M 101.47630435890484 185.9873277026323 a86.0,86.0 0 0,1 -42.54439059252881,-10.42667462771756" fill="none" id="id115" stroke="none" /><text fill="#e1ed5e" style="font-size:6.75px; font-family:Arial;" text-anchor="middle"><textPath startOffset="22.145653131862474" xlink:href="#id115">July</textPath></text><path d="M 100.36049292484886 120.99690560180557 l 0.08248819841579524 4.804524017012652 a25.80523207898737,25.80523207898737 0 0,0 -0.4429811232646469,0.003802460169152017 l -5.884712084692064e-16 -4.80523207898737" fill="#ff3f05" stroke="none" /><path d="M 100.0 121.0 l 1.773850168172428e-16 1.448458583656489 a22.44845858365649,22.44845858365649 0 0,0 -0.38535764253193566,-0.0033078318909101675 l 0.024864717683083324 -1.4482451499600137" fill="#ff0f01" stroke="none" /><path d="M 99.63950707515114 120.99690560180557 l -0.14209966328362136 8.27659299351177 a29.277812748217578,29.277812748217578 0 0,0 -0.5024444717898789,-0.012941187300063814 l 0.28415744914424423 -8.272934088861659" fill="#ff6e0a" stroke="none" /><path d="M 99.27912038922189 120.98762331915562 l -0.22141523069196642 6.446262856388822 a27.450064303403536,27.450064303403536 0 0,0 -0.4708002872350684,-0.0202181900628333 l 0.3320412785278735 -6.44151209790016" fill="#ff5607" stroke="none" /><path d="M 98.91894614982273 120.97215588758144 l -0.07547723439893514 1.4642381834340916 a22.466182209256026,22.466182209256026 0 0,0 -0.3849801216201112,-0.023159448126690015 l 0.10060170815149268 -1.4627267574827099" fill="#ff1001" stroke="none" /><path d="M 98.55909050195518 120.95050786540614 l -0.4553958412626803 6.621355586310566 a27.636997451604564,27.636997451604564 0 0,0 -0.47302827502021266,-0.036615380126459554 l 0.5689931110581291 -6.612562439189053" fill="#ff5808" stroke="none" /><path d="M 98.19965949673042 120.92268563240118 l -0.28601051549879086 3.3238757293270442 a24.33615825149007,24.33615825149007 0 0,0 -0.41591703914243566,-0.03938777603410407 l 0.3430271180262418 -3.3184761977877564" fill="#ff2a04" stroke="none" /><path d="M 97.84075906011543 120.88869738790638 l -0.2714698872509989 2.626224901524109 a23.640218387381882,23.640218387381882 0 0,0 -0.4033067393578846,-0.04519136136240807 l 0.3165125282096828 -2.62117777965473" fill="#ff2003" stroke="none" /><path d="M 97.48249496171623 120.84855314841334 l -0.9271781912821249 7.678365486876234 a28.73414222447721,28.73414222447721 0 0,0 -0.48919491019975225,-0.06333607514865824 l 1.058850923372671 -7.661317815527179" fill="#ff6709" stroke="none" /><path d="M 97.12497278360702 120.80226474461374 l -0.07288288312466683 0.5273442357224721 a21.53235688931607,21.53235688931607 0 0,0 -0.36571671997687843,-0.05374776368968397 l 0.08192470870923019 -0.5260153987339058" fill="#ff0200" stroke="none" /><path d="M 96.76829788921471 120.74984581791261 l -0.7521490781003036 4.829336636746505 a25.887557732314697,25.887557732314697 0 0,0 -0.4385136512569979,-0.07215725444032288 l 0.8349402324103651 -4.815713383810514" fill="#ff4006" stroke="none" /><path d="M 96.05791012581884 120.62667999033965 l -0.9451526141738823 4.945437860836977 a26.03494479607071,26.03494479607071 0 0,0 -0.43825926116278524,-0.08766412639901214 l 1.0299083608676256 -4.928484337775103" fill="#ff4206" stroke="none" /><path d="M 95.70440661134978 120.55596938700252 l -1.9469979589041169 9.317090054551347 a30.518349023680337,30.518349023680337 0 0,0 -0.5118909289940428,-0.11156424546258034 l 2.106651304517296 -9.282294350955048" fill="#ff7f0b" stroke="none" /><path d="M 95.35216902796893 120.47920084513623 l -0.8959914030342402 3.9479034432775686 a25.04830114884678,25.04830114884678 0 0,0 -0.4185068322176458,-0.09876647286834019 l 0.9636303889917739 -3.931940826763001" fill="#ff3405" stroke="none" /><path d="M 95.00130118170881 120.39639698878247 l -2.0167764050177035 8.229135959107985 a29.472665796626245,29.472665796626245 0 0,0 -0.4903615916132685,-0.12464799904400635 l 2.157743289856351 -8.193302728228717" fill="#ff710a" stroke="none" /><path d="M 94.6519064749342 120.30758222061772 l -0.44076686319852915 1.6736635723695115 a22.730729667270584,22.730729667270584 0 0,0 -0.37648431183820086,-0.1026124733428709 l 0.4694325759714251 -1.6658506048824961" fill="#ff1302" stroke="none" /><path d="M 94.30408787586889 120.21278271476187 l -1.7610881279036 6.249480486199094 a27.49287592224172,27.49287592224172 0 0,0 -0.45316113006279857,-0.13190860052020884 l 1.8681092703480051 -6.218328191376369" fill="#ff5608" stroke="none" /><path d="M 93.95794788825049 120.11202640906438 l -0.16463521410461876 0.5480170830528144 a21.572212790001227,21.572212790001227 0 0,0 -0.353742549710632,-0.10959034614277995 l 0.17401839668688446 -0.5451101491033854" fill="#ff0300" stroke="none" /><path d="M 93.61358852112213 120.00534299687104 l -1.1951781540791804 3.7438785449073952 a24.930022567238773,24.930022567238773 0 0,0 -0.40656980377180507,-0.13364757000221666 l 1.259270695498729 -3.722810053503157" fill="#ff3304" stroke="none" /><path d="M 93.27111125876986 119.89276391827306 l -0.13346880016037616 0.39457679182255984 a21.416539032098115,21.416539032098115 0 0,0 -0.3472479963429478,-0.12079087866274588 l 0.14022256854834575 -0.39222748059122353" fill="#ff0100" stroke="none" /><path d="M 92.93061703081489 119.77432235084164 l -0.5781673959770942 1.61723710692047 a22.71747879106888,22.71747879106888 0 0,0 -0.36608767952215154,-0.13443246676326429 l 0.6058442271533646 -1.6070737911484863" fill="#ff1302" stroke="none" /><path d="M 92.59220618246901 119.65005319985036 l -1.9338669631184522 5.129811876888362 a26.482226858066518,26.482226858066518 0 0,0 -0.42400282002956313,-0.16401339940542464 l 2.0216420456415434 -5.095858589344897" fill="#ff4806" stroke="none" /><path d="M 92.25597844496254 119.51999308798841 l -2.4112880465330706 6.07802104719825 a27.538856925605437,27.538856925605437 0 0,0 -0.43792754353431745,-0.17810131951127894 l 2.515270051257829 -6.035732471107679" fill="#ff5708" stroke="none" /><path d="M 91.92203290615298 119.3841803445677 l -0.20104769006806456 0.48244126732164666 a21.52265643600421,21.52265643600421 0 0,0 -0.33981704587316053,-0.14504769011265625 l 0.20929981111165627 -0.47891892754958654" fill="#ff0200" stroke="none" /><path d="M 91.59046798132341 119.24265499422711 l -0.9473779803175071 2.1677862197195528 a23.36576037078916,23.36576037078916 0 0,0 -0.3661599319101742,-0.16377868017711056 l 0.9844513150833164 -2.1512037886325874" fill="#ff1d02" stroke="none" /><path d="M 91.26138138417905 119.09545874513695 l -1.070455751751081 2.3391390040812543 a23.57243985291614,23.57243985291614 0 0,0 -0.3665079835029808,-0.1715442423523689 l 1.1104524491255519 -2.320418530158359" fill="#ff1f03" stroke="none" /><path d="M 90.93487009805054 118.94263497670748 l -5.075886075537295 10.606649673225087 a32.7586409394266,32.7586409394266 0 0,0 -0.505169053158918,-0.24710349824410532 l 5.257215377958283 -10.517952424883761" fill="#ff9c0e" stroke="none" /><path d="M 90.6110303473126 118.78422872680471 l -0.8121087683449395 1.6247615467868324 a22.816417004858707,22.816417004858707 0 0,0 -0.3488443046805452,-0.1781223875839651 l 0.839880294739067 -1.610581207530031" fill="#ff1502" stroke="none" /><path d="M 90.28995756902619 118.62028667847754 l -2.5737743373440014 4.935551656724075 a26.56632594228566,26.56632594228566 0 0,0 -0.4025572399188049,-0.21433905613005383 l 2.6581203930493684 -4.890642132871449" fill="#ff4906" stroke="none" /><path d="M 89.97174638481275 118.45085714620012 l -0.8511724974402793 1.5660615257337338 a22.782426246098893,22.782426246098893 0 0,0 -0.3420139181898868,-0.189709355095935 l 0.8779306037862687 -1.5512192552046504" fill="#ff1402" stroke="none" /><line stroke="#e1ed5e" stroke-width="0.3" x1="58.13341422392154" x2="55.67067388415222" y1="173.97424548756322" y2="178.32567169271397" /><path d="M 57.64086615596768 174.84453072859336 a86.0,86.0 0 0,1 -31.369924170532247,-30.572349798747897" fill="none" id="id116" stroke="none" /><text fill="#e1ed5e" style="font-size:6.75px; font-family:Arial;" text-anchor="middle"><textPath startOffset="22.145653131862474" xlink:href="#id116">August</textPath></text><path d="M 89.65649057296885 118.27599006163327 l -3.039165953166128 5.369915031987438 a27.170293116347782,27.170293116347782 0 0,0 -0.40394143625545287,-0.23321569695893155 l 3.1308998572819804 -5.3169524377523345" fill="#ff5207" stroke="none" /><path d="M 89.34428304082925 118.09573695890944 l -0.26703421374220837 0.4534824741895409 a21.526263836593383,21.526263836593383 0 0,0 -0.31681252502825985,-0.19023681851627103 l 0.27477949532789553 -0.4488316551373511" fill="#ff0200" stroke="none" /><path d="M 89.03521579738668 117.91015095944536 l -5.346234185986887 8.732671757712415 a31.239227314566413,31.239227314566413 0 0,0 -0.45495601436602984,-0.283926201365737 l 5.4953543291426294 -8.63960975950513" fill="#ff890c" stroke="none" /><path d="M 88.72937992617639 117.7192867562869 l -0.20343154988461812 0.31982818550093617 a21.379044144829173,21.379044144829173 0 0,0 -0.3079746677344037,-0.19962545878106652 l 0.20889184987603146 -0.31628888501597496" fill="#ff0000" stroke="none" /><path d="M 88.4268655584334 117.5232005979908 l -0.9430002973424705 1.4278226402475156 a22.71111865538056,22.71111865538056 0 0,0 -0.323475232918746,-0.2176485729487016 l 0.9673718183582223 -1.4114243932416928" fill="#ff1302" stroke="none" /><path d="M 88.1277618465304 117.32195027204791 l -4.099914080127119 5.981897170322202 a28.25206103261227,28.25206103261227 0 0,0 -0.39768799646183645,-0.2776171075366401 l 4.2019971677627215 -5.910635246980433" fill="#ff6008" stroke="none" /><path d="M 87.83215693770417 117.11559508785305 l -3.2299305632029087 4.543301832431054 a26.57440965337888,26.57440965337888 0 0,0 -0.36953486937563557,-0.26751474771145045 l 3.3074464429524983 -4.487186313346538" fill="#ff4906" stroke="none" /><path d="M 87.54013794807813 116.9041958592261 l -3.0158367142080724 4.091561711034731 a26.082927141123587,26.082927141123587 0 0,0 -0.3581397181714875,-0.2687547212665785 l 3.085629421290326 -4.039187962504138" fill="#ff4306" stroke="none" /><path d="M 87.2517909369889 116.68781488649013 l -0.3242543420039312 0.42445934238735894 a21.534141003526514,21.534141003526514 0 0,0 -0.29182868478221,-0.2269277503966655 l 0.3314929714213696 -0.4188305403699003" fill="#ff0200" stroke="none" /><path d="M 86.96720088162412 116.46651593811092 l -5.336209615818893 6.742126529372346 a29.598337234723026,29.598337234723026 0 0,0 -0.39570049416255515,-0.318748307929078 l 5.45116088033671 -6.649529927649858" fill="#ff730a" stroke="none" /><path d="M 86.68645165197938 116.24036423190432 l -1.403000922469899 1.7114330006542928 a23.2130102810832,23.2130102810832 0 0,0 -0.30599795367465177,-0.25527437614974563 l 1.4321732103064435 -1.687096440592677" fill="#ff1a02" stroke="none" /><path d="M 86.40962598614128 116.0094264158162 l -0.33903086379866754 0.39937750507384934 a21.523874334327502,21.523874334327502 0 0,0 -0.27962640921,-0.24153463233220213 l 0.3458367527715301 -0.3934987402769249" fill="#ff0200" stroke="none" /><path d="M 86.13680546590413 115.77377054828092 l -3.706050680447985 4.216805364009809 a26.61393437118665,26.61393437118665 0 0,0 -0.34057594949359105,-0.304545114132688 l 3.7778916567649468 -4.152564719993738" fill="#ff4a06" stroke="none" /><path d="M 85.86807049272751 115.53346607816431 l -3.985629710146846 4.380905231011078 a26.922632423973774,26.922632423973774 0 0,0 -0.3391870008209877,-0.3139464241920113 l 4.060246482281801 -4.31184106068669" fill="#ff4e07" stroke="none" /><path d="M 85.60350026404147 115.28858382429668 l -3.104098502448667 3.2964450403888765 a25.527910933003042,25.527910933003042 0 0,0 -0.3164579806781116,-0.30315958692049805 l 3.1602289689920933 -3.242673323162796" fill="#ff3b05" stroke="none" /><path d="M 85.34317274990678 115.03919595460226 l -1.6637723558653106 1.7071770074624801 a23.383818740372295,23.383818740372295 0 0,0 -0.2850688826548433,-0.2826324111188656 l 1.6928331586501164 -1.678364586114955" fill="#ff1d02" stroke="none" /><path d="M 85.08716467003676 114.78537596483092 l -6.322656133303757 6.2686166620114205 a29.903456375770638,29.903456375770638 0 0,0 -0.3582906816835653,-0.36763780309363425 l 6.429333616138131 -6.159156166850049" fill="#ff770a" stroke="none" /><path d="M 84.83555147118756 114.52719865689866 l -3.47031070721495 3.3244791559078273 a25.8057484393876,25.8057484393876 0 0,0 -0.3037019134697352,-0.32252090764006763 l 3.526868454420938 -3.2644167883232695" fill="#ff3f05" stroke="none" /><path d="M 84.58840730492382 114.26474011684316 l -0.3870353364473128 0.358234129313562 a21.527378462836634,21.527378462836634 0 0,0 -0.248694833806246,-0.27335918727559655 l 0.3931278710954387 -0.3515373664802913" fill="#ff0200" stroke="none" /><path d="M 84.3458050057657 113.99807769240083 l -4.388156401923407 3.923916513315058 a26.886683056799303,26.886683056799303 0 0,0 -0.3047015759223906,-0.3466944601028663 l 4.45486904180439 -3.8480097754008917" fill="#ff4e07" stroke="none" /><path d="M 84.1078160697243 113.72728997021213 l -3.626290656659091 3.1323035008044156 a25.791796025262826,25.791796025262826 0 0,0 -0.2865412490290225,-0.33754487085846563 l 3.679526469195226 -3.0695918474963952" fill="#ff3f05" stroke="none" /><path d="M 83.8745106332314 113.45245675266167 l -3.700478237492729 3.0870705577856343 a25.819081221032096,25.819081221032096 0 0,0 -0.28100157797157355,-0.34277623490785614 l 3.7529266347029324 -3.0230920411792828" fill="#ff3f05" stroke="none" /><path d="M 83.64595745247003 113.17365903436017 l -3.194061837333998 2.5729101203821467 a25.10145065900814,25.10145065900814 0 0,0 -0.26743034057212456,-0.33788949905291904 l 3.237758608547684 -2.517700677414547" fill="#ff3505" stroke="none" /><path d="M 83.4222238831116 112.89097897827486 l -1.3624429526891333 1.0594438806735977 a22.725883001720863,22.725883001720863 0 0,0 -0.23683402656210703,-0.310023343244182 l 1.3804289566055354 -1.0358996241885454" fill="#ff1302" stroke="none" /><path d="M 83.20337586046588 112.60449989151573 l -5.8293221831956545 4.374432041541047 a28.288117232972994,28.288117232972994 0 0,0 -0.2881319593289889,-0.39090634017481146 l 5.903556162108474 -4.273719392097356" fill="#ff6108" stroke="none" /><path d="M 82.98947788004972 112.3143062007846 l -2.676891594634828 1.9378630785223776 a24.304703000350685,24.304703000350685 0 0,0 -0.24175645197556297,-0.3400607256935656 l 2.709763145140352 -1.891625126119308" fill="#ff2a04" stroke="none" /><path d="M 82.78059297857968 112.02048342749411 l -5.406724981628112 3.774313944599375 a27.59379411108345,27.59379411108345 0 0,0 -0.26780468762112636,-0.390735042679276 l 5.470719406064563 -3.6809441668500478" fill="#ff5708" stroke="none" /><path d="M 82.576782715395 111.72311816256416 l -4.072162842040805 2.7399328949785136 a25.908130242881008,25.908130242881008 0 0,0 -0.24511011011996542,-0.3711279472224246 l 4.118597391081496 -2.669625069417028" fill="#ff4006" stroke="none" /><path d="M 82.37810715431573 111.42229804090323 l -5.103847191570018 3.3082520866432996 a27.082251887555866,27.082251887555866 0 0,0 -0.24952079100825755,-0.39228812776677235 l 5.159885674204165 -3.2201502841978553" fill="#ff5007" stroke="none" /><path d="M 82.18462484594161 111.11811171558189 l -5.35077492218745 3.339279293047164 a27.30726394444403,27.30726394444403 0 0,0 -0.24476675606743978,-0.3998081011003174 l 5.4073096427102945 -3.2469340758222898" fill="#ff5407" stroke="none" /><path d="M 81.99639281039703 110.81064883170644 l -9.606218982131416 5.7682584896802265 a32.20501000162115,32.20501000162115 0 0,0 -0.2805306188014383,-0.4764023205760887 l 9.703823311062624 -5.602505000810579" fill="#ff950d" stroke="none" /><line stroke="#e1ed5e" stroke-width="0.3" x1="26.387840678322732" x2="22.057713659400548" y1="142.50000000000003" y2="145.00000000000006" /><path d="M 25.521815274538298 143.00000000000003 a86.0,86.0 0 0,1 -11.493303480769221,-40.785679425670985" fill="none" id="id117" stroke="none" /><text fill="#e1ed5e" style="font-size:6.75px; font-family:Arial;" text-anchor="middle"><textPath startOffset="21.40746469413373" xlink:href="#id117">September</textPath></text><path d="M 81.81346652052679 110.50000000000001 l -6.662614738115728 3.8466624125578885 a28.69332482511577,28.69332482511577 0 0,0 -0.2426179588354455,-0.42868268605842286 l 6.727666061972553 -3.731722956400344" fill="#ff6609" stroke="none" /><path d="M 81.63589988554817 110.18625677009913 l -0.466834550336976 0.2589452556482184 a21.533841870605002,21.533841870605002 0 0,0 -0.17653100088918003,-0.3247971585350806 l 0.4712109008414857 -0.25089326363855086" fill="#ff0200" stroke="none" /><path d="M 81.4637452351635 109.86951160357371 l -5.056867572639108 2.692497153231567 a26.72900083499462,26.72900083499462 0 0,0 -0.2121670839788308,-0.40685835880804333 l 5.102342725592888 -2.6052925513190206" fill="#ff4c07" stroke="none" /><path d="M 81.29705330413844 109.54985784667822 l -4.167627359993185 2.128020225533149 a25.67948585766021,25.67948585766021 0 0,0 -0.19709627424836407,-0.39432457805661186 l 4.203543547453286 -2.0561637913127844" fill="#ff3d05" stroke="none" /><path d="M 81.1358732173502 109.22738970284198 l -3.7024019412909572 1.8110303192126567 a25.12160295904185,25.12160295904185 0 0,0 -0.18616392827250305,-0.3890110100173658 l 3.7329451275233723 -1.747206807130186" fill="#ff3505" stroke="none" /><path d="M 80.9802524753101 108.90220220490708 l -4.967864865444762 2.325211599230406 a26.48509710967054,26.48509710967054 0 0,0 -0.1891988579177635,-0.41343364950780487 l 5.007048188217581 -2.2395889675079124" fill="#ff4806" stroke="none" /><path d="M 80.83023694016515 108.57439118712176 l -17.638589253817358 7.889516619434693 a40.322637070369495,40.322637070369495 0 0,0 -0.2772010752708544,-0.6342903081431176 l 17.77142421110518 -7.585564241515726" fill="#fffb17" stroke="none" /><path d="M 80.68587082218212 108.24405325689762 l -8.188425496086138 3.4951519304014127 a29.903167926167754,29.903167926167754 0 0,0 -0.1974665027545222,-0.47384772145460985 l 8.247217843377145 -3.3540716995055218" fill="#ff770a" stroke="none" /><path d="M 80.5471966667186 107.91128576633889 l -3.1554045680593488 1.28327556798045 a24.4063725826024,24.4063725826024 0 0,0 -0.154505500495315,-0.3894547917112759 l 3.1769687435207885 -1.2289197590556087" fill="#ff2b04" stroke="none" /><path d="M 80.41425534168474 107.57618678355246 l -0.4902278299189647 0.18963065590589304 a21.52562639858207,21.52562639858207 0 0,0 -0.13035234236064797,-0.345775074901524 l 0.4934108560940486 -0.18118730081022413" fill="#ff0200" stroke="none" /><path d="M 80.28708602549918 107.23885506374661 l -3.9803910594534564 1.461654731192322 a25.240276823438997,25.240276823438997 0 0,0 -0.14586455730173128,-0.4080091272774446 l 4.004895786799131 -1.393110647533956" fill="#ff3705" stroke="none" /><path d="M 80.16572619554312 106.89939002012753 l -4.842735407380498 1.6845547595642933 a26.127359063286622,26.127359063286622 0 0,0 -0.14371861274394962,-0.424878541453558 l 4.870939441696815 -1.6011745436365736" fill="#ff4306" stroke="none" /><path d="M 80.05021161711548 106.5578916946017 l -5.896497059798877 1.9382957028693704 a27.206904849277027,27.206904849277027 0 0,0 -0.14203984504627,-0.44493779155493196 l 5.928901620622402 -1.8367888776230468" fill="#ff5207" stroke="none" /><path d="M 79.94057633289273 106.21446072829308 l -0.4536654662293094 0.14054672110484318 a21.474937612810756,21.474937612810756 0 0,0 -0.10606950270919999,-0.3530708772827976 l 0.4560112889421391 -0.1327382402313221" fill="#ff0100" stroke="none" /><path d="M 79.83685265289637 105.86919833188381 l -6.95690409371292 2.025053390673197 a28.245643919224612,28.245643919224612 0 0,0 -0.13151912641649488,-0.46671498210611784 l 6.99064171220399 -1.9053304846640835" fill="#ff6008" stroke="none" /><path d="M 79.73907114497094 105.5222062557868 l -3.4358767582480048 0.9364634891257752 a24.561209480546523,24.561209480546523 0 0,0 -0.10737987592727143,-0.40773887910009843 l 3.451446114980009 -0.8773441056528741" fill="#ff2d04" stroke="none" /><path d="M 79.56144815229197 104.8234425847677 l -4.673683472590976 1.1029765737511537 a25.80206981667425,25.80206981667425 0 0,0 -0.09803452003339899,-0.4319581838500395 l 4.691928854182041 -1.0225840559620878" fill="#ff3f05" stroke="none" /><path d="M 79.48165901384964 104.47187691870673 l -5.443979416705998 1.186489975769217 a26.571774434784615,26.571774434784615 0 0,0 -0.09330778448950401,-0.44651152658049703 l 5.463544912019869 -1.092861997903311" fill="#ff4906" stroke="none" /><path d="M 79.407916724674 104.11899336999214 l -2.2776168718453946 0.45558716274980177 a23.32273508557847,23.32273508557847 0 0,0 -0.07515885511248198,-0.39326288905765977 l 2.2851020192400338 -0.41642170865882744" fill="#ff1c02" stroke="none" /><path d="M 79.34024301695615 103.76489593502545 l -26.975166694454007 4.91577396181071 a48.419417423373474,48.419417423373474 0 0,0 -0.14199612661610214,-0.818995924319443 l 27.055577638562344 -4.451985004570674" fill="#a5ff21" stroke="none" /><path d="M 79.2786578344484 103.40968896794605 l -28.9098094350394 4.757098141063022 a50.298584680731565,50.298584680731565 0 0,0 -0.13288049645923727,-0.8531881093046814 l 28.987211423636904 -4.2601218498268905" fill="#91ff24" stroke="none" /><path d="M 79.22317932658666 103.0534771498775 l -5.325281019154686 0.7826329236923518 a26.38248383427358,26.38248383427358 0 0,0 -0.06200572591023155,-0.4486425445686347 l 5.33793126162013 -0.6911020709236314" fill="#ff4706" stroke="none" /><path d="M 79.17382384314188 102.69636545807758 l -0.5755143876358391 0.07451185967890397 a21.580317867731697,21.580317867731697 0 0,0 -0.04441220552841514,-0.36779677232686286 l 0.5767086794239156 -0.06462141042864183" fill="#ff0300" stroke="none" /><path d="M 79.13060592940153 102.33845913500099 l -5.744784277684607 0.6437150607878833 a26.780736585991217,26.780736585991217 0 0,0 -0.047271325372448034,-0.45730719188897606 l 5.754987995538721 -0.5450033466159758" fill="#ff4c07" stroke="none" /><path d="M 79.0935383218832 101.97986365728391 l -5.035821006577353 0.4768974850462351 a26.05835194717896,26.05835194717896 0 0,0 -0.03835091700736065,-0.4456957885478151 l 5.043265546282455 -0.390380649122758" fill="#ff4206" stroke="none" /><path d="M 79.06263194458094 101.62068470465958 l -10.969163986560087 0.8490826664012983 a32.00197709225164,32.00197709225164 0 0,0 -0.03769534038802867,-0.5480819762519223 l 10.982123288113183 -0.6606572659950326" fill="#ff930d" stroke="none" /><path d="M 79.03789590574601 101.26102812881392 l -62.886312282761985 3.783084386441755 a84.0,84.0 0 0,0 -0.07423364217370931,-1.440112826493077 l 62.94198751439227 -2.7029997665719474" fill="#4dd2ff" stroke="none" /><path d="M 79.00696218219943 100.54070618675478 l -4.12598935351492 0.10627084985471444 a25.127357706674733,25.127357706674733 0 0,0 -0.007404874852978234,-0.4312968370914146 l 4.127205659966564 -0.03542709679424746" fill="#ff3505" stroke="none" /><line stroke="#e1ed5e" stroke-width="0.3" x1="15.003131293944662" x2="10.003315487706104" y1="100.72959589197737" y2="100.7725132973878" /><path d="M 14.003168132696942 100.73817937305945 a86.0,86.0 0 0,1 10.791469493833604,-42.45332614584628" fill="none" id="id118" stroke="none" /><text fill="#e1ed5e" style="font-size:6.75px; font-family:Arial;" text-anchor="middle"><textPath startOffset="22.145653131862435" xlink:href="#id118">October</textPath></text><path d="M 79.00077361379809 100.18025310272382 l -10.683605211500113 0.09170590155238528 a31.683998796685252,31.683998796685252 0 0,0 0.0,-0.5439180085524017 l 10.683605211500113 0.09170590155238136" fill="#ff8e0d" stroke="none" /><path d="M 79.00077361379809 99.81974689727619 l -3.714278557418646 -0.03188261424693059 a24.71441539184717,24.71441539184717 0 0,0 0.007283183340544158,-0.4242089165720587 l 3.7131839424794357 0.09563844678804168" fill="#ff3004" stroke="none" /><path d="M 79.00696218219943 99.45929381324524 l -11.220924606484775 -0.28901121450324296 a32.224645941254636,32.224645941254636 0 0,0 0.018990003806604684,-0.5528732409177478 l 11.214309915681321 0.48159071998512937" fill="#ff950d" stroke="none" /><path d="M 79.06263194458094 98.37931529534042 l -3.655167812070764 -0.28293310555114876 a24.666101863916904,24.666101863916904 0 0,0 0.0363018976562913,-0.42188307775268785 l 3.6497722917167295 0.34563723067951724" fill="#ff2f04" stroke="none" /><path d="M 79.13060592940154 97.66154086499901 l -5.606860447522676 -0.6282604079366624 a26.641949593728654,26.641949593728654 0 0,0 0.054829022829334745,-0.4540629627944083 l 5.595249338433673 0.7244170476545069" fill="#ff4a06" stroke="none" /><path d="M 79.17382384314186 97.30363454192245 l -4.659854813777293 -0.6033114991869463 a25.698747881141806,25.698747881141806 0 0,0 0.060398767885694336,-0.43701539680830925 l 4.648811529336391 0.6832152041953224" fill="#ff3d05" stroke="none" /><path d="M 79.22317932658666 96.9465228501225 l -4.287360261059358 -0.6300943150166204 a25.33341399521523,25.33341399521523 0 0,0 0.0669266670237177,-0.42971721224375553 l 4.275912101897373 0.7035997091918259" fill="#ff3805" stroke="none" /><path d="M 79.2786578344484 96.59031103205396 l -5.97450132052001 -0.9831019187271758 a27.05484561417551,27.05484561417551 0 0,0 0.07934179070802012,-0.4576223645434708 l 5.956744712319755 1.0855173161912393" fill="#ff5007" stroke="none" /><path d="M 79.34024301695615 96.23510406497455 l -2.166175297556017 -0.39474929831046013 a23.201849774225867,23.201849774225867 0 0,0 0.07476929524448624,-0.3912245472159881 l 2.1590797100293715 0.4318764105597627" fill="#ff1a02" stroke="none" /><path d="M 79.407916724674 95.88100663000787 l -9.337299971161915 -1.8677215005694836 a30.52226624050965,30.52226624050965 0 0,0 0.10718008492396806,-0.5128955059886953 l 9.30386217541358 2.027733457843588" fill="#ff7f0b" stroke="none" /><path d="M 79.48165901384962 95.52812308129327 l -1.1592202052943492 -0.2526466483451723 a22.186432388837527,22.186432388837527 0 0,0 0.08429696787688262,-0.3714279942999441 l 1.1547123758598048 0.27250897658412465" fill="#ff0c01" stroke="none" /><path d="M 79.64726062577567 94.8264132398404 l -5.670202580641361 -1.4413433228443204 a26.850527145464746,26.850527145464746 0 0,0 0.117388611328187,-0.44574367765603695 l 5.644624488508449 1.538467504873142" fill="#ff4d07" stroke="none" /><path d="M 79.73907114497095 94.47779374421319 l -2.80041260088681 -0.7632649072533937 a23.902565081759608,23.902565081759608 0 0,0 0.11129661223713788,-0.394952413417291 l 2.78689749657509 0.8112252445736978" fill="#ff2403" stroke="none" /><path d="M 79.94057633289273 93.78553927170692 l -5.73419366003991 -1.7764678537189502 a27.003067129904405,27.003067129904405 0 0,0 0.14097566379394638,-0.4416042589390137 l 5.702853280468707 1.8746411463493555" fill="#ff4f07" stroke="none" /><path d="M 80.05021161711548 93.44210830539832 l -10.151243998027223 -3.336915531477558 a31.68563334443494,31.68563334443494 0 0,0 0.17429297990452464,-0.5152662252547715 l 10.092465596550333 3.5106834312064907" fill="#ff8e0d" stroke="none" /><path d="M 80.28708602549916 92.7611449362534 l -6.61119802753378 -2.4277234903449267 a28.042853165077283,28.042853165077283 0 0,0 0.16981859337595515,-0.4504639945923136 l 6.568548750343389 2.5408557651313854" fill="#ff5e08" stroke="none" /><path d="M 80.41425534168474 92.42381321644754 l -2.8643398130019486 -1.1079881726965768 a24.071169216305663,24.071169216305663 0 0,0 0.15238348241572108,-0.3841059199458927 l 2.844897655620096 1.1569951098560525" fill="#ff2703" stroke="none" /><path d="M 80.5471966667186 92.08871423366112 l -2.9701111539295346 -1.2079183495535495 a24.20634168576663,24.20634168576663 0 0,0 0.15984733286357725,-0.38357540849428046 l 2.9489379765294785 1.2587262674890936" fill="#ff2803" stroke="none" /><path d="M 80.68587082218212 91.75594674310238 l -0.4948991690217999 -0.21124302673174147 a21.53809739252412,21.53809739252412 0 0,0 0.14806530996661763,-0.33880240541010553 l 0.491199977038205 0.21970750191771388" fill="#ff0200" stroke="none" /><path d="M 80.83023694016515 91.42560881287825 l -0.9301735482162371 -0.41605479678723656 a22.018982052703016,22.018982052703016 0 0,0 0.157294732189684,-0.3437173770139743 l 0.9228943511715063 0.4319611560158822" fill="#ff0901" stroke="none" /><path d="M 80.9802524753101 91.09779779509293 l -4.101255258638972 -1.9195945455610266 a25.528259921411475,25.528259921411475 0 0,0 0.1891774643791653,-0.3953081414512339 l 4.067698536299901 1.9897151890773477" fill="#ff3b05" stroke="none" /><path d="M 81.1358732173502 90.77261029715801 l -1.065426542875136 -0.52115351132514 a22.186058472685637,22.186058472685637 0 0,0 0.17028337286270445,-0.34068081403471406 l 1.0563232568006875 0.5393661815236244" fill="#ff0c01" stroke="none" /><path d="M 81.29705330413844 90.45014215332179 l -5.371130957379453 -2.7425377376612152 a27.030801025055943,27.030801025055943 0 0,0 0.21456268666765468,-0.41145224283591564 l 5.323260201736859 2.834336223601617" fill="#ff5007" stroke="none" /><path d="M 81.46374523516351 90.13048839642627 l -1.0471192693815612 -0.5575320317182813 a22.186297066801604,22.186297066801604 0 0,0 0.1818797245173906,-0.33463820757169677 l 1.03739419524882 0.5754250727645976" fill="#ff0c01" stroke="none" /><path d="M 81.63589988554816 89.8137432299009 l -1.7880371465457812 -0.9917940642709415 a23.044683912821405,23.044683912821405 0 0,0 0.194855570311709,-0.34429112204065604 l 1.7707482112127033 1.0223419564107028" fill="#ff1802" stroke="none" /><line stroke="#e1ed5e" stroke-width="0.3" x1="26.387840678322718" x2="22.05771365940052" y1="57.49999999999999" y2="54.99999999999999" /><path d="M 25.521815274538284 56.99999999999999 a86.0,86.0 0 0,1 29.574782752854787,-30.34633250058573" fill="none" id="id119" stroke="none" /><text fill="#e1ed5e" style="font-size:6.75px; font-family:Arial;" text-anchor="middle"><textPath startOffset="21.40746469413373" xlink:href="#id119">November</textPath></text><path d="M 81.81346652052679 89.5 l -1.6151168091902448 -0.9324881245586776 a22.864976249117355,22.864976249117355 0 0,0 0.19917167967722627,-0.3382370551801673 l 1.5988714193832392 0.9600763480324176" fill="#ff1502" stroke="none" /><path d="M 81.99639281039701 89.18935116829357 l -5.080618508213445 -3.050765436155627 a26.926200652394655,26.926200652394655 0 0,0 0.24135112182298907,-0.3942289192568796 l 5.027499421935063 3.1375314715370495" fill="#ff4e07" stroke="none" /><path d="M 82.18462484594161 88.88188828441811 l -16.52817934239153 -10.314806328511155 a40.48270879444006,40.48270879444006 0 0,0 0.3729851403231023,-0.5863945917730539 l 16.348676510442537 10.59701459496288" fill="#fffd17" stroke="none" /><path d="M 82.78059297857968 87.97951657250589 l -2.0000730766731523 -1.396206341020897 a23.439197503020157,23.439197503020157 0 0,0 0.23314735528356595,-0.3279509530495557 l 1.975810622859614 1.430334520779973" fill="#ff1e03" stroke="none" /><path d="M 82.98947788004972 87.6856937992154 l -4.950440382862533 -3.5837370701162654 a27.111467202890125,27.111467202890125 0 0,0 0.27614705146751106,-0.3746465108925167 l 4.888191311811203 3.6681898902776457" fill="#ff5107" stroke="none" /><path d="M 83.2033758604659 87.39550010848427 l -1.6724237125653565 -1.2550179326798392 a23.090949804681802,23.090949804681802 0 0,0 0.24063850979836043,-0.3150035339259916 l 1.6506332254126892 1.2835423798467152" fill="#ff1902" stroke="none" /><path d="M 83.42222388311158 87.10902102172516 l -6.8395705605863055 -5.318491436684606 a29.664068133118896,29.664068133118896 0 0,0 0.3160403735768856,-0.3993066877899389 l 6.747263756367858 5.435118068389228" fill="#ff740a" stroke="none" /><path d="M 83.64595745247003 86.82634096563983 l -1.1920113924717164 -0.9601999997160939 a22.530645353841688,22.530645353841688 0 0,0 0.2452119362012811,-0.2991186912624531 l 1.1753526370318053 0.9805209726770399" fill="#ff1101" stroke="none" /><path d="M 83.8745106332314 86.54754324733833 l -4.208250987027012 -3.510672645010776 a26.480346593988447,26.480346593988447 0 0,0 0.2941908962187318,-0.3465561360131794 l 4.147365527301165 3.582395563473512" fill="#ff4806" stroke="none" /><path d="M 84.10781606972428 86.27271002978789 l -1.7678245104493593 -1.5270047073363826 a23.33601088952363,23.33601088952363 0 0,0 0.26446249538325844,-0.3009097730354666 l 1.7413509511075083 1.5571267581831494" fill="#ff1c02" stroke="none" /><path d="M 84.34580500576568 86.00192230759919 l -3.597103827564654 -3.216552423451223 a25.825491212207336,25.825491212207336 0 0,0 0.2983487402366518,-0.3279375285267434 l 3.5413573864861365 3.2778275275356243" fill="#ff3f05" stroke="none" /><path d="M 84.83555147118756 85.47280134310135 l -1.337768506145768 -1.2815519673397595 a22.852565793980848,22.852565793980848 0 0,0 0.27380986577787014,-0.2809530436207165 l 1.3155718392170954 1.3043277030282063" fill="#ff1502" stroke="none" /><path d="M 85.08716467003674 85.21462403516908 l -2.790699963296355 -2.766847970182618 a24.929816023078683,24.929816023078683 0 0,0 0.30391592055149136,-0.3013183641894707 l 2.7427921226148873 2.814346344600762" fill="#ff3304" stroke="none" /><path d="M 85.34317274990677 84.96080404539775 l -14.980256797715287 -15.371063163050483 a42.46340318980153,42.46340318980153 0 0,0 0.5263996282905002,-0.5042789362609682 l 14.714184683559486 15.625954229617019" fill="#e9ff1a" stroke="none" /><path d="M 85.86807049272753 84.46653392183569 l -0.3335561010326952 -0.3666365854634189 a21.495663250944034,21.495663250944034 0 0,0 0.2750779279598022,-0.2459763793963313 l 0.3272131462495011 0.3723084947431511" fill="#ff0200" stroke="none" /><path d="M 86.13680546590413 84.22622945171909 l -0.3281911089247293 -0.37342123674542865 a21.497144671126755,21.497144671126755 0 0,0 0.2792791520376242,-0.24123467985742844 l 0.3217324771242565 0.3790000490675678" fill="#ff0200" stroke="none" /><path d="M 86.40962598614128 83.9905735841838 l -3.8102496748955694 -4.488464536290453 a26.88764099436938,26.88764099436938 0 0,0 0.354437577194374,-0.29568443290481056 l 3.7326377635392864 4.553211153107146" fill="#ff4e07" stroke="none" /><path d="M 86.68645165197937 83.75963576809568 l -0.30829315180887285 -0.3760675174415274 a21.48628329719093,21.48628329719093 0 0,0 0.28725035636263374,-0.23138855369991063 l 0.3017920250909936 0.38130436493483694" fill="#ff0200" stroke="none" /><path d="M 86.96720088162412 83.53348406188908 l -0.7371841622898418 -0.9314081071466211 a22.18783902578987,22.18783902578987 0 0,0 0.3006875398463723,-0.233816449676865 l 0.7210866778082249 0.943925608444291" fill="#ff0c01" stroke="none" /><path d="M 87.25179093698888 83.31218511350988 l -7.368319064159031 -9.6453661812037 a33.13775986748615,33.13775986748615 0 0,0 0.45500828628489787,-0.3414467006866003 l 7.201657788963381 9.7704319091543" fill="#ffa10e" stroke="none" /><path d="M 87.54013794807813 83.09580414077388 l -0.25085823369106997 -0.3403373727206937 a21.422799456812598,21.422799456812598 0 0,0 0.29789829773045357,-0.21565539429520938 l 0.24497892558664855 0.34459353838898243" fill="#ff0100" stroke="none" /><path d="M 87.83215693770416 82.88440491214696 l -3.665429624185199 -5.155885800744219 a27.326020290844024,27.326020290844024 0 0,0 0.38465265412660876,-0.26851742621095065 l 3.576381878884825 5.218048042760296" fill="#ff5407" stroke="none" /><path d="M 88.12776184653039 82.6780497279521 l -1.327307127267527 -1.936580765737393 a23.34778390664882,23.34778390664882 0 0,0 0.33254327767562086,-0.22374995815510706 l 1.2938675614949167 1.9590803979496096" fill="#ff1c02" stroke="none" /><path d="M 88.4268655584334 82.4767994020092 l -3.7240742082930076 -5.638723003107923 a27.75750884680528,27.75750884680528 0 0,0 0.39985929709101464,-0.25918396541142286 l 3.6267292789449668 5.701820810223253" fill="#ff5a08" stroke="none" /><path d="M 88.72937992617638 82.28071324371311 l -0.8796044604645592 -1.3828843102678479 a22.638924349216317,22.638924349216317 0 0,0 0.32970453102888947,-0.20576001220371049 l 0.8557358006459712 1.3977801193130945" fill="#ff1202" stroke="none" /><path d="M 89.03521579738668 82.08984904055464 l -5.20029598669675 -8.49429267685344 a30.959723210476298,30.959723210476298 0 0,0 0.4556493481146063,-0.2736043416736864 l 5.053713882024709 8.58231101906305" fill="#ff850c" stroke="none" /><line stroke="#e1ed5e" stroke-width="0.3" x1="56.869717070023135" x2="54.33264160355391" y1="26.7553504044142" y2="22.446841604673864" /><path d="M 56.362301976729285 25.89364864446614 a86.0,86.0 0 0,1 42.16139366436587,-11.88097634709845" fill="none" id="id120" stroke="none" /><text fill="#e1ed5e" style="font-size:6.75px; font-family:Arial;" text-anchor="middle"><textPath startOffset="22.145653131862474" xlink:href="#id120">December</textPath></text><path d="M 89.65649057296885 81.72400993836675 l -2.0237959190188395 -3.575853472526724 a25.108829271072082,25.108829271072082 0 0,0 0.3769383026810306,-0.20908132245329808 l 1.9621134281817063 3.6100677104131678" fill="#ff3505" stroke="none" /><path d="M 89.97174638481275 81.54914285379989 l -3.2961213924173642 -6.064492112158391 a27.902353280728445,27.902353280728445 0 0,0 0.4228019466572528,-0.2251182221806325 l 3.19153062997355 6.120180802061599" fill="#ff5c08" stroke="none" /><path d="M 90.28995756902619 81.37971332152246 l -1.4443946713798745 -2.7698172329470774 a24.123805927173002,24.123805927173002 0 0,0 0.36883320913713263,-0.18832886462608436 l 1.3966342405291596 2.794204049245996" fill="#ff2703" stroke="none" /><path d="M 90.61103034731259 81.2157712731953 l -1.6970790276700944 -3.3952948835119368 a24.795800913135462,24.795800913135462 0 0,0 0.382374570812264,-0.18703856361837434 l 1.6385442075957772 3.4239271972275254" fill="#ff3104" stroke="none" /><path d="M 90.93487009805054 81.0573650232925 l -1.2650012306764924 -2.643366042955151 a23.930462787796735,23.930462787796735 0 0,0 0.37207458011872296,-0.17414969064247565 l 1.219437936686247 2.6646919651681693" fill="#ff2503" stroke="none" /><path d="M 91.26138138417902 80.90454125486306 l -0.2073809727059317 -0.45316485166923054 a21.498362569450048,21.498362569450048 0 0,0 0.3368963324836406,-0.15068944437158194 l 0.19957123736667234 0.4566580469506581" fill="#ff0200" stroke="none" /><path d="M 91.5904679813234 80.7573450057729 l -7.2673044819759465 -16.629014857674605 a39.147667882417025,39.147667882417025 0 0,0 0.6180949313660251,-0.2638279720036367 l 6.98077447543949 16.751317479337647" fill="#ffed16" stroke="none" /><path d="M 91.92203290615298 80.6158196554323 l -0.21012283551326302 -0.5042183126994249 a21.546248764635298,21.546248764635298 0 0,0 0.3426320787157587,-0.1393454835785798 l 0.2014362956070635 0.5077510528572959" fill="#ff0200" stroke="none" /><path d="M 92.25597844496254 80.48000691201159 l -0.19492280394700795 -0.491332798946284 a21.528585677841306,21.528585677841306 0 0,0 0.34469084067498995,-0.13333382197570562 l 0.18645970077848859 0.4946065090600302" fill="#ff0200" stroke="none" /><path d="M 92.93061703081487 80.22567764915836 l -0.183463325052539 -0.5131795723841405 a21.544988133037503,21.544988133037503 0 0,0 0.3493306714599118,-0.12151534117943716 l 0.17462688154762288 0.5162533461321634" fill="#ff0200" stroke="none" /><path d="M 93.27111125876988 80.10723608172694 l -1.7496178304158299 -5.172434228909609 a26.460333177096864,26.460333177096864 0 0,0 0.4315267841628693,-0.14185142516537616 l 1.6605683086051994 5.201706575477013" fill="#ff4806" stroke="none" /><path d="M 93.61358852112211 79.99465700312896 l -1.888264867596891 -5.914962803470079 a27.209052196320734,27.209052196320734 0 0,0 0.4461758092613414,-0.13822640623098462 l 1.7864484254639332 5.946505797507706" fill="#ff5207" stroke="none" /><path d="M 93.95794788825049 79.88797359093562 l -2.878209485097148 -9.58062328898585 a31.003620966708066,31.003620966708066 0 0,0 0.5110282370257687,-0.14875287199287712 l 2.713321235689755 9.628619855281247" fill="#ff850c" stroke="none" /><path d="M 94.30408787586887 79.78721728523814 l -1.1137506615485657 -3.9523081869416092 a25.10623678575232,25.10623678575232 0 0,0 0.4158293384106016,-0.11333613529474008 l 1.0457399222032864 3.970844816380489" fill="#ff3505" stroke="none" /><path d="M 94.6519064749342 79.69241777938228 l -1.0893686852259703 -4.136510335899634 a25.277550922123016,25.277550922123016 0 0,0 0.42056392821027355,-0.10690570594860425 l 1.0181994637903187 4.154601273683501" fill="#ff3705" stroke="none" /><path d="M 95.00130118170881 79.60360301121753 l -1.0699915985950772 -4.365930857796255 a25.495134511460318,25.495134511460318 0 0,0 0.42597252076892744,-0.10052835503842618 l 0.9948869240862437 4.383655356480913" fill="#ff3b05" stroke="none" /><path d="M 95.35216902796891 79.52079915486377 l -0.33215467931256576 -1.463534803702484 a22.50075342832782,22.50075342832782 0 0,0 0.37741004818301327,-0.0822547634088362 l 0.3069822145104341 1.4690210252450344" fill="#ff1001" stroke="none" /><path d="M 95.70440661134978 79.44403061299748 l -1.0260294624238344 -4.909922404544521 a26.015981905510625,26.015981905510625 0 0,0 0.4379400493314534,-0.08760027509269588 l 0.9415929275614043 4.9268120763000836" fill="#ff4206" stroke="none" /><path d="M 96.05791012581881 79.37332000966035 l -1.8889903168798379 -9.883995549245018 a31.062884896229367,31.062884896229367 0 0,0 0.5246155403997433,-0.09560242732396385 l 1.719040042929056 9.914966150500343" fill="#ff860c" stroke="none" /><path d="M 96.76829788921471 79.25015418208739 l -0.08261912343315658 -0.5304740394010233 a21.536869282074605,21.536869282074605 0 0,0 0.36579336079643116,-0.05375902725088426 l 0.0735006570290405 0.5318141399507923" fill="#ff0200" stroke="none" /><path d="M 97.12497278360702 79.19773525538626 l -0.6149986894869303 -4.449824155872934 a25.492121815607955,25.492121815607955 0 0,0 0.4339999483876839,-0.0561899823004566 l 0.5385209192084522 4.4597257343737855" fill="#ff3a05" stroke="none" /><path d="M 97.48249496171623 79.15144685158666 l -0.9637293423957672 -7.981061451746237 a29.039037015833696,29.039037015833696 0 0,0 0.49541163880279404,-0.05551190745764601 l 0.8265818019921739 7.996429119710855" fill="#ff6b09" stroke="none" /><path d="M 97.84075906011542 79.11130261209362 l -0.1415355947601448 -1.3692284885632318 a22.376524238245466,22.376524238245466 0 0,0 0.38242591995390857,-0.03621613222636524 l 0.11801011142122068 1.371456376294781" fill="#ff0e01" stroke="none" /><path d="M 98.1996594967304 79.07731436759882 l -0.046155782226876586 -0.5364001531358645 a21.538382281020795,21.538382281020795 0 0,0 0.36864582829442644,-0.028535518589150877 l 0.036940959157232986 0.5371134387200691" fill="#ff0200" stroke="none" /><path d="M 98.5590905019552 79.04949213459386 l -0.3606136829593688 -5.243243806404823 a26.255630108915586,26.255630108915586 0 0,0 0.44991603728636587,-0.027065831563068313 l 0.2705532935405191 5.248661615792585" fill="#ff4506" stroke="none" /><path d="M 98.9189461498227 79.02784411241856 l -0.14331253653511825 -2.78022492252934 a23.78391614510592,23.78391614510592 0 0,0 0.4079216146427333,-0.01751790931144078 l 0.09556516129156482 2.7822754002666095" fill="#ff2203" stroke="none" /><path d="M 99.27912038922189 79.0123766808444 l -0.0852039847342369 -2.480621049835276 a23.482083905088718,23.482083905088718 0 0,0 0.40298239986988793,-0.010379397143666199 l 0.042608270793605026 2.4817181643289876" fill="#ff1e03" stroke="none" /><path d="M 99.63950707515114 79.00309439819443 l -0.0167855061435609 -0.9776715815508543 a21.977815664933143,21.977815664933143 0 0,0 0.3772784309924128,-0.0032384815767234486 l 2.3949576484330286e-16 0.9778156649331429" fill="#ff0901" stroke="none" /></svg>