<?xml version="1.0" encoding="utf-8" ?>
<svg baseProfile="full" height="200mm" version="1.1" viewBox="0,0,200,200" width="200mm" xmlns="http://www.w3.org/2000/svg" xmlns:ev="http://www.w3.org/2001/xml-events" xmlns:xlink="http://www.w3.org/1999/xlink"><defs /><rect fill="#1a1a1a" height="200" width="200" x="0" y="0" /><text alignment-baseline="middle" fill="#e1ed5e" style="dominant-baseline: central; font-size:9.0px; font-family:Arial;" text-anchor="middle" x="100.0" y="100.0">2019</text><line stroke="#e1ed5e" stroke-width="0.3" x1="100.0" x2="100.0" y1="15.0" y2="10.0" /><path d="M 100.0 14.0 a86.0,86.0 0 0,1 42.46469731375804,11.215312516191453" fill="none" id="id49" stroke="none" /><text fill="#e1ed5e" style="font-size:6.75px; font-family:Arial;" text-anchor="middle"><textPath startOffset="22.20632615414155" xlink:href="#id49">January</textPath></text><line stroke="#e1ed5e" stroke-width="0.3" x1="143.23703022742887" x2="145.7803849466894" y1="26.81831364943548" y2="22.513508569990506" /><path d="M 143.74570117128098 25.957352633546492 a86.0,86.0 0 0,1 28.547481713284135,27.462654790039103" fill="none" id="id50" stroke="none" /><text fill="#e1ed5e" style="font-size:6.75px; font-family:Arial;" text-anchor="middle"><textPath startOffset="19.985693538727396" xlink:href="#id50">February</textPath></text><line stroke="#e1ed5e" stroke-width="0.3" x1="172.23445277983987" x2="176.4835382374775" y1="55.19839476539836" y2="52.563006222186495" /><path d="M 173.08426987136738 54.67131705675599 a86.0,86.0 0 0,1 12.851231095245387,41.99856678651699" fill="none" id="id51" stroke="none" /><text fill="#e1ed5e" style="font-size:6.75px; font-family:Arial;" text-anchor="middle"><textPath startOffset="22.20632615414155" xlink:href="#id51">March</textPath></text><path d="M 120.91429891909075 98.10471618934814 l 1.529192573710901 -0.13857762765730466 a22.535458786936235,22.535458786936235 0 0,0 0.03168433585946643,0.3866291509652868 l -1.5313513933898621 0.11223455948424906" fill="#ff0b01" stroke="none" /><path d="M 120.96714384426684 98.82574320788733 l 1.2787116163633097 -0.07161375015217238 a22.28071539657854,22.28071539657854 0 0,0 0.018149649829135212,0.3831104221999255 l -1.2797548744259415 0.0495922213292471" fill="#ff0801" stroke="none" /><line stroke="#e1ed5e" stroke-width="0.3" x1="184.98032266829074" x2="189.97916517819016" y1="98.17113171792111" y2="98.06355123074" /><path d="M 185.9800911702706 98.14961562048488 a86.0,86.0 0 0,1 -9.607161424134198,41.387399972396054" fill="none" id="id52" stroke="none" /><text fill="#e1ed5e" style="font-size:6.75px; font-family:Arial;" text-anchor="middle"><textPath startOffset="21.466115282336823" xlink:href="#id52">April</textPath></text><path d="M 120.99513854157772 99.54816195383933 l 2.1179388257727965 -0.045580329895412344 a23.118429237947122,23.118429237947122 0 0,0 0.005137787843004567,0.3979273304815606 l -2.1184096207335164 0.009116741353389045" fill="#ff1402" stroke="none" /><path d="M 120.99980553446 99.90962569577887 l 2.1750964985925916 -0.009360697762250802 a23.175116640746502,23.175116640746502 0 0,0 -0.0017168377035282456,0.398932619388282 l -2.1749353635995603 -0.028081399829715938" fill="#ff1402" stroke="none" /><path d="M 120.99824983174949 100.27111621757518 l 2.1259503328878564 0.02744893586958717 a23.126127527216173,23.126127527216173 0 0,0 -0.008565408106914807,0.39800085760345205 l -2.125162862095934 -0.06403960926315407" fill="#ff1402" stroke="none" /><path d="M 120.9904718944345 100.63252640178507 l 2.1062756345526186 0.0634704619787218 a23.107231726283047,23.107231726283047 0 0,0 -0.015402474280046322,0.39746942181206 l -2.104871027421369 -0.099717130804788" fill="#ff1302" stroke="none" /><path d="M 120.9764740272857 100.99374915477107 l 1.358274462397781 0.06434752080827068 a22.359797822706064,22.359797822706064 0 0,0 -0.021522528924474604,0.38429921196363037 l -1.356965582585777 -0.08771844910732439" fill="#ff0901" stroke="none" /><path d="M 120.95626037817324 101.35467743843564 l 2.160110420451783 0.1396362136330184 a23.16461897356143,23.16461897356143 0 0,0 -0.029147092881470042,0.397688924894548 l -2.157386768905975 -0.17679827502433665" fill="#ff1402" stroke="none" /><path d="M 120.89721153311464 102.0752229133903 l 2.1226849839902266 0.2107958044883458 a23.13312597200622,23.13312597200622 0 0,0 -0.04276070044378683,0.3959109790781664 l -2.118741982045388 -0.24730310545130366" fill="#ff1402" stroke="none" /><path d="M 120.81339534386255 102.79330883721812 l 2.1107030225963257 0.283271677126907 a23.129626749611198,23.129626749611198 0 0,0 -0.056354728679793305,0.3941448411310197 l -2.105514242899931 -0.31956199023833604" fill="#ff1402" stroke="none" /><path d="M 120.70491114924044 103.5080841355445 l 1.5062926362627815 0.2552148745132295 a22.527760497667185,22.527760497667185 0 0,0 -0.06806983570036532,0.3817717880520311 l -1.5016763582232275 -0.28110541329847893" fill="#ff0b01" stroke="none" /><path d="M 118.64920377521936 109.65438752849418 l 2.2659963440718647 1.1730692155817521 a23.55163297045101,23.55163297045101 0 0,0 -0.18947568178883853,0.35841658416945177 l -2.245468154058133 -1.2119008148373382" fill="#ff1a02" stroke="none" /><line stroke="#e1ed5e" stroke-width="0.3" x1="174.80103733775053" x2="179.2010983576182" y1="140.37084112569926" y2="142.7455964860345" /><path d="M 175.68104954172406 140.8457921977663 a86.0,86.0 0 0,1 -30.038265399797805,32.042727171017184" fill="none" id="id53" stroke="none" /><text fill="#e1ed5e" style="font-size:6.75px; font-family:Arial;" text-anchor="middle"><textPath startOffset="22.206326154141568" xlink:href="#id53">May</textPath></text><path d="M 118.48025628344425 109.97397251340804 l 1.9252148792061778 1.0390570343339331 a23.187713841368584,23.187713841368584 0 0,0 -0.1925944907058304,0.3496149434825036 l -1.907043979048838 -1.0720424962142416" fill="#ff1502" stroke="none" /><path d="M 118.30583269289576 110.29060199501025 l 1.868610271217719 1.0504370332387147 a23.14362363919129,23.14362363919129 0 0,0 -0.19820640539567402,0.34558957467498796 l -1.8502518696696655 -1.0824464537720178" fill="#ff1402" stroke="none" /><path d="M 117.94076556474637 110.91462005526583 l 1.800852673217597 1.0955843903508324 a23.10793157076205,23.10793157076205 0 0,0 -0.2096608603982478,0.33804006443325335 l -1.7817271731513862 -1.1264207861493591" fill="#ff1402" stroke="none" /><path d="M 117.75023020441432 111.22182372390056 l 1.7823187160375589 1.126794763834004 a23.108631415241057,23.108631415241057 0 0,0 -0.215455125957929,0.33439114011753823 l -1.7626587267025795 -1.1573075038729952" fill="#ff1402" stroke="none" /><path d="M 117.14729908036423 112.12312394758627 l 1.773779704913928 1.2540605443226325 a23.172317262830482,23.172317262830482 0 0,0 -0.23306960301873608,0.32371329374948055 l -1.751930309519589 -1.2844074435232442" fill="#ff1402" stroke="none" /><path d="M 116.498646956653 112.99209946851258 l 1.6687422854957281 1.3140753794801918 a23.12402799377916,23.12402799377916 0 0,0 -0.24894897764455234,0.3106021272667845 l -1.645875395796322 -1.3426053403252267" fill="#ff1402" stroke="none" /><path d="M 116.27256486870786 113.27417163493432 l 0.6610616499096276 0.539254006542489 a21.853110419906688,21.853110419906688 0 0,0 -0.24028431479640677,0.28943793620699093 l -0.6516813352196774 -0.5505531998632504" fill="#ff0100" stroke="none" /><path d="M 115.56566222782051 114.09645910891815 l 0.915057592864099 0.8286876427948779 a22.23452566096423,22.23452566096423 0 0,0 -0.25935366319830866,0.2814771784311839 l -0.9006575216700683 -0.8443160760273967" fill="#ff0701" stroke="none" /><path d="M 115.32070863581623 114.36230785411682 l 1.548068937473723 1.4512280853260018 a23.121928460342147,23.121928460342147 0 0,0 -0.2747033176352206,0.2880253302911378 l -1.522859068459538 -1.4776605321996468" fill="#ff1402" stroke="none" /><path d="M 114.81725581225074 114.88116024355365 l 1.5243568771079095 1.5309311821323073 a23.1604199066874,23.1604199066874 0 0,0 -0.2849283612328235,0.27886237093694877 l -1.4977785634992917 -1.556943655991828" fill="#ff1402" stroke="none" /><path d="M 114.55890576462653 115.13401014063108 l 1.4943822402260518 1.553413171511122 a23.15552099533437,23.15552099533437 0 0,0 -0.28962502864217327,0.27385854206398397 l -1.4674213771930709 -1.5789063503210274" fill="#ff1402" stroke="none" /><path d="M 114.0293411484842 115.62618273729858 l 0.8532619727610644 0.9503815872773795 a22.277216174183515,22.277216174183515 0 0,0 -0.28754332380788056,0.253723551171465 l -0.8367762960465961 -0.9649282802211333" fill="#ff0801" stroke="none" /><path d="M 113.20401910651253 116.32954008644616 l 1.375993148613575 1.7017042385131238 a23.18841368584759,23.18841368584759 0 0,0 -0.31253841664521864,0.2482994202841199 l -1.3464972392510053 -1.7251375728023697" fill="#ff1502" stroke="none" /><path d="M 112.92097659922987 116.55440617244103 l 2.1689499821257794 2.778867270292784 a24.5251166407465,24.5251166407465 0 0,0 -0.33502625688458687,0.2568838475266231 l -2.120794996747699 -2.8157904596467787" fill="#ff2803" stroke="none" /><path d="M 112.34349029814194 116.9893568818739 l 2.1501696441364557 2.959454624135354 a24.658087091757388,24.658087091757388 0 0,0 -0.3455333894583987,0.2465288988980691 l -2.0989089268291723 -2.996027784877642" fill="#ff2a04" stroke="none" /><line stroke="#e1ed5e" stroke-width="0.3" x1="143.8653032363475" x2="146.44561519142675" y1="172.8068346515853" y2="177.08958963109032" /><path d="M 144.38136562736335 173.6633856474863 a86.0,86.0 0 0,1 -40.68145358897372,12.25698825130547" fill="none" id="id54" stroke="none" /><text fill="#e1ed5e" style="font-size:6.75px; font-family:Arial;" text-anchor="middle"><textPath startOffset="21.466115282336833" xlink:href="#id54">June</textPath></text><path d="M 110.8373102113329 117.98757091392108 l 1.0961309650542774 1.8193382933931488 a23.12402799377916,23.12402799377916 0 0,0 -0.34271145061443703,0.20247996580073405 l -1.0646516434114583 -1.8379368314876323" fill="#ff1402" stroke="none" /><path d="M 110.5260780823613 118.17145234162733 l 0.38166095157550767 0.6588715890143467 a21.761430793157075,21.761430793157075 0 0,0 -0.32574917158990074,0.18496888115989646 l -0.37026301306440784 -0.6653436359688717" fill="#ff0000" stroke="none" /><path d="M 107.2578585660854 119.70592522655815 l 0.26291798249282883 0.7138527234370805 a21.76073094867807,21.76073094867807 0 0,0 -0.35260719467782387,0.12643239484838345 l -0.25059122718527016 -0.7182726593254241" fill="#ff0000" stroke="none" /><path d="M 106.2309692047433 120.05430185196036 l 0.23610126591179045 0.7598891759279788 a21.795723172628303,21.795723172628303 0 0,0 -0.35924024953425227,0.10823614029196793 l -0.22298604193729235 -0.7638406853256723" fill="#ff0100" stroke="none" /><path d="M 103.41894727170886 120.7198165907248 l 0.343869680049456 2.0839504489271534 a23.11213063763608,23.11213063763608 0 0,0 -0.39308686568373447,0.06139208418010268 l -0.3079469507572044 -2.089560840454362" fill="#ff1402" stroke="none" /><path d="M 102.34483914955558 120.86867818915974 l 0.2393548871946933 2.1302186611884997 a23.14362363919129,23.14362363919129 0 0,0 -0.3962710789086288,0.041075117583566585 l -0.20265121168046185 -2.134023147227825" fill="#ff1402" stroke="none" /><line stroke="#e1ed5e" stroke-width="0.3" x1="102.19456741930631" x2="102.32365962044197" y1="184.97166512339345" y2="189.96999836594603" /><path d="M 102.22038585953345 185.97133177190398 a86.0,86.0 0 0,1 -42.740103519485714,-10.115201625700543" fill="none" id="id55" stroke="none" /><text fill="#e1ed5e" style="font-size:6.75px; font-family:Arial;" text-anchor="middle"><textPath startOffset="22.20632615414155" xlink:href="#id55">July</textPath></text><line stroke="#e1ed5e" stroke-width="0.3" x1="58.666819895761336" x2="56.23545636021788" y1="174.27360380694188" y2="178.64263932499728" /><path d="M 58.180547188652646 175.14741091055294 a86.0,86.0 0 0,1 -31.652253787137756,-30.449443065178592" fill="none" id="id56" stroke="none" /><text fill="#e1ed5e" style="font-size:6.75px; font-family:Arial;" text-anchor="middle"><textPath startOffset="22.20632615414155" xlink:href="#id56">August</textPath></text><path d="M 89.1626897886671 117.98757091392108 l -1.1015484162818932 1.8283300806751586 a23.13452566096423,23.13452566096423 0 0,0 -0.33932929063222556,-0.20844376521472718 l 1.1328569068464276 -1.8090978486320533" fill="#ff1402" stroke="none" /><path d="M 88.24862548938628 117.40417183066458 l -2.0223773513201464 2.9952073178358725 a24.614038880248835,24.614038880248835 0 0,0 -0.34910104867174374,-0.24011488454973745 l 2.07363528461478 -2.959951643921034" fill="#ff2904" stroke="none" /><path d="M 87.95078237400918 117.19931262002967 l -1.2676976242585993 1.8095388782970583 a23.20940902021773,23.20940902021773 0 0,0 -0.32523308625845804,-0.23204517157139282 l 1.2986580383659443 -1.7874494448814462" fill="#ff1502" stroke="none" /><path d="M 87.07902340077011 116.55440617244103 l -8.590540429503541 11.006234274834437 a34.96189735614308,34.96189735614308 0 0,0 -0.47122395652576704,-0.3743688103538222 l 8.778721878746666 -10.856731550475486" fill="#ffb510" stroke="none" /><path d="M 86.79598089348748 116.32954008644616 l -1.3869940532235328 1.715309165268106 a23.205909797822706,23.205909797822706 0 0,0 -0.30845060089856186,-0.2538338453295167 l 1.4163147826667835 -1.6911802010814085" fill="#ff1502" stroke="none" /><path d="M 85.70375840098266 115.38237550388516 l -1.437882375444379 1.5471231705418382 a23.11213063763608,23.11213063763608 0 0,0 -0.2890823099707199,-0.27334536768533274 l 1.4643005198059158 -1.5221431661105747" fill="#ff1402" stroke="none" /><path d="M 85.44109423537348 115.13401014063109 l -1.493897051187016 1.5529088165853075 a23.154821150855366,23.154821150855366 0 0,0 -0.28485948319302146,-0.27879495927809933 l 1.5204064867558316 -1.5269637543846386" fill="#ff1402" stroke="none" /><path d="M 85.18274418774928 114.88116024355367 l -9.78758589606604 9.829798173321832 a34.87161741835148,34.87161741835148 0 0,0 -0.4217130553746248,-0.42719309862573096 l 9.955339576496197 -9.659864580715436" fill="#ffb410" stroke="none" /><path d="M 84.43433777217949 114.09645910891817 l -2.5672449133131634 2.324929220063408 a24.46353032659409,24.46353032659409 0 0,0 -0.27998062001697077,-0.31456119464324367 l 2.6068843829784725 -2.2803938556793004" fill="#ff2703" stroke="none" /><path d="M 84.19399662182784 113.82643327865904 l -2.6490243608807322 2.3172561528008093 a24.519517884914464,24.519517884914464 0 0,0 -0.27515276434730235,-0.320064827132071 l 2.6885196347988134 -2.271314226507208" fill="#ff2803" stroke="none" /><path d="M 83.95833913139862 113.55231037782056 l -1.6738427076068974 1.414095216383788 a23.19121306376361,23.19121306376361 0 0,0 -0.25499732684496634,-0.3071607070267681 l 1.6979360343454 -1.385073252243259" fill="#ff1502" stroke="none" /><path d="M 83.72743513129214 113.27417163493432 l -1.8665908113116791 1.522651591894378 a23.40886469673406,23.40886469673406 0 0,0 -0.25201547652680434,-0.3144280561181511 l 1.8925241998933444 -1.4902957021979673" fill="#ff1802" stroke="none" /><path d="M 83.06392112726016 112.41649034213515 l -1.7124215718693414 1.2554420694747186 a23.123328149300157,23.123328149300157 0 0,0 -0.23257686536486377,-0.3230289242443044 l 1.7337782296098128 -1.2257795397792761" fill="#ff1402" stroke="none" /><path d="M 82.85270091963577 112.12312394758628 l -19.00184366874932 13.434285186796457 a44.27122861586314,44.27122861586314 0 0,0 -0.43457290027103845,-0.6260346748189013 l 19.230277476182494 -13.105209249790542" fill="#d7ff1c" stroke="none" /><path d="M 82.6465618267979 111.8261652097733 l -21.508277686055074 14.657639757276563 a47.02791601866252,47.02791601866252 0 0,0 -0.4501173847026731,-0.6728644174017547 l 21.75739817616848 -14.285238425668988" fill="#b7ff1f" stroke="none" /><path d="M 82.44556493220864 111.52570212397912 l -5.9513864011766815 3.9074972575174267 a28.119517884914465,28.119517884914465 0 0,0 -0.26217451647849693,-0.40690067170704897 l 6.017765781032224 -3.8044749858889295" fill="#ff5a08" stroke="none" /><path d="M 82.05923443525364 110.91462005526583 l -1.81938734548511 1.1068603253112839 a23.129626749611198,23.129626749611198 0 0,0 -0.20400234342808274,-0.3419196617783378 l 1.8381705646114246 -1.075378569646835" fill="#ff1402" stroke="none" /><line stroke="#e1ed5e" stroke-width="0.3" x1="26.63291911575756" x2="22.317208475507996" y1="142.92168965132927" y2="145.44649492493687" /><path d="M 25.769776987707644 143.4266507060508 a86.0,86.0 0 0,1 -11.730757126820373,-40.83630448921669" fill="none" id="id57" stroke="none" /><text fill="#e1ed5e" style="font-size:6.75px; font-family:Arial;" text-anchor="middle"><textPath startOffset="21.46611528233685" xlink:href="#id57">September</textPath></text><path d="M 81.87401531095188 110.60418214915194 l -1.8520640654284017 1.083506636390797 a23.145723172628305,23.145723172628305 0 0,0 -0.198224386200327,-0.34562092572351144 l 1.8704404477811059 -1.0514658648089785" fill="#ff1402" stroke="none" /><path d="M 81.69416730710424 110.29060199501025 l -12.282040390402969 6.904334343300718 a35.08965396578538,35.08965396578538 0 0,0 -0.2914506398007675,-0.5290675687993531 l 12.399067439655253 -6.691896256103543" fill="#ffb710" stroke="none" /><path d="M 81.35079622478065 109.6543875284942 l -1.8924736334884344 0.979702622448284 a23.131026438569208,23.131026438569208 0 0,0 -0.18000490999047683,-0.35516676448145157 l 1.909057213265178 -0.9469816462641475" fill="#ff1402" stroke="none" /><path d="M 81.18737489456691 109.33194174019688 l -3.925949513782116 1.947454538228601 a25.382426127527218,25.382426127527218 0 0,0 -0.19078730016417342,-0.39307834766986477 l 3.9588900705610084 -1.8795872345934517" fill="#ff3404" stroke="none" /><path d="M 80.87730276802145 108.67885076344099 l -3.524167374789201 1.599446058270229 a24.8701399688958,24.8701399688958 0 0,0 -0.1735686064963147,-0.391351386875291 l 3.551177066016795 -1.5385463349022421" fill="#ff2d04" stroke="none" /><path d="M 79.58551787078972 104.9243191809786 l -16.15107106467848 3.895912153624707 a37.614307931570764,37.614307931570764 0 0,0 -0.14640820205906782,-0.6307227026118184 l 16.215739832668103 -3.6173207936643146" fill="#ffd714" stroke="none" /><path d="M 79.4281124754447 104.21870165774334 l -4.12717494660596 0.8463647182719921 a25.213063763608087,25.213063763608087 0 0,0 -0.08352735885347667,-0.42590420327144457 l 4.1411322384351035 -0.7751967879325927" fill="#ff3204" stroke="none" /><path d="M 79.35854240842038 103.8639653848113 l -2.7625892142118547 0.5171412459032044 a23.810575427682735,23.810575427682735 0 0,0 -0.07194598670655061,-0.4035113013792751 l 2.771081643257594 -0.46951119379071565" fill="#ff1e03" stroke="none" /><path d="M 79.07016306316243 101.71520430193888 l -2.110828228063922 0.1729827933373431 a23.11790435458787,23.11790435458787 0 0,0 -0.029088313786521863,-0.396886930844164 l 2.1134931005147792 -0.13662272599641845" fill="#ff1402" stroke="none" /><path d="M 79.0235259727143 100.99374915477108 l -2.109065390146222 0.0999158364789273 a23.111430793157076,23.111430793157076 0 0,0 -0.01540527323148944,-0.39754165031188987 l 2.1104727962289127 -0.06359693915304065" fill="#ff1402" stroke="none" /><path d="M 79.0095281055655 100.63252640178507 l -17.66375491467559 0.5322791881184716 a38.67177293934681,38.67177293934681 0 0,0 -0.01432317265627926,-0.6655415515110306 l 17.670300150016878 -0.22814782081731227" fill="#ffe415" stroke="none" /><line stroke="#e1ed5e" stroke-width="0.3" x1="15.007084014347285" x2="10.007500721073583" y1="101.09737516637583" y2="101.16192664675087" /><path d="M 14.007167355692545 101.11028546245083 a86.0,86.0 0 0,1 10.666146001902534,-42.60595125391555" fill="none" id="id58" stroke="none" /><text fill="#e1ed5e" style="font-size:6.75px; font-family:Arial;" text-anchor="middle"><textPath startOffset="22.20632615414155" xlink:href="#id58">October</textPath></text><path d="M 79.00175016825051 100.2711162175752 l -2.1161533267455153 0.027322443077563343 a23.116329704510107,23.116329704510107 0 0,0 -0.0017124827037165895,-0.3979206708047256 l 2.116310106738735 0.009107705930837618" fill="#ff1402" stroke="none" /><path d="M 79.00019446554 99.90962569577889 l -6.514791925803868 -0.028036916173997166 a27.514852255054432,27.514852255054432 0 0,0 0.0061148390300689165,-0.4736010216678684 l 6.5133440796560835 0.1401741959023375" fill="#ff5207" stroke="none" /><path d="M 79.00486145842228 99.54816195383935 l -62.98541562473312 -1.3555141384819447 a84.0,84.0 0 0,0 0.04355322217741975,-1.4453194103000224 l 62.95275070810006 2.4395036962069616" fill="#4dd2ff" stroke="none" /><path d="M 79.01574976396665 99.18683210126434 l -29.1154723725954 -1.1282636846020955 a50.13732503888025,50.13732503888025 0 0,0 0.04084136782092835,-0.8620967245319889 l 29.091737396540974 1.6292715157570934" fill="#95ff23" stroke="none" /><path d="M 79.05617556472873 98.46500227214037 l -9.324212973698806 -0.6833826254102479 a30.34922239502333,30.34922239502333 0 0,0 0.04267030747094966,-0.5206858310710915 l 9.31106818240836 0.8437823736891178" fill="#ff780b" stroke="none" /><path d="M 79.08570108090925 98.10471618934814 l -2.17669480752012 -0.1972552101977029 a23.18561430793157,23.18561430793157 0 0,0 0.039440799328693335,-0.39716346677202147 l 2.1729768825091984 0.23469420767415466" fill="#ff1502" stroke="none" /><path d="M 79.12142395522702 97.74499172005258 l -2.1458407638995762 -0.23176334821232597 a23.15832037325039,23.15832037325039 0 0,0 0.04621700151774852,-0.3959590447568799 l 2.1415334093782388 0.26866613129406763" fill="#ff1402" stroke="none" /><path d="M 79.21141760316559 97.0276538004421 l -1.5068373710213798 -0.21544722230743532 a22.52216174183515,22.52216174183515 0 0,0 0.0581759305476846,-0.38330669511336896 l 1.502905547034393 0.24135302981289633" fill="#ff0b01" stroke="none" /><path d="M 79.26566170972629 96.67025291283419 l -1.5568028494108 -0.2500084488130831 a22.576749611197513,22.576749611197513 0 0,0 0.06492228009258316,-0.3831749721459952 l 1.5522687077979938 0.2767692092749063" fill="#ff0c01" stroke="none" /><path d="M 79.3925641242962 95.95851677861259 l -8.303363614711767 -1.628436693062874 a29.461539657853812,29.461539657853812 0 0,0 0.10188179778007875,-0.49681182855968464 l 8.274102521016694 1.771124177785961" fill="#ff6c0a" stroke="none" /><path d="M 79.62865764111835 94.90015583598534 l -3.58267915029641 -0.8969023756164084 a24.69324027993779,24.69324027993779 0 0,0 0.10677318073458238,-0.4114406208919527 l 3.5667096376915204 0.9584394220572249" fill="#ff2a04" stroke="none" /><path d="M 79.71946130924805 94.55025226153421 l -3.8041757764049966 -1.022250870665644 a24.93913063763608,24.93913063763608 0 0,0 0.11497322744271254,-0.4136198716022374 l 3.786015778395923 1.087582045686824" fill="#ff2e04" stroke="none" /><path d="M 79.81627453868168 94.20196356495316 l -2.185001509152139 -0.6276699702924405 a23.273367807153967,23.273367807153967 0 0,0 0.11392214118693676,-0.38408882635231917 l 2.173873470853495 0.6651881833912989" fill="#ff1602" stroke="none" /><path d="M 79.91906864156998 93.8553929516997 l -3.7964604619986733 -1.1616870401579973 a24.970217729393468,24.970217729393468 0 0,0 0.12930353558026247,-0.40992754316688534 l 3.775901442650207 1.2268647497512972" fill="#ff2e04" stroke="none" /><path d="M 80.2630227832202 92.82701384747504 l -1.393778762131406 -0.5065393576049892 a22.482970451010885,22.482970451010885 0 0,0 0.13532115723148896,-0.3625934239338276 l 1.3848530163982893 0.5304559185681582" fill="#ff0a01" stroke="none" /><path d="M 80.38941819471856 92.48833698450439 l -2.0397009269367943 -0.7812897224404078 a23.184214618973563,23.184214618973563 0 0,0 0.14595727207407125,-0.37144533710780214 l 2.025950104981032 0.8162840644439734" fill="#ff1502" stroke="none" /><path d="M 80.52162464483688 92.15188598940014 l -2.005937275203214 -0.8082206111575878 a23.162638413685848,23.162638413685848 0 0,0 0.15218770359929923,-0.36853459568606745 l 1.9917278847177151 0.8426297772969665" fill="#ff1402" stroke="none" /><path d="M 80.65960295795068 91.81776055985345 l -1.7900072427853604 -0.7572888926852358 a22.943608087091757,22.943608087091757 0 0,0 0.15700998246874695,-0.36240068708372164 l 1.7767065504739328 0.7879887243555567" fill="#ff1101" stroke="none" /><path d="M 80.95270993114464 91.15688171328213 l -1.9288523299331954 -0.8955116055643528 a23.12659642301711,23.12659642301711 0 0,0 0.17074234665321245,-0.3596269267788941 l 1.9131517894382315 0.9285809479837791" fill="#ff1402" stroke="none" /><path d="M 81.10775173730289 90.83032412892265 l -3.186111981060118 -1.5464339526473323 a24.54157698289269,24.54157698289269 0 0,0 0.18773136231593832,-0.378454970905923 l 3.159020605790767 1.6010485120522167" fill="#ff2803" stroke="none" /><path d="M 81.43458229118936 90.18545643968196 l -1.8913957543601692 -0.9998797932867898 a23.139424572317264,23.139424572317264 0 0,0 0.18918341846723577,-0.35052814243799935 l 1.8739042366744616 1.0322889190572617" fill="#ff1402" stroke="none" /><path d="M 81.6062741919709 89.86733742301443 l -1.8610314892193847 -1.02519763109514 a23.124727838258163,23.124727838258163 0 0,0 0.19506518255903058,-0.3469991938145376 l 1.8431086653679234 1.0570803348444622" fill="#ff1402" stroke="none" /><line stroke="#e1ed5e" stroke-width="0.3" x1="26.266209847984243" x2="21.928928074336255" y1="57.711370442889674" y2="55.22380399835377" /><path d="M 25.398753493254645 57.213857153982495 a86.0,86.0 0 0,1 29.58750427330803,-30.492523968695096" fill="none" id="id59" stroke="none" /><text fill="#e1ed5e" style="font-size:6.75px; font-family:Arial;" text-anchor="middle"><textPath startOffset="21.46611528233685" xlink:href="#id59">November</textPath></text><path d="M 81.78341655067845 89.55222093294921 l -2.0735883112200115 -1.1892676039892924 a23.390423794712287,23.390423794712287 0 0,0 0.20331883684589702,-0.3475377989389352 l 2.0528097999037898 1.2247848152821195" fill="#ff1802" stroke="none" /><path d="M 81.96595687620814 89.24020034530311 l -1.2164264590942482 -0.7257665352512724 a22.416485225505443,22.416485225505443 0 0,0 0.20055730627728108,-0.32966347852683625 l 1.2037533545307502 0.7465977869851832" fill="#ff0a01" stroke="none" /><path d="M 82.15384107792192 88.93136811851018 l -2.075641900846007 -1.2873647611552814 a23.442457231726284,23.442457231726284 0 0,0 0.21563980063589436,-0.34109037859585073 l 2.0531745039641502 1.3229027874653476" fill="#ff1802" stroke="none" /><path d="M 82.34701348167596 88.62581576622439 l -3.009341988575306 -1.9389812689746402 a24.579914463452567,24.579914463452567 0 0,0 0.23222560629350048,-0.3536955304680686 l 2.9755197469238857 1.9904948634203758" fill="#ff2903" stroke="none" /><path d="M 82.7489923806493 88.02491185347247 l -5.1281600077074545 -3.559801808498962 a27.24261275272162,27.24261275272162 0 0,0 0.27072330881252055,-0.3829189212536549 l 5.066124079091056 3.6475472300844034" fill="#ff4e07" stroke="none" /><path d="M 82.95767976084542 87.72973835380427 l -1.4812165468911962 -1.066457755163691 a22.82519440124417,22.82519440124417 0 0,0 0.23231416286620812,-0.31687625706960326 l 1.4626397715113548 1.0917964559047948" fill="#ff0f01" stroke="none" /><path d="M 84.07557802195018 86.31012108654704 l -1.692538564524151 -1.4550385588012857 a23.232,23.232 0 0,0 0.2633050012075971,-0.30100313325205835 l 1.6672416997387105 1.4839572482562873" fill="#ff1502" stroke="none" /><path d="M 84.5562425177563 85.77008943001954 l -2.0656222925559207 -1.9032687173586984 a23.808776827371695,23.808776827371695 0 0,0 0.28030036455423124,-0.29900488552871923 l 2.0325546060312334 1.9385430197654678" fill="#ff1e03" stroke="none" /><path d="M 84.80347519578584 85.50635884689758 l -4.213566530917412 -4.0186767738439935 a26.82270606531882,26.82270606531882 0 0,0 0.32153493622989837,-0.33137001550374123 l 4.143767330984396 4.090610984897858" fill="#ff4806" stroke="none" /><path d="M 85.57189188830299 84.74124197986013 l -1.8631925414603532 -1.970459599760307 a23.711862363919128,23.711862363919128 0 0,0 0.298986391167012,-0.27787526587569833 l 1.828998266498485 2.0022394517106528" fill="#ff1c02" stroke="none" /><path d="M 85.83668400450813 84.49514656593479 l -4.5941678053464035 -5.029323535256141 a27.81178926905132,27.81178926905132 0 0,0 0.3562412251748131,-0.31983688935123 l 4.506915592575619 5.107659433376651" fill="#ff5607" stroke="none" /><path d="M 86.37877921826538 84.01681056812374 l -1.798250810088434 -2.1100739650450193 a23.77238491446345,23.77238491446345 0 0,0 0.3137303479785947,-0.26274014403027435 l 1.761662925150729 2.140715266469106" fill="#ff1d02" stroke="none" /><path d="M 86.65592168130627 83.78471172551755 l -1.4630754610698413 -1.7778815293172825 a23.30248833592535,23.30248833592535 0 0,0 0.31191667981995164,-0.25221492939664103 l 1.4322553826853892 1.8028025559780576" fill="#ff1602" stroke="none" /><path d="M 87.22198572758235 83.33499621200491 l -9.089537257656794 -11.854515858301108 a35.93818040435459,35.93818040435459 0 0,0 0.4941565627943928,-0.3721884781568053 l 8.884134541104011 12.009220925963769" fill="#ffc112" stroke="none" /><path d="M 87.80319425747018 82.90503203632743 l -0.9621629463205026 -1.3485616718341022 a22.656615863141525,22.656615863141525 0 0,0 0.3194246875948132,-0.22377740674716437 l 0.9388071191420292 1.3649239213452093" fill="#ff0d01" stroke="none" /><path d="M 88.39885842347998 82.49532879139004 l -1.3022790467735574 -1.9649761521547762 a23.357342146189737,23.357342146189737 0 0,0 0.3370497552539951,-0.21922653646608728 l 1.2682622657352751 1.9871016127803984" fill="#ff1702" stroke="none" /><path d="M 88.70189139769569 82.29822771554957 l -0.9987003386641431 -1.5647544733133913 a22.856302488335924,22.856302488335924 0 0,0 0.3334634919053709,-0.20881480803914465 l 0.97161769438653 1.5817136226754662" fill="#ff1001" stroke="none" /><line stroke="#e1ed5e" stroke-width="0.3" x1="56.762969772571076" x2="54.21961505331055" y1="26.818313649435495" y2="22.513508569990535" /><path d="M 56.25429882871897 25.957352633546506 a86.0,86.0 0 0,1 42.265352541879196,-11.944610805530505" fill="none" id="id60" stroke="none" /><text fill="#e1ed5e" style="font-size:6.75px; font-family:Arial;" text-anchor="middle"><textPath startOffset="22.20632615414155" xlink:href="#id60">December</textPath></text><path d="M 89.3179101791058 81.91981866633112 l -1.0733115133302384 -1.8166545230286042 a23.110031104199066,23.110031104199066 0 0,0 0.3442330115343597,-0.1994019789841699 l 1.0418817693305586 1.8348606594028214" fill="#ff1402" stroke="none" /><path d="M 89.63071344664047 81.73862282372117 l -1.2844691663687196 -2.2620819472637783 a23.601321928460344,23.601321928460344 0 0,0 0.35500424110744366,-0.1975594758213571 l 1.2453408361892302 2.2838568206453203" fill="#ff1b02" stroke="none" /><path d="M 89.94658935756843 81.56283822128135 l -3.373845095621615 -6.187365666908357 a28.047433903576984,28.047433903576984 0 0,0 0.4258601539202605,-0.2274797457531067 l 3.266839895173049 6.244524139163214" fill="#ff5908" stroke="none" /><path d="M 91.23893434514133 80.91482961587045 l -1.4131378950071976 -3.0783900686243175 a24.38724727838258,24.38724727838258 0 0,0 0.3830166777991936,-0.17184841866032066 l 1.3599390987412296 3.102258817801167" fill="#ff2603" stroke="none" /><path d="M 91.56875222667455 80.76684994638697 l -2.8097915263248545 -6.409625656613981 a27.998444790046655,27.998444790046655 0 0,0 0.44306371239732506,-0.1896967590969385 l 2.6990440561372213 6.457041943673706" fill="#ff5808" stroke="none" /><path d="M 91.90106846888425 80.62456947434976 l -4.0593622604303805 -9.711391083285255 a31.52566096423017,31.52566096423017 0 0,0 0.5024832022197985,-0.20497551478728512 l 3.891595188622202 9.779827484256117" fill="#ff880c" stroke="none" /><path d="M 92.23578459929587 80.48803036053334 l -0.7907390223689796 -1.9871777122265097 a23.13872472783826,23.13872472783826 0 0,0 0.3713399892247512,-0.14407414670633173 l 0.7564158681445521 2.000494562823393" fill="#ff1402" stroke="none" /><path d="M 92.57280143429618 80.3572730644239 l -0.9474777047870456 -2.505796185201993 a23.67894167962675,23.67894167962675 0 0,0 0.38249121546333115,-0.14087474263129707 l 0.9042041635511451 2.5217341956396124" fill="#ff1c02" stroke="none" /><path d="M 92.91201910852362 80.23233633223022 l -2.8936158382776833 -8.070002663747385 a29.573094867807153,29.573094867807153 0 0,0 0.48065854637744193,-0.16769232885313223 l 2.7542752878369563 8.118615845772727" fill="#ff6e0a" stroke="none" /><path d="M 93.94186890950719 79.89281104454417 l -0.22107265754575525 -0.7337493414649237 a21.76632970451011,21.76632970451011 0 0,0 0.3596728253201086,-0.10499836058921136 l 0.20840961450222534 0.7374460309728338" fill="#ff0000" stroke="none" /><path d="M 94.28887869178378 79.79150937346287 l -2.8333544034937854 -10.025669709079486 a31.418346811819596,31.418346811819596 0 0,0 0.5216973262086962,-0.14259958648350674 l 2.6603591880613666 10.072955836389287" fill="#ff870c" stroke="none" /><path d="M 94.98787191387505 79.60689891045804 l -0.9285409919163049 -3.7780020758752633 a24.890435458786936,24.890435458786936 0 0,0 0.4169459816947179,-0.09867764288275371 l 0.863371323259053 3.793425630898888" fill="#ff2d04" stroke="none" /><path d="M 95.33964822691252 79.52364482259891 l -0.9792329903127054 -4.302491203960693 a25.412519440124417,25.412519440124417 0 0,0 0.4273626732319062,-0.09340492762637854 l 0.9050275929272783 4.31870962968294" fill="#ff3405" stroke="none" /><path d="M 96.04723909329186 79.375362276772 l -0.42693506216311106 -2.227653327959853 a23.26819595645412,23.26819595645412 0 0,0 0.3940135240594769,-0.07200345305080559 l 0.3885264170007408 2.2346722623613946" fill="#ff1602" stroke="none" /><path d="M 97.11714578562143 79.19881850522333 l -0.2528662172487578 -1.8245515339119824 a22.84199066874028,22.84199066874028 0 0,0 0.38992939172877805,-0.05062402609487215 l 0.221422097012122 1.8286338831709912" fill="#ff1001" stroke="none" /></svg>