<?xml version="1.0" encoding="utf-8" ?>
<svg baseProfile="full" height="200mm" version="1.1" viewBox="0,0,200,200" width="200mm" xmlns="http://www.w3.org/2000/svg" xmlns:ev="http://www.w3.org/2001/xml-events" xmlns:xlink="http://www.w3.org/1999/xlink"><defs /><rect fill="#1a1a1a" height="200" width="200" x="0" y="0" /><rect fill="#1a1a1a" height="200" width="180" x="10" y="0" /><text alignment-baseline="middle" fill="#e1ed5e" style="dominant-baseline: central; font-size:9.0px; font-family:Arial;" text-anchor="middle" x="100.0" y="100.0">2022</text><line stroke="#e1ed5e" stroke-width="0.3" x1="100.0" x2="100.0" y1="15.0" y2="10.0" /><path d="M 100.0 14.0 a86.0,86.0 0 0,1 42.46469731375804,11.215312516191453" fill="none" id="id85" stroke="none" /><text fill="#e1ed5e" style="font-size:6.75px; font-family:Arial;" text-anchor="middle"><textPath startOffset="22.20632615414155" xlink:href="#id85">January</textPath></text><path d="M 100.0 79.0 l 0.0 -34.68986537581668 a55.68986537581668,55.68986537581668 0 0,0 0.958609486984419,0.00825105449829088 l -0.5971290077118905 34.68472569792695" fill="#5dff2a" stroke="none" /><path d="M 100.36148047927253 79.00311137660856 l 0.2731095881095177 -15.863793295439672 a36.866144035888304,36.866144035888304 0 0,0 0.6344020246495053,0.016384732628412092 l -0.5461382479538909 15.856741770668899" fill="#ffc712" stroke="none" /><path d="M 100.72285384407766 79.0124445844662 l 0.3440348194196608 -9.98881018147779 a30.99473305289178,30.99473305289178 0 0,0 0.5330491423665367,0.02295421736895965 l -0.515924794175529 9.981408237584636" fill="#ff790b" stroke="none" /><path d="M 101.08401301168833 79.027996857942 l 1.0525654048685131 -20.363597798280622 a41.39078245731795,41.39078245731795 0 0,0 0.711207863753521,0.042902000566041675 l -1.402935317461646 20.342462528334273" fill="#ffff18" stroke="none" /><path d="M 101.44485096284872 79.0497635885617 l 1.571938366699493 -22.792994747107876 a43.84713548282124,43.84713548282124 0 0,0 0.7525208474460654,0.05841010090089515 l -1.9640494035078997 22.76255938401852" fill="#e1ff1b" stroke="none" /><path d="M 101.80526077348638 79.07773832637324 l 0.9286769257699056 -10.762999970188993 a31.802990752136452,31.802990752136452 0 0,0 0.5450046311940593,0.05175475674967077 l -1.1138066840542091 10.745419668924145" fill="#ff840c" stroke="none" /><path d="M 102.52436894288641 79.15227682838746 l 1.7585511630604442 -14.523149610881244 a35.62923021943196,35.62923021943196 0 0,0 0.6082168699175962,0.0789640056563513 l -2.0082827614858867 14.490727282060757" fill="#ffb711" stroke="none" /><path d="M 102.88285421437855 79.19881850522331 l 8.27057046125755 -59.67614885688637 a81.24653581861688,81.24653581861688 0 0,0 1.3836324495929377,0.20391145621211976 l -9.296571891279143 59.52494291651328" fill="#4aecff" stroke="none" /><path d="M 103.2404852339499 79.25152402106235 l 1.9554106205528368 -12.520282414632753 a33.67205991293969,33.67205991293969 0 0,0 0.5718971590517884,0.0943679314474932 l -2.1706369857435 12.484768220245636" fill="#ff9d0e" stroke="none" /><path d="M 103.95276090670814 79.375362276772 l 2.6876534436497272 -14.023585010363218 a35.27881008964144,35.27881008964144 0 0,0 0.5954283490380486,0.11943732531795113 l -2.928648202154901 13.975243728968058" fill="#ffb210" stroke="none" /><path d="M 104.307194497241 79.44645832069477 l 5.857577511808868 -27.95182887743833 a49.55899073672675,49.55899073672675 0 0,0 0.8334341982039506,0.182156434898433 l -6.3378544341663465 27.846858944444026" fill="#9fff22" stroke="none" /><path d="M 105.01212808612495 79.60689891045804 l 4.477594211962007 -18.218215862293665 a39.76039016470937,39.76039016470937 0 0,0 0.6632243455768116,0.16907065299358864 l -4.790527446223844 18.138442213131206" fill="#ffeb16" stroke="none" /><path d="M 105.36241919743992 79.69619591428918 l 5.833478870875339 -22.087384027890213 a43.844737007294455,43.844737007294455 0 0,0 0.7280358257559455,0.19899969289174538 l -6.212812585854995 21.983697794172176" fill="#e1ff1b" stroke="none" /><path d="M 105.71112130821622 79.79150937346287 l 7.165657291161793 -25.35528670930102 a47.34838151623809,47.34838151623809 0 0,0 0.7823976933856137,0.22840334145665192 l -7.601045202270834 25.228185038925666" fill="#b8ff1f" stroke="none" /><path d="M 106.0581310904928 79.89281104454417 l 6.1788817739462285 -20.507965494033705 a42.41857205046317,42.41857205046317 0 0,0 0.697310073359247,0.21665763412422676 l -6.530977220016194 20.39856772502696" fill="#f2ff19" stroke="none" /><path d="M 106.40334571778207 80.00007090966166 l 4.378751906892403 -13.67640160343633 a35.360272597711706,35.360272597711706 0 0,0 0.5780851901421507,0.190585598310151 l -4.613519919276971 13.599002280866943" fill="#ffb310" stroke="none" /><path d="M 106.74666289553966 80.11325718540242 l 1.5275245942829356 -4.502594722727348 a25.75464936911981,25.75464936911981 0 0,0 0.41859644327243084,0.1460400797011301 l -1.60480304161864 4.475633789854011" fill="#ff3004" stroke="none" /><path d="M 107.08798089147638 80.2323363322302 l 8.809563350334786 -24.56898347154772 a47.100638981617806,47.100638981617806 0 0,0 0.7608271052366626,0.28021904374273177 l -9.231172781344025 24.413701159998666" fill="#bbff1f" stroke="none" /><path d="M 107.4271985657038 80.35727306442388 l 12.172202052972718 -32.191847170379965 a55.41623929280324,55.41623929280324 0 0,0 0.8893431225753161,0.34505131478482803 l -12.724528340547701 31.977553151704587" fill="#60ff29" stroke="none" /><path d="M 107.76421540070413 80.48803036053334 l 5.447808845928132 -13.690691888033852 a35.73477741925031,35.73477741925031 0 0,0 0.5695717342329396,0.23234261148816562 l -5.682664449749459 13.594888390362108" fill="#ffb811" stroke="none" /><path d="M 108.09893153111575 80.62456947434976 l 7.273578143423418 -17.400901273130465 a39.859912622430684,39.859912622430684 0 0,0 0.6307664941663117,0.270061294441969 l -7.572028395380045 17.273120450725703" fill="#ffed16" stroke="none" /><path d="M 108.43124777332544 80.76684994638697 l 13.259528604254033 -30.24730267003013 a54.025965809033394,54.025965809033394 0 0,0 0.8485109329010266,0.380702122092664 l -13.77822165562184 30.014580217420935" fill="#6fff28" stroke="none" /><path d="M 108.76106565485865 80.91482961587045 l 9.531386911428193 -20.763243921221854 a43.846435927459254,43.846435927459254 0 0,0 0.683214723443847,0.32077847356615247 l -9.887379846171639 20.5961004650157" fill="#e1ff1b" stroke="none" /><path d="M 109.41281617654863 81.2277094730956 l 11.240600903254297 -22.417502041375773 a46.07778910592655,46.07778910592655 0 0,0 0.7059545428537599,0.3616173362729013 l -11.624815933696812 22.220692179790372" fill="#c7ff1e" stroke="none" /><path d="M 110.05341064243156 81.56283822128135 l 22.93599054930273 -42.06279673167497 a68.90969141382473,68.90969141382473 0 0,0 1.0365195974812784,0.5768220337823745 l -23.656634235856043 41.66175930033242" fill="#3aff94" stroke="none" /><line stroke="#e1ed5e" stroke-width="0.3" x1="143.23703022742887" x2="145.7803849466894" y1="26.81831364943548" y2="22.513508569990506" /><path d="M 143.74570117128098 25.957352633546492 a86.0,86.0 0 0,1 28.547481713284135,27.462654790039103" fill="none" id="id86" stroke="none" /><text fill="#e1ed5e" style="font-size:6.75px; font-family:Arial;" text-anchor="middle"><textPath startOffset="19.985693538727396" xlink:href="#id86">February</textPath></text><path d="M 111.60114157652 82.49532879139004 l 7.923207831108877 -11.955129336732764 a35.34232686118098,35.34232686118098 0 0,0 0.5042092960171143,0.3404443674125545 l -8.127821821532534 11.81697305702154" fill="#ffb310" stroke="none" /><path d="M 111.90073688211348 82.69761687909136 l 8.25210148181613 -11.997662229268938 a35.56163032884088,35.56163032884088 0 0,0 0.5013662555241617,0.3512391022013013 l -8.457398876923943 11.8538382843037" fill="#ffb610" stroke="none" /><path d="M 112.19680574252982 82.90503203632743 l 12.9373753390067 -18.132945758341975 a43.27508479304424,43.27508479304424 0 0,0 0.6026667253767963,0.43786300619996754 l -13.247587380737285 17.907563517325332" fill="#e8ff1a" stroke="none" /><path d="M 113.34407831869373 83.78471172551755 l 9.074124333057721 -11.026579609690906 a35.28023775364547,35.28023775364547 0 0,0 0.46560247560539253,0.3899286833091425 l -9.262584345622232 10.868749768987945" fill="#ffb210" stroke="none" /><path d="M 113.6212207817346 84.01681056812373 l 11.448392456087758 -13.433584863515577 a38.65012442205102,38.65012442205102 0 0,0 0.5026470791779183,0.4358905938965228 l -11.67793333391244 13.234529276199384" fill="#ffdd14" stroke="none" /><path d="M 114.16331599549186 84.49514656593476 l 12.038008012633156 -13.178238057626439 a38.84879814485261,38.84879814485261 0 0,0 0.4898502606096358,0.45526243142667816 l -12.26306615703764 12.969071040125119" fill="#ffe015" stroke="none" /><path d="M 114.42810811169701 84.74124197986012 l 2.4755462176059697 -2.618067483948119 a24.603138413384873,24.603138413384873 0 0,0 0.30521570554332106,0.29361726691058826 l -2.520245166761709 2.5750671302752286" fill="#ff2003" stroke="none" /><path d="M 114.68862486808459 84.99185889309783 l 12.353175711206271 -12.621889785950842 a38.66106032832193,38.66106032832193 0 0,0 0.47159902779464086,0.4695738316956132 l -12.568610539168235 12.40738010360511" fill="#ffde14" stroke="none" /><path d="M 114.94478906791727 85.2469230424477 l 13.139463975342478 -12.970910618294099 a39.46320762562934,39.46320762562934 0 0,0 0.4730618870607087,0.4875318579299052 l -13.360790126106297 12.74281456481408" fill="#ffe815" stroke="none" /><path d="M 115.19652480421416 85.50635884689758 l 14.888310508226516 -14.19968266839266 a41.57408023879607,41.57408023879607 0 0,0 0.48945100924059093,0.5221122106731536 l -15.13052883943757 13.94130104084145" fill="#fcff18" stroke="none" /><path d="M 115.4437574822437 85.77008943001954 l 3.4952956766246657 -3.22057277519372 a25.752807682554604,25.752807682554604 0 0,0 0.2975753598173375,0.3285901446916119 l -3.550214677058039 3.1599298432325593" fill="#ff3004" stroke="none" /><path d="M 116.38621287248628 86.86637796730983 l 2.4692039428991035 -1.9790778723567601 a24.164445818224834,24.164445818224834 0 0,0 0.2573466524740111,0.3268041146802642 l -2.5029046759670788 1.9362813637234575" fill="#ff1902" stroke="none" /><path d="M 116.60985879189232 87.15038557335679 l 13.95694680709381 -10.797285352712658 a38.64589853659908,38.64589853659908 0 0,0 0.4025137057910448,0.5296608546947666 l -14.14073645310897 10.555439722136857" fill="#ffdd14" stroke="none" /><path d="M 117.04232023915458 87.72973835380427 l 7.281925757078143 -5.242897274177335 a29.97298247848363,29.97298247848363 0 0,0 0.29785634238566044,0.4212966730318027 l -7.371094719267686 5.11677410081374" fill="#ff6b09" stroke="none" /><path d="M 117.2510076193507 88.02491185347247 l 15.908906878666906 -11.043445483916893 a40.36623366146189,40.36623366146189 0 0,0 0.3913132184082317,0.5742038624990741 l -16.096644562743872 10.767963598147412" fill="#fff316" stroke="none" /><path d="M 117.45458315368197 88.32363383020206 l 8.930725855114584 -5.974271876232268 a31.744756337411843,31.744756337411843 0 0,0 0.2999174508135879,0.4567948537426721 l -9.032239941286099 5.819658958511922" fill="#ff830c" stroke="none" /><path d="M 117.65298651832404 88.62581576622439 l 4.894235979723612 -3.153457442408714 a26.822185128137377,26.822185128137377 0 0,0 0.24672885595896554,0.39026579806416245 l -4.947792431928533 3.0687439966303454" fill="#ff3f05" stroke="none" /><line stroke="#e1ed5e" stroke-width="0.3" x1="172.23445277983987" x2="176.4835382374775" y1="55.19839476539836" y2="52.563006222186495" /><path d="M 173.08426987136738 54.67131705675599 a86.0,86.0 0 0,1 12.851231095245387,41.99856678651699" fill="none" id="id87" stroke="none" /><text fill="#e1ed5e" style="font-size:6.75px; font-family:Arial;" text-anchor="middle"><textPath startOffset="22.20632615414155" xlink:href="#id87">March</textPath></text><path d="M 117.84615892207809 88.93136811851018 l 6.308540903743508 -3.912714062322551 a28.423410245143508,28.423410245143508 0 0,0 0.25430046399485484,0.4180030990026821 l -6.374957166024587 3.803543190112787" fill="#ff5607" stroke="none" /><path d="M 118.03404312379186 89.2402003453031 l 9.746174194153085 -5.81494016671813 a32.34907223368005,32.34907223368005 0 0,0 0.2811909607675644,0.48064650134091125 l -9.844824829390976 5.6463142530233235" fill="#ff8c0c" stroke="none" /><path d="M 118.21658344932153 89.55222093294921 l 8.863797583485363 -5.083664513982335 a31.218148192883298,31.218148192883298 0 0,0 0.2633360193033199,0.4684453945179448 l -8.949991244081115 4.930335609529595" fill="#ff7c0b" stroke="none" /><path d="M 118.3937258080291 89.86733742301442 l 8.308145352745486 -4.57675809558788 a30.485356812891943,30.485356812891943 0 0,0 0.2492423265337496,0.46180817771791977 l -8.3856957784977 4.433068934537501" fill="#ff720a" stroke="none" /><path d="M 118.56541770881063 90.18545643968196 l 15.572739030888041 -8.232474376247533 a38.61487539779138,38.61487539779138 0 0,0 0.3055918109909727,0.590306110914712 l -15.71214027503913 7.963195543072476" fill="#ffdd14" stroke="none" /><path d="M 118.73160827565052 90.50648371742162 l 19.11163961303459 -9.6861230057307 a42.42605300984431,42.42605300984431 0 0,0 0.32453907647330527,0.6542509745273023 l -19.275538702461304 9.355712442704448" fill="#f2ff19" stroke="none" /><path d="M 119.04729006885535 91.15688171328212 l 13.264731317255928 -6.158439738985636 a35.624618864698924,35.624618864698924 0 0,0 0.2534397865452314,0.5584209749356546 l -13.368773420764507 5.929196755207919" fill="#ffb711" stroke="none" /><path d="M 119.196687751892 91.48605970444005 l 15.176644448004792 -6.731007264756858 a37.60231897956922,37.60231897956922 0 0,0 0.2573239318487136,0.5939391129071682 l -15.290259089696187 6.468769007263088" fill="#ffd013" stroke="none" /><path d="M 119.34039704204932 91.81776055985345 l 10.601048725932575 -4.484929590827559 a32.510726628856986,32.510726628856986 0 0,0 0.2136083437311271,0.5172695476067656 l -10.676678756549899 4.30178547276749" fill="#ff8e0d" stroke="none" /><path d="M 119.47837535516314 92.15188598940014 l 11.021438880016781 -4.4406942218772745 a32.88241895230764,32.88241895230764 0 0,0 0.2070127562374899,0.5268248846636964 l -11.09624518613597 4.250320332317794" fill="#ff930d" stroke="none" /><path d="M 119.61058180528143 92.48833698450437 l 18.110574186753286 -6.937098126858571 a40.393716193539575,40.393716193539575 0 0,0 0.24312287524909515,0.6514484325788288 l -18.227301650504007 6.624326557250409" fill="#fff316" stroke="none" /><path d="M 119.7369772167798 92.82701384747503 l 21.83934314310666 -7.937046500340645 a44.23690203256298,44.23690203256298 0 0,0 0.2539343930735115,0.717906724391942 l -21.97273061698998 7.559942149522088" fill="#dcff1b" stroke="none" /><path d="M 120.08093135843002 93.85539295169968 l 13.339712495015247 -4.081847099425517 a34.9502474957527,34.9502474957527 0 0,0 0.1710799684309463,0.5767966051411224 l -13.407998360557896 3.8516211075378646" fill="#ffae10" stroke="none" /><path d="M 120.18372546131832 94.20196356495316 l 29.53819068221201 -8.485227671623328 a51.73278050255132,51.73278050255132 0 0,0 0.23849607371587994,0.8579972710355742 l -29.67987352649425 7.9755190971688" fill="#87ff25" stroke="none" /><path d="M 120.37134235888165 94.90015583598534 l 22.47803077697975 -5.6272410554497725 a44.17170061749867,44.17170061749867 0 0,0 0.17830054138394263,0.7391708542718268 l -22.571564118624515 5.239484969518539" fill="#ddff1b" stroke="none" /><path d="M 120.53481517161879 95.60439243477599 l 7.51465391714041 -1.6085593823057898 a28.684886907482614,28.684886907482614 0 0,0 0.09919603256286069,0.4837150835304295 l -7.5412292456182675 1.4789686426119484" fill="#ff5a08" stroke="none" /><path d="M 120.6074358757038 95.95851677861258 l 9.153612437164378 -1.7951855487028021 a30.327985409727106,30.327985409727106 0 0,0 0.09605923784763562,0.5131522896415038 l -9.183157398921873 1.6373551815987355" fill="#ff700a" stroke="none" /><path d="M 120.73433829027371 96.67025291283417 l 14.433153298361988 -2.3178338021224745 a35.618080163560435,35.618080163560435 0 0,0 0.09200337789903482,0.6061873078736415 l -14.470912569700323 2.069047381856751" fill="#ffb710" stroke="none" /><path d="M 120.83666639777658 97.38593545837742 l 17.44058672839762 -2.188009275642211 a38.577299281205164,38.577299281205164 0 0,0 0.07698861880715294,0.6595914697825177 l -17.475665700208364 1.8874740675348403" fill="#ffdd14" stroke="none" /><path d="M 120.91429891909075 98.10471618934814 l 30.369187873494962 -2.75209942929238 a51.49363250523533,51.49363250523533 0 0,0 0.07239886093934843,0.8834494830501879 l -30.412061218253804 2.2289360290344233" fill="#8aff24" stroke="none" /><path d="M 120.94382443527127 98.46500227214037 l 12.263946878345438 -0.8988392091918176 a33.29684125939907,33.29684125939907 0 0,0 0.03697441236137998,0.5719777939682745 l -12.277601881711233 0.6876023509705077" fill="#ff980e" stroke="none" /><path d="M 120.98425023603335 99.18683210126433 l 11.645794453558786 -0.45129018661083253 a32.65453522398349,32.65453522398349 0 0,0 0.016931074139411095,0.5618599237327204 l -11.651837222153842 0.25076011545311305" fill="#ff900d" stroke="none" /><line stroke="#e1ed5e" stroke-width="0.3" x1="184.98032266829074" x2="189.97916517819016" y1="98.17113171792111" y2="98.06355123074" /><path d="M 185.9800911702706 98.14961562048488 a86.0,86.0 0 0,1 -9.607161424134198,41.387399972396054" fill="none" id="id88" stroke="none" /><text fill="#e1ed5e" style="font-size:6.75px; font-family:Arial;" text-anchor="middle"><textPath startOffset="21.466115282336823" xlink:href="#id88">April</textPath></text><path d="M 120.99513854157772 99.54816195383933 l 14.240506355891313 -0.3064710697403654 a35.24380376826249,35.24380376826249 0 0,0 0.00783250387291004,0.6066360566789963 l -14.243671866881938 0.06129875500090633" fill="#ffb210" stroke="none" /><path d="M 120.99980553446 99.90962569577887 l 19.86972952144453 -0.08551093378535772 a40.869913522085625,40.869913522085625 0 0,0 -0.0030276873925755266,0.7035279221366197 l -19.868257536762453 -0.2565264665549467" fill="#fff917" stroke="none" /><path d="M 120.99824983174949 100.27111621757518 l 12.795971097522349 0.16521354455532786 a33.79703761985296,33.79703761985296 0 0,0 -0.01251767809712672,0.5816473139018798 l -12.791231356740216 -0.3854506742473225" fill="#ff9f0e" stroke="none" /><path d="M 120.9764740272857 100.99374915477107 l 19.757954103400504 0.9360224299240997 a40.78011345623179,40.78011345623179 0 0,0 -0.0392530906748102,0.7008903027335451 l -19.738914661838166 -1.275984448993068" fill="#fff817" stroke="none" /><path d="M 120.95626037817324 101.35467743843564 l 8.601026965464618 0.5559969654522472 a29.61897891204298,29.61897891204298 0 0,0 -0.03726835008117082,0.508497027015579 l -8.590182056719108 -0.7039671289645965" fill="#ff6609" stroke="none" /><path d="M 120.92983693683757 101.71520430193887 l 16.25387511825649 1.3320083004059506 a37.30836296113831,37.30836296113831 0 0,0 -0.05796192399278792,0.6396050013711883 l -16.228538597986628 -1.6115946903257095" fill="#ffcc13" stroke="none" /><path d="M 120.89721153311464 102.0752229133903 l 7.885547561079308 0.7830838558268519 a28.924334714239453,28.924334714239453 0 0,0 -0.05346552877238123,0.4950243944444319 l -7.870899730805875 -0.9187045721560751" fill="#ff5d08" stroke="none" /><path d="M 120.8583938346157 102.4346265915055 l 22.161125565713398 2.586683616570636 a43.31157588498739,43.31157588498739 0 0,0 -0.09280740699833528,0.739766347799009 l -22.113316649468214 -2.96776771865704" fill="#e7ff1a" stroke="none" /><path d="M 120.81339534386255 102.79330883721812 l 29.858339535432034 4.0072060474061635 a51.12603757747627,51.12603757747627 0 0,0 -0.12456724906726063,0.8712230498476012 l -29.78493823534817 -4.520574569234174" fill="#8eff24" stroke="none" /><path d="M 120.70491114924044 103.5080841355445 l 12.698040112400937 2.151460238092139 a33.87901408696468,33.87901408696468 0 0,0 -0.10236876065993578,0.5741383741521849 l -12.659124909401813 -2.3697173629775423" fill="#ffa00e" stroke="none" /><path d="M 120.64145759157962 103.86396538481128 l 8.87201313980551 1.660791226283546 a30.026120132713835,30.026120132713835 0 0,0 -0.09947234238636488,0.5072073307851928 l -8.84211086444348 -1.8132622841366837" fill="#ff6c0a" stroke="none" /><path d="M 120.5718875245553 104.21870165774334 l 19.1599254600807 3.9291489030454696 a40.5586542159258,40.5586542159258 0 0,0 -0.14613855044242594,0.6827106556384717 l -19.08945287091383 -4.25837337810011" fill="#fff517" stroke="none" /><path d="M 120.49622156327973 104.57218783832717 l 8.166234780809948 1.8216801196487913 a29.36695338541059,29.36695338541059 0 0,0 -0.11430657857463321,0.4924297488184161 l -8.13366763630476 -1.9619785258157723" fill="#ff6309" stroke="none" /><path d="M 120.41448212921028 104.9243191809786 l 23.9111167366581 5.76776672754612 a45.596923316087306,45.596923316087306 0 0,0 -0.19061399857658096,0.7614081721944567 l -23.80829142378646 -6.178502739137973" fill="#ccff1d" stroke="none" /><path d="M 120.23288151984713 105.62410040840565 l 11.010315084306738 3.0605189627380556 a32.427765073582485,32.427765073582485 0 0,0 -0.15412046303196716,0.5365135505195163 l -10.95600198438867 -3.2495899887621538" fill="#ff8d0d" stroke="none" /><path d="M 120.02730092923936 106.31721596034902 l 9.76748248112882 3.0809591587117535 a31.241875968630367,31.241875968630367 0 0,0 -0.16618855421358603,0.5114757773701145 l -9.713001675898987 -3.248633836059663" fill="#ff7d0b" stroke="none" /><path d="M 119.9155931802556 106.66101706037122 l 13.759134563485924 4.601913145835149 a35.50832135493019,35.50832135493019 0 0,0 -0.1988621032930511,0.5779863574567742 l -13.677881629249642 -4.838072206381224" fill="#ffb510" stroke="none" /><path d="M 119.41010516605496 108.01547362559984 l 15.745187911721946 6.50203269672296 a38.034886896151946,38.034886896151946 0 0,0 -0.25510364284688136,0.6029896552921529 l -15.630933287682755 -6.772096877681276" fill="#ffd614" stroke="none" /><path d="M 119.26925614724726 108.34839909993367 l 6.944591003519669 3.0087418445300664 a28.568346694833192,28.568346694833192 0 0,0 -0.19937837631503227,0.4495456042362503 l -6.891771542473363 -3.1278357852590046" fill="#ff5808" stroke="none" /><path d="M 118.97047184881838 109.00673069616215 l 10.081985569365942 4.786687944798177 a32.160592031867274,32.160592031867274 0 0,0 -0.2417354627415723,0.4980466529265905 l -9.998096850009656 -4.959523553690043" fill="#ff890c" stroke="none" /><line stroke="#e1ed5e" stroke-width="0.3" x1="174.80103733775053" x2="179.2010983576182" y1="140.37084112569926" y2="142.7455964860345" /><path d="M 175.68104954172406 140.8457921977663 a86.0,86.0 0 0,1 -30.038265399797805,32.042727171017184" fill="none" id="id89" stroke="none" /><text fill="#e1ed5e" style="font-size:6.75px; font-family:Arial;" text-anchor="middle"><textPath startOffset="22.206326154141568" xlink:href="#id89">May</textPath></text><path d="M 118.30583269289576 110.29060199501025 l 19.668585022600872 11.056671590315275 a43.56331587881897,43.56331587881897 0 0,0 -0.37308454294233045,0.6505043480096648 l -19.475348483506163 -11.393595784183256" fill="#e4ff1a" stroke="none" /><path d="M 117.75023020441432 111.22182372390056 l 8.325905380788598 5.263697509784917 a30.850239179043342,30.850239179043342 0 0,0 -0.28763460928149837,0.44641530113181904 l -8.234065908130049 -5.40623441083819" fill="#ff770b" stroke="none" /><path d="M 117.55443506779139 111.5257021239791 l 11.915458530756899 7.823323574115359 a35.254211438851904,35.254211438851904 0 0,0 -0.33742795335252707,0.5044090074361135 l -11.77902747199365 -8.02726949575728" fill="#ffb210" stroke="none" /><path d="M 117.14729908036423 112.12312394758627 l 24.76868313738707 17.511435141227803 a51.33377696670348,51.33377696670348 0 0,0 -0.5163205251929337,0.7171240508236937 l -24.463582819818534 -17.935192797502626" fill="#8cff24" stroke="none" /><path d="M 116.498646956653 112.99209946851258 l 11.228912860194846 8.842370722047795 a35.29251566408018,35.29251566408018 0 0,0 -0.37995264905581044,0.47404935008764915 l -11.075042299084181 -9.034347905713695" fill="#ffb210" stroke="none" /><path d="M 115.80600337817218 113.82643327865902 l 6.849849703768504 5.991963156783138 a30.10077268348485,30.10077268348485 0 0,0 -0.3444978253915535,0.387046958823783 l -6.745693028728612 -6.108984285347788" fill="#ff6d0a" stroke="none" /><path d="M 115.56566222782051 114.09645910891815 l 13.136344012703177 11.896438038131597 a38.72254981697574,38.72254981697574 0 0,0 -0.4516775080587051,0.49020672760646683 l -12.92962009664875 -12.120796020539398" fill="#ffde14" stroke="none" /><path d="M 115.32070863581623 114.36230785411682 l 22.055014445923685 20.67534307511317 a51.23067107233203,51.23067107233203 0 0,0 -0.6086531810002876,0.6381704269154513 l -21.695854713544435 -21.051920618611128" fill="#8dff24" stroke="none" /><path d="M 115.07121518719521 114.62390073753431 l 6.915558044498649 6.710303922495198 a30.636032471877854,30.636032471877854 0 0,0 -0.37049084082554357,0.3753052657194102 l -6.79902657861757 -6.828349682195273" fill="#ff740a" stroke="none" /><path d="M 114.81725581225074 114.88116024355365 l 8.058650282446784 8.09340593962745 a32.42125492572408,32.42125492572408 0 0,0 -0.39885870257606343,0.3903671890995423 l -7.918141627494926 -8.230923231649564" fill="#ff8d0c" stroke="none" /><path d="M 113.75828350139079 115.86535959552629 l 7.267560140944181 8.380584322640066 a32.09286365151583,32.09286365151583 0 0,0 -0.4204692736208386,0.35833303686576184 l -7.122225390746296 -8.504441749728775" fill="#ff880c" stroke="none" /><path d="M 113.48314897796784 116.09983520530334 l 9.240310914270461 11.033585938167263 a35.39178114228076,35.39178114228076 0 0,0 -0.4704239676580597,0.3871268990819218 l -9.04901681806771 -11.191007956106363" fill="#ffb410" stroke="none" /><path d="M 113.20401910651253 116.32954008644616 l 5.9714094524473795 7.384900706348465 a30.497077934365073,30.497077934365073 0 0,0 -0.41104616206366845,0.3265599309229196 l -5.84340579766636 -7.486594551276511" fill="#ff720a" stroke="none" /><path d="M 112.63410532772338 116.77436683061366 l 8.815864159110195 11.704868330429019 a35.653443400940404,35.653443400940404 0 0,0 -0.4934012623163971,0.3650064583034248 l -8.613077926375233 -11.854884737472211" fill="#ffb711" stroke="none" /><path d="M 112.04921762599082 117.19931262002967 l 7.0418410931200155 10.051675564386132 a33.27288505741136,33.27288505741136 0 0,0 -0.471909511575434,0.3245836651622498 l -6.867774696921698 -10.171400018913477" fill="#ff980e" stroke="none" /><line stroke="#e1ed5e" stroke-width="0.3" x1="143.8653032363475" x2="146.44561519142675" y1="172.8068346515853" y2="177.08958963109032" /><path d="M 144.38136562736335 173.6633856474863 a86.0,86.0 0 0,1 -40.68145358897372,12.25698825130547" fill="none" id="id90" stroke="none" /><text fill="#e1ed5e" style="font-size:6.75px; font-family:Arial;" text-anchor="middle"><textPath startOffset="21.466115282336833" xlink:href="#id90">June</textPath></text><path d="M 108.2653958097858 119.30500536409082 l 2.811590625270568 6.566869070954073 a28.143445333952137,28.143445333952137 0 0,0 -0.4469829641402878,0.18683891526203208 l -2.698136201632819 -6.614293029236078" fill="#ff5207" stroke="none" /><path d="M 107.59598834532513 119.57807347666477 l 1.7203073829490048 4.433959455263342 a25.755991373283603,25.755991373283603 0 0,0 -0.41470798462612624,0.15680707463394417 l -1.6437291775626037 -4.462914780003918" fill="#ff3004" stroke="none" /><path d="M 106.2309692047433 120.05430185196036 l 1.4097487640605926 4.5372599865166325 a25.751222975510125,25.751222975510125 0 0,0 -0.42443536717111285,0.12787889443224917 l -1.3314384224492337 -4.560854250054607" fill="#ff3004" stroke="none" /><path d="M 105.88484417918355 120.15858648285463 l 1.3319265142515595 4.562526212898341 a25.752964725595046,25.752964725595046 0 0,0 -0.4266025598540972,0.1205621446325621 l -1.2531927862928567 -4.584777150869422" fill="#ff3004" stroke="none" /><path d="M 105.18746579009965 120.34920634021253 l 1.172987396478616 4.601353248626145 a25.748510413902455,25.748510413902455 0 0,0 -0.4304252382645561,0.10578805137140951 l -1.093608873470849 -4.620862558311584" fill="#ff3004" stroke="none" /><path d="M 104.13013068566511 120.58985236759428 l 2.8084570067632946 14.000940781533608 a35.279838007724344,35.279838007724344 0 0,0 -0.5964516688288677,0.1143113818979887 l -2.567037723362722 -14.047209361780064" fill="#ffb210" stroke="none" /><path d="M 102.34483914955558 120.86867818915974 l 1.59480251569969 14.193476973338214 a35.28279327221269,35.28279327221269 0 0,0 -0.6041210648281348,0.06261961847144216 l -1.3502488542659525 -14.218825960265415" fill="#ffb210" stroke="none" /><path d="M 101.62511606390274 120.93702456842531 l 1.1718394326040846 15.097279225559225 a36.14268957848334,36.14268957848334 0 0,0 -0.6206857041718266,0.04280612016432802 l -0.9117909676533277 -15.11521369023984" fill="#ffbd11" stroke="none" /><line stroke="#e1ed5e" stroke-width="0.3" x1="102.19456741930631" x2="102.32365962044197" y1="184.97166512339345" y2="189.96999836594603" /><path d="M 102.22038585953345 185.97133177190398 a86.0,86.0 0 0,1 -42.740103519485714,-10.115201625700543" fill="none" id="id91" stroke="none" /><text fill="#e1ed5e" style="font-size:6.75px; font-family:Arial;" text-anchor="middle"><textPath startOffset="22.20632615414155" xlink:href="#id91">July</textPath></text><path d="M 100.54218724476979 120.99299961872073 l 0.3700908296611466 14.329582115616233 a35.33436049603846,35.33436049603846 0 0,0 -0.6081553435777335,0.010469945762522031 l -0.12337579619074518 -14.333829538657914" fill="#ffb310" stroke="none" /><path d="M 99.81925306533755 120.99922214144158 l -0.1259351199279265 14.631172383168728 a35.63171435479898,35.63171435479898 0 0,0 -0.613273232669258,-0.01055805486453474 l 0.37776804248985246 -14.626836851025034" fill="#ffb711" stroke="none" /><path d="M 99.45781275523022 120.99299961872073 l -0.3599635287936044 13.937462187857603 a34.94210981092969,34.94210981092969 0 0,0 -0.6011368163923183,-0.020704367418807816 l 0.5998206968605657 -13.929201022012702" fill="#ffae10" stroke="none" /><path d="M 98.01472825383883 120.90594882070398 l -1.5956196913895453 16.80270908504085 a37.87830070818933,37.87830070818933 0 0,0 -0.648562010982674,-0.06722610424842007 l 1.8846142989778125 -16.77275361233667" fill="#ffd413" stroke="none" /><path d="M 95.86986931433489 120.58985236759428 l -0.9344311369911033 4.65839960587876 a25.751194422230043,25.751194422230043 0 0,0 -0.4338567840465209,-0.09091890740744807 l 1.0144793824670109 -4.6416247177447705" fill="#ff3004" stroke="none" /><path d="M 95.51606077576429 120.51570834832081 l -3.092437506146732 14.149064648022486 a35.483065978698804,35.483065978698804 0 0,0 -0.5955745616788073,-0.13555083121379397 l 3.335532217218402 -14.093737083231007" fill="#ffb510" stroke="none" /><path d="M 94.81253420990036 120.34920634021253 l -4.4088938642484425 17.29505207473672 a38.848169972690826,38.848169972690826 0 0,0 -0.6465622230828176,-0.1707629596287717 l 4.70594653014275 -17.216597765804366" fill="#ffe015" stroke="none" /><path d="M 94.11515582081647 120.15858648285463 l -4.70149627687894 16.105017636921072 a37.777236373343655,37.777236373343655 0 0,0 -0.6226498526333546,-0.1875992929238048 l 4.97802110395254 -16.021702974891543" fill="#ffd213" stroke="none" /><path d="M 93.08242187328487 119.8279376855182 l -1.5661230724187079 4.488997466880251 a25.75434955967896,25.75434955967896 0 0,0 -0.41731911351729345,-0.14963578660442428 l 1.643161746565728 -4.461374139235869" fill="#ff3004" stroke="none" /><path d="M 92.7421414339146 119.70592522655815 l -1.6495021711829756 4.4785891252092735 a25.77269504213082,25.77269504213082 0 0,0 -0.41497693738134495,-0.15690876955259636 l 1.7263493293246035 -4.449532105550044" fill="#ff3004" stroke="none" /><path d="M 92.40401165467489 119.57807347666478 l -1.718835626780586 4.430166117372993 a25.7519225308721,25.7519225308721 0 0,0 -0.41188228712013103,-0.16389646232674138 l 1.794838989942575 -4.399922810640185" fill="#ff3004" stroke="none" /><path d="M 91.40352486487194 119.15986991738527 l -2.9193612049588755 6.506687921460496 a28.131595722718643,28.131595722718643 0 0,0 -0.44010140595454506,-0.2020289698628867 l 3.03093060668084 -6.455471881263535" fill="#ff5207" stroke="none" /><line stroke="#e1ed5e" stroke-width="0.3" x1="58.666819895761336" x2="56.23545636021788" y1="174.27360380694188" y2="178.64263932499728" /><path d="M 58.180547188652646 175.14741091055294 a86.0,86.0 0 0,1 -31.652253787137756,-30.449443065178592" fill="none" id="id92" stroke="none" /><text fill="#e1ed5e" style="font-size:6.75px; font-family:Arial;" text-anchor="middle"><textPath startOffset="22.20632615414155" xlink:href="#id92">August</textPath></text><path d="M 89.1626897886671 117.98757091392108 l -7.368557949522779 12.230198828467065 a35.27842462036035,35.27842462036035 0 0,0 -0.517451836985292,-0.3178611814427559 l 7.577988986440379 -12.101549180195931" fill="#ffb210" stroke="none" /><path d="M 88.8546689885994 117.79835938074946 l -3.7922942949485683 6.056044156070195 a28.14542978691775,28.14542978691775 0 0,0 -0.40840117358497235,-0.2606609518146768 l 3.8959772705804645 -5.989868775431714" fill="#ff5207" stroke="none" /><path d="M 88.54995079064634 117.60387380957326 l -7.788389376884693 11.974256290400549 a35.28432087269701,35.28432087269701 0 0,0 -0.5062885055581562,-0.3355404144155472 l 7.993352581182811 -11.838417854893683" fill="#ffb210" stroke="none" /><path d="M 87.95078237400918 117.19931262002967 l -2.4951676994393464 3.561656087071347 a25.348707386212347,25.348707386212347 0 0,0 -0.35521104086273164,-0.25343364621748116 l 2.556106068150965 -3.518178179009647" fill="#ff2a04" stroke="none" /><path d="M 87.65650970185807 116.9893568818739 l -9.94434628213559 13.687218433636165 a37.91833240686249,37.91833240686249 0 0,0 -0.5247446330523359,-0.38819353465971107 l 10.178475885606492 -13.514014950236687" fill="#ffd413" stroke="none" /><path d="M 87.07902340077011 116.55440617244103 l -5.50254382674458 7.049880849951931 a29.943087194239126,29.943087194239126 0 0,0 -0.4035793559638195,-0.3206278485700784 l 5.623080675425758 -6.954119087376721" fill="#ff6b09" stroke="none" /><path d="M 86.79598089348748 116.32954008644616 l -9.970682338424316 12.330840755464807 a36.85762088178421,36.85762088178421 0 0,0 -0.4899077608990962,-0.40316073446939693 l 10.181460227868103 -12.15738490213823" fill="#ffc712" stroke="none" /><path d="M 86.51685102203217 116.09983520530335 l -9.717384537344492 11.603245646358562 a36.1348231498211,36.1348231498211 0 0,0 -0.4734255879189701,-0.40346355677333867 l 9.915675601840519 -11.434257699362274" fill="#ffbd11" stroke="none" /><path d="M 86.24171649860922 115.8653595955263 l -5.871897215785365 6.771176130146415 a29.96258908453425,29.96258908453425 0 0,0 -0.38674232848002915,-0.341255139124134 l 5.9875818971719825 -6.669097849249992" fill="#ff6b09" stroke="none" /><path d="M 85.70375840098266 115.38237550388516 l -11.561073219955778 12.439407117286983 a37.982263200963196,37.982263200963196 0 0,0 -0.47507521293473215,-0.44921326652947097 l 11.773484267281328 -12.238559214011582" fill="#ffd513" stroke="none" /><path d="M 85.44109423537348 115.13401014063109 l -7.298949753942484 7.587272105332983 a31.52812260143949,31.52812260143949 0 0,0 -0.3878710464563662,-0.37961345499136095 l 7.428470752774644 -7.460508547419052" fill="#ff800b" stroke="none" /><path d="M 84.67929136418377 114.36230785411682 l -13.019319507276172 12.204884203428813 a38.84550024100328,38.84550024100328 0 0,0 -0.4531116579636442,-0.4917632140802288 l 13.227477573235547 -11.97896973454724" fill="#ffe015" stroke="none" /><path d="M 84.43433777217949 114.09645910891817 l -13.663515469396344 12.373851126884253 a39.43376919386613,39.43376919386613 0 0,0 -0.4513122595597954,-0.5070541079438493 l 13.874486578604477 -12.13682284919954" fill="#ffe715" stroke="none" /><path d="M 83.72743513129214 113.27417163493432 l -5.856780778543909 4.777606597966477 a28.5582673869647,28.5582673869647 0 0,0 -0.3074529866162167,-0.3835948738615461 l 5.938151677214987 -4.676083890526671" fill="#ff5808" stroke="none" /><path d="M 83.50135304334701 112.99209946851258 l -5.748885465639332 4.52704345992167 a28.317363362923746,28.317363362923746 0 0,0 -0.29826703477321737,-0.3855503492452879 l 5.825959317630618 -4.427415116563129" fill="#ff5407" stroke="none" /><path d="M 83.28015986056508 112.70617746262583 l -8.739990406940036 6.641921705357926 a31.977365633589354,31.977365633589354 0 0,0 -0.32927357328740386,-0.4411157605367863 l 8.853025246922526 -6.490493065311831" fill="#ff870c" stroke="none" /><path d="M 83.06392112726016 112.41649034213515 l -7.718671803121928 5.65885495796997 a30.57081678017351,30.57081678017351 0 0,0 -0.3074844889312148,-0.42706906177206416 l 7.81493608442875 -5.525152290746767" fill="#ff730a" stroke="none" /><path d="M 82.85270091963577 112.12312394758628 l -13.59365898802915 9.610703822260339 a37.64791856785812,37.64791856785812 0 0,0 -0.36955751337200615,-0.5323751609141563 l 13.75707740856329 -9.37528739915917" fill="#ffd113" stroke="none" /><path d="M 82.44556493220864 111.52570212397912 l -15.547634483013749 10.20809858544018 a39.599306835134044,39.599306835134044 0 0,0 -0.36920722342663614,-0.5730178097752472 l 15.72104656981743 -9.938959175743484" fill="#ffe915" stroke="none" /><line stroke="#e1ed5e" stroke-width="0.3" x1="26.63291911575756" x2="22.317208475507996" y1="142.92168965132927" y2="145.44649492493687" /><path d="M 25.769776987707644 143.4266507060508 a86.0,86.0 0 0,1 -11.730757126820373,-40.83630448921669" fill="none" id="id93" stroke="none" /><text fill="#e1ed5e" style="font-size:6.75px; font-family:Arial;" text-anchor="middle"><textPath startOffset="21.46611528233685" xlink:href="#id93">September</textPath></text><path d="M 81.87401531095188 110.60418214915194 l -10.650853073018773 6.231031746285607 a33.33962834960002,33.33962834960002 0 0,0 -0.2855269336998656,-0.4978402760425873 l 10.756532002871015 -6.0467716243847125" fill="#ff990e" stroke="none" /><path d="M 81.51974371655577 109.97397251340807 l -26.599062720788105 14.355770633831984 a51.22578846143823,51.22578846143823 0 0,0 -0.4121175464172648,-0.779571087269049 l 26.842232775430254 -13.89578453147681" fill="#8dff24" stroke="none" /><path d="M 81.18737489456691 109.33194174019688 l -6.401233489759013 3.175311135848688 a28.14551544675799,28.14551544675799 0 0,0 -0.21155609305575582,-0.43586821253977953 l 6.4549428394294885 -3.064653967343624" fill="#ff5207" stroke="none" /><path d="M 80.73074385275274 108.34839909993369 l -6.569262584457147 2.846130926291348 a28.159306681036973,28.159306681036973 0 0,0 -0.1888671769680468,-0.4464262158903018 l 6.6172807426175 -2.7326301847348877" fill="#ff5207" stroke="none" /><path d="M 80.58989483394504 108.01547362559985 l -13.28035079302387 5.4841692308992345 a35.36815330301398,35.36815330301398 0 0,0 -0.227530716656244,-0.5647125790825315 l 13.372784123937501 -5.254757283973897" fill="#ffb310" stroke="none" /><path d="M 80.45479744820244 107.68017299344265 l -7.702455777159504 3.0266349343863 a29.275768485472838,29.275768485472838 0 0,0 -0.18026306354608138,-0.47060997635924595 l 7.753413120299095 -2.8936013911938963" fill="#ff6209" stroke="none" /><path d="M 80.32549172779594 107.34259656027581 l -5.930330052121289 2.2132202970238697 a27.329862447972413,27.329862447972413 0 0,0 -0.16069404582804575,-0.4421609987723057 l 5.967548358954559 -2.110811501245447" fill="#ff4706" stroke="none" /><path d="M 80.20201598880116 107.00284435728193 l -13.483419329667855 4.769287969735714 a35.302052459627134,35.302052459627134 0 0,0 -0.1977069074178717,-0.5746288175082944 l 13.563517068028954 -4.536486449138123" fill="#ffb310" stroke="none" /><path d="M 79.86692584326677 105.97154293290107 l -6.982615117888166 2.0710690099181064 a28.28328502314742,28.28328502314742 0 0,0 -0.1344228618266233,-0.46794361664120915 l 7.0172306166008935 -1.9505679177723012" fill="#ff5407" stroke="none" /><path d="M 79.67330655649465 105.27499134158121 l -11.581771519347035 3.005591866405982 a32.96540906086223,32.96540906086223 0 0,0 -0.13780904453232687,-0.5504786295486358 l 11.63179187817442 -2.8057853974599545" fill="#ff940d" stroke="none" /><path d="M 79.29508885075956 103.50808413554451 l -14.086696463829155 2.3867437068814894 a35.28746173350589,35.28746173350589 0 0,0 -0.0963150190289354,-0.5997537154330557 l 14.12569323721938 -2.14391076175522" fill="#ffb210" stroke="none" /><path d="M 79.10278846688536 102.07522291339032 l -4.732328692574736 0.4699496351923942 a25.755605904002515,25.755605904002515 0 0,0 -0.0400136686069821,-0.44154749879282557 l 4.739716957458794 -0.3884207478510025" fill="#ff3004" stroke="none" /><line stroke="#e1ed5e" stroke-width="0.3" x1="15.007084014347285" x2="10.007500721073583" y1="101.09737516637583" y2="101.16192664675087" /><path d="M 14.007167355692545 101.11028546245083 a86.0,86.0 0 0,1 10.666146001902534,-42.60595125391555" fill="none" id="id94" stroke="none" /><text fill="#e1ed5e" style="font-size:6.75px; font-family:Arial;" text-anchor="middle"><textPath startOffset="22.20632615414155" xlink:href="#id94">October</textPath></text><path d="M 79.00175016825051 100.2711162175752 l -18.99291548103287 0.24522459953578687 a39.99449850809111,39.99449850809111 0 0,0 -0.0029628357016192874,-0.6884586730796277 l 18.994322614023993 0.08174355174751623" fill="#ffee16" stroke="none" /><path d="M 79.01574976396665 99.18683210126434 l -21.26559820584187 -0.824070510687444 a42.28155913599588,42.28155913599588 0 0,0 0.034442138813277776,-0.7270191142224072 l 21.248262458795093 1.1900007315328602" fill="#f4ff19" stroke="none" /><path d="M 79.05617556472873 98.46500227214037 l -34.21915212260232 -2.5079622358282707 a55.31093479586558,55.31093479586558 0 0,0 0.077765900013051,-0.9489409539608761 l 34.17091173876977 3.096617106996925" fill="#61ff29" stroke="none" /><path d="M 79.16333360222342 97.38593545837743 l -1.8989269205682269 -0.23822992773544674 a22.913812150689708,22.913812150689708 0 0,0 0.05246608404963723,-0.3909332669984791 l 1.8945448374607559 0.27088153679858523" fill="#ff0701" stroke="none" /><path d="M 79.21141760316559 97.0276538004421 l -4.704563046384514 -0.6726572223429202 a25.752407936633475,25.752407936633475 0 0,0 0.0665198266813955,-0.43828254545684464 l 4.692287326263817 0.7535388801918569" fill="#ff3004" stroke="none" /><path d="M 79.26566170972629 96.67025291283419 l -4.698517772665547 -0.7545394334994894 a25.75871821153131,25.75871821153131 0 0,0 0.07407243059140504,-0.43717967835036464 l 4.68483348055392 0.8353049001656819" fill="#ff3004" stroke="none" /><path d="M 79.32604984820605 96.31383870115002 l -14.061443600947356 -2.5071526644498663 a35.28320729477387,35.28320729477387 0 0,0 0.11175414244524635,-0.5969950975840776 l 14.016203734592247 2.7488258394965164" fill="#ffb210" stroke="none" /><path d="M 79.3925641242962 95.95851677861259 l -10.92820062125303 -2.14321372717804 a32.13637885035883,32.13637885035883 0 0,0 0.11113173613597789,-0.541917813031792 l 10.889689589202057 2.331007196373234" fill="#ff890c" stroke="none" /><path d="M 79.54389044137918 95.25157060432595 l -1.7003526878973922 -0.39469893642717246 a22.74556194781412,22.74556194781412 0 0,0 0.09181321870525574,-0.38062506584133043 l 1.6933066689313216 0.42390923392789964" fill="#ff0500" stroke="none" /><path d="M 79.71946130924805 94.55025226153421 l -6.904101372343638 -1.8552569738803728 a28.149027500207918,28.149027500207918 0 0,0 0.12977134560530712,-0.4668565760986551 l 6.871143256171971 1.9738248533979703" fill="#ff5207" stroke="none" /><path d="M 79.81627453868168 94.20196356495316 l -8.307297957361639 -2.386378883615028 a29.643263476751624,29.643263476751624 0 0,0 0.14510250837018981,-0.48921352390341555 l 8.264989551879742 2.529021794264983" fill="#ff6709" stroke="none" /><path d="M 79.91906864156998 93.8553929516997 l -7.099205999506044 -2.1723011967563997 a28.424124077145525,28.424124077145525 0 0,0 0.14718893438484473,-0.4666291450033745 l 7.060761581352995 2.294180508186189" fill="#ff5607" stroke="none" /><path d="M 80.14247586403 93.16781622104843 l -17.737718675646615 -6.102843082629817 a39.75823439206327,39.75823439206327 0 0,0 0.22822536516212866,-0.6452238404715385 l 17.630040229674677 6.407264549527966" fill="#ffeb16" stroke="none" /><path d="M 80.2630227832202 92.82701384747504 l -6.808326669506245 -2.4743420629130424 a28.2440099863964,28.2440099863964 0 0,0 0.16999586974260536,-0.4555044142811755 l 6.764726211262012 2.591169614223559" fill="#ff5307" stroke="none" /><path d="M 80.38941819471856 92.48833698450439 l -4.4390953506515425 -1.7003569143862634 a25.753607174396862,25.753607174396862 0 0,0 0.16213299915563908,-0.4126107981594967 l 4.4091688016142125 1.7765167174415235" fill="#ff3004" stroke="none" /><path d="M 80.95270993114464 91.15688171328213 l -4.582664030631624 -2.12760135140831 a26.05247435700166,26.05247435700166 0 0,0 0.19234393710480907,-0.4051253853623544 l 4.545361899685063 2.206169152411196" fill="#ff3405" stroke="none" /><path d="M 81.43458229118936 90.18545643968196 l -4.203973753496801 -2.222416116743078 a25.755263264641545,25.755263264641545 0 0,0 0.21057000500166542,-0.390154239226717 l 4.165095649276664 2.2944513393022676" fill="#ff3004" stroke="none" /><line stroke="#e1ed5e" stroke-width="0.3" x1="26.266209847984243" x2="21.928928074336255" y1="57.711370442889674" y2="55.22380399835377" /><path d="M 25.398753493254645 57.213857153982495 a86.0,86.0 0 0,1 29.58750427330803,-30.492523968695096" fill="none" id="id95" stroke="none" /><text fill="#e1ed5e" style="font-size:6.75px; font-family:Arial;" text-anchor="middle"><textPath startOffset="21.46611528233685" xlink:href="#id95">November</textPath></text><path d="M 81.78341655067845 89.55222093294921 l -14.097181331194681 -8.085173404015032 a37.25117074113665,37.25117074113665 0 0,0 0.3238019444499328,-0.5534824850073794 l 13.955919712274424 8.326635301376303" fill="#ffcc13" stroke="none" /><path d="M 81.96595687620814 89.24020034530311 l -6.292470110425093 -3.7543282588705784 a28.327357010951996,28.327357010951996 0 0,0 0.253441088507812,-0.41659051165954747 l 6.2269132236310645 3.8620865437372003" fill="#ff5507" stroke="none" /><path d="M 82.15384107792192 88.93136811851018 l -2.429721664345746 -1.5069738420771734 a23.859111317681755,23.859111317681755 0 0,0 0.21947247069865436,-0.34715274221743064 l 2.4034215974011293 1.5485742320088196" fill="#ff1502" stroke="none" /><path d="M 82.34701348167596 88.62581576622439 l -6.146477857923128 -3.96030277779181 a28.31185257986817,28.31185257986817 0 0,0 0.26748413386173286,-0.4073966869030213 l 6.077397088703474 4.0655175286724985" fill="#ff5407" stroke="none" /><path d="M 82.7489923806493 88.02491185347247 l -51.75302285805211 -35.92526443958256 a84.0,84.0 0 0,0 0.834749520784487,-1.1806939986728553 l 51.12696071746375 36.810784938587204" fill="#4dd2ff" stroke="none" /><path d="M 83.39014120810768 87.1503855733568 l -9.252251165342 -7.15766831871786 a32.69770778346552,32.69770778346552 0 0,0 0.3482242342715626,-0.4422094148002305 l 9.127672850476467 7.315870127471138" fill="#ff900d" stroke="none" /><path d="M 83.6137871275137 86.86637796730984 l -11.155988895011843 -8.94157440087881 a35.297127018813214,35.297127018813214 0 0,0 0.3840688928176155,-0.4708230497773267 l 11.000421510117835 9.13228162026422" fill="#ffb310" stroke="none" /><path d="M 84.07557802195018 86.31012108654704 l -10.873390598405038 -9.347617193014903 a35.33905751061174,35.33905751061174 0 0,0 0.40052301052457673,-0.4578670384327143 l 10.710875724302618 9.53339978765056" fill="#ffb310" stroke="none" /><path d="M 84.31358615837235 86.03803664274999 l -7.732638182681421 -6.882568065045255 a31.35197741662159,31.35197741662159 0 0,0 0.36227412854311286,-0.4000321410653134 l 7.613020413522262 7.014652993380125" fill="#ff7e0b" stroke="none" /><path d="M 84.5562425177563 85.77008943001954 l -9.776261415014318 -9.007867794113627 a34.29349350061628,34.29349350061628 0 0,0 0.4037367731974346,-0.4306782399145871 l 9.619757319846428 9.174815450906264" fill="#ffa50f" stroke="none" /><path d="M 84.80347519578584 85.50635884689758 l -3.5045515134613026 -3.342455771505367 a25.842921834489324,25.842921834489324 0 0,0 0.30978985505085377,-0.31926567692695296 l 3.4464973947073303 3.4022856439824434" fill="#ff3104" stroke="none" /><path d="M 85.05521093208273 85.24692304244772 l -10.563765468394061 -10.428253233183314 a35.843908055718785,35.843908055718785 0 0,0 0.437234572665219,-0.43535694845750494 l 10.382695095561528 10.60854603229093" fill="#ffba11" stroke="none" /><path d="M 85.31137513191541 84.99185889309783 l -10.894373367789399 -11.131354653240697 a36.57544309138659,36.57544309138659 0 0,0 0.45373884750506094,-0.4364964118030462 l 10.70115127667191 11.317234151806057" fill="#ffc312" stroke="none" /><path d="M 85.83668400450813 84.49514656593479 l -16.988293495391165 -18.597410438682793 a46.18860438591979,46.18860438591979 0 0,0 0.5916298608613785,-0.5311711306077745 l 16.665652646933815 18.887080578059848" fill="#c6ff1e" stroke="none" /><path d="M 86.37877921826538 84.01681056812374 l -11.037172500480535 -12.951057889321621 a38.01614166777897,38.01614166777897 0 0,0 0.5017089112914123,-0.42016678483068387 l 10.812606052230013 13.139125831546117" fill="#ffd513" stroke="none" /><path d="M 86.93701828274178 83.55741782278169 l -2.6965204970739487 -3.3941530980721577 a25.334916151933363,25.334916151933363 0 0,0 0.34379172957460225,-0.26833489806703026 l 2.637696212339921 3.44006638536241" fill="#ff2a04" stroke="none" /><path d="M 87.51073957382395 83.11751280151077 l -7.19262381327791 -9.722703771691014 a33.093998757705705,33.093998757705705 0 0,0 0.46088071129872205,-0.3348494370958834 l 7.0241977856254065 9.845072443603565" fill="#ff950d" stroke="none" /><path d="M 87.80319425747018 82.90503203632743 l -4.004893401485052 -5.613233976300923 a27.895474373091208,27.895474373091208 0 0,0 0.39328482421020583,-0.2755211525366249 l 3.907677437691186 5.68133997160149" fill="#ff4e07" stroke="none" /><path d="M 88.39885842347998 82.49532879139004 l -7.891746906783415 -11.90765873803315 a35.28537734406,35.28537734406 0 0,0 0.509172992518773,-0.3311802779024284 l 7.685606888480355 12.041737940095114" fill="#ffb210" stroke="none" /><path d="M 88.70189139769569 82.29822771554957 l -7.8421975226476945 -12.287082700486474 a35.57643520456273,35.57643520456273 0 0,0 0.5190446844546633,-0.3250257337882607 l 7.629533685820789 12.420252775597666" fill="#ffb610" stroke="none" /><path d="M 89.00827224532344 82.1063720568725 l -12.721411739752979 -20.709411082859596 a45.30460911126103,45.30460911126103 0 0,0 0.668001216953711,-0.40246325889798457 l 12.363048456581618 20.925320951216197" fill="#d0ff1d" stroke="none" /><line stroke="#e1ed5e" stroke-width="0.3" x1="56.762969772571076" x2="54.21961505331055" y1="26.818313649435495" y2="22.513508569990535" /><path d="M 56.25429882871897 25.957352633546506 a86.0,86.0 0 0,1 42.265352541879196,-11.944610805530505" fill="none" id="id96" stroke="none" /><text fill="#e1ed5e" style="font-size:6.75px; font-family:Arial;" text-anchor="middle"><textPath startOffset="22.20632615414155" xlink:href="#id96">December</textPath></text><path d="M 89.3179101791058 81.91981866633112 l -11.40432622138214 -19.302616765830884 a43.41984992305345,43.41984992305345 0 0,0 0.6467557586569779,-0.37464268060977923 l 11.070373730259842 19.49606360383071" fill="#e6ff1a" stroke="none" /><path d="M 90.26544431104013 81.39251694778311 l -2.0341695638080655 -3.8882900147996704 a25.38823940248409,25.38823940248409 0 0,0 0.38897141744452224,-0.1992462677469026 l 1.9669376587747796 3.9227288078590785" fill="#ff2b04" stroke="none" /><path d="M 90.58718382345135 81.22770947309562 l -9.840761143184107 -19.625755323467857 a42.954745543818746,42.954745543818746 0 0,0 0.6638118641535737,-0.3257295988368836 l 9.501478012020106 19.79224008243957" fill="#ecff1a" stroke="none" /><path d="M 91.23893434514133 80.91482961587045 l -1.9836331239530438 -4.321161105470304 a25.75470647567997,25.75470647567997 0 0,0 0.404493463300896,-0.18148442628166353 l 1.9089575421853735 4.354665862268496" fill="#ff3004" stroke="none" /><path d="M 91.56875222667455 80.76684994638697 l -7.4889789034895005 -17.083670041681746 a39.65305838488598,39.65305838488598 0 0,0 0.6274931121231818,-0.26865980308194176 l 7.19380203357601 17.210049372726473" fill="#ffea16" stroke="none" /><path d="M 91.90106846888425 80.62456947434976 l -1.8352689807902804 -4.390594795938985 a25.75873248817135,25.75873248817135 0 0,0 0.41056491727375155,-0.16747973842710578 l 1.7594201939281484 4.421535420549668" fill="#ff3004" stroke="none" /><path d="M 92.57280143429618 80.3572730644239 l -9.653012059217872 -25.529340343827467 a48.29336659714925,48.29336659714925 0 0,0 0.7800934998903644,-0.2873150194894825 l 9.212136233554936 25.691718631123273" fill="#adff20" stroke="none" /><path d="M 93.59665428221793 80.00007090966166 l -1.4509166470890564 -4.531729401582836 a25.758332742250218,25.758332742250218 0 0,0 0.42343586843852105,-0.1315635855040377 l 1.3726954059398067 4.556033121969399" fill="#ff3004" stroke="none" /><path d="M 94.28887869178378 79.79150937346287 l -1.2943353082783395 -4.579934750695817 a25.759317830413003,25.759317830413003 0 0,0 0.4277299285534293,-0.11691474706531126 l 1.2153074905011878 4.601536038587424" fill="#ff3004" stroke="none" /><path d="M 94.98787191387505 79.60689891045804 l -7.3374288667633705 -29.85417093219482 a51.74263138417918,51.74263138417918 0 0,0 0.8667539092944393,-0.20513264663433237 l 6.822451270506397 29.976049490970023" fill="#87ff25" stroke="none" /><path d="M 96.04723909329186 79.375362276772 l -0.896333251128641 -4.676869919563885 a25.76198756210055,25.76198756210055 0 0,0 0.43624230796045405,-0.0797204933891155 l 0.8156958220652937 4.691605894303738" fill="#ff3004" stroke="none" /><path d="M 96.40284397218896 79.31037775812273 l -2.7487338358967963 -15.809785360569437 a37.0469576819994,37.0469576819994 0 0,0 0.6292175145989445,-0.10382628125253135 l 2.4761871151589663 15.854757904761597" fill="#ffc912" stroke="none" /><path d="M 97.83486435360386 79.11191278185805 l -0.14739329488663652 -1.4219728006815477 a22.42959135044098,22.42959135044098 0 0,0 0.3843736350789468,-0.0365009081499208 l 0.12289453271745344 1.4242992533466492" fill="#ff0000" stroke="none" /><path d="M 98.55514903715128 79.0497635885617 l -0.4951129062467944 -7.179101999401665 a28.19615468898113,28.19615468898113 0 0,0 0.48448774707490516,-0.029225623982202974 l 0.3714631103322662 7.186560892764174" fill="#ff5307" stroke="none" /></svg>