<?xml version="1.0" encoding="utf-8" ?>
<svg baseProfile="full" height="200mm" version="1.1" viewBox="0,0,200,200" width="200mm" xmlns="http://www.w3.org/2000/svg" xmlns:ev="http://www.w3.org/2001/xml-events" xmlns:xlink="http://www.w3.org/1999/xlink"><defs /><rect fill="#1a1a1a" height="200" width="200" x="0" y="0" /><rect fill="#1a1a1a" height="200" width="180" x="10" y="0" /><text alignment-baseline="middle" fill="#e1ed5e" style="dominant-baseline: central; font-size:9.0px; font-family:Arial;" text-anchor="middle" x="100.0" y="100.0">2024</text><line stroke="#e1ed5e" stroke-width="0.3" x1="100.0" x2="100.0" y1="15.0" y2="10.0" /><path d="M 100.0 14.0 a86.0,86.0 0 0,1 42.35913384403234,11.155469271406648" fill="none" id="id109" stroke="none" /><text fill="#e1ed5e" style="font-size:6.75px; font-family:Arial;" text-anchor="middle"><textPath startOffset="22.145653131862478" xlink:href="#id109">January</textPath></text><path d="M 100.0 79.0 l 0.0 -35.80334350679589 a56.80334350679589,56.80334350679589 0 0,0 0.975104925807574,0.0083701030278712 l -0.6146120009587193 35.79806780196245" fill="#57ff2a" stroke="none" /><path d="M 100.36049292484886 79.00309439819443 l 0.20061729757318697 -11.684951822562589 a32.68667388077952,32.68667388077952 0 0,0 0.5609448606640282,0.0144479498022997 l -0.4011754723079565 11.679786155410243" fill="#ff840c" stroke="none" /><path d="M 100.72087961077811 79.0123766808444 l 0.6348640321753803 -18.483373599365656 a39.4942734908154,39.4942734908154 0 0,0 0.6773723769131902,0.02908928441860509 l -0.9520621696894068 18.46975174652122" fill="#ffde14" stroke="none" /><path d="M 101.08105385017728 79.02784411241856 l 0.34374940265659976 -6.668646578146883 a27.67750034339624,27.67750034339624 0 0,0 0.4742811817822309,0.0285315781519497 l -0.45817493657129305 6.661763022170241" fill="#ff3d05" stroke="none" /><path d="M 101.44090949804482 79.04949213459386 l 0.6605536682844618 -9.604305365253465 a30.626993959576403,30.626993959576403 0 0,0 0.524204344090638,0.040576731532591385 l -0.8253270071503334 9.59155086672582" fill="#ff6709" stroke="none" /><path d="M 102.15924093988457 79.11130261209362 l 6.141896034099796 -59.417272650986106 a80.73386958983414,80.73386958983414 0 0,0 1.3773355713752757,0.15433332361968022 l -7.160967507075868 59.303083566859456" fill="#49f1ff" stroke="none" /><path d="M 103.23170211078529 79.25015418208739 l 4.834055305213168 -31.038102776762923 a52.41228923008888,52.41228923008888 0 0,0 0.8878204950300894,0.14609052460188035 l -5.366153303296327 30.950546253665376" fill="#86ff25" stroke="none" /><path d="M 103.58742460773223 79.30868818359171 l 2.9020798685241513 -16.738425483933256 a37.988141606558365,37.988141606558365 0 0,0 0.6415749697519203,0.1169163314755105 l -3.188989571827125 16.68614097852638" fill="#ffcb12" stroke="none" /><path d="M 103.94208987418118 79.37332000966035 l 4.057290305535453 -21.22945732625399 a42.61368693653702,42.61368693653702 0 0,0 0.7173375284071136,0.1434875958905986 l -4.421124319473523 21.156680333700532" fill="#f9ff18" stroke="none" /><path d="M 104.64783097203109 79.52079915486377 l 9.821186722998256 -43.27396083209404 a65.37444528944116,65.37444528944116 0 0,0 1.09227575329314,0.25777410366449743 l -10.562594630031281 43.098990584783316" fill="#35ff68" stroke="none" /><path d="M 104.9986988182912 79.60360301121754 l 3.7231345886835143 -15.191659644622439 a36.64123569042745,36.64123569042745 0 0,0 0.6096311333293386,0.1549658501483157 l -3.9833710152382475 15.125508562638855" fill="#ffb911" stroke="none" /><path d="M 105.3480935250658 79.69241777938227 l 3.272286662555263 -12.425405452956088 a33.84906847488517,33.84906847488517 0 0,0 0.5606350274571531,0.15280356976667683 l -3.485103090947109 12.36740138904527" fill="#ff940d" stroke="none" /><path d="M 105.69591212413111 79.78721728523813 l 5.765105217886993 -20.458324594441613 a42.25510487823672,42.25510487823672 0 0,0 0.696484832350803,0.2027365840186128 l -6.1154500626194 20.356344316120484" fill="#fdff18" stroke="none" /><path d="M 106.72888874123014 80.10723608172694 l 11.313493545105562 -33.44633339004318 a56.30796444760109,56.30796444760109 0 0,0 0.912977946776309,0.31758112228790264 l -11.885977263926888 33.247193835186685" fill="#5cff2a" stroke="none" /><path d="M 107.06938296918511 80.22567764915836 l 14.554337819434874 -40.71107321516714 a64.23447966256714,64.23447966256714 0 0,0 1.035125940745963,0.38011258343017806 l -15.251052911834963 40.45522978272824" fill="#34ff5a" stroke="none" /><path d="M 107.40779381753099 80.34994680014964 l 1.3047529022689184 -3.461012087238233 a24.698781529637607,24.698781529637607 0 0,0 0.3954483539465116,0.1529679185047058 l -1.363973518708956 3.438104280595489" fill="#ff1202" stroke="none" /><path d="M 107.74402155503746 80.48000691201159 l 7.815881459098062 -19.701126988584782 a42.1948674825538,42.1948674825538 0 0,0 0.6709898931647346,0.2728857481466089 l -8.152925813453237 19.56405398385888" fill="#feff18" stroke="none" /><path d="M 108.07796709384702 80.6158196554323 l 12.70759493260877 -30.493601800758675 a54.03547668423292,54.03547668423292 0 0,0 0.8531556554732224,0.3641614175503477 l -13.229185663252421 30.270965733548927" fill="#74ff27" stroke="none" /><path d="M 108.4095320186766 80.7573450057729 l 8.261028578782849 -18.90285006180222 a41.62916221368292,41.62916221368292 0 0,0 0.652361873089135,0.2917931681247344 l -8.584303854727617 18.758253142767632" fill="#fff917" stroke="none" /><path d="M 108.73861861582097 80.90454125486305 l 4.585581255287618 -10.020322608459747 a32.01972870022011,32.01972870022011 0 0,0 0.49784775235211187,0.2330178859074656 l -4.756917721511234 9.940128490981749" fill="#ff7b0b" stroke="none" /><path d="M 109.06512990194946 81.05736502329252 l 21.432038448023558 -44.784717430289085 a70.64879844818401,70.64879844818401 0 0,0 1.0894709180663986,0.5329148201101948 l -22.197669615352023 44.41020886008167" fill="#3cffa4" stroke="none" /><path d="M 109.71004243097381 81.37971332152246 l 6.909862275652008 -13.250572013054944 a35.9440240678886,35.9440240678886 0 0,0 0.5446566887637732,0.28999900885671137 l -7.1363077802023405 13.13000253647566" fill="#ffb010" stroke="none" /><path d="M 110.02825361518725 81.54914285379988 l 11.595540956256727 -21.33448932651576 a45.282030493586035,45.282030493586035 0 0,0 0.6797820611997947,0.3770636502705128 l -11.960067205612622 21.132292760812103" fill="#d8ff1c" stroke="none" /><line stroke="#e1ed5e" stroke-width="0.3" x1="143.13028292997686" x2="145.6673583964461" y1="26.7553504044142" y2="22.446841604673864" /><path d="M 143.63769802327073 25.89364864446614 a86.0,86.0 0 0,1 29.32050498858742,28.57503671076993" fill="none" id="id110" stroke="none" /><text fill="#e1ed5e" style="font-size:6.75px; font-family:Arial;" text-anchor="middle"><textPath startOffset="20.669276256404974" xlink:href="#id110">February</textPath></text><path d="M 111.27062007382361 82.28071324371311 l 23.270175956086273 -36.584581676459635 a64.35819075409815,64.35819075409815 0 0,0 0.9271084469075676,0.6009404942790014 l -23.894770035250847 36.17972734047674" fill="#34ff5c" stroke="none" /><path d="M 111.8722381534696 82.67804972795209 l 18.078079761319863 -26.37645864172483 a52.97709396326163,52.97709396326163 0 0,0 0.7457280490899554,0.5205760944237126 l -18.52820290158358 26.06223773149599" fill="#80ff26" stroke="none" /><path d="M 112.45986205192187 83.09580414077388 l 11.164431121461746 -15.146695007343103 a39.816665270746995,39.816665270746995 0 0,0 0.5467150677314471,0.4102651791613024 l -11.42279917810396 14.952810800917787" fill="#ffe215" stroke="none" /><path d="M 113.31354834802062 83.75963576809568 l 9.973200927503939 -12.16568351176721 a36.73113448066763,36.73113448066763 0 0,0 0.48419622664761325,0.40393371330498967 l -10.180571488313443 11.992687614550348" fill="#ffba11" stroke="none" /><path d="M 113.59037401385872 83.9905735841838 l 13.242210858736849 -15.599291094526427 a41.46201434558728,41.46201434558728 0 0,0 0.5386518249448987,0.46527461716045687 l -13.508042163444607 15.369672344901248" fill="#fff717" stroke="none" /><path d="M 114.39649973595853 84.71141617570332 l 11.219448945452777 -11.914665982074652 a37.36567444696455,37.36567444696455 0 0,0 0.463205387749729,0.44374028333446225 l -11.422326819067818 11.720313568434609" fill="#ffc312" stroke="none" /><path d="M 114.65682725009322 84.96080404539774 l 12.904935488929734 -13.241600674407955 a39.48992559189786,39.48992559189786 0 0,0 0.4814161916663059,0.4773015480860245 l -13.130343600726004 13.01811911609327" fill="#ffde14" stroke="none" /><path d="M 115.16444852881244 85.47280134310134 l 21.440465238535786 -20.539480695572077 a50.691140377032326,50.691140377032326 0 0,0 0.5965723631161839,0.6335391760525988 l -21.78989343538823 20.16840005957498" fill="#99ff23" stroke="none" /><path d="M 115.6541949942343 86.00192230759917 l 17.699772832054496 -15.82724600863854 a44.744129264395,44.744129264395 0 0,0 0.5070765579872702,0.5769600402296368 l -17.968860454000357 15.521073690597603" fill="#dfff1b" stroke="none" /><path d="M 115.8921839302757 86.27271002978787 l 23.02991692420124 -19.892693728905357 a51.431830988746654,51.431830988746654 0 0,0 0.5713964656408558,0.6731035997689563 l -23.368007953349206 19.494423346686848" fill="#91ff24" stroke="none" /><path d="M 116.7966241395341 87.39550010848427 l 27.014266152424234 -20.27200894411709 a54.77461950021609,54.77461950021609 0 0,0 0.557913356626696,0.7569166186267027 l -27.358281528634755 19.805286016221512" fill="#6cff28" stroke="none" /><path d="M 117.01052211995028 87.68569379921539 l 34.19490559118501 -24.75447461209407 a63.21463705530187,63.21463705530187 0 0,0 0.6287896777505252,0.8844714272448071 l -34.614810367465495 24.16382595813976" fill="#33ff4e" stroke="none" /><path d="M 117.42321728460499 88.27688183743584 l 3.890044422065572 -2.617395494332331 a25.688625041458813,25.688625041458813 0 0,0 0.24303342826033145,0.3679835862035211 l -3.9344022892466275 2.5502320297897514" fill="#ff2003" stroke="none" /><line stroke="#e1ed5e" stroke-width="0.3" x1="172.87174338648825" x2="177.1583165268699" y1="56.24261187166439" y2="53.66864786411523" /><path d="M 173.72905801456457 55.72781907015455 a86.0,86.0 0 0,1 12.242430191666344,42.057860355516425" fill="none" id="id111" stroke="none" /><text fill="#e1ed5e" style="font-size:6.75px; font-family:Arial;" text-anchor="middle"><textPath startOffset="22.145653131862474" xlink:href="#id111">March</textPath></text><path d="M 118.00360718960297 89.18935116829356 l 9.797604421293935 -5.883179946947005 a32.428248277155944,32.428248277155944 0 0,0 0.28247519734909,0.4797046400754754 l -9.897153328772792 5.714124138577973" fill="#ff800b" stroke="none" /><path d="M 118.18653347947321 89.5 l 36.56567462500886 -21.111202087849136 a63.222404175698266,63.222404175698266 0 0,0 0.5345804554636785,0.9445524422944085 l -36.92268844549391 20.48039287545561" fill="#33ff4e" stroke="none" /><path d="M 118.8641267826498 90.77261029715802 l 22.777354445664557 -11.141545447161374 a46.3562992271072,46.3562992271072 0 0,0 0.34352388971213244,0.717832807580208 l -22.9652575933366 10.748900137516062" fill="#cbff1d" stroke="none" /><path d="M 119.0197475246899 91.09779779509293 l 10.537251974824578 -4.931965981261057 a32.63434431419583,32.63434431419583 0 0,0 0.23312660125707607,0.5094236963996651 l -10.620363040936706 4.750353302646708" fill="#ff830c" stroke="none" /><path d="M 119.16976305983485 91.42560881287824 l 4.8815786314760645 -2.1834680306857623 a26.34764832204872,26.34764832204872 0 0,0 0.18112893839220282,0.4144584577609233 l -4.9183414518852375 2.09934750314899" fill="#ff2a04" stroke="none" /><path d="M 119.31412917781788 91.75594674310238 l 4.3132983974004695 -1.8410906012733865 a25.68979292369233,25.68979292369233 0 0,0 0.16964334941550782,0.40708228210430075 l -4.34426759135246 1.7667758097278081" fill="#ff2003" stroke="none" /><path d="M 119.4528033332814 92.08871423366111 l 27.7639858434913 -11.291371338991256 a50.97222008181207,50.97222008181207 0 0,0 0.32268164179021036,0.8133685285610239 l -27.953726160247637 10.813101793216667" fill="#96ff23" stroke="none" /><path d="M 119.71291397450082 92.76114493625339 l 6.606110256012646 -2.425855190169391 a28.037433205243744,28.037433205243744 0 0,0 0.16202943458060381,0.4532251659992952 l -6.646779860637193 2.312095067789179" fill="#ff4206" stroke="none" /><path d="M 119.83427380445688 93.10060997987247 l 6.646779860637193 -2.312095067789179 a28.037433205243744,28.037433205243744 0 0,0 0.1542253465188908,0.45593983293491797 l -6.685490628728449 2.1976535603800995" fill="#ff4206" stroke="none" /><path d="M 119.94978838288452 93.4421083053983 l 20.570079234553674 -6.761793618087174 a42.652944664627505,42.652944664627505 0 0,0 0.2226794148211123,0.697540095337182 l -20.683123365152046 6.407684489058606" fill="#f8ff18" stroke="none" /><path d="M 120.05942366710727 93.78553927170692 l 4.69391683146439 -1.4541874330537983 a25.914012241657147,25.914012241657147 0 0,0 0.12799508157979667,0.4260539984349464 l -4.718188233047814 1.3733958310281285" fill="#ff2403" stroke="none" /><path d="M 120.16314734710363 94.1308016681162 l 14.339964409715224 -4.174154646787497 a35.93513127786954,35.93513127786954 0 0,0 0.1673233963737112,0.5937717050917009 l -14.409506298163517 3.9273750177927833" fill="#ffb010" stroke="none" /><path d="M 120.35273937422433 94.82641323984039 l 4.754097827033133 -1.208473076876885 a25.905288302081484,25.905288302081484 0 0,0 0.10585699359572376,0.43193265765818506 l -4.7741423471451485 1.126684594610605" fill="#ff2403" stroke="none" /><path d="M 120.43855184770803 95.1765574152323 l 7.125025337396012 -1.6814865791872984 a28.320750178398534,28.320750178398534 0 0,0 0.10760420270357068,0.47412397141976764 l -7.15284040165725 1.5589282738285044" fill="#ff4706" stroke="none" /><path d="M 120.51834098615036 95.52812308129327 l 2.45013830136975 -0.5339962390200239 a23.50765421841341,23.50765421841341 0 0,0 0.08254801120071596,0.3950221163118741 l -2.4589440233948325 0.4918576714227453" fill="#ff0000" stroke="none" /><path d="M 120.592083275326 95.88100663000786 l 6.9024171394240215 -1.380676741351102 a28.03914985141831,28.03914985141831 0 0,0 0.09035777293817553,0.4727900495730354 l -6.925101204644354 1.2619841267447522" fill="#ff4206" stroke="none" /><path d="M 120.65975698304385 96.23510406497455 l 4.611220050573872 -0.8403179010363958 a25.68716167094935,25.68716167094935 0 0,0 0.07533088283866185,0.43448851381030096 l -4.624965750904767 0.7610363543055022" fill="#ff2003" stroke="none" /><path d="M 120.77682067341334 96.94652285012252 l 62.330462020240034 -9.160431449632455 a84.0,84.0 0 0,0 0.19742193377914985,1.4284467671996575 l -62.478528470574396 8.089096374232712" fill="#4dd2ff" stroke="none" /><path d="M 120.99303781780057 99.45929381324524 l 4.2234906807937085 -0.10878213818439629 a25.224891369531207,25.224891369531207 0 0,0 0.007433617412217278,0.4329709470710859 l -4.224735729804592 0.03626427514424398" fill="#ff1a02" stroke="none" /><line stroke="#e1ed5e" stroke-width="0.3" x1="184.99686870605535" x2="189.99668451229388" y1="99.2704041080226" y2="99.22748670261217" /><path d="M 185.99683186730306 99.26182062694052 a86.0,86.0 0 0,1 -10.086455211305974,41.156179273409016" fill="none" id="id112" stroke="none" /><text fill="#e1ed5e" style="font-size:6.75px; font-family:Arial;" text-anchor="middle"><textPath startOffset="21.40746469413373" xlink:href="#id112">April</textPath></text><path d="M 120.93736805541906 101.62068470465957 l 13.903303504798433 1.0762036219081794 a34.9448937816804,34.9448937816804 0 0,0 -0.05142952723828504,0.5976890641939462 l -13.882780354862406 -1.314713733477783" fill="#ffa20f" stroke="none" /><path d="M 120.82617615685814 102.69636545807757 l 16.36283305468459 2.1184963342592553 a37.49940399813728,37.49940399813728 0 0,0 -0.08813339110569281,0.6376893144411095 l -16.324055147023685 -2.39907395690045" fill="#ffc412" stroke="none" /><path d="M 120.7213421655516 103.40968896794604 l 5.173945357674805 0.8513707396882693 a26.2435238819521,26.2435238819521 0 0,0 -0.07696248609128226,0.4438991677897296 l -5.158568054091289 -0.9400629403985868" fill="#ff2803" stroke="none" /><path d="M 120.51834098615036 104.47187691870673 l 61.249841773743746 13.349117937328561 a83.6876548214507,83.6876548214507 0 0,0 -0.3179698036411025,1.4010336242088075 l -61.011661108544985 -14.398585895476385" fill="#4dd5ff" stroke="none" /><path d="M 120.16314734710363 105.8691983318838 l 7.026531492414914 2.045320911674762 a28.318161138266404,28.318161138266404 0 0,0 -0.13986970876148547,0.46558077030961453 l -6.990385463649798 -2.1656392855751005" fill="#ff4706" stroke="none" /><path d="M 119.94978838288452 106.5578916946017 l 13.372117468179942 4.395680615792877 a35.076062434461576,35.076062434461576 0 0,0 -0.19294269357229688,0.5704007898765919 l -13.29468935303528 -4.624583080143629" fill="#ffa40f" stroke="none" /><path d="M 119.83427380445688 106.89939002012753 l 3.767906673120826 1.3106735317660194 a24.989359071858594,24.989359071858594 0 0,0 -0.14441449369864778,0.40395304130196635 l -3.7448520093782354 -1.3751615294489072" fill="#ff1602" stroke="none" /><path d="M 119.71291397450082 107.23885506374661 l 9.045503201459018 3.3216340688503325 a30.636097812649712,30.636097812649712 0 0,0 -0.18552245759183691,0.49212036015624255 l -8.987150060052741 -3.476422709200734" fill="#ff6709" stroke="none" /><path d="M 119.4528033332814 107.91128576633889 l 16.82895684312182 6.84419024108144 a39.16746345761486,39.16746345761486 0 0,0 -0.258643567458705,0.6206504060162357 l -16.70898743112663 -7.1320731565389535" fill="#ffda14" stroke="none" /><path d="M 119.0197475246899 108.90220220490707 l 13.270347046262739 6.211192476754409 a35.65199722602843,35.65199722602843 0 0,0 -0.26419953635836685,0.5520754178244788 l -13.161768251944459 -6.438080396643992" fill="#ffac0f" stroke="none" /><line stroke="#e1ed5e" stroke-width="0.3" x1="174.33088141563837" x2="178.70328620479359" y1="141.23008692659167" y2="143.65538615756765" /><path d="M 175.20536237346943 141.71514677278685 a86.0,86.0 0 0,1 -30.301960400862466,31.631185727798858" fill="none" id="id113" stroke="none" /><text fill="#e1ed5e" style="font-size:6.75px; font-family:Arial;" text-anchor="middle"><textPath startOffset="22.145653131862474" xlink:href="#id113">May</textPath></text><path d="M 117.21940702142032 112.02048342749411 l 5.999681708592741 4.188243791360822 a28.31693697255175,28.31693697255175 0 0,0 -0.2816657423545137,0.39619814058892083 l -5.926900867708267 -4.290619158659247" fill="#ff4606" stroke="none" /><path d="M 117.01052211995028 112.31430620078461 l 13.642975688427407 9.876462282137542 a37.842662878699045,37.842662878699045 0 0,0 -0.38545091253922686,0.5229381908506346 l -13.471422756304353 -10.109206782257054" fill="#ffc912" stroke="none" /><path d="M 116.79662413953412 112.60449989151573 l 7.49686002160693 5.625783523168971 a30.37295846748121,30.37295846748121 0 0,0 -0.31652675726229046,0.41434368590175147 l -7.399181286990336 -5.753648122311599" fill="#ff6409" stroke="none" /><path d="M 116.57777611688842 112.89097897827486 l 14.966734561142548 11.638223320229134 a39.959203186717104,39.959203186717104 0 0,0 -0.4257245313182525,0.5378890379974177 l -14.764743599182733 -11.893432302141234" fill="#ffe415" stroke="none" /><path d="M 116.1254893667686 113.45245675266167 l 27.01234078204131 22.534655407570337 a56.177794826610025,56.177794826610025 0 0,0 -0.6241230925347627,0.7352154336707563 l -26.62152312599943 -22.99503762369065" fill="#5dff2a" stroke="none" /><path d="M 115.6541949942343 113.99807769240083 l 16.370790210681875 14.638861553693628 a42.96130778688662,42.96130778688662 0 0,0 -0.4963100973303974,0.5455317376982982 l -16.117082412509596 -14.917730866949599" fill="#f4ff19" stroke="none" /><path d="M 115.41159269507618 114.26474011684316 l 6.880432548446197 6.368425647948172 a30.37535051542938,30.37535051542938 0 0,0 -0.35748050848117424,0.37963191190256 l -6.770096206228763 -6.485599019795229" fill="#ff6409" stroke="none" /><path d="M 115.16444852881244 114.52719865689866 l 15.365774797552591 14.720064668167277 a42.278800223793844,42.278800223793844 0 0,0 -0.5065668651340353,0.5197822297326209 l -15.11082113126775 -14.981669589967636" fill="#fdff18" stroke="none" /><path d="M 114.65682725009322 115.03919595460226 l 3.270414663880606 3.3557335529483243 a25.685782725661582,25.685782725661582 0 0,0 -0.3184150459797709,0.30503441120887953 l -3.212327132035523 -3.411380094462784" fill="#ff2003" stroke="none" /><path d="M 114.39649973595853 115.28858382429668 l 9.90091248185885 10.514425950207954 a35.442341258806856,35.442341258806856 0 0,0 -0.446523253905283,0.413295257609618 l -9.718959456639599 -10.682838953949952" fill="#ffa90f" stroke="none" /><path d="M 114.13192950727249 115.5334660781643 l 4.926993544498522 5.41562898763521 a28.32149593452355,28.32149593452355 0 0,0 -0.362427450013619,0.3240848606407377 l -4.833301067661525 -5.499409378159334" fill="#ff4706" stroke="none" /><path d="M 113.86319453409587 115.77377054828091 l 11.54784890569804 13.139332245298926 a38.49270894404819,38.49270894404819 0 0,0 -0.5000762323548671,0.4319539390472761 l -11.320593193580317 -13.335630316810919" fill="#ffd113" stroke="none" /><path d="M 113.31354834802062 116.24036423190432 l 13.531684492236423 16.506454859406684 a42.3440749910382,42.3440749910382 0 0,0 -0.5660984016073043,0.4560088003315884 l -13.246335320273866 -16.736311953531676" fill="#fcff18" stroke="none" /><path d="M 112.7482090630111 116.68781488649013 l 17.08877332380822 22.369752837858194 a49.150169017953765,49.150169017953765 0 0,0 -0.6748716348027439,0.5064362562972816 l -16.70224870009471 -22.659808121419488" fill="#abff21" stroke="none" /><path d="M 111.8722381534696 117.32195027204791 l 2.650299405766276 3.8668660381703264 a25.68793556881493,25.68793556881493 0 0,0 -0.36587413713131245,0.2461764479058893 l -2.5835289805379604 -3.9117921601333365" fill="#ff2003" stroke="none" /><path d="M 111.5731344415666 117.5232005979908 l 10.744700112800123 16.268845436168984 a40.49676671502132,40.49676671502132 0 0,0 -0.5833739894490501,0.37813597183629144 l -10.463840491094064 -16.45089524970917" fill="#ffeb16" stroke="none" /><line stroke="#e1ed5e" stroke-width="0.3" x1="143.1302829299769" x2="145.66735839644613" y1="173.24464959558577" y2="177.55315839532614" /><path d="M 143.63769802327073 174.10635135553383 a86.0,86.0 0 0,1 -40.68552437913181,11.842963189579606" fill="none" id="id114" stroke="none" /><text fill="#e1ed5e" style="font-size:6.75px; font-family:Arial;" text-anchor="middle"><textPath startOffset="21.407464694133747" xlink:href="#id114">June</textPath></text><path d="M 110.65571695917076 118.09573695890943 l 14.281792943246598 24.25360671579919 a49.1461728907933,49.1461728907933 0 0,0 -0.7306573977305123,0.42184524526510436 l -13.863343077655687 -24.495198858340466" fill="#abff21" stroke="none" /><path d="M 109.71004243097381 118.62028667847754 l 8.79066758910126 16.857264195070126 a40.01165939113334,40.01165939113334 0 0,0 -0.6117454592648104,0.31236159035958083 l -8.499994908122867 -17.005683737102544" fill="#ffe515" stroke="none" /><path d="M 109.06512990194946 118.94263497670748 l 9.904163647920527 20.695892806984304 a43.94367966658738,43.94367966658738 0 0,0 -0.6832432078645707,0.31979232025262866 l -9.54743172618445 -20.862861358807464" fill="#e8ff1a" stroke="none" /><path d="M 107.74402155503746 119.51999308798841 l 5.189832377918284 13.08176784178556 a35.073628173902556,35.073628173902556 0 0,0 -0.5615584117644982,0.2172228573191685 l -4.964501703660257 -13.16893058724277" fill="#ffa40f" stroke="none" /><path d="M 107.407793817531 119.65005319985036 l 6.720320253884006 17.826447895503957 a40.05111411140779,40.05111411140779 0 0,0 -0.6454157858875655,0.23700561651806878 l -6.413315316342314 -17.939184361030748" fill="#ffe515" stroke="none" /><path d="M 106.72888874123015 119.89276391827305 l 3.1605842157155 9.34370563475159 a30.863778564704226,30.863778564704226 0 0,0 -0.5033401137469736,0.1654578929936434 l -2.9997213643207923 -9.396584449147252" fill="#ff6b09" stroke="none" /><path d="M 106.0420521117495 120.11202640906438 l 4.057190150773691 13.505066482342741 a35.10133371749043,35.10133371749043 0 0,0 -0.5785702484933917,0.16841336716327562 l -3.824759889898692 -13.572723543808536" fill="#ffa50f" stroke="none" /><path d="M 105.3480935250658 120.30758222061773 l 1.7933812836218472 6.809760842695718 a28.041949954604693,28.041949954604693 0 0,0 -0.4665575657989138,0.11859710876691318 l -1.6762184245975362 -6.839543183297901" fill="#ff4306" stroke="none" /><path d="M 104.9986988182912 120.39639698878246 l 4.15870560484982 16.96893802955468 a38.471110158163285,38.471110158163285 0 0,0 -0.6427750268776481,0.15169315615746673 l -3.866798424232293 -17.037827329358368" fill="#ffd113" stroke="none" /><path d="M 104.29559338865022 120.5559693870025 l 2.988455872242356 14.300843181883378 a35.60975647343788,35.60975647343788 0 0,0 -0.5994368601308089,0.11990416023454128 l -2.7425225265805886 -14.350036738780782" fill="#ffab0f" stroke="none" /><path d="M 103.94208987418118 120.62667999033965 l 2.8533911216570442 14.930148076829765 a36.20036718271025,36.20036718271025 0 0,0 -0.6113815653526428,0.11141408739874768 l -2.5966748227533443 -14.976930338159876" fill="#ffb310" stroke="none" /><path d="M 103.58742460773223 120.69131181640829 l 1.8884442353631101 10.892044515047651 a32.05454003330106,32.05454003330106 0 0,0 -0.5429771913871957,0.0893466902157061 l -1.7011895409228424 -10.922857203759028" fill="#ff7b0b" stroke="none" /><path d="M 103.2317021107853 120.74984581791261 l 5.4138277893291304 34.76065802550485 a56.17972253583884,56.17972253583884 0 0,0 -0.9541855524980881,0.14023241703310763 l -4.816317131223357 -34.84847151583684" fill="#5dff2a" stroke="none" /><path d="M 101.08105385017728 120.97215588758144 l 0.3622630868169428 7.027807104887026 a28.037137716967795,28.037137716967795 0 0,0 -0.4808692739113652,0.020650595674893066 l -0.241568052304748 -7.032990268987751" fill="#ff4206" stroke="none" /><path d="M 100.72087961077811 120.9876233191556 l 1.0194236435231194 29.679407092413847 a50.69690943384849,50.69690943384849 0 0,0 -0.8700233894152524,0.022408716325911744 l -0.5097869400371233 -29.692533526089804" fill="#99ff23" stroke="none" /><line stroke="#e1ed5e" stroke-width="0.3" x1="101.45913802915013" x2="101.54496967792366" y1="184.9874750549273" y2="189.98673829345242" /><path d="M 101.47630435890484 185.9873277026323 a86.0,86.0 0 0,1 -42.54439059252881,-10.42667462771756" fill="none" id="id115" stroke="none" /><text fill="#e1ed5e" style="font-size:6.75px; font-family:Arial;" text-anchor="middle"><textPath startOffset="22.145653131862474" xlink:href="#id115">July</textPath></text><path d="M 100.36049292484886 120.99690560180557 l 0.2870525562974206 16.719372314618855 a37.72183631557612,37.72183631557612 0 0,0 -0.6475454811462709,0.0055583991516994285 l -2.0478343319736266e-15 -16.72183631557612" fill="#ffc712" stroke="none" /><path d="M 100.0 121.0 l 7.008950072612533e-16 5.723242062521567 a26.723242062521567,26.723242062521567 0 0,0 -0.4587399853601082,-0.00393773104703399 l 0.09824706051125535 -5.722398729668968" fill="#ff2f04" stroke="none" /><path d="M 99.63950707515114 120.99690560180557 l -0.37486969510638235 21.834280393787488 a42.83749819926362,42.83749819926362 0 0,0 -0.7351459052158615,-0.018934750776304715 l 0.7496289143929877 -21.824627925661137" fill="#f6ff19" stroke="none" /><path d="M 99.27912038922189 120.98762331915562 l -0.6248404174472817 18.191546993280266 a39.2022747906958,39.2022747906958 0 0,0 -0.6723642621645607,-0.028874214422712007 l 0.9370304402126811 -18.178140210431724" fill="#ffda14" stroke="none" /><path d="M 98.55909050195518 120.95050786540614 l -1.4485598750185167 21.061742667576723 a42.11149757612509,42.11149757612509 0 0,0 -0.7207703764431833,-0.0557921856071517 l 1.809899246236936 -21.033772714974518" fill="#ffff18" stroke="none" /><path d="M 97.84075906011543 120.88869738790638 l -0.4993260497649303 4.830526579398729 a25.85626539001437,25.85626539001437 0 0,0 -0.4411129337106646,-0.04942762429581226 l 0.5821748850763941 -4.821243194595946" fill="#ff2303" stroke="none" /><path d="M 97.48249496171623 120.84855314841334 l -2.024919525069179 16.769238471294003 a37.891052601603405,37.891052601603405 0 0,0 -0.6450900789036069,-0.08351982586738167 l 2.3124874258635795 -16.732007049226223" fill="#ffc912" stroke="none" /><path d="M 96.76829788921471 120.74984581791261 l -2.64949141515954 17.01163550222285 a38.21672289431101,38.21672289431101 0 0,0 -0.6473594330044508,-0.10652274835172505 l 2.9411283512170545 -16.963646755375454" fill="#ffce13" stroke="none" /><path d="M 96.05791012581884 120.62667999033965 l -1.3372748380544615 6.997187031260205 a28.12382834878337,28.12382834878337 0 0,0 -0.47342248388661873,-0.0946977557472663 l 1.457193807472038 -6.973199878850078" fill="#ff4406" stroke="none" /><path d="M 95.70440661134978 120.55596938700252 l -4.606070461123293 22.04171457275164 a43.51783884833277,43.51783884833277 0 0,0 -0.7299342090425999,-0.15908576350277687 l 4.98376708678503 -21.959397351115147" fill="#eeff19" stroke="none" /><path d="M 95.35216902796893 120.47920084513623 l -3.1156127465264993 13.727964630327376 a35.07707553712197,35.07707553712197 0 0,0 -0.5860675212768215,-0.1383103392422036 l 3.3508124215432087 -13.672458147438943" fill="#ffa40f" stroke="none" /><path d="M 95.00130118170881 120.39639698878247 l -4.904689673276264 20.012807596422178 a41.60505881288758,41.60505881288758 0 0,0 -0.6922184440128443,-0.17595922156889798 l 5.247513410514488 -19.925663143018017" fill="#fff917" stroke="none" /><path d="M 94.6519064749342 120.30758222061772 l -1.1938495519301213 4.533241204784323 a25.68780893098238,25.68780893098238 0 0,0 -0.4254617959729295,-0.11596150443698879 l 1.2714927488377459 -4.5120792062031905" fill="#ff2003" stroke="none" /><path d="M 94.30408787586889 120.21278271476187 l -5.450992234517769 19.34364842978847 a41.09701597043777,41.09701597043777 0 0,0 -0.6773962190076305,-0.19718016687484824 l 5.7822484659070055 -19.247224568611106" fill="#fff216" stroke="none" /><path d="M 93.61358852112213 120.00534299687104 l -4.722464253251347 14.793052011950115 a36.52855616119857,36.52855616119857 0 0,0 -0.5957238053222828,-0.1958262473877259 l 4.975710796221374 -14.709804843160368" fill="#ffb811" stroke="none" /><path d="M 92.93061703081489 119.77432235084164 l -1.5780438997987272 4.414069642912028 a25.687668222279548,25.687668222279548 0 0,0 -0.4139516950061502,-0.15200879623468447 l 1.6535847464589961 -4.386329997668624" fill="#ff2003" stroke="none" /><path d="M 92.59220618246901 119.65005319985036 l -6.910448226560064 18.330784931589225 a40.590098797610636,40.590098797610636 0 0,0 -0.6498817658992755,-0.25138822810024875 l 7.224102254952868 -18.209456815350933" fill="#ffec16" stroke="none" /><path d="M 92.25597844496254 119.51999308798841 l -6.341256452621594 15.984108675913495 a38.196024644124236,38.196024644124236 0 0,0 -0.6073996204840604,-0.24702413784207197 l 6.614710534296095 -15.872897281492131" fill="#ffcd13" stroke="none" /><path d="M 91.59046798132341 119.24265499422711 l -2.905928609815327 6.649333346058193 a28.256587009906564,28.256587009906564 0 0,0 -0.4428030507620865,-0.1980601723784554 l 3.0196450634330483 -6.598469422769883" fill="#ff4606" stroke="none" /><path d="M 90.93487009805054 118.94263497670748 l -15.907013226979208 33.23953968530839 a57.84969563367495,57.84969563367495 0 0,0 -0.8920967149654498,-0.4363692068260766 l 16.47527019120673 -32.96157672838509" fill="#4cff2c" stroke="none" /><path d="M 90.28995756902619 118.62028667847754 l -9.174158458787508 17.59265850286003 a40.84103869824349,40.84103869824349 0 0,0 -0.6188607280321388,-0.32950848020798496 l 9.47480800260621 -17.432579554929468" fill="#ffef16" stroke="none" /><path d="M 89.97174638481275 118.45085714620012 l -3.3632071325879442 6.187922318047875 a28.042836419432543,28.042836419432543 0 0,0 -0.42098415056256283,-0.2335128117929189 l 3.46893547130661 -6.129276590821807" fill="#ff4306" stroke="none" /><line stroke="#e1ed5e" stroke-width="0.3" x1="58.13341422392154" x2="55.67067388415222" y1="173.97424548756322" y2="178.32567169271397" /><path d="M 57.64086615596768 174.84453072859336 a86.0,86.0 0 0,1 -31.369924170532247,-30.572349798747897" fill="none" id="id116" stroke="none" /><text fill="#e1ed5e" style="font-size:6.75px; font-family:Arial;" text-anchor="middle"><textPath startOffset="22.145653131862474" xlink:href="#id116">August</textPath></text><path d="M 89.65649057296885 118.27599006163327 l -9.179705646312023 16.21966029462701 a39.63717724941287,39.63717724941287 0 0,0 -0.5892869185723382,-0.34022496106766714 l 9.456785032744762 -16.05968843628317" fill="#ffe015" stroke="none" /><path d="M 89.03521579738668 117.91015095944536 l -14.695225744324363 24.003546864264603 a49.144625095062125,49.144625095062125 0 0,0 -0.7157232967262515,-0.44666427182332913 l 15.105113169840328 -23.747746795599728" fill="#abff21" stroke="none" /><path d="M 88.1277618465304 117.32195027204791 l -11.681193477455585 17.043210380304167 a41.66207397927562,41.66207397927562 0 0,0 -0.5864530276264576,-0.4093897595206553 l 11.972041596255808 -16.84017580497838" fill="#fff917" stroke="none" /><path d="M 87.83215693770417 117.11559508785305 l -9.870282113747372 13.883787882279236 a38.03473025806646,38.03473025806646 0 0,0 -0.5288982619361796,-0.38288155417089426 l 10.107161386057504 -13.712305556735275" fill="#ffcb12" stroke="none" /><path d="M 87.54013794807813 116.9041958592261 l -11.916366633611576 16.166839942970828 a41.08398634455541,41.08398634455541 0 0,0 -0.5641164126706402,-0.4233234728146109 l 12.192136035192982 -15.959897442892201" fill="#fff216" stroke="none" /><path d="M 86.96720088162412 116.46651593811092 l -18.42707480009313 23.282007044877126 a50.69190020402762,50.69190020402762 0 0,0 -0.6777005681670809,-0.5459076058092859 l 18.824026138615473 -22.96225114527443" fill="#99ff23" stroke="none" /><path d="M 86.68645165197938 116.24036423190432 l -3.2452624345764605 3.9586924978925007 a26.11888411298239,26.11888411298239 0 0,0 -0.3443036897868911,-0.2872303836052906 l 3.3127404585252442 -3.90239993037534" fill="#ff2703" stroke="none" /><path d="M 86.13680546590413 115.77377054828092 l -13.285424029976271 15.116373774461403 a41.12479186837706,41.12479186837706 0 0,0 -0.5262699923639411,-0.4705938723136447 l 13.542959049163583 -14.886084372264376" fill="#fff316" stroke="none" /><path d="M 85.86807049272751 115.53346607816431 l -14.344659576595236 15.767293689173112 a42.316116171785225,42.316116171785225 0 0,0 -0.5331230729844736,-0.4934507572890917 l 14.613212420893676 -15.518725185751643" fill="#fcff18" stroke="none" /><path d="M 85.60350026404147 115.28858382429668 l -10.214222728751654 10.847150574976814 a35.89936312560932,35.89936312560932 0 0,0 -0.44502818864325094,-0.4263269377753349 l 10.39892340326022 -10.670211506895896" fill="#ffaf10" stroke="none" /><path d="M 85.08716467003676 114.78537596483092 l -24.982482714580527 24.768958504343203 a56.17990545715253,56.17990545715253 0 0,0 -0.6731240820532973,-0.6906846071817463 l 25.403993597784634 -24.33645120509372" fill="#5dff2a" stroke="none" /><path d="M 84.83555147118756 114.52719865689866 l -10.164243313767123 9.737115170103214 a35.07562623748279,35.07562623748279 0 0,0 -0.41279697155435685,-0.43837607875345086 l 10.329896119057734 -9.561197631405273" fill="#ffa40f" stroke="none" /><path d="M 84.3458050057657 113.99807769240083 l -15.805267476303628 14.133167637426368 a42.202662744690755,42.202662744690755 0 0,0 -0.4782746097487285,-0.5441887102348911 l 16.04555315001095 -13.859766649380177" fill="#feff18" stroke="none" /><path d="M 84.1078160697243 113.72728997021213 l -12.843679187489984 11.094064180516611 a37.971692759197154,37.971692759197154 0 0,0 -0.42185725493134857,-0.49694678556414823 l 13.032231005928445 -10.871950612502909" fill="#ffca12" stroke="none" /><path d="M 83.8745106332314 113.45245675266167 l -12.993906571336934 10.839979006110921 a37.921783382302195,37.921783382302195 0 0,0 -0.41272115296042067,-0.5034526990909416 l 13.178074543535987 -10.615324025321485" fill="#ffca12" stroke="none" /><path d="M 83.64595745247003 113.17365903436017 l -11.126144595510917 8.96243450769226 a35.28692849652751,35.28692849652751 0 0,0 -0.37594621258209965,-0.47499575840366914 l 11.278357238734579 -8.77011880537391" fill="#ffa70f" stroke="none" /><path d="M 83.20337586046588 112.60449989151573 l -13.18961172242778 9.897730528670788 a37.49032828680454,37.49032828680454 0 0,0 -0.3818621669374613,-0.5180693682032919 l 13.357575908949071 -9.669854851198616" fill="#ffc412" stroke="none" /><path d="M 82.98947788004972 112.3143062007846 l -8.859349408583924 6.413485758270264 a31.937132691656977,31.937132691656977 0 0,0 -0.3176754674063019,-0.44685032849567696 l 8.968139974520186 -6.260458203065083" fill="#ff790b" stroke="none" /><path d="M 82.78059297857968 112.02048342749411 l -18.205120276828744 12.708587834118493 a43.20213073178576,43.20213073178576 0 0,0 -0.41928750640876145,-0.611753002409322 l 18.42059752005283 -12.394200096639121" fill="#f1ff19" stroke="none" /><path d="M 82.576782715395 111.72311816256416 l -14.20695379622943 9.559072550306137 a38.123475236943406,38.123475236943406 0 0,0 -0.3606763253805482,-0.5461099266150052 l 14.368954560530703 -9.313782745352071" fill="#ffcc13" stroke="none" /><path d="M 82.37810715431573 111.42229804090323 l -18.014937526759375 11.677064854544987 a42.46839112999139,42.46839112999139 0 0,0 -0.39128011184596734,-0.6151573257209982 l 18.212735330231233 -11.366093854145317" fill="#faff18" stroke="none" /><path d="M 82.18462484594161 111.11811171558189 l -19.20202942902063 11.983486539665094 a43.6345285755924,43.6345285755924 0 0,0 -0.3911150539910747,-0.638857047257003 l 19.404912447467108 -11.652092376283536" fill="#ecff1a" stroke="none" /><line stroke="#e1ed5e" stroke-width="0.3" x1="26.387840678322732" x2="22.057713659400548" y1="142.50000000000003" y2="145.00000000000006" /><path d="M 25.521815274538298 143.00000000000003 a86.0,86.0 0 0,1 -11.493303480769221,-40.785679425670985" fill="none" id="id117" stroke="none" /><text fill="#e1ed5e" style="font-size:6.75px; font-family:Arial;" text-anchor="middle"><textPath startOffset="21.40746469413373" xlink:href="#id117">September</textPath></text><path d="M 81.81346652052679 110.50000000000001 l -22.544029070215124 13.015801252307467 a47.03160250461491,47.03160250461491 0 0,0 -0.39767825687602787,-0.7026593751053393 l 22.76414069211253 -12.626885107103005" fill="#c3ff1e" stroke="none" /><path d="M 81.4637452351635 109.86951160357371 l -18.35046310415407 9.77058800901723 a41.789513851431714,41.789513851431714 0 0,0 -0.3317130838330123,-0.6361035762593602 l 18.515484256962033 -9.454138189653367" fill="#fffb17" stroke="none" /><path d="M 81.29705330413844 109.54985784667822 l -16.46739539311911 8.40836942256425 a39.48988337928701,39.48988337928701 0 0,0 -0.3030944204919936,-0.6063918758870739 l 16.60930972682284 -8.124445690513424" fill="#ffde14" stroke="none" /><path d="M 81.1358732173502 109.22738970284198 l -12.744934684852721 6.234186211183007 a35.18796806582487,35.18796806582487 0 0,0 -0.2607608429184089,-0.5448898710827899 l 12.850074785731042 -6.014483838035113" fill="#ffa60f" stroke="none" /><path d="M 80.9802524753101 108.90220220490708 l -17.851350369311564 8.355333340359111 a40.70995447068401,40.70995447068401 0 0,0 -0.2908155050307602,-0.6354843623346954 l 17.99215033919738 -8.047659995809726" fill="#ffee16" stroke="none" /><path d="M 80.68587082218212 108.24405325689762 l -32.35462977941686 13.810267527622173 a56.17876571665958,56.17876571665958 0 0,0 -0.3709782328924004,-0.890212709058047 l 32.58693385684575 -13.252822309122845" fill="#5dff2a" stroke="none" /><path d="M 80.5471966667186 107.91128576633889 l -10.584018414542012 4.304428148429263 a32.42582808746721,32.42582808746721 0 0,0 -0.20527297863183572,-0.5174220003865745 l 10.656350068139973 -4.122105130829123" fill="#ff800b" stroke="none" /><path d="M 80.28708602549918 107.23885506374661 l -15.727575364454744 5.775383523445956 a37.754452592892875,37.754452592892875 0 0,0 -0.21818447365511837,-0.6103008045838482 l 15.824400008153805 -5.504547762481186" fill="#ffc812" stroke="none" /><path d="M 80.16572619554312 106.89939002012753 l -19.134925426183692 6.656120351208962 a41.25954859308048,41.25954859308048 0 0,0 -0.2269561600878151,-0.6709555598328069 l 19.246367007843876 -6.326663116901994" fill="#fff417" stroke="none" /><path d="M 80.05021161711548 106.5578916946017 l -20.83162157581216 6.847767780549832 a42.928255312591084,42.928255312591084 0 0,0 -0.22411673678011873,-0.7020424859021811 l 20.94610302836953 -6.48915626095626" fill="#f5ff19" stroke="none" /><path d="M 79.83685265289637 105.86919833188381 l -21.648195921450412 6.3014743285463295 a43.54668413241359,43.54668413241359 0 0,0 -0.20276478283902744,-0.7195406825831746 l 21.753179196364016 -5.928925722060159" fill="#edff1a" stroke="none" /><path d="M 79.73907114497094 105.5222062557868 l -13.576055681761042 3.7002143461020145 a35.07127833856524,35.07127833856524 0 0,0 -0.15332915586216236,-0.5822157793043651 l 13.637574318427937 -3.4666180624248466" fill="#ffa40f" stroke="none" /><path d="M 79.56144815229197 104.8234425847677 l -14.018624332330882 3.3083571716950257 a35.40371671987912,35.40371671987912 0 0,0 -0.13451581213026648,-0.5927014880789684 l 14.073351006018815 -3.0672213496770313" fill="#ffa90f" stroke="none" /><path d="M 79.48165901384964 104.47187691870673 l -21.51059915468215 4.68813496823669 a43.015550991828846,43.015550991828846 0 0,0 -0.15105072382326848,-0.722832394471905 l 21.587907589329788 -4.318186122479376" fill="#f4ff19" stroke="none" /><path d="M 79.407916724674 104.11899336999214 l -8.99946524556326 1.8001450938364514 a30.177739213170334,30.177739213170334 0 0,0 -0.09724950014749435,-0.5088504784989132 l 9.02904103799291 -1.6453920503042236" fill="#ff6108" stroke="none" /><path d="M 79.34024301695615 103.76489593502545 l -41.60427612542903 7.581685021409523 a63.28945187259832,63.28945187259832 0 0,0 -0.18560440211382953,-1.070516868942084 l 41.72829534503509 -6.866375119546847" fill="#33ff4f" stroke="none" /><path d="M 79.22317932658666 103.0534771498775 l -21.041590465524703 3.092389191469327 a42.26761388191859,42.26761388191859 0 0,0 -0.09933992939046199,-0.7187742429389283 l 21.091574911470378 -2.730726640330313" fill="#fdff18" stroke="none" /><path d="M 79.13060592940153 102.33845913500099 l -22.699158532484848 2.5434880594787903 a43.84121558918419,43.84121558918419 0 0,0 -0.07738518917078775,-0.7486315070428808 l 22.7394761141373 -2.1534520301529776" fill="#eaff1a" stroke="none" /><path d="M 79.0935383218832 101.97986365728391 l -19.897857577271488 1.8843478002921321 a40.986883268730175,40.986883268730175 0 0,0 -0.06032171803557285,-0.7010298001808812 l 19.927272918004803 -1.5424969527355887" fill="#fff116" stroke="none" /><path d="M 79.06263194458094 101.62068470465958 l -37.88278333877242 2.932367017887445 a58.99610571913873,58.99610571913873 0 0,0 -0.06949190296088012,-1.0103970176749428 l 37.927539202898366 -2.281626576058159" fill="#40ff2d" stroke="none" /><path d="M 79.00696218219943 100.54070618675478 l -13.438500919753306 0.34612811404831495 a34.442957696933554,34.442957696933554 0 0,0 -0.010150123792939319,-0.5911938250003411 l 13.44246247514491 -0.11538737307892141" fill="#ff9c0e" stroke="none" /><line stroke="#e1ed5e" stroke-width="0.3" x1="15.003131293944662" x2="10.003315487706104" y1="100.72959589197737" y2="100.7725132973878" /><path d="M 14.003168132696942 100.73817937305945 a86.0,86.0 0 0,1 10.791469493833604,-42.45332614584628" fill="none" id="id118" stroke="none" /><text fill="#e1ed5e" style="font-size:6.75px; font-family:Arial;" text-anchor="middle"><textPath startOffset="22.145653131862435" xlink:href="#id118">October</textPath></text><path d="M 79.00077361379809 100.18025310272382 l -42.213743227285086 0.3623542150726389 a63.21529838620519,63.21529838620519 0 0,0 0.0,-1.0852146355928973 l 42.213743227285086 0.36235421507262333" fill="#33ff4e" stroke="none" /><path d="M 79.00696218219943 99.45929381324524 l -17.050688382992064 -0.43916524979028776 a38.05634311482165,38.05634311482165 0 0,0 0.0224266265619606,-0.6529267627556152 l 17.040637069433252 0.7317982771100415" fill="#ffcc13" stroke="none" /><path d="M 79.06263194458094 98.37931529534042 l -14.442532498795623 -1.1179433563660766 a35.48573582276064,35.48573582276064 0 0,0 0.052225501913640615,-0.6069394964724979 l 14.42121337418424 1.365703900214255" fill="#ffaa0f" stroke="none" /><path d="M 79.13060592940154 97.66154086499901 l -22.154185086151188 -2.482422648111285 a43.292831561632084,43.292831561632084 0 0,0 0.08909646952406307,-0.7378465790379404 l 22.108306530367457 2.8623629040726617" fill="#f0ff19" stroke="none" /><path d="M 79.17382384314186 97.30363454192245 l -15.353636812384115 -1.987835675880792 a36.48178458837679,36.48178458837679 0 0,0 0.08574171977562396,-0.6203843721064742 l 15.317250576053283 2.2511083561873333" fill="#ffb711" stroke="none" /><path d="M 79.22317932658666 96.9465228501225 l -11.148201773110172 -1.6384017512349829 a32.267952922888284,32.267952922888284 0 0,0 0.0852465657102129,-0.5473441036196389 l 11.118433715261691 1.829534036786072" fill="#ff7e0b" stroke="none" /><path d="M 79.2786578344484 96.59031103205396 l -21.307087022668817 -3.506073061282616 a42.593621875513,42.593621875513 0 0,0 0.12491123699382042,-0.7204548211108605 l 21.243760968182762 3.8713209153140693" fill="#f9ff18" stroke="none" /><path d="M 79.407916724674 95.88100663000787 l -35.76613114389444 -7.154227917701445 a57.47463658627286,57.47463658627286 0 0,0 0.20182434625758858,-0.9658025580783537 l 35.63804908681249 7.767146927065208" fill="#50ff2b" stroke="none" /><path d="M 79.48165901384962 95.52812308129327 l -4.580384909534222 -0.9982735723889367 a25.687907427074364,25.687907427074364 0 0,0 0.0976007619996574,-0.4300469659196427 l 4.562573285976902 1.0767548722475875" fill="#ff2003" stroke="none" /><path d="M 79.64726062577567 94.8264132398404 l -22.404466567917513 -5.695127789579623 a44.116976504996835,44.116976504996835 0 0,0 0.19287631039283243,-0.7323827665604623 l 22.303400776719958 6.078891060512871" fill="#e6ff1a" stroke="none" /><path d="M 79.73907114497095 94.47779374421319 l -11.065169118851246 -3.015861047964367 a32.46880052531249,32.46880052531249 0 0,0 0.15118325123307894,-0.5364960239360532 l 11.011767375543586 3.2053649958034334" fill="#ff810b" stroke="none" /><path d="M 79.94057633289273 93.78553927170692 l -22.657312207670234 -7.019293238924192 a44.71970223358315,44.71970223358315 0 0,0 0.23346939355882457,-0.7313395500529852 l 22.533478098334154 7.407201822668569" fill="#dfff1b" stroke="none" /><path d="M 80.05021161711548 93.44210830539832 l -40.110243601005365 -13.185033762320586 a63.22175691566524,63.22175691566524 0 0,0 0.3477635522651185,-1.0281011487381557 l 39.87799462716788 13.871636585532903" fill="#33ff4e" stroke="none" /><path d="M 80.28708602549916 92.7611449362534 l -24.124503097544796 -8.858851696604878 a46.69962846202037,46.69962846202037 0 0,0 0.28279808655404925,-0.7501555230184662 l 23.96887432717631 9.271675499817489" fill="#c7ff1e" stroke="none" /><path d="M 80.5471966667186 92.08871423366112 l -11.735692879545468 -4.772804127270795 a33.669102043961416,33.669102043961416 0 0,0 0.22233496624578447,-0.5335229807873836 l 11.652032068763205 4.973559617499442" fill="#ff910d" stroke="none" /><path d="M 80.9802524753101 91.09779779509293 l -12.936262586627882 -6.054824080732017 a35.28312936155101,35.28312936155101 0 0,0 0.26146603679720154,-0.5463634550665062 l 12.830417291870775 6.27600003786361" fill="#ffa70f" stroke="none" /><path d="M 81.1358732173502 90.77261029715801 l -4.209781400388332 -2.0592150377661147 a25.686429985694616,25.686429985694616 0 0,0 0.1971495721130819,-0.39443120948886745 l 4.173811915063506 2.1311781034187525" fill="#ff2003" stroke="none" /><path d="M 81.29705330413844 90.45014215332179 l -19.503675353921828 -9.958715604901366 a42.899072327623465,42.899072327623465 0 0,0 0.34052043835596546,-0.6529928398503428 l 19.32984684659092 10.292054687856195" fill="#f5ff19" stroke="none" /><path d="M 81.46374523516351 90.13048839642627 l -4.137444532154231 -2.2029561708820773 a25.6873727340036,25.6873727340036 0 0,0 0.21058098439631262,-0.38744529305864217 l 4.099018198142568 2.2736562974153394" fill="#ff2003" stroke="none" /><path d="M 81.63589988554816 89.8137432299009 l -5.1981485559269585 -2.8833253788527604 a26.944267292932068,26.944267292932068 0 0,0 0.22782870834146357,-0.4025514975141688 l 5.147886482564126 2.9721336464660344" fill="#ff3304" stroke="none" /><line stroke="#e1ed5e" stroke-width="0.3" x1="26.387840678322718" x2="22.05771365940052" y1="57.49999999999999" y2="54.99999999999999" /><path d="M 25.521815274538284 56.99999999999999 a86.0,86.0 0 0,1 29.574782752854787,-30.34633250058573" fill="none" id="id119" stroke="none" /><text fill="#e1ed5e" style="font-size:6.75px; font-family:Arial;" text-anchor="middle"><textPath startOffset="21.40746469413373" xlink:href="#id119">November</textPath></text><path d="M 82.18462484594161 88.88188828441811 l -52.7721363289418 -32.93371607958728 a83.20553052206279,83.20553052206279 0 0,0 0.7666094340429133,-1.2052373607579945 l 52.19900920327299 33.83476711502395" fill="#4cd9ff" stroke="none" /><path d="M 82.78059297857968 87.97951657250589 l -6.138838105033044 -4.285385763506537 a28.48664573903896,28.48664573903896 0 0,0 0.28335381849574937,-0.39857263108513585 l 6.064369188007323 4.390135621301193" fill="#ff4906" stroke="none" /><path d="M 82.98947788004972 87.6856937992154 l -17.143853055267286 -12.410827515765572 a42.16460104057436,42.16460104057436 0 0,0 0.4294725241729938,-0.5826619616271523 l 16.928278511510474 12.703295786661588" fill="#feff18" stroke="none" /><path d="M 83.42222388311158 87.10902102172516 l -19.22126518963661 -14.946572070244564 a45.34865606437758,45.34865606437758 0 0,0 0.48314365175673274,-0.6104362209367623 l 18.961855107238318 15.274328235096009" fill="#d7ff1c" stroke="none" /><path d="M 83.8745106332314 86.54754324733833 l -16.627910062710328 -13.871593966427522 a42.65429546817471,42.65429546817471 0 0,0 0.4738799534523337,-0.5582293936126547 l 16.38733554575088 14.154990142489734" fill="#f8ff18" stroke="none" /><path d="M 84.10781606972428 86.27271002978789 l -5.537456214819012 -4.783122791157815 a28.317218389957418,28.317218389957418 0 0,0 0.32091355601324495,-0.3651407174541205 l 5.454531594847174 4.877475786423236" fill="#ff4606" stroke="none" /><path d="M 84.34580500576568 86.00192230759919 l -12.009239650971141 -10.738736148544893 a37.11031629306272,37.11031629306272 0 0,0 0.42871657405631347,-0.4712346149776314 l 11.823125376072962 10.943308339080183" fill="#ffbf11" stroke="none" /><path d="M 84.83555147118756 85.47280134310135 l -5.285876358965235 -5.063749980528013 a28.319976280532952,28.319976280532952 0 0,0 0.339318086822776,-0.34817024937208235 l 5.1981714709916576 5.153742921967826" fill="#ff4706" stroke="none" /><path d="M 85.34317274990677 84.96080404539775 l -43.018435407462505 -44.14070444537121 a82.63592762212343,82.63592762212343 0 0,0 1.0244002674324928,-0.9813522833287901 l 42.254362654164716 44.87266885900557" fill="#4bdfff" stroke="none" /><path d="M 86.40962598614128 83.9905735841838 l -15.055301859596085 -17.73510773458614 a44.26362311508967,44.26362311508967 0 0,0 0.5834908067257626,-0.48676878354030256 l 14.748636718708413 17.990938702038324" fill="#e4ff1a" stroke="none" /><path d="M 86.96720088162412 83.53348406188908 l -2.9128091428001297 -3.6802391979606224 a25.69346542083628,25.69346542083628 0 0,0 0.3481954641251535,-0.27075889894515637 l 2.849203734039732 3.7296991485265836" fill="#ff2003" stroke="none" /><path d="M 87.25179093698888 83.31218511350988 l -19.18826932238608 -25.11806049472352 a52.60864822489271,52.60864822489271 0 0,0 0.7223593558615937,-0.5420719274870608 l 18.754256977613732 25.443751449474583" fill="#84ff25" stroke="none" /><path d="M 87.83215693770416 82.88440491214696 l -12.678038937622807 -17.833249480080333 a42.88052692059004,42.88052692059004 0 0,0 0.6036044881324722,-0.42136281100340867 l 12.37003935831657 18.04825710688887" fill="#f5ff19" stroke="none" /><path d="M 88.12776184653039 82.6780497279521 l -4.141046086521823 -6.041909996896967 a28.324816659910418,28.324816659910418 0 0,0 0.4034313239024496,-0.2714465992895041 l 4.036718474522384 6.112106270243581" fill="#ff4706" stroke="none" /><path d="M 88.4268655584334 82.4767994020092 l -13.095005362169054 -19.82750714178965 a44.76150678919491,44.76150678919491 0 0,0 0.6448094726455303,-0.41795770980179736 l 12.752710257266498 20.049378693295356" fill="#deff1b" stroke="none" /><path d="M 89.03521579738668 82.08984904055464 l -15.606934313566985 -25.492754294563465 a50.8907497428716,50.8907497428716 0 0,0 0.7489839876073708,-0.44974336450033453 l 15.16701756940218 25.756911659599723" fill="#97ff23" stroke="none" /><line stroke="#e1ed5e" stroke-width="0.3" x1="56.869717070023135" x2="54.33264160355391" y1="26.7553504044142" y2="22.446841604673864" /><path d="M 56.362301976729285 25.89364864446614 a86.0,86.0 0 0,1 42.16139366436587,-11.88097634709845" fill="none" id="id120" stroke="none" /><text fill="#e1ed5e" style="font-size:6.75px; font-family:Arial;" text-anchor="middle"><textPath startOffset="22.145653131862474" xlink:href="#id120">December</textPath></text><path d="M 89.65649057296885 81.72400993836675 l -5.546148108919051 -9.7995122868123 a32.26011544814047,32.26011544814047 0 0,0 0.4842947088467323,-0.26863011124792624 l 5.377109211916216 9.893275313493373" fill="#ff7e0b" stroke="none" /><path d="M 89.97174638481275 81.54914285379989 l -10.443233674767578 -19.21437371564969 a42.869002877827995,42.869002877827995 0 0,0 0.6495902938953778,-0.34587024318047443 l 10.111854565085638 19.39081442655274" fill="#f6ff19" stroke="none" /><path d="M 90.61103034731259 81.2157712731953 l -5.766253976540135 -11.53637061348624 a33.89719085125415,33.89719085125415 0 0,0 0.5227265636184171,-0.25569175642791386 l 5.567367163659664 11.633656120011368" fill="#ff940d" stroke="none" /><path d="M 90.93487009805054 81.0573650232925 l -2.0230957100341467 -4.227491935871586 a25.686641048748864,25.686641048748864 0 0,0 0.399379914530835,-0.18692996587450397 l 1.9502270816317893 4.261598133316633" fill="#ff2003" stroke="none" /><path d="M 91.5904679813234 80.7573450057729 l -24.72799493263612 -56.582491645307314 a82.74991574228866,82.74991574228866 0 0,0 1.3065223615592902,-0.5576767055277244 l 23.753037495906398 56.99864300049444" fill="#4bdeff" stroke="none" /><path d="M 93.27111125876988 80.10723608172694 l -5.925684555164535 -17.518233462200968 a39.49330260076586,39.49330260076586 0 0,0 0.6440741979028024,-0.21171998178976617 l 5.624087619613972 17.617374365392763" fill="#ffde14" stroke="none" /><path d="M 93.61358852112211 79.99465700312896 l -7.461032740149914 -23.371578792133988 a45.533603583381634,45.533603583381634 0 0,0 0.7466629958594291,-0.23131810474927927 l 7.058729111418869 23.496213484689907" fill="#d5ff1c" stroke="none" /><path d="M 93.95794788825049 79.88797359093562 l -8.544448570651614 -28.44169036040949 a50.697430056048965,50.697430056048965 0 0,0 0.8356384672325837,-0.2432421790858976 l 8.054950091037407 28.584176233797905" fill="#99ff23" stroke="none" /><path d="M 94.30408787586887 79.78721728523814 l -4.400722744343007 -15.616612525054453 a37.22482503542844,37.22482503542844 0 0,0 0.6165469759178314,-0.1680426199490225 l 4.131994367490497 15.689855639147614" fill="#ffc111" stroke="none" /><path d="M 94.6519064749342 79.69241777938228 l -3.5836843885918657 -13.607833339671817 a35.071813031636005,35.071813031636005 0 0,0 0.5835193252496583,-0.148328330643893 l 3.349559770116829 13.667346902150973" fill="#ffa40f" stroke="none" /><path d="M 95.00130118170881 79.60360301121753 l -2.749288536729357 -11.218035426869413 a32.55001758858785,32.55001758858785 0 0,0 0.5438454555731428,-0.1283460467008593 l 2.556310927416308 11.263577617216505" fill="#ff820c" stroke="none" /><path d="M 95.70440661134978 79.44403061299748 l -4.054113139988207 -19.40039898032078 a40.81946805409915,40.81946805409915 0 0,0 0.6871345436133367,-0.13744615304791485 l 3.7204821108438937 19.46713453003156" fill="#ffef16" stroke="none" /><path d="M 96.05791012581881 79.37332000966035 l -6.638578716219152 -34.73584903960984 a56.36452934614007,56.36452934614007 0 0,0 0.9519305151818608,-0.17347345034001938 l 6.041313467486253 34.844690663881224" fill="#5cff2a" stroke="none" /><path d="M 97.12497278360702 79.19773525538626 l -2.140233718936076 -15.485665033986887 a36.63286352260887,36.63286352260887 0 0,0 0.6236695789038288,-0.08074651328906433 l 1.8740863181414533 15.520123143476347" fill="#ffb911" stroke="none" /><path d="M 97.48249496171623 79.15144685158666 l -3.2297515933393437 -26.74697636188714 a47.94127019756172,47.94127019756172 0 0,0 0.8178874258781867,-0.0916459920195685 l 2.7701282658603574 26.79847811441368" fill="#b9ff1f" stroke="none" /><path d="M 98.5590905019552 79.04949213459386 l -0.9867547747141124 -14.347197861438609 a35.381090760463536,35.381090760463536 0 0,0 0.6062897779936189,-0.03647288749376315 l 0.7403206445880097 14.362022726757065" fill="#ffa80f" stroke="none" /></svg>