<?xml version="1.0" encoding="utf-8" ?>
<svg baseProfile="full" height="200mm" version="1.1" viewBox="0,0,200,200" width="200mm" xmlns="http://www.w3.org/2000/svg" xmlns:ev="http://www.w3.org/2001/xml-events" xmlns:xlink="http://www.w3.org/1999/xlink"><defs /><rect fill="#1a1a1a" height="200" width="200" x="0" y="0" /><text alignment-baseline="middle" fill="#e1ed5e" style="dominant-baseline: central; font-size:9.0px; font-family:Arial;" text-anchor="middle" x="100.0" y="100.0">2025</text><line stroke="#e1ed5e" stroke-width="0.3" x1="100.0" x2="100.0" y1="15.0" y2="10.0" /><path d="M 100.0 14.0 a86.0,86.0 0 0,1 42.46469731375804,11.215312516191453" fill="none" id="id121" stroke="none" /><text fill="#e1ed5e" style="font-size:6.75px; font-family:Arial;" text-anchor="middle"><textPath startOffset="22.20632615414155" xlink:href="#id121">January</textPath></text><path d="M 100.0 79.0 l 0.0 -35.558473867522046 a56.558473867522046,56.558473867522046 0 0,0 0.9735611543121258,0.008379748219390293 l -0.6120806750395974 35.553205495911214" fill="#54ff2b" stroke="none" /><path d="M 100.36148047927253 79.00311137660856 l 0.33135323367347863 -19.246922977540084 a40.24977503943426,40.24977503943426 0 0,0 0.6926284113642849,0.01788854841268117 l -0.6626082802326313 19.238367636985043" fill="#fff216" stroke="none" /><path d="M 100.72285384407766 79.0124445844662 l 0.6120696101364158 -17.771012724284674 a38.78155005769577,38.78155005769577 0 0,0 0.6669672541661369,0.028721012967281658 l -0.9178776966918842 17.757843984793197" fill="#ffe015" stroke="none" /><path d="M 101.08401301168833 79.027996857942 l 1.972738419209456 -38.165848453869316 a59.21679846709224,59.21679846709224 0 0,0 1.0175080111020558,0.06137886192352471 l -2.629408479151124 38.12623632256549" fill="#3aff2e" stroke="none" /><path d="M 101.44485096284872 79.0497635885617 l 3.048973560196714 -44.20990021863872 a65.31491303289188,65.31491303289188 0 0,0 1.1209588303809388,0.08700797939420914 l -3.809522579939994 44.15086697705605" fill="#36ff6b" stroke="none" /><path d="M 101.80526077348638 79.07773832637324 l 1.0112405636725152 -11.719880030009339 a32.76342617588211,32.76342617588211 0 0,0 0.5614635157682734,0.053317726160853715 l -1.2128292065310327 11.700736759333306" fill="#ff920d" stroke="none" /><path d="M 102.16513564639614 79.11191278185805 l 1.9490926160698288 -18.803817963308447 a39.904563788230064,39.904563788230064 0 0,0 0.6826213330786824,0.07670046045159504 l -2.2724806526582366 18.767481549386254" fill="#ffee16" stroke="none" /><path d="M 102.52436894288641 79.15227682838746 l 2.9061317044656447 -24.000544550223687 a45.17585035093848,45.17585035093848 0 0,0 0.7711846179973856,0.10012189656279526 l -3.3188310509708763 23.946964330496755" fill="#d1ff1c" stroke="none" /><path d="M 102.88285421437855 79.19881850522331 l 2.354524010679675 -16.98902463942842 a38.15140640052509,38.15140640052509 0 0,0 0.6497203032904998,0.09575188353924693 l -2.6466132943988305 16.945978271728205" fill="#ffd814" stroke="none" /><path d="M 103.2404852339499 79.25152402106235 l 0.5446099499897527 -3.4870785235701227 a24.529350737341336,24.529350737341336 0 0,0 0.4166144285897858,0.06874495040748622 l -0.6045535847184136 3.477187310223012" fill="#ff1f03" stroke="none" /><path d="M 103.59715602781102 79.31037775812273 l 8.335831140347397 -47.94487534943393 a69.66412593557129,69.66412593557129 0 0,0 1.1796620507995759,0.2155756995735539 l -9.159888312249873 47.794284168509634" fill="#3bff9c" stroke="none" /><path d="M 103.95276090670814 79.375362276772 l 6.249134338825406 -32.6066096240045 a54.20004022824234,54.20004022824234 0 0,0 0.9147768983391513,0.18349564003258062 l -6.809477646631683 32.49421002789471" fill="#6dff28" stroke="none" /><path d="M 104.307194497241 79.44645832069477 l 0.7495115666851816 -3.5766012505014726 a24.65429118895629,24.65429118895629 0 0,0 0.41461153877226103,0.09061802351434936 l -0.8109658296109705 3.5631697288912525" fill="#ff2103" stroke="none" /><path d="M 104.66035177308747 79.52364482259891 l 4.659860759905126 -20.474197795124365 a41.99778744667111,41.99778744667111 0 0,0 0.7035155630343608,0.16649940409401337 l -5.01160000990201 20.39095247888948" fill="#f7ff19" stroke="none" /><path d="M 105.01212808612495 79.60689891045804 l 4.935334685915141 -20.08064786676347 a41.678248165909736,41.678248165909736 0 0,0 0.6952152317951351,0.1772258421974342 l -5.280258806395301 19.99271902839717" fill="#fbff18" stroke="none" /><path d="M 105.36241919743992 79.69619591428918 l 5.821690728270264 -22.042750415862617 a43.79857295603476,43.79857295603476 0 0,0 0.7272692780361245,0.19879016644341044 l -6.2002578955300995 21.939273708592914" fill="#e1ff1b" stroke="none" /><path d="M 105.71112130821622 79.79150937346287 l 4.126591699475486 -14.601719203271934 a36.17362721123003,36.17362721123003 0 0,0 0.5977429763201354,0.17449756597949814 l -4.377324893519049 14.528523308373732" fill="#ffbe11" stroke="none" /><path d="M 106.0581310904928 79.89281104454417 l 10.09655226650732 -33.5108767355486 a55.99884608462751,55.99884608462751 0 0,0 0.9205533704635496,0.2860204132272208 l -10.671891009681588 33.33211618743886" fill="#5aff2a" stroke="none" /><path d="M 106.40334571778207 80.00007090966166 l 0.998730717465754 -3.1193917070865904 a24.275372905220145,24.275372905220145 0 0,0 0.3968644054682413,0.13083995482667207 l -1.0522779451764128 3.101738028000682" fill="#ff1c02" stroke="none" /><path d="M 106.74666289553966 80.11325718540242 l 5.436579489634019 -16.025086739244873 a37.92216893744508,37.92216893744508 0 0,0 0.6163580334906061,0.21503521537763692 l -5.7116195271878984 15.929130670695027" fill="#ffd513" stroke="none" /><path d="M 107.08798089147638 80.2323363322302 l 6.68900346196919 -18.654955865888756 a40.817924857877856,40.817924857877856 0 0,0 0.6593410255751935,0.24284086412715464 l -7.00912681331696 18.537051733955273" fill="#fff917" stroke="none" /><path d="M 107.4271985657038 80.35727306442388 l 5.32851281489883 -14.092328523312817 a36.06608018123882,36.06608018123882 0 0,0 0.5788036282642544,0.22456681551264407 l -5.570299608162752 13.998519003909626" fill="#ffbd11" stroke="none" /><path d="M 107.76421540070413 80.48803036053334 l 9.019014963283169 -22.66536115491041 a45.39387683806015,45.39387683806015 0 0,0 0.7235267999817533,0.2951447483885942 l -9.40782563285331 22.50675552033824" fill="#ceff1d" stroke="none" /><path d="M 108.09893153111575 80.62456947434976 l 1.9802009893229018 -4.7373220218055225 a26.134531711499985,26.134531711499985 0 0,0 0.41356806525121503,0.17706826230398237 l -2.0614528123644322 4.70253423153875" fill="#ff3605" stroke="none" /><path d="M 108.76106565485865 80.91482961587045 l 7.076148681684577 -15.414734756437888 a37.961306782693384,37.961306782693384 0 0,0 0.5915127003256015,0.2777231441222511 l -7.340439593309777 15.290646629675633" fill="#ffd513" stroke="none" /><path d="M 109.08828744355905 81.06846463323043 l 5.654158298704551 -11.778005313542357 a34.064873333968514,34.064873333968514 0 0,0 0.5264300086915681,0.2583169190045261 l -5.856059574406551 11.678933234402999" fill="#ffa30f" stroke="none" /><path d="M 109.41281617654863 81.2277094730956 l 9.606208529498222 -19.157979290730086 a42.431458485512536,42.431458485512536 0 0,0 0.6500893697155602,0.33300102477641863 l -9.934558386802538 18.989785740641167" fill="#f2ff19" stroke="none" /><path d="M 109.73455568895987 81.39251694778311 l 6.382346372365495 -12.19977631766554 a34.768401774277216,34.768401774277216 0 0,0 0.5279084347629593,0.2819904032235032 l -6.591399853656766 12.088107187940283" fill="#ffac0f" stroke="none" /><path d="M 110.05341064243156 81.56283822128135 l 16.05482264364764 -29.443277802683486 a54.536009570087124,54.536009570087124 0 0,0 0.8203148429203563,0.4565043219491423 l -16.55926157564003 29.162558083174165" fill="#69ff28" stroke="none" /><path d="M 110.36928655335952 81.73862282372117 l 10.586266357845927 -18.643500867139487 a42.43943002932427,42.43943002932427 0 0,0 0.6321520183562714,0.3661832516214022 l -10.905615108667527 18.458513458128035" fill="#f1ff19" stroke="none" /><line stroke="#e1ed5e" stroke-width="0.3" x1="143.23703022742887" x2="145.7803849466894" y1="26.81831364943548" y2="22.513508569990506" /><path d="M 143.74570117128098 25.957352633546492 a86.0,86.0 0 0,1 28.547481713284135,27.462654790039103" fill="none" id="id122" stroke="none" /><text fill="#e1ed5e" style="font-size:6.75px; font-family:Arial;" text-anchor="middle"><textPath startOffset="19.985693538727396" xlink:href="#id122">February</textPath></text><path d="M 110.68208982089419 81.91981866633111 l 2.1284794212306712 -3.6025997296483796 a25.184393559246672,25.184393559246672 0 0,0 0.37133540882128463,0.223725428914576 l -2.1901768962695933 3.5654276912751888" fill="#ff2904" stroke="none" /><path d="M 111.2981086023043 82.29822771554956 l 4.426375595736926 -6.9352044310498995 a29.227384846656292,29.227384846656292 0 0,0 0.4217553027918913,0.2743213808228316 l -4.545097924313097 6.85798412606754" fill="#ff6209" stroke="none" /><path d="M 111.60114157652 82.49532879139004 l 1.2633066482810584 -1.9061716787051277 a23.286795608769758,23.286795608769758 0 0,0 0.3322197450810369,0.2243162548757029 l -1.2959310877686372 1.8841435115307548" fill="#ff0d01" stroke="none" /><path d="M 111.90073688211348 82.69761687909136 l 11.768247901624875 -17.109758485777206 a41.76621039370745,41.76621039370745 0 0,0 0.5888416340559257,0.4125211950459704 l -12.061020675264452 16.9046524479673" fill="#faff18" stroke="none" /><path d="M 112.19680574252982 82.90503203632743 l 14.431934688930193 -20.22771095720543 a45.848360699124505,45.848360699124505 0 0,0 0.6385032297123735,0.4638997506548127 l -14.777983234996356 19.976291971733943" fill="#c9ff1d" stroke="none" /><path d="M 112.48926042617603 83.11751280151076 l 2.6721178777109325 -3.6120630304705315 a25.493018282677507,25.493018282677507 0 0,0 0.350533670544333,0.2640146933288805 l -2.7338977020136483 3.565531747635804" fill="#ff2d04" stroke="none" /><path d="M 112.77801427241765 83.33499621200491 l 24.29986498564917 -31.69172716513122 a60.93556070759361,60.93556070759361 0 0,0 0.8268881445128746,0.6453993126747136 l -24.841785685321472 31.26874946323328" fill="#30ff38" stroke="none" /><path d="M 113.06298171725822 83.55741782278167 l 5.51452499513152 -6.941220034089261 a29.865129524353968,29.865129524353968 0 0,0 0.39976125765367504,0.3232458021572705 l -5.633189651349686 6.84526813466786" fill="#ff6a09" stroke="none" /><path d="M 113.34407831869373 83.78471172551755 l 6.728434356248366 -8.176173739152583 a31.588750913075238,31.588750913075238 0 0,0 0.41688496344926673,0.3491291679190331 l -6.86817685665675 8.05914341383973" fill="#ff820c" stroke="none" /><path d="M 113.89432698308785 84.25364557470407 l 17.86979417922427 -20.251726693610713 a48.00855379468776,48.00855379468776 0 0,0 0.6149415939132307,0.5521006347128381 l -18.21574676073349 19.94112705012858" fill="#b0ff20" stroke="none" /><path d="M 114.16331599549186 84.49514656593476 l 3.3246019934036006 -3.6395055120376734 a25.929399434687333,25.929399434687333 0 0,0 0.32694764515426483,0.3038622041293029 l -3.3867575223527124 3.5817387218337298" fill="#ff3304" stroke="none" /><path d="M 114.42810811169701 84.74124197986012 l 3.7926715062531393 -4.0110218412405105 a26.520204105397994,26.520204105397994 0 0,0 0.32899797867975783,0.31649579482517015 l -3.8611527285453153 3.9451429596530385" fill="#ff3c05" stroke="none" /><path d="M 114.94478906791727 85.2469230424477 l 29.63190481250235 -29.251786031305635 a62.63792464615026,62.63792464615026 0 0,0 0.75086686099561,0.7738343033164435 l -30.13103593720107 28.737387532439076" fill="#32ff4c" stroke="none" /><path d="M 115.19652480421416 85.50635884689758 l 9.243202186917676 -8.815677092541947 a33.77313388594234,33.77313388594234 0 0,0 0.39761058743198247,0.4241432520759572 l -9.393580096320122 8.655264423587935" fill="#ff9f0e" stroke="none" /><path d="M 115.68641384162765 86.03803664274999 l 13.953142216449598 -12.419235034306176 a39.67960322249394,39.67960322249394 0 0,0 0.44971754366458055,0.5141048939466659 l -14.164851623692027 12.177214584156562" fill="#ffeb16" stroke="none" /><path d="M 116.15771136456269 86.58626213691792 l 15.176013275610291 -12.598756054781118 a40.72409777580165,40.72409777580165 0 0,0 0.4431198928856401,0.5432125935918845 l -15.39063166057234 12.335659291581132" fill="#fff817" stroke="none" /><path d="M 116.38621287248628 86.86637796730983 l 6.941767504286768 -5.563857332355041 a29.896327584929228,29.896327584929228 0 0,0 0.3183900795045491,0.4043230679519758 l -7.036511664385282 5.4435418704500265" fill="#ff6b09" stroke="none" /><path d="M 116.60985879189232 87.15038557335679 l 34.2648248994821 -26.507738197612188 a64.32133896528727,64.32133896528727 0 0,0 0.6699344947004071,0.8815552661869601 l -34.71603533440662 25.913998155544192" fill="#34ff60" stroke="none" /><path d="M 116.82858285166822 87.43820079747576 l 1.2458462498162435 -0.9299695978772285 a22.554662770878988,22.554662770878988 0 0,0 0.22956069982304034,0.31312053657312366 l -1.2616695621529102 0.9083866176326112" fill="#ff0300" stroke="none" /><path d="M 117.04232023915458 87.72973835380427 l 16.287724054805555 -11.726961644244664 a41.070166523750544,41.070166523750544 0 0,0 0.40813454552665573,0.5772773707034038 l -16.487171220136094 11.444857773209467" fill="#fffc17" stroke="none" /><path d="M 117.2510076193507 88.02491185347247 l 1.3357679583182198 -0.9272466511593749 a22.626057314658958,22.626057314658958 0 0,0 0.21933865274483624,0.3218524079348573 l -1.3515310767317896 0.9041162199541112" fill="#ff0400" stroke="none" /><path d="M 117.45458315368197 88.32363383020206 l 13.412159061821606 -8.972158140618069 a37.136469018960206,37.136469018960206 0 0,0 0.35085716210894696,0.5343795288182155 l -13.564612859288479 8.73996054782218" fill="#ffcb12" stroke="none" /><path d="M 117.65298651832404 88.62581576622439 l 9.411338023764289 -6.063919691861612 a32.19573157175977,32.19573157175977 0 0,0 0.2961584218255624,0.4684515007291998 l -9.514324041835808 5.9010205434182055" fill="#ff8a0c" stroke="none" /><line stroke="#e1ed5e" stroke-width="0.3" x1="172.23445277983987" x2="176.4835382374775" y1="55.19839476539836" y2="52.563006222186495" /><path d="M 173.08426987136738 54.67131705675599 a86.0,86.0 0 0,1 12.851231095245387,41.99856678651699" fill="none" id="id123" stroke="none" /><text fill="#e1ed5e" style="font-size:6.75px; font-family:Arial;" text-anchor="middle"><textPath startOffset="22.20632615414155" xlink:href="#id123">March</textPath></text><path d="M 117.84615892207809 88.93136811851018 l 10.933690687469525 -6.781347059279763 a33.865934089200834,33.865934089200834 0 0,0 0.30299399960194545,0.498042468437624 l -11.048800485357695 6.5921368176350565" fill="#ffa00e" stroke="none" /><path d="M 118.03404312379186 89.2402003453031 l 54.10212937137558 -32.279398964090696 a84.0,84.0 0 0,0 0.7301613021186908,1.2480823505844187 l -54.6497503479646 31.34333720115238" fill="#4dd2ff" stroke="none" /><path d="M 118.21658344932153 89.55222093294921 l 1.3888337966344348 -0.7965395217197193 a22.601041699749103,22.601041699749103 0 0,0 0.19064770647341123,0.3391409967734427 l -1.402339144400279 0.7725150150114827" fill="#ff0300" stroke="none" /><path d="M 118.3937258080291 89.86733742301442 l 6.72169759496075 -3.702822059277544 a28.67411947787976,28.67411947787976 0 0,0 0.23443400363781033,0.4343706043862239 l -6.7844396978170245 3.5865704715588613" fill="#ff5a08" stroke="none" /><path d="M 118.56541770881063 90.18545643968196 l 13.159092330889129 -6.956508435275724 a35.88471432654747,35.88471432654747 0 0,0 0.28398576261029607,0.5485701025103208 l -13.276887526659541 6.728965610505059" fill="#ffbb11" stroke="none" /><path d="M 118.73160827565052 90.50648371742162 l 15.87708099848863 -8.04679047099778 a38.79979038968463,38.79979038968463 0 0,0 0.2967998964575914,0.5983304802833315 l -16.01324090789963 7.7723004022155004" fill="#ffe015" stroke="none" /><path d="M 118.89224826269711 90.83032412892265 l 11.30379078176072 -5.486488222149801 a33.56492097267655,33.56492097267655 0 0,0 0.24780790338869002,0.5219466434311152 l -11.396556878991166 5.291099163078146" fill="#ff9c0e" stroke="none" /><path d="M 119.04729006885535 91.15688171328212 l 17.37104143352019 -8.064883435112607 a40.15190396036459,40.15190396036459 0 0,0 0.28564768672327057,0.6293868136590114 l -17.50729143720681 7.7646746126115325" fill="#fff116" stroke="none" /><path d="M 119.196687751892 91.48605970444005 l 18.073907372208968 -8.015974956893363 a40.77174707021945,40.77174707021945 0 0,0 0.2790132776159523,0.6440011133281173 l -18.209211359667602 7.703674698978643" fill="#fff817" stroke="none" /><path d="M 119.34039704204932 91.81776055985345 l 3.5541062070611984 -1.5036169070707135 a24.85908470162289,24.85908470162289 0 0,0 0.16333402727062205,0.3955263025746414 l -3.5794619212180177 1.442216034042769" fill="#ff2403" stroke="none" /><path d="M 119.47837535516314 92.15188598940014 l 16.949432134972206 -6.829166877869351 a39.27349911603731,39.27349911603731 0 0,0 0.2472480905645461,0.6292194218483469 l -17.064473775418453 6.53639845112522" fill="#ffe615" stroke="none" /><path d="M 119.61058180528143 92.48833698450437 l 4.301893244796832 -1.6478028395286122 a25.606684240056744,25.606684240056744 0 0,0 0.1541222567443295,0.4129710233096585 l -4.329620090042788 1.5735086791896205" fill="#ff2f04" stroke="none" /><path d="M 119.7369772167798 92.82701384747503 l 17.119606296947783 -6.221758152524278 a39.21513640550069,39.21513640550069 0 0,0 0.2251078037764851,0.6364100746189864 l -17.224167181534078 5.926150451478677" fill="#ffe515" stroke="none" /><path d="M 119.85752413597 93.16781622104841 l 3.747439095738061 -1.2893446548118679 a24.96304294894189,24.96304294894189 0 0,0 0.1363014314389148,0.4075239312287027 l -3.769077820948746 1.2246476206608512" fill="#ff2603" stroke="none" /><path d="M 119.97218684219823 93.5106431181261 l 16.080779841238826 -5.224962101203563 a37.908332539354866,37.908332539354866 0 0,0 0.19630110872124348,0.6223281587616453 l -16.168336433728275 4.947383776015499" fill="#ffd513" stroke="none" /><path d="M 120.08093135843002 93.85539295169968 l 42.64743956214085 -13.04978106085117 a65.5993372926393,65.5993372926393 0 0,0 0.32110595366970046,1.0826096454538683 l -42.86575141292226 12.313742028650772" fill="#36ff6f" stroke="none" /><path d="M 120.18372546131832 94.20196356495316 l 3.447841080481892 -0.9904369857386865 a24.587279406315833,24.587279406315833 0 0,0 0.1133511391577424,0.40778435699522797 l -3.4643789902059976 0.9309413253245067" fill="#ff2003" stroke="none" /><path d="M 120.28053869075195 94.5502522615342 l 17.485310404640217 -4.698619316138458 a39.10560972253099,39.10560972253099 0 0,0 0.16909203844067472,0.6515806010954868 l -17.563598774951192 4.396942289494121" fill="#ffe415" stroke="none" /><path d="M 120.37134235888165 94.90015583598534 l 12.651765071073752 -3.167293991997 a34.04219730894231,34.04219730894231 0 0,0 0.13741246375465277,0.56966337529175 l -12.704410335089225 2.949045385045844" fill="#ffa30f" stroke="none" /><path d="M 120.45610955862082 95.25157060432595 l 17.541676399530523 -4.07190876770746 a39.008077407607374,39.008077407607374 0 0,0 0.14619784020179558,0.6553762511089873 l -17.60916862673436 3.769354347048509" fill="#ffe215" stroke="none" /><path d="M 120.53481517161879 95.60439243477599 l 10.852956145671103 -2.3231441695608748 a32.09881326685087,32.09881326685087 0 0,0 0.11100182951103564,0.5412843421931779 l -10.891337271097134 2.135984171204285" fill="#ff890c" stroke="none" /><path d="M 120.6074358757038 95.95851677861258 l 18.823130853303955 -3.691549398792434 a40.1817046188374,40.1817046188374 0 0,0 0.12726938070427776,0.6798781207617489 l -18.883885957918093 3.3669932005681225" fill="#fff116" stroke="none" /><path d="M 120.67395015179393 96.31383870115 l 40.87475131292794 -7.287960224512719 a62.51938895417157,62.51938895417157 0 0,0 0.17978235799216913,1.061085653765551 l -40.994145532440335 6.58328878243133" fill="#32ff4b" stroke="none" /><path d="M 120.73433829027371 96.67025291283417 l 6.19230667428568 -0.9944284125629593 a27.271646499613595,27.271646499613595 0 0,0 0.07044409994337067,0.46413860311863164 l -6.208506667668351 0.8876906970522455" fill="#ff4606" stroke="none" /><path d="M 120.78858239683441 97.02765380044208 l 6.880440077091457 -0.9837635642506788 a27.950413398121977,27.950413398121977 0 0,0 0.06399846210329357,0.4768628786789124 l -6.896354538252587 0.865182343507102" fill="#ff5007" stroke="none" /><path d="M 120.83666639777658 97.38593545837742 l 14.526195749962417 -1.8223842772996193 a35.6400630948222,35.6400630948222 0 0,0 0.0711267839635151,0.60937084860444 l -14.555412886929522 1.5720696903703266" fill="#ffb811" stroke="none" /><path d="M 120.87857604477298 97.74499172005257 l 7.676531376897386 -0.8291102697357378 a28.721175935041977,28.721175935041977 0 0,0 0.04885728372314775,0.49198617956083474 l -7.689665786302762 0.6968485594704681" fill="#ff5b08" stroke="none" /><path d="M 120.91429891909075 98.10471618934814 l 5.70985755840433 -0.5174354939382487 a26.733254994124557,26.733254994124557 0 0,0 0.0375863406136475,0.45864855819614236 l -5.717918382837472 0.41907301853433765" fill="#ff3f05" stroke="none" /><path d="M 120.94382443527127 98.46500227214037 l 11.425394843628768 -0.8373807362199738 a32.45604005886027,32.45604005886027 0 0,0 0.0360407463099827,0.5575343934035346 l -11.438116180943167 0.640587278563404" fill="#ff8e0d" stroke="none" /><path d="M 120.96714384426684 98.82574320788733 l 48.11833842427883 -2.694848956994941 a69.19374133240171,69.19374133240171 0 0,0 0.05636453557248435,1.189766261253873 l -48.15759656808481 1.866171589118068" fill="#3aff97" stroke="none" /><path d="M 120.98425023603335 99.18683210126433 l 1.3730814988080882 -0.05320875345173425 a22.374112067414064,22.374112067414064 0 0,0 0.011600769927316346,0.3849730768959654 l -1.3737939631910494 0.0295655291307698" fill="#ff0000" stroke="none" /><line stroke="#e1ed5e" stroke-width="0.3" x1="184.98032266829074" x2="189.97916517819016" y1="98.17113171792111" y2="98.06355123074" /><path d="M 185.9800911702706 98.14961562048488 a86.0,86.0 0 0,1 -9.607161424134198,41.387399972396054" fill="none" id="id124" stroke="none" /><text fill="#e1ed5e" style="font-size:6.75px; font-family:Arial;" text-anchor="middle"><textPath startOffset="21.466115282336823" xlink:href="#id124">April</textPath></text><path d="M 120.99513854157772 99.54816195383933 l 17.01097728939109 -0.3660945950178219 a38.01491620880575,38.01491620880575 0 0,0 0.00844834968414934,0.6543339934453759 l -17.014758646192956 0.07322434351198323" fill="#ffd614" stroke="none" /><path d="M 120.99980553446 99.90962569577887 l 14.77128210521718 -0.06356936689353776 a35.77141889245297,35.77141889245297 0 0,0 -0.0026499853966339146,0.6157632800393997 l -14.770187822531044 -0.19070339134954672" fill="#ffb911" stroke="none" /><path d="M 120.99824983174949 100.27111621757518 l 1.5120747735983873 0.01952296008446405 a22.51220080244757,22.51220080244757 0 0,0 -0.008338023174474385,0.387435173284881 l -1.5115146877389054 -0.04554794915945987" fill="#ff0200" stroke="none" /><path d="M 120.9904718944345 100.63252640178507 l 22.17540739223413 0.6682332210762234 a43.1854733699622,43.1854733699622 0 0,0 -0.02878592947574444,0.7428369323667177 l -22.160619329907185 -1.0498474004569474" fill="#e8ff1a" stroke="none" /><path d="M 120.9764740272857 100.99374915477107 l 24.59608985949048 1.1652265045473218 a45.62367537925705,45.62367537925705 0 0,0 -0.04391528406369384,0.784136897576431 l -24.572388224539257 -1.5884351184591763" fill="#ccff1d" stroke="none" /><path d="M 120.92983693683757 101.71520430193887 l 15.511956900660143 1.2712079548347752 a36.56395761213622,36.56395761213622 0 0,0 -0.05680542280018327,0.6268431070804861 l -15.487776881582883 -1.5380324504638316" fill="#ffc312" stroke="none" /><path d="M 120.89721153311464 102.0752229133903 l 16.417546835875527 1.6303643824190788 a37.498300886079974,37.498300886079974 0 0,0 -0.06931417800089007,0.6417632029299013 l -16.387050356373585 -1.9127239072337714" fill="#ffcf13" stroke="none" /><path d="M 120.8583938346157 102.4346265915055 l 7.410074004419664 0.8649162231391058 a28.460380474481532,28.460380474481532 0 0,0 -0.060984484172006734,0.4861063420201054 l -7.394088011000809 -0.9923403194466061" fill="#ff5708" stroke="none" /><path d="M 120.81339534386255 102.79330883721812 l 19.891572492947635 2.6695935147890166 a41.069912450641,41.069912450641 0 0,0 -0.10006576405724509,0.6998597207538116 l -19.84267267787379 -3.0115987075232376" fill="#fffc17" stroke="none" /><path d="M 120.76222939487914 103.15116336523771 l 5.531962025214756 0.839607141420103 a26.59531446840495,26.59531446840495 0 0,0 -0.07259032226375309,0.4520200060292641 l -5.516689948589714 -0.934706377142572" fill="#ff3d05" stroke="none" /><path d="M 120.70491114924044 103.5080841355445 l 3.6997923256500473 0.6268649340665421 a24.752522204931136,24.752522204931136 0 0,0 -0.07479217118957665,0.41947421546641167 l -3.688453712121282 -0.690457900266172" fill="#ff2303" stroke="none" /><path d="M 120.64145759157962 103.86396538481128 l 39.42310589083826 7.379784874595739 a61.10788579413727,61.10788579413727 0 0,0 -0.20244189097207582,1.0322468406366632 l -39.29023406689052 -8.057295442300347" fill="#30ff3a" stroke="none" /><path d="M 120.5718875245553 104.21870165774334 l 5.225871564051251 1.0716757518774815 a26.334624871640145,26.334624871640145 0 0,0 -0.09488736694018292,0.4432821887135255 l -5.2066501583866245 -1.161471760007176" fill="#ff3905" stroke="none" /><path d="M 120.49622156327973 104.57218783832717 l 17.268642776868035 3.85219676929459 a38.69309027005854,38.69309027005854 0 0,0 -0.15060720481298182,0.6488118965775663 l -17.1997750061245 -4.148877323220721" fill="#ffde14" stroke="none" /><path d="M 120.41448212921028 104.9243191809786 l 1.7024958184302377 0.41067085420874183 a22.751325944040396,22.751325944040396 0 0,0 -0.09510995250819,0.3799169821605108 l -1.695174551626987 -0.43991567576664853" fill="#ff0600" stroke="none" /><path d="M 120.32669344350535 105.2749913415812 l 9.22687221947702 2.3944706601146044 a30.532505478451426,30.532505478451426 0 0,0 -0.13639586062089304,0.5075797378759351 l -9.18428828251435 -2.5529413311660876" fill="#ff740a" stroke="none" /><path d="M 120.23288151984713 105.62410040840565 l 12.766074015543074 3.5485643512578204 a34.250092630821186,34.250092630821186 0 0,0 -0.16278149675662384,0.566663745135925 l -12.70309988190035 -3.7677855718983277" fill="#ffa50f" stroke="none" /><path d="M 120.13307415673323 105.97154293290107 l 13.098467838631066 3.8850531441295284 a34.662485046738865,34.662485046738865 0 0,0 -0.1745887103024516,0.5705660069035844 l -13.029652355822481 -4.10994612358517" fill="#ffab0f" stroke="none" /><path d="M 120.02730092923936 106.31721596034902 l 49.37656832737901 15.574861865164447 a72.77472184287697,72.77472184287697 0 0,0 -0.38711906476126423,1.1914299725424322 l -49.1011570116015 -16.422490737684672" fill="#3fffbe" stroke="none" /><path d="M 119.9155931802556 106.66101706037122 l 2.0551599126965785 0.6873737134696406 a23.167063655900318,23.167063655900318 0 0,0 -0.12974567171693877,0.3771016546121198 l -2.0430234100364086 -0.7226480711710608" fill="#ff0c01" stroke="none" /><path d="M 119.79798401119884 107.00284435728193 l 4.346306422831546 1.5373538735523524 a25.610188331692445,25.610188331692445 0 0,0 -0.15058271095481163,0.41433894784668496 l -4.3191994508715075 -1.6119406184051686" fill="#ff2f04" stroke="none" /><path d="M 119.67450827220406 107.3425965602758 l 1.5208440389112468 0.5675844119876787 a22.623304855972307,22.623304855972307 0 0,0 -0.13930108249415316,0.36367116951074036 l -1.510848676823587 -0.593679148331563" fill="#ff0400" stroke="none" /><path d="M 119.54520255179757 107.68017299344265 l 3.7042045892160282 1.4555455218685782 a24.97991763796699,24.97991763796699 0 0,0 -0.1607010270930949,0.3988467702497516 l -3.678600947865541 -1.5190916599611435" fill="#ff2603" stroke="none" /><path d="M 119.41010516605496 108.01547362559984 l 13.589512989916948 5.611838886165323 a35.702639184425315,35.702639184425315 0 0,0 -0.23946103323673,0.5660151469259341 l -13.490900975487909 -5.84492855875742" fill="#ffb811" stroke="none" /><path d="M 119.12269723197855 108.67885076344098 l 4.011013799235679 1.8204016803369714 a25.404780809011125,25.404780809011125 0 0,0 -0.18415488060722943,0.3966532296406963 l -3.979084301788618 -1.8891749772564983" fill="#ff2c04" stroke="none" /><path d="M 118.97047184881838 109.00673069616215 l 1.4481273300390398 0.6875365557249633 a22.603053111866274,22.603053111866274 0 0,0 -0.16989611067965424,0.3500363095658267 l -1.4360779627446714 -0.7123618212560654" fill="#ff0300" stroke="none" /><path d="M 118.81262510543309 109.33194174019688 l 6.723171405643608 3.335007396107857 a28.50488561416881,28.50488561416881 0 0,0 -0.2218241106979862,0.4376800148659615 l -6.664768625159353 -3.4502416226765127" fill="#ff5808" stroke="none" /><path d="M 118.64920377521936 109.65438752849418 l 1.8569847301539042 0.9613305981043747 a23.091064037009982,23.091064037009982 0 0,0 -0.18577035007005768,0.3514074929482353 l -1.8401618718589534 -0.9931531061387444" fill="#ff0b01" stroke="none" /><line stroke="#e1ed5e" stroke-width="0.3" x1="174.80103733775053" x2="179.2010983576182" y1="140.37084112569926" y2="142.7455964860345" /><path d="M 175.68104954172406 140.8457921977663 a86.0,86.0 0 0,1 -30.038265399797805,32.042727171017184" fill="none" id="id125" stroke="none" /><text fill="#e1ed5e" style="font-size:6.75px; font-family:Arial;" text-anchor="middle"><textPath startOffset="22.206326154141568" xlink:href="#id125">May</textPath></text><path d="M 118.48025628344425 109.97397251340804 l 7.881913648591545 4.253944798078101 a29.956595843787383,29.956595843787383 0 0,0 -0.2488160479849229,0.4516734005992794 l -7.807521191155113 -4.388988717075186" fill="#ff6c09" stroke="none" /><path d="M 118.30583269289576 110.29060199501025 l 13.18141471009897 7.40991654345468 a36.121394014460996,36.121394014460996 0 0,0 -0.30935050522353313,0.539378681088915 l -13.051912208723058 -7.63571507040191" fill="#ffbe11" stroke="none" /><path d="M 118.12598468904814 110.60418214915192 l 16.377103271340165 9.58104010038656 a39.973819883338095,39.973819883338095 0 0,0 -0.3525674244661274,0.590923283045595 l -16.209754971175812 -9.86152547731826" fill="#ffee16" stroke="none" /><path d="M 117.94076556474637 110.91462005526583 l 11.898729591395142 7.238827805967285 a34.927684441197954,34.927684441197954 0 0,0 -0.31690280669368276,0.5109482284405746 l -11.772362145033497 -7.442572365773133" fill="#ffae10" stroke="none" /><path d="M 117.75023020441432 111.22182372390056 l 5.709307913306394 3.609465694290628 a27.754586548946126,27.754586548946126 0 0,0 -0.2587720507268756,0.4016199693016815 l -5.646330999202468 -3.7072072635137623" fill="#ff4d07" stroke="none" /><path d="M 117.55443506779139 111.5257021239791 l 1.377527952305643 0.9044424833050065 a22.647907602079165,22.647907602079165 0 0,0 -0.21676948080775404,0.3240409621382129 l -1.3617553660871677 -0.9280203596490263" fill="#ff0400" stroke="none" /><path d="M 117.35343817320211 111.8261652097733 l 5.608362657931896 3.822033575539418 a27.786875006616487,27.786875006616487 0 0,0 -0.2727600574601444,0.39293120617770877 l -5.541741693309615 -3.918006043904146" fill="#ff4e07" stroke="none" /><path d="M 117.14729908036423 112.12312394758627 l 3.3133321497265786 2.3425226411694777 a25.0577804596606,25.0577804596606 0 0,0 -0.25203379006171783,0.3500528908975108 l -3.272518567289258 -2.39920913751812" fill="#ff2703" stroke="none" /><path d="M 116.71984013943494 112.70617746262583 l 15.398102918770242 11.701728404221672 a40.33990747504261,40.33990747504261 0 0,0 -0.4249005965492051,0.5492412982166655 l -15.19439550500297 -11.96504769655159" fill="#fff316" stroke="none" /><path d="M 116.498646956653 112.99209946851258 l 8.853837463905297 6.972083063012354 a32.269444532664274,32.269444532664274 0 0,0 -0.3474068284178484,0.4334434346930999 l -8.732512723432594 -7.123454331283704" fill="#ff8b0c" stroke="none" /><path d="M 116.27256486870786 113.27417163493432 l 16.575058480096782 13.52092757958379 a42.39037274642445,42.39037274642445 0 0,0 -0.46610031586443457,0.5614478564842467 l -16.339862164338804 -13.804236693181807" fill="#f2ff19" stroke="none" /><path d="M 115.80600337817218 113.82643327865902 l 8.078875738171954 7.06706393057402 a31.733667862927554,31.733667862927554 0 0,0 -0.36318601138350315,0.4080433338978379 l -7.956030877140114 -7.205081434212724" fill="#ff840c" stroke="none" /><path d="M 115.32070863581623 114.36230785411682 l 12.903316000163338 12.096137400593799 a38.686494955590135,38.686494955590135 0 0,0 -0.45962033531097507,0.4819100840356722 l -12.693189113473398 -12.316454601211978" fill="#ffde14" stroke="none" /><path d="M 115.07121518719521 114.62390073753431 l 20.988173049513446 20.365242983130543 a50.244598299827445,50.244598299827445 0 0,0 -0.6076231799314227,0.6155190732739783 l -20.634509244526487 -20.723502550385184" fill="#97ff23" stroke="none" /><path d="M 114.55890576462653 115.13401014063108 l 5.458742885588687 5.67437357732744 a28.873778596457797,28.873778596457797 0 0,0 -0.36114795062014976,0.3414879290298609 l -5.360259100577729 -5.767496143103222" fill="#ff5d08" stroke="none" /><path d="M 114.29624159901734 115.38237550388516 l 5.882307178221273 6.329205981718873 a29.6406241729391,29.6406241729391 0 0,0 -0.376718854563848,0.3441237417262445 l -5.772488774190561 -6.429522490031701" fill="#ff6709" stroke="none" /><path d="M 114.0293411484842 115.62618273729858 l 8.251335919734762 9.19051590120766 a33.35111845100094,33.35111845100094 0 0,0 -0.4304797950124764,0.37984836807098354 l -8.091913771815697 -9.331187411050932" fill="#ff9a0e" stroke="none" /><path d="M 113.75828350139079 115.86535959552629 l 10.777083140057586 12.427589487497695 a37.44963529922401,37.44963529922401 0 0,0 -0.49065178859120895,0.41814409870065744 l -10.56156587488933 -12.6112579764213" fill="#ffcf13" stroke="none" /><path d="M 113.48314897796784 116.09983520530334 l 4.054614834935769 4.841497395757678 a27.31506124220578,27.31506124220578 0 0,0 -0.3630690253967042,0.29878109028808436 l -3.9706756809943737 -4.9105736049029405" fill="#ff4706" stroke="none" /><path d="M 113.20401910651253 116.32954008644616 l 2.3050975558184508 2.8507367822832785 a24.666084415790642,24.666084415790642 0 0,0 -0.33245477989956457,0.26412218378085717 l -2.2556852832015353 -2.889992880069262" fill="#ff2103" stroke="none" /><path d="M 112.92097659922987 116.55440617244103 l 8.761935134748411 11.225825847084366 a35.2404590254179,35.2404590254179 0 0,0 -0.4814035851949794,0.3691197410255461 l -8.567402821059938 -11.374984929937284" fill="#ffb210" stroke="none" /><path d="M 112.63410532772338 116.77436683061366 l 3.824730672678605 5.078114648215589 a27.357343242184605,27.357343242184605 0 0,0 -0.3785931007427128,0.28007412504671436 l -3.736752601517328 -5.143198722002072" fill="#ff4806" stroke="none" /><path d="M 112.34349029814194 116.9893568818739 l 11.722626141315459 16.13481068134935 a40.943722806237496,40.943722806237496 0 0,0 -0.5737437484764797,0.40935093069663175 l -11.443155064990094 -16.3342058738902" fill="#fffa17" stroke="none" /><path d="M 112.04921762599082 117.19931262002967 l 7.3133018976806 10.439164560489177 a33.74600099511968,33.74600099511968 0 0,0 -0.4786197175193203,0.3291990059973793 l -7.132525295538397 -10.56350435585165" fill="#ff9f0e" stroke="none" /><path d="M 111.7513745106137 117.40417183066458 l 3.392043016194041 5.023727178257019 a27.061665660960607,27.061665660960607 0 0,0 -0.3883030741851106,0.25734610405042607 l -3.3050652432689662 -5.081371303398763" fill="#ff4406" stroke="none" /><path d="M 111.1453310114006 117.79835938074945 l 5.79226776798244 9.24987003603831 a31.913773938450788,31.913773938450788 0 0,0 -0.4681002943667165,0.28754543315175346 l -5.632188273683415 -9.348203936018441" fill="#ff860c" stroke="none" /><line stroke="#e1ed5e" stroke-width="0.3" x1="143.8653032363475" x2="146.44561519142675" y1="172.8068346515853" y2="177.08958963109032" /><path d="M 144.38136562736335 173.6633856474863 a86.0,86.0 0 0,1 -40.68145358897372,12.25698825130547" fill="none" id="id126" stroke="none" /><text fill="#e1ed5e" style="font-size:6.75px; font-family:Arial;" text-anchor="middle"><textPath startOffset="21.466115282336833" xlink:href="#id126">June</textPath></text><path d="M 110.8373102113329 117.98757091392108 l 7.981716904600509 13.247908940191351 a36.4665735065265,36.4665735065265 0 0,0 -0.5404556813683924,0.3193107428540487 l -7.752493352203735 -13.38333825533915" fill="#ffc212" stroke="none" /><path d="M 109.89434966115114 118.52300852407294 l 5.6619844712207845 10.599684690281041 a33.01712876213464,33.01712876213464 0 0,0 -0.5036041292840872,0.26346187864038123 l -5.478689439410202 -10.695575987866139" fill="#ff950d" stroke="none" /><path d="M 109.57404056367764 118.69057910512821 l 4.82974599937604 9.428699310245984 a31.593715925090777,31.593715925090777 0 0,0 -0.4861612306178107,0.24377133357336309 l -4.666730861075469 -9.510438484728647" fill="#ff820c" stroke="none" /><path d="M 108.92500713936063 119.00905698771935 l 4.661861532901971 9.929133967520686 a31.9690771852934,31.9690771852934 0 0,0 -0.5001364286262145,0.2295881042395334 l -4.490257108508336 -10.007909142094293" fill="#ff870c" stroke="none" /><path d="M 108.2653958097858 119.30500536409082 l 4.212529718081408 9.838961215586487 a31.70282973925747,31.70282973925747 0 0,0 -0.5035142158445253,0.21046898305922357 l -4.042544042739421 -9.910015241665683" fill="#ff830c" stroke="none" /><path d="M 107.93186726928326 119.44442032107085 l 4.668146726512797 11.443636660721362 a33.3591429267105,33.3591429267105 0 0,0 -0.5335539538280528,0.21231212952684875 l -4.470471696642878 -11.522295634654279" fill="#ff9a0e" stroke="none" /><path d="M 107.59598834532513 119.57807347666477 l 5.019910032609685 12.93843052368091 a34.87812959845862,34.87812959845862 0 0,0 -0.5615873457819686,0.21234428105574504 l -4.796452466067442 -13.022923054843286" fill="#ffae10" stroke="none" /><path d="M 107.2578585660854 119.70592522655815 l 0.7977610723444248 2.166013555807984 a23.30825420014609,23.30825420014609 0 0,0 -0.37768299905616864,0.13542368614407152 l -0.7603585126585214 -2.1794247829920157" fill="#ff0e01" stroke="none" /><path d="M 106.91757812671514 119.82793768551818 l 8.055866623823153 23.09062774486665 a45.455553085400325,45.455553085400325 0 0,0 -0.7409910298671977,0.251384388772962 l -7.657205861018728 -23.225875120537737" fill="#ceff1d" stroke="none" /><path d="M 106.57524785965236 119.94407469862006 l 14.138492770761525 42.88494699588038 a66.15546098389812,66.15546098389812 0 0,0 -1.084567291544058,0.3472441972461875 l -13.398204134126527 -43.12196403978627" fill="#37ff75" stroke="none" /><path d="M 105.88484417918355 120.15858648285463 l 5.71643759086632 19.58170820511128 a41.39904299128741,41.39904299128741 0 0,0 -0.6857827012841123,0.19380904148114245 l -5.3785237214776025 -19.67720603993094" fill="#feff18" stroke="none" /><path d="M 105.53697534728816 120.25689768951611 l 4.1073993061593415 15.026826434329282 a36.578069256095105,36.578069256095105 0 0,0 -0.6087802280241991,0.16078439133858083 l -3.8481286353236444 -15.095302174971446" fill="#ffc412" stroke="none" /><path d="M 105.18746579009965 120.34920634021253 l 3.3895943175409764 13.296580058203743 a34.721821704195385,34.721821704195385 0 0,0 -0.5804276884280795,0.14265500408012297 l -3.160213344369686 -13.352956320597896" fill="#ffac0f" stroke="none" /><path d="M 104.83641907484287 120.43548508189849 l 3.385711075009411 14.305759508075976 a35.70094536369507,35.70094536369507 0 0,0 -0.5992316137299444,0.13638316435429723 l -3.1389593118866044 -14.361919406007956" fill="#ffb811" stroke="none" /><path d="M 104.48393922423573 120.51570834832081 l 4.771827742368374 21.832906592872476 a43.34829188765734,43.34829188765734 0 0,0 -0.7303331334430853,0.15304840900904687 l -4.395303147495911 -21.911810982608063" fill="#e7ff1a" stroke="none" /><line stroke="#e1ed5e" stroke-width="0.3" x1="102.19456741930631" x2="102.32365962044197" y1="184.97166512339345" y2="189.96999836594603" /><path d="M 102.22038585953345 185.97133177190398 a86.0,86.0 0 0,1 -42.740103519485714,-10.115201625700543" fill="none" id="id127" stroke="none" /><text fill="#e1ed5e" style="font-size:6.75px; font-family:Arial;" text-anchor="middle"><textPath startOffset="22.20632615414155" xlink:href="#id127">July</textPath></text><line stroke="#e1ed5e" stroke-width="0.3" x1="58.666819895761336" x2="56.23545636021788" y1="174.27360380694188" y2="178.64263932499728" /><path d="M 58.180547188652646 175.14741091055294 a86.0,86.0 0 0,1 -31.652253787137756,-30.449443065178592" fill="none" id="id128" stroke="none" /><text fill="#e1ed5e" style="font-size:6.75px; font-family:Arial;" text-anchor="middle"><textPath startOffset="22.20632615414155" xlink:href="#id128">August</textPath></text><line stroke="#e1ed5e" stroke-width="0.3" x1="26.63291911575756" x2="22.317208475507996" y1="142.92168965132927" y2="145.44649492493687" /><path d="M 25.769776987707644 143.4266507060508 a86.0,86.0 0 0,1 -11.730757126820373,-40.83630448921669" fill="none" id="id129" stroke="none" /><text fill="#e1ed5e" style="font-size:6.75px; font-family:Arial;" text-anchor="middle"><textPath startOffset="21.46611528233685" xlink:href="#id129">September</textPath></text><line stroke="#e1ed5e" stroke-width="0.3" x1="15.007084014347285" x2="10.007500721073583" y1="101.09737516637583" y2="101.16192664675087" /><path d="M 14.007167355692545 101.11028546245083 a86.0,86.0 0 0,1 10.666146001902534,-42.60595125391555" fill="none" id="id130" stroke="none" /><text fill="#e1ed5e" style="font-size:6.75px; font-family:Arial;" text-anchor="middle"><textPath startOffset="22.20632615414155" xlink:href="#id130">October</textPath></text><line stroke="#e1ed5e" stroke-width="0.3" x1="26.266209847984243" x2="21.928928074336255" y1="57.711370442889674" y2="55.22380399835377" /><path d="M 25.398753493254645 57.213857153982495 a86.0,86.0 0 0,1 29.58750427330803,-30.492523968695096" fill="none" id="id131" stroke="none" /><text fill="#e1ed5e" style="font-size:6.75px; font-family:Arial;" text-anchor="middle"><textPath startOffset="21.46611528233685" xlink:href="#id131">November</textPath></text><line stroke="#e1ed5e" stroke-width="0.3" x1="56.762969772571076" x2="54.21961505331055" y1="26.818313649435495" y2="22.513508569990535" /><path d="M 56.25429882871897 25.957352633546506 a86.0,86.0 0 0,1 42.265352541879196,-11.944610805530505" fill="none" id="id132" stroke="none" /><text fill="#e1ed5e" style="font-size:6.75px; font-family:Arial;" text-anchor="middle"><textPath startOffset="22.20632615414155" xlink:href="#id132">December</textPath></text></svg>