<?xml version="1.0" encoding="utf-8" ?>
<svg baseProfile="full" height="200mm" version="1.1" viewBox="0,0,200,200" width="200mm" xmlns="http://www.w3.org/2000/svg" xmlns:ev="http://www.w3.org/2001/xml-events" xmlns:xlink="http://www.w3.org/1999/xlink"><defs /><rect fill="#1a1a1a" height="200" width="200" x="0" y="0" /><rect fill="#1a1a1a" height="200" width="180" x="10" y="0" /><text alignment-baseline="middle" fill="#e1ed5e" style="dominant-baseline: central; font-size:9.0px; font-family:Arial;" text-anchor="middle" x="100.0" y="100.0">2025</text><line stroke="#e1ed5e" stroke-width="0.3" x1="100.0" x2="100.0" y1="15.0" y2="10.0" /><path d="M 100.0 14.0 a86.0,86.0 0 0,1 42.46469731375804,11.215312516191453" fill="none" id="id121" stroke="none" /><text fill="#e1ed5e" style="font-size:6.75px; font-family:Arial;" text-anchor="middle"><textPath startOffset="22.20632615414155" xlink:href="#id121">January</textPath></text><path d="M 100.0 79.0 l 0.0 -38.37950670814655 a59.37950670814655,59.37950670814655 0 0,0 1.0221205973251013,0.008797714676166269 l -0.6606401180525729 38.373820370078946" fill="#46ff2c" stroke="none" /><path d="M 100.36148047927253 79.00311137660856 l 0.39144082219901155 -22.73715959130644 a43.740528846045386,43.740528846045386 0 0,0 0.7526981946405413,0.019439973691583595 l -0.7827656520344207 22.727052825472498" fill="#feff18" stroke="none" /><path d="M 100.72285384407766 79.0124445844662 l 0.6429654540835474 -18.668051928354323 a39.67912116173773,39.67912116173773 0 0,0 0.68240373191886,0.029385740170807424 l -0.964210018391739 18.65421846165932" fill="#ffcb12" stroke="none" /><path d="M 101.08401301168833 79.027996857942 l 1.4426959202414769 -27.91131014674356 a48.948570725995836,48.948570725995836 0 0,0 0.8410715225236994,0.05073573110532785 l -1.9229294916047883 27.88234114625793" fill="#bdff1f" stroke="none" /><path d="M 101.44485096284872 79.0497635885617 l 3.3426203137321506 -48.46775730300493 a69.58288390518581,69.58288390518581 0 0,0 1.194207333899534,0.09269347301990881 l -4.176417836994026 48.40303856779656" fill="#3aff92" stroke="none" /><path d="M 101.80526077348638 79.07773832637324 l 1.085149200064652 -12.576452029605214 a33.62318083683198,33.62318083683198 0 0,0 0.5761970443084117,0.05471685222697273 l -1.301471371463308 12.555909632863063" fill="#ff760a" stroke="none" /><path d="M 102.16513564639614 79.11191278185805 l 2.081833995575445 -20.08443680914611 a41.1920438471621,41.1920438471621 0 0,0 0.7046454143041895,0.079175122594662 l -2.4272461133893595 20.045625733080843" fill="#ffdf14" stroke="none" /><path d="M 102.52436894288641 79.15227682838746 l 3.277443176712329 -27.067053035703463 a48.26475735843182,48.26475735843182 0 0,0 0.823914506911446,0.1069677495017852 l -3.742872412131621 27.00662696303754" fill="#c5ff1e" stroke="none" /><path d="M 102.88285421437855 79.19881850522331 l 2.563958055099143 -18.50019213011389 a39.67701768911289,39.67701768911289 0 0,0 0.6757015376051286,0.09958084210757401 l -2.882028573132928 18.453316803845347" fill="#ffcb12" stroke="none" /><path d="M 103.2404852339499 79.25152402106235 l 0.731161406244288 -4.681547292747332 a25.73829948992368,25.73829948992368 0 0,0 0.43714760531935537,0.07213310050291243 l -0.8116382177025186 4.668267929304796" fill="#ff0000" stroke="none" /><path d="M 103.59715602781102 79.31037775812273 l 7.12427225061778 -40.976399264856695 a62.591111452014246,62.591111452014246 0 0,0 1.0598906956156362,0.1936882499729249 l -7.828558067336317 40.84769553353303" fill="#31ff3d" stroke="none" /><path d="M 103.95276090670814 79.375362276772 l 6.8228804983213704 -35.600290993554495 a57.248205708974496,57.248205708974496 0 0,0 0.9662231952855449,0.1938152832183935 l -7.434670103074041 35.47757175425889" fill="#5dff2a" stroke="none" /><path d="M 104.307194497241 79.44645832069477 l 1.0062503101608922 -4.801735260145246 a25.906037219102707,25.906037219102707 0 0,0 0.43566216820360126,0.0952188757686057 l -1.0887552025180214 4.78370288628077" fill="#ff0300" stroke="none" /><path d="M 104.66035177308747 79.52364482259891 l 5.3754331161737765 -23.618233789724734 a45.222226333113,45.222226333113 0 0,0 0.7575289546099414,0.17928262877726253 l -5.7811857577462415 23.522205248806603" fill="#ebff1a" stroke="none" /><path d="M 105.01212808612495 79.60689891045804 l 5.427521174911538 -22.083232128884827 a43.74042935747529,43.74042935747529 0 0,0 0.7296135051916274,0.1859947279957065 l -5.8068435687881905 21.986534404720253" fill="#feff18" stroke="none" /><path d="M 105.36241919743992 79.69619591428918 l 6.614612497410846 -25.045001389380612 a46.903767932194356,46.903767932194356 0 0,0 0.7788306133960664,0.21288382713800977 l -7.044741000030624 24.92743102141631" fill="#d6ff1c" stroke="none" /><path d="M 105.71112130821622 79.79150937346287 l 3.9437191306925317 -13.954634612933342 a35.50119814919676,35.50119814919676 0 0,0 0.5866315733481067,0.17125384275723154 l -4.183340921764065 13.884682441257407" fill="#ff910d" stroke="none" /><path d="M 106.0581310904928 79.89281104454417 l 9.029672223229602 -29.969857516493533 a52.30059648022523,52.30059648022523 0 0,0 0.8597586152822893,0.2671311868586989 l -9.544216211222608 29.809986194752316" fill="#95ff23" stroke="none" /><path d="M 106.74666289553966 80.11325718540242 l 3.548814057244757 -10.46063121071502 a32.04621593757261,32.04621593757261 0 0,0 0.520854771484184,0.18171600251930256 l -3.7283508327922146 10.39799435502351" fill="#ff5f08" stroke="none" /><path d="M 107.08798089147638 80.2323363322302 l 7.196962913070264 -20.07160353184197 a42.32288778546564,42.32288778546564 0 0,0 0.6836510267225661,0.251794442710271 l -7.541396265565406 19.944745821325373" fill="#ffee16" stroke="none" /><path d="M 107.4271985657038 80.35727306442388 l 5.4848675195975565 -14.505840124264434 a36.508164605080005,36.508164605080005 0 0,0 0.5858983850892974,0.2273194709371002 l -5.733749069686521 14.409277949436786" fill="#ff9f0e" stroke="none" /><path d="M 107.76421540070413 80.48803036053334 l 10.641963799202387 -26.743935328675825 a49.783493018880264,49.783493018880264 0 0,0 0.7934922924596728,0.3236854294992323 l -11.100739961250447 26.55678901299301" fill="#b3ff20" stroke="none" /><path d="M 108.09893153111575 80.62456947434976 l 1.8265226756676936 -4.369670625064382 a25.736053890770123,25.736053890770123 0 0,0 0.40726231991841255,0.17436847123589652 l -1.9014687533764214 4.337582625865695" fill="#ff0000" stroke="none" /><path d="M 108.76106565485865 80.91482961587045 l 9.500022577610837 -20.694919623873734 a43.771256601551656,43.771256601551656 0 0,0 0.6820432799440006,0.32022846513563213 l -9.854844068854435 20.5283261760981" fill="#fdff18" stroke="none" /><path d="M 109.08828744355905 81.06846463323043 l 7.590941614060516 -15.812459775963257 a38.540133373339316,38.540133373339316 0 0,0 0.5955895548999419,0.29225320797236365 l -7.86200243597089 15.679451407856062" fill="#ffbb11" stroke="none" /><path d="M 109.41281617654863 81.2277094730956 l 12.89673267489136 -25.720380392008483 a49.77262033943424,49.77262033943424 0 0,0 0.7625627904495028,0.39061427936770615 l -13.337555952929618 25.494573587328276" fill="#b3ff20" stroke="none" /><path d="M 109.73455568895987 81.39251694778311 l 6.722245155406907 -12.84948864630167 a35.50165295408862,35.50165295408862 0 0,0 0.5390418048020938,0.28793746392538744 l -6.942432006737312 12.73187245587453" fill="#ff910d" stroke="none" /><path d="M 110.05341064243156 81.56283822128135 l 8.940565147574063 -16.39629095854062 a39.675440084644244,39.675440084644244 0 0,0 0.5967864656288044,0.33211102199543285 l -9.221475702274903 16.23996453898501" fill="#ffcb12" stroke="none" /><path d="M 110.36928655335952 81.73862282372117 l 14.212500886597583 -25.029671807484963 a49.78332246704582,49.78332246704582 0 0,0 0.7415421874487698,0.42954909820663073 l -14.641239806511681 24.781318551888283" fill="#b3ff20" stroke="none" /><line stroke="#e1ed5e" stroke-width="0.3" x1="143.23703022742887" x2="145.7803849466894" y1="26.81831364943548" y2="22.513508569990506" /><path d="M 143.74570117128098 25.957352633546492 a86.0,86.0 0 0,1 28.547481713284135,27.462654790039103" fill="none" id="id122" stroke="none" /><text fill="#e1ed5e" style="font-size:6.75px; font-family:Arial;" text-anchor="middle"><textPath startOffset="19.985693538727396" xlink:href="#id122">February</textPath></text><path d="M 111.2981086023043 82.29822771554956 l 5.9425925016707914 -9.310799085645558 a32.04560479349918,32.04560479349918 0 0,0 0.46242261576740884,0.30077253241701307 l -6.10198214322248 9.207127629069017" fill="#ff5f08" stroke="none" /><path d="M 111.90073688211348 82.69761687909136 l 12.905002423510975 -18.76247650205904 a43.77212357337677,43.77212357337677 0 0,0 0.6171220354463461,0.4323334235013516 l -13.226055598540972 18.537558235793753" fill="#fdff18" stroke="none" /><path d="M 112.19680574252982 82.90503203632743 l 16.420257941215223 -23.014532606804625 a49.27178066492655,49.27178066492655 0 0,0 0.6861791917641241,0.498538364648979 l -16.813982449333135 22.728475007338968" fill="#b9ff1f" stroke="none" /><path d="M 112.77801427241765 83.33499621200491 l 30.28043200299477 -39.491544090798634 a70.7643106750559,70.7643106750559 0 0,0 0.9602630856654727,0.7495005698025776 l -30.95572764381967 38.96446513177283" fill="#3cffa0" stroke="none" /><path d="M 113.06298171725822 83.55741782278167 l 7.403478122802389 -9.318875281788776 a32.90180342773092,32.90180342773092 0 0,0 0.44040881545877797,0.3561133003874951 l -7.562790336825658 9.190055884137152" fill="#ff6c09" stroke="none" /><path d="M 113.34407831869373 83.78471172551755 l 9.033201699362085 -10.976851761391618 a35.2158365048605,35.2158365048605 0 0,0 0.46475255557152695,0.38921689972317175 l -9.220811791892729 10.819733704274627" fill="#ff8d0d" stroke="none" /><path d="M 113.89432698308785 84.25364557470407 l 23.990938545326706 -27.18878156459316 a57.2601016994272,57.2601016994272 0 0,0 0.7334446764896236,0.6584938723039289 l -24.45539420941232 26.771788683519933" fill="#5dff2a" stroke="none" /><path d="M 114.16331599549186 84.49514656593476 l 4.463415824013638 -4.8861868356708715 a27.617922832062842,27.617922832062842 0 0,0 0.34823848723297796,0.3236497214816734 l -4.546862195041463 4.808632528114557" fill="#ff1d02" stroke="none" /><path d="M 114.94478906791727 85.2469230424477 l 29.193958178819937 -28.819457387478344 a62.022534273925196,62.022534273925196 0 0,0 0.7434899205926531,0.766231717779828 l -29.685712363115698 28.3126614741484" fill="#30ff35" stroke="none" /><path d="M 115.19652480421416 85.50635884689758 l 8.614551232425159 -8.216103080565002 a32.90440434320624,32.90440434320624 0 0,0 0.38738304784464805,0.41323322593876416 l -8.75470160224027 8.066600437748182" fill="#ff6c09" stroke="none" /><path d="M 115.68641384162765 86.03803664274999 l 18.73267112489918 -16.673337224801873 a46.07814071428732,46.07814071428732 0 0,0 0.5222367810097717,0.5970069184499606 l -19.016899769486802 16.348414750148965" fill="#e0ff1b" stroke="none" /><path d="M 116.15771136456269 86.58626213691792 l 18.66306481318659 -15.493621186651957 a45.256180360820906,45.256180360820906 0 0,0 0.49243359310998036,0.6036653591493765 l -18.92699689837298 15.17007165789448" fill="#eaff1a" stroke="none" /><path d="M 116.60985879189232 87.15038557335679 l 25.3520912919699 -19.61272531527395 a53.05288640931989,53.05288640931989 0 0,0 0.5525686999178762,0.7271156377169748 l -25.68593593211189 19.17342490167594" fill="#8cff24" stroke="none" /><path d="M 117.04232023915458 87.72973835380427 l 17.941893399935033 -12.917943293869024 a43.10847796023616,43.10847796023616 0 0,0 0.4283902537982732,0.6059276335663175 l -18.16159627353719 12.607189159970913" fill="#fff817" stroke="none" /><path d="M 117.45458315368197 88.32363383020206 l 13.418557072047204 -8.976438134559741 a37.144166608387266,37.144166608387266 0 0,0 0.35092988723475466,0.5344902941742047 l -13.571083594639884 8.744129776407863" fill="#ffa80f" stroke="none" /><path d="M 117.65298651832404 88.62581576622439 l 8.366609278586767 -5.390779358941982 a30.952921828153233,30.952921828153233 0 0,0 0.2847262053693042,0.45036847974811967 l -8.458163080202025 5.2459632314796565" fill="#ff4f07" stroke="none" /><line stroke="#e1ed5e" stroke-width="0.3" x1="172.23445277983987" x2="176.4835382374775" y1="55.19839476539836" y2="52.563006222186495" /><path d="M 173.08426987136738 54.67131705675599 a86.0,86.0 0 0,1 12.851231095245387,41.99856678651699" fill="none" id="id123" stroke="none" /><text fill="#e1ed5e" style="font-size:6.75px; font-family:Arial;" text-anchor="middle"><textPath startOffset="22.20632615414155" xlink:href="#id123">March</textPath></text><path d="M 118.03404312379186 89.2402003453031 l 54.10212937137558 -32.279398964090696 a84.0,84.0 0 0,0 0.7301613021186908,1.2480823505844187 l -54.6497503479646 31.34333720115238" fill="#4dd2ff" stroke="none" /><path d="M 118.3937258080291 89.86733742301442 l 4.146216275156684 -2.284051144713152 a25.73370880304647,25.73370880304647 0 0,0 0.21039377993112252,0.38982772093495205 l -4.1849181543062715 2.2123424404457412" fill="#ff0000" stroke="none" /><path d="M 118.56541770881063 90.18545643968196 l 12.565711094638813 -6.6428195066237015 a35.213519842442594,35.213519842442594 0 0,0 0.278674039192525,0.5383095435547941 l -12.678194566991454 6.425537240808563" fill="#ff8d0d" stroke="none" /><path d="M 118.73160827565052 90.50648371742162 l 16.597406667244176 -8.411864487305252 a39.607347264741115,39.607347264741115 0 0,0 0.30297732150275614,0.6107837922227979 l -16.73974400170034 8.124921106583503" fill="#ffca12" stroke="none" /><path d="M 119.04729006885535 91.15688171328212 l 11.675302534480261 -5.420512890410903 a33.87224336573668,33.87224336573668 0 0,0 0.2409730799092715,0.5309522393879031 l -11.766877931352878 5.218738642180937" fill="#ff7a0b" stroke="none" /><path d="M 119.196687751892 91.48605970444005 l 6.634588566742736 -2.9425123580126487 a28.257833314909526,28.257833314909526 0 0,0 0.1933768174794998,0.44634035631831825 l -6.684256094064917 2.8278728571077276" fill="#ff2703" stroke="none" /><path d="M 119.47837535516314 92.15188598940014 l 20.971783233389626 -8.449829250138183 a43.610070905345985,43.610070905345985 0 0,0 0.27454917446681576,0.6986977025080504 l -21.114125957738143 8.08758254273435" fill="#ffff18" stroke="none" /><path d="M 119.7369772167798 92.82701384747503 l 20.09592040031331 -7.3034364467493615 a42.38191293283732,42.38191293283732 0 0,0 0.24328614444954416,0.6878026916234057 l -20.218659625572666 6.956436128699342" fill="#ffef16" stroke="none" /><path d="M 120.08093135843002 93.85539295169968 l 32.100560244651696 -9.822518946606115 a54.56974599958941,54.56974599958941 0 0,0 0.26711657547000317,0.9005843017220856 l -32.2648827172334 9.268505258137498" fill="#7bff26" stroke="none" /><path d="M 120.28053869075195 94.5502522615342 l 18.875399467298287 -5.072161402027006 a40.54501282522723,40.54501282522723 0 0,0 0.17531599470934547,0.6755640435102244 l -18.959911793877936 4.746500932967931" fill="#ffd614" stroke="none" /><path d="M 120.37134235888165 94.90015583598534 l 9.657162544403388 -2.417613094678764 a30.95518163995966,30.95518163995966 0 0,0 0.12495162214462265,0.5180051421403538 l -9.69734696680883 2.2510227208790043" fill="#ff4f07" stroke="none" /><path d="M 120.45610955862082 95.25157060432595 l 18.779455903710936 -4.35923166095703 a40.278767199001955,40.278767199001955 0 0,0 0.1509602411047462,0.6767251605439402 l -18.85171053181772 4.035328330863126" fill="#ffd313" stroke="none" /><path d="M 120.67395015179393 96.31383870115 l 29.7268668073391 -5.3002945811869155 a51.195690633410564,51.195690633410564 0 0,0 0.14721964073991514,0.8688986532730129 l -29.813698309599236 4.787810139598065" fill="#a2ff22" stroke="none" /><path d="M 120.78858239683441 97.02765380044208 l 7.322112154610219 -1.0469137250458491 a28.39657723223249,28.39657723223249 0 0,0 0.06502004982804259,0.4844748938310982 l -7.339048203496097 0.9207204891500864" fill="#ff2904" stroke="none" /><path d="M 120.83666639777658 97.38593545837742 l 14.245894944831198 -1.7872191322762307 a35.357565079286296,35.357565079286296 0 0,0 0.07056300338692954,0.6045407209192509 l -14.274548301221717 1.541734673032127" fill="#ff8f0d" stroke="none" /><path d="M 120.96714384426684 98.82574320788733 l 32.762591349817114 -1.8348562734859097 a53.81393133258284,53.81393133258284 0 0,0 0.04383629485099434,0.9253149006261056 l -32.78932125290161 1.2706302662368045" fill="#83ff25" stroke="none" /><line stroke="#e1ed5e" stroke-width="0.3" x1="184.98032266829074" x2="189.97916517819016" y1="98.17113171792111" y2="98.06355123074" /><path d="M 185.9800911702706 98.14961562048488 a86.0,86.0 0 0,1 -9.607161424134198,41.387399972396054" fill="none" id="id124" stroke="none" /><text fill="#e1ed5e" style="font-size:6.75px; font-family:Arial;" text-anchor="middle"><textPath startOffset="21.466115282336823" xlink:href="#id124">April</textPath></text><path d="M 120.99513854157772 99.54816195383933 l 17.225711967761153 -0.3707159171074821 a38.22970060933929,38.22970060933929 0 0,0 0.008496082887411997,0.6580309826419042 l -17.229541057766284 0.07414867640511519" fill="#ffb711" stroke="none" /><path d="M 120.99980553446 99.90962569577887 l 16.148792516288072 -0.06949759059797198 a37.148942059751796,37.148942059751796 0 0,0 -0.0027520338025929228,0.6394757356838457 l -16.147596185195976 -0.20848762328955847" fill="#ffa80f" stroke="none" /><path d="M 120.9904718944345 100.63252640178507 l 19.165320324194393 0.5775273259547435 a40.1740199473455,40.1740199473455 0 0,0 -0.026778599716955006,0.6910366706616368 l -19.152539591626233 -0.9073412436303864" fill="#ffd113" stroke="none" /><path d="M 120.9764740272857 100.99374915477107 l 33.021268983635544 1.564364826007983 a54.05830368604024,54.05830368604024 0 0,0 -0.052034075348809466,0.9291033698676648 l -32.98944855739921 -2.1325399122110715" fill="#81ff25" stroke="none" /><path d="M 120.92983693683757 101.71520430193887 l 15.967698667092582 1.308556083284946 a37.02122716105643,37.02122716105643 0 0,0 -0.05751583249750333,0.6346824188929276 l -15.942808238318005 -1.5832198907264443" fill="#ffa60f" stroke="none" /><path d="M 120.89721153311464 102.0752229133903 l 17.11616111170252 1.6997411196225263 a38.20035148116146,38.20035148116146 0 0,0 -0.07061189173093199,0.6537784203630088 l -17.084366918470536 -1.9941158618703265" fill="#ffb710" stroke="none" /><path d="M 120.81339534386255 102.79330883721812 l 21.473979898396642 2.881964082718651 a42.66650709391856,42.66650709391856 0 0,0 -0.10395582501272638,0.7270667980161306 l -21.421190022367313 -3.251176352715191" fill="#fff216" stroke="none" /><path d="M 120.64145759157962 103.86396538481128 l 31.82011165156512 5.956546887107144 a53.37282743809036,53.37282743809036 0 0,0 -0.1768167229593457,0.9015846610111381 l -31.71286499563011 -6.503395275186227" fill="#88ff25" stroke="none" /><path d="M 120.49622156327973 104.57218783832717 l 21.29187910726594 4.749678881486289 a42.81521408090383,42.81521408090383 0 0,0 -0.1666519699302526,0.7179323247722521 l -21.206966571405136 -5.1154798636071055" fill="#fff417" stroke="none" /><path d="M 120.32669344350535 105.2749913415812 l 12.387457973098194 3.2146759990209945 a33.79778327734751,33.79778327734751 0 0,0 -0.15098262212531824,0.5618625038423738 l -12.330287274631099 -3.4274294360389166" fill="#ff790b" stroke="none" /><path d="M 120.23288151984713 105.62410040840565 l 4.566006230220548 1.2692051539458722 a25.739123823790177,25.739123823790177 0 0,0 -0.1223311465578417,0.42585076950656264 l -4.543482446776607 -1.347613398957017" fill="#ff0000" stroke="none" /><path d="M 120.02730092923936 106.31721596034902 l 59.89668277323602 18.893223890924965 a83.80578409852302,83.80578409852302 0 0,0 -0.4457978806411624,1.3720247981569338 l -59.56259264157862 -19.921447589059692" fill="#4dd4ff" stroke="none" /><path d="M 119.41010516605496 108.01547362559984 l 13.326079565652172 5.50305309411364 a35.41762775031753,35.41762775031753 0 0,0 -0.23754943414896548,0.5614966913597007 l -13.229379150310898 -5.7316243111395035" fill="#ff900d" stroke="none" /><path d="M 118.81262510543309 109.33194174019688 l 4.245633379790639 2.1060326843487216 a25.739280162971752,25.739280162971752 0 0,0 -0.20030225728460674,0.3952153563026014 l -4.208752452719763 -2.1788022523540174" fill="#ff0000" stroke="none" /><line stroke="#e1ed5e" stroke-width="0.3" x1="174.80103733775053" x2="179.2010983576182" y1="140.37084112569926" y2="142.7455964860345" /><path d="M 175.68104954172406 140.8457921977663 a86.0,86.0 0 0,1 -30.038265399797805,32.042727171017184" fill="none" id="id125" stroke="none" /><text fill="#e1ed5e" style="font-size:6.75px; font-family:Arial;" text-anchor="middle"><textPath startOffset="22.206326154141568" xlink:href="#id125">May</textPath></text><path d="M 118.30583269289576 110.29060199501025 l 14.869081067758088 8.358636171695276 a38.05744325654741,38.05744325654741 0 0,0 -0.32593120005876836,0.5682885201250744 l -14.72299787154694 -8.613344537678666" fill="#ffb510" stroke="none" /><path d="M 118.12598468904814 110.60418214915192 l 7.563158882923327 4.424648690448995 a29.76235632248735,29.76235632248735 0 0,0 -0.26250274167659227,0.4399696941794592 l -7.485875265548507 -4.554180478514558" fill="#ff3e05" stroke="none" /><path d="M 117.35343817320211 111.8261652097733 l 5.677580569752434 3.869204773113931 a27.870638012755293,27.870638012755293 0 0,0 -0.27358228746485047,0.3941156898242993 l -5.610137375125448 -3.96636172512525" fill="#ff2103" stroke="none" /><path d="M 116.71984013943494 112.70617746262583 l 20.672590693200085 15.710054867121748 a46.96462651178635,46.96462651178635 0 0,0 -0.4946788198241289,0.6394390579986603 l -20.39910505615789 -16.063571919233663" fill="#d5ff1c" stroke="none" /><path d="M 116.498646956653 112.99209946851258 l 11.886643369055529 9.360310175934195 a36.129695871788336,36.129695871788336 0 0,0 -0.3889655752150967,0.4852943612721087 l -11.723759881785577 -9.563532370784554" fill="#ff9a0e" stroke="none" /><path d="M 115.80600337817218 113.82643327865902 l 10.846225166664345 9.487825923110677 a35.41039351000638,35.41039351000638 0 0,0 -0.4052654624095214,0.45532004320676694 l -10.681300854606485 -9.67312013605831" fill="#ff900d" stroke="none" /><path d="M 115.07121518719521 114.62390073753431 l 7.970903355919417 7.734326530250939 a32.10653443635552,32.10653443635552 0 0,0 -0.38827406748046517,0.39331958043283805 l -7.8365886633834165 -7.870386604664442" fill="#ff6008" stroke="none" /><path d="M 114.55890576462653 115.13401014063108 l 7.3285883312049735 7.618081462581112 a31.57087376231481,31.57087376231481 0 0,0 -0.3948827244919792,0.3733862633440941 l -7.196369772322187 -7.743102362671128" fill="#ff5808" stroke="none" /><path d="M 114.29624159901734 115.38237550388516 l 7.897240930816741 8.497221077379145 a32.60039569830373,32.60039569830373 0 0,0 -0.4143362047350369,0.3784862992088616 l -7.7498051766148395 -8.631900143174589" fill="#ff6709" stroke="none" /><path d="M 114.0293411484842 115.62618273729858 l 8.432777634846879 9.39260959659243 a33.62271181928725,33.62271181928725 0 0,0 -0.43398538831599354,0.38294164657299307 l -8.269849893624299 -9.536374384937714" fill="#ff760a" stroke="none" /><path d="M 113.75828350139079 115.86535959552629 l 11.413732220782812 13.161741142451302 a38.42138665860531,38.42138665860531 0 0,0 -0.5033833289316365,0.4289941935836388 l -11.185483415274128 -13.356259726257887" fill="#ffba11" stroke="none" /><path d="M 112.92097659922987 116.55440617244103 l 8.49918426133065 10.889188391910855 a34.813419451481835,34.813419451481835 0 0,0 -0.47556999540647293,0.3646467931327492 l -8.310485537430683 -11.033874526870974" fill="#ff870c" stroke="none" /><path d="M 112.63410532772338 116.77436683061366 l 5.134859282673716 6.817579163452465 a29.53499651451608,29.53499651451608 0 0,0 -0.40872923265493766,0.3023681149822169 l -5.016745079600215 -6.904957227174451" fill="#ff3a05" stroke="none" /><path d="M 112.34349029814194 116.9893568818739 l 10.762150033006622 14.812828730828553 a39.30966325036603,39.30966325036603 0 0,0 -0.5508456974307482,0.3930137792564651 l -10.50557700772699 -14.995886771929237" fill="#ffc612" stroke="none" /><path d="M 112.04921762599082 117.19931262002967 l 9.818410588895373 14.01501063321817 a38.11203405622345,38.11203405622345 0 0,0 -0.5405431884125887,0.3717905339261231 l -9.575710515859901 -14.181941956509387" fill="#ffb510" stroke="none" /><path d="M 111.7513745106137 117.40417183066458 l 4.553958189357755 6.744561733238927 a29.138037119839737,29.138037119839737 0 0,0 -0.41809656253627697,0.27709160354031503 l -4.437186928081514 -6.82195135787056" fill="#ff3405" stroke="none" /><line stroke="#e1ed5e" stroke-width="0.3" x1="143.8653032363475" x2="146.44561519142675" y1="172.8068346515853" y2="177.08958963109032" /><path d="M 144.38136562736335 173.6633856474863 a86.0,86.0 0 0,1 -40.68145358897372,12.25698825130547" fill="none" id="id126" stroke="none" /><text fill="#e1ed5e" style="font-size:6.75px; font-family:Arial;" text-anchor="middle"><textPath startOffset="21.466115282336833" xlink:href="#id126">June</textPath></text><path d="M 109.89434966115114 118.52300852407294 l 4.486605774603972 8.399282403920568 a30.522477423313713,30.522477423313713 0 0,0 -0.46555367600557285,0.24355567986054488 l -4.341361196071904 -8.47526750272583" fill="#ff4906" stroke="none" /><path d="M 109.57404056367764 118.69057910512821 l 6.484133969225048 12.658419198664506 a35.22250223905682,35.22250223905682 0 0,0 -0.5420006647707825,0.2717703850653009 l -6.265279396771505 -12.76815742463911" fill="#ff8d0d" stroke="none" /><path d="M 108.92500713936063 119.00905698771935 l 6.258742122094707 13.330273445457523 a35.726440271890304,35.726440271890304 0 0,0 -0.5589180488866524,0.25657186304468976 l -6.028356077440635 -13.436032378836288" fill="#ff940d" stroke="none" /><path d="M 108.2653958097858 119.30500536409082 l 5.655495557097716 13.209212792580418 a35.36899205219427,35.36899205219427 0 0,0 -0.5617413475340121,0.23480792882778928 l -5.427282750066242 -13.30460576442818" fill="#ff8f0d" stroke="none" /><path d="M 107.93186726928326 119.44442032107085 l 4.645592987090827 11.388347738927246 a33.29943081709218,33.29943081709218 0 0,0 -0.5325989043458685,0.21193209562791263 l -4.448873006703091 -11.466626678961228" fill="#ff720a" stroke="none" /><path d="M 107.59598834532513 119.57807347666477 l 5.557325540563451 14.323577501781969 a36.3638777531375,36.3638777531375 0 0,0 -0.5855099979508923,0.22138978112605642 l -5.309945321852284 -14.417115533014655" fill="#ff9d0e" stroke="none" /><path d="M 106.91757812671514 119.82793768551818 l 9.878030396922881 28.313517762732854 a50.98717680314573,50.98717680314573 0 0,0 -0.831164469133224,0.2819761152578406 l -9.38919619485243 -28.479356864888818" fill="#a4ff21" stroke="none" /><path d="M 106.57524785965236 119.94407469862006 l 6.0166661898529 18.249781983645597 a40.21600412392531,40.21600412392531 0 0,0 -0.6593100859810571,0.21109026920484705 l -5.701634758780903 -18.35064509951015" fill="#ffd213" stroke="none" /><path d="M 105.88484417918355 120.15858648285463 l 3.990786952925834 13.670476477486712 a35.24107817635872,35.24107817635872 0 0,0 -0.5837748904735323,0.1649806152175909 l -3.754880894347696 -13.737145886042823" fill="#ff8d0d" stroke="none" /><path d="M 105.53697534728816 120.25689768951611 l 4.852865028124018 17.754095730963527 a39.40538546744964,39.40538546744964 0 0,0 -0.6558361345509799,0.17321228393678273 l -4.546538450761541 -17.83499936420389" fill="#ffc712" stroke="none" /><path d="M 104.83641907484287 120.43548508189849 l 2.908744918977747 12.29041827826904 a33.62993184694552,33.62993184694552 0 0,0 -0.5644701596828374,0.12847157058675363 l -2.6967546099020474 -12.33866658243348" fill="#ff760a" stroke="none" /><path d="M 104.48393922423573 120.51570834832081 l 6.406376311213583 29.31158104464523 a51.003507141294065,51.003507141294065 0 0,0 -0.8593083963636922,0.18007642935705245 l -5.900876453420512 -29.417513454728823" fill="#a4ff21" stroke="none" /><path d="M 103.41894727170886 120.7198165907248 l 1.5877283008287364 9.622096094109029 a30.752210744314375,30.752210744314375 0 0,0 -0.523027942505806,0.08168620800649411 l -1.4218644947144135 -9.64800060946263" fill="#ff4c07" stroke="none" /><path d="M 103.06178313531738 120.77559828337769 l 2.7684503485150147 18.785201226298778 a39.98810423514496,39.98810423514496 0 0,0 -0.6818379437736298,0.0944965260855318 l -2.4446838135545543 -18.830072317876912" fill="#ffcf13" stroke="none" /><path d="M 102.34483914955558 120.86867818915974 l 2.2757159954131794 20.253493621173057 a41.380944216465466,41.380944216465466 0 0,0 -0.7085351743772805,0.07344256784974759 l -1.926748224430296 -20.28966555747856" fill="#ffe115" stroke="none" /><path d="M 100.90346689309514 120.98055641714683 l 0.20353609984796084 4.726571231798834 a25.73095154838957,25.73095154838957 0 0,0 -0.44266995840374973,0.015246448419286936 l -0.1221457897695588 -4.729374478644215" fill="#ff0000" stroke="none" /><line stroke="#e1ed5e" stroke-width="0.3" x1="102.19456741930631" x2="102.32365962044197" y1="184.97166512339345" y2="189.96999836594603" /><path d="M 102.22038585953345 185.97133177190398 a86.0,86.0 0 0,1 -42.740103519485714,-10.115201625700543" fill="none" id="id127" stroke="none" /><text fill="#e1ed5e" style="font-size:6.75px; font-family:Arial;" text-anchor="middle"><textPath startOffset="22.20632615414155" xlink:href="#id127">July</textPath></text><path d="M 100.54218724476979 120.99299961872073 l 0.4821703665922639 18.669200390960107 a39.67542587199137,39.67542587199137 0 0,0 -0.6828713443244299,0.011756249473689665 l -0.16073933237516616 -18.674734117712955" fill="#ffcb12" stroke="none" /><path d="M 99.81925306533755 120.99922214144158 l -0.17505173868252993 20.337552909016164 a41.33830625785362,41.33830625785362 0 0,0 -0.7114919158643084,-0.012248978568121455 l 0.5251033444395062 -20.331526453168884" fill="#ffe115" stroke="none" /><path d="M 99.09653310690486 120.98055641714683 l -0.3670160624018488 8.5229478380125 a29.53084641987786,29.53084641987786 0 0,0 -0.5076660908297482,-0.02624053812717425 l 0.5136702216450859 -8.515367493123124" fill="#ff3a05" stroke="none" /><path d="M 98.73552117531835 120.96189622390904 l -0.7708694712868297 12.779087750530257 a33.80231711361324,33.80231711361324 0 0,0 -0.5804940153870765,-0.040034265990526986 l 0.9907262474528362 -12.763925140023444" fill="#ff790b" stroke="none" /><path d="M 98.01472825383883 120.90594882070398 l -1.645932060618617 17.332524621974372 a38.41049976650642,38.41049976650642 0 0,0 -0.6576744601963893,-0.06817064686797852 l 1.9440391174205995 -17.30162460665063" fill="#ffb911" stroke="none" /><path d="M 97.2962882734958 120.8252237178851 l -2.0970117143214844 16.152142871472254 a37.28770018972763,37.28770018972763 0 0,0 -0.6357933018256591,-0.088115158271272 l 2.3747336073339746 -16.113653147708376" fill="#ffaa0f" stroke="none" /><path d="M 96.58105272829116 120.7198165907248 l -1.2635851932140896 7.657694421553824 a28.761245479586794,28.761245479586794 0 0,0 -0.4877784361571281,-0.08480653350487141 l 1.3952126008432677 -7.634809309527947" fill="#ff2e04" stroke="none" /><path d="M 96.22490169976321 120.6578951692458 l -2.0798831383765526 11.381427560222662 a32.56990955789625,32.56990955789625 0 0,0 -0.5506367944535264,-0.10553085218363176 l 2.2754875474017737 -11.34393950969056" fill="#ff6709" stroke="none" /><path d="M 95.51606077576429 120.51570834832081 l -4.227335221904867 19.341648529584354 a40.798225448770154,40.798225448770154 0 0,0 -0.6847882100580387,-0.15585556713020424 l 4.559643581355768 -19.266016228876467" fill="#ffda14" stroke="none" /><path d="M 94.81253420990036 120.34920634021253 l -4.2148763701696055 16.533967148035856 a38.06274457606815,38.06274457606815 0 0,0 -0.633490142960046,-0.16731050445806034 l 4.49885695594114 -16.458965294274215" fill="#ffb510" stroke="none" /><path d="M 93.42475214034765 119.94407469862007 l -4.533827771381459 13.752029075279733 a35.48012078498964,35.48012078498964 0 0,0 -0.5783771058926185,-0.19621691678392947 l 4.769874610211303 -13.67194917159768" fill="#ff910d" stroke="none" /><path d="M 93.08242187328487 119.8279376855182 l -7.294195183549982 20.907439701604684 a43.14331317242204,43.14331317242204 0 0,0 -0.6990869315333845,-0.25066770132620914 l 7.653001675713093 -20.778784459238516" fill="#fff917" stroke="none" /><path d="M 92.40401165467489 119.57807347666478 l -6.219238484735231 16.029607009334637 a38.19381366084098,38.19381366084098 0 0,0 -0.610880811155288,-0.24308208190181332 l 6.494240371932377 -15.920178083026759" fill="#ffb610" stroke="none" /><path d="M 92.06813273071674 119.44442032107085 l -3.7602104510191876 9.217894100225825 a30.95533797914124,30.95533797914124 0 0,0 -0.49164231890217874,-0.20550652917448411 l 3.9183242294188285 -9.151802528031368" fill="#ff4f07" stroke="none" /><path d="M 91.40352486487194 119.15986991738527 l -12.282702055104242 27.37575226014918 a51.004942619234,51.004942619234 0 0,0 -0.7979407630697483,-0.36629546780233857 l 12.752110813941409 -27.16026972201277" fill="#a4ff21" stroke="none" /><path d="M 91.07499286063937 119.00905698771935 l -2.5469030360592058 5.424558680869935 a26.99270823228438,26.99270823228438 0 0,0 -0.41888484139366944,-0.20109017945885468 l 2.6399005454531173 -5.379914224911518" fill="#ff1402" stroke="none" /><path d="M 90.7491055286396 118.85261126421891 l -10.196323627411797 20.779323152682885 a44.14617217162568,44.14617217162568 0 0,0 -0.6793172870488048,-0.3406237901218187 l 10.55249482214336 -20.600731521651763" fill="#f9ff18" stroke="none" /><path d="M 90.10565033884886 118.52300852407294 l -9.92410411636281 18.578711227776537 a42.06315155425511,42.06315155425511 0 0,0 -0.6357087982967956,-0.34663912347188486 l 10.242435726528246 -18.40513145254489" fill="#ffea16" stroke="none" /><line stroke="#e1ed5e" stroke-width="0.3" x1="58.666819895761336" x2="56.23545636021788" y1="174.27360380694188" y2="178.64263932499728" /><path d="M 58.180547188652646 175.14741091055294 a86.0,86.0 0 0,1 -31.652253787137756,-30.449443065178592" fill="none" id="id128" stroke="none" /><text fill="#e1ed5e" style="font-size:6.75px; font-family:Arial;" text-anchor="middle"><textPath startOffset="22.20632615414155" xlink:href="#id128">August</textPath></text><path d="M 89.7882731507175 118.34994917583269 l -7.39464465471776 13.28779701906616 a36.206785300958565,36.206785300958565 0 0,0 -0.5419832192940682,-0.3077522168083103 l 7.622276640933035 -13.158541636463216" fill="#ff9b0e" stroke="none" /><path d="M 89.4739219176387 118.17145234162733 l -7.4085858598743215 12.789641480729006 a35.78046256545152,35.78046256545152 0 0,0 -0.5302871209445121,-0.31330297812025126 l 7.627640851847215 -12.660219930315005" fill="#ff950d" stroke="none" /><path d="M 88.8546689885994 117.79835938074946 l -4.472429059201984 7.1421745679118045 a29.426937714740777,29.426937714740777 0 0,0 -0.42699635389110635,-0.27252927568655705 l 4.594707215140013 -7.064130863401443" fill="#ff3805" stroke="none" /><path d="M 88.54995079064634 117.60387380957326 l -9.516156467153866 14.630611147337357 a38.45313772511827,38.45313772511827 0 0,0 -0.5517573004483334,-0.3656746523311522 l 9.76658846634216 -14.464638473914887" fill="#ffba11" stroke="none" /><path d="M 87.95078237400918 117.19931262002967 l -11.742753825710295 16.76185959433469 a41.465879030020275,41.465879030020275 0 0,0 -0.5810607154885177,-0.41457139238220075 l 12.029541869047701 -16.557243940108272" fill="#ffe315" stroke="none" /><path d="M 87.07902340077011 116.55440617244103 l -13.61724259499962 17.446464911926586 a43.13161615910952,43.13161615910952 0 0,0 -0.5813371800393748,-0.46184941468247703 l 13.915537267756354 -17.20948158323898" fill="#fff817" stroke="none" /><path d="M 86.51685102203217 116.09983520530335 l -9.134426063938307 10.907151924579528 a35.2268655234881,35.2268655234881 0 0,0 -0.46152985035661975,-0.39332575115018853 l 9.320821390871982 -10.748301783206388" fill="#ff8d0d" stroke="none" /><path d="M 86.24171649860922 115.8653595955263 l -9.315430026650887 10.742084733523594 a35.21863639747601,35.21863639747601 0 0,0 -0.4545847959875361,-0.401118228791068 l 9.49895717554501 -10.580143362960237" fill="#ff8d0d" stroke="none" /><path d="M 85.97065885151581 115.62618273729859 l -14.555773369521932 16.21253429847838 a42.7879968506566,42.7879968506566 0 0,0 -0.5438159827071929,-0.49676300645051835 l 14.83268890169598 -15.959578525441287" fill="#fff417" stroke="none" /><path d="M 85.44109423537348 115.13401014063109 l -4.926682709730203 5.121296015933204 a28.10632643530874,28.10632643530874 0 0,0 -0.3457747987192137,-0.3384134164948797 l 5.014107460825211 -5.035732496515754" fill="#ff2503" stroke="none" /><path d="M 85.18274418774928 114.88116024355367 l -6.174933507295778 6.20156499824911 a29.75152628099994,29.75152628099994 0 0,0 -0.35979423895079143,-0.36446966449387225 l 6.280768371302103 -6.0943548397745735" fill="#ff3d05" stroke="none" /><path d="M 84.43433777217949 114.09645910891817 l -8.438319643341973 7.641848195045052 a32.3843349493646,32.3843349493646 0 0,0 -0.37063277690970525,-0.41640985390914886 l 8.568611269900016 -7.495464171395039" fill="#ff6409" stroke="none" /><path d="M 84.19399662182784 113.82643327865904 l -8.562941651956141 7.49050462581347 a32.37680224334318,32.37680224334318 0 0,0 -0.3633255221328302,-0.4226296643247002 l 8.69060968365975 -7.341997862327239" fill="#ff6409" stroke="none" /><path d="M 83.50135304334701 112.99209946851258 l -11.177334836752777 8.801754857443322 a35.2268655234881,35.2268655234881 0 0,0 -0.37104488117006795,-0.4796255262656391 l 11.327186535140914 -8.608051337064431" fill="#ff8d0d" stroke="none" /><path d="M 82.85270091963577 112.12312394758628 l -15.565564442082364 11.004839080552033 a40.06287700189728,40.06287700189728 0 0,0 -0.3932631010307674,-0.5665248279828751 l 15.752688450275263 -10.735272990382146" fill="#ffd013" stroke="none" /><path d="M 82.44556493220864 111.52570212397912 l -21.818975469843707 14.32566818269396 a47.10157963484761,47.10157963484761 0 0,0 -0.4391552485600929,-0.6815786981242851 l 22.062335581780847 -13.947967884648227" fill="#d3ff1c" stroke="none" /><line stroke="#e1ed5e" stroke-width="0.3" x1="26.63291911575756" x2="22.317208475507996" y1="142.92168965132927" y2="145.44649492493687" /><path d="M 25.769776987707644 143.4266507060508 a86.0,86.0 0 0,1 -11.730757126820373,-40.83630448921669" fill="none" id="id129" stroke="none" /><text fill="#e1ed5e" style="font-size:6.75px; font-family:Arial;" text-anchor="middle"><textPath startOffset="21.46611528233685" xlink:href="#id129">September</textPath></text><line stroke="#e1ed5e" stroke-width="0.3" x1="15.007084014347285" x2="10.007500721073583" y1="101.09737516637583" y2="101.16192664675087" /><path d="M 14.007167355692545 101.11028546245083 a86.0,86.0 0 0,1 10.666146001902534,-42.60595125391555" fill="none" id="id130" stroke="none" /><text fill="#e1ed5e" style="font-size:6.75px; font-family:Arial;" text-anchor="middle"><textPath startOffset="22.20632615414155" xlink:href="#id130">October</textPath></text><line stroke="#e1ed5e" stroke-width="0.3" x1="26.266209847984243" x2="21.928928074336255" y1="57.711370442889674" y2="55.22380399835377" /><path d="M 25.398753493254645 57.213857153982495 a86.0,86.0 0 0,1 29.58750427330803,-30.492523968695096" fill="none" id="id131" stroke="none" /><text fill="#e1ed5e" style="font-size:6.75px; font-family:Arial;" text-anchor="middle"><textPath startOffset="21.46611528233685" xlink:href="#id131">November</textPath></text><line stroke="#e1ed5e" stroke-width="0.3" x1="56.762969772571076" x2="54.21961505331055" y1="26.818313649435495" y2="22.513508569990535" /><path d="M 56.25429882871897 25.957352633546506 a86.0,86.0 0 0,1 42.265352541879196,-11.944610805530505" fill="none" id="id132" stroke="none" /><text fill="#e1ed5e" style="font-size:6.75px; font-family:Arial;" text-anchor="middle"><textPath startOffset="22.20632615414155" xlink:href="#id132">December</textPath></text></svg>