<?xml version="1.0" encoding="utf-8" ?>
<svg baseProfile="full" height="200mm" version="1.1" viewBox="0,0,200,200" width="200mm" xmlns="http://www.w3.org/2000/svg" xmlns:ev="http://www.w3.org/2001/xml-events" xmlns:xlink="http://www.w3.org/1999/xlink"><defs /><rect fill="#1a1a1a" height="200" width="200" x="0" y="0" /><text alignment-baseline="middle" fill="#e1ed5e" style="dominant-baseline: central; font-size:9.0px; font-family:Arial;" text-anchor="middle" x="100.0" y="100.0">2023</text><line stroke="#e1ed5e" stroke-width="0.3" x1="100.0" x2="100.0" y1="15.0" y2="10.0" /><path d="M 100.0 14.0 a86.0,86.0 0 0,1 42.46469731375804,11.215312516191453" fill="none" id="id97" stroke="none" /><text fill="#e1ed5e" style="font-size:6.75px; font-family:Arial;" text-anchor="middle"><textPath startOffset="22.20632615414155" xlink:href="#id97">January</textPath></text><path d="M 100.0 79.0 l 0.0 -0.8263106429804417 a21.82631064298044,21.82631064298044 0 0,0 0.3757040586655075,0.003233803446938516 l -0.014223579392979102 0.8261882161420621" fill="#ff0a01" stroke="none" /><path d="M 100.36148047927253 79.00311137660856 l 0.024811624521549287 -1.441203457771255 a22.44141701925682,22.44141701925682 0 0,0 0.38617763710685704,0.009973829031462468 l -0.04961589682327413 1.440562836597433" fill="#ff1302" stroke="none" /><path d="M 100.72285384407766 79.0124445844662 l 0.04544176825334969 -1.3193699351684685 a22.3201522564191,22.3201522564191 0 0,0 0.38386321951770025,0.016529957710163863 l -0.06814582016038148 1.31839225093411" fill="#ff1101" stroke="none" /><path d="M 101.08401301168833 79.027996857942 l 0.06963483068344174 -1.3471995927570097 a22.3489980549908,22.3489980549908 0 0,0 0.3840174604119228,0.023164981918242514 l -0.09281433993497647 1.3458013414584633" fill="#ff1201" stroke="none" /><path d="M 101.44485096284872 79.0497635885617 l 0.11243799798950181 -1.6303429904386133 a22.634215582432198,22.634215582432198 0 0,0 0.3884568262855398,0.030151726023252928 l -0.14048501363738275 1.6281660022268958" fill="#ff1602" stroke="none" /><path d="M 101.80526077348638 79.07773832637324 l 0.4427486142496068 -5.1312821388548375 a26.150347825530876,26.150347825530876 0 0,0 0.44813586191708726,0.042555899889343385 l -0.5310096032569382 5.1229006944503155" fill="#ff4706" stroke="none" /><path d="M 102.16513564639614 79.11191278185805 l 0.16753939145630412 -1.6163317190028035 a22.624991591837972,22.624991591837972 0 0,0 0.38703096726670017,0.043487438730486334 l -0.19533706223272954 1.6132083268017163" fill="#ff1502" stroke="none" /><path d="M 102.52436894288641 79.15227682838746 l 0.41200944039396614 -3.402616238656094 a24.427469773249634,24.427469773249634 0 0,0 0.4169946730252275,0.05413787638592397 l -0.47051884192703974 3.3950200391060332" fill="#ff2f04" stroke="none" /><path d="M 103.2404852339499 79.25152402106235 l 0.19004278425737314 -1.2168233642367814 a22.231574341889605,22.231574341889605 0 0,0 0.37758825091925613,0.062305296702655125 l -0.21096024131550445 1.2133718045945017" fill="#ff1001" stroke="none" /><path d="M 103.59715602781102 79.31037775812273 l 0.4105688462782028 -2.3614528444429324 a23.396878452083424,23.396878452083424 0 0,0 0.39619257754872733,0.07240166114780568 l -0.451156544929831 2.354035701944388" fill="#ff2003" stroke="none" /><path d="M 105.36241919743992 79.69619591428918 l 0.032952407926499915 -0.12476817086800943 a21.12904633915731,21.12904633915731 0 0,0 0.3508449074835323,0.09589916645841048 l -0.035095204633743084 0.12418246358330531" fill="#ff0000" stroke="none" /><path d="M 105.71112130821622 79.79150937346287 l 0.0634114685073386 -0.22437801576758098 a21.23316626749608,21.23316626749608 0 0,0 0.3508626858821946,0.10242643929735087 l -0.06726437211296032 0.22325324755152662" fill="#ff0200" stroke="none" /><path d="M 106.0581310904928 79.89281104454417 l 0.0781499840466823 -0.25938304612762647 a21.270900322304982,21.270900322304982 0 0,0 0.349667901279618,0.10864351902370391 l -0.08260325803701853 0.257999392221402" fill="#ff0200" stroke="none" /><path d="M 106.40334571778207 80.00007090966166 l 0.13794167772746668 -0.43084098450133546 a21.452384637648482,21.452384637648482 0 0,0 0.3507129595222665,0.11562454870922886 l -0.14533745949215066 0.4284027115328704" fill="#ff0500" stroke="none" /><path d="M 106.74666289553966 80.11325718540242 l 0.40605930565770154 -1.1969172173145697 a22.26392048199848,22.26392048199848 0 0,0 0.36186079621954076,0.12624612647800926 l -0.42660210594051595 1.189750237664353" fill="#ff1001" stroke="none" /><path d="M 107.4271985657038 80.35727306442388 l 0.6800415530732487 -1.7985072586513136 a22.922780505759235,22.922780505759235 0 0,0 0.36787442549801475,0.14272956182112198 l -0.7108991435709304 1.7865349929396448" fill="#ff1a02" stroke="none" /><path d="M 107.76421540070413 80.48803036053334 l 0.23004318822753955 -0.5781132378237208 a21.62220156235493,21.62220156235493 0 0,0 0.3446333160919698,0.1405845828611414 l -0.2399603739078968 0.5740677687790001" fill="#ff0701" stroke="none" /><path d="M 108.09893153111575 80.62456947434976 l 0.19943634816673056 -0.4771203575864203 a21.517125412828914,21.517125412828914 0 0,0 0.3404995362069436,0.14578413145814892 l -0.20761964216398945 0.4736166981654806" fill="#ff0600" stroke="none" /><path d="M 109.08828744355905 81.06846463323043 l 0.06909225442281162 -0.14392397536923257 a21.159649147530796,21.159649147530796 0 0,0 0.3269959108739031,0.16045547333817528 l -0.07155943230714658 0.1427133418962253" fill="#ff0100" stroke="none" /><path d="M 109.41281617654863 81.2277094730956 l 0.7622065223944571 -1.5200936692611187 a22.700483327206822,22.700483327206822 0 0,0 0.34779249700929077,0.17815282530203055 l -0.7882595069925034 1.5067483186465875" fill="#ff1702" stroke="none" /><path d="M 110.05341064243156 81.56283822128135 l 0.3967680829811522 -0.7276413542366025 a21.828786372998383,21.828786372998383 0 0,0 0.3283422752391815,0.18272212068196586 l -0.4092344472923688 0.7207038359944568" fill="#ff0a01" stroke="none" /><line stroke="#e1ed5e" stroke-width="0.3" x1="143.23703022742887" x2="145.7803849466894" y1="26.81831364943548" y2="22.513508569990506" /><path d="M 143.74570117128098 25.957352633546492 a86.0,86.0 0 0,1 28.547481713284135,27.462654790039103" fill="none" id="id98" stroke="none" /><text fill="#e1ed5e" style="font-size:6.75px; font-family:Arial;" text-anchor="middle"><textPath startOffset="19.985693538727396" xlink:href="#id98">February</textPath></text><path d="M 110.68208982089419 81.91981866633111 l 1.897571591214034 -3.211772138038097 a24.73045013509903,24.73045013509903 0 0,0 0.3646421657780862,0.21969282487225653 l -1.9525758232097579 3.1786327037072257" fill="#ff3304" stroke="none" /><path d="M 110.99172775467656 82.1063720568725 l 1.716860635266735 -2.7949077818629497 a24.280109746646684,24.280109746646684 0 0,0 0.35423621927009924,0.22182268800924293 l -1.7647160069090975 2.7649407525307628" fill="#ff2d04" stroke="none" /><path d="M 111.2981086023043 82.29822771554956 l 1.0037954217369651 -1.5727374024478402 a22.865772811935706,22.865772811935706 0 0,0 0.3299563401400867,0.2146127819598258 l -1.030718787661332 1.5552256963284863" fill="#ff1902" stroke="none" /><path d="M 111.60114157652 82.49532879139004 l 0.6550407392521221 -0.9883745227331966 a22.185732924088743,22.185732924088743 0 0,0 0.3165114969146292,0.2137099755936355 l -0.6719569305732932 0.976952634840891" fill="#ff0f01" stroke="none" /><path d="M 111.90073688211348 82.69761687909136 l 2.2552412887477757 -3.278876694320793 a24.97959114068679,24.97959114068679 0 0,0 0.35217519441378414,0.24672122972086438 l -2.311347622745211 3.2395706218359934" fill="#ff3705" stroke="none" /><path d="M 112.48926042617603 83.11751280151076 l 0.7499397569899815 -1.0137388376084977 a22.260982184644185,22.260982184644185 0 0,0 0.306092582234863,0.23054258697457097 l -0.7672784929832275 1.0006796611280795" fill="#ff1001" stroke="none" /><path d="M 113.06298171725822 83.55741782278167 l 0.843421124295243 -1.0616275400511814 a22.355880609309896,22.355880609309896 0 0,0 0.2992458124464288,0.24196930251367685 l -0.8615703353061629 1.0469521402733748" fill="#ff1202" stroke="none" /><path d="M 113.34407831869373 83.78471172551755 l 1.591835243115384 -1.9343462123147661 a23.50512169571075,23.50512169571075 0 0,0 0.31020320575356974,0.25978626385199477 l -1.624895985828071 1.906658791068952" fill="#ff2203" stroke="none" /><path d="M 113.89432698308785 84.25364557470407 l 0.9593780161763907 -1.087257143792471 a22.450011818796767,22.450011818796767 0 0,0 0.2875622146474521,0.2581761955895432 l -0.9779512184198328 1.0705819394336302" fill="#ff1302" stroke="none" /><path d="M 114.16331599549186 84.49514656593476 l 1.132125864115233 -1.2393598785488058 a22.678607125194926,22.678607125194926 0 0,0 0.2859579225364586,0.2657667241774025 l -1.1532916704465384 1.2196885682967629" fill="#ff1602" stroke="none" /><path d="M 114.42810811169701 84.74124197986012 l 0.6792184215960939 -0.7183221429810279 a21.988597170404784,21.988597170404784 0 0,0 0.2727808577308101,0.262414969013049 l -0.6914825229393223 0.706524087205677" fill="#ff0c01" stroke="none" /><path d="M 114.94478906791727 85.2469230424477 l 0.8474265656155123 -0.8365557574337995 a22.190780130589413,22.190780130589413 0 0,0 0.2660101131036354,0.2741468045023811 l -0.8617009424222568 0.821844757381304" fill="#ff0f01" stroke="none" /><path d="M 115.19652480421416 85.50635884689758 l 0.6546769027317565 -0.6243961841056783 a21.904694667662067,21.904694667662067 0 0,0 0.25788363448121016,0.27509228084812765 l -0.6653278591834296 0.613034486379496" fill="#ff0b01" stroke="none" /><path d="M 115.68641384162765 86.03803664274999 l 3.9523561043524245 -3.5178627607880384 a26.29116973639583,26.29116973639583 0 0,0 0.29797677682466894,0.3406389664048167 l -4.012324744754942 3.4493082381802735" fill="#ff4906" stroke="none" /><path d="M 116.38621287248628 86.86637796730983 l 0.09773209748393119 -0.07833270803964754 a21.125250054001718,21.125250054001718 0 0,0 0.22497980814331547,0.2857015092847845 l -0.09906598622121071 0.07663880480182465" fill="#ff0000" stroke="none" /><path d="M 116.60985879189232 87.15038557335679 l 0.5655721971908005 -0.4375344038372318 a21.715058224745672,21.715058224745672 0 0,0 0.2261716996755299,0.297615445224361 l -0.573019837090444 0.4277341827318372" fill="#ff0801" stroke="none" /><path d="M 116.82858285166822 87.43820079747576 l 1.6602872494677954 -1.2393316317932415 a23.07183412567431,23.07183412567431 0 0,0 0.23482445478764705,0.3203002924293204 l -1.681374316769069 1.2105688956924274" fill="#ff1c02" stroke="none" /><path d="M 117.2510076193507 88.02491185347247 l 0.5722663469256538 -0.39724867665347086 a21.696631382387103,21.696631382387103 0 0,0 0.21032872985038012,0.3086314578533338 l -0.5790195424447673 0.3873391955297306" fill="#ff0801" stroke="none" /><path d="M 117.45458315368197 88.32363383020206 l 1.280188648043133 -0.8563912004863315 a22.540223640530467,22.540223640530467 0 0,0 0.21295505762219463,0.32434516276531894 l -1.2947403410232527 0.8342279737433387" fill="#ff1402" stroke="none" /><line stroke="#e1ed5e" stroke-width="0.3" x1="172.23445277983987" x2="176.4835382374775" y1="55.19839476539836" y2="52.563006222186495" /><path d="M 173.08426987136738 54.67131705675599 a86.0,86.0 0 0,1 12.851231095245387,41.99856678651699" fill="none" id="id99" stroke="none" /><text fill="#e1ed5e" style="font-size:6.75px; font-family:Arial;" text-anchor="middle"><textPath startOffset="22.20632615414155" xlink:href="#id99">March</textPath></text><path d="M 117.84615892207809 88.93136811851018 l 2.00782433396221 -1.2453026184716578 a23.36265468649635,23.36265468649635 0 0,0 0.20902255836604647,0.3435781271726039 l -2.0289626906144806 1.2105567180919725" fill="#ff2003" stroke="none" /><path d="M 118.03404312379186 89.2402003453031 l 3.6638510961618915 -2.1859936503830757 a25.26642392342367,25.26642392342367 0 0,0 0.21962577371202222,0.3754116400143929 l -3.700936544344241 2.1226025980147876" fill="#ff3b05" stroke="none" /><path d="M 118.21658344932153 89.55222093294921 l 1.03672829455062 -0.5945960286218572 a22.19513597300672,22.19513597300672 0 0,0 0.18722374943302766,0.33305015925399384 l -1.0468096852760806 0.5766623594330695" fill="#ff0f01" stroke="none" /><path d="M 118.3937258080291 89.86733742301442 l 0.77024735361807 -0.42431080122011866 a21.879386514444985,21.879386514444985 0 0,0 0.17888159326661654,0.3314404249173477 l -0.7774370461031512 0.41098939297031223" fill="#ff0b01" stroke="none" /><path d="M 118.56541770881063 90.18545643968196 l 2.3503331133321375 -1.242495433383598 a23.658544836109527,23.658544836109527 0 0,0 0.18722985604380213,0.36166848781037225 l -2.371372402536056 1.2018542233128808" fill="#ff2403" stroke="none" /><path d="M 118.89224826269711 90.83032412892265 l 0.8223896766573879 -0.39916089762372015 a21.9141412377004,21.9141412377004 0 0,0 0.16179085894761536,0.3407728107569267 l -0.8291387294467594 0.38494567122625306" fill="#ff0b01" stroke="none" /><path d="M 119.196687751892 91.48605970444005 l 1.017245246093992 -0.4511593564016185 a22.11280396097855,22.11280396097855 0 0,0 0.15132454098191356,0.34927790425930205 l -1.0248604969185864 0.4335823075557137" fill="#ff0e01" stroke="none" /><path d="M 119.34039704204932 91.81776055985345 l 12.977227545465414 -5.490206990859793 a35.09080578140484,35.09080578140484 0 0,0 0.23056048512011007,0.5583205026119813 l -13.069809717471722 5.266011917794509" fill="#ffbd11" stroke="none" /><path d="M 119.61058180528143 92.48833698450437 l 0.384454841903177 -0.14726208766914614 a21.41169363357656,21.41169363357656 0 0,0 0.12887332512824,0.3453164395575575 l -0.3869327555330423 0.14062251108225543" fill="#ff0400" stroke="none" /><path d="M 119.7369772167798 92.82701384747503 l 2.9730516276282386 -1.0804926165486333 a24.163305276915118,24.163305276915118 0 0,0 0.13870533374210425,0.3921386567500467 l -2.9912100421801524 1.029156333371972" fill="#ff2b04" stroke="none" /><path d="M 119.97218684219823 93.5106431181261 l 1.2676220433375829 -0.4118753692593835 a22.332856693181192,22.332856693181192 0 0,0 0.11564646177018892,0.3666308870569927 l -1.2745239888759778 0.3899943157759716" fill="#ff1101" stroke="none" /><path d="M 120.08093135843002 93.85539295169968 l 1.456871644250215 -0.44579126405761615 a22.523550077591942,22.523550077591942 0 0,0 0.11025181543265296,0.3717143125255373 l -1.46432935679457 0.42064756478554893" fill="#ff1402" stroke="none" /><path d="M 120.18372546131832 94.20196356495316 l 3.050289178636839 -0.8762350552706316 a24.173649625493358,24.173649625493358 0 0,0 0.11144424225910664,0.4009242342700011 l -3.064920191462309 0.8235995175816786" fill="#ff2b04" stroke="none" /><path d="M 120.28053869075195 94.5502522615342 l 4.009516309197508 -1.077429587625055 a25.151755718971277,25.151755718971277 0 0,0 0.10875579424688972,0.41908043951381874 l -4.027468435314701 1.0082527225623859" fill="#ff3905" stroke="none" /><path d="M 120.37134235888165 94.90015583598534 l 0.9169554651059066 -0.22955433643001308 a21.945252621451754,21.945252621451754 0 0,0 0.08858274344235127,0.3672326602925371 l -0.9207710088090773 0.2137364444780699" fill="#ff0c01" stroke="none" /><path d="M 120.45610955862082 95.25157060432595 l 1.779268948900274 -0.4130175855558802 a22.826576447482857,22.826576447482857 0 0,0 0.08555141390209474,0.38351021357659926 l -1.7861147498044063 0.38232920242931706" fill="#ff1802" stroke="none" /><path d="M 120.53481517161879 95.60439243477599 l 0.9092849880689828 -0.19463822484386029 a21.929883448663315,21.929883448663315 0 0,0 0.07583636078780885,0.3698050279367025 l -0.9125006447717886 0.17895754074374598" fill="#ff0c01" stroke="none" /><path d="M 120.6074358757038 95.95851677861258 l 0.9969420264690948 -0.19551799151398425 a22.01593340783044,22.01593340783044 0 0,0 0.06973208919383744,0.37251160880602396 l -1.0001598395727915 0.1783283052453975" fill="#ff0d01" stroke="none" /><path d="M 120.67395015179393 96.31383870115 l 0.5322708955646502 -0.09490379735506853 a21.540665365098974,21.540665365098974 0 0,0 0.06194288966733964,0.3655904412025755 l -0.5338256467522129 0.08572756783665517" fill="#ff0601" stroke="none" /><path d="M 120.73433829027371 96.67025291283417 l 1.313816091854972 -0.21098697453864768 a22.33064955064887,22.33064955064887 0 0,0 0.05768124446643083,0.38004733191729806 l -1.3172532297607027 0.1883405302292675" fill="#ff1101" stroke="none" /><path d="M 120.83666639777658 97.38593545837742 l 1.887980022278268 -0.2368565843169642 a22.902779442304375,22.902779442304375 0 0,0 0.045707019126839867,0.39158982707258205 l -1.8917773944086969 0.20432301891952945" fill="#ff1902" stroke="none" /><path d="M 120.87857604477298 97.74499172005257 l 1.8972627278450596 -0.2049154670007944 a22.908296676904886,22.908296676904886 0 0,0 0.038969057286823414,0.39241308878880793 l -1.9005089108141116 0.17222684750755152" fill="#ff1a02" stroke="none" /><path d="M 120.94382443527127 98.46500227214037 l 1.0135245520826526 -0.07428241625043368 a22.016243029515255,22.016243029515255 0 0,0 0.024447894083402495,0.3781981005761868 l -1.0146530371704705 0.0568252514212116" fill="#ff0d01" stroke="none" /><path d="M 120.96714384426684 98.82574320788733 l 1.1582553630240982 -0.06486764421201163 a22.16007038460591,22.16007038460591 0 0,0 0.018051373598683865,0.38103596630160874 l -1.1592003448562787 0.04492057128740312" fill="#ff0f01" stroke="none" /><line stroke="#e1ed5e" stroke-width="0.3" x1="184.98032266829074" x2="189.97916517819016" y1="98.17113171792111" y2="98.06355123074" /><path d="M 185.9800911702706 98.14961562048488 a86.0,86.0 0 0,1 -9.607161424134198,41.387399972396054" fill="none" id="id100" stroke="none" /><text fill="#e1ed5e" style="font-size:6.75px; font-family:Arial;" text-anchor="middle"><textPath startOffset="21.466115282336823" xlink:href="#id100">April</textPath></text><path d="M 120.99513854157772 99.54816195383933 l 0.12468276507316885 -0.002683307702352348 a21.124711635569888,21.124711635569888 0 0,0 0.004694708516357912,0.36361034834222733 l -0.1247104807072423 0.0005367012996622737" fill="#ff0000" stroke="none" /><path d="M 120.99980553446 99.90962569577887 l 6.428332004213578 -0.02766482914472207 a27.428391532815045,27.428391532815045 0 0,0 -0.0020319249072463315,0.47214778891575937 l -6.427855782016828 -0.08299243797472201" fill="#ff5808" stroke="none" /><path d="M 120.99824983174949 100.27111621757518 l 0.5224809707778522 0.006745946242535022 a21.52252451867417,21.52252451867417 0 0,0 -0.007971468884125608,0.3704028357598001 l -0.5222874392087191 -0.01573859779244996" fill="#ff0600" stroke="none" /><path d="M 120.9764740272857 100.99374915477107 l 0.2549070395780361 0.012076083654305443 a21.25519292823835,21.25519292823835 0 0,0 -0.02045928626996565,0.3653143001213579 l -0.25466140242054114 -0.01646210011108666" fill="#ff0200" stroke="none" /><path d="M 120.95626037817324 101.35467743843564 l 1.0862470019993316 0.0702183633731469 a22.088514201977787,22.088514201977787 0 0,0 -0.027793074247995434,0.3792144164135999 l -1.0848773690869986 -0.08890591628351703" fill="#ff0e01" stroke="none" /><path d="M 120.92983693683757 101.71520430193887 l 4.901529816254944 0.40168134382954296 a25.91796120781945,25.91796120781945 0 0,0 -0.04026590228953379,0.44433087646148434 l -4.893889317688335 -0.48599360883959786" fill="#ff4406" stroke="none" /><path d="M 120.89721153311464 102.0752229133903 l 1.271862323391033 0.1263038291973256 a22.278118314919062,22.278118314919062 0 0,0 -0.041180251422496296,0.38127798399370016 l -1.2694997704674849 -0.1481781350758172" fill="#ff1101" stroke="none" /><path d="M 120.8583938346157 102.4346265915055 l 0.5530743265834297 0.06455575981811107 a21.55682910919905,21.55682910919905 0 0,0 -0.04619165596845565,0.3681929464443034 l -0.5518811613681259 -0.0740664605498094" fill="#ff0601" stroke="none" /><path d="M 120.76222939487914 103.15116336523771 l 0.8847638168227081 0.13428400550989233 a21.894896198279145,21.894896198279145 0 0,0 -0.05976081135843125,0.37213062937510055 l -0.8823212511029884 -0.14949386457819783" fill="#ff0b01" stroke="none" /><path d="M 120.64145759157962 103.86396538481128 l 0.4358644797055137 0.08159139220565093 a21.443435451842785,21.443435451842785 0 0,0 -0.07103910674365346,0.3622268748117051 l -0.4343954399861961 -0.08908199408530097" fill="#ff0500" stroke="none" /><path d="M 120.5718875245553 104.21870165774334 l 0.8358787385730445 0.1714146558443592 a21.853273842231616,21.853273842231616 0 0,0 -0.07874042725192563,0.3678490620829997 l -0.8328042725966758 -0.18577753734352798" fill="#ff0a01" stroke="none" /><path d="M 120.49622156327973 104.57218783832717 l 0.5480064232050615 0.12224635139543337 a21.56147592139245,21.56147592139245 0 0,0 -0.08392489711983957,0.36154626027364345 l -0.5458209601546691 -0.1316612690176417" fill="#ff0601" stroke="none" /><path d="M 120.41448212921028 104.9243191809786 l 2.7586137983201833 0.6654244155693314 a23.837734966679992,23.837734966679992 0 0,0 -0.09965159156702418,0.39805857260180555 l -2.7467508924580986 -0.712810827568533" fill="#ff2703" stroke="none" /><path d="M 120.32669344350535 105.2749913415812 l 0.4161505246305915 0.10799545043181824 a21.429935200308474,21.429935200308474 0 0,0 -0.0957325450005714,0.3562564133280077 l -0.41422990328824283 -0.1151427969353742" fill="#ff0400" stroke="none" /><path d="M 120.23288151984713 105.62410040840565 l 0.9162484113574495 0.25468804626081765 a21.950987461654044,21.950987461654044 0 0,0 -0.10432715125209449,0.363176499944969 l -0.9117286232192556 -0.27042202171036867" fill="#ff0c01" stroke="none" /><path d="M 120.02730092923936 106.31721596034902 l 0.6444071935529986 0.20326550354737863 a21.67570518425954,21.67570518425954 0 0,0 -0.1153021063699571,0.3548633945764494 l -0.6408128361667944 -0.21432779810162325" fill="#ff0801" stroke="none" /><path d="M 119.41010516605496 108.01547362559984 l 0.9148464936737503 0.3777891917009548 a21.98978218833904,21.98978218833904 0 0,0 -0.14748758309630455,0.3486170793119297 l -0.9082079293851368 -0.39348079667904806" fill="#ff0c01" stroke="none" /><path d="M 118.97047184881838 109.00673069616215 l 1.1604760050191503 0.5509665199612124 a22.28462783106368,22.28462783106368 0 0,0 -0.16750266336602404,0.3451050991840714 l -1.150820085038412 -0.5708605751105592" fill="#ff1101" stroke="none" /><path d="M 118.81262510543309 109.33194174019688 l 1.390277264943494 0.6896425334827969 a22.551927091524384,22.551927091524384 0 0,0 -0.17549837734190435,0.3462749480309497 l -1.3782002178153208 -0.713471693216441" fill="#ff1402" stroke="none" /><path d="M 118.64920377521936 109.65438752849418 l 0.801751076777534 0.41505340870815605 a21.902814555262704,21.902814555262704 0 0,0 -0.17621074199652087,0.33332431710546806 l -0.79448782655612 -0.4287927408997584" fill="#ff0b01" stroke="none" /><line stroke="#e1ed5e" stroke-width="0.3" x1="174.80103733775053" x2="179.2010983576182" y1="140.37084112569926" y2="142.7455964860345" /><path d="M 175.68104954172406 140.8457921977663 a86.0,86.0 0 0,1 -30.038265399797805,32.042727171017184" fill="none" id="id101" stroke="none" /><text fill="#e1ed5e" style="font-size:6.75px; font-family:Arial;" text-anchor="middle"><textPath startOffset="22.206326154141568" xlink:href="#id101">May</textPath></text><path d="M 118.30583269289576 110.29060199501025 l 1.7156146736817148 0.9644307407283063 a22.968110861261064,22.968110861261064 0 0,0 -0.1967032805023168,0.3429687497246453 l -1.6987593970270185 -0.9938193363112666" fill="#ff1a02" stroke="none" /><path d="M 117.14729908036423 112.12312394758627 l 0.534275268965334 0.37773210098223536 a21.65431766225621,21.65431766225621 0 0,0 -0.21780140345649562,0.3025070999519997 l -0.5276940731332355 -0.3868728063853663" fill="#ff0801" stroke="none" /><path d="M 116.93607887273984 112.41649034213515 l 0.5655758261555405 0.4146453754716903 a21.701289385725737,21.701289385725737 0 0,0 -0.22345996799297987,0.29936114443266454 l -0.5583545914674686 -0.4243193994136698" fill="#ff0801" stroke="none" /><path d="M 115.80600337817218 113.82643327865902 l 0.3121302392698775 0.27303852999782824 a21.41469907780226,21.41469907780226 0 0,0 -0.2450873052758888,0.2753581856301455 l -0.3073840843456504 -0.27837088536884025" fill="#ff0400" stroke="none" /><path d="M 114.0293411484842 115.62618273729858 l 0.6800383666597218 0.7574413989460219 a22.017924188221563,22.017924188221563 0 0,0 -0.2841965106828794,0.250770377715941 l -0.6668995030702548 -0.7690349184342518" fill="#ff0d01" stroke="none" /><path d="M 111.1453310114006 117.79835938074945 l 0.6621909763301623 1.0574753646489037 a22.24769829525107,22.24769829525107 0 0,0 -0.32632161088418316,0.20045338590400633 l -0.6438901655136704 -1.068717217381288" fill="#ff1001" stroke="none" /><line stroke="#e1ed5e" stroke-width="0.3" x1="143.8653032363475" x2="146.44561519142675" y1="172.8068346515853" y2="177.08958963109032" /><path d="M 144.38136562736335 173.6633856474863 a86.0,86.0 0 0,1 -40.68145358897372,12.25698825130547" fill="none" id="id102" stroke="none" /><text fill="#e1ed5e" style="font-size:6.75px; font-family:Arial;" text-anchor="middle"><textPath startOffset="21.466115282336833" xlink:href="#id102">June</textPath></text><path d="M 110.21172684928248 118.3499491758327 l 24.920023872528198 44.78000423146453 a72.24701326689544,72.24701326689544 0 0,0 -1.091883520073129,0.5953819537272447 l -24.145517540586418 -45.20232683695155" fill="#3fffbb" stroke="none" /><path d="M 109.2508944713604 118.85261126421891 l 0.37344120709613454 0.7610444513468513 a21.847730494958892,21.847730494958892 0 0,0 -0.33904279053581465,0.16276114305364137 l -0.3602857485600871 -0.7673598709000528" fill="#ff0a01" stroke="none" /><path d="M 108.2653958097858 119.30500536409082 l 0.2834558607457303 0.6620514054149228 a21.720180038881235,21.720180038881235 0 0,0 -0.34496666418192556,0.14419609360566973 l -0.27201773706634363 -0.6668325420405657" fill="#ff0901" stroke="none" /><path d="M 107.59598834532513 119.57807347666477 l 2.369598066801451 6.107456061402883 a27.551031563056004,27.551031563056004 0 0,0 -0.4436106771544204,0.16773559984305497 l -2.2641171688867554 -6.147339911352569" fill="#ff5a08" stroke="none" /><path d="M 106.57524785965236 119.94407469862006 l 0.5622276496217403 1.7053517192093224 a22.795640391673505,22.795640391673505 0 0,0 -0.3737167815159992,0.11965231185443724 l -0.5327895230148008 -1.7147768777234662" fill="#ff1802" stroke="none" /><path d="M 106.2309692047433 120.05430185196036 l 1.0950914121081514 3.524538962123006 a24.690745195268313,24.690745195268313 0 0,0 -0.40695641960960105,0.12261263091395884 l -1.0342600180583044 -3.54286696214269" fill="#ff3304" stroke="none" /><path d="M 105.88484417918355 120.15858648285463 l 0.2951891027456469 1.0111729172954849 a22.05337897978441,22.05337897978441 0 0,0 -0.3653182469068592,0.10324258564121644 l -0.27773968773418195 -1.0161042962752203" fill="#ff0d01" stroke="none" /><path d="M 105.18746579009965 120.34920634021253 l 0.7024421930689232 2.75551525681605 a23.84364016098196,23.84364016098196 0 0,0 -0.3985824551560747,0.09796187001440876 l -0.6549064531696374 -2.767198385144489" fill="#ff2703" stroke="none" /><path d="M 104.83641907484287 120.43548508189849 l 0.29000727061538484 1.2253775284134876 a22.259227661763564,22.259227661763564 0 0,0 -0.37361567813565205,0.08503371195545882 l -0.2688714430868707 -1.2301879739466308" fill="#ff1001" stroke="none" /><path d="M 103.41894727170886 120.7198165907248 l 0.314778108862257 1.9076470515853456 a22.93344318024636,22.93344318024636 0 0,0 -0.39004778228361114,0.06091744185491028 l -0.2818944629701287 -1.9127828007873615" fill="#ff1a02" stroke="none" /><path d="M 103.06178313531738 120.77559828337769 l 0.4194064156464876 2.845864264008217 a23.876603057539302,23.876603057539302 0 0,0 -0.407120423546949,0.05642318101385913 l -0.37035740091270813 -2.8526620105146785" fill="#ff2703" stroke="none" /><path d="M 102.34483914955558 120.86867818915974 l 0.4140005753577622 3.6845362202799996 a24.707722162588748,24.707722162588748 0 0,0 -0.423051976275821,0.04385106709615892 l -0.35051600247633863 -3.691116655831917" fill="#ff3304" stroke="none" /><path d="M 101.62511606390274 120.93702456842531 l 0.019529565733663712 0.25160725849601073 a21.252364055415235,21.252364055415235 0 0,0 -0.36497113808885934,0.02517054652384631 l -0.015195666865874024 -0.2519061495361422" fill="#ff0200" stroke="none" /><path d="M 100.90346689309514 120.98055641714683 l 0.0207797869019798 0.4825539206419649 a21.483001124088364,21.483001124088364 0 0,0 -0.36958909957541397,0.012729395876165967 l -0.01247033565191352 -0.4828401149442247" fill="#ff0500" stroke="none" /><line stroke="#e1ed5e" stroke-width="0.3" x1="102.19456741930631" x2="102.32365962044197" y1="184.97166512339345" y2="189.96999836594603" /><path d="M 102.22038585953345 185.97133177190398 a86.0,86.0 0 0,1 -42.740103519485714,-10.115201625700543" fill="none" id="id103" stroke="none" /><text fill="#e1ed5e" style="font-size:6.75px; font-family:Arial;" text-anchor="middle"><textPath startOffset="22.20632615414155" xlink:href="#id103">July</textPath></text><path d="M 99.81925306533755 120.99922214144158 l -0.007510013456319009 0.8725151613164416 a21.872547481246247,21.872547481246247 0 0,0 -0.3764581116409042,-0.0064810677935578055 l 0.022527814989891155 -0.8722566162437242" fill="#ff0b01" stroke="none" /><path d="M 99.45781275523022 120.99299961872073 l -0.03192044818705334 1.235930876435025 a22.23634301322,22.23634301322 0 0,0 -0.38254943732657765,-0.01317577611333417 l 0.053190237188274016 -1.235198301895597" fill="#ff1001" stroke="none" /><path d="M 98.73552117531835 120.96189622390904 l -0.06653305108252473 1.1029515758028203 a22.10495648124814,22.10495648124814 0 0,0 -0.3796128799285346,-0.02618032676591015 l 0.08550869178998939 -1.1016429045206249" fill="#ff0e01" stroke="none" /><path d="M 98.37488393609728 120.93702456842531 l -0.1856078079854653 2.3912601211699562 a23.398452673179715,23.398452673179715 0 0,0 -0.4012897945857756,-0.03462497201625555 l 0.22674192031278262 -2.387710896875037" fill="#ff2003" stroke="none" /><path d="M 97.65516085044442 120.86867818915974 l -0.14817164060645605 1.3187029418039264 a22.32700123730249,22.32700123730249 0 0,0 -0.3815499271221697,-0.04620038256740321 l 0.17084899078001506 -1.3159570305111747" fill="#ff1101" stroke="none" /><path d="M 97.2962882734958 120.8252237178851 l -0.08009643081805966 0.6169393262006148 a21.62211700703538,21.62211700703538 0 0,0 -0.3686791380110638,-0.05109556911637467 l 0.09070416001595448 -0.6154691915916352" fill="#ff0701" stroke="none" /><path d="M 96.93821686468263 120.77559828337769 l -0.09071703200030233 0.6155565338899307 a21.622205292736673,21.622205292736673 0 0,0 -0.3677464895361735,-0.05743443857701048 l 0.10129938514499298 -0.6139037879658145" fill="#ff0701" stroke="none" /><path d="M 96.22490169976321 120.6578951692458 l -0.23256897114791736 1.2726517413577472 a22.293727475599752,22.293727475599752 0 0,0 -0.3769045355119392,-0.0722346512712162 l 0.2544411212315516 -1.268459891738063" fill="#ff1101" stroke="none" /><path d="M 95.86986931433489 120.58985236759428 l -0.042879782122207555 0.21376766273164183 a21.218025891454655,21.218025891454655 0 0,0 -0.35748184438138114,-0.07491379622098868 l 0.04655308793297549 -0.21299788578411197" fill="#ff0100" stroke="none" /><path d="M 95.51606077576429 120.51570834832081 l -0.5025502194071751 2.2993562615692245 a23.353634623437504,23.353634623437504 0 0,0 -0.39198503062871054,-0.08921451677739935 l 0.5420553994287484 -2.2903650112141385" fill="#ff2003" stroke="none" /><path d="M 95.16358092515715 120.4354850818985 l -0.2630756103174787 1.111582273343189 a22.142288898289188,22.142288898289188 0 0,0 -0.3701417993338712,-0.09097184877102929 l 0.28217069439456044 -1.1068891662581297" fill="#ff0f01" stroke="none" /><path d="M 94.46302465271185 120.25689768951611 l -0.23697124505341702 0.8669538810129194 a21.89875714338498,21.89875714338498 0 0,0 -0.3627569079728607,-0.10251872567394535 l 0.25185932113089166 -0.8627463620004526" fill="#ff0b01" stroke="none" /><path d="M 93.42475214034765 119.94407469862007 l -0.16200904850675163 0.4914066563327779 a21.517423843368494,21.517423843368494 0 0,0 -0.35076502146682104,-0.11899853975313936 l 0.17044380291079847 -0.48854512968151553" fill="#ff0600" stroke="none" /><path d="M 93.08242187328487 119.8279376855182 l -0.5435539203483488 1.557995163041837 a22.650090843677347,22.650090843677347 0 0,0 -0.367018231622054,-0.1315996799764481 l 0.5702917126001293 -1.548407942025431" fill="#ff1602" stroke="none" /><path d="M 92.7421414339146 119.70592522655815 l -0.7769395425069286 2.1094806947244784 a23.248008864334423,23.248008864334423 0 0,0 -0.37432590976478014,-0.14153802927817422 l 0.8131356730319919 -2.095794415339671" fill="#ff1e03" stroke="none" /><path d="M 92.06813273071674 119.44442032107085 l -0.39419215435856575 0.9663346191254414 a22.04364268343057,22.04364268343057 0 0,0 -0.35010399864590674,-0.14634349982826456 l 0.4107676125019348 -0.9594060762772036" fill="#ff0d01" stroke="none" /><path d="M 91.7346041902142 119.30500536409082 l -0.7722757064756575 1.8037595535858517 a22.9621310593242,22.9621310593242 0 0,0 -0.3620136599781683,-0.15869614993363576 l 0.8032100411115691 -1.790198850357764" fill="#ff1a02" stroke="none" /><path d="M 90.7491055286396 118.85261126421891 l -0.8698601070471847 1.7727079800966368 a22.97462659470859,22.97462659470859 0 0,0 -0.35353146697751464,-0.17726801673539053 l 0.9002454817074599 -1.757472122451944" fill="#ff1a02" stroke="none" /><path d="M 90.42595943632237 118.69057910512821 l -1.0693971342399025 2.087692401068181 a23.34564911958254,23.34564911958254 0 0,0 -0.35608684759174264,-0.18628780895624797 l 1.1051748843581408 -2.068975173167216" fill="#ff2003" stroke="none" /><line stroke="#e1ed5e" stroke-width="0.3" x1="58.666819895761336" x2="56.23545636021788" y1="174.27360380694188" y2="178.64263932499728" /><path d="M 58.180547188652646 175.14741091055294 a86.0,86.0 0 0,1 -31.652253787137756,-30.449443065178592" fill="none" id="id104" stroke="none" /><text fill="#e1ed5e" style="font-size:6.75px; font-family:Arial;" text-anchor="middle"><textPath startOffset="22.20632615414155" xlink:href="#id104">August</textPath></text><path d="M 89.7882731507175 118.34994917583269 l -0.680843384746912 1.2234406277411902 a22.400126667184576,22.400126667184576 0 0,0 -0.33530987804526763,-0.19039769980436488 l 0.7018020297133869 -1.2115397621421922" fill="#ff1202" stroke="none" /><path d="M 89.4739219176387 118.17145234162733 l -0.9904279559363764 1.709802478975712 a22.97594839330682,22.97594839330682 0 0,0 -0.34051682540909073,-0.20118334254601858 l 1.0197126523738493 -1.6925005641359439" fill="#ff1a02" stroke="none" /><path d="M 88.54995079064634 117.60387380957326 l -0.9279655174989053 1.426700232549323 a22.701938176087282,22.701938176087282 0 0,0 -0.3257461123855363,-0.21588676089653216 l 0.9523863286244034 -1.4105154505614725" fill="#ff1702" stroke="none" /><path d="M 88.24862548938628 117.40417183066458 l -0.5308437797038554 0.786197082635813 a21.948631103851934,21.948631103851934 0 0,0 -0.31129755553496147,-0.21411329725960457 l 0.5442982198617072 -0.7769429960111073" fill="#ff0c01" stroke="none" /><path d="M 87.95078237400918 117.19931262002967 l -0.3571518287975718 0.5098062087495602 a21.622462689077064,21.622462689077064 0 0,0 -0.3029952320953548,-0.21617905307766677 l 0.3658743887418135 -0.5035828938276741" fill="#ff0701" stroke="none" /><path d="M 87.36589467227662 116.77436683061367 l -1.0509691281067641 1.3953771339731127 a22.74688678919056,22.74688678919056 0 0,0 -0.31073468266808596,-0.23825810426327293 l 1.0748325392683369 -1.377079687882473" fill="#ff1702" stroke="none" /><path d="M 86.51685102203217 116.09983520530335 l -0.8145902048792697 0.9726784210306317 a22.26872397022516,22.26872397022516 0 0,0 -0.29175689318023695,-0.2486415538988248 l 0.8312125746365633 -0.9585124769088554" fill="#ff1001" stroke="none" /><path d="M 85.70375840098266 115.38237550388516 l -0.7737857255578382 0.832572848439763 a22.136627422261213,22.136627422261213 0 0,0 -0.27688089386998105,-0.2618081671880903 l 0.7880024538186362 -0.8191300445057419" fill="#ff0f01" stroke="none" /><path d="M 85.44109423537348 115.13401014063109 l -1.0110651033485847 1.051004091536424 a22.458376578129116,22.458376578129116 0 0,0 -0.2762915551677145,-0.27040943839552944 l 1.0290066108920934 -1.033444550218325" fill="#ff1302" stroke="none" /><path d="M 84.43433777217949 114.09645910891817 l -1.946099492627458 1.7624121298660946 a23.625528470747174,23.625528470747174 0 0,0 -0.27038984239644337,-0.3037858543154456 l 1.9761481846722397 -1.728652105809785" fill="#ff2403" stroke="none" /><path d="M 83.72743513129214 113.27417163493432 l -1.4459098157516832 1.1794855462418679 a22.865969278707595,22.865969278707595 0 0,0 -0.2461707655914104,-0.3071358805608577 l 1.4659984933979546 -1.1544218321027506" fill="#ff1902" stroke="none" /><path d="M 83.06392112726016 112.41649034213515 l -1.2881831764410507 0.9444165966259304 a22.597291020461913,22.597291020461913 0 0,0 -0.22728592862337077,-0.31568027586877534 l 1.304248897440029 -0.9221027153060168" fill="#ff1502" stroke="none" /><path d="M 82.85270091963577 112.12312394758628 l -2.538980998561785 1.7950571225166438 a24.10944602528417,24.10944602528417 0 0,0 -0.23666187297502744,-0.3409290790970826 l 2.5695037786989463 -1.7510867812325488" fill="#ff2a04" stroke="none" /><line stroke="#e1ed5e" stroke-width="0.3" x1="26.63291911575756" x2="22.317208475507996" y1="142.92168965132927" y2="145.44649492493687" /><path d="M 25.769776987707644 143.4266507060508 a86.0,86.0 0 0,1 -11.730757126820373,-40.83630448921669" fill="none" id="id105" stroke="none" /><text fill="#e1ed5e" style="font-size:6.75px; font-family:Arial;" text-anchor="middle"><textPath startOffset="21.46611528233685" xlink:href="#id105">September</textPath></text><path d="M 81.51974371655577 109.97397251340807 l -1.8874614631818178 1.0186811516654923 a23.14481282720777,23.14481282720777 0 0,0 -0.18620276546482076,-0.35222545991512516 l 1.9047167368715245 -0.986040676664241" fill="#ff1d02" stroke="none" /><path d="M 81.35079622478065 109.6543875284942 l -0.7720176569120794 0.3996609039455693 a21.869333135642837,21.869333135642837 0 0,0 -0.17018645294828702,-0.33579401725994984 l 0.7787827796466331 -0.3863126749829345" fill="#ff0b01" stroke="none" /><path d="M 81.18737489456691 109.33194174019688 l -0.23320685782116263 0.11568150635037952 a21.260322203137406,21.260322203137406 0 0,0 -0.15980345824223918,-0.3292424561998454 l 0.23516357267812077 -0.11165009418524938" fill="#ff0200" stroke="none" /><path d="M 81.02952815118164 109.00673069616217 l -1.9091178058869538 0.9064039145627697 a23.113361978717638,23.113361978717638 0 0,0 -0.16754478015857496,-0.36087655097819304 l 1.9244372028853556 -0.8734072963057494" fill="#ff1c02" stroke="none" /><path d="M 80.87730276802145 108.67885076344099 l -0.4680116924078354 0.2124074645265299 a21.513957075267026,21.513957075267026 0 0,0 -0.15014581962328294,-0.3385391859117488 l 0.47159859676239824 -0.20431994212208526" fill="#ff0600" stroke="none" /><path d="M 80.73074385275274 108.34839909993369 l -3.3923578279123627 1.4697379504834895 a24.697055757719877,24.697055757719877 0 0,0 -0.16564552718636855,-0.3915370953708673 l 3.4171543362910377 -1.4111263294464635" fill="#ff3304" stroke="none" /><path d="M 80.58989483394504 108.01547362559985 l -1.7251348334567806 0.7124007129213749 a22.8664417937286,22.8664417937286 0 0,0 -0.14710459559849248,-0.365101542315376 l 1.737142043312661 -0.6825998027631935" fill="#ff1902" stroke="none" /><path d="M 80.32549172779594 107.34259656027581 l -2.0641493460713054 0.7703478876659539 a23.20321319688268,23.20321319688268 0 0,0 -0.1364301855494485,-0.37539727619893454 l 2.0771037926259783 -0.7347028144609021" fill="#ff1e03" stroke="none" /><path d="M 80.20201598880116 107.00284435728193 l -2.9912901778589025 1.0580642721583664 a24.172903549144404,24.172903549144404 0 0,0 -0.13537881429068369,-0.39347420374700826 l 3.0090598230928145 -1.0064173653220614" fill="#ff2b04" stroke="none" /><path d="M 79.97269907076064 106.31721596034903 l -0.28746191081013384 0.09067417408758022 a21.30142354920125,21.30142354920125 0 0,0 -0.10729144376252076,-0.3506346460573095 l 0.28898012707878495 -0.08571255547822294" fill="#ff0300" stroke="none" /><path d="M 79.86692584326677 105.97154293290107 l -3.1240674997019293 0.9266097693040046 a24.25858917436112,24.25858917436112 0 0,0 -0.11529456277887072,-0.4013554982589003 l 3.1395546993669043 -0.8726967955405084" fill="#ff2d04" stroke="none" /><path d="M 79.76711848015287 105.62410040840567 l -2.8206095224273042 0.7840401354337685 a23.927551367948748,23.927551367948748 0 0,0 -0.10688998201229846,-0.3977773871170926 l 2.8336875807813775 -0.7353718151411369" fill="#ff2803" stroke="none" /><path d="M 79.67330655649465 105.27499134158121 l -4.268753761298392 1.1077866251476298 a25.410153045128382,25.410153045128382 0 0,0 -0.10622494949491605,-0.4243158699799101 l 4.287190025088366 -1.034142915770328" fill="#ff3d05" stroke="none" /><path d="M 79.58551787078972 104.9243191809786 l -0.2316562681005362 0.055879419187868505 a21.238300516237462,21.238300516237462 0 0,0 -0.08266698403781182,-0.3561272036389127 l 0.23258381806890316 -0.051883558200381576" fill="#ff0200" stroke="none" /><path d="M 79.50377843672027 104.57218783832718 l -1.664201947273564 0.3712412983218661 a22.70510651364917,22.70510651364917 0 0,0 -0.08180970048662982,-0.3821876848218584 l 1.6703456864846347 -0.34253979408384394" fill="#ff1702" stroke="none" /><path d="M 79.4281124754447 104.21870165774334 l -0.4967651599584164 0.10187222739402035 a21.507103120541306,21.507103120541306 0 0,0 -0.07125002883787199,-0.3633023620259991 l 0.4984451217719548 -0.09330613830006643" fill="#ff0600" stroke="none" /><path d="M 79.35854240842038 103.8639653848113 l -0.26395532639257535 0.049410960432054826 a21.268540234121126,21.268540234121126 0 0,0 -0.06426497829081379,-0.3604321270761873 l 0.26476674702257785 -0.0448600826226538" fill="#ff0200" stroke="none" /><path d="M 79.29508885075956 103.50808413554451 l -1.0360625556386256 0.17554263279226381 a22.05082864213157,22.05082864213157 0 0,0 -0.0601864196498468,-0.3747808926120261 l 1.0389307296497632 -0.15768251048702409" fill="#ff0d01" stroke="none" /><path d="M 79.23777060512086 103.15116336523772 l -2.8444817032710845 0.4317179222886154 a23.877056920651583,23.877056920651583 0 0,0 -0.058175822679800974,-0.4068815683255658 l 2.8514915769674842 -0.382690881982649" fill="#ff2703" stroke="none" /><path d="M 79.18660465613746 102.79330883721812 l -12.324760952671783 1.6540724431033662 a33.43525987615607,33.43525987615607 0 0,0 -0.07164458249363993,-0.571077814207798 l 12.351407044412271 -1.4416768746081596" fill="#ffa80f" stroke="none" /><path d="M 79.1416061653843 102.43462659150553 l -0.32229301421139145 0.037618579305628536 a21.324481038765654,21.324481038765654 0 0,0 -0.039417489314730526,-0.36495699615383803 l 0.3228928050271738 -0.032065261267008406" fill="#ff0300" stroke="none" /><path d="M 79.10278846688536 102.07522291339032 l -2.5709307939525314 0.2553093978063325 a23.583576597645525,23.583576597645525 0 0,0 -0.0366392241775573,-0.40431078570204154 l 2.574944614407164 -0.2110172235557248" fill="#ff2303" stroke="none" /><path d="M 79.07016306316243 101.71520430193888 l -2.7014876773387413 0.22138745274459867 a23.710543870710417,23.710543870710417 0 0,0 -0.029834007857353326,-0.4070613339839611 l 2.70489824386043 -0.17485298226387694" fill="#ff2503" stroke="none" /><path d="M 79.04373962182676 101.35467743843564 l -0.38043232921970477 0.024592321528044428 a21.38122636240647,21.38122636240647 0 0,0 -0.020580600346854418,-0.367480444458422 l 0.3807992804540908 -0.01804016073418484" fill="#ff0400" stroke="none" /><path d="M 79.0235259727143 100.99374915477108 l -0.8964870970639403 0.042470593189857776 a21.897492543973502,21.897492543973502 0 0,0 -0.014596104358207653,-0.3766605971535518 l 0.8970853342733488 -0.027032749022309198" fill="#ff0b01" stroke="none" /><line stroke="#e1ed5e" stroke-width="0.3" x1="15.007084014347285" x2="10.007500721073583" y1="101.09737516637583" y2="101.16192664675087" /><path d="M 14.007167355692545 101.11028546245083 a86.0,86.0 0 0,1 10.666146001902534,-42.60595125391555" fill="none" id="id106" stroke="none" /><text fill="#e1ed5e" style="font-size:6.75px; font-family:Arial;" text-anchor="middle"><textPath startOffset="22.20632615414155" xlink:href="#id106">October</textPath></text><path d="M 79.00019446554 99.90962569577889 l -62.99941660337998 -0.27112291266336075 a84.0,84.0 0 0,0 0.018667971529137795,-1.445854967758112 l 62.98541562473312 1.3555141384819447" fill="#4dd2ff" stroke="none" /><path d="M 79.01574976396665 99.18683210126434 l -2.317996868112519 -0.08982549394508124 a23.319736644522806,23.319736644522806 0 0,0 0.018996026234897195,-0.4009760904196954 l 2.3161072336441233 0.12971269098778573" fill="#ff1f03" stroke="none" /><path d="M 79.03285615573316 98.82574320788736 l -5.123743947875074 -0.2869533006749275 a26.131773011363098,26.131773011363098 0 0,0 0.029017976315800643,-0.448895249945096 l 5.11804538055486 0.37510761487303534" fill="#ff4706" stroke="none" /><path d="M 79.05617556472873 98.46500227214037 l -0.7545249856561863 -0.055300030907682075 a21.756548773971552,21.756548773971552 0 0,0 0.03058920632656181,-0.373265796802482 l 0.7534612955101274 0.06827974491794248" fill="#ff0901" stroke="none" /><path d="M 79.08570108090925 98.10471618934814 l -0.8243613715930845 -0.07470481165787293 a21.827739379188685,21.827739379188685 0 0,0 0.037130932880182155,-0.37390342686193606 l 0.8229533130306738 0.08888376922423931" fill="#ff0a01" stroke="none" /><path d="M 79.12142395522702 97.74499172005258 l -1.722562831843429 -0.18604685684534908 a22.73258077519938,22.73258077519938 0 0,0 0.04536735407647653,-0.3886797843510098 l 1.7191051247633635 0.21567037952122062" fill="#ff1702" stroke="none" /><path d="M 79.16333360222342 97.38593545837743 l -0.8921320001444485 -0.11192244399868437 a21.89912520771713,21.89912520771713 0 0,0 0.050142740815261176,-0.37362166127402396 l 0.8900732602713534 0.12726244733736775" fill="#ff0b01" stroke="none" /><path d="M 79.21141760316559 97.0276538004421 l -2.54935481323387 -0.36450609982882803 a23.575281472105743,23.575281472105743 0 0,0 0.06089619430339752,-0.40122983446365995 l 2.5427027254911705 0.40833504668458004" fill="#ff2303" stroke="none" /><path d="M 79.26566170972629 96.67025291283419 l -3.2426341177289486 -0.520737694017334 a24.284180836590807,24.284180836590807 0 0,0 0.06983221310609486,-0.4121536747271138 l 3.233190043102631 0.5764771570602758" fill="#ff2d04" stroke="none" /><path d="M 79.32604984820605 96.31383870115002 l -0.24336923661216686 -0.043392687645258256 a21.247207424383387,21.247207424383387 0 0,0 0.06729726765570831,-0.3595046947896859 l 0.24258624504659693 0.04757545989751685" fill="#ff0200" stroke="none" /><path d="M 79.3925641242962 95.95851677861259 l -0.3038471850210655 -0.059589815420764615 a21.309635362882062,21.309635362882062 0 0,0 0.07369146304034407,-0.35934574477513165 l 0.30277642606572686 0.06481121635929876" fill="#ff0300" stroke="none" /><path d="M 79.46518482838121 95.60439243477599 l -1.2045920429610601 -0.257850574879602 a22.231880233192676,22.231880233192676 0 0,0 0.0833225600881292,-0.37351869896291046 l 1.1999750958708935 0.27854744339247167" fill="#ff1001" stroke="none" /><path d="M 79.62865764111835 94.90015583598534 l -1.3022019918977028 -0.3259985086771835 a22.342387818539073,22.342387818539073 0 0,0 0.0966081318428338,-0.37227054092763545 l 1.2963975281845617 0.34836547515368277" fill="#ff1101" stroke="none" /><path d="M 79.71946130924805 94.55025226153421 l -4.192401213533236 -1.1265740708659078 a25.341128548244377,25.341128548244377 0 0,0 0.11682649963088229,-0.42028707771243135 l 4.172387943335993 1.1985724519972818" fill="#ff3c05" stroke="none" /><path d="M 79.81627453868168 94.20196356495316 l -0.6087295715795263 -0.17486544998209774 a21.633347943008292,21.633347943008292 0 0,0 0.10589431401294463,-0.3570229839682799 l 0.6056293604548748 0.18531782069691688" fill="#ff0701" stroke="none" /><path d="M 79.91906864156998 93.8553929516997 l -0.3117045401321393 -0.09537913755574391 a21.325970704542396,21.325970704542396 0 0,0 0.1104324936875676,-0.3501011833898167 l 0.3100165626763678 0.10073048737197512" fill="#ff0300" stroke="none" /><path d="M 80.02781315780177 93.51064311812611 l -4.103080110605629 -1.3331715431572595 a25.31423373932519,25.31423373932519 0 0,0 0.13821897841166342,-0.4132571526072341 l 4.079523838422193 1.403601798686816" fill="#ff3b05" stroke="none" /><path d="M 80.14247586403 93.16781622104843 l -0.8028537266533396 -0.27623001591501384 a21.84904483279363,21.84904483279363 0 0,0 0.12542071627817247,-0.35458125425368847 l 0.7979799295653576 0.2900088965953134" fill="#ff0a01" stroke="none" /><path d="M 80.2630227832202 92.82701384747504 l -1.9040772427731447 -0.6919965274184996 a23.025924317541463,23.025924317541463 0 0,0 0.13858910377362063,-0.37134989594594026 l 1.8918835504978966 0.7246695603937813" fill="#ff1b02" stroke="none" /><path d="M 80.38941819471856 92.48833698450439 l -0.5107098458909217 -0.195622970247376 a21.546893859152153,21.546893859152153 0 0,0 0.13564944515211882,-0.34521304191986224 l 0.5072668508571118 0.2043850170630016" fill="#ff0601" stroke="none" /><path d="M 80.52162464483688 92.15188598940014 l -1.5502286073486231 -0.6246091181182877 a22.671330393871468,22.671330393871468 0 0,0 0.14895961541866734,-0.3607175241070097 l 1.539247305043756 0.6512012126786086" fill="#ff1602" stroke="none" /><path d="M 80.65960295795068 91.81776055985345 l -2.135487820326235 -0.9034495325735272 a23.318734415294045,23.318734415294045 0 0,0 0.15957708429471232,-0.36832591203385434 l 2.1196200261888416 0.9400745891939808" fill="#ff1f03" stroke="none" /><path d="M 80.803312248108 91.48605970444005 l -1.8926587073212415 -0.839414769999399 a23.070452640968167,23.070452640968167 0 0,0 0.1641272462460652,-0.3616326312122876 l 1.8779291441118247 0.8718694100537576" fill="#ff1c02" stroke="none" /><path d="M 80.95270993114464 91.15688171328213 l -0.6244511712571637 -0.28991502474863434 a21.68846930712955,21.68846930712955 0 0,0 0.16012473591357626,-0.33726353073288984 l 0.6193682415018359 0.3006209711220564" fill="#ff0801" stroke="none" /><path d="M 81.10775173730289 90.83032412892265 l -1.1782496601442103 -0.57188362806254 a22.309703457152008,22.309703457152008 0 0,0 0.17065859401762384,-0.34403731181096414 l 1.1682310531731737 0.5920805283724656" fill="#ff1101" stroke="none" /><path d="M 81.26839172434947 90.50648371742162 l -6.1127324144898285 -3.0980428297467415 a27.852982339543846,27.852982339543846 0 0,0 0.2204239487233393,-0.4257889093997482 l 6.058499032606375 3.202804461406825" fill="#ff5e08" stroke="none" /><path d="M 81.43458229118936 90.18545643968196 l -0.2208159144095938 -0.11673356585755255 a21.249772683563204,21.249772683563204 0 0,0 0.1737339934864934,-0.3219027043096957 l 0.21877382170462858 0.12051725349972094" fill="#ff0200" stroke="none" /><line stroke="#e1ed5e" stroke-width="0.3" x1="26.266209847984243" x2="21.928928074336255" y1="57.711370442889674" y2="55.22380399835377" /><path d="M 25.398753493254645 57.213857153982495 a86.0,86.0 0 0,1 29.58750427330803,-30.492523968695096" fill="none" id="id107" stroke="none" /><text fill="#e1ed5e" style="font-size:6.75px; font-family:Arial;" text-anchor="middle"><textPath startOffset="21.46611528233685" xlink:href="#id107">November</textPath></text><path d="M 81.78341655067845 89.55222093294921 l -1.03057137300323 -0.5910648419841837 a22.188038300007012,22.188038300007012 0 0,0 0.19286722543562748,-0.32967260709916874 l 1.0202444730972775 0.6087168614372443" fill="#ff0f01" stroke="none" /><path d="M 81.96595687620814 89.24020034530311 l -1.4652397349654662 -0.8742180489482314 a22.706219410869693,22.706219410869693 0 0,0 0.20314951942615514,-0.33392439536703034 l 1.4499744172530942 0.8993102175223362" fill="#ff1702" stroke="none" /><path d="M 82.15384107792192 88.93136811851018 l -2.5573219827815947 -1.5861147350219296 a24.009261649686128,24.009261649686128 0 0,0 0.22085365643949967,-0.3493374463669748 l 2.5296407300961326 1.62989982910312" fill="#ff2904" stroke="none" /><path d="M 82.34701348167596 88.62581576622439 l -0.23919465421695124 -0.15411806166473802 a21.28454605872734,21.28454605872734 0 0,0 0.2010916929967058,-0.3062764445420355 l 0.2365063258623252 0.15821257018444052" fill="#ff0200" stroke="none" /><path d="M 82.54541684631803 88.32363383020206 l -1.1752090840660143 -0.7861643827760504 a22.413920375416144,22.413920375416144 0 0,0 0.21728218175636424,-0.3188347905144674 l 1.1615024366409097 0.8062771965609336" fill="#ff1202" stroke="none" /><path d="M 82.7489923806493 88.02491185347247 l -0.6033314054772344 -0.4188130294519082 a21.73444750559439,21.73444750559439 0 0,0 0.21598594809298222,-0.3054968063610179 l 0.596032837580374 0.42913633614471225" fill="#ff0901" stroke="none" /><path d="M 82.95767976084542 87.72973835380427 l -0.641689319450264 -0.4620084433769921 a21.790706636147803,21.790706636147803 0 0,0 0.22178517656628874,-0.3025147315892259 l 0.6336415303703418 0.47298561863771865" fill="#ff0a01" stroke="none" /><path d="M 83.17141714833178 87.43820079747576 l -2.3189359632060276 -1.7309840163052463 a23.89374664857767,23.89374664857767 0 0,0 0.24886367953492866,-0.32747543079535013 l 2.28879634344699 1.770644222981623" fill="#ff2703" stroke="none" /><path d="M 83.39014120810768 87.1503855733568 l -0.5727350986735105 -0.44307572260351635 a21.724114348161383,21.724114348161383 0 0,0 0.23135759650839324,-0.2938006528338839 l 0.5650234215711463 0.45286876939044796" fill="#ff0901" stroke="none" /><path d="M 83.6137871275137 86.86637796730984 l -1.086361535755828 -0.870723571852694 a22.392243127097302,22.392243127097302 0 0,0 0.2436505390635128,-0.2986867513278369 l 1.0712125046159227 0.8892944927886131" fill="#ff1202" stroke="none" /><path d="M 83.84228863543731 86.58626213691792 l -0.407685730637235 -0.3384507494842831 a21.529864666487292,21.529864666487292 0 0,0 0.23917566284524103,-0.28310854492127546 l 0.4017994543048698 0.34541824403467447" fill="#ff0600" stroke="none" /><path d="M 84.07557802195018 86.31012108654704 l -5.46075595174519 -4.694493015718513 a28.201258239998786,28.201258239998786 0 0,0 0.3196251865934331,-0.3653868410765351 l 5.3791389015739135 4.787795412997991" fill="#ff6309" stroke="none" /><path d="M 84.31358615837235 86.03803664274999 l -0.24714968043520036 -0.21997983840226593 a21.330868695773276,21.330868695773276 0 0,0 0.246479568581596,-0.27216889581673953 l 0.24332647123755938 0.22420152148856146" fill="#ff0300" stroke="none" /><path d="M 84.5562425177563 85.77008943001954 l -1.0561534059291244 -0.9731419657315336 a22.436128581403324,22.436128581403324 0 0,0 0.2641401977997876,-0.28176634637012116 l 1.039245886158881 0.9911777289797048" fill="#ff1302" stroke="none" /><path d="M 84.80347519578584 85.50635884689758 l -1.4337741087428546 -1.3674578691152788 a22.98132511686161,22.98132511686161 0 0,0 0.27548670473196074,-0.2839132651912924 l 1.4100231403077754 1.3919353298566948" fill="#ff1b02" stroke="none" /><path d="M 85.05521093208273 85.24692304244772 l -0.3333287496923872 -0.32905280054660535 a21.468384244951785,21.468384244951785 0 0,0 0.26187768913374926,-0.2607531031121534 l 0.3276152603913247 0.3347417543088681" fill="#ff0500" stroke="none" /><path d="M 85.57189188830299 84.74124197986013 l -0.819102712134624 -0.8662598021406462 a22.192197675652427,22.192197675652427 0 0,0 0.2798247136085181,-0.2600665749001395 l 0.8040701147312498 0.8802309631154333" fill="#ff0f01" stroke="none" /><path d="M 85.83668400450813 84.49514656593479 l -2.8068208857446804 -3.0726806111645337 a25.161683508254683,25.161683508254683 0 0,0 0.32229601891943627,-0.2893605480131998 l 2.7535138792292724 3.1205401679470124" fill="#ff3905" stroke="none" /><path d="M 86.10567301691215 84.25364557470407 l -0.11518443299069084 -0.13053780210843202 a21.17409069872537,21.17409069872537 0 0,0 0.27537026084940813,-0.23879837666499537 l 0.1129203734945092 0.13250117219310797" fill="#ff0100" stroke="none" /><path d="M 86.37877921826538 84.01681056812374 l -0.14079054603194033 -0.1652041328383219 a21.21705847912218,21.21705847912218 0 0,0 0.2800070402565006,-0.23449784364343132 l 0.13792596881632935 0.16760313387556555" fill="#ff0100" stroke="none" /><path d="M 86.65592168130627 83.78471172551755 l -0.5311658957313836 -0.6454554533595701 a21.83591264559147,21.83591264559147 0 0,0 0.29228575399610524,-0.23634141928647273 l 0.5199767431707779 0.6545029699101772" fill="#ff0a01" stroke="none" /><path d="M 86.93701828274178 83.55741782278169 l -0.7867621635055307 -0.9903100078808778 a22.26479587824792,22.26479587824792 0 0,0 0.30213057101529817,-0.23581770299314644 l 0.7695990373308069 1.003706100097246" fill="#ff1001" stroke="none" /><path d="M 87.22198572758235 83.33499621200491 l -0.17434649933746732 -0.2273815797932151 a21.286529378354974,21.286529378354974 0 0,0 0.2926936776730965,-0.2204508098470698 l 0.17040666790598083 0.23034897914613928" fill="#ff0200" stroke="none" /><path d="M 87.51073957382395 83.11751280151077 l -0.15664939237618805 -0.21175243939178903 a21.263397281155676,21.263397281155676 0 0,0 0.29612286310020197,-0.21514585355700677 l 0.15298121292220437 0.21441752776546366" fill="#ff0200" stroke="none" /><path d="M 87.80319425747018 82.90503203632743 l -3.4326908281607107 -4.811238366450231 a26.910277568823766,26.910277568823766 0 0,0 0.379395010156621,-0.26579045015254904 l 3.3493646784204296 4.869613659366723" fill="#ff5107" stroke="none" /><path d="M 88.09926311788651 82.69761687909137 l -0.17437091206288102 -0.25351642974215827 a21.3076943209142,21.3076943209142 0 0,0 0.30398500912220633,-0.2052520351191581 l 0.1699812085341352 0.2564803771599818" fill="#ff0300" stroke="none" /><path d="M 88.39885842347998 82.49532879139004 l -0.0841772773286787 -0.12701297998610409 a21.1523749031285,21.1523749031285 0 0,0 0.305231765648611,-0.1985312309517847 l 0.08197848589578058 0.1284431350974238" fill="#ff0000" stroke="none" /><path d="M 88.70189139769569 82.29822771554957 l -0.17474507588370491 -0.27378897211976333 a21.324801851595705,21.324801851595705 0 0,0 0.3111195650850414,-0.19482304311409004 l 0.17000635842642123 0.2767563565567836" fill="#ff0300" stroke="none" /><path d="M 89.00827224532344 82.1063720568725 l -0.43084552973892953 -0.7013810551146548 a21.82314230541855,21.82314230541855 0 0,0 0.32177489009942895,-0.19386577092108928 l 0.4187085734218514 0.7086934354943633" fill="#ff0a01" stroke="none" /><line stroke="#e1ed5e" stroke-width="0.3" x1="56.762969772571076" x2="54.21961505331055" y1="26.818313649435495" y2="22.513508569990535" /><path d="M 56.25429882871897 25.957352633546506 a86.0,86.0 0 0,1 42.265352541879196,-11.944610805530505" fill="none" id="id108" stroke="none" /><text fill="#e1ed5e" style="font-size:6.75px; font-family:Arial;" text-anchor="middle"><textPath startOffset="22.20632615414155" xlink:href="#id108">December</textPath></text><path d="M 89.3179101791058 81.91981866633112 l -0.07858775172240845 -0.13301524566543577 a21.15449624688069,21.15449624688069 0 0,0 0.31510454995592385,-0.18252889392583957 l 0.07628646930116444 0.13434829698132253" fill="#ff0000" stroke="none" /><path d="M 89.94658935756843 81.56283822128135 l -4.385883994819198 -8.043365145543916 a30.161424631604078,30.161424631604078 0 0,0 0.45795807845476877,-0.24462534541791947 l 4.246780869836124 8.117669217463584" fill="#ff7d0b" stroke="none" /><path d="M 90.58718382345135 81.22770947309562 l -0.5614214264693533 -1.1196613136852043 a22.252531626531706,22.252531626531706 0 0,0 0.3438850425985123,-0.16874289692674668 l 0.542065116860415 1.1291593707467806" fill="#ff1001" stroke="none" /><path d="M 90.91171255644093 81.06846463323043 l -1.13585403933106 -2.3660630289949385 a23.624579710323424,23.624579710323424 0 0,0 0.368117963338429,-0.172836319710384 l 1.0949578646930227 2.38526433134533" fill="#ff2403" stroke="none" /><path d="M 91.23893434514133 80.91482961587045 l -0.49226482608503375 -1.0723533471908815 a22.179943371620865,22.179943371620865 0 0,0 0.3483496159692811,-0.15629431853783624 l 0.47373309164897826 1.0806679962452466" fill="#ff0f01" stroke="none" /><path d="M 91.56875222667455 80.76684994638697 l -0.06944801046896246 -0.15842305222013603 a21.172976558044265,21.172976558044265 0 0,0 0.3350535241030078,-0.1434524332910191 l 0.06671072857564642 0.1595950134739413" fill="#ff0100" stroke="none" /><path d="M 91.90106846888425 80.62456947434976 l -0.16025987827958962 -0.3833967636009357 a21.415543387537163,21.415543387537163 0 0,0 0.34133941968278975,-0.13924091981102296 l 0.15363658900841937 0.3860985695955357" fill="#ff0400" stroke="none" /><path d="M 92.23578459929587 80.48803036053334 l -0.43288460467599194 -1.0878666842582028 a22.1708300490184,22.1708300490184 0 0,0 0.35580680821191674,-0.138047513795798 l 0.4140946314643989 1.0951569019445522" fill="#ff0f01" stroke="none" /><path d="M 92.57280143429618 80.3572730644239 l -0.5268873613258047 -1.3934600607178287 a22.489745358220862,22.489745358220862 0 0,0 0.3632818625896587,-0.13379977585352593 l 0.5028231729635766 1.4023231043776772" fill="#ff1402" stroke="none" /><path d="M 92.91201910852362 80.23233633223022 l -0.19702480606633638 -0.5494823081719199 a21.583737596184637,21.583737596184637 0 0,0 0.3508056219596983,-0.12238919325278885 l 0.18753718004335276 0.5527923545969186" fill="#ff0701" stroke="none" /><path d="M 93.25333710446033 80.11325718540243 l -0.9386418705985405 -2.7667796308522705 a23.921663582094926,23.921663582094926 0 0,0 0.3910818108700651,-0.1289335243038495 l 0.8908772374860661 2.7825268794153537" fill="#ff2803" stroke="none" /><path d="M 93.59665428221793 80.00007090966166 l -0.050561414053761654 -0.15792130244885902 a21.165817955476058,21.165817955476058 0 0,0 0.34794047413201107,-0.10810679900025655 l 0.04783556721102183 0.15876823633164078" fill="#ff0100" stroke="none" /><path d="M 93.94186890950719 79.89281104454417 l -0.09595631406638969 -0.31848299575917727 a21.33262446211448,21.33262446211448 0 0,0 0.35250616047554106,-0.10290621459819241 l 0.0904599358674273 0.32008753927606853" fill="#ff0300" stroke="none" /><path d="M 94.28887869178378 79.79150937346287 l -0.5197343473966768 -1.8390515838886252 a22.911082028607645,22.911082028607645 0 0,0 0.38043536493066304,-0.10398735626471806 l 0.4880010932422913 1.8477254809796393" fill="#ff1a02" stroke="none" /><path d="M 94.63758080256005 79.69619591428918 l -1.1019227421661775 -4.172225753110166 a25.315286950437795,25.315286950437795 0 0,0 0.42227238091080893,-0.10764663218093197 l 1.0299414725703693 4.190575381459961" fill="#ff3b05" stroke="none" /><path d="M 95.33964822691252 79.52364482259891 l -0.036992564872004086 -0.16253556257629467 a21.166692108264915,21.166692108264915 0 0,0 0.3559605392207621,-0.07779918670089339 l 0.03418930149772106 0.16314824737305625" fill="#ff0100" stroke="none" /><path d="M 95.692805502759 79.44645832069477 l -0.10928742652934613 -0.521509692128778 a21.53283778073787,21.53283778073787 0 0,0 0.3634267147137439,-0.07289998003055417 l 0.10029430234846583 0.5233136282365428" fill="#ff0600" stroke="none" /><path d="M 96.04723909329186 79.375362276772 l -0.12213584704466245 -0.6372780084018744 a21.648876278751178,21.648876278751178 0 0,0 0.3665926679697028,-0.0669924668701005 l 0.11114805797206635 0.6392859566227111" fill="#ff0801" stroke="none" /><path d="M 96.40284397218896 79.31037775812273 l -0.0291949731045402 -0.16791958987174488 a21.170438654997245,21.170438654997245 0 0,0 0.35956557911742326,-0.05933140143114116 l 0.026300187848231255 0.16839725424251303" fill="#ff0100" stroke="none" /><path d="M 96.75951476605007 79.25152402106235 l -0.5580053760858127 -3.572847986016616 a24.61615994266344,24.61615994266344 0 0,0 0.41921439896315144,-0.06178130513115093 l 0.49642199669401244 3.5819237753087356" fill="#ff3204" stroke="none" /><path d="M 97.11714578562143 79.19881850522333 l -0.12979725935810435 -0.936549734622821 a21.945501313568073,21.945501313568073 0 0,0 0.37462566649645784,-0.048637163339861844 l 0.11365686435378876 0.9386452211268195" fill="#ff0c01" stroke="none" /><path d="M 97.47563105711357 79.15227682838746 l -0.021841434775426834 -0.18037941211092468 a21.18169694710295,21.18169694710295 0 0,0 0.3623414675983779,-0.040713285768787875 l 0.01873326366733098 0.18072865135031102" fill="#ff0100" stroke="none" /><path d="M 97.83486435360386 79.11191278185805 l -0.17629154680622763 -1.7007678995258138 a22.709880158821893,22.709880158821893 0 0,0 0.3891769159977139,-0.03695703755015445 l 0.14698950371827738 1.7035504815911489" fill="#ff1702" stroke="none" /><path d="M 98.19473922651362 79.07773832637324 l -0.1376241069401761 -1.595009219881706 a22.60093560342655,22.60093560342655 0 0,0 0.38788566290785914,-0.030107392752443226 l 0.11014825466998276 1.5971418748226114" fill="#ff1502" stroke="none" /><path d="M 98.55514903715128 79.0497635885617 l -0.12301373069708073 -1.7836903640743822 a22.787927205685907,22.787927205685907 0 0,0 0.39155947448054845,-0.023619936803207234 l 0.09229220737690925 1.785543570257896" fill="#ff1802" stroke="none" /><path d="M 98.91598698831166 79.02799685794201 l -0.0093090437175373 -0.18009866301298366 a21.180339088147853,21.180339088147853 0 0,0 0.36426064927558766,-0.01568582980043867 l 0.006207562052625534 0.18023221933761477" fill="#ff0100" stroke="none" /><path d="M 99.27714615592234 79.0124445844662 l -0.10256709024303756 -2.9779636753989966 a23.97972946087339,23.97972946087339 0 0,0 0.41264931059010984,-0.010657514258491119 l 0.051291144458048714 2.9792879817998474" fill="#ff2903" stroke="none" /><path d="M 99.63851952072746 79.00311137660856 l -0.004368711328518115 -0.25376016258815265 a21.25379776546581,21.25379776546581 0 0,0 0.3658491906010538,-0.0031489794862148133 l 6.216252422169062e-17 0.25379776546580857" fill="#ff0200" stroke="none" /></svg>