<?xml version="1.0" encoding="utf-8" ?>
<svg baseProfile="full" height="200mm" version="1.1" viewBox="0,0,200,200" width="200mm" xmlns="http://www.w3.org/2000/svg" xmlns:ev="http://www.w3.org/2001/xml-events" xmlns:xlink="http://www.w3.org/1999/xlink"><defs /><rect fill="#1a1a1a" height="200" width="200" x="0" y="0" /><rect fill="#1a1a1a" height="200" width="180" x="10" y="0" /><text alignment-baseline="middle" fill="#e1ed5e" style="dominant-baseline: central; font-size:9.0px; font-family:Arial;" text-anchor="middle" x="100.0" y="100.0">2018</text><line stroke="#e1ed5e" stroke-width="0.3" x1="100.0" x2="100.0" y1="15.0" y2="10.0" /><path d="M 100.0 14.0 a86.0,86.0 0 0,1 42.46469731375804,11.215312516191453" fill="none" id="id37" stroke="none" /><text fill="#e1ed5e" style="font-size:6.75px; font-family:Arial;" text-anchor="middle"><textPath startOffset="22.20632615414155" xlink:href="#id37">January</textPath></text><line stroke="#e1ed5e" stroke-width="0.3" x1="143.23703022742887" x2="145.7803849466894" y1="26.81831364943548" y2="22.513508569990506" /><path d="M 143.74570117128098 25.957352633546492 a86.0,86.0 0 0,1 28.547481713284135,27.462654790039103" fill="none" id="id38" stroke="none" /><text fill="#e1ed5e" style="font-size:6.75px; font-family:Arial;" text-anchor="middle"><textPath startOffset="19.985693538727396" xlink:href="#id38">February</textPath></text><line stroke="#e1ed5e" stroke-width="0.3" x1="172.23445277983987" x2="176.4835382374775" y1="55.19839476539836" y2="52.563006222186495" /><path d="M 173.08426987136738 54.67131705675599 a86.0,86.0 0 0,1 12.851231095245387,41.99856678651699" fill="none" id="id39" stroke="none" /><text fill="#e1ed5e" style="font-size:6.75px; font-family:Arial;" text-anchor="middle"><textPath startOffset="22.20632615414155" xlink:href="#id39">March</textPath></text><path d="M 117.84615892207809 88.93136811851018 l 5.981783650000361 -3.7100510818973884 a28.038907206782856,28.038907206782856 0 0,0 0.2508603665463352,0.41234848331003626 l -6.04475981483292 3.6065348253802707" fill="#ff3b05" stroke="none" /><path d="M 118.56541770881063 90.18545643968196 l 5.037061045819562 -2.662824819002919 a26.69759773904852,26.69759773904852 0 0,0 0.21128042388169854,0.4081265297311961 l -5.082150902861377 2.575725567011378" fill="#ff2703" stroke="none" /><path d="M 119.7369772167798 92.82701384747503 l 4.749704032055019 -1.7261792865402765 a26.053650494583138,26.053650494583138 0 0,0 0.14955653813237996,0.42281647280025436 l -4.778713650997208 1.6441651873134076" fill="#ff1e03" stroke="none" /><path d="M 120.37134235888165 94.90015583598534 l 6.333059800688598 -1.5854437815589584 a27.528497409326427,27.528497409326427 0 0,0 0.11111969706742324,0.46066288285062307 l -6.35941229801684 1.4761956670489291" fill="#ff3304" stroke="none" /><line stroke="#e1ed5e" stroke-width="0.3" x1="184.98032266829074" x2="189.97916517819016" y1="98.17113171792111" y2="98.06355123074" /><path d="M 185.9800911702706 98.14961562048488 a86.0,86.0 0 0,1 -9.607161424134198,41.387399972396054" fill="none" id="id40" stroke="none" /><text fill="#e1ed5e" style="font-size:6.75px; font-family:Arial;" text-anchor="middle"><textPath startOffset="21.466115282336823" xlink:href="#id40">April</textPath></text><path d="M 120.81339534386255 102.79330883721812 l 3.8705268402058115 0.5194528162664681 a24.905228450306172,24.905228450306172 0 0,0 -0.0606809356337264,0.42440232249068555 l -3.8610118535554836 -0.5860006107375629" fill="#ff0c01" stroke="none" /><path d="M 120.41448212921028 104.9243191809786 l 12.972763938067635 3.129250592114098 a34.34484220442769,34.34484220442769 0 0,0 -0.14357564561286817,0.5735133343515315 l -12.916976978159706 -3.3520917658630256" fill="#ff940d" stroke="none" /><path d="M 119.12269723197855 108.67885076344098 l 3.8884919430264433 1.764795042193817 a25.270230805463967,25.270230805463967 0 0,0 -0.18317955080512618,0.39455245601637845 l -3.857537775381486 -1.8314675654890262" fill="#ff1202" stroke="none" /><line stroke="#e1ed5e" stroke-width="0.3" x1="174.80103733775053" x2="179.2010983576182" y1="140.37084112569926" y2="142.7455964860345" /><path d="M 175.68104954172406 140.8457921977663 a86.0,86.0 0 0,1 -30.038265399797805,32.042727171017184" fill="none" id="id41" stroke="none" /><text fill="#e1ed5e" style="font-size:6.75px; font-family:Arial;" text-anchor="middle"><textPath startOffset="22.206326154141568" xlink:href="#id41">May</textPath></text><path d="M 117.14729908036423 112.12312394758627 l 3.1257676609048337 2.209914728080965 a24.828073480923223,24.828073480923223 0 0,0 -0.24972337312163775,0.34684392384251567 l -3.087264495407593 -2.263392257374612" fill="#ff0b01" stroke="none" /><path d="M 115.80600337817218 113.82643327865902 l 2.642275364537592 2.3113524119623596 a24.510551106924165,24.510551106924165 0 0,0 -0.28051876422815947,0.31516580536933914 l -2.602097750661094 -2.356492387072565" fill="#ff0601" stroke="none" /><line stroke="#e1ed5e" stroke-width="0.3" x1="143.8653032363475" x2="146.44561519142675" y1="172.8068346515853" y2="177.08958963109032" /><path d="M 144.38136562736335 173.6633856474863 a86.0,86.0 0 0,1 -40.68145358897372,12.25698825130547" fill="none" id="id42" stroke="none" /><text fill="#e1ed5e" style="font-size:6.75px; font-family:Arial;" text-anchor="middle"><textPath startOffset="21.466115282336833" xlink:href="#id42">June</textPath></text><path d="M 107.2578585660854 119.70592522655815 l 2.3742735629516316 6.446427258523144 a27.869759773904853,27.869759773904853 0 0,0 -0.451596861952766,0.16192656764951124 l -2.2629571403691306 -6.486341367212616" fill="#ff3805" stroke="none" /><line stroke="#e1ed5e" stroke-width="0.3" x1="102.19456741930631" x2="102.32365962044197" y1="184.97166512339345" y2="189.96999836594603" /><path d="M 102.22038585953345 185.97133177190398 a86.0,86.0 0 0,1 -42.740103519485714,-10.115201625700543" fill="none" id="id43" stroke="none" /><text fill="#e1ed5e" style="font-size:6.75px; font-family:Arial;" text-anchor="middle"><textPath startOffset="22.20632615414155" xlink:href="#id43">July</textPath></text><line stroke="#e1ed5e" stroke-width="0.3" x1="58.666819895761336" x2="56.23545636021788" y1="174.27360380694188" y2="178.64263932499728" /><path d="M 58.180547188652646 175.14741091055294 a86.0,86.0 0 0,1 -31.652253787137756,-30.449443065178592" fill="none" id="id44" stroke="none" /><text fill="#e1ed5e" style="font-size:6.75px; font-family:Arial;" text-anchor="middle"><textPath startOffset="22.20632615414155" xlink:href="#id44">August</textPath></text><path d="M 89.7882731507175 118.34994917583269 l -2.098141899037694 3.770253335138117 a25.314743287800283,25.314743287800283 0 0,0 -0.37893908417110056,-0.21517150169494817 l 2.162729750130002 -3.7335786676485356" fill="#ff1302" stroke="none" /><path d="M 88.8546689885994 117.79835938074946 l -4.720097556453262 7.537684841842598 a29.893593970796044,29.893593970796044 0 0,0 -0.43376771833913924,-0.276851080853312 l 4.849147076839325 -7.455319332165482" fill="#ff5607" stroke="none" /><path d="M 88.54995079064634 117.60387380957326 l -5.028745116722264 7.731442270393835 a30.222986340084788,30.222986340084788 0 0,0 -0.43366430780495563,-0.2874090562211897 l 5.161084123267181 -7.643735193081326" fill="#ff5a08" stroke="none" /><path d="M 87.95078237400918 117.19931262002967 l -8.823228319060448 12.594466038199783 a36.37757889778615,36.37757889778615 0 0,0 -0.5097584451733083,-0.3636991157049925 l 9.038714092082643 -12.440722660650572" fill="#ffaf10" stroke="none" /><path d="M 87.07902340077011 116.55440617244103 l -8.210875897325025 10.519806579010924 a34.34484220442769,34.34484220442769 0 0,0 -0.462907154750853,-0.36776144002957406 l 8.390740544793237 -10.376911224976219" fill="#ff940d" stroke="none" /><path d="M 86.79598089348748 116.32954008644616 l -5.75242452737326 7.114079899177604 a30.148798869524256,30.148798869524256 0 0,0 -0.40073477871344465,-0.3297774409963254 l 5.874029434631393 -7.014007339324098" fill="#ff5908" stroke="none" /><path d="M 86.51685102203217 116.09983520530335 l -19.91034952705095 23.77436804928214 a52.01036269430052,52.01036269430052 0 0,0 -0.6814212549024194,-0.5807219765462652 l 20.316636258530426 -23.428121682512923" fill="#8eff24" stroke="none" /><path d="M 85.97065885151581 115.62618273729859 l -6.704743066063146 7.467887425936477 a31.036081017428167,31.036081017428167 0 0,0 -0.39445447649213233,-0.36032481185019277 l 6.832297092022133 -7.351369847499709" fill="#ff6609" stroke="none" /><path d="M 85.44109423537348 115.13401014063109 l -5.795445719117224 6.024376811044433 a29.359444182760242,29.359444182760242 0 0,0 -0.36119113346839615,-0.3535015447553089 l 5.898286804961415 -5.923725163366554" fill="#ff4e07" stroke="none" /><path d="M 84.9287848128048 114.62390073753433 l -10.288606769101266 9.983240385731744 a35.33598681111634,35.33598681111634 0 0,0 -0.4198141528539567,-0.4401734608725081 l 10.45892747333418 -9.804659808276737" fill="#ffa10e" stroke="none" /><path d="M 84.67929136418377 114.36230785411682 l -6.607461529417495 6.194125798977562 a30.056806406029203,30.056806406029203 0 0,0 -0.3505963187301827,-0.38050306036770404 l 6.713104256143407 -6.079471483808514" fill="#ff5808" stroke="none" /><path d="M 84.43433777217949 114.09645910891817 l -23.300102681955153 21.100865474437615 a52.43471502590674,52.43471502590674 0 0,0 -0.6001057013184756,-0.674225117108174 l 23.659867232921968 -20.696666187588576" fill="#89ff24" stroke="none" /><path d="M 84.19399662182784 113.82643327865904 l -6.352181856927224 5.55662405716057 a29.439566650965617,29.439566650965617 0 0,0 -0.3303644950614453,-0.3842885433233413 l 6.446888861559448 -5.446458414675698" fill="#ff4f07" stroke="none" /><path d="M 83.95833913139862 113.55231037782056 l -11.948506044050578 10.09433273690422 a36.64168629298163,36.64168629298163 0 0,0 -0.4028910445569351,-0.48530821727437334 l 12.12049308850105 -9.887163262516086" fill="#ffb310" stroke="none" /><path d="M 83.50135304334701 112.99209946851258 l -11.708366229342158 9.219923249769694 a35.90277908619878,35.90277908619878 0 0,0 -0.37816428460918455,-0.4888283149159388 l 11.86533733116941 -9.017016940740502" fill="#ffa90f" stroke="none" /><path d="M 83.06392112726016 112.41649034213515 l -16.293098205220844 11.945096502485551 a41.20273198304287,41.20273198304287 0 0,0 -0.41442140972145297,-0.575595091782303 l 16.496299407317903 -11.662867805252109" fill="#ffef16" stroke="none" /><path d="M 82.6465618267979 111.8261652097733 l -12.52586371013419 8.536229659659252 a36.157983984926986,36.157983984926986 0 0,0 -0.3460782140751842,-0.5173399735336986 l 12.670945029620105 -8.319352771919734" fill="#ffad10" stroke="none" /><path d="M 82.44556493220864 111.52570212397912 l -7.64275286536013 5.017996454636785 a30.142863871879413,30.142863871879413 0 0,0 -0.28103934047627355,-0.436179297484395 l 7.7279970692134485 -4.8856955572309415" fill="#ff5908" stroke="none" /><path d="M 82.05923443525364 110.91462005526583 l -25.352000327008522 15.423391505321472 a50.67498822421102,50.67498822421102 0 0,0 -0.4469512829947989,-0.7491160588890498 l 25.61373248570155 -14.984713352546311" fill="#9dff22" stroke="none" /><line stroke="#e1ed5e" stroke-width="0.3" x1="26.63291911575756" x2="22.317208475507996" y1="142.92168965132927" y2="145.44649492493687" /><path d="M 25.769776987707644 143.4266507060508 a86.0,86.0 0 0,1 -11.730757126820373,-40.83630448921669" fill="none" id="id45" stroke="none" /><text fill="#e1ed5e" style="font-size:6.75px; font-family:Arial;" text-anchor="middle"><textPath startOffset="21.46611528233685" xlink:href="#id45">September</textPath></text><path d="M 81.69416730710424 110.29060199501025 l -12.990846695768605 7.302788961696863 a35.90277908619878,35.90277908619878 0 0,0 -0.29820436375637094,-0.5413275395305056 l 13.114627468976492 -7.078090903768535" fill="#ffa90f" stroke="none" /><path d="M 80.87730276802145 108.67885076344099 l -5.9313688776532585 2.691956301331085 a27.51365991521432,27.51365991521432 0 0,0 -0.19201772153553698,-0.43294927086460977 l 5.976827683920075 -2.5894586939737794" fill="#ff3304" stroke="none" /><path d="M 80.73074385275274 108.34839909993369 l -8.980217631694035 3.890676434043519 a30.786811116344794,30.786811116344794 0 0,0 -0.20649010180737867,-0.48808160448264115 l 9.04585871469372 -3.735520303894719" fill="#ff6209" stroke="none" /><path d="M 80.45479744820244 107.68017299344265 l -20.642606293754362 8.111391373479567 a43.17908619877532,43.17908619877532 0 0,0 -0.26587156416317204,-0.6941067574469616 l 20.779172137511043 -7.754861049199447" fill="#f7ff19" stroke="none" /><path d="M 80.32549172779594 107.34259656027581 l -33.53748374294831 12.516308380585082 a56.796938294865754,56.796938294865754 0 0,0 -0.333954472790439,-0.9188992813803938 l 33.74796247674397 -11.937161302198572" fill="#5aff2a" stroke="none" /><path d="M 80.0844068197444 106.66101706037122 l -17.56662260449677 5.875374727862061 a39.52312764955252,39.52312764955252 0 0,0 -0.21023998202518807,-0.6470521315349452 l 17.66515483753821 -5.572123696349313" fill="#ffd914" stroke="none" /><path d="M 79.67330655649465 105.27499134158121 l -4.6359797293194935 1.2030856371142824 a25.789543099387657,25.789543099387657 0 0,0 -0.10781095683934215,-0.43065118093411203 l 4.656002000453895 -1.1231066167827786" fill="#ff1a02" stroke="none" /><path d="M 79.58551787078972 104.9243191809786 l -6.712835597928263 1.6192497504668688 a27.905369759773905,27.905369759773905 0 0,0 -0.10861757769821519,-0.46792168193779426 l 6.739713741557033 -1.5034594111805004" fill="#ff3905" stroke="none" /><path d="M 79.35854240842038 103.8639653848113 l -43.8633404515555 8.210971943964994 a65.62524729156854,65.62524729156854 0 0,0 -0.1982931149057402,-1.1121330947411998 l 43.99818000880043 -7.45472009849058" fill="#35ff69" stroke="none" /><path d="M 79.23777060512086 103.15116336523772 l -6.434041789397544 0.9765192548233149 a27.507724917569476,27.507724917569476 0 0,0 -0.06702184998960894,-0.4687506627271333 l 6.449897690403753 -0.8656231201157811" fill="#ff3304" stroke="none" /><path d="M 79.07016306316243 101.71520430193888 l -8.112653233784098 0.664833546898495 a29.139849269901084,29.139849269901084 0 0,0 -0.03666548084349247,-0.5002713552492666 l 8.122895273291926 -0.5250890551524678" fill="#ff4b07" stroke="none" /><path d="M 79.04373962182676 101.35467743843564 l -6.1713867114620395 0.3989375103673872 a27.18426754592558,27.18426754592558 0 0,0 -0.026166345026323867,-0.46721766800138975 l 6.177339407375896 -0.2926481260305599" fill="#ff2e04" stroke="none" /><path d="M 79.0235259727143 100.99374915477108 l -37.67762054086132 1.7849569721566438 a58.71987753179463,58.71987753179463 0 0,0 -0.03914062117541984,-1.0100455150969434 l 37.70276329488794 -1.1361342100457035" fill="#46ff2d" stroke="none" /><line stroke="#e1ed5e" stroke-width="0.3" x1="15.007084014347285" x2="10.007500721073583" y1="101.09737516637583" y2="101.16192664675087" /><path d="M 14.007167355692545 101.11028546245083 a86.0,86.0 0 0,1 10.666146001902534,-42.60595125391555" fill="none" id="id46" stroke="none" /><text fill="#e1ed5e" style="font-size:6.75px; font-family:Arial;" text-anchor="middle"><textPath startOffset="22.20632615414155" xlink:href="#id46">October</textPath></text><path d="M 79.00486145842228 99.54816195383935 l -9.315789216281773 -0.20048584054796548 a30.317946302402262,30.317946302402262 0 0,0 0.015719574419900087,-0.5216561460868545 l 9.310957947406228 0.36081213405981444" fill="#ff5c08" stroke="none" /><path d="M 79.01574976396665 99.18683210126434 l -29.943329093282824 -1.1603442451388553 a50.96580310880829,50.96580310880829 0 0,0 0.04151623784160186,-0.8763421640299613 l 29.918919247207725 1.6755975157918255" fill="#9aff23" stroke="none" /><path d="M 79.03285615573316 98.82574320788736 l -3.0754444621312746 -0.17223907916339024 a24.080263777673103,24.080263777673103 0 0,0 0.026739881893008268,-0.41365413753295716 l 3.0720239892338532 0.22515228094935918" fill="#ff0000" stroke="none" /><path d="M 79.46518482838121 95.60439243477599 l -61.60444551485639 -13.186822695672024 a84.0,84.0 0 0,0 0.31482245199184966,-1.4112873218001631 l 61.3683286758625 14.245288187022146" fill="#4dd2ff" stroke="none" /><path d="M 79.91906864156998 93.8553929516997 l -5.368787865777147 -1.642806858509305 a26.614507772020726,26.614507772020726 0 0,0 0.13781817963884632,-0.43692129166890686 l 5.3397142023700965 1.7349783166046262" fill="#ff2603" stroke="none" /><path d="M 80.14247586403 93.16781622104843 l -8.44061694785649 -2.904080377826612 a29.926236457842677,29.926236457842677 0 0,0 0.17178645752143298,-0.48566344842625103 l 8.389377409525249 3.048941452679474" fill="#ff5608" stroke="none" /><path d="M 81.43458229118936 90.18545643968196 l -3.670233543282064 -1.9402562092630622 a25.15153085256712,25.15153085256712 0 0,0 0.20563400664964282,-0.3810085839286489 l 3.636291437413949 2.0031457765241836" fill="#ff1001" stroke="none" /><line stroke="#e1ed5e" stroke-width="0.3" x1="26.266209847984243" x2="21.928928074336255" y1="57.711370442889674" y2="55.22380399835377" /><path d="M 25.398753493254645 57.213857153982495 a86.0,86.0 0 0,1 29.58750427330803,-30.492523968695096" fill="none" id="id47" stroke="none" /><text fill="#e1ed5e" style="font-size:6.75px; font-family:Arial;" text-anchor="middle"><textPath startOffset="21.46611528233685" xlink:href="#id47">November</textPath></text><path d="M 82.15384107792192 88.93136811851018 l -7.24017742797261 -4.490538219277994 a29.519689119170984,29.519689119170984 0 0,0 0.2715423478677219,-0.42951478329084625 l 7.161807483858925 4.6145006502830554" fill="#ff5007" stroke="none" /><path d="M 82.34701348167596 88.62581576622439 l -3.402544551718418 -2.1923298108624483 a25.047668393782384,25.047668393782384 0 0,0 0.23664484217930964,-0.36042632990850293 l 3.364303074181188 2.2505742047486184" fill="#ff0f01" stroke="none" /><path d="M 85.05521093208273 85.24692304244772 l -5.087423014311736 -5.022161430627903 a28.148704663212435,28.148704663212435 0 0,0 0.3433662098275444,-0.3418916862011228 l 5.000221004316878 5.108988967479135" fill="#ff3c05" stroke="none" /><path d="M 85.31137513191541 84.99185889309783 l -6.295421463716517 -6.432363444734004 a30.0004239284032,30.0004239284032 0 0,0 0.3721720539085579,-0.358029220988497 l 6.183766166195531 6.539775752484815" fill="#ff5708" stroke="none" /><path d="M 85.83668400450813 84.49514656593479 l -3.3983952746601784 -3.720288431141225 a26.03881300047103,26.03881300047103 0 0,0 0.3335311711033278,-0.29944757857548304 l 3.333853115960879 3.778235018485987" fill="#ff1d03" stroke="none" /><path d="M 86.93701828274178 83.55741782278169 l -2.028669369844578 -2.5535182966692784 a24.261281205840792,24.261281205840792 0 0,0 0.32922263398986185,-0.25696348787197554 l 1.9844141806952904 2.5880601737644757" fill="#ff0300" stroke="none" /><path d="M 87.51073957382395 83.11751280151077 l -3.197909546711868 -4.322807367451128 a26.377107866227036,26.377107866227036 0 0,0 0.3673385112628383,-0.26688705060662904 l 3.123025719095248 4.377213652874426" fill="#ff2203" stroke="none" /><path d="M 88.70189139769569 82.29822771554957 l -2.2558964844638716 -3.534517791511322 a25.193075836081018,25.193075836081018 0 0,0 0.3675559966194707,-0.23016353136346163 l 2.1947213354721584 3.5728256641977136" fill="#ff1101" stroke="none" /><line stroke="#e1ed5e" stroke-width="0.3" x1="56.762969772571076" x2="54.21961505331055" y1="26.818313649435495" y2="22.513508569990535" /><path d="M 56.25429882871897 25.957352633546506 a86.0,86.0 0 0,1 42.265352541879196,-11.944610805530505" fill="none" id="id48" stroke="none" /><text fill="#e1ed5e" style="font-size:6.75px; font-family:Arial;" text-anchor="middle"><textPath startOffset="22.20632615414155" xlink:href="#id48">December</textPath></text></svg>