<?xml version="1.0" encoding="utf-8" ?>
<svg baseProfile="full" height="200mm" version="1.1" viewBox="0,0,200,200" width="200mm" xmlns="http://www.w3.org/2000/svg" xmlns:ev="http://www.w3.org/2001/xml-events" xmlns:xlink="http://www.w3.org/1999/xlink"><defs /><rect fill="#1a1a1a" height="200" width="200" x="0" y="0" /><rect fill="#1a1a1a" height="200" width="180" x="10" y="0" /><text alignment-baseline="middle" fill="#e1ed5e" style="dominant-baseline: central; font-size:9.0px; font-family:Arial;" text-anchor="middle" x="100.0" y="100.0">2017</text><line stroke="#e1ed5e" stroke-width="0.3" x1="100.0" x2="100.0" y1="15.0" y2="10.0" /><path d="M 100.0 14.0 a86.0,86.0 0 0,1 42.46469731375804,11.215312516191453" fill="none" id="id25" stroke="none" /><text fill="#e1ed5e" style="font-size:6.75px; font-family:Arial;" text-anchor="middle"><textPath startOffset="22.20632615414155" xlink:href="#id25">January</textPath></text><line stroke="#e1ed5e" stroke-width="0.3" x1="143.23703022742887" x2="145.7803849466894" y1="26.81831364943548" y2="22.513508569990506" /><path d="M 143.74570117128098 25.957352633546492 a86.0,86.0 0 0,1 28.547481713284135,27.462654790039103" fill="none" id="id26" stroke="none" /><text fill="#e1ed5e" style="font-size:6.75px; font-family:Arial;" text-anchor="middle"><textPath startOffset="19.985693538727396" xlink:href="#id26">February</textPath></text><line stroke="#e1ed5e" stroke-width="0.3" x1="172.23445277983987" x2="176.4835382374775" y1="55.19839476539836" y2="52.563006222186495" /><path d="M 173.08426987136738 54.67131705675599 a86.0,86.0 0 0,1 12.851231095245387,41.99856678651699" fill="none" id="id27" stroke="none" /><text fill="#e1ed5e" style="font-size:6.75px; font-family:Arial;" text-anchor="middle"><textPath startOffset="22.20632615414155" xlink:href="#id27">March</textPath></text><path d="M 120.28053869075195 94.5502522615342 l 6.919430178141959 -1.8593761013851535 a28.164900102345037,28.164900102345037 0 0,0 0.12178458294282936,0.46928567713667035 l -6.9504110929550915 1.7399939986996327" fill="red" stroke="none" /><path d="M 120.45610955862082 95.25157060432595 l 39.004996917808576 -9.054139713709342 a61.0420682596894,61.0420682596894 0 0,0 0.2287787333829676,1.0255702027542697 l -39.155070038193585 8.381391341405108" fill="red" stroke="none" /><path d="M 120.73433829027371 96.67025291283417 l 18.48385112978621 -2.968339215719433 a39.720678147109865,39.720678147109865 0 0,0 0.10260060467024285,0.6760097917221662 l -18.532207627895755 2.6497303116051842" fill="red" stroke="none" /><path d="M 120.83666639777658 97.38593545837742 l 18.809836301859722 -2.3597885175943234 a39.95728207181952,39.95728207181952 0 0,0 0.07974264697933245,0.6831863013050905 l -18.847669301842643 2.03565847796438" fill="red" stroke="none" /><line stroke="#e1ed5e" stroke-width="0.3" x1="184.98032266829074" x2="189.97916517819016" y1="98.17113171792111" y2="98.06355123074" /><path d="M 185.9800911702706 98.14961562048488 a86.0,86.0 0 0,1 -9.607161424134198,41.387399972396054" fill="none" id="id28" stroke="none" /><text fill="#e1ed5e" style="font-size:6.75px; font-family:Arial;" text-anchor="middle"><textPath startOffset="21.466115282336823" xlink:href="#id28">April</textPath></text><line stroke="#e1ed5e" stroke-width="0.3" x1="174.80103733775053" x2="179.2010983576182" y1="140.37084112569926" y2="142.7455964860345" /><path d="M 175.68104954172406 140.8457921977663 a86.0,86.0 0 0,1 -30.038265399797805,32.042727171017184" fill="none" id="id29" stroke="none" /><text fill="#e1ed5e" style="font-size:6.75px; font-family:Arial;" text-anchor="middle"><textPath startOffset="22.206326154141568" xlink:href="#id29">May</textPath></text><path d="M 116.0416608686014 113.55231037782055 l 12.914085450377392 10.910073196458852 a37.905717972678325,37.905717972678325 0 0,0 -0.42536982715996197,0.49480120804931366 l -12.724373113646651 -11.130751503669693" fill="red" stroke="none" /><path d="M 115.32070863581623 114.36230785411682 l 6.763618259114686 6.340514003251616 a30.270849463801007,30.270849463801007 0 0,0 -0.35963707740056844,0.37707803784440824 l -6.653474630335153 -6.455999157678531" fill="red" stroke="none" /><path d="M 114.81725581225074 114.88116024355365 l 5.2447533967040325 5.267373171066253 a28.433213189160327,28.433213189160327 0 0,0 -0.34979628483470315,0.34234928706951223 l -5.153307159493536 -5.356872561058337" fill="red" stroke="none" /><path d="M 111.1453310114006 117.79835938074945 l 6.077386876692266 9.705186469255553 a32.450994526765456,32.450994526765456 0 0,0 -0.47598006176793173,0.292385829873962 l -5.909427614992025 -9.808360765957893" fill="red" stroke="none" /><line stroke="#e1ed5e" stroke-width="0.3" x1="143.8653032363475" x2="146.44561519142675" y1="172.8068346515853" y2="177.08958963109032" /><path d="M 144.38136562736335 173.6633856474863 a86.0,86.0 0 0,1 -40.68145358897372,12.25698825130547" fill="none" id="id30" stroke="none" /><text fill="#e1ed5e" style="font-size:6.75px; font-family:Arial;" text-anchor="middle"><textPath startOffset="21.466115282336833" xlink:href="#id30">June</textPath></text><path d="M 110.8373102113329 117.98757091392108 l 19.299121374873984 32.03233159681046 a58.3968762515018,58.3968762515018 0 0,0 -0.8654754343355723,0.5113381418433992 l -18.74487806951003 -32.35978831094761" fill="red" stroke="none" /><path d="M 108.2653958097858 119.30500536409082 l 24.796187429357403 57.91501609227246 a84.0,84.0 0 0,0 -1.3341141620101555,0.5576598279201073 l -23.79560180784979 -58.33326096321254" fill="red" stroke="none" /><path d="M 107.59598834532513 119.57807347666477 l 12.268052409030243 31.61995787255093 a54.91646865127041,54.91646865127041 0 0,0 -0.8842330200799692,0.33434126738234615 l -11.72194916819 -31.826447390039906" fill="red" stroke="none" /><path d="M 106.2309692047433 120.05430185196036 l 3.9567518591713067 12.734759798960628 a34.335291238374936,34.335291238374936 0 0,0 -0.5659192170230537,0.17050681778292118 l -3.7369576677080074 -12.800981985849274" fill="red" stroke="none" /><path d="M 105.88484417918355 120.15858648285463 l 8.736932308896998 29.928439935036977 a52.17764428425221,52.17764428425221 0 0,0 -0.8643321984864862,0.24426891287325525 l -8.220468942305905 -30.07439764124875" fill="red" stroke="none" /><path d="M 105.18746579009965 120.34920634021253 l 2.4519333918745407 9.618357121301363 a30.9259644907222,30.9259644907222 0 0,0 -0.5169742024102915,0.12705968103259538 l -2.2860059047210384 -9.659138060647988" fill="red" stroke="none" /><path d="M 104.83641907484287 120.43548508189849 l 3.0912220833573447 13.061445212196922 a34.4222578204957,34.4222578204957 0 0,0 -0.5777691568632719,0.131498379047203 l -2.865932777101211 -13.11272032482181" fill="red" stroke="none" /><path d="M 104.48393922423573 120.51570834832081 l 6.6969842725270725 30.64122176452449 a52.36453522004183,52.36453522004183 0 0,0 -0.8822390323396602,0.184881767076214 l -6.168553778758034 -30.751959512327247" fill="red" stroke="none" /><line stroke="#e1ed5e" stroke-width="0.3" x1="102.19456741930631" x2="102.32365962044197" y1="184.97166512339345" y2="189.96999836594603" /><path d="M 102.22038585953345 185.97133177190398 a86.0,86.0 0 0,1 -42.740103519485714,-10.115201625700543" fill="none" id="id31" stroke="none" /><text fill="#e1ed5e" style="font-size:6.75px; font-family:Arial;" text-anchor="middle"><textPath startOffset="22.20632615414155" xlink:href="#id31">July</textPath></text><path d="M 100.18074693466247 120.99922214144158 l 0.07928693684413302 9.211575304519817 a30.211916522048682,30.211916522048682 0 0,0 -0.5200677430131706,0.0 l 0.07928693684412667 -9.211575304519817" fill="red" stroke="none" /><path d="M 98.01472825383883 120.90594882070398 l -1.2731899685366257 13.407355629136857 a34.46767231789258,34.46767231789258 0 0,0 -0.5901643541139955,-0.06117294834036903 l 1.5037869192562143 -13.383453312340727" fill="red" stroke="none" /><path d="M 97.2962882734958 120.8252237178851 l -1.3591907224872917 10.469108297898938 a31.556970586926532,31.556970586926532 0 0,0 -0.5380785198065009,-0.07457277986253885 l 1.5391978334806236 -10.444160952543793" fill="red" stroke="none" /><line stroke="#e1ed5e" stroke-width="0.3" x1="58.666819895761336" x2="56.23545636021788" y1="174.27360380694188" y2="178.64263932499728" /><path d="M 58.180547188652646 175.14741091055294 a86.0,86.0 0 0,1 -31.652253787137756,-30.449443065178592" fill="none" id="id32" stroke="none" /><text fill="#e1ed5e" style="font-size:6.75px; font-family:Arial;" text-anchor="middle"><textPath startOffset="22.20632615414155" xlink:href="#id32">August</textPath></text><line stroke="#e1ed5e" stroke-width="0.3" x1="26.63291911575756" x2="22.317208475507996" y1="142.92168965132927" y2="145.44649492493687" /><path d="M 25.769776987707644 143.4266507060508 a86.0,86.0 0 0,1 -11.730757126820373,-40.83630448921669" fill="none" id="id33" stroke="none" /><text fill="#e1ed5e" style="font-size:6.75px; font-family:Arial;" text-anchor="middle"><textPath startOffset="21.46611528233685" xlink:href="#id33">September</textPath></text><path d="M 81.87401531095188 110.60418214915194 l -10.84564028472985 6.344987435245098 a33.56530058292173,33.56530058292173 0 0,0 -0.2874596337325677,-0.5012101014573741 l 10.953251914614794 -6.157357487929418" fill="red" stroke="none" /><path d="M 81.51974371655577 109.97397251340807 l -33.72655680320057 18.202547917496982 a59.32510123259022,59.32510123259022 0 0,0 -0.477277478692897,-0.9028291229729231 l 34.03488679011836 -17.61930377943793" fill="red" stroke="none" /><path d="M 80.58989483394504 108.01547362559985 l -17.37780073603994 7.17622610897828 a39.801228140435185,39.801228140435185 0 0,0 -0.25604961291038497,-0.6354941407676497 l 17.498752963207714 -6.876032600367826" fill="red" stroke="none" /><path d="M 80.20201598880116 107.00284435728193 l -5.9377213649926635 2.100261245409166 a27.29822453611,27.29822453611 0 0,0 -0.15288197640081286,-0.44434658588761494 l 5.972994172336705 -1.9977419564322545" fill="red" stroke="none" /><line stroke="#e1ed5e" stroke-width="0.3" x1="15.007084014347285" x2="10.007500721073583" y1="101.09737516637583" y2="101.16192664675087" /><path d="M 14.007167355692545 101.11028546245083 a86.0,86.0 0 0,1 10.666146001902534,-42.60595125391555" fill="none" id="id34" stroke="none" /><text fill="#e1ed5e" style="font-size:6.75px; font-family:Arial;" text-anchor="middle"><textPath startOffset="22.20632615414155" xlink:href="#id34">October</textPath></text><path d="M 79.00486145842228 99.54816195383935 l -13.926379738343122 -0.299710725823643 a34.92960441418591,34.92960441418591 0 0,0 0.01811067644786215,-0.6010051815943361 l 13.919157367439615 0.5393860548429735" fill="red" stroke="none" /><path d="M 79.71946130924805 94.55025226153421 l -7.809115893322667 -2.0984507526153147 a29.086147821830643,29.086147821830643 0 0,0 0.13409161440074457,-0.48239888159187416 l 7.771837508355562 2.2325609376261313" fill="red" stroke="none" /><line stroke="#e1ed5e" stroke-width="0.3" x1="26.266209847984243" x2="21.928928074336255" y1="57.711370442889674" y2="55.22380399835377" /><path d="M 25.398753493254645 57.213857153982495 a86.0,86.0 0 0,1 29.58750427330803,-30.492523968695096" fill="none" id="id35" stroke="none" /><text fill="#e1ed5e" style="font-size:6.75px; font-family:Arial;" text-anchor="middle"><textPath startOffset="21.46611528233685" xlink:href="#id35">November</textPath></text><line stroke="#e1ed5e" stroke-width="0.3" x1="56.762969772571076" x2="54.21961505331055" y1="26.818313649435495" y2="22.513508569990535" /><path d="M 56.25429882871897 25.957352633546506 a86.0,86.0 0 0,1 42.265352541879196,-11.944610805530505" fill="none" id="id36" stroke="none" /><text fill="#e1ed5e" style="font-size:6.75px; font-family:Arial;" text-anchor="middle"><textPath startOffset="22.20632615414155" xlink:href="#id36">December</textPath></text></svg>